<?xml version="1.0" standalone="no"?>
<!DOCTYPE svg PUBLIC "-//W3C//DTD SVG 1.1//EN" "http://www.w3.org/Graphics/SVG/1.1/DTD/svg11.dtd" >
<svg xmlns="http://www.w3.org/2000/svg" xmlns:xlink="http://www.w3.org/1999/xlink" version="1.1">
<metadata>
Created by FontForge 20161003 at Sun Dec 16 22:20:09 2018
 By www-data
Copyright (c) 2019 by fontiran.com. All rights reserved.
</metadata>
<defs>
<font id="IRANYekanWeb-Light" horiz-adv-x="0" >
  <font-face 
    font-family="IRANYekanWeb Light"
    font-weight="300"
    font-stretch="normal"
    units-per-em="2200"
    panose-1="2 11 5 6 3 8 4 2 2 4"
    ascent="1760"
    descent="-440"
    x-height="1162"
    cap-height="1564"
    bbox="-461 -1102 3096 2704"
    underline-thickness="100"
    underline-position="-850"
    unicode-range="U+001D-FEFF"
  />
<missing-glyph horiz-adv-x="1229" 
d="M102 -362v1806h1024v-1806h-1024zM217 -248h795v1577h-795v-1577z" />
    <glyph glyph-name="uni06440627.isol" unicode="&#xfedf;&#xfe8e;" horiz-adv-x="1302" arabic-form="isolated" 
d="M1099 617q0 -128 -13.5 -224t-42 -164.5t-72.5 -113t-106.5 -70t-143 -35.5t-181.5 -10h-403v123h403q103 4 175.5 17t121 37.5t76.5 62t42 91t17.5 124.5t3.5 162v811h123v-811zM258 332v1095h125v-1095h-125z" />
    <glyph glyph-name="uni06440627.fina" unicode="&#xfee0;&#xfe8e;" horiz-adv-x="1340" arabic-form="final" 
d="M1124 616q0 -122 7.5 -214t29.5 -154t61.5 -93.5t103.5 -31.5h33v-123h-33q-56 0 -99 15t-76.5 41t-57.5 62t-40 78q-30 -58 -75 -96t-105 -60t-137 -31t-171 -9h-403v123h403q103 4 175.5 17t121 37.5t76.5 62t42 91t17.5 124.5t3.5 162v811h123v-812zM283 332v1095h125
v-1095h-125z" />
    <glyph glyph-name="uni06440623.isol" unicode="&#xfedf;&#xfe84;" horiz-adv-x="1302" arabic-form="isolated" 
d="M1109 617q0 -128 -13.5 -224t-42 -164.5t-72.5 -113t-106.5 -70t-143 -35.5t-181.5 -10h-403v123h403q103 4 175.5 17t121 37.5t76.5 62t42 91t17.5 124.5t3.5 162v811h123v-811zM268 332v1095h125v-1095h-125zM1 1468q2 29 3 52t3 52l157 50q-26 7 -47.5 24t-36.5 39
t-23 48t-8 52q0 31 11 62.5t31 59.5t49 49.5t65 32.5q30 9 57 9q2 0 17.5 -0.5t41.5 -7t49.5 -16t45.5 -18.5l-21 -82q-17 6 -36.5 13.5t-40 12.5t-42 5.5t-43.5 -5.5q-21 -6 -39.5 -20.5t-31.5 -34t-17 -41.5q-2 -10 -2 -20q0 -12 3 -23q10 -32 54.5 -54.5t104.5 -22.5
q45 0 96 13.5t98 27.5l28 -88z" />
    <glyph glyph-name="uni06440623.fina" unicode="&#xfee0;&#xfe84;" horiz-adv-x="1340" arabic-form="final" 
d="M1124 616q0 -122 7.5 -214t29.5 -154t61.5 -93.5t103.5 -31.5h33v-123h-33q-56 0 -99 15t-76.5 41t-57.5 62t-40 78q-30 -58 -75 -96t-105 -60t-137 -31t-171 -9h-403v123h403q103 4 175.5 17t121 37.5t76.5 62t42 91t17.5 124.5t3.5 162v811h123v-812zM283 332v1095h125
v-1095h-125zM24 1492q2 29 3 52t3 52l157 50q-26 7 -47.5 24t-36.5 39t-23 48t-8 52q0 31 11 62.5t31 59.5t49 49.5t65 32.5q30 9 57 9q2 0 17.5 -0.5t41.5 -7t49.5 -16t45.5 -18.5l-21 -82q-17 6 -36.5 13.5t-40 12.5t-42 5.5t-43.5 -5.5q-21 -6 -39.5 -20.5t-31.5 -34
t-17 -41.5q-2 -10 -2 -20q0 -12 3 -23q10 -32 54.5 -54.5t104.5 -22.5q45 0 96 13.5t98 27.5l28 -88z" />
    <glyph glyph-name="uni06440625.isol" unicode="&#xfedf;&#xfe88;" horiz-adv-x="1302" arabic-form="isolated" 
d="M1099 617q0 -128 -13.5 -224t-42 -164.5t-72.5 -113t-106.5 -70t-143 -35.5t-181.5 -10h-403v123h403q103 4 175.5 17t121 37.5t76.5 62t42 91t17.5 124.5t3.5 162v811h123v-811zM258 332v1095h125v-1095h-125zM262 -672q2 29 3 52t3 52l157 50q-26 7 -47.5 24t-36.5 39
t-23 48t-8 52q0 31 11 62.5t31 59.5t49 49.5t65 32.5q30 9 57 9q2 0 17.5 -0.5t41.5 -7t49.5 -16t45.5 -18.5l-21 -82q-17 6 -36.5 13.5t-40 12.5t-42 5.5t-43.5 -5.5q-21 -6 -39.5 -20.5t-31.5 -34t-17 -41.5q-2 -10 -2 -20q0 -12 3 -23q10 -32 54.5 -54.5t104.5 -22.5
q45 0 96 13.5t98 27.5l28 -88z" />
    <glyph glyph-name="uni06440625.fina" unicode="&#xfee0;&#xfe88;" horiz-adv-x="1340" arabic-form="final" 
d="M1124 616q0 -122 7.5 -214t29.5 -154t61.5 -93.5t103.5 -31.5h33v-123h-33q-56 0 -99 15t-76.5 41t-57.5 62t-40 78q-30 -58 -75 -96t-105 -60t-137 -31t-171 -9h-403v123h403q103 4 175.5 17t121 37.5t76.5 62t42 91t17.5 124.5t3.5 162v811h123v-812zM283 332v1095h125
v-1095h-125zM257 -669q2 29 3 52t3 52l157 50q-26 7 -47.5 24t-36.5 39t-23 48t-8 52q0 31 11 62.5t31 59.5t49 49.5t65 32.5q30 9 57 9q2 0 17.5 -0.5t41.5 -7t49.5 -16t45.5 -18.5l-21 -82q-17 6 -36.5 13.5t-40 12.5t-42 5.5t-43.5 -5.5q-21 -6 -39.5 -20.5t-31.5 -34
t-17 -41.5q-2 -10 -2 -20q0 -12 3 -23q10 -32 54.5 -54.5t104.5 -22.5q45 0 96 13.5t98 27.5l28 -88z" />
    <glyph glyph-name="uni06440622.isol" unicode="&#xfedf;&#xfe82;" horiz-adv-x="1302" arabic-form="isolated" 
d="M1149 617q0 -128 -13.5 -224t-42 -164.5t-72.5 -113t-106.5 -70t-143 -35.5t-181.5 -10h-403v123h403q103 4 175.5 17t121 37.5t76.5 62t42 91t17.5 124.5t3.5 162v811h123v-811zM308 332v1095h125v-1095h-125zM881 1584h-491q-71 0 -116.5 -9.5t-75 -29t-47 -49.5
t-32.5 -72q-34 10 -59.5 18t-56.5 17q25 75 55.5 123.5t74.5 76t106 38t151 10.5h491v-123z" />
    <glyph glyph-name="uni06440622.fina" unicode="&#xfee0;&#xfe82;" horiz-adv-x="1340" arabic-form="final" 
d="M1124 616q0 -122 7.5 -214t29.5 -154t61.5 -93.5t103.5 -31.5h33v-123h-33q-56 0 -99 15t-76.5 41t-57.5 62t-40 78q-30 -58 -75 -96t-105 -60t-137 -31t-171 -9h-403v123h403q103 4 175.5 17t121 37.5t76.5 62t42 91t17.5 124.5t3.5 162v811h123v-812zM283 332v1095h125
v-1095h-125zM880 1591h-491q-71 0 -116.5 -9.5t-75 -29t-47 -49.5t-32.5 -72q-34 10 -59.5 18t-56.5 17q25 75 55.5 123.5t74.5 76t106 38t151 10.5h491v-123z" />
    <glyph glyph-name="uni06440671.isol" unicode="&#xfedf;&#xfb51;" horiz-adv-x="1302" 
d="M1099 617q0 -128 -13.5 -224t-42 -164.5t-72.5 -113t-106.5 -70t-143 -35.5t-181.5 -10h-403v123h403q103 4 175.5 17t121 37.5t76.5 62t42 91t17.5 124.5t3.5 162v811h123v-811zM258 332v1095h125v-1095h-125zM-9 1530l19 85h129l47 73l83 122q38 46 84 77t103 31
q33 0 64.5 -12t56.5 -37.5t40.5 -64.5t15.5 -92q0 -51 -17 -85.5t-43 -56t-58.5 -31t-63.5 -9.5h-460zM451 1615q42 0 69 23t27 74q0 58 -23.5 89.5t-67.5 31.5q-32 0 -61 -20t-56 -51.5t-51.5 -69.5t-45.5 -74q-1 -1 -1 -3h210z" />
    <glyph glyph-name="uni06440671.fina" unicode="&#xfee0;&#xfb51;" horiz-adv-x="1340" 
d="M1124 616q0 -122 7.5 -214t29.5 -154t61.5 -93.5t103.5 -31.5h33v-123h-33q-56 0 -99 15t-76.5 41t-57.5 62t-40 78q-30 -58 -75 -96t-105 -60t-137 -31t-171 -9h-403v123h403q103 4 175.5 17t121 37.5t76.5 62t42 91t17.5 124.5t3.5 162v811h123v-812zM283 332v1095h125
v-1095h-125zM-32 1544l19 85h129l47 73l83 122q38 46 84 77t103 31q33 0 64.5 -12t56.5 -37.5t40.5 -64.5t15.5 -92q0 -51 -17 -85.5t-43 -56t-58.5 -31t-63.5 -9.5h-460zM428 1629q42 0 69 23t27 74q0 58 -23.5 89.5t-67.5 31.5q-32 0 -61 -20t-56 -51.5t-51.5 -69.5
t-45.5 -74q-1 -1 -1 -3h210z" />
    <glyph glyph-name="allah" unicode="&#xfedf;&#xfee0;&#xfeea;" horiz-adv-x="2235" arabic-form="isolated" 
d="M1311 1307q-87 0 -136 48t-49 134v91l91 15v-106q0 -48 22 -70t72 -22q7 0 20.5 2.5t26.5 12t23 28t10 49.5v90l92 20v-110q0 -48 22 -70.5t73 -22.5q7 0 20 3.5t26 13t22 28t9 48.5q0 15 -3.5 36t-8.5 42t-9.5 39t-7.5 27l85 29q1 -5 7 -23.5t12 -44t11 -53.5t5 -52
q0 -47 -15 -81.5t-39.5 -57t-55 -33.5t-60.5 -11q-92 0 -140 53q-25 -27 -58 -39.5t-67 -12.5zM1389 1975l93 22v-278l-93 -23v279zM1108 0q-93 0 -159 25t-109.5 70t-67.5 107.5t-34 137.5l-69 538l-155 -32q-59 -15 -107 -46.5t-71 -71.5q-19 -34 -27.5 -75t-8.5 -88
q0 -51 10.5 -115t26 -130t33 -128.5t31.5 -110.5l19 -61q-36 -11 -62.5 -18t-57.5 -15l-17 58q-17 55 -35.5 122.5t-34.5 137t-26.5 137t-10.5 124.5q0 59 13 116.5t40 107.5q37 61 104.5 109.5t150.5 67.5q18 5 47.5 11.5t60.5 13t57 11.5t36 7l89 -57l82 -574
q12 -82 37 -132t59 -77t74.5 -36t81.5 -9q91 0 144 22.5t80.5 56.5t35.5 75t8 78v745q37 8 65 15l60 15l-1 -775q0 -57 18 -99.5t51.5 -71.5t80.5 -44t104 -17h10q70 0 119 12t79 40t43.5 72t13.5 109l-55 877l125 61l54 -941q0 -32 -3 -65.5t-12 -67t-26 -65.5t-45 -60
q-26 -24 -52 -42.5t-58.5 -30.5t-76.5 -18t-106 -6h-10q-36 0 -76.5 5t-82 19t-82 40t-76.5 68q-32 -33 -64.5 -58t-71 -41.5t-85 -24.5t-106.5 -8h-2z" />
    <glyph glyph-name="riyal" unicode="&#x631;&#xfef3;&#xfe8e;&#x644;" horiz-adv-x="3220" arabic-form="isolated" 
d="M1333 -48q0 -115 -25.5 -200.5t-79.5 -148.5q-40 -45 -88.5 -74.5t-103 -47.5t-115 -25t-123.5 -7h-72q-125 0 -228.5 55.5t-167.5 158.5q-44 69 -64 155q-18 72 -18 152q0 15 1 31q4 105 35.5 219t90.5 237l111 -53q-100 -210 -113 -383q-2 -27 -2 -53q0 -139 63 -240
q47 -75 123 -115.5t169 -40.5h72q122 0 205 27.5t131 83.5q39 45 57.5 111t18.5 158v1475h123v-1475zM2390 -553v122h139q235 0 344 123q100 114 100 341v642h123v-642q0 -290 -143.5 -438t-423.5 -148h-139zM2175 -511l-124 125l122 124l126 -125zM1767 -509l-124 125
l122 124l126 -125zM2029 0q-119 0 -190.5 28t-109.5 83t-50 135.5t-12 185.5v995h125v-995q0 -93 6 -153t30 -94.5t71.5 -48t129.5 -13.5h14v-123h-14zM2501 804q10 -43 22 -95t21.5 -107.5t16.5 -112.5t9 -109v-6q0 -68 -21 -135t-62 -120.5t-100.5 -86t-133.5 -32.5h-260
v123h260q48 3 84.5 25t61 57.5t37.5 80.5q11 41 11 84v7q-1 48 -7.5 100t-16 103t-20.5 99t-21 89z" />
    <glyph glyph-name="uni0621" unicode="&#x621;" horiz-adv-x="1004" arabic-form="isolated" 
d="M99 -44l-6 127l299 91q-7 3 -13.5 6t-12.5 7q-68 35 -117 93.5t-71 130.5q-13 42 -13 84q0 20 5.5 60.5t35.5 94t78 93.5t109 59q42 13 84 15h14q34 0 73 -4.5t82 -14t87 -19.5l-28 -120q-44 10 -82.5 18.5t-72.5 13.5q-27 3 -52 3q-6 0 -24 -0.5t-45 -8.5
q-38 -12 -67.5 -34.5t-47.5 -53t-23 -68.5q-2 -15 -2 -30q0 -25 6 -52q4 -11 12 -30t23 -40t37.5 -42.5t55.5 -38.5q70 -38 164 -38q71 0 155 22l149 42l5 -125z" />
    <glyph glyph-name="uni0627" unicode="&#x627;" horiz-adv-x="525" arabic-form="isolated" 
d="M325 0h-125v1427h125v-1427z" />
    <glyph glyph-name="uni0627.fina" unicode="&#x627;" horiz-adv-x="561" arabic-form="final" 
d="M562 0q-119 0 -190.5 28t-109.5 83t-50 135.5t-12 185.5v995h125v-995q0 -93 6 -153t30 -94.5t71.5 -48t129.5 -13.5h14v-123h-14z" />
    <glyph glyph-name="uni062D" unicode="&#x62d;" horiz-adv-x="1449" arabic-form="isolated" 
d="M479 1084q22 -3 38.5 -5t37 -6.5t50 -13.5t78 -27.5t121 -48t179.5 -74.5q69 -29 133 -57t113.5 -49.5t79.5 -34.5l30 -14l-4 -114q-1 0 -44.5 -16t-124 -46t-195 -72.5t-256.5 -96.5q-46 -17 -94.5 -34.5t-96.5 -38t-94.5 -46t-87.5 -59.5q-68 -54 -97 -123
q-26 -59 -26 -137q0 -13 1 -26q3 -70 29.5 -125.5t70 -97t101 -70.5t121 -47t130.5 -26t131 -8h438v-123h-438q-138 0 -263 30t-222 91t-156 153t-65 217q-1 15 -1 30q0 223 169 358q44 36 93.5 63.5t101.5 50.5t105.5 43t106.5 40q77 29 153 55.5t144 49t125 41.5t98 34
q-67 29 -140 59.5t-145 59t-140 54t-125 44t-99.5 29.5t-64.5 11q-63 0 -113.5 -50t-73.5 -139l-119 31q15 55 41.5 104.5t65 88t88.5 62t112 26.5z" />
    <glyph glyph-name="uni062D.init" unicode="&#x62d;" horiz-adv-x="1418" arabic-form="initial" 
d="M478 853q31 0 79.5 -11.5t108.5 -30.5t127 -43.5t134 -51t130 -52.5t115.5 -48t90 -37.5t53.5 -21.5l17 -111q-99 -72 -184 -133t-170 -110.5t-176 -87.5t-202 -63.5t-248 -38.5t-373 -13v123h37q184 0 296.5 9t210 28.5t180 49.5t161.5 71t159.5 92.5t173.5 114.5
q-69 26 -142.5 54t-145.5 55t-140 51t-125 42.5t-100.5 29t-67.5 10.5q-63 0 -113.5 -50t-73.5 -139l-119 31q15 58 42.5 109t66.5 89t88.5 60.5t109.5 22.5z" />
    <glyph glyph-name="uni062D.medi" unicode="&#x62d;" horiz-adv-x="1526" arabic-form="medial" 
d="M1541 0h-72q-33 0 -73 5t-79.5 15t-74 24.5t-57.5 32.5q-45 36 -72.5 84.5t-36.5 106.5q-68 -43 -137.5 -80t-144.5 -67t-158.5 -52.5t-181 -37.5t-211.5 -23t-260 -8v123q160 0 281.5 9t224 28t191 48.5t172 69.5t167.5 91.5t177 114.5q-69 26 -142.5 54.5t-145.5 55.5
t-139.5 52t-124.5 43.5t-100.5 29.5t-67.5 11q-63 0 -113.5 -50t-73.5 -139l-119 31q15 58 42.5 109t66.5 89t88.5 60.5t109.5 22.5q31 0 79.5 -11.5t108.5 -30.5t127 -43.5t134 -51t130 -52.5t115.5 -48t90 -37.5t53.5 -21.5l17 -111q-38 -28 -74.5 -54t-71.5 -51
q0 -53 22 -94t60 -68.5t90 -41.5t111 -14h72v-123z" />
    <glyph glyph-name="uni062D.fina" unicode="&#x62d;" horiz-adv-x="1575" arabic-form="final" 
d="M464 877q23 -3 39 -5t36.5 -6.5t50 -13.5t78 -27.5t121 -48t179.5 -74.5q69 -29 133 -57t113.5 -49.5t79.5 -34.5l30 -14l-4 -114q-1 -1 -44 -16.5t-123 -45.5v-54q0 -54 20 -91t51.5 -60t70 -33t76.5 -10h225v-123h-225q-67 0 -127 20t-106 57q-53 44 -80.5 104.5
t-27.5 135.5v9q-69 -26 -151.5 -57t-178.5 -67q-46 -17 -94.5 -34.5t-96.5 -38t-94.5 -46t-87.5 -59.5q-68 -54 -97 -123q-26 -59 -26 -137q0 -13 1 -26q3 -71 29.5 -126t70 -96.5t101 -70.5t121 -47t130.5 -26t131 -8h438v-123h-438q-138 0 -263 30t-222 91t-156 153
t-65 217q-1 15 -1 30q0 223 169 358q44 36 93.5 63.5t101.5 50.5t105.5 43t106.5 40q77 29 154.5 55t147.5 48.5t129 41t100 33.5q-67 29 -140.5 59.5t-147 59.5t-143 54.5t-127.5 44.5t-101.5 30t-65.5 11q-63 0 -113.5 -50t-73.5 -139l-119 31q15 55 41.5 104.5t65 88
t88.5 62t112 26.5z" />
    <glyph glyph-name="uni062F" unicode="&#x62f;" horiz-adv-x="1064" arabic-form="isolated" 
d="M574 -8q-76 0 -154 12t-146 34.5t-119 52.5l-53 31l63 106l53 -32q42 -25 100 -43t122 -27.5t130 -9.5h12q58 0 109 9q66 11 111 39t62 69q10 25 10 53q0 13 -5 41.5t-35 73.5q-77 115 -132 198t-93 140.5t-61 92.5t-35.5 54t-17 25.5t-4.5 7.5l-33 52l104 66
q8 -14 18.5 -29.5t26.5 -40.5t41.5 -63.5t64 -97t93.5 -141t130 -196.5q48 -72 59 -145q3 -19 3 -38q0 -52 -21 -101q-30 -71 -98 -117.5t-167 -63.5q-63 -12 -138 -12z" />
    <glyph glyph-name="uni0631" unicode="&#x631;" horiz-adv-x="826" arabic-form="isolated" 
d="M0 -553v122h139q235 0 344 123q100 114 100 341v642h123v-642q0 -290 -143.5 -438t-423.5 -148h-139z" />
    <glyph glyph-name="uni0631.fina" unicode="&#x631;" horiz-adv-x="955" arabic-form="final" 
d="M970 0h-46q-62 0 -117.5 17t-100.5 49v-33q0 -290 -143.5 -438t-423.5 -148h-139v122h139q235 0 344 123q100 114 100 341v642h123v-358q0 -54 20 -91t51.5 -60t70 -33t76.5 -10h46v-123z" />
    <glyph glyph-name="uni0633" unicode="&#x633;" horiz-adv-x="2736" arabic-form="isolated" 
d="M2527 802q1 -3 8 -27t17 -61t21 -84t20.5 -96.5t16 -98t6.5 -88.5q0 -51 -9.5 -92.5t-25 -73.5t-34 -56t-36.5 -40q-44 -40 -100 -61.5t-119 -22.5v-1q-179 0 -278 99q-8 8 -15 17t-14 19q-11 -16 -23 -28.5t-23 -22.5q-46 -41 -104.5 -62.5t-123.5 -21.5q-163 0 -255 85
v-136q0 -226 -106 -348q-66 -77 -170 -114q-107 -40 -260 -40h-239q-144 0 -261.5 63t-190.5 179q-25 40 -43.5 84t-29.5 94q-21 87 -21 184q0 17 1 33q12 250 152 542l111 -53q-61 -126 -95.5 -243t-42.5 -221q-3 -35 -3 -68q0 -66 15 -140.5t60 -146.5q56 -88 146.5 -136
t201.5 -48h239q241 0 337 111q76 88 76 268v726h123v-220q0 -196 77 -273q29 -30 72.5 -44.5t105.5 -14.5q37 0 74.5 12t68.5 38t50.5 68.5t19.5 104.5v329h123v-329q0 -220 240 -223v1q36 0 72.5 11.5t66 38t48.5 69t19 104.5q0 36 -6 80.5t-15.5 91t-20 90.5t-20 78.5
t-15.5 56t-6 22.5z" />
    <glyph glyph-name="uni0633.init" unicode="&#x633;" horiz-adv-x="1778" arabic-form="initial" 
d="M-21 123h189q37 0 74.5 12t68.5 38t50.5 68.5t19.5 104.5v329h123v-329q0 -220 240 -223q37 0 74.5 12t68.5 38t50.5 68.5t19.5 104.5v329h123v-329q0 -220 240 -223v1q36 0 72.5 11.5t66 38t48.5 69t19 104.5q0 36 -6 80.5t-15.5 91t-20 90.5t-20 78.5t-15.5 56t-6 22.5
l117 36q1 -3 8 -27t17 -61t21 -84t20.5 -96.5t16 -98t6.5 -88.5q0 -51 -9.5 -92.5t-25 -73.5t-34 -56t-36.5 -40q-44 -40 -100 -61.5t-119 -22.5v-1q-179 0 -278 99q-8 8 -15 17t-14 19q-11 -16 -23 -28.5t-23 -22.5q-46 -41 -107 -62.5t-126 -21.5q-181 0 -280 99
q-8 8 -15 17t-14 19q-11 -16 -23 -28.5t-23 -22.5q-46 -41 -104.5 -62.5t-123.5 -21.5h-177v123z" />
    <glyph glyph-name="uni0633.medi" unicode="&#x633;" horiz-adv-x="1787" arabic-form="medial" 
d="M1753 0q-47 0 -91.5 7.5t-83.5 23.5t-71 42t-53 62q-11 -16 -23 -28.5t-23 -22.5q-46 -41 -102 -62.5t-121 -21.5q-52 0 -93.5 8.5t-75 25t-62 42t-53.5 59.5q-48 -65 -117.5 -100t-152.5 -35q-90 0 -151.5 25t-110.5 74q-8 8 -15 17t-14 19q-11 -16 -23 -28.5t-23 -22.5
q-46 -41 -104.5 -62.5t-123.5 -21.5h-86v123h98q37 0 74.5 12t68.5 38t50.5 68.5t19.5 104.5v329h123v-329q0 -110 51.5 -166t170.5 -57q37 0 73.5 12t65.5 38t47 68.5t18 104.5v329h123v-329q0 -110 52 -166t171 -57q37 0 74 12t66.5 38t48 68.5t18.5 104.5v329h123v-329
q0 -220 238 -223h53v-123h-54z" />
    <glyph glyph-name="uni0633.fina" unicode="&#x633;" horiz-adv-x="2927" arabic-form="final" 
d="M2890 0q-105 2 -180.5 33t-126.5 102q-48 -66 -119.5 -100.5t-154.5 -34.5q-105 0 -180.5 33t-126.5 102q-45 -73 -118 -104t-156 -31q-163 0 -255 85v-136q0 -226 -106 -348q-66 -77 -170 -114q-107 -40 -260 -40h-239q-144 0 -261.5 63t-190.5 179q-25 40 -43.5 84
t-29.5 94q-20 87 -20 184v33q12 250 152 542l111 -53q-61 -126 -95.5 -243t-42.5 -221q-3 -35 -3 -68q0 -66 15 -140.5t60 -146.5q56 -88 146.5 -136t201.5 -48h239q241 0 337 111q76 88 76 268v726h123v-220q0 -196 77 -273q29 -30 72.5 -44.5t105.5 -14.5q37 0 74.5 12
t68.5 38t50.5 68.5t19.5 104.5v329h123v-329q0 -110 62.5 -165.5t182.5 -57.5q37 0 74.5 12t68.5 38t50.5 68.5t19.5 104.5v329h123v-329q0 -110 62.5 -165.5t182.5 -57.5h56v-123h-56z" />
    <glyph glyph-name="uni0635" unicode="&#x635;" horiz-adv-x="2793" arabic-form="isolated" 
d="M2292 854q59 0 109 -20t90.5 -54.5t71.5 -80.5t51.5 -99t31 -110t10.5 -113q0 -67 -14.5 -118t-37 -89t-50.5 -64t-55 -43q-34 -21 -68.5 -33.5t-65.5 -19t-56.5 -8.5t-40.5 -2h-572q-62 0 -117 17t-100 49v-118q0 -73 -14 -143.5t-46.5 -131.5t-85.5 -109t-131 -76
q-108 -38 -259 -38h-239q-146 0 -265 63.5t-193 181.5q-55 88 -76 188q-19 84 -19 173q0 16 1 32q5 124 43 257.5t107 279.5l111 -53q-60 -125 -94 -241t-42 -219q-3 -33 -3 -65q0 -67 15.5 -141.5t60.5 -145.5q57 -90 149 -139t205 -49h239q108 0 186 20t128.5 65
t74.5 116.5t24 174.5v724h123v-356q0 -68 31 -109.5t76 -61.5q40 61 77.5 125t77.5 127.5t83.5 125.5t95.5 121q94 107 185.5 158.5t186.5 51.5zM2268 123q20 0 47.5 3t57 12t58 26t51.5 45.5t37 69.5t14 98q0 86 -21 152.5t-55.5 111.5t-77.5 68t-87 23q-67 0 -136 -42
t-144 -127q-35 -40 -69 -86t-69.5 -100.5t-74 -117.5t-82.5 -136h551z" />
    <glyph glyph-name="uni0635.init" unicode="&#x635;" horiz-adv-x="1792" arabic-form="initial" 
d="M1328 857q65 0 116.5 -20.5t91.5 -55.5t68.5 -82t47.5 -100.5t27.5 -110t8.5 -111.5q0 -66 -14 -117t-35.5 -89.5t-48.5 -64.5t-53 -43q-32 -21 -64.5 -33t-62.5 -19t-55.5 -9t-43.5 -2h-579q-67 0 -127 19.5t-105 57.5q-27 22 -45 46q-4 -5 -8 -9.5t-8 -9.5
q-98 -104 -299 -104h-155v123h155q149 0 209 65q43 46 43 124v363h123v-358q0 -67 29.5 -108t73.5 -62l67 109q59 97 125 199t143 189q95 108 187 160.5t188 52.5zM1311 123q19 0 45 3t54.5 12t56 26t49.5 45.5t35.5 69.5t13.5 98q0 58 -11.5 121.5t-38.5 115.5t-72.5 86
t-114.5 34q-133 0 -283 -171q-72 -81 -135 -179t-120 -192q-11 -17 -21.5 -34.5t-21.5 -34.5h564z" />
    <glyph glyph-name="uni0635.medi" unicode="&#x635;" horiz-adv-x="1848" arabic-form="medial" 
d="M732 0q-67 0 -127 19.5t-105 57.5q-27 22 -45 46q-4 -5 -8 -9.5t-8 -9.5q-98 -104 -299 -104h-155v123h155q149 0 209 65q43 46 43 124v363h123v-358q0 -67 29.5 -108t73.5 -62l67 109q59 97 125 199t143 189q95 108 187 160.5t188 52.5q65 0 116.5 -20.5t91.5 -55.5
t68.5 -82t47.5 -100.5t27.5 -110t8.5 -111.5q0 -90 -24.5 -152t-58.5 -102h262v-123h-1135zM790 192q-11 -17 -21.5 -34.5t-21.5 -34.5h576q20 1 46 5t53 14t52.5 27.5t45.5 45.5t32.5 67.5t12.5 94.5q0 58 -11.5 121.5t-38.5 115.5t-72.5 86t-114.5 34q-133 0 -283 -171
q-72 -81 -135 -179t-120 -192z" />
    <glyph glyph-name="uni0635.fina" unicode="&#x635;" horiz-adv-x="2812" arabic-form="final" 
d="M2292 854q59 0 109 -20t90.5 -54.5t71.5 -80.5t51.5 -99t31 -110t10.5 -113q0 -91 -25.5 -152.5t-60.5 -101.5h261v-123h-1135q-62 0 -117 17t-100 49v-118q0 -73 -14 -143.5t-46.5 -131.5t-85.5 -109t-131 -76q-108 -38 -259 -38h-239q-146 0 -265 63.5t-193 181.5
q-55 88 -76 188q-19 84 -19 173q0 16 1 32q5 124 43 257.5t107 279.5l111 -53q-60 -125 -94 -241t-42 -219q-3 -33 -3 -65q0 -67 15.5 -141.5t60.5 -145.5q57 -90 149 -139t205 -49h239q108 0 186 20t128.5 65t74.5 116.5t24 174.5v724h123v-356q0 -68 31 -109.5t76 -61.5
q40 61 77.5 125t77.5 127.5t83.5 125.5t95.5 121q94 107 185.5 158.5t186.5 51.5zM2268 123q20 0 47.5 3t57 12t58 26t51.5 45.5t37 69.5t14 98q0 86 -21 152.5t-55.5 111.5t-77.5 68t-87 23q-67 0 -136 -42t-144 -127q-35 -40 -69 -86t-69.5 -100.5t-74 -117.5t-82.5 -136
h551z" />
    <glyph glyph-name="uni0637" unicode="&#x637;" horiz-adv-x="1525" arabic-form="isolated" 
d="M1297 718q81 -120 81 -340q0 -67 -16.5 -118.5t-42 -90t-57 -64.5t-61.5 -43q-38 -21 -76.5 -33.5t-72 -19t-59 -8t-37.5 -1.5h-867v123h236q22 35 45 73.5t47 80.5l24 42v1107h123v-907q24 36 49.5 70t52.5 66q173 204 356 204q90 0 159.5 -36t115.5 -105zM956 123
q12 0 39.5 2t60.5 10.5t68.5 24.5t64.5 44.5t47.5 70.5t18.5 103q0 181 -60 273q-57 85 -173 85q-49 0 -96 -22.5t-91.5 -61t-86 -89.5t-80.5 -109t-75.5 -119t-69.5 -119q-27 -48 -54 -93h487z" />
    <glyph glyph-name="uni0637.init" unicode="&#x637;" horiz-adv-x="1425" arabic-form="initial" 
d="M1180 718q81 -120 81 -340q0 -67 -16.5 -118.5t-42 -90t-57 -64.5t-61.5 -43q-38 -21 -76.5 -33.5t-72 -19t-59 -8t-37.5 -1.5h-862v123h231q22 35 45 73.5t47 80.5l24 42v1107h123v-907q24 36 49.5 70t52.5 66q173 204 356 204q90 0 159.5 -36t115.5 -105zM839 123
q13 0 40 2t60 10.5t68.5 24.5t64.5 44.5t47.5 70.5t18.5 103q0 181 -60 273q-57 85 -173 85q-49 0 -96 -22.5t-91.5 -61t-86 -89.5t-80.5 -109t-75.5 -119t-69.5 -119q-27 -48 -54 -93h487z" />
    <glyph glyph-name="uni0637.medi" unicode="&#x637;" horiz-adv-x="1443" arabic-form="medial" 
d="M1457 0h-1472v123h250q22 35 45 73.5t47 80.5l24 42v1107h123v-907q24 36 49.5 70t52.5 66q173 204 356 204q90 0 159.5 -36t115.5 -105q81 -120 81 -340q0 -90 -28 -152.5t-68 -102.5h266zM866 123q13 0 40 2t60 10.5t68.5 24.5t64.5 44.5t47.5 70.5t18.5 103
q0 181 -60 273q-57 85 -173 85q-49 0 -96 -22.5t-91.5 -61t-86 -89.5t-80.5 -109t-75.5 -119t-69.5 -119q-27 -48 -54 -93h487z" />
    <glyph glyph-name="uni0637.fina" unicode="&#x637;" horiz-adv-x="1599" arabic-form="final" 
d="M1613 0h-1501v123h238q22 35 45 73.5t47 80.5l24 42v1107h123v-907q24 36 49.5 70t52.5 66q173 204 356 204q90 0 159.5 -36t115.5 -105q81 -120 81 -340q0 -90 -28 -152.5t-68 -102.5h307zM981 123q12 0 39.5 2t60.5 10.5t68.5 24.5t64.5 44.5t47.5 70.5t18.5 103
q0 181 -60 273q-57 85 -173 85q-50 0 -96.5 -22.5t-91 -61t-86 -89.5t-80.5 -109t-75.5 -119t-69.5 -119q-27 -48 -54 -93h487z" />
    <glyph glyph-name="uni0639" unicode="&#x639;" horiz-adv-x="1384" arabic-form="isolated" 
d="M615 361q-62 0 -132.5 -23t-131.5 -71.5t-101 -123t-40 -176.5q0 -76 21.5 -134.5t58 -102.5t86 -74.5t106 -49t117 -27t119.5 -8.5h475v-123h-475q-118 0 -231 29.5t-202 92t-143.5 161t-54.5 236.5q0 111 47 212.5t135 175.5q73 61 165.5 95t186.5 34
q-14 10 -26.5 19.5t-24.5 20.5q-35 30 -63.5 66.5t-48.5 77t-31.5 85t-11.5 89.5q0 77 33.5 146t88.5 121.5t126 83t147 30.5q47 0 90.5 -10.5t89.5 -30t95.5 -46.5t108.5 -61l-61 -107q-41 23 -83.5 46.5t-84 42.5t-81.5 31t-74 12q-48 0 -96.5 -19.5t-87.5 -54t-63.5 -82
t-24.5 -102.5q0 -60 29.5 -119.5t83.5 -106.5q67 -59 166 -92t225 -40l190 -1v-123l-194 1h-423z" />
    <glyph glyph-name="uni0639.init" unicode="&#x639;" horiz-adv-x="1180" arabic-form="initial" 
d="M1024 123v-123h-1039v123h413q-42 27 -77 65t-59.5 83t-38.5 96t-14 105q0 79 32.5 149t87.5 122.5t127 83.5t150 31q58 0 107.5 -14t95 -35.5t89 -48.5t88.5 -53l-62 -106q-39 23 -78 47t-78 43.5t-79.5 31.5t-82.5 12q-49 0 -98 -19.5t-88 -54t-63.5 -83t-24.5 -106.5
q0 -19 3.5 -45.5t15 -56.5t32.5 -62t56 -62q32 -27 76.5 -49.5t96 -39t107 -25.5t111.5 -9h194z" />
    <glyph glyph-name="uni0639.medi" unicode="&#x639;" horiz-adv-x="1251" arabic-form="medial" 
d="M900 0q-11 0 -25.5 3t-36 13t-52 28.5t-72.5 48.5q-14 10 -29 21.5t-31 23.5q-126 -69 -277 -103.5t-337 -34.5h-61v123h61q165 0 289.5 27.5t218.5 72.5q-15 12 -30 24.5t-31 26.5q-57 48 -110 95t-93.5 83.5t-65.5 59.5l-25 23l-20 19v27q0 133 73 204q76 72 223 72
h337q41 0 79 -10t73 -29q70 -41 102 -108q21 -43 21 -89q0 -16 -7 -55.5t-54 -95.5q-55 -68 -117 -134.5t-140 -125.5l10 -8q34 -25 58 -40.5t39 -23.5t22.5 -11t9.5 -4h369v-123h-371zM297 607q16 -15 42.5 -39.5t60.5 -55t74 -65t82 -70.5q29 -25 55 -47t51 -42
q86 59 148.5 127t115.5 133q8 10 15.5 22t11.5 26t3.5 29.5t-7.5 31.5q-17 35 -56 56t-87 21h-337q-49 0 -81.5 -8.5t-52 -25t-28 -40t-10.5 -53.5z" />
    <glyph glyph-name="uni0639.fina" unicode="&#x639;" horiz-adv-x="1364" arabic-form="final" 
d="M711 364q51 26 98.5 53t88.5 55t74 58.5t56 63.5q22 34 22 66q0 4 -1.5 23.5t-22.5 47t-55 44t-69 16.5h-338q-38 -1 -68.5 -7.5t-52.5 -21t-35 -38t-16 -58.5q11 -11 31 -30.5t46 -45t56.5 -54.5t62.5 -59t63.5 -59t59.5 -54zM902 914q38 0 74 -10t67.5 -29t57.5 -45
t43 -59q28 -53 28 -110q0 -7 -2 -43t-40 -93q-26 -38 -60.5 -71.5t-75.5 -64t-87.5 -58t-96.5 -54.5q21 -19 40.5 -35t38.5 -30q36 -29 60 -46t40 -26.5t23.5 -13t10.5 -4.5h359v-122h-362q-11 0 -26 3.5t-37.5 14t-53.5 31t-75 54.5q-29 23 -63.5 51t-72.5 62
q-51 -27 -107.5 -56t-111.5 -62t-104.5 -70.5t-87.5 -82.5t-60.5 -98t-22.5 -116q0 -71 21.5 -125.5t59.5 -95.5t89.5 -69t111.5 -45t125.5 -24.5t131.5 -7.5h445v-123h-469q-71 0 -146.5 10.5t-149 35.5t-136 64.5t-108.5 94.5t-72 126t-26 159q0 109 45 195.5t118.5 155.5
t166.5 123.5t189 98.5l-2 2q-59 54 -114 106t-97.5 93.5t-68 67t-26.5 25.5l-18 43q1 134 79.5 203.5t216.5 69.5h338z" />
    <glyph glyph-name="uni0643.init" unicode="&#x643;" horiz-adv-x="1151" arabic-form="initial" 
d="M1151 1460l-839 -369q66 -56 177 -158.5t254 -254.5q126 -133 172 -259q24 -66 25 -126v-5q0 -58 -21 -107q-11 -25 -34.5 -56.5t-67 -59t-109.5 -46.5t-162 -19h-569v123h569q113 0 182 33q59 28 78 74q12 27 12 59q0 46 -32.5 122t-132.5 183q-107 114 -197.5 200.5
t-156.5 145t-103 88.5t-38 30l13 105l930 410z" />
    <glyph glyph-name="uni0643.medi" unicode="&#x643;" horiz-adv-x="1248" arabic-form="medial" 
d="M802 436q60 -81 108 -140t98 -97.5t110 -57t145 -18.5v-123q-95 0 -166.5 20t-129 57.5t-106.5 90t-100 118.5q-4 -22 -10.5 -41t-14.5 -36q-29 -63 -79.5 -103.5t-112.5 -64t-131 -32.5t-136 -9h-296v123h296q48 2 100.5 7.5t100.5 20.5t87 42t61 71q17 34 18 72v7
q0 33 -10 69.5t-29.5 73t-43.5 68.5q-40 54 -73 98.5t-62.5 84.5t-56.5 76.5t-55.5 75t-59.5 80.5t-68 92h1l24 92l939 423l50 -112l-869 -392q115 -158 232 -315.5t239 -320.5z" />
    <glyph glyph-name="uni0643" unicode="&#x643;" horiz-adv-x="2057" arabic-form="isolated" 
d="M1123 975q-90 -54 -138 -99q-27 -26 -39 -46q-8 -14 -8 -24q0 -6 2 -10q2 -8 18 -10q12 -2 26 -2h17.5t31 2t24.5 3q29 2 56 3h18q17 0 36 -1q34 -5 56 -19.5t33 -34.5q9 -18 9 -40q0 -2 -1 -15t-15 -36q-17 -29 -53.5 -52.5t-82 -41.5t-96.5 -31.5t-98 -22.5l-15 81
q64 15 115.5 29t87.5 28.5t55 30t19 33.5q-3 9 -19 12q-11 1 -23 1q-6 0 -19 -0.5t-31.5 -2.5t-25.5 -3q-26 -2 -52 -3h-18q-18 0 -35 1q-54 7 -77 33t-23 61q0 34 19.5 71t51.5 66q28 26 65.5 53t87.5 56zM1902 362q0 -162 -93 -252q-113 -110 -362 -110h-991
q-64 0 -121.5 21.5t-101.5 63.5q-18 16 -36 39.5t-32.5 55.5t-24 73t-9.5 92q0 33 5 71.5t12.5 77t16.5 75t16.5 65t13 47t6.5 20.5l117 -37l-4 -16q-5 -17 -12.5 -43t-15.5 -59.5t-15.5 -68.5t-12 -69.5t-4.5 -62.5q0 -62 18 -104t46.5 -68.5t64.5 -38t73 -11.5h991
q110 0 175.5 20.5t100.5 54.5t45.5 77t10.5 87l1 1065h123z" />
    <glyph glyph-name="uni0643.fina" unicode="&#x643;" horiz-adv-x="2145" arabic-form="final" 
d="M1123 975q-90 -54 -138 -99q-27 -26 -39 -46q-8 -14 -8 -24q0 -6 2 -10q2 -8 18 -10q12 -2 26 -2h17.5t31 2t24.5 3q29 2 56 3h18q17 0 36 -1q34 -5 56 -19.5t33 -34.5q9 -18 9 -40q0 -2 -1 -15t-15 -36q-17 -29 -53.5 -52.5t-82 -41.5t-96.5 -31.5t-98 -22.5l-15 81
q64 15 115.5 29t87.5 28.5t55 30t19 33.5q-3 9 -19 12q-11 1 -23 1q-6 0 -19 -0.5t-31.5 -2.5t-25.5 -3q-26 -2 -52 -3h-18q-18 0 -35 1q-54 7 -77 33t-23 61q0 34 19.5 71t51.5 66q28 26 65.5 53t87.5 56zM1000 123q126 0 233 0.5t193.5 4t152.5 11.5t109 23q38 13 59 32.5
t32 45t15 58t7 72.5v1058h123v-1095q0 -52 18.5 -91t49.5 -65.5t69.5 -40t79.5 -13.5h31v-123h-31q-67 0 -127 22.5t-108 64.5q-26 24 -45 51q-45 -60 -132 -92q-50 -18 -118.5 -27.5t-158.5 -13.5t-202 -4.5t-250 -0.5h-544q-64 0 -121.5 21.5t-101.5 63.5q-18 16 -36 39.5
t-32.5 55.5t-24 73t-9.5 92q0 33 5 71.5t12.5 77t16.5 75t16.5 65t13 47t6.5 20.5l117 -37l-4 -16q-5 -17 -12.5 -43t-15.5 -59.5t-15.5 -68.5t-12 -69.5t-4.5 -62.5q0 -62 18 -104t46.5 -68.5t64.5 -38t73 -11.5h544z" />
    <glyph glyph-name="uni0644" unicode="&#x644;" horiz-adv-x="1335" arabic-form="isolated" 
d="M1183 -48q0 -115 -25.5 -200.5t-79.5 -148.5q-40 -45 -88.5 -74.5t-103 -47.5t-115 -25t-123.5 -7h-72q-125 0 -228.5 55.5t-167.5 158.5q-44 69 -64 155q-18 72 -18 152q0 15 1 31q4 105 35.5 219t90.5 237l111 -53q-100 -210 -113 -383q-2 -27 -2 -53q0 -139 63 -240
q47 -75 123 -115.5t169 -40.5h72q122 0 205 27.5t131 83.5q39 45 57.5 111t18.5 158v1475h123v-1475z" />
    <glyph glyph-name="uni0644.init" unicode="&#x644;" horiz-adv-x="573" arabic-form="initial" 
d="M440 362q0 -162 -93 -252q-113 -110 -362 -110v123q110 0 175.5 20.5t100.5 54.5t45.5 77t10.5 87l1 1065h123z" />
    <glyph glyph-name="uni0644.medi" unicode="&#x644;" horiz-adv-x="651" arabic-form="medial" 
d="M666 123v-123h-22q-85 0 -156 37t-116 106q-28 -39 -65.5 -66t-85.5 -43.5t-107 -24.5t-129 -9v123q110 0 175 20.5t99 54.5t44 77t10 87v1065h123v-1076q0 -51 15 -93t42.5 -72t65.5 -46.5t85 -16.5h22z" />
    <glyph glyph-name="uni0644.fina" unicode="&#x644;" horiz-adv-x="1416" arabic-form="final" 
d="M1433 123v-123h-39q-38 0 -67 5t-52.5 14.5t-43.5 23t-41 30.5v-122q0 -115 -25.5 -200.5t-79.5 -148.5q-41 -46 -89 -75.5t-102.5 -46.5t-114.5 -24t-124 -8h-72q-125 0 -228.5 55.5t-167.5 158.5q-44 69 -64 155q-18 72 -18 152q0 15 1 31q4 105 35.5 219t90.5 237
l111 -53q-100 -210 -113 -383q-2 -27 -2 -53q0 -139 63 -240q47 -75 123 -115.5t169 -40.5h72q122 0 205 27.5t131 83.5q39 45 57.5 111t18.5 158v1476h123v-1066q0 -53 15 -96.5t42 -75t64.5 -49t82.5 -17.5h39z" />
    <glyph glyph-name="uni0645" unicode="&#x645;" horiz-adv-x="1352" arabic-form="isolated" 
d="M120 373l113 70q24 -14 85.5 -47t146.5 -77q25 130 51.5 218.5t61.5 150.5q50 90 123 137.5t176 47.5q89 0 158 -43.5t116.5 -112t72 -153t24.5 -166.5q0 -112 -27.5 -189.5t-71.5 -125.5t-99.5 -69t-112.5 -21q-9 0 -23 1.5t-35.5 7.5t-52.5 16.5t-74 28.5
q-30 12 -72.5 31.5t-90.5 42.5t-99 48t-97.5 49t-85.5 44.5t-64 34.5v-1056h-123v1132zM580 262q106 -52 173.5 -81.5t107 -44t56 -18t20.5 -3.5q52 0 88 23.5t58.5 62.5t32 90t9.5 107q0 63 -17 126.5t-49 113.5t-78 81.5t-104 31.5q-59 0 -103.5 -25t-79.5 -83
t-62.5 -151.5t-51.5 -229.5z" />
    <glyph glyph-name="uni0645.init" unicode="&#x645;" horiz-adv-x="1153" arabic-form="initial" 
d="M723 76q31 0 62.5 16t56 52t40 94.5t15.5 142.5q0 60 -19.5 121.5t-54.5 109.5q-10 14 -25.5 31t-36.5 32t-47 25.5t-56 10.5q-65 0 -109 -23.5t-74.5 -67.5t-52.5 -107.5t-44 -143.5q-10 -37 -20 -72t-22 -68q64 -32 119 -61t102 -50t88 -32q35 -10 67 -10h11zM658 834
q76 0 143.5 -38.5t120.5 -111.5q47 -64 72.5 -143t25.5 -160q0 -52 -7 -103.5t-21.5 -99.5t-38 -89t-56.5 -71t-76 -47.5t-98 -17.5q-50 0 -98 12.5t-100.5 34.5t-111.5 52t-130 66q-77 -118 -214 -118h-89v123h89q39 0 66.5 16.5t49.5 53.5q24 39 41 93.5t34 114.5
q20 74 43.5 147t65.5 135q103 151 289 151z" />
    <glyph glyph-name="uni0645.medi" unicode="&#x645;" horiz-adv-x="1189" arabic-form="medial" 
d="M1188 0q-76 0 -130.5 18.5t-96.5 56.5q-20 17 -35 38q-17 -36 -42.5 -65.5t-57.5 -50.5t-68 -32.5t-74 -11.5q-49 0 -98 12t-102 33.5t-112 52t-128 67.5q-79 -118 -215 -118h-49v123h49q39 0 66.5 16.5t50.5 53.5q24 39 40.5 93.5t33.5 114.5q10 37 20.5 74t23.5 73
t28.5 70t36.5 65q102 151 290 151q75 0 143 -38.5t120 -111.5q48 -64 73 -143t25 -160q0 -157 64 -216q24 -22 57.5 -32t86.5 -10h21v-123h-21zM684 76q31 0 62 16t56 52t40 94.5t15 142.5q0 60 -19.5 121.5t-54.5 109.5q-10 14 -25.5 31t-36.5 32t-46.5 25.5t-55.5 10.5
q-66 0 -110 -23.5t-74.5 -67.5t-52.5 -107.5t-43 -143.5q-11 -37 -21 -72t-21 -68q64 -34 118.5 -62.5t102 -49t89.5 -31.5q38 -10 71 -10h6z" />
    <glyph glyph-name="uni0645.fina" unicode="&#x645;" horiz-adv-x="1514" arabic-form="final" 
d="M1534 123v-123h-29q-57 2 -106 17q-21 6 -42.5 16t-40 24t-33.5 33t-23 45q-23 -38 -52 -65t-61.5 -44t-67.5 -25t-70 -8q-9 0 -23 1.5t-35.5 7.5t-52.5 16.5t-74 28.5q-30 12 -72.5 31.5t-90.5 42.5t-99 48t-97.5 49t-85.5 44.5t-64 34.5v-1056h-123v1132l113 70
q24 -14 85.5 -47t146.5 -77q25 130 51.5 218.5t61.5 150.5q47 84 122.5 134.5t176.5 50.5q89 0 158 -43.5t116.5 -112t72 -153t24.5 -166.5q0 -164 72 -233q15 -14 31 -22t31 -12.5t28.5 -6t22.5 -1.5h29zM1132 168q32 35 48.5 93.5t16.5 136.5q0 63 -17 126.5t-49 113.5
t-78 81.5t-104 31.5q-59 0 -103.5 -25t-79.5 -83t-62.5 -151.5t-51.5 -229.5q106 -52 173.5 -81.5t107 -44t56 -18t20.5 -3.5q26 0 60 10.5t63 42.5z" />
    <glyph glyph-name="uni0647" unicode="&#x647;" horiz-adv-x="1042" arabic-form="isolated" 
d="M523 0q-85 0 -159.5 27.5t-130 75.5t-88 112.5t-32.5 137.5q0 70 19 129t47.5 108.5t61.5 90t60 73.5q15 18 33 38t36 39.5t35.5 37t31.5 32.5l-78 87l90 82q1 0 24.5 -25.5t60 -65.5t80.5 -89t85 -97q50 -57 93 -111t74.5 -107t49.5 -106.5t18 -111.5
q0 -75 -32.5 -141.5t-94.5 -117.5q-57 -48 -130 -73t-154 -25zM520 810q-14 -14 -30 -30.5t-32.5 -34t-32 -35t-28.5 -33.5q-24 -29 -52.5 -63.5t-52.5 -75t-40 -87t-16 -98.5q0 -45 21 -86.5t60 -73.5q42 -34 95.5 -52t110.5 -18q60 0 112.5 18.5t91.5 50t61.5 74.5
t22.5 91q0 38 -13 76.5t-38.5 81t-64 91t-89.5 107.5z" />
    <glyph glyph-name="uni0647.init" unicode="&#x647;" horiz-adv-x="1496" arabic-form="initial" 
d="M627 191q46 17 88.5 43.5t74 62.5t50.5 82t19 102q0 58 -20.5 106t-53.5 82t-74.5 52.5t-83.5 18.5q-72 0 -121 -21.5t-80 -56t-44.5 -78.5t-13.5 -88q0 -65 26.5 -115.5t83.5 -96.5q31 -25 68.5 -47.5t80.5 -45.5zM861 1030q80 -85 149 -158t126 -137.5t101.5 -121
t76.5 -107.5q32 -52 52 -101t26 -97q2 -18 2 -37q0 -30 -8 -70.5t-36 -93.5q-22 -42 -58 -74.5t-80.5 -54.5t-95.5 -33.5t-102 -11.5q-53 0 -103.5 10.5t-99.5 28t-97 40t-96 46.5q-95 -29 -212.5 -43.5t-259.5 -14.5h-166v123h166q178 0 313 24q-16 10 -30 20t-27 21
q-77 60 -117 135.5t-40 172.5q0 82 28.5 150t79.5 116t121 74.5t153 26.5q75 0 140 -32t112.5 -85.5t75 -122.5t27.5 -142q0 -119 -55 -208.5t-158 -149.5q54 -29 117 -48t129 -19q43 0 79.5 9t65.5 24t49.5 34.5t31.5 40.5q18 33 25 65q4 20 4 40q0 12 -2.5 34.5t-17 59
t-41.5 78.5q-59 94 -170 216.5t-267 287.5z" />
    <glyph glyph-name="uni0647.medi" unicode="&#x647;" horiz-adv-x="1261" arabic-form="medial" 
d="M1281 123v-123h-196q-38 0 -71.5 -8t-61.5 -22.5t-49 -35.5t-32 -46q-14 -30 -14 -66t21.5 -98t104.5 -156l-38 -102q-21 -2 -41.5 -3.5t-40.5 -1.5q-94 0 -187 29q-60 20 -114.5 49.5t-104.5 71.5q-47 39 -86.5 86t-70.5 98t-52.5 105.5t-31.5 108.5q-63 -5 -124 -7
t-112 -2v123q49 0 107.5 2t118.5 7v31q0 154 27 281q41 183 135 288q101 113 249 121q14 1 28 1q140 0 230 -85q37 -35 58.5 -75.5t32 -78t13.5 -67.5t3 -45q0 -164 -120 -279q-48 -46 -115 -83t-154 -64q-60 -20 -124 -33t-130 -22q18 -86 70 -169.5t127 -146.5
q23 -20 52.5 -39.5t64 -36t75 -28.5t86.5 -16q-47 74 -66 143q-14 49 -14 94q0 61 25 116q40 89 133 138q87 46 193 46h196zM459 650q-33 -36 -58 -88t-41.5 -116.5t-24.5 -139.5q-6 -61 -6 -127v-34q59 8 116 20t111 29q154 49 228.5 125t74.5 184q0 19 -3.5 42.5t-12 47.5
t-21.5 46.5t-32 40.5q-26 26 -64 38.5t-93 12.5q-57 0 -98.5 -21.5t-75.5 -59.5z" />
    <glyph glyph-name="uni0647.fina" unicode="&#x647;" horiz-adv-x="1261" arabic-form="final" 
d="M1283 0h-20q-79 0 -147.5 19t-128.5 56q-69 44 -119 110q-22 29 -39 63t-30 72q-31 -63 -77.5 -114.5t-114.5 -77.5q-81 -32 -160 -32q-7 0 -53.5 1.5t-117.5 36t-121.5 97.5t-65.5 148q-6 33 -6 65q0 68 30 146t105 152q72 72 178 127t241 91l-27 134l122 34
q29 -124 50.5 -217t38.5 -166q12 -51 22 -96.5t20.5 -89t21.5 -86.5t24 -91q16 -59 42 -100.5t58.5 -70.5t67.5 -46.5t69.5 -26.5t64.5 -12t52 -3h20v-123zM672 843q-118 -32 -209.5 -78.5t-152 -104t-86.5 -123.5q-18 -45 -18 -92q0 -22 4 -44q10 -57 48 -98t89 -62.5
t107 -22.5h5q52 0 94 20q57 28 92 67.5t54 82.5t25 85.5t5.5 76.5t-4 55.5t-3.5 22.5q-11 48 -18.5 81t-13 57t-10 42t-8.5 35z" />
    <glyph glyph-name="uni0648" unicode="&#x648;" horiz-adv-x="1024" arabic-form="isolated" 
d="M777 123v249q-2 79 -14.5 146.5t-42.5 117t-80 77t-128 27.5q-77 0 -128 -28t-81.5 -77.5t-43 -117t-12.5 -145.5q0 -69 24 -116.5t67 -77t100.5 -42.5t125.5 -13h213zM512 863q103 -4 177 -41t120.5 -101.5t68.5 -153t22 -195.5v-389q0 -132 -45.5 -233t-132.5 -169
t-207.5 -100.5t-263.5 -32.5h-57v123h57q121 3 217.5 24t164.5 70t105 130.5t39 204.5h-228q-84 0 -161 22t-136.5 68.5t-93.5 117t-34 164.5q0 106 21.5 194.5t68 153t120 102t178.5 41.5z" />
    <glyph glyph-name="uni0648.fina" unicode="&#x648;" horiz-adv-x="1049" arabic-form="final" 
d="M777 123v249q-2 79 -14.5 146.5t-42.5 117t-80 77t-128 27.5q-77 0 -128 -28t-81.5 -77.5t-43 -117t-12.5 -145.5q0 -69 24 -116.5t67 -77t100.5 -42.5t125.5 -13h213zM512 863q103 -4 177 -41t120.5 -101.5t68.5 -153t22 -195.5v-249h170v-123h-170v-17
q0 -132 -45.5 -233t-132.5 -169t-207.5 -100.5t-263.5 -32.5h-57v123h57q121 3 217.5 24t164.5 70t105 130.5t39 204.5h-228q-84 0 -161 22t-136.5 68.5t-93.5 117t-34 164.5q0 106 21.5 194.5t68 153t120 102t178.5 41.5z" />
    <glyph glyph-name="uni0649" unicode="&#x649;" horiz-adv-x="1671" arabic-form="isolated" 
d="M1356 871q49 0 98.5 -7t100.5 -22l-34 -118q-84 24 -164 24q-97 0 -182.5 -33t-151.5 -98q-78 -76 -109 -179q-20 -63 -20 -129q0 -41 8 -83q16 -5 51.5 -14.5t81.5 -21.5t97.5 -26t100 -27t88.5 -24t64 -17q40 -11 63.5 -26t34.5 -33t14 -39t3 -44q0 -34 -5 -78
t-16.5 -90.5t-31 -91t-48.5 -79.5q-40 -49 -87.5 -81t-102 -51t-115 -26.5t-127.5 -7.5h-255q-67 0 -132 16t-125 48.5t-110.5 79t-88.5 106.5q-55 88 -77 188q-19 82 -19 168q0 19 1 38q9 247 148 535l111 -53q-60 -124 -93.5 -239.5t-40.5 -218.5q-2 -31 -2 -60
q0 -69 15.5 -145t60.5 -148q58 -92 151.5 -142t208.5 -50h247q123 0 202 29t130 85q25 27 41.5 62.5t26 74t12.5 77.5q1 15 1 30q0 21 -2 41l-579 156l-9 34q-19 71 -19 143v42t19 109t56 133.5t91 116.5q41 40 89.5 71.5t102.5 52.5t112 32q52 10 105 10h10z" />
    <glyph glyph-name="uni0649.fina" unicode="&#x649;" horiz-adv-x="1777" arabic-form="final" 
d="M384 574q-61 -126 -95.5 -243t-42.5 -221q-3 -33 -3 -65q0 -68 15.5 -142.5t60.5 -146.5q56 -89 146.5 -137t202.5 -48h249q48 0 102.5 4t109 14.5t105 27.5t89 42t61.5 59.5t23 80.5q0 31 -7 56.5t-26 46t-53 36.5t-87 28t-128.5 20.5t-177.5 13.5l3 123h864v-123h-346
q42 -41 61 -89t19 -112q0 -67 -25 -119.5t-69 -91.5t-103 -65.5t-127 -43t-141.5 -24t-146.5 -7.5h-249q-144 0 -262 63t-191 179q-69 112 -87 231q-11 65 -11 129q0 55 12 142.5t53 205.5t92 229z" />
    <glyph glyph-name="uni066E.init" unicode="&#x66e;" horiz-adv-x="671" 
d="M493 804q10 -43 22 -95t21.5 -107.5t16.5 -112.5t9 -109v-6q0 -68 -21 -135t-62 -120.5t-100.5 -86t-133.5 -32.5h-260v123h260q48 3 84.5 25t61 57.5t37.5 80.5q11 41 11 84v7q-1 48 -7.5 100t-16 103t-20.5 99t-21 89z" />
    <glyph glyph-name="uni066E.medi" unicode="&#x66e;" horiz-adv-x="820" 
d="M835 123v-123h-70q-67 0 -127 20t-105 57q-27 22 -45 46q-51 -64 -128 -93t-187 -30h-188v123h188q59 2 105 11t78 31t49.5 58.5t19.5 93.5v359h123v-359q0 -54 20 -91t51 -60t69.5 -33t76.5 -10h70z" />
    <glyph glyph-name="uni066E.fina" unicode="&#x66e;" horiz-adv-x="2241" 
d="M2261 123v-123h-44q-68 0 -127.5 19.5t-105.5 57.5q-13 10 -24 21.5t-21 23.5q-4 -5 -8 -9.5t-8 -9.5q-97 -101 -292 -103h-1170q-64 0 -121 21.5t-101 62.5q-18 16 -36 40t-33 56t-24.5 73t-9.5 92q0 33 5 71.5t12.5 77t16.5 75t16.5 65t13 46.5t6.5 20l117 -37
q0 -1 -10 -35t-22 -83t-22 -103.5t-10 -96.5q0 -62 18 -104t47 -68.5t65.5 -38t73.5 -11.5h1162q148 0 208 64q43 46 43 129v342h123v-342q0 -54 20 -90.5t51.5 -59.5t70 -33t76.5 -10h44z" />
    <glyph glyph-name="uni066F.init" unicode="&#x66f;" horiz-adv-x="1036" 
d="M575 473q31 0 62.5 2t60.5 5.5t55 7.5t45 7q-1 44 -5 95.5t-14 104t-28.5 101t-48.5 86.5t-73.5 60.5t-103.5 22.5q-63 0 -109.5 -23t-76.5 -60t-44.5 -85t-14.5 -97q0 -68 22.5 -111.5t62.5 -69t94 -36t116 -10.5zM525 1088q84 -1 146.5 -29t106.5 -75.5t72 -110.5
t43.5 -134t21.5 -146.5t6 -146.5q0 -131 -39.5 -217t-112 -137t-174.5 -71.5t-227 -20.5h-387v123h387q88 5 161 12.5t127.5 31.5t89.5 71t47 132q-42 -7 -100 -13.5t-118 -6.5q-94 0 -171 20.5t-132 63.5t-85 109t-30 157q0 79 26.5 150.5t74.5 125t116 84.5q64 28 141 28
h10z" />
    <glyph glyph-name="uni066F.medi" unicode="&#x66f;" horiz-adv-x="1084" 
d="M567 200q21 8 40.5 17t37.5 20q30 17 61 40.5t56.5 53.5t41.5 68t16 83q0 48 -17 95t-49 84t-77.5 60t-103.5 23q-61 0 -110 -18.5t-84 -53t-54 -82.5t-19 -108q0 -48 18.5 -87t48 -71t65 -56t70.5 -42q14 -7 28.5 -13.5t30.5 -12.5zM582 867q73 0 139 -30.5t115.5 -84.5
t78 -124.5t28.5 -145.5q0 -98 -52.5 -183t-152.5 -150q130 -26 270 -26h99v-123h-99q-120 0 -232 17.5t-209 51.5q-99 -34 -216.5 -51.5t-252.5 -17.5h-123v123h123q160 0 296 26q-45 28 -84 64t-67 78t-44 90t-16 101q0 84 29 155.5t80.5 123t123.5 80.5q66 26 146 26h20z
" />
    <glyph glyph-name="uni066F.fina" unicode="&#x66f;" horiz-adv-x="1652" 
d="M1068 856q181 0 279 -116q108 -127 108 -400v-217h224v-123h-224v-50q0 -227 -105 -348q-33 -38 -75.5 -66.5t-94.5 -47.5q-107 -40 -260 -40h-235q-144 0 -262 63.5t-192 180.5q-51 81 -75 182q-20 84 -20 177q0 19 1 39q5 124 43.5 252t108.5 274l111 -53
q-60 -125 -94.5 -239.5t-42.5 -216.5q-2 -31 -2 -61q0 -68 14.5 -143t59.5 -146q57 -89 147.5 -137.5t202.5 -48.5h235q241 0 337 111q75 87 75 267v51h-258q-75 0 -146.5 20t-127 66t-89 120t-33.5 181q0 88 21 172t67.5 150t120.5 106.5t181 40.5zM1332 123v217
q0 113 -19.5 193.5t-59.5 127.5q-32 37 -76.5 54.5t-108.5 17.5q-63 0 -112.5 -23.5t-84 -68t-52.5 -109t-18 -145.5q0 -67 19.5 -112.5t49 -75t64 -45t65 -22.5t51.5 -8t24 -1h258z" />
    <glyph glyph-name="uni06C1.init" unicode="&#x6c1;" horiz-adv-x="706" arabic-form="initial" 
d="M439 -236q-32 -20 -62 -48t-52.5 -57.5t-37 -58.5t-15.5 -52v-6q0 -19 12.5 -32t44.5 -13q24 0 45.5 -9t37 -25t25 -37.5t9.5 -45.5q0 -27 -10 -49t-28 -37.5t-42.5 -24.5t-52.5 -9q-79 0 -122.5 53t-43.5 151q0 54 20 107.5t54 101.5t78 88.5t91 68.5zM493 804
q10 -43 22 -95t21.5 -107.5t16.5 -112.5t9 -109v-6q0 -68 -21 -135t-62 -120.5t-100.5 -86t-133.5 -32.5h-260v123h260q48 3 84.5 25t61 57.5t37.5 80.5q11 41 11 84v7q-1 48 -7.5 100t-16 103t-20.5 99t-21 89z" />
    <glyph glyph-name="uni06C1.medi" unicode="&#x6c1;" horiz-adv-x="1186" arabic-form="medial" 
d="M1202 0h-136q-48 0 -84.5 -12.5t-63.5 -32.5t-45 -44.5t-30 -48.5q-25 -50 -34 -109q-7 -42 -7 -84q0 -17 2.5 -55t20.5 -93t49 -96l-49 -99h-6q-86 0 -160 26.5t-136.5 75t-111 114.5t-83 141t-55 156t-26.5 161h-262v123h321l62 -62q0 -44 8 -101t26 -117.5t46 -121.5
t67.5 -113t91 -92t116.5 -59q-20 52 -30 113q-9 55 -9 110q0 5 0.5 38t12.5 91.5t36 106.5q50 101 135.5 154t197.5 53h136v-123z" />
    <glyph glyph-name="uni06BE" unicode="&#x6be;" horiz-adv-x="1651" arabic-form="isolated" 
d="M747 191q46 17 88.5 43.5t74 62.5t50.5 82t19 102q0 58 -20.5 106t-53.5 82t-74.5 52.5t-83.5 18.5q-72 0 -121 -21.5t-80 -56t-44.5 -78.5t-13.5 -88q0 -65 26.5 -115.5t83.5 -96.5q31 -25 68.5 -47.5t80.5 -45.5zM981 1030q80 -85 149 -158t126 -137.5t101.5 -121
t76.5 -107.5q32 -52 52 -101t26 -97q2 -18 2 -37q0 -30 -8 -70.5t-36 -93.5q-22 -42 -58 -74.5t-80.5 -54.5t-95.5 -33.5t-102 -11.5q-53 0 -103.5 10.5t-99.5 28t-97 40t-96 46.5q-47 -14 -104 -30t-132 -20q-22 -1 -47 -1q-58 0 -142 10t-213 51l35 111q103 -33 185 -42
q68 -8 120 -8q10 0 43.5 1t64.5 8t31 9q-16 10 -30 20t-27 21q-77 60 -117 135.5t-40 172.5q0 82 28.5 150t79.5 116t121 74.5t153 26.5q75 0 140 -32t112.5 -85.5t75 -122.5t27.5 -142q0 -119 -55 -208.5t-158 -149.5q54 -29 117 -48t129 -19q43 0 79.5 9t65.5 24
t49.5 34.5t31.5 40.5q18 33 25 65q4 20 4 40q0 12 -2.5 34.5t-17 59t-41.5 78.5q-59 94 -170 216.5t-267 287.5z" />
    <glyph glyph-name="uni06D2" unicode="&#x6d2;" horiz-adv-x="1651" arabic-form="isolated" 
d="M892 0h-438q-50 0 -93.5 -16.5t-75.5 -45.5t-50.5 -68.5t-18.5 -85.5q0 -47 18 -86t50 -67.5t75.5 -44t94.5 -15.5h1181v-123h-1192q-67 0 -129.5 24t-111 69.5t-77 108t-28.5 134.5q0 69 26 131t76 110q51 48 116 73t139 25h438v-123z" />
    <glyph glyph-name="uni06D2.fina" unicode="&#x6d2;" horiz-adv-x="1314" arabic-form="final" 
d="M1329 0h-875q-50 0 -93.5 -16.5t-75.5 -45.5t-50.5 -68.5t-18.5 -85.5q0 -47 18 -86t50 -67.5t75.5 -44t94.5 -15.5h834v-123h-834q-77 0 -142 25.5t-113 70.5t-75 106.5t-27 133.5q0 73 28 135.5t76 107.5t113 70.5t140 25.5h875v-123z" />
    <glyph glyph-name="uni06A9" unicode="&#x6a9;" horiz-adv-x="1994" arabic-form="isolated" 
d="M988 123h118t119.5 1t111.5 2t93 4q90 6 147 32.5t76 74.5q12 29 12 60q0 17 -7 50t-33 81t-62.5 92.5t-72.5 82.5q-105 112 -194.5 196.5t-154.5 141.5t-101.5 86.5t-37.5 29.5l13 105l930 411l49 -113l-838 -369q66 -55 174.5 -155t248.5 -248q131 -139 180 -266
q26 -69 26 -131q0 -52 -18 -98q-20 -48 -53.5 -82t-76.5 -55.5t-93 -33t-104 -15.5q-42 -3 -96 -4.5t-114 -2t-122 -0.5h-120h-544q-64 0 -121.5 21.5t-101.5 63.5q-18 16 -36 39.5t-32.5 55.5t-24 73t-9.5 92q0 33 5 71.5t12.5 77t16.5 75t16.5 65t13 47t6.5 20.5l117 -37
l-4 -16q-5 -17 -12.5 -43t-15.5 -59.5t-15.5 -68.5t-12 -69.5t-4.5 -62.5q0 -62 18 -104t46.5 -68.5t64.5 -38t73 -11.5h544z" />
    <glyph glyph-name="uni06A9.fina" unicode="&#x6a9;" horiz-adv-x="2183" arabic-form="final" 
d="M988 123q128 0 226 6t169 21.5t115.5 43t65.5 70.5q17 34 18 72v7q0 33 -10 69.5t-29.5 73t-43.5 68.5q-40 54 -73 98.5t-62.5 84.5t-56.5 76.5t-55.5 75t-59.5 80.5t-68 92h1l24 92l939 423l50 -112l-869 -392q115 -158 232 -315.5t239 -320.5q59 -79 105.5 -137
t95 -96.5t106 -58.5t138.5 -21h16v-123h-17q-91 2 -159.5 23t-124.5 58t-104 89t-97 116q-11 -75 -50 -125.5t-96 -82t-127 -47.5t-141.5 -23t-140 -7.5t-122.5 -0.5h-578q-64 0 -121.5 21.5t-101.5 63.5q-18 16 -36 39.5t-32.5 55.5t-24 73t-9.5 92q0 33 5 71.5t12.5 77
t16.5 75t16.5 65t13 47t6.5 20.5l117 -37l-4 -16q-5 -17 -12.5 -43t-15.5 -59.5t-15.5 -68.5t-12 -69.5t-4.5 -62.5q0 -62 18 -104t46.5 -68.5t64.5 -38t73 -11.5h544z" />
    <glyph glyph-name="uni06AF" unicode="&#x6af;" horiz-adv-x="1994" arabic-form="isolated" 
d="M988 123h118t119.5 1t111.5 2t93 4q90 6 147 32.5t76 74.5q12 29 12 60q0 17 -7 50t-33 81t-62.5 92.5t-72.5 82.5q-105 112 -194.5 196.5t-154.5 141.5t-101.5 86.5t-37.5 29.5l13 105l930 411l49 -113l-838 -369q66 -55 174.5 -155t248.5 -248q131 -139 180 -266
q26 -69 26 -131q0 -52 -18 -98q-20 -48 -53.5 -82t-76.5 -55.5t-93 -33t-104 -15.5q-42 -3 -96 -4.5t-114 -2t-122 -0.5h-120h-544q-64 0 -121.5 21.5t-101.5 63.5q-18 16 -36 39.5t-32.5 55.5t-24 73t-9.5 92q0 33 5 71.5t12.5 77t16.5 75t16.5 65t13 47t6.5 20.5l117 -37
l-4 -16q-5 -17 -12.5 -43t-15.5 -59.5t-15.5 -68.5t-12 -69.5t-4.5 -62.5q0 -62 18 -104t46.5 -68.5t64.5 -38t73 -11.5h544zM1032.07 1486.56l790.178 334.484l41.6426 -81.8311l-840.148 -356.988z" />
    <glyph glyph-name="uni06AF.init" unicode="&#x6af;" horiz-adv-x="1151" arabic-form="initial" 
d="M1151 1460l-839 -369q66 -56 177 -158.5t254 -254.5q126 -133 172 -259q24 -66 25 -126v-5q0 -58 -21 -107q-11 -25 -34.5 -56.5t-67 -59t-109.5 -46.5t-162 -19h-569v123h569q113 0 182 33q59 28 78 74q12 27 12 59q0 46 -32.5 122t-132.5 183q-107 114 -197.5 200.5
t-156.5 145t-103 88.5t-38 30l13 105l930 410zM205 1487l759 327l40 -80l-807 -349z" />
    <glyph glyph-name="uni06AF.medi" unicode="&#x6af;" horiz-adv-x="1248" arabic-form="medial" 
d="M802 436q60 -81 108 -140t98 -97.5t110 -57t145 -18.5v-123q-95 0 -166.5 20t-129 57.5t-106.5 90t-100 118.5q-4 -22 -10.5 -41t-14.5 -36q-29 -63 -79.5 -103.5t-112.5 -64t-131 -32.5t-136 -9h-296v123h296q48 2 100.5 7.5t100.5 20.5t87 42t61 71q17 34 18 72v7
q0 33 -10 69.5t-29.5 73t-43.5 68.5q-40 54 -73 98.5t-62.5 84.5t-56.5 76.5t-55.5 75t-59.5 80.5t-68 92h1l24 92l939 423l50 -112l-869 -392q115 -158 232 -315.5t239 -320.5zM254 1477l759 327l40 -80l-807 -349z" />
    <glyph glyph-name="uni06AF.fina" unicode="&#x6af;" horiz-adv-x="2183" arabic-form="final" 
d="M988 123q128 0 226 6t169 21.5t115.5 43t65.5 70.5q17 34 18 72v7q0 33 -10 69.5t-29.5 73t-43.5 68.5q-40 54 -73 98.5t-62.5 84.5t-56.5 76.5t-55.5 75t-59.5 80.5t-68 92h1l24 92l939 423l50 -112l-869 -392q115 -158 232 -315.5t239 -320.5q59 -79 105.5 -137
t95 -96.5t106 -58.5t138.5 -21h16v-123h-17q-91 2 -159.5 23t-124.5 58t-104 89t-97 116q-11 -75 -50 -125.5t-96 -82t-127 -47.5t-141.5 -23t-140 -7.5t-122.5 -0.5h-578q-64 0 -121.5 21.5t-101.5 63.5q-18 16 -36 39.5t-32.5 55.5t-24 73t-9.5 92q0 33 5 71.5t12.5 77
t16.5 75t16.5 65t13 47t6.5 20.5l117 -37l-4 -16q-5 -17 -12.5 -43t-15.5 -59.5t-15.5 -68.5t-12 -69.5t-4.5 -62.5q0 -62 18 -104t46.5 -68.5t64.5 -38t73 -11.5h544zM1226 1478l759 327l40 -80l-807 -349z" />
    <glyph glyph-name="uni06BA" unicode="&#x6ba;" horiz-adv-x="1600" arabic-form="isolated" 
d="M1447 676v-726q0 -227 -105 -348q-33 -38 -75.5 -66.5t-94.5 -47.5q-107 -40 -260 -40h-235q-144 0 -262 63.5t-192 180.5q-51 81 -75 182q-20 84 -20 177q0 19 1 39q5 124 43.5 252t108.5 274l111 -53q-60 -125 -94.5 -239.5t-42.5 -216.5q-2 -31 -2 -61
q0 -68 14.5 -143t59.5 -146q57 -89 147.5 -137.5t202.5 -48.5h235q241 0 337 111q75 87 75 268v726h123z" />
    <glyph glyph-name="uni06BA.fina" unicode="&#x6ba;" horiz-adv-x="1679" arabic-form="final" 
d="M1694 123v-123h-31q-62 0 -117 19t-100 55v-124q0 -226 -106 -348q-39 -46 -87.5 -75.5t-103.5 -47t-115.5 -24.5t-123.5 -7h-235q-144 0 -262 63.5t-191 180.5q-51 81 -75 175q-21 78 -21 170q0 19 1 38q5 125 44 260t110 281l110 -53q-60 -125 -94.5 -239.5
t-42.5 -216.5q-3 -34 -3 -66q0 -65 15 -139t60 -145q56 -89 147 -137.5t202 -48.5h235q242 0 337 111q76 88 76 268v726h123v-330q0 -50 16 -91t44.5 -70t68.5 -45.5t88 -16.5h31z" />
    <glyph glyph-name="uni062F.fina" unicode="&#x62f;" horiz-adv-x="1254" arabic-form="final" 
d="M1271 123v-123h-16q-37 0 -76 14t-76.5 39t-71 58t-58.5 71q-1 -2 -1 -3t-1 -2q-22 -52 -65 -88.5t-97.5 -60t-117 -34t-123.5 -10.5q-66 0 -124 6.5t-113.5 21.5t-113 40t-121.5 62l63 106l52 -32q42 -25 100 -43t122.5 -27.5t130.5 -9.5h12q58 0 109 9
q66 11 113.5 38.5t64.5 68.5q9 22 9 46q0 16 -7.5 47t-36.5 76l-376 570l103 66l405 -613q37 -57 73.5 -109.5t73 -93.5t73.5 -65.5t75 -24.5h16z" />
    <glyph glyph-name="uni06C1.fina" unicode="&#x6c1;" horiz-adv-x="1287" arabic-form="final" 
d="M735 1057l59 -252q13 -56 25 -106.5t23.5 -98.5t23.5 -94.5t24 -94.5q21 -80 60.5 -134.5t89 -89t103 -49.5t102.5 -15h58v-123h-58q-77 0 -150 23.5t-134 68.5q-70 51 -118.5 124t-71.5 164q-13 48 -24.5 95.5t-23 95.5t-23.5 99t-25 107l-46 194q-20 -4 -44 -9
t-47 -9.5t-42.5 -8.5t-31.5 -7q-60 -14 -101 -41.5t-66 -72.5q-26 -45 -35 -103q-7 -43 -7 -90q0 -16 2 -56t14 -107.5t28.5 -132t34.5 -123.5t33 -106l-117 -38q-30 93 -59 196t-46 209q-13 84 -13 156q0 154 58 255q75 133 246 174q20 5 57.5 12.5t74.5 14.5t65 12.5
t31 6.5z" />
    <glyph glyph-name="uni0686" unicode="&#x686;" horiz-adv-x="1455" arabic-form="isolated" 
d="M509 1071q22 -3 38.5 -5t37 -6.5t50 -13.5t78 -27.5t121 -48t179.5 -74.5q69 -29 133 -57t113.5 -49.5t79.5 -34.5l30 -14l-4 -114q-1 0 -44.5 -16t-124 -46t-195 -72.5t-256.5 -96.5q-61 -23 -125.5 -49t-125 -58t-113 -73t-89 -94t-53.5 -120q-12 -43 -12 -94
q0 -28 4 -58q4 -117 51.5 -205.5t127 -147.5t187 -88.5t232.5 -29.5h438v-123h-438q-170 0 -300.5 42.5t-220.5 119.5t-140 185.5t-60 240.5q-2 30 -2 58q0 67 16 135t55.5 132t96.5 114.5t125.5 91t145.5 73.5t157 63q155 59 276 104t202 75q-101 44 -206 89.5t-198 83
t-164 61.5t-104 24q-63 0 -113.5 -50t-73.5 -139l-119 31q15 55 41.5 104.5t65 88t88.5 62t112 26.5zM990 27l124 125l124 -123l-125 -126zM587 24l124 124q35 -34 63.5 -63t62.5 -61l-125 -125zM785 -239l124 125l124 -123l-125 -126z" />
    <glyph glyph-name="uni0686.fina" unicode="&#x686;" horiz-adv-x="1575" arabic-form="final" 
d="M483 1014q22 -3 38.5 -5t37 -6.5t50 -13.5t78 -27.5t121 -48t179.5 -74.5q69 -29 133 -57t113.5 -49.5t79.5 -34.5l30 -14l-4 -114q-1 -1 -49 -18.5t-137 -50.5v-184q0 -54 20 -91t51.5 -60t70 -33t76.5 -10h225v-123h-225q-67 0 -127 20t-106 57q-53 44 -80.5 104.5
t-27.5 135.5v138q-66 -25 -144 -53.5t-167 -62.5q-61 -23 -125.5 -49t-125 -58t-113 -73t-89 -94t-53.5 -120q-12 -43 -12 -94q0 -28 4 -58q4 -117 51.5 -205.5t127 -147.5t187 -88.5t232.5 -29.5h438v-123h-438q-170 0 -300.5 42.5t-220.5 119.5t-140 185.5t-60 240.5
q-2 30 -2 58q0 67 16 135t55.5 132t96.5 114.5t125.5 91t145.5 73.5t157 63q155 59 276 104t202 75q-101 44 -206 89.5t-198 83t-164 61.5t-104 24q-63 0 -113.5 -50t-73.5 -139l-119 31q15 55 41.5 104.5t65 88t88.5 62t112 26.5zM834 -112l124 125l124 -123l-125 -126z
M431 -115l124 124q35 -34 63.5 -63t62.5 -61l-125 -125zM629 -378l124 125l124 -123l-125 -126z" />
    <glyph glyph-name="uni0623" unicode="&#x623;" horiz-adv-x="525" arabic-form="isolated" 
d="M325 0h-125v1276h125v-1276zM1 1374q2 29 3 52t3 52l157 50q-26 7 -47.5 24t-36.5 39t-23 48t-8 52q0 31 11 62.5t31 59.5t49 49.5t65 32.5q30 9 57 9q2 0 17.5 -0.5t41.5 -7t49.5 -16t45.5 -18.5l-21 -82q-17 6 -36.5 13.5t-40 12.5t-42 5.5t-43.5 -5.5
q-21 -6 -39.5 -20.5t-31.5 -34t-17 -41.5q-2 -10 -2 -20q0 -12 3 -23q10 -32 54.5 -54.5t104.5 -22.5q45 0 96 13.5t98 27.5l28 -88z" />
    <glyph glyph-name="uni0623.fina" unicode="&#x623;" horiz-adv-x="561" arabic-form="final" 
d="M562 0q-119 0 -190.5 28t-109.5 83t-50 135.5t-12 185.5v842h125v-842q0 -93 6 -153t30 -94.5t71.5 -48t129.5 -13.5h14v-123h-14zM21 1368q2 29 3 52t3 52l157 50q-26 7 -47.5 24t-36.5 39t-23 48t-8 52q0 31 11 62.5t31 59.5t49 49.5t65 32.5q30 9 57 9q2 0 17.5 -0.5
t41.5 -7t49.5 -16t45.5 -18.5l-21 -82q-17 6 -36.5 13.5t-40 12.5t-42 5.5t-43.5 -5.5q-21 -6 -39.5 -20.5t-31.5 -34t-17 -41.5q-2 -10 -2 -20q0 -12 3 -23q10 -32 54.5 -54.5t104.5 -22.5q45 0 96 13.5t98 27.5l28 -88z" />
    <glyph glyph-name="uni0625" unicode="&#x625;" horiz-adv-x="525" arabic-form="isolated" 
d="M325 0h-125v1427h125v-1427zM3 -685q2 29 3 52t3 52l157 50q-26 7 -47.5 24t-36.5 39t-23 48t-8 52q0 31 11 62.5t31 59.5t49 49.5t65 32.5q30 9 57 9q2 0 17.5 -0.5t41.5 -7t49.5 -16t45.5 -18.5l-21 -82q-17 6 -36.5 13.5t-40 12.5t-42 5.5t-43.5 -5.5
q-21 -6 -39.5 -20.5t-31.5 -34t-17 -41.5q-2 -10 -2 -20q0 -12 3 -23q10 -32 54.5 -54.5t104.5 -22.5q45 0 96 13.5t98 27.5l28 -88z" />
    <glyph glyph-name="uni0625.fina" unicode="&#x625;" horiz-adv-x="561" arabic-form="final" 
d="M562 0q-119 0 -190.5 28t-109.5 83t-50 135.5t-12 185.5v995h125v-995q0 -93 6 -153t30 -94.5t71.5 -48t129.5 -13.5h14v-123h-14zM21 -668q2 29 3 52t3 52l157 50q-26 7 -47.5 24t-36.5 39t-23 48t-8 52q0 31 11 62.5t31 59.5t49 49.5t65 32.5q30 9 57 9q2 0 17.5 -0.5
t41.5 -7t49.5 -16t45.5 -18.5l-21 -82q-17 6 -36.5 13.5t-40 12.5t-42 5.5t-43.5 -5.5q-21 -6 -39.5 -20.5t-31.5 -34t-17 -41.5q-2 -10 -2 -20q0 -12 3 -23q10 -32 54.5 -54.5t104.5 -22.5q45 0 96 13.5t98 27.5l28 -88z" />
    <glyph glyph-name="uni0622" unicode="&#x622;" horiz-adv-x="878" arabic-form="isolated" 
d="M523 0h-125v1276h125v-1276zM878 1429h-491q-71 0 -116.5 -9.5t-75 -29t-47 -49.5t-32.5 -72q-34 10 -59.5 18t-56.5 17q25 75 55.5 123.5t74.5 76t106 38t151 10.5h491v-123z" />
    <glyph glyph-name="uni0622.fina" unicode="&#x622;" horiz-adv-x="692" arabic-form="final" 
d="M692 0q-119 0 -190.5 28t-109.5 83t-50 135.5t-12 185.5v842h125v-842q0 -93 6 -153t30 -94.5t71.5 -48t129.5 -13.5h14v-123h-14zM875 1429h-491q-71 0 -116.5 -9.5t-75 -29t-47 -49.5t-32.5 -72q-34 10 -59.5 18t-56.5 17q25 75 55.5 123.5t74.5 76t106 38t151 10.5
h491v-123z" />
    <glyph glyph-name="uni0671" unicode="&#x671;" horiz-adv-x="525" arabic-form="isolated" 
d="M325 0h-125v1276h125v-1276zM-14 1429l19 85h129l47 73l83 122q38 46 84 77t103 31q33 0 64.5 -12t56.5 -37.5t40.5 -64.5t15.5 -92q0 -51 -17 -85.5t-43 -56t-58.5 -31t-63.5 -9.5h-460zM446 1514q42 0 69 23t27 74q0 58 -23.5 89.5t-67.5 31.5q-32 0 -61 -20t-56 -51.5
t-51.5 -69.5t-45.5 -74q-1 -1 -1 -3h210z" />
    <glyph glyph-name="uni0671.fina" unicode="&#x671;" horiz-adv-x="561" arabic-form="final" 
d="M562 0q-119 0 -190.5 28t-109.5 83t-50 135.5t-12 185.5v842h125v-842q0 -93 6 -153t30 -94.5t71.5 -48t129.5 -13.5h14v-123h-14zM-4 1430l19 85h129l47 73l83 122q38 46 84 77t103 31q33 0 64.5 -12t56.5 -37.5t40.5 -64.5t15.5 -92q0 -51 -17 -85.5t-43 -56t-58.5 -31
t-63.5 -9.5h-460zM456 1515q42 0 69 23t27 74q0 58 -23.5 89.5t-67.5 31.5q-32 0 -61 -20t-56 -51.5t-51.5 -69.5t-45.5 -74q-1 -1 -1 -3h210z" />
    <glyph glyph-name="uni0628" unicode="&#x628;" horiz-adv-x="2103" arabic-form="isolated" 
d="M1953 703q17 -76 30.5 -160.5t15.5 -162.5v-12q0 -79 -26 -150t-79 -125q-44 -45 -98.5 -69t-113.5 -24h-1227q-64 0 -121.5 21.5t-101.5 63.5q-18 16 -36 39.5t-32.5 55.5t-24 73t-9.5 92q0 33 5 71.5t12.5 77t16.5 75t16.5 65t13 47t6.5 20.5l117 -37l-4 -16
q-5 -17 -12.5 -43t-15.5 -59.5t-15.5 -68.5t-12 -69.5t-4.5 -62.5q0 -62 18 -104t46.5 -68.5t64.5 -38t73 -11.5h1227q70 0 124 56q35 35 53 87q17 48 17 105v6q-2 72 -15 152.5t-29 153.5zM944 -349l114 115l118 -117l-116 -116z" />
    <glyph glyph-name="uni0628.init" unicode="&#x628;" horiz-adv-x="671" arabic-form="initial" 
d="M493 804q10 -43 22 -95t21.5 -107.5t16.5 -112.5t9 -109v-6q0 -68 -21 -135t-62 -120.5t-100.5 -86t-133.5 -32.5h-260v123h260q48 3 84.5 25t61 57.5t37.5 80.5q11 41 11 84v7q-1 48 -7.5 100t-16 103t-20.5 99t-21 89zM228 -363l114 115l118 -117l-116 -116z" />
    <glyph glyph-name="uni0628.medi" unicode="&#x628;" horiz-adv-x="820" arabic-form="medial" 
d="M835 123v-123h-70q-67 0 -127 20t-105 57q-27 22 -45 46q-51 -64 -128 -93t-187 -30h-188v123h188q59 2 105 11t78 31t49.5 58.5t19.5 93.5v359h123v-359q0 -54 20 -91t51 -60t69.5 -33t76.5 -10h70zM261 -374l114 115l118 -117l-116 -116z" />
    <glyph glyph-name="uni0628.fina" unicode="&#x628;" horiz-adv-x="2241" arabic-form="final" 
d="M2261 123v-123h-44q-68 0 -127.5 19.5t-105.5 57.5q-13 10 -24 21.5t-21 23.5q-4 -5 -8 -9.5t-8 -9.5q-97 -101 -292 -103h-1170q-64 0 -121 21.5t-101 62.5q-18 16 -36 40t-33 56t-24.5 73t-9.5 92q0 33 5 71.5t12.5 77t16.5 75t16.5 65t13 46.5t6.5 20l117 -37
q0 -1 -10 -35t-22 -83t-22 -103.5t-10 -96.5q0 -62 18 -104t47 -68.5t65.5 -38t73.5 -11.5h1162q148 0 208 64q43 46 43 129v342h123v-342q0 -54 20 -90.5t51.5 -59.5t70 -33t76.5 -10h44zM965 -362l114 115l118 -117l-116 -116z" />
    <glyph glyph-name="uni067E" unicode="&#x67e;" horiz-adv-x="2103" arabic-form="isolated" 
d="M1953 703q17 -76 30.5 -160.5t15.5 -162.5v-12q0 -79 -26 -150t-79 -125q-44 -45 -98.5 -69t-113.5 -24h-1227q-64 0 -121.5 21.5t-101.5 63.5q-18 16 -36 39.5t-32.5 55.5t-24 73t-9.5 92q0 33 5 71.5t12.5 77t16.5 75t16.5 65t13 47t6.5 20.5l117 -37l-4 -16
q-5 -17 -12.5 -43t-15.5 -59.5t-15.5 -68.5t-12 -69.5t-4.5 -62.5q0 -62 18 -104t46.5 -68.5t64.5 -38t73 -11.5h1227q70 0 124 56q35 35 53 87q17 48 17 105v6q-2 72 -15 152.5t-29 153.5zM1158 -346l124 125l124 -123l-125 -126zM755 -349l124 124q35 -34 63.5 -63
t62.5 -61l-125 -125zM953 -612l124 125l124 -123l-125 -126z" />
    <glyph glyph-name="uni067E.fina" unicode="&#x67e;" horiz-adv-x="2241" arabic-form="final" 
d="M2261 123v-123h-44q-68 0 -127.5 19.5t-105.5 57.5q-13 10 -24 21.5t-21 23.5q-4 -5 -8 -9.5t-8 -9.5q-97 -101 -292 -103h-1170q-64 0 -121 21.5t-101 62.5q-18 16 -36 40t-33 56t-24.5 73t-9.5 92q0 33 5 71.5t12.5 77t16.5 75t16.5 65t13 46.5t6.5 20l117 -37
q0 -1 -10 -35t-22 -83t-22 -103.5t-10 -96.5q0 -62 18 -104t47 -68.5t65.5 -38t73.5 -11.5h1162q148 0 208 64q43 46 43 129v342h123v-342q0 -54 20 -90.5t51.5 -59.5t70 -33t76.5 -10h44zM1157 -345l124 125l124 -123l-125 -126zM754 -348l124 124q35 -34 63.5 -63
t62.5 -61l-125 -125zM952 -611l124 125l124 -123l-125 -126z" />
    <glyph glyph-name="uni067E.init" unicode="&#x67e;" horiz-adv-x="877" arabic-form="initial" 
d="M648 804q10 -43 22 -95t21.5 -107.5t16.5 -112.5t9 -109v-6q0 -68 -21 -135t-62 -120.5t-100.5 -86t-133.5 -32.5h-415v123h415q48 3 84.5 25t61 57.5t37.5 80.5q11 41 11 84v7q-1 48 -7.5 100t-16 103t-20.5 99t-21 89zM502 -348l124 125l124 -123l-125 -126zM99 -351
l124 124q35 -34 63.5 -63t62.5 -61l-125 -125zM297 -614l124 125l124 -123l-125 -126z" />
    <glyph glyph-name="uni067E.medi" unicode="&#x67e;" horiz-adv-x="1046" arabic-form="medial" 
d="M1066 123v-123h-164q-67 0 -127 20t-105 57q-27 22 -45 46q-51 -64 -128 -93t-187 -30h-330v123h330q59 2 105 11t78 31t49.5 58.5t19.5 93.5v359h123v-359q0 -54 20 -91t51 -60t69.5 -33t76.5 -10h164zM561 -343l124 125l124 -123l-125 -126zM158 -346l124 124
q35 -34 63.5 -63t62.5 -61l-125 -125zM356 -609l124 125l124 -123l-125 -126z" />
    <glyph glyph-name="uni062A" unicode="&#x62a;" horiz-adv-x="2103" arabic-form="isolated" 
d="M1953 703q17 -76 30.5 -160.5t15.5 -162.5v-12q0 -79 -26 -150t-79 -125q-44 -45 -98.5 -69t-113.5 -24h-1227q-64 0 -121.5 21.5t-101.5 63.5q-18 16 -36 39.5t-32.5 55.5t-24 73t-9.5 92q0 33 5 71.5t12.5 77t16.5 75t16.5 65t13 47t6.5 20.5l117 -37l-4 -16
q-5 -17 -12.5 -43t-15.5 -59.5t-15.5 -68.5t-12 -69.5t-4.5 -62.5q0 -62 18 -104t46.5 -68.5t64.5 -38t73 -11.5h1227q70 0 124 56q35 35 53 87q17 48 17 105v6q-2 72 -15 152.5t-29 153.5zM1267 802l-124 125q34 35 61.5 62.5t60.5 61.5l126 -125zM861 804l-124 125
q34 35 61.5 62.5t60.5 61.5l126 -125z" />
    <glyph glyph-name="uni062A.init" unicode="&#x62a;" horiz-adv-x="877" arabic-form="initial" 
d="M648 804q10 -43 22 -95t21.5 -107.5t16.5 -112.5t9 -109v-6q0 -68 -21 -135t-62 -120.5t-100.5 -86t-133.5 -32.5h-415v123h415q48 3 84.5 25t61 57.5t37.5 80.5q11 41 11 84v7q-1 48 -7.5 100t-16 103t-20.5 99t-21 89zM667 1062l-124 125q34 35 61.5 62.5t60.5 61.5
l126 -125zM261 1064l-124 125q34 35 61.5 62.5t60.5 61.5l126 -125z" />
    <glyph glyph-name="uni062A.medi" unicode="&#x62a;" horiz-adv-x="1046" arabic-form="medial" 
d="M1066 123v-123h-164q-67 0 -127 20t-105 57q-27 22 -45 46q-51 -64 -128 -93t-187 -30h-330v123h330q59 2 105 11t78 31t49.5 58.5t19.5 93.5v359h123v-359q0 -54 20 -91t51 -60t69.5 -33t76.5 -10h164zM754 991l-124 125q34 35 61.5 62.5t60.5 61.5l126 -125zM348 993
l-124 125q34 35 61.5 62.5t60.5 61.5l126 -125z" />
    <glyph glyph-name="uni062A.fina" unicode="&#x62a;" horiz-adv-x="2241" arabic-form="final" 
d="M2261 123v-123h-44q-68 0 -127.5 19.5t-105.5 57.5q-13 10 -24 21.5t-21 23.5q-4 -5 -8 -9.5t-8 -9.5q-97 -101 -292 -103h-1170q-64 0 -121 21.5t-101 62.5q-18 16 -36 40t-33 56t-24.5 73t-9.5 92q0 33 5 71.5t12.5 77t16.5 75t16.5 65t13 46.5t6.5 20l117 -37
q0 -1 -10 -35t-22 -83t-22 -103.5t-10 -96.5q0 -62 18 -104t47 -68.5t65.5 -38t73.5 -11.5h1162q148 0 208 64q43 46 43 129v342h123v-342q0 -54 20 -90.5t51.5 -59.5t70 -33t76.5 -10h44zM1267 802l-124 125q34 35 61.5 62.5t60.5 61.5l126 -125zM861 804l-124 125
q34 35 61.5 62.5t60.5 61.5l126 -125z" />
    <glyph glyph-name="uni062B" unicode="&#x62b;" horiz-adv-x="2103" arabic-form="isolated" 
d="M1953 703q17 -76 30.5 -160.5t15.5 -162.5v-12q0 -79 -26 -150t-79 -125q-44 -45 -98.5 -69t-113.5 -24h-1227q-64 0 -121.5 21.5t-101.5 63.5q-18 16 -36 39.5t-32.5 55.5t-24 73t-9.5 92q0 33 5 71.5t12.5 77t16.5 75t16.5 65t13 47t6.5 20.5l117 -37l-4 -16
q-5 -17 -12.5 -43t-15.5 -59.5t-15.5 -68.5t-12 -69.5t-4.5 -62.5q0 -62 18 -104t46.5 -68.5t64.5 -38t73 -11.5h1227q70 0 124 56q35 35 53 87q17 48 17 105v6q-2 72 -15 152.5t-29 153.5zM1004 887l-124 -125l-124 123l125 126zM1407 890l-124 -124l-126 124l125 125z
M1209 1162l-124 -124l-126 124l125 125z" />
    <glyph glyph-name="uni062B.init" unicode="&#x62b;" horiz-adv-x="877" arabic-form="initial" 
d="M648 804q10 -43 22 -95t21.5 -107.5t16.5 -112.5t9 -109v-6q0 -68 -21 -135t-62 -120.5t-100.5 -86t-133.5 -32.5h-415v123h415q48 3 84.5 25t61 57.5t37.5 80.5q11 41 11 84v7q-1 48 -7.5 100t-16 103t-20.5 99t-21 89zM358 1163l-124 -125l-124 123l125 126zM761 1166
l-124 -124l-126 124l125 125zM563 1438l-124 -124l-126 124l125 125z" />
    <glyph glyph-name="uni062B.medi" unicode="&#x62b;" horiz-adv-x="1046" arabic-form="medial" 
d="M1066 123v-123h-164q-67 0 -127 20t-105 57q-27 22 -45 46q-51 -64 -128 -93t-187 -30h-330v123h330q59 2 105 11t78 31t49.5 58.5t19.5 93.5v359h123v-359q0 -54 20 -91t51 -60t69.5 -33t76.5 -10h164zM407 1084l-124 -125l-124 123l125 126zM810 1087l-124 -124
l-126 124l125 125zM612 1359l-124 -124l-126 124l125 125z" />
    <glyph glyph-name="uni062B.fina" unicode="&#x62b;" horiz-adv-x="2241" arabic-form="final" 
d="M2261 123v-123h-44q-68 0 -127.5 19.5t-105.5 57.5q-13 10 -24 21.5t-21 23.5q-4 -5 -8 -9.5t-8 -9.5q-97 -101 -292 -103h-1170q-64 0 -121 21.5t-101 62.5q-18 16 -36 40t-33 56t-24.5 73t-9.5 92q0 33 5 71.5t12.5 77t16.5 75t16.5 65t13 46.5t6.5 20l117 -37
q0 -1 -10 -35t-22 -83t-22 -103.5t-10 -96.5q0 -62 18 -104t47 -68.5t65.5 -38t73.5 -11.5h1162q148 0 208 64q43 46 43 129v342h123v-342q0 -54 20 -90.5t51.5 -59.5t70 -33t76.5 -10h44zM1004 887l-124 -125l-124 123l125 126zM1407 890l-124 -124l-126 124l125 125z
M1209 1162l-124 -124l-126 124l125 125z" />
    <glyph glyph-name="uni0679" unicode="&#x679;" horiz-adv-x="2103" arabic-form="isolated" 
d="M1953 703q17 -76 30.5 -160.5t15.5 -162.5v-12q0 -79 -26 -150t-79 -125q-44 -45 -98.5 -69t-113.5 -24h-1227q-64 0 -121.5 21.5t-101.5 63.5q-18 16 -36 39.5t-32.5 55.5t-24 73t-9.5 92q0 33 5 71.5t12.5 77t16.5 75t16.5 65t13 47t6.5 20.5l117 -37l-4 -16
q-5 -17 -12.5 -43t-15.5 -59.5t-15.5 -68.5t-12 -69.5t-4.5 -62.5q0 -62 18 -104t46.5 -68.5t64.5 -38t73 -11.5h1227q70 0 124 56q35 35 53 87q17 48 17 105v6q-2 72 -15 152.5t-29 153.5zM818 670v85h100l47 73v485h83v-363q38 46 84 77t103 31q33 0 64.5 -12t56.5 -37.5
t40.5 -64.5t15.5 -92q0 -51 -17 -85.5t-43 -56t-58.5 -31t-63.5 -9.5h-412zM1230 755q42 0 69 23t27 74q0 58 -23.5 89.5t-67.5 31.5q-32 0 -61 -20t-56 -51.5t-51.5 -69.5t-45.5 -74q-1 -1 -1 -3h210z" />
    <glyph glyph-name="uni0679.init" unicode="&#x679;" horiz-adv-x="877" arabic-form="initial" 
d="M648 804q10 -43 22 -95t21.5 -107.5t16.5 -112.5t9 -109v-6q0 -68 -21 -135t-62 -120.5t-100.5 -86t-133.5 -32.5h-415v123h415q48 3 84.5 25t61 57.5t37.5 80.5q11 41 11 84v7q-1 48 -7.5 100t-16 103t-20.5 99t-21 89zM181 990v85h100l47 73v485h83v-363q38 46 84 77
t103 31q33 0 64.5 -12t56.5 -37.5t40.5 -64.5t15.5 -92q0 -51 -17 -85.5t-43 -56t-58.5 -31t-63.5 -9.5h-412zM593 1075q42 0 69 23t27 74q0 58 -23.5 89.5t-67.5 31.5q-32 0 -61 -20t-56 -51.5t-51.5 -69.5t-45.5 -74q-1 -1 -1 -3h210z" />
    <glyph glyph-name="uni0679.medi" unicode="&#x679;" horiz-adv-x="1046" arabic-form="medial" 
d="M1066 123v-123h-164q-67 0 -127 20t-105 57q-27 22 -45 46q-51 -64 -128 -93t-187 -30h-330v123h330q59 2 105 11t78 31t49.5 58.5t19.5 93.5v359h123v-359q0 -54 20 -91t51 -60t69.5 -33t76.5 -10h164zM146 856v85h100l47 73v485h83v-363q38 46 84 77t103 31
q33 0 64.5 -12t56.5 -37.5t40.5 -64.5t15.5 -92q0 -51 -17 -85.5t-43 -56t-58.5 -31t-63.5 -9.5h-412zM558 941q42 0 69 23t27 74q0 58 -23.5 89.5t-67.5 31.5q-32 0 -61 -20t-56 -51.5t-51.5 -69.5t-45.5 -74q-1 -1 -1 -3h210z" />
    <glyph glyph-name="uni0679.fina" unicode="&#x679;" horiz-adv-x="2241" arabic-form="final" 
d="M2261 123v-123h-44q-68 0 -127.5 19.5t-105.5 57.5q-13 10 -24 21.5t-21 23.5q-4 -5 -8 -9.5t-8 -9.5q-97 -101 -292 -103h-1170q-64 0 -121 21.5t-101 62.5q-18 16 -36 40t-33 56t-24.5 73t-9.5 92q0 33 5 71.5t12.5 77t16.5 75t16.5 65t13 46.5t6.5 20l117 -37
q0 -1 -10 -35t-22 -83t-22 -103.5t-10 -96.5q0 -62 18 -104t47 -68.5t65.5 -38t73.5 -11.5h1162q148 0 208 64q43 46 43 129v342h123v-342q0 -54 20 -90.5t51.5 -59.5t70 -33t76.5 -10h44zM830 680v85h100l47 73v485h83v-363q38 46 84 77t103 31q33 0 64.5 -12t56.5 -37.5
t40.5 -64.5t15.5 -92q0 -51 -17 -85.5t-43 -56t-58.5 -31t-63.5 -9.5h-412zM1242 765q42 0 69 23t27 74q0 58 -23.5 89.5t-67.5 31.5q-32 0 -61 -20t-56 -51.5t-51.5 -69.5t-45.5 -74q-1 -1 -1 -3h210z" />
    <glyph glyph-name="uni0629" unicode="&#x629;" horiz-adv-x="1042" arabic-form="isolated" 
d="M523 0q-85 0 -159.5 27.5t-130 75.5t-88 112.5t-32.5 137.5q0 70 19 129t47.5 108.5t61.5 90t60 73.5q15 18 33 38t36 39.5t35.5 37t31.5 32.5l-78 87l90 82q1 0 24.5 -25.5t60 -65.5t80.5 -89t85 -97q50 -57 93 -111t74.5 -107t49.5 -106.5t18 -111.5
q0 -75 -32.5 -141.5t-94.5 -117.5q-57 -48 -130 -73t-154 -25zM520 810q-14 -14 -30 -30.5t-32.5 -34t-32 -35t-28.5 -33.5q-24 -29 -52.5 -63.5t-52.5 -75t-40 -87t-16 -98.5q0 -45 21 -86.5t60 -73.5q42 -34 95.5 -52t110.5 -18q60 0 112.5 18.5t91.5 50t61.5 74.5
t22.5 91q0 38 -13 76.5t-38.5 81t-64 91t-89.5 107.5zM704 1250l-124 125q34 35 61.5 62.5t60.5 61.5l126 -125zM298 1252l-124 125q34 35 61.5 62.5t60.5 61.5l126 -125z" />
    <glyph glyph-name="uni0629.fina" unicode="&#x629;" horiz-adv-x="1261" arabic-form="final" 
d="M1284 0h-20q-79 0 -147.5 19t-128.5 56q-69 44 -119 110q-22 29 -39 63t-30 72q-31 -63 -77.5 -114.5t-114.5 -77.5q-81 -32 -160 -32q-7 0 -53.5 1.5t-117.5 36t-121.5 97.5t-65.5 148q-6 33 -6 65q0 68 30 146t105 152q72 72 178 127t241 91l-27 134l122 34
q29 -124 50.5 -217t38.5 -166q12 -51 22 -96.5t20.5 -89t21.5 -86.5t24 -91q16 -59 42 -100.5t58.5 -70.5t67.5 -46.5t69.5 -26.5t64.5 -12t52 -3h20v-123zM673 843q-118 -32 -209.5 -78.5t-152 -104t-86.5 -123.5q-18 -45 -18 -92q0 -22 4 -44q10 -57 48 -98t89 -62.5
t107 -22.5h5q52 0 94 20q57 28 92 67.5t54 82.5t25 85.5t5.5 76.5t-4 55.5t-3.5 22.5q-11 48 -18.5 81t-13 57t-10 42t-8.5 35zM851 1340l-124 125q34 35 61.5 62.5t60.5 61.5l126 -125zM445 1342l-124 125q34 35 61.5 62.5t60.5 61.5l126 -125z" />
    <glyph glyph-name="uni0686.init" unicode="&#x686;" horiz-adv-x="1418" arabic-form="initial" 
d="M478 853q31 0 79.5 -11.5t108.5 -30.5t127 -43.5t134 -51t130 -52.5t115.5 -48t90 -37.5t53.5 -21.5l17 -111q-99 -72 -184 -133t-170 -110.5t-176 -87.5t-202 -63.5t-248 -38.5t-373 -13v123h37q184 0 296.5 9t210 28.5t180 49.5t161.5 71t159.5 92.5t173.5 114.5
q-69 26 -142.5 54t-145.5 55t-140 51t-125 42.5t-100.5 29t-67.5 10.5q-63 0 -113.5 -50t-73.5 -139l-119 31q15 58 42.5 109t66.5 89t88.5 60.5t109.5 22.5zM760 -358l124 125l124 -123l-125 -126zM357 -361l124 124q35 -34 63.5 -63t62.5 -61l-125 -125zM555 -624l124 125
l124 -123l-125 -126z" />
    <glyph glyph-name="uni0686.medi" unicode="&#x686;" horiz-adv-x="1526" arabic-form="medial" 
d="M1541 0h-72q-33 0 -73 5t-79.5 15t-74 24.5t-57.5 32.5q-45 36 -72.5 84.5t-36.5 106.5q-68 -43 -137.5 -80t-144.5 -67t-158.5 -52.5t-181 -37.5t-211.5 -23t-260 -8v123q160 0 281.5 9t224 28t191 48.5t172 69.5t167.5 91.5t177 114.5q-69 26 -142.5 54.5t-145.5 55.5
t-139.5 52t-124.5 43.5t-100.5 29.5t-67.5 11q-63 0 -113.5 -50t-73.5 -139l-119 31q15 58 42.5 109t66.5 89t88.5 60.5t109.5 22.5q31 0 79.5 -11.5t108.5 -30.5t127 -43.5t134 -51t130 -52.5t115.5 -48t90 -37.5t53.5 -21.5l17 -111q-38 -28 -74.5 -54t-71.5 -51
q0 -53 22 -94t60 -68.5t90 -41.5t111 -14h72v-123zM769 -359l124 125l124 -123l-125 -126zM366 -362l124 124q35 -34 63.5 -63t62.5 -61l-125 -125zM564 -625l124 125l124 -123l-125 -126z" />
    <glyph glyph-name="uni062C" unicode="&#x62c;" horiz-adv-x="1449" arabic-form="isolated" 
d="M479 1084q22 -3 38.5 -5t37 -6.5t50 -13.5t78 -27.5t121 -48t179.5 -74.5q69 -29 133 -57t113.5 -49.5t79.5 -34.5l30 -14l-4 -114q-1 0 -44.5 -16t-124 -46t-195 -72.5t-256.5 -96.5q-46 -17 -94.5 -34.5t-96.5 -38t-94.5 -46t-87.5 -59.5q-68 -54 -97 -123
q-26 -59 -26 -137q0 -13 1 -26q3 -70 29.5 -125.5t70 -97t101 -70.5t121 -47t130.5 -26t131 -8h438v-123h-438q-138 0 -263 30t-222 91t-156 153t-65 217q-1 15 -1 30q0 223 169 358q44 36 93.5 63.5t101.5 50.5t105.5 43t106.5 40q77 29 153 55.5t144 49t125 41.5t98 34
q-67 29 -140 59.5t-145 59t-140 54t-125 44t-99.5 29.5t-64.5 11q-63 0 -113.5 -50t-73.5 -139l-119 31q15 55 41.5 104.5t65 88t88.5 62t112 26.5zM709 24l114 115l118 -117l-116 -116z" />
    <glyph glyph-name="uni062C.init" unicode="&#x62c;" horiz-adv-x="1418" arabic-form="initial" 
d="M478 853q31 0 79.5 -11.5t108.5 -30.5t127 -43.5t134 -51t130 -52.5t115.5 -48t90 -37.5t53.5 -21.5l17 -111q-99 -72 -184 -133t-170 -110.5t-176 -87.5t-202 -63.5t-248 -38.5t-373 -13v123h37q184 0 296.5 9t210 28.5t180 49.5t161.5 71t159.5 92.5t173.5 114.5
q-69 26 -142.5 54t-145.5 55t-140 51t-125 42.5t-100.5 29t-67.5 10.5q-63 0 -113.5 -50t-73.5 -139l-119 31q15 58 42.5 109t66.5 89t88.5 60.5t109.5 22.5zM559 -358l114 115l118 -117l-116 -116z" />
    <glyph glyph-name="uni062C.medi" unicode="&#x62c;" horiz-adv-x="1526" arabic-form="medial" 
d="M1541 0h-72q-33 0 -73 5t-79.5 15t-74 24.5t-57.5 32.5q-45 36 -72.5 84.5t-36.5 106.5q-68 -43 -137.5 -80t-144.5 -67t-158.5 -52.5t-181 -37.5t-211.5 -23t-260 -8v123q160 0 281.5 9t224 28t191 48.5t172 69.5t167.5 91.5t177 114.5q-69 26 -142.5 54.5t-145.5 55.5
t-139.5 52t-124.5 43.5t-100.5 29.5t-67.5 11q-63 0 -113.5 -50t-73.5 -139l-119 31q15 58 42.5 109t66.5 89t88.5 60.5t109.5 22.5q31 0 79.5 -11.5t108.5 -30.5t127 -43.5t134 -51t130 -52.5t115.5 -48t90 -37.5t53.5 -21.5l17 -111q-38 -28 -74.5 -54t-71.5 -51
q0 -53 22 -94t60 -68.5t90 -41.5t111 -14h72v-123zM576 -358l114 115l118 -117l-116 -116z" />
    <glyph glyph-name="uni062C.fina" unicode="&#x62c;" horiz-adv-x="1575" arabic-form="final" 
d="M464 877q23 -3 39 -5t36.5 -6.5t50 -13.5t78 -27.5t121 -48t179.5 -74.5q69 -29 133 -57t113.5 -49.5t79.5 -34.5l30 -14l-4 -114q-1 -1 -44 -16.5t-123 -45.5v-54q0 -54 20 -91t51.5 -60t70 -33t76.5 -10h225v-123h-225q-67 0 -127 20t-106 57q-53 44 -80.5 104.5
t-27.5 135.5v9q-69 -26 -151.5 -57t-178.5 -67q-46 -17 -94.5 -34.5t-96.5 -38t-94.5 -46t-87.5 -59.5q-68 -54 -97 -123q-26 -59 -26 -137q0 -13 1 -26q3 -71 29.5 -126t70 -96.5t101 -70.5t121 -47t130.5 -26t131 -8h438v-123h-438q-138 0 -263 30t-222 91t-156 153
t-65 217q-1 15 -1 30q0 223 169 358q44 36 93.5 63.5t101.5 50.5t105.5 43t106.5 40q77 29 154.5 55t147.5 48.5t129 41t100 33.5q-67 29 -140.5 59.5t-147 59.5t-143 54.5t-127.5 44.5t-101.5 30t-65.5 11q-63 0 -113.5 -50t-73.5 -139l-119 31q15 55 41.5 104.5t65 88
t88.5 62t112 26.5zM674 -198l114 115l118 -117l-116 -116z" />
    <glyph glyph-name="uni062E" unicode="&#x62e;" horiz-adv-x="1449" arabic-form="isolated" 
d="M479 1084q22 -3 38.5 -5t37 -6.5t50 -13.5t78 -27.5t121 -48t179.5 -74.5q69 -29 133 -57t113.5 -49.5t79.5 -34.5l30 -14l-4 -114q-1 0 -44.5 -16t-124 -46t-195 -72.5t-256.5 -96.5q-46 -17 -94.5 -34.5t-96.5 -38t-94.5 -46t-87.5 -59.5q-68 -54 -97 -123
q-26 -59 -26 -137q0 -13 1 -26q3 -70 29.5 -125.5t70 -97t101 -70.5t121 -47t130.5 -26t131 -8h438v-123h-438q-138 0 -263 30t-222 91t-156 153t-65 217q-1 15 -1 30q0 223 169 358q44 36 93.5 63.5t101.5 50.5t105.5 43t106.5 40q77 29 153 55.5t144 49t125 41.5t98 34
q-67 29 -140 59.5t-145 59t-140 54t-125 44t-99.5 29.5t-64.5 11q-63 0 -113.5 -50t-73.5 -139l-119 31q15 55 41.5 104.5t65 88t88.5 62t112 26.5zM374 1466l128 130l132 -132l-130 -130z" />
    <glyph glyph-name="uni062E.init" unicode="&#x62e;" horiz-adv-x="1418" arabic-form="initial" 
d="M478 853q31 0 79.5 -11.5t108.5 -30.5t127 -43.5t134 -51t130 -52.5t115.5 -48t90 -37.5t53.5 -21.5l17 -111q-99 -72 -184 -133t-170 -110.5t-176 -87.5t-202 -63.5t-248 -38.5t-373 -13v123h37q184 0 296.5 9t210 28.5t180 49.5t161.5 71t159.5 92.5t173.5 114.5
q-69 26 -142.5 54t-145.5 55t-140 51t-125 42.5t-100.5 29t-67.5 10.5q-63 0 -113.5 -50t-73.5 -139l-119 31q15 58 42.5 109t66.5 89t88.5 60.5t109.5 22.5zM308 1261l128 130l132 -132l-130 -130z" />
    <glyph glyph-name="uni062E.medi" unicode="&#x62e;" horiz-adv-x="1526" arabic-form="medial" 
d="M1541 0h-72q-33 0 -73 5t-79.5 15t-74 24.5t-57.5 32.5q-45 36 -72.5 84.5t-36.5 106.5q-68 -43 -137.5 -80t-144.5 -67t-158.5 -52.5t-181 -37.5t-211.5 -23t-260 -8v123q160 0 281.5 9t224 28t191 48.5t172 69.5t167.5 91.5t177 114.5q-69 26 -142.5 54.5t-145.5 55.5
t-139.5 52t-124.5 43.5t-100.5 29.5t-67.5 11q-63 0 -113.5 -50t-73.5 -139l-119 31q15 58 42.5 109t66.5 89t88.5 60.5t109.5 22.5q31 0 79.5 -11.5t108.5 -30.5t127 -43.5t134 -51t130 -52.5t115.5 -48t90 -37.5t53.5 -21.5l17 -111q-38 -28 -74.5 -54t-71.5 -51
q0 -53 22 -94t60 -68.5t90 -41.5t111 -14h72v-123zM313 1261l128 130l132 -132l-130 -130z" />
    <glyph glyph-name="uni062E.fina" unicode="&#x62e;" horiz-adv-x="1575" arabic-form="final" 
d="M464 877q23 -3 39 -5t36.5 -6.5t50 -13.5t78 -27.5t121 -48t179.5 -74.5q69 -29 133 -57t113.5 -49.5t79.5 -34.5l30 -14l-4 -114q-1 -1 -44 -16.5t-123 -45.5v-54q0 -54 20 -91t51.5 -60t70 -33t76.5 -10h225v-123h-225q-67 0 -127 20t-106 57q-53 44 -80.5 104.5
t-27.5 135.5v9q-69 -26 -151.5 -57t-178.5 -67q-46 -17 -94.5 -34.5t-96.5 -38t-94.5 -46t-87.5 -59.5q-68 -54 -97 -123q-26 -59 -26 -137q0 -13 1 -26q3 -71 29.5 -126t70 -96.5t101 -70.5t121 -47t130.5 -26t131 -8h438v-123h-438q-138 0 -263 30t-222 91t-156 153
t-65 217q-1 15 -1 30q0 223 169 358q44 36 93.5 63.5t101.5 50.5t105.5 43t106.5 40q77 29 154.5 55t147.5 48.5t129 41t100 33.5q-67 29 -140.5 59.5t-147 59.5t-143 54.5t-127.5 44.5t-101.5 30t-65.5 11q-63 0 -113.5 -50t-73.5 -139l-119 31q15 55 41.5 104.5t65 88
t88.5 62t112 26.5zM385 1259l128 130l132 -132l-130 -130z" />
    <glyph glyph-name="uni0630" unicode="&#x630;" horiz-adv-x="1064" arabic-form="isolated" 
d="M574 -8q-76 0 -154 12t-146 34.5t-119 52.5l-53 31l63 106l53 -32q42 -25 100 -43t122 -27.5t130 -9.5h12q58 0 109 9q66 11 111 39t62 69q10 25 10 53q0 13 -5 41.5t-35 73.5q-77 115 -132 198t-93 140.5t-61 92.5t-35.5 54t-17 25.5t-4.5 7.5l-33 52l104 66
q8 -14 18.5 -29.5t26.5 -40.5t41.5 -63.5t64 -97t93.5 -141t130 -196.5q48 -72 59 -145q3 -19 3 -38q0 -52 -21 -101q-30 -71 -98 -117.5t-167 -63.5q-63 -12 -138 -12zM383 1418l128 130l132 -132l-130 -130z" />
    <glyph glyph-name="uni0630.fina" unicode="&#x630;" horiz-adv-x="1254" arabic-form="final" 
d="M1271 123v-123h-16q-37 0 -76 14t-76.5 39t-71 58t-58.5 71q-1 -2 -1 -3t-1 -2q-22 -52 -65 -88.5t-97.5 -60t-117 -34t-123.5 -10.5q-66 0 -124 6.5t-113.5 21.5t-113 40t-121.5 62l63 106l52 -32q42 -25 100 -43t122.5 -27.5t130.5 -9.5h12q58 0 109 9
q66 11 113.5 38.5t64.5 68.5q9 22 9 46q0 16 -7.5 47t-36.5 76l-376 570l103 66l405 -613q37 -57 73.5 -109.5t73 -93.5t73.5 -65.5t75 -24.5h16zM418 1418l128 130l132 -132l-130 -130z" />
    <glyph glyph-name="uni0688" unicode="&#x688;" horiz-adv-x="1064" arabic-form="isolated" 
d="M574 -8q-76 0 -154 12t-146 34.5t-119 52.5l-53 31l63 106l53 -32q42 -25 100 -43t122 -27.5t130 -9.5h12q58 0 109 9q66 11 111 39t62 69q10 25 10 53q0 13 -5 41.5t-35 73.5q-77 115 -132 198t-93 140.5t-61 92.5t-35.5 54t-17 25.5t-4.5 7.5l-33 52l104 66
q8 -14 18.5 -29.5t26.5 -40.5t41.5 -63.5t64 -97t93.5 -141t130 -196.5q48 -72 59 -145q3 -19 3 -38q0 -52 -21 -101q-30 -71 -98 -117.5t-167 -63.5q-63 -12 -138 -12zM222 1252v85h100l47 73v485h83v-363q38 46 84 77t103 31q33 0 64.5 -12t56.5 -37.5t40.5 -64.5
t15.5 -92q0 -51 -17 -85.5t-43 -56t-58.5 -31t-63.5 -9.5h-412zM634 1337q42 0 69 23t27 74q0 58 -23.5 89.5t-67.5 31.5q-32 0 -61 -20t-56 -51.5t-51.5 -69.5t-45.5 -74q-1 -1 -1 -3h210z" />
    <glyph glyph-name="uni0688.fina" unicode="&#x688;" horiz-adv-x="1254" arabic-form="final" 
d="M1271 123v-123h-16q-37 0 -76 14t-76.5 39t-71 58t-58.5 71q-1 -2 -1 -3t-1 -2q-22 -52 -65 -88.5t-97.5 -60t-117 -34t-123.5 -10.5q-66 0 -124 6.5t-113.5 21.5t-113 40t-121.5 62l63 106l52 -32q42 -25 100 -43t122.5 -27.5t130.5 -9.5h12q58 0 109 9
q66 11 113.5 38.5t64.5 68.5q9 22 9 46q0 16 -7.5 47t-36.5 76l-376 570l103 66l405 -613q37 -57 73.5 -109.5t73 -93.5t73.5 -65.5t75 -24.5h16zM252 1248v85h100l47 73v485h83v-363q38 46 84 77t103 31q33 0 64.5 -12t56.5 -37.5t40.5 -64.5t15.5 -92q0 -51 -17 -85.5
t-43 -56t-58.5 -31t-63.5 -9.5h-412zM664 1333q42 0 69 23t27 74q0 58 -23.5 89.5t-67.5 31.5q-32 0 -61 -20t-56 -51.5t-51.5 -69.5t-45.5 -74q-1 -1 -1 -3h210z" />
    <glyph glyph-name="uni0632" unicode="&#x632;" horiz-adv-x="826" arabic-form="isolated" 
d="M0 -553v122h139q235 0 344 123q100 114 100 341v642h123v-642q0 -290 -143.5 -438t-423.5 -148h-139zM500 1109l128 130l132 -132l-130 -130z" />
    <glyph glyph-name="uni0632.fina" unicode="&#x632;" horiz-adv-x="955" arabic-form="final" 
d="M970 0h-46q-62 0 -117.5 17t-100.5 49v-33q0 -290 -143.5 -438t-423.5 -148h-139v122h139q235 0 344 123q100 114 100 341v642h123v-358q0 -54 20 -91t51.5 -60t70 -33t76.5 -10h46v-123zM507 1081l128 130l132 -132l-130 -130z" />
    <glyph glyph-name="uni0691" unicode="&#x691;" horiz-adv-x="826" arabic-form="isolated" 
d="M0 -553v122h139q235 0 344 123q100 114 100 341v642h123v-642q0 -290 -143.5 -438t-423.5 -148h-139zM274 902v85h100l47 73v485h83v-363q38 46 84 77t103 31q33 0 64.5 -12t56.5 -37.5t40.5 -64.5t15.5 -92q0 -51 -17 -85.5t-43 -56t-58.5 -31t-63.5 -9.5h-412zM686 987
q42 0 69 23t27 74q0 58 -23.5 89.5t-67.5 31.5q-32 0 -61 -20t-56 -51.5t-51.5 -69.5t-45.5 -74q-1 -1 -1 -3h210z" />
    <glyph glyph-name="uni0691.fina" unicode="&#x691;" horiz-adv-x="955" arabic-form="final" 
d="M970 0h-46q-62 0 -117.5 17t-100.5 49v-33q0 -290 -143.5 -438t-423.5 -148h-139v122h139q235 0 344 123q100 114 100 341v642h123v-358q0 -54 20 -91t51.5 -60t70 -33t76.5 -10h46v-123zM257 887v85h100l47 73v485h83v-363q38 46 84 77t103 31q33 0 64.5 -12t56.5 -37.5
t40.5 -64.5t15.5 -92q0 -51 -17 -85.5t-43 -56t-58.5 -31t-63.5 -9.5h-412zM669 972q42 0 69 23t27 74q0 58 -23.5 89.5t-67.5 31.5q-32 0 -61 -20t-56 -51.5t-51.5 -69.5t-45.5 -74q-1 -1 -1 -3h210z" />
    <glyph glyph-name="uni0698" unicode="&#x698;" horiz-adv-x="950" arabic-form="isolated" 
d="M0 -553v122h139q235 0 344 123q100 114 100 341v642h123v-642q0 -290 -143.5 -438t-423.5 -148h-139zM540 1078l-124 -125l-124 123l125 126zM943 1081l-124 -124l-126 124l125 125zM745 1353l-124 -124l-126 124l125 125z" />
    <glyph glyph-name="uni0698.fina" unicode="&#x698;" horiz-adv-x="955" arabic-form="final" 
d="M970 0h-46q-62 0 -117.5 17t-100.5 49v-33q0 -290 -143.5 -438t-423.5 -148h-139v122h139q235 0 344 123q100 114 100 341v642h123v-358q0 -54 20 -91t51.5 -60t70 -33t76.5 -10h46v-123zM460 1082l-124 -125l-124 123l125 126zM863 1085l-124 -124l-126 124l125 125z
M665 1357l-124 -124l-126 124l125 125z" />
    <glyph glyph-name="uni0634" unicode="&#x634;" horiz-adv-x="2736" arabic-form="isolated" 
d="M2527 802q1 -3 8 -27t17 -61t21 -84t20.5 -96.5t16 -98t6.5 -88.5q0 -51 -9.5 -92.5t-25 -73.5t-34 -56t-36.5 -40q-44 -40 -100 -61.5t-119 -22.5v-1q-179 0 -278 99q-8 8 -15 17t-14 19q-11 -16 -23 -28.5t-23 -22.5q-46 -41 -104.5 -62.5t-123.5 -21.5q-163 0 -255 85
v-136q0 -226 -106 -348q-66 -77 -170 -114q-107 -40 -260 -40h-239q-144 0 -261.5 63t-190.5 179q-25 40 -43.5 84t-29.5 94q-21 87 -21 184q0 17 1 33q12 250 152 542l111 -53q-61 -126 -95.5 -243t-42.5 -221q-3 -35 -3 -68q0 -66 15 -140.5t60 -146.5q56 -88 146.5 -136
t201.5 -48h239q241 0 337 111q76 88 76 268v726h123v-220q0 -196 77 -273q29 -30 72.5 -44.5t105.5 -14.5q37 0 74.5 12t68.5 38t50.5 68.5t19.5 104.5v329h123v-329q0 -220 240 -223v1q36 0 72.5 11.5t66 38t48.5 69t19 104.5q0 36 -6 80.5t-15.5 91t-20 90.5t-20 78.5
t-15.5 56t-6 22.5zM1878 1109l-124 -125l-124 123l125 126zM2281 1112l-124 -124l-126 124l125 125zM2083 1384l-124 -124l-126 124l125 125z" />
    <glyph glyph-name="uni0634.init" unicode="&#x634;" horiz-adv-x="1778" arabic-form="initial" 
d="M-21 123h189q37 0 74.5 12t68.5 38t50.5 68.5t19.5 104.5v329h123v-329q0 -220 240 -223q37 0 74.5 12t68.5 38t50.5 68.5t19.5 104.5v329h123v-329q0 -220 240 -223v1q36 0 72.5 11.5t66 38t48.5 69t19 104.5q0 36 -6 80.5t-15.5 91t-20 90.5t-20 78.5t-15.5 56t-6 22.5
l117 36q1 -3 8 -27t17 -61t21 -84t20.5 -96.5t16 -98t6.5 -88.5q0 -51 -9.5 -92.5t-25 -73.5t-34 -56t-36.5 -40q-44 -40 -100 -61.5t-119 -22.5v-1q-179 0 -278 99q-8 8 -15 17t-14 19q-11 -16 -23 -28.5t-23 -22.5q-46 -41 -107 -62.5t-126 -21.5q-181 0 -280 99
q-8 8 -15 17t-14 19q-11 -16 -23 -28.5t-23 -22.5q-46 -41 -104.5 -62.5t-123.5 -21.5h-177v123zM950 1118l-124 -125l-124 123l125 126zM1353 1121l-124 -124l-126 124l125 125zM1155 1393l-124 -124l-126 124l125 125z" />
    <glyph glyph-name="uni0634.medi" unicode="&#x634;" horiz-adv-x="1787" arabic-form="medial" 
d="M1753 0q-47 0 -91.5 7.5t-83.5 23.5t-71 42t-53 62q-11 -16 -23 -28.5t-23 -22.5q-46 -41 -102 -62.5t-121 -21.5q-52 0 -93.5 8.5t-75 25t-62 42t-53.5 59.5q-48 -65 -117.5 -100t-152.5 -35q-90 0 -151.5 25t-110.5 74q-8 8 -15 17t-14 19q-11 -16 -23 -28.5t-23 -22.5
q-46 -41 -104.5 -62.5t-123.5 -21.5h-86v123h98q37 0 74.5 12t68.5 38t50.5 68.5t19.5 104.5v329h123v-329q0 -110 51.5 -166t170.5 -57q37 0 73.5 12t65.5 38t47 68.5t18 104.5v329h123v-329q0 -110 52 -166t171 -57q37 0 74 12t66.5 38t48 68.5t18.5 104.5v329h123v-329
q0 -220 238 -223h53v-123h-54zM808 1082l-124 -125l-124 123l125 126zM1211 1085l-124 -124l-126 124l125 125zM1013 1357l-124 -124l-126 124l125 125z" />
    <glyph glyph-name="uni0634.fina" unicode="&#x634;" horiz-adv-x="2927" arabic-form="final" 
d="M2890 0q-105 2 -180.5 33t-126.5 102q-48 -66 -119.5 -100.5t-154.5 -34.5q-105 0 -180.5 33t-126.5 102q-45 -73 -118 -104t-156 -31q-163 0 -255 85v-136q0 -226 -106 -348q-66 -77 -170 -114q-107 -40 -260 -40h-239q-144 0 -261.5 63t-190.5 179q-25 40 -43.5 84
t-29.5 94q-20 87 -20 184v33q12 250 152 542l111 -53q-61 -126 -95.5 -243t-42.5 -221q-3 -35 -3 -68q0 -66 15 -140.5t60 -146.5q56 -88 146.5 -136t201.5 -48h239q241 0 337 111q76 88 76 268v726h123v-220q0 -196 77 -273q29 -30 72.5 -44.5t105.5 -14.5q37 0 74.5 12
t68.5 38t50.5 68.5t19.5 104.5v329h123v-329q0 -110 62.5 -165.5t182.5 -57.5q37 0 74.5 12t68.5 38t50.5 68.5t19.5 104.5v329h123v-329q0 -110 62.5 -165.5t182.5 -57.5h56v-123h-56zM1917 1082l-124 -125l-124 123l125 126zM2320 1085l-124 -124l-126 124l125 125z
M2122 1357l-124 -124l-126 124l125 125z" />
    <glyph glyph-name="uni0636" unicode="&#x636;" horiz-adv-x="2793" arabic-form="isolated" 
d="M2292 854q59 0 109 -20t90.5 -54.5t71.5 -80.5t51.5 -99t31 -110t10.5 -113q0 -67 -14.5 -118t-37 -89t-50.5 -64t-55 -43q-34 -21 -68.5 -33.5t-65.5 -19t-56.5 -8.5t-40.5 -2h-572q-62 0 -117 17t-100 49v-118q0 -73 -14 -143.5t-46.5 -131.5t-85.5 -109t-131 -76
q-108 -38 -259 -38h-239q-146 0 -265 63.5t-193 181.5q-55 88 -76 188q-19 84 -19 173q0 16 1 32q5 124 43 257.5t107 279.5l111 -53q-60 -125 -94 -241t-42 -219q-3 -33 -3 -65q0 -67 15.5 -141.5t60.5 -145.5q57 -90 149 -139t205 -49h239q108 0 186 20t128.5 65
t74.5 116.5t24 174.5v724h123v-356q0 -68 31 -109.5t76 -61.5q40 61 77.5 125t77.5 127.5t83.5 125.5t95.5 121q94 107 185.5 158.5t186.5 51.5zM2268 123q20 0 47.5 3t57 12t58 26t51.5 45.5t37 69.5t14 98q0 86 -21 152.5t-55.5 111.5t-77.5 68t-87 23q-67 0 -136 -42
t-144 -127q-35 -40 -69 -86t-69.5 -100.5t-74 -117.5t-82.5 -136h551zM2129 1229l128 130l132 -132l-130 -130z" />
    <glyph glyph-name="uni0636.init" unicode="&#x636;" horiz-adv-x="1792" arabic-form="initial" 
d="M1328 857q65 0 116.5 -20.5t91.5 -55.5t68.5 -82t47.5 -100.5t27.5 -110t8.5 -111.5q0 -66 -14 -117t-35.5 -89.5t-48.5 -64.5t-53 -43q-32 -21 -64.5 -33t-62.5 -19t-55.5 -9t-43.5 -2h-579q-67 0 -127 19.5t-105 57.5q-27 22 -45 46q-4 -5 -8 -9.5t-8 -9.5
q-98 -104 -299 -104h-155v123h155q149 0 209 65q43 46 43 124v363h123v-358q0 -67 29.5 -108t73.5 -62l67 109q59 97 125 199t143 189q95 108 187 160.5t188 52.5zM1311 123q19 0 45 3t54.5 12t56 26t49.5 45.5t35.5 69.5t13.5 98q0 58 -11.5 121.5t-38.5 115.5t-72.5 86
t-114.5 34q-133 0 -283 -171q-72 -81 -135 -179t-120 -192q-11 -17 -21.5 -34.5t-21.5 -34.5h564zM1167 1238l128 130l132 -132l-130 -130z" />
    <glyph glyph-name="uni0636.medi" unicode="&#x636;" horiz-adv-x="1848" arabic-form="medial" 
d="M732 0q-67 0 -127 19.5t-105 57.5q-27 22 -45 46q-4 -5 -8 -9.5t-8 -9.5q-98 -104 -299 -104h-155v123h155q149 0 209 65q43 46 43 124v363h123v-358q0 -67 29.5 -108t73.5 -62l67 109q59 97 125 199t143 189q95 108 187 160.5t188 52.5q65 0 116.5 -20.5t91.5 -55.5
t68.5 -82t47.5 -100.5t27.5 -110t8.5 -111.5q0 -90 -24.5 -152t-58.5 -102h262v-123h-1135zM790 192q-11 -17 -21.5 -34.5t-21.5 -34.5h576q20 1 46 5t53 14t52.5 27.5t45.5 45.5t32.5 67.5t12.5 94.5q0 58 -11.5 121.5t-38.5 115.5t-72.5 86t-114.5 34q-133 0 -283 -171
q-72 -81 -135 -179t-120 -192zM1184 1243l128 130l132 -132l-130 -130z" />
    <glyph glyph-name="uni0636.fina" unicode="&#x636;" horiz-adv-x="2812" arabic-form="final" 
d="M2292 854q59 0 109 -20t90.5 -54.5t71.5 -80.5t51.5 -99t31 -110t10.5 -113q0 -91 -25.5 -152.5t-60.5 -101.5h261v-123h-1135q-62 0 -117 17t-100 49v-118q0 -73 -14 -143.5t-46.5 -131.5t-85.5 -109t-131 -76q-108 -38 -259 -38h-239q-146 0 -265 63.5t-193 181.5
q-55 88 -76 188q-19 84 -19 173q0 16 1 32q5 124 43 257.5t107 279.5l111 -53q-60 -125 -94 -241t-42 -219q-3 -33 -3 -65q0 -67 15.5 -141.5t60.5 -145.5q57 -90 149 -139t205 -49h239q108 0 186 20t128.5 65t74.5 116.5t24 174.5v724h123v-356q0 -68 31 -109.5t76 -61.5
q40 61 77.5 125t77.5 127.5t83.5 125.5t95.5 121q94 107 185.5 158.5t186.5 51.5zM2268 123q20 0 47.5 3t57 12t58 26t51.5 45.5t37 69.5t14 98q0 86 -21 152.5t-55.5 111.5t-77.5 68t-87 23q-67 0 -136 -42t-144 -127q-35 -40 -69 -86t-69.5 -100.5t-74 -117.5t-82.5 -136
h551zM2152 1243l128 130l132 -132l-130 -130z" />
    <glyph glyph-name="uni0638" unicode="&#x638;" horiz-adv-x="1525" arabic-form="isolated" 
d="M1297 718q81 -120 81 -340q0 -67 -16.5 -118.5t-42 -90t-57 -64.5t-61.5 -43q-38 -21 -76.5 -33.5t-72 -19t-59 -8t-37.5 -1.5h-867v123h236q22 35 45 73.5t47 80.5l24 42v1107h123v-907q24 36 49.5 70t52.5 66q173 204 356 204q90 0 159.5 -36t115.5 -105zM956 123
q12 0 39.5 2t60.5 10.5t68.5 24.5t64.5 44.5t47.5 70.5t18.5 103q0 181 -60 273q-57 85 -173 85q-49 0 -96 -22.5t-91.5 -61t-86 -89.5t-80.5 -109t-75.5 -119t-69.5 -119q-27 -48 -54 -93h487zM911 1287l128 130l132 -132l-130 -130z" />
    <glyph glyph-name="uni0638.init" unicode="&#x638;" horiz-adv-x="1425" arabic-form="initial" 
d="M1180 718q81 -120 81 -340q0 -67 -16.5 -118.5t-42 -90t-57 -64.5t-61.5 -43q-38 -21 -76.5 -33.5t-72 -19t-59 -8t-37.5 -1.5h-862v123h231q22 35 45 73.5t47 80.5l24 42v1107h123v-907q24 36 49.5 70t52.5 66q173 204 356 204q90 0 159.5 -36t115.5 -105zM839 123
q13 0 40 2t60 10.5t68.5 24.5t64.5 44.5t47.5 70.5t18.5 103q0 181 -60 273q-57 85 -173 85q-49 0 -96 -22.5t-91.5 -61t-86 -89.5t-80.5 -109t-75.5 -119t-69.5 -119q-27 -48 -54 -93h487zM789 1282l128 130l132 -132l-130 -130z" />
    <glyph glyph-name="uni0638.medi" unicode="&#x638;" horiz-adv-x="1443" arabic-form="medial" 
d="M1457 0h-1472v123h250q22 35 45 73.5t47 80.5l24 42v1107h123v-907q24 36 49.5 70t52.5 66q173 204 356 204q90 0 159.5 -36t115.5 -105q81 -120 81 -340q0 -90 -28 -152.5t-68 -102.5h266zM866 123q13 0 40 2t60 10.5t68.5 24.5t64.5 44.5t47.5 70.5t18.5 103
q0 181 -60 273q-57 85 -173 85q-49 0 -96 -22.5t-91.5 -61t-86 -89.5t-80.5 -109t-75.5 -119t-69.5 -119q-27 -48 -54 -93h487zM810 1283l128 130l132 -132l-130 -130z" />
    <glyph glyph-name="uni0638.fina" unicode="&#x638;" horiz-adv-x="1599" arabic-form="final" 
d="M1613 0h-1501v123h238q22 35 45 73.5t47 80.5l24 42v1107h123v-907q24 36 49.5 70t52.5 66q173 204 356 204q90 0 159.5 -36t115.5 -105q81 -120 81 -340q0 -90 -28 -152.5t-68 -102.5h307zM981 123q12 0 39.5 2t60.5 10.5t68.5 24.5t64.5 44.5t47.5 70.5t18.5 103
q0 181 -60 273q-57 85 -173 85q-50 0 -96.5 -22.5t-91 -61t-86 -89.5t-80.5 -109t-75.5 -119t-69.5 -119q-27 -48 -54 -93h487zM931 1284l128 130l132 -132l-130 -130z" />
    <glyph glyph-name="uni063A" unicode="&#x63a;" horiz-adv-x="1384" arabic-form="isolated" 
d="M615 361q-62 0 -132.5 -23t-131.5 -71.5t-101 -123t-40 -176.5q0 -76 21.5 -134.5t58 -102.5t86 -74.5t106 -49t117 -27t119.5 -8.5h475v-123h-475q-118 0 -231 29.5t-202 92t-143.5 161t-54.5 236.5q0 111 47 212.5t135 175.5q73 61 165.5 95t186.5 34
q-14 10 -26.5 19.5t-24.5 20.5q-35 30 -63.5 66.5t-48.5 77t-31.5 85t-11.5 89.5q0 77 33.5 146t88.5 121.5t126 83t147 30.5q47 0 90.5 -10.5t89.5 -30t95.5 -46.5t108.5 -61l-61 -107q-41 23 -83.5 46.5t-84 42.5t-81.5 31t-74 12q-48 0 -96.5 -19.5t-87.5 -54t-63.5 -82
t-24.5 -102.5q0 -60 29.5 -119.5t83.5 -106.5q67 -59 166 -92t225 -40l190 -1v-123l-194 1h-423zM703 1590l128 130l132 -132l-130 -130z" />
    <glyph glyph-name="uni063A.init" unicode="&#x63a;" horiz-adv-x="1180" arabic-form="initial" 
d="M1024 123v-123h-1039v123h413q-42 27 -77 65t-59.5 83t-38.5 96t-14 105q0 79 32.5 149t87.5 122.5t127 83.5t150 31q58 0 107.5 -14t95 -35.5t89 -48.5t88.5 -53l-62 -106q-39 23 -78 47t-78 43.5t-79.5 31.5t-82.5 12q-49 0 -98 -19.5t-88 -54t-63.5 -83t-24.5 -106.5
q0 -19 3.5 -45.5t15 -56.5t32.5 -62t56 -62q32 -27 76.5 -49.5t96 -39t107 -25.5t111.5 -9h194zM487 1264l128 130l132 -132l-130 -130z" />
    <glyph glyph-name="uni063A.medi" unicode="&#x63a;" horiz-adv-x="1251" arabic-form="medial" 
d="M900 0q-11 0 -25.5 3t-36 13t-52 28.5t-72.5 48.5q-14 10 -29 21.5t-31 23.5q-126 -69 -277 -103.5t-337 -34.5h-61v123h61q165 0 289.5 27.5t218.5 72.5q-15 12 -30 24.5t-31 26.5q-57 48 -110 95t-93.5 83.5t-65.5 59.5l-25 23l-20 19v27q0 133 73 204q76 72 223 72
h337q41 0 79 -10t73 -29q70 -41 102 -108q21 -43 21 -89q0 -16 -7 -55.5t-54 -95.5q-55 -68 -117 -134.5t-140 -125.5l10 -8q34 -25 58 -40.5t39 -23.5t22.5 -11t9.5 -4h369v-123h-371zM297 607q16 -15 42.5 -39.5t60.5 -55t74 -65t82 -70.5q29 -25 55 -47t51 -42
q86 59 148.5 127t115.5 133q8 10 15.5 22t11.5 26t3.5 29.5t-7.5 31.5q-17 35 -56 56t-87 21h-337q-49 0 -81.5 -8.5t-52 -25t-28 -40t-10.5 -53.5zM525 1272l128 130l132 -132l-130 -130z" />
    <glyph glyph-name="uni063A.fina" unicode="&#x63a;" horiz-adv-x="1364" arabic-form="final" 
d="M711 364q51 26 98.5 53t88.5 55t74 58.5t56 63.5q22 34 22 66q0 4 -1.5 23.5t-22.5 47t-55 44t-69 16.5h-338q-38 -1 -68.5 -7.5t-52.5 -21t-35 -38t-16 -58.5q11 -11 31 -30.5t46 -45t56.5 -54.5t62.5 -59t63.5 -59t59.5 -54zM902 914q38 0 74 -10t67.5 -29t57.5 -45
t43 -59q28 -53 28 -110q0 -7 -2 -43t-40 -93q-26 -38 -60.5 -71.5t-75.5 -64t-87.5 -58t-96.5 -54.5q21 -19 40.5 -35t38.5 -30q36 -29 60 -46t40 -26.5t23.5 -13t10.5 -4.5h359v-122h-362q-11 0 -26 3.5t-37.5 14t-53.5 31t-75 54.5q-29 23 -63.5 51t-72.5 62
q-51 -27 -107.5 -56t-111.5 -62t-104.5 -70.5t-87.5 -82.5t-60.5 -98t-22.5 -116q0 -71 21.5 -125.5t59.5 -95.5t89.5 -69t111.5 -45t125.5 -24.5t131.5 -7.5h445v-123h-469q-71 0 -146.5 10.5t-149 35.5t-136 64.5t-108.5 94.5t-72 126t-26 159q0 109 45 195.5t118.5 155.5
t166.5 123.5t189 98.5l-2 2q-59 54 -114 106t-97.5 93.5t-68 67t-26.5 25.5l-18 43q1 134 79.5 203.5t216.5 69.5h338zM586 1296l128 130l132 -132l-130 -130z" />
    <glyph glyph-name="uni06A9.init" unicode="&#x6a9;" horiz-adv-x="1151" arabic-form="initial" 
d="M1151 1460l-839 -369q66 -56 177 -158.5t254 -254.5q126 -133 172 -259q24 -66 25 -126v-5q0 -58 -21 -107q-11 -25 -34.5 -56.5t-67 -59t-109.5 -46.5t-162 -19h-569v123h569q113 0 182 33q59 28 78 74q12 27 12 59q0 46 -32.5 122t-132.5 183q-107 114 -197.5 200.5
t-156.5 145t-103 88.5t-38 30l13 105l930 410z" />
    <glyph glyph-name="uni06A9.medi" unicode="&#x6a9;" horiz-adv-x="1248" arabic-form="medial" 
d="M802 436q60 -81 108 -140t98 -97.5t110 -57t145 -18.5v-123q-95 0 -166.5 20t-129 57.5t-106.5 90t-100 118.5q-4 -22 -10.5 -41t-14.5 -36q-29 -63 -79.5 -103.5t-112.5 -64t-131 -32.5t-136 -9h-296v123h296q48 2 100.5 7.5t100.5 20.5t87 42t61 71q17 34 18 72v7
q0 33 -10 69.5t-29.5 73t-43.5 68.5q-40 54 -73 98.5t-62.5 84.5t-56.5 76.5t-55.5 75t-59.5 80.5t-68 92h1l24 92l939 423l50 -112l-869 -392q115 -158 232 -315.5t239 -320.5z" />
    <glyph glyph-name="uni0641" unicode="&#x641;" horiz-adv-x="2127" arabic-form="isolated" 
d="M1462 123q88 5 161 12.5t127.5 31.5t89.5 71t47 132q-42 -7 -100 -13.5t-118 -6.5q-94 0 -171 20.5t-132 63.5t-85 109t-30 157q0 79 26.5 150.5t74.5 125t116 84.5q64 28 141 28h10q85 -1 147 -29t106 -75.5t72 -110.5t43.5 -134t21.5 -146.5t6 -146.5
q0 -131 -39.5 -217t-112 -137t-174.5 -71.5t-227 -20.5h-1006q-64 0 -121.5 21.5t-101.5 63.5q-18 16 -36 39.5t-32.5 55.5t-24 73t-9.5 92q0 33 5 71.5t12.5 77t16.5 75t16.5 65t13 47t6.5 20.5l117 -37l-4 -16q-5 -17 -12.5 -43t-15.5 -59.5t-15.5 -68.5t-12 -69.5
t-4.5 -62.5q0 -62 18 -104t46.5 -68.5t64.5 -38t73 -11.5h1006zM1669 473q31 0 62.5 2t60.5 5.5t55 7.5t45 7q-1 44 -5 95.5t-14 104t-28.5 101t-48.5 86.5t-73.5 60.5t-103.5 22.5q-63 0 -109.5 -23t-76.5 -60t-44.5 -85t-14.5 -97q0 -68 22.5 -111.5t62.5 -69t94 -36
t116 -10.5zM1474 1470l128 130l132 -132l-130 -130z" />
    <glyph glyph-name="uni0641.init" unicode="&#x641;" horiz-adv-x="1036" arabic-form="initial" 
d="M575 473q31 0 62.5 2t60.5 5.5t55 7.5t45 7q-1 44 -5 95.5t-14 104t-28.5 101t-48.5 86.5t-73.5 60.5t-103.5 22.5q-63 0 -109.5 -23t-76.5 -60t-44.5 -85t-14.5 -97q0 -68 22.5 -111.5t62.5 -69t94 -36t116 -10.5zM525 1088q84 -1 146.5 -29t106.5 -75.5t72 -110.5
t43.5 -134t21.5 -146.5t6 -146.5q0 -131 -39.5 -217t-112 -137t-174.5 -71.5t-227 -20.5h-387v123h387q88 5 161 12.5t127.5 31.5t89.5 71t47 132q-42 -7 -100 -13.5t-118 -6.5q-94 0 -171 20.5t-132 63.5t-85 109t-30 157q0 79 26.5 150.5t74.5 125t116 84.5q64 28 141 28
h10zM375 1488l128 130l132 -132l-130 -130z" />
    <glyph glyph-name="uni0641.medi" unicode="&#x641;" horiz-adv-x="1084" arabic-form="medial" 
d="M567 200q21 8 40.5 17t37.5 20q30 17 61 40.5t56.5 53.5t41.5 68t16 83q0 48 -17 95t-49 84t-77.5 60t-103.5 23q-61 0 -110 -18.5t-84 -53t-54 -82.5t-19 -108q0 -48 18.5 -87t48 -71t65 -56t70.5 -42q14 -7 28.5 -13.5t30.5 -12.5zM582 867q73 0 139 -30.5t115.5 -84.5
t78 -124.5t28.5 -145.5q0 -98 -52.5 -183t-152.5 -150q130 -26 270 -26h99v-123h-99q-120 0 -232 17.5t-209 51.5q-99 -34 -216.5 -51.5t-252.5 -17.5h-123v123h123q160 0 296 26q-45 28 -84 64t-67 78t-44 90t-16 101q0 84 29 155.5t80.5 123t123.5 80.5q66 26 146 26h20z
M436 1286l128 130l132 -132l-130 -130z" />
    <glyph glyph-name="uni0641.fina" unicode="&#x641;" horiz-adv-x="2128" arabic-form="final" 
d="M1175 123q160 0 296 26q-45 28 -84 64t-67 78t-44 90t-16 101q0 84 29 155.5t80.5 123t123.5 80.5q66 26 146 26h20q73 0 139 -30.5t115.5 -84.5t78 -124.5t28.5 -145.5q0 -98 -52.5 -183t-152.5 -150q130 -26 270 -26h71v-123h-71q-120 0 -232 17.5t-209 51.5
q-99 -34 -216.5 -51.5t-252.5 -17.5h-719q-64 0 -121.5 21.5t-101.5 63.5q-18 16 -36 39.5t-32.5 55.5t-24 73t-9.5 92q0 33 5 71.5t12.5 77t16.5 75t16.5 65t13 47t6.5 20.5l117 -37l-4 -16q-5 -17 -12.5 -43t-15.5 -59.5t-15.5 -68.5t-12 -69.5t-4.5 -62.5q0 -62 18 -104
t46.5 -68.5t64.5 -38t73 -11.5h719zM1644 200q21 8 40.5 17t37.5 20q30 17 61 40.5t56.5 53.5t41.5 68t16 83q0 48 -17 95t-49 84t-77.5 60t-103.5 23q-61 0 -110 -18.5t-84 -53t-54 -82.5t-19 -108q0 -48 18.5 -87t48 -71t65 -56t70.5 -42q14 -7 28.5 -13.5t30.5 -12.5z
M1514 1267l128 130l132 -132l-130 -130z" />
    <glyph glyph-name="veh.isol" unicode="&#x6a4;" horiz-adv-x="2127" arabic-form="isolated" 
d="M1462 123q88 5 161 12.5t127.5 31.5t89.5 71t47 132q-42 -7 -100 -13.5t-118 -6.5q-94 0 -171 20.5t-132 63.5t-85 109t-30 157q0 79 26.5 150.5t74.5 125t116 84.5q64 28 141 28h10q85 -1 147 -29t106 -75.5t72 -110.5t43.5 -134t21.5 -146.5t6 -146.5
q0 -131 -39.5 -217t-112 -137t-174.5 -71.5t-227 -20.5h-1006q-64 0 -121.5 21.5t-101.5 63.5q-18 16 -36 39.5t-32.5 55.5t-24 73t-9.5 92q0 33 5 71.5t12.5 77t16.5 75t16.5 65t13 47t6.5 20.5l117 -37l-4 -16q-5 -17 -12.5 -43t-15.5 -59.5t-15.5 -68.5t-12 -69.5
t-4.5 -62.5q0 -62 18 -104t46.5 -68.5t64.5 -38t73 -11.5h1006zM1669 473q31 0 62.5 2t60.5 5.5t55 7.5t45 7q-1 44 -5 95.5t-14 104t-28.5 101t-48.5 86.5t-73.5 60.5t-103.5 22.5q-63 0 -109.5 -23t-76.5 -60t-44.5 -85t-14.5 -97q0 -68 22.5 -111.5t62.5 -69t94 -36
t116 -10.5zM1549 1432l-124 -125l-124 123l125 126zM1952 1435l-124 -124l-126 124l125 125zM1754 1707l-124 -124l-126 124l125 125z" />
    <glyph glyph-name="veh.init" unicode="&#x6a4;" horiz-adv-x="1036" arabic-form="initial" 
d="M575 473q31 0 62.5 2t60.5 5.5t55 7.5t45 7q-1 44 -5 95.5t-14 104t-28.5 101t-48.5 86.5t-73.5 60.5t-103.5 22.5q-63 0 -109.5 -23t-76.5 -60t-44.5 -85t-14.5 -97q0 -68 22.5 -111.5t62.5 -69t94 -36t116 -10.5zM525 1088q84 -1 146.5 -29t106.5 -75.5t72 -110.5
t43.5 -134t21.5 -146.5t6 -146.5q0 -131 -39.5 -217t-112 -137t-174.5 -71.5t-227 -20.5h-387v123h387q88 5 161 12.5t127.5 31.5t89.5 71t47 132q-42 -7 -100 -13.5t-118 -6.5q-94 0 -171 20.5t-132 63.5t-85 109t-30 157q0 79 26.5 150.5t74.5 125t116 84.5q64 28 141 28
h10zM442 1381l-124 -125l-124 123l125 126zM845 1384l-124 -124l-126 124l125 125zM647 1656l-124 -124l-126 124l125 125z" />
    <glyph glyph-name="veh.medi" unicode="&#x6a4;" horiz-adv-x="1084" arabic-form="medial" 
d="M567 200q21 8 40.5 17t37.5 20q30 17 61 40.5t56.5 53.5t41.5 68t16 83q0 48 -17 95t-49 84t-77.5 60t-103.5 23q-61 0 -110 -18.5t-84 -53t-54 -82.5t-19 -108q0 -48 18.5 -87t48 -71t65 -56t70.5 -42q14 -7 28.5 -13.5t30.5 -12.5zM582 867q73 0 139 -30.5t115.5 -84.5
t78 -124.5t28.5 -145.5q0 -98 -52.5 -183t-152.5 -150q130 -26 270 -26h99v-123h-99q-120 0 -232 17.5t-209 51.5q-99 -34 -216.5 -51.5t-252.5 -17.5h-123v123h123q160 0 296 26q-45 28 -84 64t-67 78t-44 90t-16 101q0 84 29 155.5t80.5 123t123.5 80.5q66 26 146 26h20z
M459 1264l-124 -125l-124 123l125 126zM862 1267l-124 -124l-126 124l125 125zM664 1539l-124 -124l-126 124l125 125z" />
    <glyph glyph-name="veh.fina" unicode="&#x6a4;" horiz-adv-x="2128" arabic-form="final" 
d="M1175 123q160 0 296 26q-45 28 -84 64t-67 78t-44 90t-16 101q0 84 29 155.5t80.5 123t123.5 80.5q66 26 146 26h20q73 0 139 -30.5t115.5 -84.5t78 -124.5t28.5 -145.5q0 -98 -52.5 -183t-152.5 -150q130 -26 270 -26h71v-123h-71q-120 0 -232 17.5t-209 51.5
q-99 -34 -216.5 -51.5t-252.5 -17.5h-719q-64 0 -121.5 21.5t-101.5 63.5q-18 16 -36 39.5t-32.5 55.5t-24 73t-9.5 92q0 33 5 71.5t12.5 77t16.5 75t16.5 65t13 47t6.5 20.5l117 -37l-4 -16q-5 -17 -12.5 -43t-15.5 -59.5t-15.5 -68.5t-12 -69.5t-4.5 -62.5q0 -62 18 -104
t46.5 -68.5t64.5 -38t73 -11.5h719zM1644 200q21 8 40.5 17t37.5 20q30 17 61 40.5t56.5 53.5t41.5 68t16 83q0 48 -17 95t-49 84t-77.5 60t-103.5 23q-61 0 -110 -18.5t-84 -53t-54 -82.5t-19 -108q0 -48 18.5 -87t48 -71t65 -56t70.5 -42q14 -7 28.5 -13.5t30.5 -12.5z
M1565 1247l-124 -125l-124 123l125 126zM1968 1250l-124 -124l-126 124l125 125zM1770 1522l-124 -124l-126 124l125 125z" />
    <glyph glyph-name="uni0642.init" unicode="&#x642;" horiz-adv-x="1036" arabic-form="initial" 
d="M575 473q31 0 62.5 2t60.5 5.5t55 7.5t45 7q-1 44 -5 95.5t-14 104t-28.5 101t-48.5 86.5t-73.5 60.5t-103.5 22.5q-63 0 -109.5 -23t-76.5 -60t-44.5 -85t-14.5 -97q0 -68 22.5 -111.5t62.5 -69t94 -36t116 -10.5zM525 1088q84 -1 146.5 -29t106.5 -75.5t72 -110.5
t43.5 -134t21.5 -146.5t6 -146.5q0 -131 -39.5 -217t-112 -137t-174.5 -71.5t-227 -20.5h-387v123h387q88 5 161 12.5t127.5 31.5t89.5 71t47 132q-42 -7 -100 -13.5t-118 -6.5q-94 0 -171 20.5t-132 63.5t-85 109t-30 157q0 79 26.5 150.5t74.5 125t116 84.5q64 28 141 28
h10zM703 1306l-124 125q34 35 61.5 62.5t60.5 61.5l126 -125zM297 1308l-124 125q34 35 61.5 62.5t60.5 61.5l126 -125z" />
    <glyph glyph-name="uni0642.medi" unicode="&#x642;" horiz-adv-x="1096" arabic-form="medial" 
d="M567 200q21 8 40.5 17t37.5 20q30 17 61 40.5t56.5 53.5t41.5 68t16 83q0 48 -17 95t-49 84t-77.5 60t-103.5 23q-61 0 -110 -18.5t-84 -53t-54 -82.5t-19 -108q0 -48 18.5 -87t48 -71t65 -56t70.5 -42q14 -7 28.5 -13.5t30.5 -12.5zM582 867q73 0 139 -30.5t115.5 -84.5
t78 -124.5t28.5 -145.5q0 -98 -52.5 -183t-152.5 -150q130 -26 270 -26h99v-123h-99q-120 0 -232 17.5t-209 51.5q-99 -34 -216.5 -51.5t-252.5 -17.5h-123v123h123q160 0 296 26q-45 28 -84 64t-67 78t-44 90t-16 101q0 84 29 155.5t80.5 123t123.5 80.5q66 26 146 26h20z
M736 1140l-124 125q34 35 61.5 62.5t60.5 61.5l126 -125zM330 1142l-124 125q34 35 61.5 62.5t60.5 61.5l126 -125z" />
    <glyph glyph-name="uni0642" unicode="&#x642;" horiz-adv-x="1620" arabic-form="isolated" 
d="M1060 856q181 0 279 -116q108 -127 108 -400v-390q0 -227 -105 -348q-33 -38 -75.5 -66.5t-94.5 -47.5q-107 -40 -260 -40h-235q-144 0 -262 63.5t-192 180.5q-51 81 -75 182q-20 84 -20 177q0 19 1 39q5 124 43.5 252t108.5 274l111 -53q-60 -125 -94.5 -239.5
t-42.5 -216.5q-2 -31 -2 -61q0 -68 14.5 -143t59.5 -146q57 -89 147.5 -137.5t202.5 -48.5h235q241 0 337 111q75 87 75 267v51h-258q-75 0 -146.5 20t-127 66t-89 120t-33.5 181q0 88 21 172t67.5 150t120.5 106.5t181 40.5zM1324 123v217q0 113 -19.5 193.5t-59.5 127.5
q-32 37 -76.5 54.5t-108.5 17.5q-63 0 -112.5 -23.5t-84 -68t-52.5 -109t-18 -145.5q0 -67 19.5 -112.5t49 -75t64 -45t65 -22.5t51.5 -8t24 -1h258zM1288 1106l-124 125q34 35 61.5 62.5t60.5 61.5l126 -125zM882 1108l-124 125q34 35 61.5 62.5t60.5 61.5l126 -125z" />
    <glyph glyph-name="uni0642.fina" unicode="&#x642;" horiz-adv-x="1652" arabic-form="final" 
d="M1068 856q181 0 279 -116q108 -127 108 -400v-217h224v-123h-224v-50q0 -227 -105 -348q-33 -38 -75.5 -66.5t-94.5 -47.5q-107 -40 -260 -40h-235q-144 0 -262 63.5t-192 180.5q-51 81 -75 182q-20 84 -20 177q0 19 1 39q5 124 43.5 252t108.5 274l111 -53
q-60 -125 -94.5 -239.5t-42.5 -216.5q-2 -31 -2 -61q0 -68 14.5 -143t59.5 -146q57 -89 147.5 -137.5t202.5 -48.5h235q241 0 337 111q75 87 75 267v51h-258q-75 0 -146.5 20t-127 66t-89 120t-33.5 181q0 88 21 172t67.5 150t120.5 106.5t181 40.5zM1332 123v217
q0 113 -19.5 193.5t-59.5 127.5q-32 37 -76.5 54.5t-108.5 17.5q-63 0 -112.5 -23.5t-84 -68t-52.5 -109t-18 -145.5q0 -67 19.5 -112.5t49 -75t64 -45t65 -22.5t51.5 -8t24 -1h258zM1286 1103l-124 125q34 35 61.5 62.5t60.5 61.5l126 -125zM880 1105l-124 125
q34 35 61.5 62.5t60.5 61.5l126 -125z" />
    <glyph glyph-name="uni0646.init" unicode="&#x646;" horiz-adv-x="671" arabic-form="initial" 
d="M493 804q10 -43 22 -95t21.5 -107.5t16.5 -112.5t9 -109v-6q0 -68 -21 -135t-62 -120.5t-100.5 -86t-133.5 -32.5h-260v123h260q48 3 84.5 25t61 57.5t37.5 80.5q11 41 11 84v7q-1 48 -7.5 100t-16 103t-20.5 99t-21 89zM230 1227l128 130l132 -132l-130 -130z" />
    <glyph glyph-name="uni0646.medi" unicode="&#x646;" horiz-adv-x="820" arabic-form="medial" 
d="M835 123v-123h-70q-67 0 -127 20t-105 57q-27 22 -45 46q-51 -64 -128 -93t-187 -30h-188v123h188q59 2 105 11t78 31t49.5 58.5t19.5 93.5v359h123v-359q0 -54 20 -91t51 -60t69.5 -33t76.5 -10h70zM277 1137l128 130l132 -132l-130 -130z" />
    <glyph glyph-name="uni0646" unicode="&#x646;" horiz-adv-x="1600" arabic-form="isolated" 
d="M1447 676v-726q0 -227 -105 -348q-33 -38 -75.5 -66.5t-94.5 -47.5q-107 -40 -260 -40h-235q-144 0 -262 63.5t-192 180.5q-51 81 -75 182q-20 84 -20 177q0 19 1 39q5 124 43.5 252t108.5 274l111 -53q-60 -125 -94.5 -239.5t-42.5 -216.5q-2 -31 -2 -61
q0 -68 14.5 -143t59.5 -146q57 -89 147.5 -137.5t202.5 -48.5h235q241 0 337 111q75 87 75 268v726h123zM732 755l128 130l132 -132l-130 -130z" />
    <glyph glyph-name="uni0646.fina" unicode="&#x646;" horiz-adv-x="1679" arabic-form="final" 
d="M1694 123v-123h-31q-62 0 -117 19t-100 55v-124q0 -226 -106 -348q-39 -46 -87.5 -75.5t-103.5 -47t-115.5 -24.5t-123.5 -7h-235q-144 0 -262 63.5t-191 180.5q-51 81 -75 175q-21 78 -21 170q0 19 1 38q5 125 44 260t110 281l110 -53q-60 -125 -94.5 -239.5
t-42.5 -216.5q-3 -34 -3 -66q0 -65 15 -139t60 -145q56 -89 147 -137.5t202 -48.5h235q242 0 337 111q76 88 76 268v726h123v-330q0 -50 16 -91t44.5 -70t68.5 -45.5t88 -16.5h31zM731 751l128 130l132 -132l-130 -130z" />
    <glyph glyph-name="uni06C0" unicode="&#x6c0;" horiz-adv-x="1042" arabic-form="isolated" 
d="M523 0q-85 0 -159.5 27.5t-130 75.5t-88 112.5t-32.5 137.5q0 70 19 129t47.5 108.5t61.5 90t60 73.5q15 18 33 38t36 39.5t35.5 37t31.5 32.5l-78 87l90 82q1 0 24.5 -25.5t60 -65.5t80.5 -89t85 -97q50 -57 93 -111t74.5 -107t49.5 -106.5t18 -111.5
q0 -75 -32.5 -141.5t-94.5 -117.5q-57 -48 -130 -73t-154 -25zM520 810q-14 -14 -30 -30.5t-32.5 -34t-32 -35t-28.5 -33.5q-24 -29 -52.5 -63.5t-52.5 -75t-40 -87t-16 -98.5q0 -45 21 -86.5t60 -73.5q42 -34 95.5 -52t110.5 -18q60 0 112.5 18.5t91.5 50t61.5 74.5
t22.5 91q0 38 -13 76.5t-38.5 81t-64 91t-89.5 107.5zM578 1739q20 0 42.5 -2.5t47.5 -9.5l-24 -91q-35 9 -65 9q-56 0 -92 -30q-22 -18 -34.5 -45.5t-15.5 -59.5q60 -10 95 -16t55 -11q30 -7 44 -17q27 -19 27 -50q0 -9 -0.5 -22.5t-3.5 -30.5t-10 -35t-19 -36
q-56 -81 -196 -81h-110v94h110q42 0 68 8t40 20.5t19.5 28t6.5 30.5q-23 5 -70.5 13t-110.5 19l-36 6l-3 36q-1 12 -1 24q0 53 19.5 106t64.5 91q24 20 61 36t91 16z" />
    <glyph glyph-name="uni06C0.fina" unicode="&#x6c0;" horiz-adv-x="1261" arabic-form="final" 
d="M1283 0h-20q-79 0 -147.5 19t-128.5 56q-69 44 -119 110q-22 29 -39 63t-30 72q-31 -63 -77.5 -114.5t-114.5 -77.5q-81 -32 -160 -32q-7 0 -53.5 1.5t-117.5 36t-121.5 97.5t-65.5 148q-6 33 -6 65q0 68 30 146t105 152q72 72 178 127t241 91l-27 134l122 34
q29 -124 50.5 -217t38.5 -166q12 -51 22 -96.5t20.5 -89t21.5 -86.5t24 -91q16 -59 42 -100.5t58.5 -70.5t67.5 -46.5t69.5 -26.5t64.5 -12t52 -3h20v-123zM672 843q-118 -32 -209.5 -78.5t-152 -104t-86.5 -123.5q-18 -45 -18 -92q0 -22 4 -44q10 -57 48 -98t89 -62.5
t107 -22.5h5q52 0 94 20q57 28 92 67.5t54 82.5t25 85.5t5.5 76.5t-4 55.5t-3.5 22.5q-11 48 -18.5 81t-13 57t-10 42t-8.5 35zM696 1820q20 0 42.5 -2.5t47.5 -9.5l-24 -91q-35 9 -65 9q-56 0 -92 -30q-22 -18 -34.5 -45.5t-15.5 -59.5q60 -10 95 -16t55 -11q30 -7 44 -17
q27 -19 27 -50q0 -9 -0.5 -22.5t-3.5 -30.5t-10 -35t-19 -36q-56 -81 -196 -81h-110v94h110q42 0 68 8t40 20.5t19.5 28t6.5 30.5q-23 5 -70.5 13t-110.5 19l-36 6l-3 36q-1 12 -1 24q0 53 19.5 106t64.5 91q24 20 61 36t91 16z" />
    <glyph glyph-name="uni0624" unicode="&#x624;" horiz-adv-x="1024" arabic-form="isolated" 
d="M777 123v249q-2 79 -14.5 146.5t-42.5 117t-80 77t-128 27.5q-77 0 -128 -28t-81.5 -77.5t-43 -117t-12.5 -145.5q0 -69 24 -116.5t67 -77t100.5 -42.5t125.5 -13h213zM512 863q103 -4 177 -41t120.5 -101.5t68.5 -153t22 -195.5v-389q0 -132 -45.5 -233t-132.5 -169
t-207.5 -100.5t-263.5 -32.5h-57v123h57q121 3 217.5 24t164.5 70t105 130.5t39 204.5h-228q-84 0 -161 22t-136.5 68.5t-93.5 117t-34 164.5q0 106 21.5 194.5t68 153t120 102t178.5 41.5zM175 1021q2 29 3 52t3 52l157 50q-26 7 -47.5 24t-36.5 39t-23 48t-8 52
q0 31 11 62.5t31 59.5t49 49.5t65 32.5q30 9 57 9q2 0 17.5 -0.5t41.5 -7t49.5 -16t45.5 -18.5l-21 -82q-17 6 -36.5 13.5t-40 12.5t-42 5.5t-43.5 -5.5q-21 -6 -39.5 -20.5t-31.5 -34t-17 -41.5q-2 -10 -2 -20q0 -12 3 -23q10 -32 54.5 -54.5t104.5 -22.5q45 0 96 13.5
t98 27.5l28 -88z" />
    <glyph glyph-name="uni0624.fina" unicode="&#x624;" horiz-adv-x="1049" arabic-form="final" 
d="M777 123v249q-2 79 -14.5 146.5t-42.5 117t-80 77t-128 27.5q-77 0 -128 -28t-81.5 -77.5t-43 -117t-12.5 -145.5q0 -69 24 -116.5t67 -77t100.5 -42.5t125.5 -13h213zM512 863q103 -4 177 -41t120.5 -101.5t68.5 -153t22 -195.5v-249h170v-123h-170v-17
q0 -132 -45.5 -233t-132.5 -169t-207.5 -100.5t-263.5 -32.5h-57v123h57q121 3 217.5 24t164.5 70t105 130.5t39 204.5h-228q-84 0 -161 22t-136.5 68.5t-93.5 117t-34 164.5q0 106 21.5 194.5t68 153t120 102t178.5 41.5zM174 1019q2 29 3 52t3 52l157 50q-26 7 -47.5 24
t-36.5 39t-23 48t-8 52q0 31 11 62.5t31 59.5t49 49.5t65 32.5q30 9 57 9q2 0 17.5 -0.5t41.5 -7t49.5 -16t45.5 -18.5l-21 -82q-17 6 -36.5 13.5t-40 12.5t-42 5.5t-43.5 -5.5q-21 -6 -39.5 -20.5t-31.5 -34t-17 -41.5q-2 -10 -2 -20q0 -12 3 -23q10 -32 54.5 -54.5
t104.5 -22.5q45 0 96 13.5t98 27.5l28 -88z" />
    <glyph glyph-name="uni0649.init" unicode="&#x649;" horiz-adv-x="671" arabic-form="initial" 
d="M493 804q10 -43 22 -95t21.5 -107.5t16.5 -112.5t9 -109v-6q0 -68 -21 -135t-62 -120.5t-100.5 -86t-133.5 -32.5h-260v123h260q48 3 84.5 25t61 57.5t37.5 80.5q11 41 11 84v7q-1 48 -7.5 100t-16 103t-20.5 99t-21 89z" />
    <glyph glyph-name="uni0649.medi" unicode="&#x649;" horiz-adv-x="820" arabic-form="medial" 
d="M835 123v-123h-70q-67 0 -127 20t-105 57q-27 22 -45 46q-51 -64 -128 -93t-187 -30h-188v123h188q59 2 105 11t78 31t49.5 58.5t19.5 93.5v359h123v-359q0 -54 20 -91t51 -60t69.5 -33t76.5 -10h70z" />
    <glyph glyph-name="uni064A.init" unicode="&#x64a;" horiz-adv-x="877" arabic-form="initial" 
d="M648 804q10 -43 22 -95t21.5 -107.5t16.5 -112.5t9 -109v-6q0 -68 -21 -135t-62 -120.5t-100.5 -86t-133.5 -32.5h-415v123h415q48 3 84.5 25t61 57.5t37.5 80.5q11 41 11 84v7q-1 48 -7.5 100t-16 103t-20.5 99t-21 89zM612 -515l-124 125l122 124l126 -125zM204 -513
l-124 125l122 124l126 -125z" />
    <glyph glyph-name="uni064A.medi" unicode="&#x64a;" horiz-adv-x="1046" arabic-form="medial" 
d="M1066 123v-123h-164q-67 0 -127 20t-105 57q-27 22 -45 46q-51 -64 -128 -93t-187 -30h-330v123h330q59 2 105 11t78 31t49.5 58.5t19.5 93.5v359h123v-359q0 -54 20 -91t51 -60t69.5 -33t76.5 -10h164zM660 -519l-124 125l122 124l126 -125zM252 -517l-124 125l122 124
l126 -125z" />
    <glyph glyph-name="uni064A" unicode="&#x64a;" horiz-adv-x="1671" arabic-form="isolated" 
d="M1356 871q49 0 98.5 -7t100.5 -22l-34 -118q-84 24 -164 24q-97 0 -182.5 -33t-151.5 -98q-78 -76 -109 -179q-20 -63 -20 -129q0 -41 8 -83q16 -5 51.5 -14.5t81.5 -21.5t97.5 -26t100 -27t88.5 -24t64 -17q40 -11 63.5 -26t34.5 -33t14 -39t3 -44q0 -34 -5 -78
t-16.5 -90.5t-31 -91t-48.5 -79.5q-40 -49 -87.5 -81t-102 -51t-115 -26.5t-127.5 -7.5h-255q-67 0 -132 16t-125 48.5t-110.5 79t-88.5 106.5q-55 88 -77 188q-19 82 -19 168q0 19 1 38q9 247 148 535l111 -53q-60 -124 -93.5 -239.5t-40.5 -218.5q-2 -31 -2 -60
q0 -69 15.5 -145t60.5 -148q58 -92 151.5 -142t208.5 -50h247q123 0 202 29t130 85q25 27 41.5 62.5t26 74t12.5 77.5q1 15 1 30q0 21 -2 41l-579 156l-9 34q-19 71 -19 143v42t19 109t56 133.5t91 116.5q41 40 89.5 71.5t102.5 52.5t112 32q52 10 105 10h10zM1044 -937
l-124 125l122 124l126 -125zM636 -935l-124 125l122 124l126 -125z" />
    <glyph glyph-name="uni064A.fina" unicode="&#x64a;" horiz-adv-x="1777" arabic-form="final" 
d="M384 574q-61 -126 -95.5 -243t-42.5 -221q-3 -33 -3 -65q0 -68 15.5 -142.5t60.5 -146.5q56 -89 146.5 -137t202.5 -48h249q48 0 102.5 4t109 14.5t105 27.5t89 42t61.5 59.5t23 80.5q0 31 -7 56.5t-26 46t-53 36.5t-87 28t-128.5 20.5t-177.5 13.5l3 123h864v-123h-346
q42 -41 61 -89t19 -112q0 -67 -25 -119.5t-69 -91.5t-103 -65.5t-127 -43t-141.5 -24t-146.5 -7.5h-249q-144 0 -262 63t-191 179q-69 112 -87 231q-11 65 -11 129q0 55 12 142.5t53 205.5t92 229zM1058 -971l-124 125l122 124l126 -125zM650 -969l-124 125l122 124
l126 -125z" />
    <glyph glyph-name="uni06CC" unicode="&#x6cc;" horiz-adv-x="1671" arabic-form="isolated" 
d="M1356 871q49 0 98.5 -7t100.5 -22l-34 -118q-84 24 -164 24q-97 0 -182.5 -33t-151.5 -98q-78 -76 -109 -179q-20 -63 -20 -129q0 -41 8 -83q16 -5 51.5 -14.5t81.5 -21.5t97.5 -26t100 -27t88.5 -24t64 -17q40 -11 63.5 -26t34.5 -33t14 -39t3 -44q0 -34 -5 -78
t-16.5 -90.5t-31 -91t-48.5 -79.5q-40 -49 -87.5 -81t-102 -51t-115 -26.5t-127.5 -7.5h-255q-67 0 -132 16t-125 48.5t-110.5 79t-88.5 106.5q-55 88 -77 188q-19 82 -19 168q0 19 1 38q9 247 148 535l111 -53q-60 -124 -93.5 -239.5t-40.5 -218.5q-2 -31 -2 -60
q0 -69 15.5 -145t60.5 -148q58 -92 151.5 -142t208.5 -50h247q123 0 202 29t130 85q25 27 41.5 62.5t26 74t12.5 77.5q1 15 1 30q0 21 -2 41l-579 156l-9 34q-19 71 -19 143v42t19 109t56 133.5t91 116.5q41 40 89.5 71.5t102.5 52.5t112 32q52 10 105 10h10z" />
    <glyph glyph-name="uni06CC.init" unicode="&#x6cc;" horiz-adv-x="877" arabic-form="initial" 
d="M648 804q10 -43 22 -95t21.5 -107.5t16.5 -112.5t9 -109v-6q0 -68 -21 -135t-62 -120.5t-100.5 -86t-133.5 -32.5h-415v123h415q48 3 84.5 25t61 57.5t37.5 80.5q11 41 11 84v7q-1 48 -7.5 100t-16 103t-20.5 99t-21 89zM601 -508l-124 125l122 124l126 -125zM193 -506
l-124 125l122 124l126 -125z" />
    <glyph glyph-name="uni06CC.medi" unicode="&#x6cc;" horiz-adv-x="1046" arabic-form="medial" 
d="M1066 123v-123h-164q-67 0 -127 20t-105 57q-27 22 -45 46q-51 -64 -128 -93t-187 -30h-330v123h330q59 2 105 11t78 31t49.5 58.5t19.5 93.5v359h123v-359q0 -54 20 -91t51 -60t69.5 -33t76.5 -10h164zM648 -514l-124 125l122 124l126 -125zM240 -512l-124 125l122 124
l126 -125z" />
    <glyph glyph-name="uni06CC.fina" unicode="&#x6cc;" horiz-adv-x="1777" arabic-form="final" 
d="M384 574q-61 -126 -95.5 -243t-42.5 -221q-3 -33 -3 -65q0 -68 15.5 -142.5t60.5 -146.5q56 -89 146.5 -137t202.5 -48h249q48 0 102.5 4t109 14.5t105 27.5t89 42t61.5 59.5t23 80.5q0 31 -7 56.5t-26 46t-53 36.5t-87 28t-128.5 20.5t-177.5 13.5l3 123h864v-123h-346
q42 -41 61 -89t19 -112q0 -67 -25 -119.5t-69 -91.5t-103 -65.5t-127 -43t-141.5 -24t-146.5 -7.5h-249q-144 0 -262 63t-191 179q-69 112 -87 231q-11 65 -11 129q0 55 12 142.5t53 205.5t92 229z" />
    <glyph glyph-name="uni06D3" unicode="&#x6d3;" horiz-adv-x="1651" arabic-form="isolated" 
d="M892 0h-438q-50 0 -93.5 -16.5t-75.5 -45.5t-50.5 -68.5t-18.5 -85.5q0 -47 18 -86t50 -67.5t75.5 -44t94.5 -15.5h1181v-123h-1192q-67 0 -129.5 24t-111 69.5t-77 108t-28.5 134.5q0 69 26 131t76 110q51 48 116 73t139 25h438v-123zM175 327q2 29 3 52t3 52l157 50
q-26 7 -47.5 24t-36.5 39t-23 48t-8 52q0 31 11 62.5t31 59.5t49 49.5t65 32.5q30 9 57 9q2 0 17.5 -0.5t41.5 -7t49.5 -16t45.5 -18.5l-21 -82q-17 6 -36.5 13.5t-40 12.5t-42 5.5t-43.5 -5.5q-21 -6 -39.5 -20.5t-31.5 -34t-17 -41.5q-2 -10 -2 -20q0 -12 3 -23
q10 -32 54.5 -54.5t104.5 -22.5q45 0 96 13.5t98 27.5l28 -88z" />
    <glyph glyph-name="uni06D3.fina" unicode="&#x6d3;" horiz-adv-x="1314" arabic-form="final" 
d="M1329 0h-875q-50 0 -93.5 -16.5t-75.5 -45.5t-50.5 -68.5t-18.5 -85.5q0 -47 18 -86t50 -67.5t75.5 -44t94.5 -15.5h834v-123h-834q-77 0 -142 25.5t-113 70.5t-75 106.5t-27 133.5q0 73 28 135.5t76 107.5t113 70.5t140 25.5h875v-123zM177 299q2 29 3 52t3 52l157 50
q-26 7 -47.5 24t-36.5 39t-23 48t-8 52q0 31 11 62.5t31 59.5t49 49.5t65 32.5q30 9 57 9q2 0 17.5 -0.5t41.5 -7t49.5 -16t45.5 -18.5l-21 -82q-17 6 -36.5 13.5t-40 12.5t-42 5.5t-43.5 -5.5q-21 -6 -39.5 -20.5t-31.5 -34t-17 -41.5q-2 -10 -2 -20q0 -12 3 -23
q10 -32 54.5 -54.5t104.5 -22.5q45 0 96 13.5t98 27.5l28 -88z" />
    <glyph glyph-name="uni0626" unicode="&#x626;" horiz-adv-x="1671" arabic-form="isolated" 
d="M1356 871q49 0 98.5 -7t100.5 -22l-34 -118q-84 24 -164 24q-97 0 -182.5 -33t-151.5 -98q-78 -76 -109 -179q-20 -63 -20 -129q0 -41 8 -83q16 -5 51.5 -14.5t81.5 -21.5t97.5 -26t100 -27t88.5 -24t64 -17q40 -11 63.5 -26t34.5 -33t14 -39t3 -44q0 -34 -5 -78
t-16.5 -90.5t-31 -91t-48.5 -79.5q-40 -49 -87.5 -81t-102 -51t-115 -26.5t-127.5 -7.5h-255q-67 0 -132 16t-125 48.5t-110.5 79t-88.5 106.5q-55 88 -77 188q-19 82 -19 168q0 19 1 38q9 247 148 535l111 -53q-60 -124 -93.5 -239.5t-40.5 -218.5q-2 -31 -2 -60
q0 -69 15.5 -145t60.5 -148q58 -92 151.5 -142t208.5 -50h247q123 0 202 29t130 85q25 27 41.5 62.5t26 74t12.5 77.5q1 15 1 30q0 21 -2 41l-579 156l-9 34q-19 71 -19 143v42t19 109t56 133.5t91 116.5q41 40 89.5 71.5t102.5 52.5t112 32q52 10 105 10h10zM102 762
q2 29 3 52t3 52l157 50q-26 7 -47.5 24t-36.5 39t-23 48t-8 52q0 31 11 62.5t31 59.5t49 49.5t65 32.5q30 9 57 9q2 0 17.5 -0.5t41.5 -7t49.5 -16t45.5 -18.5l-21 -82q-17 6 -36.5 13.5t-40 12.5t-42 5.5t-43.5 -5.5q-21 -6 -39.5 -20.5t-31.5 -34t-17 -41.5q-2 -10 -2 -20
q0 -12 3 -23q10 -32 54.5 -54.5t104.5 -22.5q45 0 96 13.5t98 27.5l28 -88z" />
    <glyph glyph-name="uni0626.init" unicode="&#x626;" horiz-adv-x="877" arabic-form="initial" 
d="M648 804q10 -43 22 -95t21.5 -107.5t16.5 -112.5t9 -109v-6q0 -68 -21 -135t-62 -120.5t-100.5 -86t-133.5 -32.5h-415v123h415q48 3 84.5 25t61 57.5t37.5 80.5q11 41 11 84v7q-1 48 -7.5 100t-16 103t-20.5 99t-21 89zM123 866q2 29 3 52t3 52l157 50q-26 7 -47.5 24
t-36.5 39t-23 48t-8 52q0 31 11 62.5t31 59.5t49 49.5t65 32.5q30 9 57 9q2 0 17.5 -0.5t41.5 -7t49.5 -16t45.5 -18.5l-21 -82q-17 6 -36.5 13.5t-40 12.5t-42 5.5t-43.5 -5.5q-21 -6 -39.5 -20.5t-31.5 -34t-17 -41.5q-2 -10 -2 -20q0 -12 3 -23q10 -32 54.5 -54.5
t104.5 -22.5q45 0 96 13.5t98 27.5l28 -88z" />
    <glyph glyph-name="uni0626.medi" unicode="&#x626;" horiz-adv-x="1046" arabic-form="medial" 
d="M1066 123v-123h-164q-67 0 -127 20t-105 57q-27 22 -45 46q-51 -64 -128 -93t-187 -30h-330v123h330q59 2 105 11t78 31t49.5 58.5t19.5 93.5v359h123v-359q0 -54 20 -91t51 -60t69.5 -33t76.5 -10h164zM186 809q2 29 3 52t3 52l157 50q-26 7 -47.5 24t-36.5 39t-23 48
t-8 52q0 31 11 62.5t31 59.5t49 49.5t65 32.5q30 9 57 9q2 0 17.5 -0.5t41.5 -7t49.5 -16t45.5 -18.5l-21 -82q-17 6 -36.5 13.5t-40 12.5t-42 5.5t-43.5 -5.5q-21 -6 -39.5 -20.5t-31.5 -34t-17 -41.5q-2 -10 -2 -20q0 -12 3 -23q10 -32 54.5 -54.5t104.5 -22.5
q45 0 96 13.5t98 27.5l28 -88z" />
    <glyph glyph-name="uni0626.fina" unicode="&#x626;" horiz-adv-x="1777" arabic-form="final" 
d="M384 574q-61 -126 -95.5 -243t-42.5 -221q-3 -33 -3 -65q0 -68 15.5 -142.5t60.5 -146.5q56 -89 146.5 -137t202.5 -48h249q48 0 102.5 4t109 14.5t105 27.5t89 42t61.5 59.5t23 80.5q0 31 -7 56.5t-26 46t-53 36.5t-87 28t-128.5 20.5t-177.5 13.5l3 123h864v-123h-346
q42 -41 61 -89t19 -112q0 -67 -25 -119.5t-69 -91.5t-103 -65.5t-127 -43t-141.5 -24t-146.5 -7.5h-249q-144 0 -262 63t-191 179q-69 112 -87 231q-11 65 -11 129q0 55 12 142.5t53 205.5t92 229zM681 324q2 29 3 52t3 52l157 50q-26 7 -47.5 24t-36.5 39t-23 48t-8 52
q0 31 11 62.5t31 59.5t49 49.5t65 32.5q30 9 57 9q2 0 17.5 -0.5t41.5 -7t49.5 -16t45.5 -18.5l-21 -82q-17 6 -36.5 13.5t-40 12.5t-42 5.5t-43.5 -5.5q-21 -6 -39.5 -20.5t-31.5 -34t-17 -41.5q-2 -10 -2 -20q0 -12 3 -23q10 -32 54.5 -54.5t104.5 -22.5q45 0 96 13.5
t98 27.5l28 -88z" />
    <glyph glyph-name="uni06C2.fina" unicode="&#x6c2;" horiz-adv-x="1287" 
d="M735 1057l59 -252q13 -56 25 -106.5t23.5 -98.5t23.5 -94.5t24 -94.5q21 -80 60.5 -134.5t89 -89t103 -49.5t102.5 -15h58v-123h-58q-77 0 -150 23.5t-134 68.5q-70 51 -118.5 124t-71.5 164q-13 48 -24.5 95.5t-23 95.5t-23.5 99t-25 107l-46 194q-20 -4 -44 -9
t-47 -9.5t-42.5 -8.5t-31.5 -7q-60 -14 -101 -41.5t-66 -72.5q-26 -45 -35 -103q-7 -43 -7 -90q0 -16 2 -56t14 -107.5t28.5 -132t34.5 -123.5t33 -106l-117 -38q-30 93 -59 196t-46 209q-13 84 -13 156q0 154 58 255q75 133 246 174q20 5 57.5 12.5t74.5 14.5t65 12.5
t31 6.5zM142 1151q2 29 3 52t3 52l157 50q-26 7 -47.5 24t-36.5 39t-23 48t-8 52q0 31 11 62.5t31 59.5t49 49.5t65 32.5q30 9 57 9q2 0 17.5 -0.5t41.5 -7t49.5 -16t45.5 -18.5l-21 -82q-17 6 -36.5 13.5t-40 12.5t-42 5.5t-43.5 -5.5q-21 -6 -39.5 -20.5t-31.5 -34
t-17 -41.5q-2 -10 -2 -20q0 -12 3 -23q10 -32 54.5 -54.5t104.5 -22.5q45 0 96 13.5t98 27.5l28 -88z" />
    <glyph glyph-name="uni06C1" unicode="&#x6c1;" horiz-adv-x="1042" arabic-form="isolated" 
d="M523 0q-85 0 -159.5 27.5t-130 75.5t-88 112.5t-32.5 137.5q0 70 19 129t47.5 108.5t61.5 90t60 73.5q15 18 33 38t36 39.5t35.5 37t31.5 32.5l-78 87l90 82q1 0 24.5 -25.5t60 -65.5t80.5 -89t85 -97q50 -57 93 -111t74.5 -107t49.5 -106.5t18 -111.5
q0 -75 -32.5 -141.5t-94.5 -117.5q-57 -48 -130 -73t-154 -25zM520 810q-14 -14 -30 -30.5t-32.5 -34t-32 -35t-28.5 -33.5q-24 -29 -52.5 -63.5t-52.5 -75t-40 -87t-16 -98.5q0 -45 21 -86.5t60 -73.5q42 -34 95.5 -52t110.5 -18q60 0 112.5 18.5t91.5 50t61.5 74.5
t22.5 91q0 38 -13 76.5t-38.5 81t-64 91t-89.5 107.5z" />
    <glyph glyph-name="uni06C3.fina" unicode="&#x6c3;" horiz-adv-x="1287" 
d="M735 1057l59 -252q13 -56 25 -106.5t23.5 -98.5t23.5 -94.5t24 -94.5q21 -80 60.5 -134.5t89 -89t103 -49.5t102.5 -15h58v-123h-58q-77 0 -150 23.5t-134 68.5q-70 51 -118.5 124t-71.5 164q-13 48 -24.5 95.5t-23 95.5t-23.5 99t-25 107l-46 194q-20 -4 -44 -9
t-47 -9.5t-42.5 -8.5t-31.5 -7q-60 -14 -101 -41.5t-66 -72.5q-26 -45 -35 -103q-7 -43 -7 -90q0 -16 2 -56t14 -107.5t28.5 -132t34.5 -123.5t33 -106l-117 -38q-30 93 -59 196t-46 209q-13 84 -13 156q0 154 58 255q75 133 246 174q20 5 57.5 12.5t74.5 14.5t65 12.5
t31 6.5zM678 1251l-124 125q34 35 61.5 62.5t60.5 61.5l126 -125zM272 1253l-124 125q34 35 61.5 62.5t60.5 61.5l126 -125z" />
    <glyph glyph-name="uni06BE.fina" unicode="&#x6be;" horiz-adv-x="1744" arabic-form="final" 
d="M907 1030q80 -85 149 -158t126 -137.5t101.5 -121t76.5 -107.5q31 -50 50.5 -97t26.5 -94q3 -22 3 -44q0 -25 -6 -61.5t-30 -86.5h367v-123h-475q-51 -33 -112 -50t-124 -17q-53 0 -103.5 10.5t-99.5 28t-97 40t-96 46.5q-95 -29 -217 -50.5t-264 -21.5l48 123
q89 0 159 6.5t134 24.5q-16 10 -39.5 23.5t-36.5 24.5q-77 60 -117 135.5t-40 172.5q0 82 28.5 150t79.5 116t121 74.5t153 26.5q75 0 140 -32t112.5 -85.5t75 -122.5t27.5 -142q0 -119 -55 -208.5t-158 -149.5q54 -29 117 -48t129 -19q43 0 79.5 9t65.5 24t49.5 34.5
t31.5 40.5q18 33 25 65q4 20 4 40q0 12 -2.5 34.5t-17 59t-41.5 78.5q-59 94 -170.5 223t-266.5 281zM673 191q46 17 88.5 43.5t74 62.5t50.5 82t19 102q0 58 -20.5 106t-53.5 82t-74.5 52.5t-83.5 18.5q-72 0 -121 -21.5t-80 -56t-44.5 -78.5t-13.5 -88q0 -65 26.5 -115.5
t83.5 -96.5q31 -25 68.5 -47.5t80.5 -45.5z" />
    <glyph glyph-name="uni06BE.init" unicode="&#x6be;" horiz-adv-x="1496" arabic-form="initial" 
d="M627 191q46 17 88.5 43.5t74 62.5t50.5 82t19 102q0 58 -20.5 106t-53.5 82t-74.5 52.5t-83.5 18.5q-72 0 -121 -21.5t-80 -56t-44.5 -78.5t-13.5 -88q0 -65 26.5 -115.5t83.5 -96.5q31 -25 68.5 -47.5t80.5 -45.5zM861 1030q80 -85 149 -158t126 -137.5t101.5 -121
t76.5 -107.5q32 -52 52 -101t26 -97q2 -18 2 -37q0 -30 -8 -70.5t-36 -93.5q-22 -42 -58 -74.5t-80.5 -54.5t-95.5 -33.5t-102 -11.5q-53 0 -103.5 10.5t-99.5 28t-97 40t-96 46.5q-95 -29 -212.5 -43.5t-259.5 -14.5h-166v123h166q178 0 313 24q-16 10 -30 20t-27 21
q-77 60 -117 135.5t-40 172.5q0 82 28.5 150t79.5 116t121 74.5t153 26.5q75 0 140 -32t112.5 -85.5t75 -122.5t27.5 -142q0 -119 -55 -208.5t-158 -149.5q54 -29 117 -48t129 -19q43 0 79.5 9t65.5 24t49.5 34.5t31.5 40.5q18 33 25 65q4 20 4 40q0 12 -2.5 34.5t-17 59
t-41.5 78.5q-59 94 -170 216.5t-267 287.5z" />
    <glyph glyph-name="uni06BE.medi" unicode="&#x6be;" horiz-adv-x="1261" arabic-form="medial" 
d="M1281 123v-123h-196q-38 0 -71.5 -8t-61.5 -22.5t-49 -35.5t-32 -46q-14 -30 -14 -66t21.5 -98t104.5 -156l-38 -102q-21 -2 -41.5 -3.5t-40.5 -1.5q-94 0 -187 29q-60 20 -114.5 49.5t-104.5 71.5q-47 39 -86.5 86t-70.5 98t-52.5 105.5t-31.5 108.5q-63 -5 -124 -7
t-112 -2v123q49 0 107.5 2t118.5 7v31q0 154 27 281q41 183 135 288q101 113 249 121q14 1 28 1q140 0 230 -85q37 -35 58.5 -75.5t32 -78t13.5 -67.5t3 -45q0 -164 -120 -279q-48 -46 -115 -83t-154 -64q-60 -20 -124 -33t-130 -22q18 -86 70 -169.5t127 -146.5
q23 -20 52.5 -39.5t64 -36t75 -28.5t86.5 -16q-47 74 -66 143q-14 49 -14 94q0 61 25 116q40 89 133 138q87 46 193 46h196zM459 650q-33 -36 -58 -88t-41.5 -116.5t-24.5 -139.5q-6 -61 -6 -127v-34q59 8 116 20t111 29q154 49 228.5 125t74.5 184q0 19 -3.5 42.5t-12 47.5
t-21.5 46.5t-32 40.5q-26 26 -64 38.5t-93 12.5q-57 0 -98.5 -21.5t-75.5 -59.5z" />
    <glyph glyph-name="fathatan_01" unicode="&#xfe70;" arabic-form="isolated" 
d="M-251 1688l502 186v-91l-502 -187v92zM-251 1920l502 186v-91l-502 -187v92z" />
    <glyph glyph-name="dammatan_01" unicode="&#xfe72;" arabic-form="isolated" 
d="M59 2081q-26 0 -57.5 -16.5t-45.5 -43.5q-1 -2 -2 -12v-4q0 -9 4.5 -23t18 -31.5t42.5 -32.5q5 -3 11.5 -6.5t16.5 -8t24.5 -11.5t37.5 -17q17 34 22 77q1 12 1 23q0 30 -9 57q-8 20 -24.5 34.5t-39.5 14.5zM-254 1658q7 11 16 29t14.5 38t5 40.5t-12.5 36.5
q-11 15 -30 19q-10 2 -20 2t-25.5 -2.5t-32.5 -10.5t-23 -15l-52 57q3 4 15 14t32 20t47 18q23 6 49 6h7q43 -2 69.5 -23t39 -52.5t12.5 -69.5t-10 -73q52 17 108 44.5t103 69.5q-23 11 -41.5 19t-34.5 16q-37 18 -61 42.5t-36 52.5q-11 26 -11 53q0 3 0.5 18.5t12.5 43.5
q15 30 40.5 55.5t57 40.5t66.5 18h8q30 0 58 -13q55 -27 78 -72q21 -43 21 -92q0 -3 -1 -30.5t-21.5 -81t-51.5 -96.5q-33 -43 -84 -76t-102.5 -56.5t-96 -37.5t-64.5 -20z" />
    <glyph glyph-name="kasratan_01" unicode="&#xfe74;" arabic-form="isolated" 
d="M-251 -693l502 186v-91l-502 -187v92zM-251 -461l502 186v-91l-502 -187v92z" />
    <glyph glyph-name="fatha_01" unicode="&#xfe76;" arabic-form="isolated" 
d="M-251 1688l502 186v-91l-502 -187v92z" />
    <glyph glyph-name="damma_01" unicode="&#xfe78;" arabic-form="isolated" 
d="M16 2036q-26 0 -57.5 -16.5t-45.5 -43.5q-1 -2 -2 -12v-4q0 -9 4.5 -23t18 -31.5t42.5 -32.5q5 -3 11.5 -6.5t16.5 -8t24.5 -11.5t37.5 -17q17 34 22 77q1 12 1 23q0 30 -9 57q-8 20 -24.5 34.5t-39.5 14.5zM-286 1622l14 4q26 8 62.5 19t75.5 27.5t78 38t71 50.5
q-23 11 -41.5 19t-34.5 16q-37 18 -61 42.5t-36 52.5q-11 26 -11 53q0 3 0.5 18.5t12.5 43.5q15 30 40.5 55.5t57 40.5t66.5 18h8q30 0 58 -13q55 -27 78 -72q21 -43 21 -92q0 -3 -1 -30.5t-21.5 -81t-51.5 -96.5q-22 -29 -53.5 -53t-67 -44.5t-72 -36.5t-68.5 -28t-58 -20
l-39 -12q-1 0 -1.5 -0.5t-1.5 -0.5z" />
    <glyph glyph-name="kasra_01" unicode="&#xfe7a;" arabic-form="isolated" 
d="M-251 -462l502 186v-91l-502 -187v92z" />
    <glyph glyph-name="shadda_01" unicode="&#xfe7c;" arabic-form="isolated" 
d="M-130 1696q-85 0 -132.5 46.5t-47.5 130.5l-1 112h81l1 -112q0 -51 23 -74t76 -23q7 0 21.5 3t28.5 12.5t24.5 29t10.5 52.5l-1 112h83v-112q0 -51 23 -74.5t77 -23.5q8 0 21.5 3.5t27 14t23.5 29.5t10 51q0 15 -3.5 36.5t-8 43.5t-9.5 41.5t-8 30.5q19 6 38 13t37 13
q3 -8 8.5 -29t11.5 -47t10.5 -53.5t4.5 -48.5q0 -46 -14.5 -79.5t-38 -55.5t-53 -32.5t-59.5 -10.5q-45 0 -80.5 14.5t-59.5 40.5q-26 -28 -59 -41t-66 -13z" />
    <glyph glyph-name="sukun_01" unicode="&#xfe7e;" arabic-form="isolated" 
d="M-144 1886q0 -30 11.5 -56t31 -45.5t45.5 -31t56 -11.5t56 11.5t45.5 31t31 45.5t11.5 56t-11.5 56t-31 45.5t-45.5 31t-56 11.5t-56 -11.5t-45.5 -31t-31 -45.5t-11.5 -56zM-225 1885q0 47 17.5 88t48 72t71.5 48.5t87 17.5q47 0 88 -17.5t72 -48.5t48.5 -72t17.5 -88
q0 -46 -17.5 -87t-48.5 -71.5t-72 -48t-88 -17.5q-46 0 -87 17.5t-71.5 48t-48 71.5t-17.5 87z" />
    <glyph glyph-name="uni0651064C" unicode="&#xfc5e;" arabic-form="isolated" 
d="M-130 1696q-85 0 -132.5 46.5t-47.5 130.5l-1 112h81l1 -112q0 -51 23 -74t76 -23q7 0 21.5 3t28.5 12.5t24.5 29t10.5 52.5l-1 112h83v-112q0 -51 23 -74.5t77 -23.5q8 0 21.5 3.5t27 14t23.5 29.5t10 51q0 15 -3.5 36.5t-8 43.5t-9.5 41.5t-8 30.5q19 6 38 13t37 13
q3 -8 8.5 -29t11.5 -47t10.5 -53.5t4.5 -48.5q0 -46 -14.5 -79.5t-38 -55.5t-53 -32.5t-59.5 -10.5q-45 0 -80.5 14.5t-59.5 40.5q-26 -28 -59 -41t-66 -13zM59 2620q-26 0 -57.5 -16.5t-45.5 -43.5q-1 -2 -2 -12v-4q0 -9 4.5 -23t18 -31.5t42.5 -32.5q5 -3 11.5 -6.5
t16.5 -8t24.5 -11.5t37.5 -17q17 34 22 77q1 12 1 23q0 30 -9 57q-8 20 -24.5 34.5t-39.5 14.5zM-254 2197q7 11 16 29t14.5 38t5 40.5t-12.5 36.5q-11 15 -30 19q-10 2 -20 2t-25.5 -2.5t-32.5 -10.5t-23 -15l-52 57q3 4 15 14t32 20t47 18q23 6 49 6h7q43 -2 69.5 -23
t39 -52.5t12.5 -69.5t-10 -73q52 17 108 44.5t103 69.5q-23 11 -41.5 19t-34.5 16q-37 18 -61 42.5t-36 52.5q-11 26 -11 53q0 3 0.5 18.5t12.5 43.5q15 30 40.5 55.5t57 40.5t66.5 18h8q30 0 58 -13q55 -27 78 -72q21 -43 21 -92q0 -3 -1 -30.5t-21.5 -81t-51.5 -96.5
q-33 -43 -84 -76t-102.5 -56.5t-96 -37.5t-64.5 -20z" />
    <glyph glyph-name="uni0651064D" unicode="&#xfc5f;" arabic-form="isolated" 
d="M1 1758q-85 0 -132.5 46.5t-47.5 130.5l-1 112h81l1 -112q0 -51 23 -74t76 -23q7 0 21.5 3t28.5 12.5t24.5 29t10.5 52.5l-1 112h83v-112q0 -51 23 -74.5t77 -23.5q8 0 21.5 3.5t27 14t23.5 29.5t10 51q0 15 -3.5 36.5t-8 43.5t-9.5 41.5t-8 30.5q19 6 38 13t37 13
q3 -8 8.5 -29t11.5 -47t10.5 -53.5t4.5 -48.5q0 -46 -14.5 -79.5t-38 -55.5t-53 -32.5t-59.5 -10.5q-45 0 -80.5 14.5t-59.5 40.5q-26 -28 -59 -41t-66 -13zM-100 1253l502 186v-91l-502 -187v92zM-100 1485l502 186v-91l-502 -187v92z" />
    <glyph glyph-name="uni0651064E" unicode="&#xfc60;" arabic-form="isolated" 
d="M-130 1696q-85 0 -132.5 46.5t-47.5 130.5l-1 112h81l1 -112q0 -51 23 -74t76 -23q7 0 21.5 3t28.5 12.5t24.5 29t10.5 52.5l-1 112h83v-112q0 -51 23 -74.5t77 -23.5q8 0 21.5 3.5t27 14t23.5 29.5t10 51q0 15 -3.5 36.5t-8 43.5t-9.5 41.5t-8 30.5q19 6 38 13t37 13
q3 -8 8.5 -29t11.5 -47t10.5 -53.5t4.5 -48.5q0 -46 -14.5 -79.5t-38 -55.5t-53 -32.5t-59.5 -10.5q-45 0 -80.5 14.5t-59.5 40.5q-26 -28 -59 -41t-66 -13zM-273 2200l502 186v-91l-502 -187v92z" />
    <glyph glyph-name="uni0651064F" unicode="&#xfc61;" arabic-form="isolated" 
d="M-130 1696q-85 0 -132.5 46.5t-47.5 130.5l-1 112h81l1 -112q0 -51 23 -74t76 -23q7 0 21.5 3t28.5 12.5t24.5 29t10.5 52.5l-1 112h83v-112q0 -51 23 -74.5t77 -23.5q8 0 21.5 3.5t27 14t23.5 29.5t10 51q0 15 -3.5 36.5t-8 43.5t-9.5 41.5t-8 30.5q19 6 38 13t37 13
q3 -8 8.5 -29t11.5 -47t10.5 -53.5t4.5 -48.5q0 -46 -14.5 -79.5t-38 -55.5t-53 -32.5t-59.5 -10.5q-45 0 -80.5 14.5t-59.5 40.5q-26 -28 -59 -41t-66 -13zM16 2583q-26 0 -57.5 -16.5t-45.5 -43.5q-1 -2 -2 -12v-4q0 -9 4.5 -23t18 -31.5t42.5 -32.5q5 -3 11.5 -6.5
t16.5 -8t24.5 -11.5t37.5 -17q17 34 22 77q1 12 1 23q0 30 -9 57q-8 20 -24.5 34.5t-39.5 14.5zM-286 2169l14 4q26 8 62.5 19t75.5 27.5t78 38t71 50.5q-23 11 -41.5 19t-34.5 16q-37 18 -61 42.5t-36 52.5q-11 26 -11 53q0 3 0.5 18.5t12.5 43.5q15 30 40.5 55.5t57 40.5
t66.5 18h8q30 0 58 -13q55 -27 78 -72q21 -43 21 -92q0 -3 -1 -30.5t-21.5 -81t-51.5 -96.5q-22 -29 -53.5 -53t-67 -44.5t-72 -36.5t-68.5 -28t-58 -20l-39 -12q-1 0 -1.5 -0.5t-1.5 -0.5z" />
    <glyph glyph-name="uni06510650" unicode="&#xfc62;" arabic-form="isolated" 
d="M-16 1719q-85 0 -132.5 46.5t-47.5 130.5l-1 112h81l1 -112q0 -51 23 -74t76 -23q7 0 21.5 3t28.5 12.5t24.5 29t10.5 52.5l-1 112h83v-112q0 -51 23 -74.5t77 -23.5q8 0 21.5 3.5t27 14t23.5 29.5t10 51q0 15 -3.5 36.5t-8 43.5t-9.5 41.5t-8 30.5q19 6 38 13t37 13
q3 -8 8.5 -29t11.5 -47t10.5 -53.5t4.5 -48.5q0 -46 -14.5 -79.5t-38 -55.5t-53 -32.5t-59.5 -10.5q-45 0 -80.5 14.5t-59.5 40.5q-26 -28 -59 -41t-66 -13zM-121 1441l502 186v-91l-502 -187v92z" />
    <glyph glyph-name="uniFC63" unicode="&#xfc63;" arabic-form="isolated" 
d="M-130 1696q-85 0 -132.5 46.5t-47.5 130.5l-1 112h81l1 -112q0 -51 23 -74t76 -23q7 0 21.5 3t28.5 12.5t24.5 29t10.5 52.5l-1 112h83v-112q0 -51 23 -74.5t77 -23.5q8 0 21.5 3.5t27 14t23.5 29.5t10 51q0 15 -3.5 36.5t-8 43.5t-9.5 41.5t-8 30.5q19 6 38 13t37 13
q3 -8 8.5 -29t11.5 -47t10.5 -53.5t4.5 -48.5q0 -46 -14.5 -79.5t-38 -55.5t-53 -32.5t-59.5 -10.5q-45 0 -80.5 14.5t-59.5 40.5q-26 -28 -59 -41t-66 -13zM-49 2589h96v-415h-96v415z" />
    <glyph glyph-name="uni0692.fina" unicode="&#x692;" horiz-adv-x="955" 
d="M970 0h-46q-62 0 -117.5 17t-100.5 49v-33q0 -290 -143.5 -438t-423.5 -148h-139v122h139q235 0 344 123q100 114 100 341v642h123v-358q0 -54 20 -91t51.5 -60t70 -33t76.5 -10h46v-123zM919 1281l-226 -408h-103l-227 408h113l164 -329l168 329h111z" />
    <glyph glyph-name="uni0695.fina" unicode="&#x695;" horiz-adv-x="955" 
d="M970 0h-46q-62 0 -117.5 17t-100.5 49v-33q0 -290 -143.5 -438t-423.5 -148h-139v122h139q235 0 344 123q100 114 100 341v642h123v-358q0 -54 20 -91t51.5 -60t70 -33t76.5 -10h46v-123zM649 -679l-226 -408h-103l-227 408h113l164 -329l168 329h111z" />
    <glyph glyph-name="uni06A4.init" unicode="&#x6a8;" horiz-adv-x="1036" 
d="M575 473q31 0 62.5 2t60.5 5.5t55 7.5t45 7q-1 44 -5 95.5t-14 104t-28.5 101t-48.5 86.5t-73.5 60.5t-103.5 22.5q-63 0 -109.5 -23t-76.5 -60t-44.5 -85t-14.5 -97q0 -68 22.5 -111.5t62.5 -69t94 -36t116 -10.5zM525 1088q84 -1 146.5 -29t106.5 -75.5t72 -110.5
t43.5 -134t21.5 -146.5t6 -146.5q0 -131 -39.5 -217t-112 -137t-174.5 -71.5t-227 -20.5h-387v123h387q88 5 161 12.5t127.5 31.5t89.5 71t47 132q-42 -7 -100 -13.5t-118 -6.5q-94 0 -171 20.5t-132 63.5t-85 109t-30 157q0 79 26.5 150.5t74.5 125t116 84.5q64 28 141 28
h10zM436 1417l-124 -125l-124 123l125 126zM839 1420l-124 -124l-126 124l125 125zM641 1692l-124 -124l-126 124l125 125z" />
    <glyph glyph-name="uni06A4.medi" unicode="&#x6a8;" horiz-adv-x="1084" 
d="M567 200q21 8 40.5 17t37.5 20q30 17 61 40.5t56.5 53.5t41.5 68t16 83q0 48 -17 95t-49 84t-77.5 60t-103.5 23q-61 0 -110 -18.5t-84 -53t-54 -82.5t-19 -108q0 -48 18.5 -87t48 -71t65 -56t70.5 -42q14 -7 28.5 -13.5t30.5 -12.5zM582 867q73 0 139 -30.5t115.5 -84.5
t78 -124.5t28.5 -145.5q0 -98 -52.5 -183t-152.5 -150q130 -26 270 -26h99v-123h-99q-120 0 -232 17.5t-209 51.5q-99 -34 -216.5 -51.5t-252.5 -17.5h-123v123h123q160 0 296 26q-45 28 -84 64t-67 78t-44 90t-16 101q0 84 29 155.5t80.5 123t123.5 80.5q66 26 146 26h20z
M474 1194l-124 -125l-124 123l125 126zM877 1197l-124 -124l-126 124l125 125zM679 1469l-124 -124l-126 124l125 125z" />
    <glyph glyph-name="uni06A8.fina" unicode="&#x6a8;" horiz-adv-x="1652" 
d="M1068 856q181 0 279 -116q108 -127 108 -400v-217h224v-123h-224v-50q0 -227 -105 -348q-33 -38 -75.5 -66.5t-94.5 -47.5q-107 -40 -260 -40h-235q-144 0 -262 63.5t-192 180.5q-51 81 -75 182q-20 84 -20 177q0 19 1 39q5 124 43.5 252t108.5 274l111 -53
q-60 -125 -94.5 -239.5t-42.5 -216.5q-2 -31 -2 -61q0 -68 14.5 -143t59.5 -146q57 -89 147.5 -137.5t202.5 -48.5h235q241 0 337 111q75 87 75 267v51h-258q-75 0 -146.5 20t-127 66t-89 120t-33.5 181q0 88 21 172t67.5 150t120.5 106.5t181 40.5zM1332 123v217
q0 113 -19.5 193.5t-59.5 127.5q-32 37 -76.5 54.5t-108.5 17.5q-63 0 -112.5 -23.5t-84 -68t-52.5 -109t-18 -145.5q0 -67 19.5 -112.5t49 -75t64 -45t65 -22.5t51.5 -8t24 -1h258zM1006 1176l-124 -125l-124 123l125 126zM1409 1179l-124 -124l-126 124l125 125z
M1211 1451l-124 -124l-126 124l125 125z" />
    <glyph glyph-name="uni06AA.init" unicode="&#x6aa;" horiz-adv-x="1702" 
d="M1036 1200q-1 0 -37 -11t-94 -32.5t-132 -53.5t-150 -74q-88 -49 -156.5 -100.5t-117.5 -105.5q-89 -96 -110 -200q34 0 95 -0.5t158 -0.5h235.5h328.5q107 0 204 -34.5t174 -99.5q35 -30 63 -66t47 -74t29 -76.5t10 -73.5q0 -43 -16 -79.5t-47 -62.5q-62 -54 -171 -54
l-1370 -2l2 123l1368 2q64 0 91 24q20 16 20 49q0 21 -7.5 46.5t-21 51.5t-33 51.5t-43.5 46.5q-60 51 -137 78t-162 27h-349h-243t-156 0.5t-88.5 0.5h-39.5h-10l-60 62q0 91 37 177t112 167q112 123 307 231q81 45 158 78.5t138 56t99.5 34t41.5 12.5z" />
    <glyph glyph-name="uni06AA.medi" unicode="&#x6aa;" horiz-adv-x="1953" 
d="M1975 123v-123h-58q-45 0 -82.5 5.5t-70.5 16.5t-62.5 28.5t-59.5 41.5q-11 -32 -38 -55q-44 -36 -119 -36h-126l-1388 -1l2 124h1512q17 0 27 2.5t13 5.5q2 1 2.5 4.5t0.5 5.5q0 13 -5.5 32t-15 40.5t-24 44t-32.5 43.5l-21 22q-33 34 -73.5 65.5t-87.5 55.5t-98 38.5
t-105 14.5h-349t-243 0.5t-156 0.5t-88.5 0.5t-39.5 0.5h-10l-60 61q0 182 148 345q113 122 308 231q81 44 158 77.5t138 56t99.5 34.5t41.5 13l33 -119q-1 0 -37 -11t-94 -32.5t-132 -53.5t-150 -74q-88 -49 -156.5 -100.5t-117.5 -105.5q-89 -96 -110 -200q34 0 95 -0.5
t158 -0.5h235.5h328.5q109 0 219 -48q97 -43 183 -116l77 -76l9 -10q63 -69 107 -116t82.5 -76.5t78 -42.5t95.5 -13h58z" />
    <glyph glyph-name="uni06AA.fina" unicode="&#x6aa;" horiz-adv-x="2511" 
d="M1920 124h126q17 0 27 2.5t13 5.5q2 1 2.5 4.5t0.5 5.5q0 13 -5.5 32t-15 40.5t-24 44t-32.5 43.5l-21 22q-33 34 -73.5 65.5t-87.5 55.5t-98 38.5t-105 14.5h-349t-243 0.5t-156 0.5t-88.5 0.5t-39.5 0.5h-10l-60 61q0 182 148 345q113 122 308 231q81 44 158 77.5
t138 56t99.5 34.5t41.5 13l33 -119q-1 0 -37 -11t-94 -32.5t-132 -53.5t-150 -74q-88 -49 -156.5 -100.5t-117.5 -105.5q-89 -96 -110 -200q34 0 95 -0.5t158 -0.5h235.5h328.5q109 0 219 -48q97 -43 183 -116l77 -76l9 -10q63 -69 107 -116t82.5 -76.5t78 -42.5t95.5 -13
h58v-123h-58q-45 0 -82.5 5.5t-70.5 16.5t-62.5 28.5t-59.5 41.5q-11 -32 -38 -55q-44 -36 -119 -36h-126l-498 -2v1h-967q-64 0 -121.5 21.5t-101.5 63.5q-18 16 -36 39.5t-32.5 55.5t-24 73t-9.5 92q0 33 5 71.5t12.5 77t16.5 75t16.5 65t13 47t6.5 20.5l117 -37l-4 -16
q-5 -17 -12.5 -43t-15.5 -59.5t-15.5 -68.5t-12 -69.5t-4.5 -62.5q0 -62 18 -104t46.5 -68.5t64.5 -38t73 -11.5h967z" />
    <glyph glyph-name="uni06B5.init" unicode="&#x6b5;" horiz-adv-x="573" 
d="M440 362q0 -162 -93 -252q-113 -110 -362 -110v123q110 0 175.5 20.5t100.5 54.5t45.5 77t10.5 87l1 1065h123zM629 2022l-226 -408h-103l-227 408h113l164 -329l168 329h111z" />
    <glyph glyph-name="uni06B5.medi" unicode="&#x6b5;" horiz-adv-x="651" 
d="M666 123v-123h-22q-85 0 -156 37t-116 106q-28 -39 -65.5 -66t-85.5 -43.5t-107 -24.5t-129 -9v123q110 0 175 20.5t99 54.5t44 77t10 87v1065h123v-1076q0 -51 15 -93t42.5 -72t65.5 -46.5t85 -16.5h22zM643 2013l-226 -408h-103l-227 408h113l164 -329l168 329h111z
" />
    <glyph glyph-name="uni06B5.fina" unicode="&#x6b5;" horiz-adv-x="1416" 
d="M1433 123v-123h-39q-38 0 -67 5t-52.5 14.5t-43.5 23t-41 30.5v-122q0 -115 -25.5 -200.5t-79.5 -148.5q-41 -46 -89 -75.5t-102.5 -46.5t-114.5 -24t-124 -8h-72q-125 0 -228.5 55.5t-167.5 158.5q-44 69 -64 155q-18 72 -18 152q0 15 1 31q4 105 35.5 219t90.5 237
l111 -53q-100 -210 -113 -383q-2 -27 -2 -53q0 -139 63 -240q47 -75 123 -115.5t169 -40.5h72q122 0 205 27.5t131 83.5q39 45 57.5 111t18.5 158v1476h123v-1066q0 -53 15 -96.5t42 -75t64.5 -49t82.5 -17.5h39zM1389 2013l-226 -408h-103l-227 408h113l164 -329l168 329
h111z" />
    <glyph glyph-name="uni06A4.fina" unicode="&#x6a4;" horiz-adv-x="2128" arabic-form="final" 
d="M1175 123q160 0 296 26q-45 28 -84 64t-67 78t-44 90t-16 101q0 84 29 155.5t80.5 123t123.5 80.5q66 26 146 26h20q73 0 139 -30.5t115.5 -84.5t78 -124.5t28.5 -145.5q0 -98 -52.5 -183t-152.5 -150q130 -26 270 -26h71v-123h-71q-120 0 -232 17.5t-209 51.5
q-99 -34 -216.5 -51.5t-252.5 -17.5h-719q-64 0 -121.5 21.5t-101.5 63.5q-18 16 -36 39.5t-32.5 55.5t-24 73t-9.5 92q0 33 5 71.5t12.5 77t16.5 75t16.5 65t13 47t6.5 20.5l117 -37l-4 -16q-5 -17 -12.5 -43t-15.5 -59.5t-15.5 -68.5t-12 -69.5t-4.5 -62.5q0 -62 18 -104
t46.5 -68.5t64.5 -38t73 -11.5h719zM1644 200q21 8 40.5 17t37.5 20q30 17 61 40.5t56.5 53.5t41.5 68t16 83q0 48 -17 95t-49 84t-77.5 60t-103.5 23q-61 0 -110 -18.5t-84 -53t-54 -82.5t-19 -108q0 -48 18.5 -87t48 -71t65 -56t70.5 -42q14 -7 28.5 -13.5t30.5 -12.5z
M1556 1203l-124 -125l-124 123l125 126zM1959 1206l-124 -124l-126 124l125 125zM1761 1478l-124 -124l-126 124l125 125z" />
    <glyph glyph-name="uni06C6.fina" unicode="&#x6c6;" horiz-adv-x="1049" arabic-form="final" 
d="M777 123v249q-2 79 -14.5 146.5t-42.5 117t-80 77t-128 27.5q-77 0 -128 -28t-81.5 -77.5t-43 -117t-12.5 -145.5q0 -69 24 -116.5t67 -77t100.5 -42.5t125.5 -13h213zM512 863q103 -4 177 -41t120.5 -101.5t68.5 -153t22 -195.5v-249h170v-123h-170v-17
q0 -132 -45.5 -233t-132.5 -169t-207.5 -100.5t-263.5 -32.5h-57v123h57q121 3 217.5 24t164.5 70t105 130.5t39 204.5h-228q-84 0 -161 22t-136.5 68.5t-93.5 117t-34 164.5q0 106 21.5 194.5t68 153t120 102t178.5 41.5zM813 1473l-226 -408h-103l-227 408h113l164 -329
l168 329h111z" />
    <glyph glyph-name="uni06CE.init" unicode="&#x6ce;" horiz-adv-x="877" 
d="M648 804q10 -43 22 -95t21.5 -107.5t16.5 -112.5t9 -109v-6q0 -68 -21 -135t-62 -120.5t-100.5 -86t-133.5 -32.5h-415v123h415q48 3 84.5 25t61 57.5t37.5 80.5q11 41 11 84v7q-1 48 -7.5 100t-16 103t-20.5 99t-21 89zM603 -461l-124 125l122 124l126 -125zM195 -459
l-124 125l122 124l126 -125zM650 1437l-226 -408h-103l-227 408h113l164 -329l168 329h111z" />
    <glyph glyph-name="uni06CE.medi" unicode="&#x6ce;" horiz-adv-x="1046" 
d="M1066 123v-123h-164q-67 0 -127 20t-105 57q-27 22 -45 46q-51 -64 -128 -93t-187 -30h-330v123h330q59 2 105 11t78 31t49.5 58.5t19.5 93.5v359h123v-359q0 -54 20 -91t51 -60t69.5 -33t76.5 -10h164zM722 -453l-124 125l122 124l126 -125zM314 -451l-124 125l122 124
l126 -125zM923 1269l-226 -408h-103l-227 408h113l164 -329l168 329h111z" />
    <glyph glyph-name="uni06CE.fina" unicode="&#x6ce;" horiz-adv-x="1777" 
d="M384 574q-61 -126 -95.5 -243t-42.5 -221q-3 -33 -3 -65q0 -68 15.5 -142.5t60.5 -146.5q56 -89 146.5 -137t202.5 -48h249q48 0 102.5 4t109 14.5t105 27.5t89 42t61.5 59.5t23 80.5q0 31 -7 56.5t-26 46t-53 36.5t-87 28t-128.5 20.5t-177.5 13.5l3 123h864v-123h-346
q42 -41 61 -89t19 -112q0 -67 -25 -119.5t-69 -91.5t-103 -65.5t-127 -43t-141.5 -24t-146.5 -7.5h-249q-144 0 -262 63t-191 179q-69 112 -87 231q-11 65 -11 129q0 55 12 142.5t53 205.5t92 229zM1223 822l-226 -408h-103l-227 408h113l164 -329l168 329h111z" />
    <glyph glyph-name=".notdef" horiz-adv-x="1229" 
d="M102 -362v1806h1024v-1806h-1024zM217 -248h795v1577h-795v-1577z" />
    <glyph glyph-name="NULL" unicode="&#xfeff;" 
 />
    <glyph glyph-name="NULL" 
 />
    <glyph glyph-name="nonmarkingreturn" horiz-adv-x="602" 
 />
    <glyph glyph-name="space" unicode=" " horiz-adv-x="696" 
 />
    <glyph glyph-name="space" unicode="&#xa0;" horiz-adv-x="696" 
 />
    <glyph glyph-name="uni0640" unicode="&#x640;" horiz-adv-x="414" 
d="M418 124q11 0 11 -5v-112q0 -7 -11 -7h-428q-10 0 -10 7v112q0 5 10 5h428z" />
    <glyph glyph-name="uni066E" unicode="&#x66e;" horiz-adv-x="2103" 
d="M1953 703q17 -76 30.5 -160.5t15.5 -162.5v-12q0 -79 -26 -150t-79 -125q-44 -45 -98.5 -69t-113.5 -24h-1227q-64 0 -121.5 21.5t-101.5 63.5q-18 16 -36 39.5t-32.5 55.5t-24 73t-9.5 92q0 33 5 71.5t12.5 77t16.5 75t16.5 65t13 47t6.5 20.5l117 -37l-4 -16
q-5 -17 -12.5 -43t-15.5 -59.5t-15.5 -68.5t-12 -69.5t-4.5 -62.5q0 -62 18 -104t46.5 -68.5t64.5 -38t73 -11.5h1227q70 0 124 56q35 35 53 87q17 48 17 105v6q-2 72 -15 152.5t-29 153.5z" />
    <glyph glyph-name="feh_dotless.isol" horiz-adv-x="2127" 
d="M1462 123q88 5 161 12.5t127.5 31.5t89.5 71t47 132q-42 -7 -100 -13.5t-118 -6.5q-94 0 -171 20.5t-132 63.5t-85 109t-30 157q0 79 26.5 150.5t74.5 125t116 84.5q64 28 141 28h10q85 -1 147 -29t106 -75.5t72 -110.5t43.5 -134t21.5 -146.5t6 -146.5
q0 -131 -39.5 -217t-112 -137t-174.5 -71.5t-227 -20.5h-1006q-64 0 -121.5 21.5t-101.5 63.5q-18 16 -36 39.5t-32.5 55.5t-24 73t-9.5 92q0 33 5 71.5t12.5 77t16.5 75t16.5 65t13 47t6.5 20.5l117 -37l-4 -16q-5 -17 -12.5 -43t-15.5 -59.5t-15.5 -68.5t-12 -69.5
t-4.5 -62.5q0 -62 18 -104t46.5 -68.5t64.5 -38t73 -11.5h1006zM1669 473q31 0 62.5 2t60.5 5.5t55 7.5t45 7q-1 44 -5 95.5t-14 104t-28.5 101t-48.5 86.5t-73.5 60.5t-103.5 22.5q-63 0 -109.5 -23t-76.5 -60t-44.5 -85t-14.5 -97q0 -68 22.5 -111.5t62.5 -69t94 -36
t116 -10.5z" />
    <glyph glyph-name="uni06A1.fina" horiz-adv-x="2128" 
d="M1175 123q160 0 296 26q-45 28 -84 64t-67 78t-44 90t-16 101q0 84 29 155.5t80.5 123t123.5 80.5q66 26 146 26h20q73 0 139 -30.5t115.5 -84.5t78 -124.5t28.5 -145.5q0 -98 -52.5 -183t-152.5 -150q130 -26 270 -26h71v-123h-71q-120 0 -232 17.5t-209 51.5
q-99 -34 -216.5 -51.5t-252.5 -17.5h-719q-64 0 -121.5 21.5t-101.5 63.5q-18 16 -36 39.5t-32.5 55.5t-24 73t-9.5 92q0 33 5 71.5t12.5 77t16.5 75t16.5 65t13 47t6.5 20.5l117 -37l-4 -16q-5 -17 -12.5 -43t-15.5 -59.5t-15.5 -68.5t-12 -69.5t-4.5 -62.5q0 -62 18 -104
t46.5 -68.5t64.5 -38t73 -11.5h719zM1644 200q21 8 40.5 17t37.5 20q30 17 61 40.5t56.5 53.5t41.5 68t16 83q0 48 -17 95t-49 84t-77.5 60t-103.5 23q-61 0 -110 -18.5t-84 -53t-54 -82.5t-19 -108q0 -48 18.5 -87t48 -71t65 -56t70.5 -42q14 -7 28.5 -13.5t30.5 -12.5z
" />
    <glyph glyph-name="uni066F" unicode="&#x66f;" horiz-adv-x="1620" 
d="M1060 856q181 0 279 -116q108 -127 108 -400v-390q0 -227 -105 -348q-33 -38 -75.5 -66.5t-94.5 -47.5q-107 -40 -260 -40h-235q-144 0 -262 63.5t-192 180.5q-51 81 -75 182q-20 84 -20 177q0 19 1 39q5 124 43.5 252t108.5 274l111 -53q-60 -125 -94.5 -239.5
t-42.5 -216.5q-2 -31 -2 -61q0 -68 14.5 -143t59.5 -146q57 -89 147.5 -137.5t202.5 -48.5h235q241 0 337 111q75 87 75 267v51h-258q-75 0 -146.5 20t-127 66t-89 120t-33.5 181q0 88 21 172t67.5 150t120.5 106.5t181 40.5zM1324 123v217q0 113 -19.5 193.5t-59.5 127.5
q-32 37 -76.5 54.5t-108.5 17.5q-63 0 -112.5 -23.5t-84 -68t-52.5 -109t-18 -145.5q0 -67 19.5 -112.5t49 -75t64 -45t65 -22.5t51.5 -8t24 -1h258z" />
    <glyph glyph-name="onedot.above" 
d="M-127 1314l128 130l132 -132l-130 -130z" />
    <glyph glyph-name="twodots.above" 
d="M198 1185l-124 125q34 35 61.5 62.5t60.5 61.5l126 -125zM-208 1187l-124 125q34 35 61.5 62.5t60.5 61.5l126 -125z" />
    <glyph glyph-name="threedots.above" 
d="M-82 1318l-124 -125l-124 123l125 126zM321 1321l-124 -124l-126 124l125 125zM123 1593l-124 -124l-126 124l125 125z" />
    <glyph glyph-name="threedots.below" 
d="M76 -339l124 125l124 -123l-125 -126zM-327 -342l124 124q35 -34 63.5 -63t62.5 -61l-125 -125zM-129 -605l124 125l124 -123l-125 -126z" />
    <glyph glyph-name="uni0660" unicode="&#x660;" horiz-adv-x="1083" 
d="M548 312q54 0 101 20.5t82 55.5t55.5 82t20.5 101q0 53 -20.5 100t-55.5 82t-82 55.5t-101 20.5q-53 0 -100 -20.5t-82 -55.5t-55.5 -82t-20.5 -100q0 -54 20.5 -101t55.5 -82t82 -55.5t100 -20.5zM548 952q79 0 148.5 -30t121.5 -82t82 -121t30 -148t-30 -148.5
t-82 -121.5t-121.5 -82t-148.5 -30t-148.5 30t-121 82t-81.5 121.5t-30 148.5t30 148t81.5 121t121 82t148.5 30z" />
    <glyph glyph-name="uni0661" unicode="&#x661;" horiz-adv-x="624" 
d="M289 0q0 35 0.5 73t1.5 80q2 122 2.5 265.5t-11.5 303.5t-42 333t-87 354l117 37q53 -168 86 -344.5t48 -371.5q13 -167 12.5 -312.5t-2.5 -266.5q-1 -41 -1.5 -79t-0.5 -72h-123z" />
    <glyph glyph-name="uni0662" unicode="&#x662;" horiz-adv-x="1149" 
d="M951 1447q1 -3 11.5 -37.5t22.5 -84.5t21.5 -107t9.5 -106q0 -78 -21.5 -144.5t-63 -115t-102.5 -76.5t-140 -28q-88 0 -167 39t-148 116q18 -138 27 -258.5t12 -231t2.5 -212.5t-1.5 -202h-123q0 131 0.5 275t-8.5 302.5t-34 333.5t-76 368q-8 32 -17.5 64t-19.5 64
l117 37q11 -34 20.5 -67.5t18.5 -66.5q2 -8 14.5 -44t34.5 -84.5t55 -103t76 -100.5t97 -76t120 -30q98 0 151 63t53 178q0 42 -9 93.5t-20.5 96.5t-20.5 76t-9 32z" />
    <glyph glyph-name="uni0663" unicode="&#x663;" horiz-adv-x="1459" 
d="M1250 1448q1 -3 6 -19.5t11.5 -43t14 -60.5t14 -70t10.5 -73t4 -69q0 -59 -11.5 -123.5t-40 -118t-78 -88t-124.5 -34.5q-94 0 -162 52.5t-110 136.5q-14 -38 -36.5 -71t-52.5 -58.5t-67 -42t-79 -21.5q-15 -1 -29 -1q-40 0 -81.5 12t-91.5 46q11 -101 17 -195t8 -180.5
t2 -164.5t-1 -147q-1 -31 -1 -60v-55h-123v56t1 60q1 58 1 124q0 65 -1 174t-15 274.5t-46 348t-93 373.5l117 37q17 -56 31 -105t28 -105q7 -29 16 -63t20.5 -68.5t25.5 -68.5t31 -64q23 -40 46 -62.5t44.5 -32.5t41.5 -11q10 -1 19 -1t17 1q21 3 42.5 10t42 24.5t37.5 48
t28 79.5q9 41 13 89q2 35 2 73q0 12 -0.5 44t-4 84t-8.5 102l123 12q5 -54 11.5 -109t14.5 -107.5t19.5 -100.5t26.5 -89q19 -52 41.5 -82.5t45.5 -46.5t45.5 -21t43.5 -5q43 0 69 24.5t39.5 61t18 78.5t4.5 77q0 42 -8.5 94t-18.5 97.5t-18.5 76.5t-8.5 32z" />
    <glyph glyph-name="uni0664" unicode="&#x664;" horiz-adv-x="1049" 
d="M665 1353q-14 -5 -44.5 -15t-70 -26.5t-85 -38.5t-88.5 -50q-34 -23 -67 -50t-58.5 -58t-39.5 -66q-10 -27 -10 -55q0 -10 1 -20q5 -40 27.5 -68t55.5 -46.5t73 -29t80 -15.5q25 -3 58 -3q32 0 65.5 1.5t65.5 4t57 5t40.5 4.5t15.5 3l20 -121q-65 -8 -125.5 -29t-113 -52
t-95 -71.5t-69.5 -86.5q-32 -54 -40 -109q-3 -19 -3 -37q0 -34 11 -64q15 -43 50 -70t79 -42t91.5 -20.5t88.5 -5.5q72 0 146 15t145 45l48 -113q-75 -32 -154 -49.5t-158 -20.5h-25q-63 0 -129.5 11.5t-125 37.5t-104 67.5t-68.5 101.5q-19 53 -19 113q0 21 5 72.5
t52 130.5q28 46 67.5 87t86.5 76q-58 9 -112.5 28.5t-98.5 52t-73.5 77.5t-36.5 105q-2 17 -2 34q0 40 14 85t46 91t77 85t95 72q46 30 94 53.5t90.5 41.5t76.5 30t54 19z" />
    <glyph glyph-name="uni0665" unicode="&#x665;" horiz-adv-x="1324" 
d="M655 119q104 0 185.5 26.5t137.5 77t85 124t29 168.5t-37.5 197t-109.5 202q-72 99 -168 182t-213 146q-66 -99 -130 -197.5t-114.5 -192t-81 -178.5t-30.5 -157q0 -91 31.5 -164.5t90 -125.5t141 -80t184.5 -28zM571 1377q146 -72 266 -171t208 -220q83 -115 127 -235
q43 -118 43 -231v-5q-1 -130 -41.5 -228t-114 -163t-175.5 -97q-97 -31 -215 -31h-14q-123 1 -227.5 36.5t-180.5 101.5t-119 162.5t-43 220.5q0 64 18 133t48.5 140t70.5 142.5t83 140.5t87 133.5t82 121.5l49 73z" />
    <glyph glyph-name="uni0666" unicode="&#x666;" horiz-adv-x="1184" 
d="M958 1382q-13 -122 -16 -248q-1 -42 -1 -84q0 -85 4.5 -189t17.5 -225t31 -232.5t40 -211.5t47 -183l-117 -35q-40 132 -70.5 292.5t-50.5 331.5q-20 186 -24 366q-1 42 -1 84q0 135 10 263q-93 -20 -195 -29q-83 -7 -166 -7q-18 0 -77 0.5t-150.5 14t-162.5 39.5l34 118
q55 -20 120 -30.5t135 -13.5q39 -2 80 -2q30 0 81 1.5t118.5 8t128 16.5t108.5 21z" />
    <glyph glyph-name="uni0667" unicode="&#x667;" horiz-adv-x="1366" 
d="M1298 1356q-108 -129 -208 -310.5t-182 -397.5q-36 -95 -65 -187t-49 -176.5t-31 -157.5t-11 -129h-123q0 56 -10.5 129t-31 157.5t-49 176.5t-64.5 187q-81 216 -181 397.5t-207 310.5l94 79q114 -137 219 -327.5t190 -415.5q31 -81 56.5 -160t45.5 -154q20 75 45.5 154
t56.5 160q86 225 191 415.5t219 327.5z" />
    <glyph glyph-name="uni0668" unicode="&#x668;" horiz-adv-x="1376" 
d="M1202 -10q-114 137 -219 327.5t-191 415.5q-31 81 -56.5 160t-45.5 154q-20 -75 -45.5 -154t-56.5 -160q-85 -225 -190 -415.5t-219 -327.5l-94 79q107 129 207 310.5t181 397.5q36 94 64.5 186.5t49 177t31 157.5t10.5 129h123q0 -56 11 -129t31 -157.5t49 -177
t65 -186.5q82 -216 182 -397.5t208 -310.5z" />
    <glyph glyph-name="uni0669" unicode="&#x669;" horiz-adv-x="982" 
d="M676 789q-1 51 -1.5 103t-0.5 107q0 63 -12.5 125t-39 111.5t-68 80.5t-99.5 31q-57 0 -102.5 -22.5t-78 -63.5t-49.5 -100.5t-17 -132.5q0 -56 15 -95t38.5 -65.5t53 -42t58.5 -23.5t54 -10.5t40 -2.5h209zM455 1470q90 0 155 -38.5t106.5 -103t61 -150t19.5 -179.5
q0 -190 5 -351.5t14.5 -288.5t23 -217t30.5 -137l-115 -43q-13 31 -23.5 81t-18.5 111.5t-14 130.5t-10 137t-6.5 131t-4.5 113h-211q-67 0 -135 18.5t-123 61t-89.5 112t-34.5 170.5q0 89 23.5 169t70 141t115.5 96.5t161 35.5z" />
    <glyph glyph-name="uni06F4" unicode="&#x6f4;" horiz-adv-x="1366" 
d="M1268 741q-35 -7 -69 -14t-72 -13t-83 -11t-100 -8q-51 -1 -104 -1h-81.5t-133 12t-150.5 40t-129 79q25 -214 29 -397q2 -110 2 -207q0 -64 -1 -122v-99h-123v100q1 47 1 99t-1.5 137.5t-9 212t-22.5 260.5t-42 266q-6 28 -13 59.5t-16 70.5t-20.5 88.5t-25.5 113.5
l120 37q24 -94 44.5 -177t40.5 -166q14 -63 46 -110t86 -82q35 -23 74 -39t81 -27q-99 105 -99 280q0 73 30.5 139.5t87.5 119.5q54 51 121 77.5t136 26.5q41 0 75.5 -7.5t67.5 -21t66.5 -32.5t72.5 -42q14 -8 29 -17t32 -18l-62 -107q-17 10 -32.5 19.5t-29.5 17.5
q-36 21 -64 37.5t-53 27t-49.5 16t-52.5 5.5q-45 0 -90 -18.5t-81 -50.5t-58.5 -76t-22.5 -96q0 -148 92 -219q51 -39 118 -55t136 -18h27q53 0 107.5 6.5t92.5 13.5q20 4 32 6.5t13 2.5z" />
    <glyph glyph-name="uni06F5" unicode="&#x6f5;" horiz-adv-x="1376" 
d="M1153 808q118 -221 118 -422q0 -93 -27 -164.5t-73 -121t-106.5 -75t-127.5 -25.5q-48 0 -86.5 9.5t-68.5 25.5t-52 35.5t-38 40.5q-37 -53 -96 -83t-134 -30q-81 0 -149.5 30t-117.5 82.5t-76.5 123.5t-27.5 152q0 90 21 179t58 174t88 165.5t110 153.5q63 78 121 136
t97 93q-54 47 -87.5 72t-34.5 26l71 100q3 -2 35 -26t83 -67t115 -103t132 -134q159 -174 253 -347zM937 123q5 0 23 2t41.5 9.5t49.5 24t47.5 46t35.5 73.5t14 108q0 97 -31 192.5t-80 184t-109 167t-117 141.5q-34 37 -67 70.5t-65 63.5q-36 -32 -95 -89.5t-122 -137.5
q-42 -53 -86 -119t-80 -142t-59 -159.5t-23 -171.5q0 -50 14.5 -97.5t45 -84.5t77.5 -60t111 -23q51 0 84.5 21t53.5 55t28.5 78t10.5 90q1 13 1 25q0 13 -1.5 30t-3 34.5t-2.5 27.5l-2 10l121 21q0 -1 2 -13.5t4 -32.5t3 -47q1 -13 1 -28q0 -14 -1 -30q-1 -25 -2.5 -48
t-6.5 -45q6 -32 21.5 -59.5t39 -48t55.5 -30.5q24 -9 53 -9q8 0 16 1z" />
    <glyph glyph-name="uni06F6" unicode="&#x6f6;" horiz-adv-x="1136" 
d="M1029 1021q-92 -89 -184.5 -202.5t-180.5 -245.5t-169.5 -278.5t-150.5 -301.5l-113 49q44 102 93 197.5t99.5 181t99 160t90.5 134.5q-66 -21 -132 -21h-1q-78 0 -148 30t-124 87q-51 53 -72 126q-16 56 -16 113q0 17 3.5 62t36 113.5t89.5 113.5q35 27 75 47.5t83.5 35
t88 24t88.5 16.5l27 -119l-72.5 -14.5t-74.5 -18.5t-72 -27t-66 -40q-36 -29 -57.5 -73.5t-25.5 -93.5q-1 -14 -1 -28q0 -35 11 -76.5t44 -75.5q13 -14 31 -28t40.5 -25t50.5 -18.5t61 -7.5h1q73 0 135.5 28.5t118.5 72t107.5 95t102.5 98.5z" />
    <glyph glyph-name="uni066A" unicode="&#x66a;" horiz-adv-x="1174" 
d="M354 1h-125l593 1565h125zM234 1428l142 144l146 -146l-144 -144zM660 148l142 144l146 -146l-144 -144z" />
    <glyph glyph-name="uni061F" unicode="&#x61f;" horiz-adv-x="1083" 
d="M541 1592q91 0 171.5 -34t142.5 -98q63 -65 95.5 -151t32.5 -183h-122q0 73 -24.5 136t-67.5 109t-101.5 72t-126.5 26q-66 0 -123.5 -21t-100 -58t-67 -87t-24.5 -108q0 -42 5.5 -69.5t25.5 -53.5t58.5 -57.5t104.5 -81.5q6 -5 12.5 -9.5t12.5 -9.5q70 -54 113 -98
t66.5 -87.5t31.5 -91.5t8 -110v-144h-123v144q0 45 -4 78.5t-20.5 65t-50.5 65t-95 80.5l-25 19q-67 51 -112 87.5t-73 74.5q-31 40 -44.5 86t-13.5 112q0 81 33.5 153.5t96.5 129.5q62 56 141 85t167 29zM467 80l142 144l146 -146l-144 -144z" />
    <glyph glyph-name="uni060C" unicode="&#x60c;" horiz-adv-x="580" 
d="M411 508q-37 -21 -71.5 -52t-61.5 -70.5t-43 -87.5q-15 -46 -15 -98v-7q12 21 26 33t28 18t28 8t28 2q24 0 45.5 -9t37 -25t25 -37.5t9.5 -45.5q0 -27 -10 -51.5t-28 -44t-42.5 -31t-52.5 -11.5q-47 0 -84.5 17t-63.5 47t-39.5 71.5t-13.5 90.5q0 54 19.5 107.5t52 101.5
t75.5 88.5t90 68.5z" />
    <glyph glyph-name="uni061B" unicode="&#x61b;" horiz-adv-x="562" 
d="M139 124q0 25 10 48t26.5 39.5t39 26.5t48.5 10q25 0 48 -10t39.5 -26.5t26.5 -39.5t10 -48q0 -26 -10 -48.5t-26.5 -39t-39.5 -26.5t-48 -10q-26 0 -48.5 10t-39 26.5t-26.5 39t-10 48.5zM376 952q-37 -21 -71.5 -52t-61.5 -70.5t-43 -87.5q-15 -46 -15 -98v-7
q12 21 26 33t28 18t28 8t28 2q24 0 45.5 -9t37 -25t25 -37.5t9.5 -45.5q0 -27 -10 -51.5t-28 -44t-42.5 -31t-52.5 -11.5q-47 0 -84.5 17t-63.5 47t-39.5 71.5t-13.5 90.5q0 54 19.5 107.5t52 101.5t75.5 88.5t90 68.5z" />
    <glyph glyph-name="uni066B" unicode="&#x66b;" horiz-adv-x="685" 
d="M85 -234h-125l481 1088h125z" />
    <glyph glyph-name="uni066C" unicode="&#x66c;" horiz-adv-x="513" 
d="M103 -266q37 21 74.5 54t68 75t49.5 93q17 47 17 100v6q-12 -21 -26 -33t-28 -18t-28.5 -8t-27.5 -2q-24 0 -45.5 9t-37 25t-25 37.5t-9.5 45.5q0 27 10 51.5t28 44t42.5 31t52.5 11.5q47 0 84.5 -17t63.5 -47t39.5 -71.5t13.5 -90.5q0 -54 -22 -109.5t-58 -106t-82 -93
t-93 -70.5z" />
    <glyph glyph-name="uni066D" unicode="&#x66d;" horiz-adv-x="1126" 
d="M664 1043l233 -319l-100 -73l-233 320l-232 -320l-100 72l232 320l-376 122l38 117l376 -122v395h123v-395l377 121l38 -118z" />
    <glyph glyph-name="uni064B" unicode="&#x64b;" 
d="M-251 1688l502 186v-91l-502 -187v92zM-251 1920l502 186v-91l-502 -187v92z" />
    <glyph glyph-name="uni064D" unicode="&#x64d;" 
d="M-251 -693l502 186v-91l-502 -187v92zM-251 -461l502 186v-91l-502 -187v92z" />
    <glyph glyph-name="uni064E" unicode="&#x64e;" 
d="M-251 1688l502 186v-91l-502 -187v92z" />
    <glyph glyph-name="uni064F" unicode="&#x64f;" 
d="M16 2036q-26 0 -57.5 -16.5t-45.5 -43.5q-1 -2 -2 -12v-4q0 -9 4.5 -23t18 -31.5t42.5 -32.5q5 -3 11.5 -6.5t16.5 -8t24.5 -11.5t37.5 -17q17 34 22 77q1 12 1 23q0 30 -9 57q-8 20 -24.5 34.5t-39.5 14.5zM-286 1622l14 4q26 8 62.5 19t75.5 27.5t78 38t71 50.5
q-23 11 -41.5 19t-34.5 16q-37 18 -61 42.5t-36 52.5q-11 26 -11 53q0 3 0.5 18.5t12.5 43.5q15 30 40.5 55.5t57 40.5t66.5 18h8q30 0 58 -13q55 -27 78 -72q21 -43 21 -92q0 -3 -1 -30.5t-21.5 -81t-51.5 -96.5q-22 -29 -53.5 -53t-67 -44.5t-72 -36.5t-68.5 -28t-58 -20
l-39 -12q-1 0 -1.5 -0.5t-1.5 -0.5z" />
    <glyph glyph-name="uni064C" unicode="&#x64c;" 
d="M59 2081q-26 0 -57.5 -16.5t-45.5 -43.5q-1 -2 -2 -12v-4q0 -9 4.5 -23t18 -31.5t42.5 -32.5q5 -3 11.5 -6.5t16.5 -8t24.5 -11.5t37.5 -17q17 34 22 77q1 12 1 23q0 30 -9 57q-8 20 -24.5 34.5t-39.5 14.5zM-254 1658q7 11 16 29t14.5 38t5 40.5t-12.5 36.5
q-11 15 -30 19q-10 2 -20 2t-25.5 -2.5t-32.5 -10.5t-23 -15l-52 57q3 4 15 14t32 20t47 18q23 6 49 6h7q43 -2 69.5 -23t39 -52.5t12.5 -69.5t-10 -73q52 17 108 44.5t103 69.5q-23 11 -41.5 19t-34.5 16q-37 18 -61 42.5t-36 52.5q-11 26 -11 53q0 3 0.5 18.5t12.5 43.5
q15 30 40.5 55.5t57 40.5t66.5 18h8q30 0 58 -13q55 -27 78 -72q21 -43 21 -92q0 -3 -1 -30.5t-21.5 -81t-51.5 -96.5q-33 -43 -84 -76t-102.5 -56.5t-96 -37.5t-64.5 -20z" />
    <glyph glyph-name="uni0650" unicode="&#x650;" 
d="M-251 -462l502 186v-91l-502 -187v92z" />
    <glyph glyph-name="uni0651" unicode="&#x651;" 
d="M-130 1696q-85 0 -132.5 46.5t-47.5 130.5l-1 112h81l1 -112q0 -51 23 -74t76 -23q7 0 21.5 3t28.5 12.5t24.5 29t10.5 52.5l-1 112h83v-112q0 -51 23 -74.5t77 -23.5q8 0 21.5 3.5t27 14t23.5 29.5t10 51q0 15 -3.5 36.5t-8 43.5t-9.5 41.5t-8 30.5q19 6 38 13t37 13
q3 -8 8.5 -29t11.5 -47t10.5 -53.5t4.5 -48.5q0 -46 -14.5 -79.5t-38 -55.5t-53 -32.5t-59.5 -10.5q-45 0 -80.5 14.5t-59.5 40.5q-26 -28 -59 -41t-66 -13z" />
    <glyph glyph-name="uni0652" unicode="&#x652;" 
d="M-144 1886q0 -30 11.5 -56t31 -45.5t45.5 -31t56 -11.5t56 11.5t45.5 31t31 45.5t11.5 56t-11.5 56t-31 45.5t-45.5 31t-56 11.5t-56 -11.5t-45.5 -31t-31 -45.5t-11.5 -56zM-225 1885q0 47 17.5 88t48 72t71.5 48.5t87 17.5q47 0 88 -17.5t72 -48.5t48.5 -72t17.5 -88
q0 -46 -17.5 -87t-48.5 -71.5t-72 -48t-88 -17.5q-46 0 -87 17.5t-71.5 48t-48 71.5t-17.5 87z" />
    <glyph glyph-name="uni0653" unicode="&#x653;" 
d="M417 1636h-491q-71 0 -116.5 -9.5t-75 -29t-47 -49.5t-32.5 -72q-34 10 -59.5 18t-56.5 17q25 75 55.5 123.5t74.5 76t106 38t151 10.5h491v-123z" />
    <glyph glyph-name="uni0654" unicode="&#x654;" 
d="M-272 1505q2 29 3 52t3 52l157 50q-26 7 -47.5 24t-36.5 39t-23 48t-8 52q0 31 11 62.5t31 59.5t49 49.5t65 32.5q30 9 57 9q2 0 17.5 -0.5t41.5 -7t49.5 -16t45.5 -18.5l-21 -82q-17 6 -36.5 13.5t-40 12.5t-42 5.5t-43.5 -5.5q-21 -6 -39.5 -20.5t-31.5 -34t-17 -41.5
q-2 -10 -2 -20q0 -12 3 -23q10 -32 54.5 -54.5t104.5 -22.5q45 0 96 13.5t98 27.5l28 -88z" />
    <glyph glyph-name="uni0655" unicode="&#x655;" 
d="M-235 -635q2 29 3 52t3 52l157 50q-26 7 -47.5 24t-36.5 39t-23 48t-8 52q0 31 11 62.5t31 59.5t49 49.5t65 32.5q30 9 57 9q2 0 17.5 -0.5t41.5 -7t49.5 -16t45.5 -18.5l-21 -82q-17 6 -36.5 13.5t-40 12.5t-42 5.5t-43.5 -5.5q-21 -6 -39.5 -20.5t-31.5 -34t-17 -41.5
q-2 -10 -2 -20q0 -12 3 -23q10 -32 54.5 -54.5t104.5 -22.5q45 0 96 13.5t98 27.5l28 -88z" />
    <glyph glyph-name="uni0670" unicode="&#x670;" 
d="M-49 2067h96v-415h-96v415z" />
    <glyph glyph-name="uni0656" unicode="&#x656;" 
d="M-49 -387h96v-415h-96v415z" />
    <glyph glyph-name="uni0615" unicode="&#x615;" 
d="M-340 1206v85h100l47 73v485h83v-363q38 46 84 77t103 31q33 0 64.5 -12t56.5 -37.5t40.5 -64.5t15.5 -92q0 -51 -17 -85.5t-43 -56t-58.5 -31t-63.5 -9.5h-412zM72 1291q42 0 69 23t27 74q0 58 -23.5 89.5t-67.5 31.5q-32 0 -61 -20t-56 -51.5t-51.5 -69.5t-45.5 -74
q-1 -1 -1 -3h210z" />
    <glyph glyph-name="wasla" 
d="M-307 1574l19 85h129l47 73l83 122q38 46 84 77t103 31q33 0 64.5 -12t56.5 -37.5t40.5 -64.5t15.5 -92q0 -51 -17 -85.5t-43 -56t-58.5 -31t-63.5 -9.5h-460zM153 1659q42 0 69 23t27 74q0 58 -23.5 89.5t-67.5 31.5q-32 0 -61 -20t-56 -51.5t-51.5 -69.5t-45.5 -74
q-1 -1 -1 -3h210z" />
    <glyph glyph-name="beh_dotless_alt.init" horiz-adv-x="877" 
d="M648 804q10 -43 22 -95t21.5 -107.5t16.5 -112.5t9 -109v-6q0 -68 -21 -135t-62 -120.5t-100.5 -86t-133.5 -32.5h-415v123h415q48 3 84.5 25t61 57.5t37.5 80.5q11 41 11 84v7q-1 48 -7.5 100t-16 103t-20.5 99t-21 89z" />
    <glyph glyph-name="beh_dotless_alt.medi" horiz-adv-x="1046" 
d="M1066 123v-123h-164q-67 0 -127 20t-105 57q-27 22 -45 46q-51 -64 -128 -93t-187 -30h-330v123h330q59 2 105 11t78 31t49.5 58.5t19.5 93.5v359h123v-359q0 -54 20 -91t51 -60t69.5 -33t76.5 -10h164z" />
    <glyph glyph-name="onedot.below" 
d="M-113 -289l114 115l118 -117l-116 -116z" />
    <glyph glyph-name="twodots.below" 
d="M200 -410l-124 125l122 124l126 -125zM-208 -408l-124 125l122 124l126 -125z" />
    <glyph glyph-name="alef_alt.isol" horiz-adv-x="525" 
d="M325 0h-125v1276h125v-1276z" />
    <glyph glyph-name="alef_alt.fina" horiz-adv-x="561" 
d="M562 0q-119 0 -190.5 28t-109.5 83t-50 135.5t-12 185.5v842h125v-842q0 -93 6 -153t30 -94.5t71.5 -48t129.5 -13.5h14v-123h-14z" />
    <glyph glyph-name="uni06D5" unicode="&#x6d5;" horiz-adv-x="1042" 
d="M523 0q-85 0 -159.5 27.5t-130 75.5t-88 112.5t-32.5 137.5q0 70 19 129t47.5 108.5t61.5 90t60 73.5q15 18 33 38t36 39.5t35.5 37t31.5 32.5l-78 87l90 82q1 0 24.5 -25.5t60 -65.5t80.5 -89t85 -97q50 -57 93 -111t74.5 -107t49.5 -106.5t18 -111.5
q0 -75 -32.5 -141.5t-94.5 -117.5q-57 -48 -130 -73t-154 -25zM520 810q-14 -14 -30 -30.5t-32.5 -34t-32 -35t-28.5 -33.5q-24 -29 -52.5 -63.5t-52.5 -75t-40 -87t-16 -98.5q0 -45 21 -86.5t60 -73.5q42 -34 95.5 -52t110.5 -18q60 0 112.5 18.5t91.5 50t61.5 74.5
t22.5 91q0 38 -13 76.5t-38.5 81t-64 91t-89.5 107.5z" />
    <glyph glyph-name="heh_ae.fina" horiz-adv-x="1261" 
d="M1283 0h-20q-79 0 -147.5 19t-128.5 56q-69 44 -119 110q-22 29 -39 63t-30 72q-31 -63 -77.5 -114.5t-114.5 -77.5q-81 -32 -160 -32q-7 0 -53.5 1.5t-117.5 36t-121.5 97.5t-65.5 148q-6 33 -6 65q0 68 30 146t105 152q72 72 178 127t241 91l-27 134l122 34
q29 -124 50.5 -217t38.5 -166q12 -51 22 -96.5t20.5 -89t21.5 -86.5t24 -91q16 -59 42 -100.5t58.5 -70.5t67.5 -46.5t69.5 -26.5t64.5 -12t52 -3h20v-123zM672 843q-118 -32 -209.5 -78.5t-152 -104t-86.5 -123.5q-18 -45 -18 -92q0 -22 4 -44q10 -57 48 -98t89 -62.5
t107 -22.5h5q52 0 94 20q57 28 92 67.5t54 82.5t25 85.5t5.5 76.5t-4 55.5t-3.5 22.5q-11 48 -18.5 81t-13 57t-10 42t-8.5 35z" />
    <glyph glyph-name="uni06C2" unicode="&#x6c2;" horiz-adv-x="1042" 
d="M523 0q-85 0 -159.5 27.5t-130 75.5t-88 112.5t-32.5 137.5q0 70 19 129t47.5 108.5t61.5 90t60 73.5q15 18 33 38t36 39.5t35.5 37t31.5 32.5l-78 87l90 82q1 0 24.5 -25.5t60 -65.5t80.5 -89t85 -97q50 -57 93 -111t74.5 -107t49.5 -106.5t18 -111.5
q0 -75 -32.5 -141.5t-94.5 -117.5q-57 -48 -130 -73t-154 -25zM520 810q-14 -14 -30 -30.5t-32.5 -34t-32 -35t-28.5 -33.5q-24 -29 -52.5 -63.5t-52.5 -75t-40 -87t-16 -98.5q0 -45 21 -86.5t60 -73.5q42 -34 95.5 -52t110.5 -18q60 0 112.5 18.5t91.5 50t61.5 74.5
t22.5 91q0 38 -13 76.5t-38.5 81t-64 91t-89.5 107.5zM177 1173q2 29 3 52t3 52l157 50q-26 7 -47.5 24t-36.5 39t-23 48t-8 52q0 31 11 62.5t31 59.5t49 49.5t65 32.5q30 9 57 9q2 0 17.5 -0.5t41.5 -7t49.5 -16t45.5 -18.5l-21 -82q-17 6 -36.5 13.5t-40 12.5t-42 5.5
t-43.5 -5.5q-21 -6 -39.5 -20.5t-31.5 -34t-17 -41.5q-2 -10 -2 -20q0 -12 3 -23q10 -32 54.5 -54.5t104.5 -22.5q45 0 96 13.5t98 27.5l28 -88z" />
    <glyph glyph-name="uni06C3" unicode="&#x6c3;" horiz-adv-x="1042" 
d="M523 0q-85 0 -159.5 27.5t-130 75.5t-88 112.5t-32.5 137.5q0 70 19 129t47.5 108.5t61.5 90t60 73.5q15 18 33 38t36 39.5t35.5 37t31.5 32.5l-78 87l90 82q1 0 24.5 -25.5t60 -65.5t80.5 -89t85 -97q50 -57 93 -111t74.5 -107t49.5 -106.5t18 -111.5
q0 -75 -32.5 -141.5t-94.5 -117.5q-57 -48 -130 -73t-154 -25zM520 810q-14 -14 -30 -30.5t-32.5 -34t-32 -35t-28.5 -33.5q-24 -29 -52.5 -63.5t-52.5 -75t-40 -87t-16 -98.5q0 -45 21 -86.5t60 -73.5q42 -34 95.5 -52t110.5 -18q60 0 112.5 18.5t91.5 50t61.5 74.5
t22.5 91q0 38 -13 76.5t-38.5 81t-64 91t-89.5 107.5zM650 1206l-124 125q34 35 61.5 62.5t60.5 61.5l126 -125zM244 1208l-124 125q34 35 61.5 62.5t60.5 61.5l126 -125z" />
    <glyph glyph-name="uni06F0" unicode="&#x6f0;" horiz-adv-x="1083" 
d="M548 312q54 0 101 20.5t82 55.5t55.5 82t20.5 101q0 53 -20.5 100t-55.5 82t-82 55.5t-101 20.5q-53 0 -100 -20.5t-82 -55.5t-55.5 -82t-20.5 -100q0 -54 20.5 -101t55.5 -82t82 -55.5t100 -20.5zM548 952q79 0 148.5 -30t121.5 -82t82 -121t30 -148t-30 -148.5
t-82 -121.5t-121.5 -82t-148.5 -30t-148.5 30t-121 82t-81.5 121.5t-30 148.5t30 148t81.5 121t121 82t148.5 30z" />
    <glyph glyph-name="uni06F1" unicode="&#x6f1;" horiz-adv-x="624" 
d="M289 0q0 35 0.5 73t1.5 80q2 122 2.5 265.5t-11.5 303.5t-42 333t-87 354l117 37q53 -168 86 -344.5t48 -371.5q13 -167 12.5 -312.5t-2.5 -266.5q-1 -41 -1.5 -79t-0.5 -72h-123z" />
    <glyph glyph-name="uni06F2" unicode="&#x6f2;" horiz-adv-x="1149" 
d="M951 1447q1 -3 11.5 -37.5t22.5 -84.5t21.5 -107t9.5 -106q0 -78 -21.5 -144.5t-63 -115t-102.5 -76.5t-140 -28q-88 0 -167 39t-148 116q18 -138 27 -258.5t12 -231t2.5 -212.5t-1.5 -202h-123q0 131 0.5 275t-8.5 302.5t-34 333.5t-76 368q-8 32 -17.5 64t-19.5 64
l117 37q11 -34 20.5 -67.5t18.5 -66.5q2 -8 14.5 -44t34.5 -84.5t55 -103t76 -100.5t97 -76t120 -30q98 0 151 63t53 178q0 42 -9 93.5t-20.5 96.5t-20.5 76t-9 32z" />
    <glyph glyph-name="uni06F3" unicode="&#x6f3;" horiz-adv-x="1459" 
d="M1250 1448q1 -3 6 -19.5t11.5 -43t14 -60.5t14 -70t10.5 -73t4 -69q0 -59 -11.5 -123.5t-40 -118t-78 -88t-124.5 -34.5q-94 0 -162 52.5t-110 136.5q-14 -38 -36.5 -71t-52.5 -58.5t-67 -42t-79 -21.5q-15 -1 -29 -1q-40 0 -81.5 12t-91.5 46q11 -101 17 -195t8 -180.5
t2 -164.5t-1 -147q-1 -31 -1 -60v-55h-123v56t1 60q1 58 1 124q0 65 -1 174t-15 274.5t-46 348t-93 373.5l117 37q17 -56 31 -105t28 -105q7 -29 16 -63t20.5 -68.5t25.5 -68.5t31 -64q23 -40 46 -62.5t44.5 -32.5t41.5 -11q10 -1 19 -1t17 1q21 3 42.5 10t42 24.5t37.5 48
t28 79.5q9 41 13 89q2 35 2 73q0 12 -0.5 44t-4 84t-8.5 102l123 12q5 -54 11.5 -109t14.5 -107.5t19.5 -100.5t26.5 -89q19 -52 41.5 -82.5t45.5 -46.5t45.5 -21t43.5 -5q43 0 69 24.5t39.5 61t18 78.5t4.5 77q0 42 -8.5 94t-18.5 97.5t-18.5 76.5t-8.5 32z" />
    <glyph glyph-name="uni06F9" unicode="&#x6f9;" horiz-adv-x="982" 
d="M716 789q-1 51 -1.5 103t-0.5 107q0 63 -12.5 125t-39 111.5t-68 80.5t-99.5 31q-57 0 -102.5 -22.5t-78 -63.5t-49.5 -100.5t-17 -132.5q0 -56 15 -95t38.5 -65.5t53 -42t58.5 -23.5t54 -10.5t40 -2.5h209zM495 1470q90 0 155 -38.5t106.5 -103t61 -150t19.5 -179.5
q0 -190 5 -351.5t14.5 -288.5t23 -217t30.5 -137l-115 -43q-13 31 -23.5 81t-18.5 111.5t-14 130.5t-10 137t-6.5 131t-4.5 113h-211q-67 0 -135 18.5t-123 61t-89.5 112t-34.5 170.5q0 89 23.5 169t70 141t115.5 96.5t161 35.5z" />
    <glyph glyph-name="uni06F7" unicode="&#x6f7;" horiz-adv-x="1366" 
d="M1298 1356q-108 -129 -208 -310.5t-182 -397.5q-36 -95 -65 -187t-49 -176.5t-31 -157.5t-11 -129h-123q0 56 -10.5 129t-31 157.5t-49 176.5t-64.5 187q-81 216 -181 397.5t-207 310.5l94 79q114 -137 219 -327.5t190 -415.5q31 -81 56.5 -160t45.5 -154q20 75 45.5 154
t56.5 160q86 225 191 415.5t219 327.5z" />
    <glyph glyph-name="uni06F8" unicode="&#x6f8;" horiz-adv-x="1376" 
d="M1202 -10q-114 137 -219 327.5t-191 415.5q-31 81 -56.5 160t-45.5 154q-20 -75 -45.5 -154t-56.5 -160q-85 -225 -190 -415.5t-219 -327.5l-94 79q107 129 207 310.5t181 397.5q36 94 64.5 186.5t49 177t31 157.5t10.5 129h123q0 -56 11 -129t31 -157.5t49 -177
t65 -186.5q82 -216 182 -397.5t208 -310.5z" />
    <glyph glyph-name="uni06F4.urdu" horiz-adv-x="1133" 
d="M386 1356q23 0 51 -5.5t58 -19.5t60 -40t59 -66q42 -60 76 -155q20 54 53 100.5t73.5 84t86.5 66t93 46.5l44 -115q-72 -29 -121.5 -70.5t-83 -98.5t-53.5 -131t-32 -167h-122q-2 97 -23.5 179t-55.5 142t-76.5 93.5t-86.5 33.5t-74.5 -18.5t-50 -49t-26.5 -69.5
q-6 -29 -6 -59q0 -12 1 -23q3 -53 17 -98t35 -86t47.5 -80t56.5 -79q42 -57 84 -120.5t75 -142t51 -176.5q14 -74 14 -164q0 -30 -2 -62l-123 6q2 32 2 61q0 75 -13.5 148t-42.5 141.5t-67 125t-77 110.5q-31 42 -61.5 86.5t-55 93.5t-42 105.5t-21.5 122.5q-1 16 -1 31
q0 52 14.5 108t50 104.5t90 77.5t125.5 29z" />
    <glyph glyph-name="uni06F7.urdu" horiz-adv-x="1007" 
d="M891 1235l-24 -23q-25 -24 -68.5 -73t-103.5 -123.5t-132 -176.5q-80 -114 -141 -216t-103 -193q-79 -169 -91 -289q56 -11 116 -15t122 -4q84 0 163.5 6t141.5 13t100 13t39 6l21 -121q-5 -1 -45 -7t-104 -13.5t-145.5 -13.5t-168.5 -6q-82 0 -164 7.5t-155 25.5l-45 12
l-1 47v9q0 160 104 382q91 192 256 428q75 108 137.5 185.5t108.5 128.5t72.5 76t28.5 27z" />
    <glyph glyph-name="Ghunna_above" 
d="M-66 1194q-87 0 -137.5 58t-50.5 167q0 117 37 209l77 -20q-8 -20 -14 -40t-9.5 -41.5t-5 -46.5t-1.5 -55q0 -157 123 -157h24q82 0 120 36t38 111v215h80v-209q0 -112 -56 -169.5t-177 -57.5h-48zM-51 1843h80v-334h-80v334z" />
    <glyph glyph-name="uni0651064B" 
d="M-220 1696q-85 0 -132.5 46.5t-47.5 130.5l-1 112h81l1 -112q0 -51 23 -74t76 -23q7 0 21.5 3t28.5 12.5t24.5 29t10.5 52.5l-1 112h83v-112q0 -51 23 -74.5t77 -23.5q8 0 21.5 3.5t27 14t23.5 29.5t10 51q0 15 -3.5 36.5t-8 43.5t-9.5 41.5t-8 30.5q19 6 38 13t37 13
q3 -8 8.5 -29t11.5 -47t10.5 -53.5t4.5 -48.5q0 -46 -14.5 -79.5t-38 -55.5t-53 -32.5t-59.5 -10.5q-45 0 -80.5 14.5t-59.5 40.5q-26 -28 -59 -41t-66 -13zM-360 2169l502 186v-91l-502 -187v92zM-360 2401l502 186v-91l-502 -187v92z" />
    <glyph glyph-name="uni0654064B" 
d="M-251 2090l502 186v-91l-502 -187v92zM-251 2322l502 186v-91l-502 -187v92zM-242 1478q2 29 3 52t3 52l157 50q-26 7 -47.5 24t-36.5 39t-23 48t-8 52q0 31 11 62.5t31 59.5t49 49.5t65 32.5q30 9 57 9q2 0 17.5 -0.5t41.5 -7t49.5 -16t45.5 -18.5l-21 -82
q-17 6 -36.5 13.5t-40 12.5t-42 5.5t-43.5 -5.5q-21 -6 -39.5 -20.5t-31.5 -34t-17 -41.5q-2 -10 -2 -20q0 -12 3 -23q10 -32 54.5 -54.5t104.5 -22.5q45 0 96 13.5t98 27.5l28 -88z" />
    <glyph glyph-name="uni0654064E" 
d="M-251 2088l502 186v-91l-502 -187v92zM-226 1467q2 29 3 52t3 52l157 50q-26 7 -47.5 24t-36.5 39t-23 48t-8 52q0 31 11 62.5t31 59.5t49 49.5t65 32.5q30 9 57 9q2 0 17.5 -0.5t41.5 -7t49.5 -16t45.5 -18.5l-21 -82q-17 6 -36.5 13.5t-40 12.5t-42 5.5t-43.5 -5.5
q-21 -6 -39.5 -20.5t-31.5 -34t-17 -41.5q-2 -10 -2 -20q0 -12 3 -23q10 -32 54.5 -54.5t104.5 -22.5q45 0 96 13.5t98 27.5l28 -88z" />
    <glyph glyph-name="uni0654064C" 
d="M59 2552q-26 0 -57.5 -16.5t-45.5 -43.5q-1 -2 -2 -12v-4q0 -9 4.5 -23t18 -31.5t42.5 -32.5q5 -3 11.5 -6.5t16.5 -8t24.5 -11.5t37.5 -17q17 34 22 77q1 12 1 23q0 30 -9 57q-8 20 -24.5 34.5t-39.5 14.5zM-254 2129q7 11 16 29t14.5 38t5 40.5t-12.5 36.5
q-11 15 -30 19q-10 2 -20 2t-25.5 -2.5t-32.5 -10.5t-23 -15l-52 57q3 4 15 14t32 20t47 18q23 6 49 6h7q43 -2 69.5 -23t39 -52.5t12.5 -69.5t-10 -73q52 17 108 44.5t103 69.5q-23 11 -41.5 19t-34.5 16q-37 18 -61 42.5t-36 52.5q-11 26 -11 53q0 3 0.5 18.5t12.5 43.5
q15 30 40.5 55.5t57 40.5t66.5 18h8q30 0 58 -13q55 -27 78 -72q21 -43 21 -92q0 -3 -1 -30.5t-21.5 -81t-51.5 -96.5q-33 -43 -84 -76t-102.5 -56.5t-96 -37.5t-64.5 -20zM-272 1505q2 29 3 52t3 52l157 50q-26 7 -47.5 24t-36.5 39t-23 48t-8 52q0 31 11 62.5t31 59.5
t49 49.5t65 32.5q30 9 57 9q2 0 17.5 -0.5t41.5 -7t49.5 -16t45.5 -18.5l-21 -82q-17 6 -36.5 13.5t-40 12.5t-42 5.5t-43.5 -5.5q-21 -6 -39.5 -20.5t-31.5 -34t-17 -41.5q-2 -10 -2 -20q0 -12 3 -23q10 -32 54.5 -54.5t104.5 -22.5q45 0 96 13.5t98 27.5l28 -88z" />
    <glyph glyph-name="uni0654064F" 
d="M16 2533q-26 0 -57.5 -16.5t-45.5 -43.5q-1 -2 -2 -12v-4q0 -9 4.5 -23t18 -31.5t42.5 -32.5q5 -3 11.5 -6.5t16.5 -8t24.5 -11.5t37.5 -17q17 34 22 77q1 12 1 23q0 30 -9 57q-8 20 -24.5 34.5t-39.5 14.5zM-286 2119l14 4q26 8 62.5 19t75.5 27.5t78 38t71 50.5
q-23 11 -41.5 19t-34.5 16q-37 18 -61 42.5t-36 52.5q-11 26 -11 53q0 3 0.5 18.5t12.5 43.5q15 30 40.5 55.5t57 40.5t66.5 18h8q30 0 58 -13q55 -27 78 -72q21 -43 21 -92q0 -3 -1 -30.5t-21.5 -81t-51.5 -96.5q-22 -29 -53.5 -53t-67 -44.5t-72 -36.5t-68.5 -28t-58 -20
l-39 -12q-1 0 -1.5 -0.5t-1.5 -0.5zM-272 1505q2 29 3 52t3 52l157 50q-26 7 -47.5 24t-36.5 39t-23 48t-8 52q0 31 11 62.5t31 59.5t49 49.5t65 32.5q30 9 57 9q2 0 17.5 -0.5t41.5 -7t49.5 -16t45.5 -18.5l-21 -82q-17 6 -36.5 13.5t-40 12.5t-42 5.5t-43.5 -5.5
q-21 -6 -39.5 -20.5t-31.5 -34t-17 -41.5q-2 -10 -2 -20q0 -12 3 -23q10 -32 54.5 -54.5t104.5 -22.5q45 0 96 13.5t98 27.5l28 -88z" />
    <glyph glyph-name="uni06540652" 
d="M-212 2325q0 -30 11.5 -56t31 -45.5t45.5 -31t56 -11.5t56 11.5t45.5 31t31 45.5t11.5 56t-11.5 56t-31 45.5t-45.5 31t-56 11.5t-56 -11.5t-45.5 -31t-31 -45.5t-11.5 -56zM-293 2324q0 47 17.5 88t48 72t71.5 48.5t87 17.5q47 0 88 -17.5t72 -48.5t48.5 -72t17.5 -88
q0 -46 -17.5 -87t-48.5 -71.5t-72 -48t-88 -17.5q-46 0 -87 17.5t-71.5 48t-48 71.5t-17.5 87zM-272 1505q2 29 3 52t3 52l157 50q-26 7 -47.5 24t-36.5 39t-23 48t-8 52q0 31 11 62.5t31 59.5t49 49.5t65 32.5q30 9 57 9q2 0 17.5 -0.5t41.5 -7t49.5 -16t45.5 -18.5
l-21 -82q-17 6 -36.5 13.5t-40 12.5t-42 5.5t-43.5 -5.5q-21 -6 -39.5 -20.5t-31.5 -34t-17 -41.5q-2 -10 -2 -20q0 -12 3 -23q10 -32 54.5 -54.5t104.5 -22.5q45 0 96 13.5t98 27.5l28 -88z" />
    <glyph glyph-name="uni0655064D" 
d="M-219 -1010l502 186v-91l-502 -187v92zM-219 -778l502 186v-91l-502 -187v92zM-235 -635q2 29 3 52t3 52l157 50q-26 7 -47.5 24t-36.5 39t-23 48t-8 52q0 31 11 62.5t31 59.5t49 49.5t65 32.5q30 9 57 9q2 0 17.5 -0.5t41.5 -7t49.5 -16t45.5 -18.5l-21 -82
q-17 6 -36.5 13.5t-40 12.5t-42 5.5t-43.5 -5.5q-21 -6 -39.5 -20.5t-31.5 -34t-17 -41.5q-2 -10 -2 -20q0 -12 3 -23q10 -32 54.5 -54.5t104.5 -22.5q45 0 96 13.5t98 27.5l28 -88z" />
    <glyph glyph-name="uni06550650" 
d="M-228 -795l502 186v-91l-502 -187v92zM-235 -635q2 29 3 52t3 52l157 50q-26 7 -47.5 24t-36.5 39t-23 48t-8 52q0 31 11 62.5t31 59.5t49 49.5t65 32.5q30 9 57 9q2 0 17.5 -0.5t41.5 -7t49.5 -16t45.5 -18.5l-21 -82q-17 6 -36.5 13.5t-40 12.5t-42 5.5t-43.5 -5.5
q-21 -6 -39.5 -20.5t-31.5 -34t-17 -41.5q-2 -10 -2 -20q0 -12 3 -23q10 -32 54.5 -54.5t104.5 -22.5q45 0 96 13.5t98 27.5l28 -88z" />
    <glyph glyph-name="uni0692" unicode="&#x692;" horiz-adv-x="826" 
d="M0 -553v122h139q235 0 344 123q100 114 100 341v642h123v-642q0 -290 -143.5 -438t-423.5 -148h-139zM918 1281l-226 -408h-103l-227 408h113l164 -329l168 329h111z" />
    <glyph glyph-name="uni0695" unicode="&#x695;" horiz-adv-x="826" 
d="M0 -553v122h139q235 0 344 123q100 114 100 341v642h123v-642q0 -290 -143.5 -438t-423.5 -148h-139zM644 -679l-226 -408h-103l-227 408h113l164 -329l168 329h111z" />
    <glyph glyph-name="uni06A8" unicode="&#x6a8;" horiz-adv-x="1620" 
d="M1060 856q181 0 279 -116q108 -127 108 -400v-390q0 -227 -105 -348q-33 -38 -75.5 -66.5t-94.5 -47.5q-107 -40 -260 -40h-235q-144 0 -262 63.5t-192 180.5q-51 81 -75 182q-20 84 -20 177q0 19 1 39q5 124 43.5 252t108.5 274l111 -53q-60 -125 -94.5 -239.5
t-42.5 -216.5q-2 -31 -2 -61q0 -68 14.5 -143t59.5 -146q57 -89 147.5 -137.5t202.5 -48.5h235q241 0 337 111q75 87 75 267v51h-258q-75 0 -146.5 20t-127 66t-89 120t-33.5 181q0 88 21 172t67.5 150t120.5 106.5t181 40.5zM1324 123v217q0 113 -19.5 193.5t-59.5 127.5
q-32 37 -76.5 54.5t-108.5 17.5q-63 0 -112.5 -23.5t-84 -68t-52.5 -109t-18 -145.5q0 -67 19.5 -112.5t49 -75t64 -45t65 -22.5t51.5 -8t24 -1h258zM979 1167l-124 -125l-124 123l125 126zM1382 1170l-124 -124l-126 124l125 125zM1184 1442l-124 -124l-126 124l125 125z
" />
    <glyph glyph-name="uni06AA" unicode="&#x6aa;" horiz-adv-x="2306" 
d="M1631 1200q-1 0 -37 -11t-94 -32.5t-132 -53.5t-150 -74q-88 -49 -156.5 -100.5t-117.5 -105.5q-89 -96 -110 -200q34 0 95 -0.5t158 -0.5h235.5h328.5q107 0 204 -34.5t174 -99.5q35 -30 63 -66t47 -74t29 -76.5t10 -73.5q0 -43 -16 -79.5t-47 -62.5q-62 -54 -171 -54
l-522 -2h-967q-64 0 -121.5 21.5t-101.5 63.5q-18 16 -36 39.5t-32.5 55.5t-24 73t-9.5 92q0 33 5 71.5t12.5 77t16.5 75t16.5 65t13 47t6.5 20.5l117 -37l-4 -16q-5 -17 -12.5 -43t-15.5 -59.5t-15.5 -68.5t-12 -69.5t-4.5 -62.5q0 -62 18 -104t46.5 -68.5t64.5 -38
t73 -11.5h891l598 2q64 0 91 24q20 16 20 49q0 21 -7.5 46.5t-21 51.5t-33 51.5t-43.5 46.5q-60 51 -137 78t-162 27h-349h-243t-156 0.5t-88.5 0.5h-39.5h-10l-60 62q0 91 37 177t112 167q112 123 307 231q81 45 158 78.5t138 56t99.5 34t41.5 12.5z" />
    <glyph glyph-name="uni06B5" unicode="&#x6b5;" 
d="M1384 2022l-226 -408h-103l-227 408h113l164 -329l168 329h111zM1183 -48q0 -115 -25.5 -200.5t-79.5 -148.5q-40 -45 -88.5 -74.5t-103 -47.5t-115 -25t-123.5 -7h-72q-125 0 -228.5 55.5t-167.5 158.5q-44 69 -64 155q-18 72 -18 152q0 15 1 31q4 105 35.5 219
t90.5 237l111 -53q-100 -210 -113 -383q-2 -27 -2 -53q0 -139 63 -240q47 -75 123 -115.5t169 -40.5h72q122 0 205 27.5t131 83.5q39 45 57.5 111t18.5 158v1475h123v-1475z" />
    <glyph glyph-name="uni06440675.isol" horiz-adv-x="1302" 
d="M1099 617q0 -128 -13.5 -224t-42 -164.5t-72.5 -113t-106.5 -70t-143 -35.5t-181.5 -10h-403v123h403q103 4 175.5 17t121 37.5t76.5 62t42 91t17.5 124.5t3.5 162v811h123v-811zM258 332v1095h125v-1095h-125zM467 1441q2 29 3 52t3 52l157 50q-26 7 -47.5 24t-36.5 39
t-23 48t-8 52q0 31 11 62.5t31 59.5t49 49.5t65 32.5q30 9 57 9q2 0 17.5 -0.5t41.5 -7t49.5 -16t45.5 -18.5l-21 -82q-17 6 -36.5 13.5t-40 12.5t-42 5.5t-43.5 -5.5q-21 -6 -39.5 -20.5t-31.5 -34t-17 -41.5q-2 -10 -2 -20q0 -12 3 -23q10 -32 54.5 -54.5t104.5 -22.5
q45 0 96 13.5t98 27.5l28 -88z" />
    <glyph glyph-name="uni06440675.fina" horiz-adv-x="1340" 
d="M1124 616q0 -122 7.5 -214t29.5 -154t61.5 -93.5t103.5 -31.5h33v-123h-33q-56 0 -99 15t-76.5 41t-57.5 62t-40 78q-30 -58 -75 -96t-105 -60t-137 -31t-171 -9h-403v123h403q103 4 175.5 17t121 37.5t76.5 62t42 91t17.5 124.5t3.5 162v811h123v-812zM283 332v1095h125
v-1095h-125zM467 1451q2 29 3 52t3 52l157 50q-26 7 -47.5 24t-36.5 39t-23 48t-8 52q0 31 11 62.5t31 59.5t49 49.5t65 32.5q30 9 57 9q2 0 17.5 -0.5t41.5 -7t49.5 -16t45.5 -18.5l-21 -82q-17 6 -36.5 13.5t-40 12.5t-42 5.5t-43.5 -5.5q-21 -6 -39.5 -20.5t-31.5 -34
t-17 -41.5q-2 -10 -2 -20q0 -12 3 -23q10 -32 54.5 -54.5t104.5 -22.5q45 0 96 13.5t98 27.5l28 -88z" />
    <glyph glyph-name="uni06B50627.isol" horiz-adv-x="1302" 
d="M1099 617q0 -128 -13.5 -224t-42 -164.5t-72.5 -113t-106.5 -70t-143 -35.5t-181.5 -10h-403v123h403q103 4 175.5 17t121 37.5t76.5 62t42 91t17.5 124.5t3.5 162v811h123v-811zM258 332v1095h125v-1095h-125zM1317 1965l-226 -408h-103l-227 408h113l164 -329l168 329
h111z" />
    <glyph glyph-name="uni06B50627.fina" horiz-adv-x="1340" 
d="M1124 616q0 -122 7.5 -214t29.5 -154t61.5 -93.5t103.5 -31.5h33v-123h-33q-56 0 -99 15t-76.5 41t-57.5 62t-40 78q-30 -58 -75 -96t-105 -60t-137 -31t-171 -9h-403v123h403q103 4 175.5 17t121 37.5t76.5 62t42 91t17.5 124.5t3.5 162v811h123v-812zM283 332v1095h125
v-1095h-125zM1336 1965l-226 -408h-103l-227 408h113l164 -329l168 329h111z" />
    <glyph glyph-name="uni065A" unicode="&#x65a;" 
d="M281 1426l-226 -408h-103l-227 408h113l164 -329l168 329h111z" />
    <glyph glyph-name="uni065B" unicode="&#x65b;" 
d="M170 1071l-168 329l-164 -329h-113l227 408h103l226 -408h-111z" />
    <glyph glyph-name="smallv.arabic" 
d="M281 1696l-226 -408h-103l-227 408h113l164 -329l168 329h111z" />
    <glyph glyph-name="circumflex.arabic" 
d="M170 1288l-168 329l-164 -329h-113l227 408h103l226 -408h-111z" />
    <glyph glyph-name="uni06A4" unicode="&#x6a4;" horiz-adv-x="2127" 
d="M1462 123q88 5 161 12.5t127.5 31.5t89.5 71t47 132q-42 -7 -100 -13.5t-118 -6.5q-94 0 -171 20.5t-132 63.5t-85 109t-30 157q0 79 26.5 150.5t74.5 125t116 84.5q64 28 141 28h10q85 -1 147 -29t106 -75.5t72 -110.5t43.5 -134t21.5 -146.5t6 -146.5
q0 -131 -39.5 -217t-112 -137t-174.5 -71.5t-227 -20.5h-1006q-64 0 -121.5 21.5t-101.5 63.5q-18 16 -36 39.5t-32.5 55.5t-24 73t-9.5 92q0 33 5 71.5t12.5 77t16.5 75t16.5 65t13 47t6.5 20.5l117 -37l-4 -16q-5 -17 -12.5 -43t-15.5 -59.5t-15.5 -68.5t-12 -69.5
t-4.5 -62.5q0 -62 18 -104t46.5 -68.5t64.5 -38t73 -11.5h1006zM1669 473q31 0 62.5 2t60.5 5.5t55 7.5t45 7q-1 44 -5 95.5t-14 104t-28.5 101t-48.5 86.5t-73.5 60.5t-103.5 22.5q-63 0 -109.5 -23t-76.5 -60t-44.5 -85t-14.5 -97q0 -68 22.5 -111.5t62.5 -69t94 -36
t116 -10.5zM1442 1318l-124 -125l-124 123l125 126zM1845 1321l-124 -124l-126 124l125 125zM1647 1593l-124 -124l-126 124l125 125z" />
    <glyph glyph-name="uni06C6" unicode="&#x6c6;" horiz-adv-x="1024" 
d="M777 123v249q-2 79 -14.5 146.5t-42.5 117t-80 77t-128 27.5q-77 0 -128 -28t-81.5 -77.5t-43 -117t-12.5 -145.5q0 -69 24 -116.5t67 -77t100.5 -42.5t125.5 -13h213zM512 863q103 -4 177 -41t120.5 -101.5t68.5 -153t22 -195.5v-389q0 -132 -45.5 -233t-132.5 -169
t-207.5 -100.5t-263.5 -32.5h-57v123h57q121 3 217.5 24t164.5 70t105 130.5t39 204.5h-228q-84 0 -161 22t-136.5 68.5t-93.5 117t-34 164.5q0 106 21.5 194.5t68 153t120 102t178.5 41.5zM813 1473l-226 -408h-103l-227 408h113l164 -329l168 329h111z" />
    <glyph glyph-name="uni06CE" unicode="&#x6ce;" horiz-adv-x="1671" 
d="M1356 871q49 0 98.5 -7t100.5 -22l-34 -118q-84 24 -164 24q-97 0 -182.5 -33t-151.5 -98q-78 -76 -109 -179q-20 -63 -20 -129q0 -41 8 -83q16 -5 51.5 -14.5t81.5 -21.5t97.5 -26t100 -27t88.5 -24t64 -17q40 -11 63.5 -26t34.5 -33t14 -39t3 -44q0 -34 -5 -78
t-16.5 -90.5t-31 -91t-48.5 -79.5q-40 -49 -87.5 -81t-102 -51t-115 -26.5t-127.5 -7.5h-255q-67 0 -132 16t-125 48.5t-110.5 79t-88.5 106.5q-55 88 -77 188q-19 82 -19 168q0 19 1 38q9 247 148 535l111 -53q-60 -124 -93.5 -239.5t-40.5 -218.5q-2 -31 -2 -60
q0 -69 15.5 -145t60.5 -148q58 -92 151.5 -142t208.5 -50h247q123 0 202 29t130 85q25 27 41.5 62.5t26 74t12.5 77.5q1 15 1 30q0 21 -2 41l-579 156l-9 34q-19 71 -19 143v42t19 109t56 133.5t91 116.5q41 40 89.5 71.5t102.5 52.5t112 32q52 10 105 10h10zM896 1222
l-226 -408h-103l-227 408h113l164 -329l168 329h111z" />
    <glyph glyph-name="uni060D" unicode="&#x60d;" horiz-adv-x="662" 
d="M668 0h-117q-51 0 -96 -24t-84 -75.5t-73 -132t-62 -192.5l-135 35q37 141 81.5 239t99.5 158.5t121 87.5t146 27h119v-123z" />
    <glyph glyph-name="patah.wide" horiz-adv-x="699" 
d="M0 297v132h700v-132h-700z" />
    <glyph glyph-name="uniFD3E" unicode="&#xfd3e;" horiz-adv-x="762" 
d="M622 1614l-15 -19q-16 -20 -40.5 -56t-55.5 -88t-63 -117q-29 -60 -59.5 -135.5t-55.5 -164.5t-40.5 -189.5t-15.5 -208.5t16 -208.5t41 -189t55.5 -164t60.5 -134.5q32 -65 62.5 -115.5t54.5 -86t39 -54.5l15 -19l-94 -80q-2 2 -18 23t-42.5 59.5t-59.5 93.5t-67 124
q-82 163 -128 331q-29 106 -43.5 210.5t-14.5 209.5t14.5 210.5t43.5 211.5q46 169 128 334q34 69 67.5 124t59.5 94t42.5 60t18.5 23z" />
    <glyph glyph-name="uniFD3F" unicode="&#xfd3f;" horiz-adv-x="753" 
d="M140 1614l94 79q2 -2 18.5 -23t42.5 -60t59.5 -94t67.5 -124q82 -165 128 -334q29 -106 43.5 -211.5t14.5 -210.5t-14.5 -209.5t-43.5 -210.5q-46 -168 -128 -331q-34 -69 -67 -124t-59.5 -93.5t-42.5 -59.5t-18 -23l-94 80l15 19q15 19 39 54.5t54.5 86t62.5 115.5
q30 59 60.5 134.5t55.5 164t41 189t16 208.5t-15.5 208.5t-40.5 189.5t-55.5 164.5t-59.5 135.5q-32 65 -63 117t-55.5 88t-40.5 56z" />
    <glyph glyph-name="hah_alt.isol" horiz-adv-x="1475" 
d="M509 1084q22 -3 38.5 -5t37 -6.5t50 -13.5t78 -27.5t121 -48t179.5 -74.5q69 -29 133 -57t113.5 -49.5t79.5 -34.5l30 -14l-4 -114q-1 0 -44.5 -16t-124 -46t-195 -72.5t-256.5 -96.5q-61 -23 -125.5 -49t-125 -58t-113 -73t-89 -94t-53.5 -120q-12 -43 -12 -94
q0 -28 4 -58q4 -117 51.5 -205.5t127 -147.5t187 -88.5t232.5 -29.5h438v-123h-438q-170 0 -300.5 42.5t-220.5 119.5t-140 185.5t-60 240.5q-2 30 -2 58q0 67 16 135t55.5 132t96.5 114.5t125.5 91t145.5 73.5t157 63q155 59 276 104t202 75q-101 44 -206 89.5t-198 83
t-164 61.5t-104 24q-63 0 -113.5 -50t-73.5 -139l-119 31q15 55 41.5 104.5t65 88t88.5 62t112 26.5z" />
    <glyph glyph-name="hah_alt.fina" horiz-adv-x="1565" 
d="M483 1014q22 -3 38.5 -5t37 -6.5t50 -13.5t78 -27.5t121 -48t179.5 -74.5q69 -29 133 -57t113.5 -49.5t79.5 -34.5l30 -14l-4 -114q-1 -1 -49 -18.5t-137 -50.5v-184q0 -54 20 -91t51.5 -60t70 -33t76.5 -10h225v-123h-225q-67 0 -127 20t-106 57q-53 44 -80.5 104.5
t-27.5 135.5v138q-66 -25 -144 -53.5t-167 -62.5q-61 -23 -125.5 -49t-125 -58t-113 -73t-89 -94t-53.5 -120q-12 -43 -12 -94q0 -28 4 -58q4 -117 51.5 -205.5t127 -147.5t187 -88.5t232.5 -29.5h438v-123h-438q-170 0 -300.5 42.5t-220.5 119.5t-140 185.5t-60 240.5
q-2 30 -2 58q0 67 16 135t55.5 132t96.5 114.5t125.5 91t145.5 73.5t157 63q155 59 276 104t202 75q-101 44 -206 89.5t-198 83t-164 61.5t-104 24q-63 0 -113.5 -50t-73.5 -139l-119 31q15 55 41.5 104.5t65 88t88.5 62t112 26.5z" />
    <glyph glyph-name="sarya" 
d="M90 1730q20 0 42.5 -2.5t47.5 -9.5l-24 -91q-35 9 -65 9q-56 0 -92 -30q-22 -18 -34.5 -45.5t-15.5 -59.5q60 -10 95 -16t55 -11q30 -7 44 -17q27 -19 27 -50q0 -9 -0.5 -22.5t-3.5 -30.5t-10 -35t-19 -36q-56 -81 -196 -81h-110v94h110q42 0 68 8t40 20.5t19.5 28
t6.5 30.5q-23 5 -70.5 13t-110.5 19l-36 6l-3 36q-1 12 -1 24q0 53 19.5 106t64.5 91q24 20 61 36t91 16z" />
    <glyph glyph-name="diagonal" horiz-adv-x="957" 
d="M99 1335l759 327l40 -80l-807 -349z" />
    <glyph glyph-name="uni25CC" unicode="&#x25cc;" horiz-adv-x="1217" 
d="M980 918q0 -50 -48 -50q-52 0 -52 50t52 50q48 0 48 -50zM832 1016q0 -49 -48 -49q-52 0 -52 49q0 51 52 51q48 0 48 -51zM1079 770q0 -51 -51 -51q-49 0 -49 51q0 49 51 49q49 0 49 -49zM1115 596q0 -50 -48 -50q-52 0 -52 50t52 50q48 0 48 -50zM658 1053
q0 -51 -50 -51t-50 51q0 49 50 49t50 -49zM485 1016q0 -49 -51 -49q-49 0 -49 49q0 51 49 51q51 0 51 -51zM1079 422q0 -49 -51 -49q-49 0 -49 49q0 51 49 51q51 0 51 -51zM337 918q0 -50 -50 -50t-50 47q0 53 50 53t50 -50zM980 272q0 -49 -48 -49q-52 0 -52 49q0 51 52 51
q48 0 48 -51zM832 174q0 -48 -48 -48q-52 0 -52 48q0 52 52 52q48 0 48 -52zM238 770q0 -51 -48 -51q-52 0 -52 51q0 49 50 49t50 -49zM202 592q0 -46 -48 -46q-52 0 -52 50t52 50q48 0 48 -46v-8zM658 141q0 -51 -50 -51t-50 51q0 49 50 49t50 -49zM238 422q0 -49 -50 -49
t-50 49q0 51 50 51t50 -51zM485 178q0 -52 -51 -52q-49 0 -49 48q0 52 49 52q51 0 51 -48zM337 272q0 -49 -50 -49t-50 49q0 51 50 51t50 -51z" />
    <glyph glyph-name="ZWSP" unicode="&#x200b;" 
 />
    <glyph glyph-name="uni200C" unicode="&#x200c;" 
d="M36 1667v-1484h-72v1484h72z" />
    <glyph glyph-name="uni200D" unicode="&#x200d;" 
d="M36 183h-72v1185l-134 -136l-49 49l171 169l-171 168l49 49l170 -171l170 171l49 -49l-171 -168l171 -169l-49 -49l-134 136v-1185z" />
    <glyph glyph-name="uni200E" unicode="&#x200e;" 
d="M430 1452l-217 -214l-49 49l137 130h-266v-1234h-71v1305h337l-137 130l49 49z" />
    <glyph glyph-name="uni200F" unicode="&#x200f;" 
d="M35 183h-71v1234h-266l137 -130l-49 -49l-217 214l217 215l49 -49l-137 -130h337v-1305z" />
    <glyph glyph-name="thin_hairSpace" unicode="&#x2009;" 
 />
    <glyph glyph-name="thin_hairSpace" unicode="&#x200a;" 
 />
    <glyph glyph-name="word_joiner" unicode="&#x2060;" 
 />
    <glyph glyph-name="line_seperator" unicode="&#x2028;" 
 />
    <glyph glyph-name="paragraph_seperator" unicode="&#x2029;" 
 />
    <glyph glyph-name="exclam" unicode="!" horiz-adv-x="496" 
d="M305 435h-119l-7 1129h134zM110 80l142 144l146 -146l-144 -144z" />
    <glyph glyph-name="quotedbl" unicode="&#x22;" horiz-adv-x="632" 
d="M261 1500l-21 -337h-86l3 487h104v-150zM515 1500l-22 -337h-87l4 487h105v-150z" />
    <glyph glyph-name="numbersign" unicode="#" horiz-adv-x="1279" 
d="M809 440h-337l-83 -440h-106l82 440h-274v100h292l90 474h-300v103h319l85 447h106l-85 -447h339l85 447h107l-85 -447h246v-103h-265l-89 -474h274v-100h-294l-82 -440h-108zM490 540h338l89 474h-338z" />
    <glyph glyph-name="dollar" unicode="$" horiz-adv-x="1219" 
d="M968 386q0 119 -77.5 194.5t-272.5 143.5q-243 76 -341 181t-98 271q0 175 107.5 284t292.5 124v217h110v-217q189 -17 292.5 -141.5t103.5 -338.5h-128q0 169 -87.5 268.5t-238.5 99.5q-153 0 -238.5 -80t-85.5 -214q0 -128 78.5 -201t267 -136.5t274 -122t128 -138.5
t42.5 -192q0 -176 -110 -284t-303 -123v-204h-108v203q-216 14 -334 135.5t-118 333.5h128q0 -168 98 -263t273 -95q153 0 249 82t96 213z" />
    <glyph glyph-name="percent" unicode="%" horiz-adv-x="1625" 
d="M117 1263q0 140 86.5 232t219.5 92t219.5 -92t86.5 -238v-76q0 -138 -85 -230t-219 -92q-132 0 -220 90.5t-88 238.5v75zM221 1181q0 -100 55.5 -164.5t148.5 -64.5q92 0 146 65t54 168v78q0 100 -56 165t-146 65q-89 0 -145.5 -64.5t-56.5 -171.5v-76zM904 383
q0 140 86.5 231.5t219.5 91.5q132 0 219.5 -91t87.5 -239v-76q0 -140 -86.5 -231.5t-218.5 -91.5t-220 91t-88 237v78zM1008 300q0 -101 55 -165.5t149 -64.5q92 0 146.5 65t54.5 170v78q0 104 -55.5 166.5t-147.5 62.5q-91 0 -146.5 -63t-55.5 -170v-79zM466 130l-80 52
l763 1222l81 -52z" />
    <glyph glyph-name="ampersand" unicode="&#x26;" horiz-adv-x="1354" 
d="M434 853q-93 113 -135.5 201.5t-42.5 175.5q0 164 97.5 260t262.5 96q149 0 241.5 -86.5t92.5 -220.5q0 -154 -179 -304l-172 -133l430 -500q98 158 98 357h119q0 -266 -137 -450l213 -249h-154l-136 157q-85 -84 -196 -131t-234 -47q-224 0 -355 114t-131 306
q0 113 67 214.5t236 228.5zM602 87q97 0 189 41.5t165 117.5l-437 507l-15 16l-50 -37q-210 -172 -210 -333q0 -141 96.5 -226.5t261.5 -85.5zM385 1234q0 -131 145 -309l140 107q69 50 113 109t44 138q0 84 -58 140.5t-155 56.5q-105 0 -167 -67.5t-62 -174.5z" />
    <glyph glyph-name="quotesingle" unicode="'" horiz-adv-x="374" 
d="M243 1499l-18 -328h-97q5 318 5 479h110v-151z" />
    <glyph glyph-name="parenleft" unicode="(" horiz-adv-x="762" 
d="M622 1614l-15 -19q-16 -20 -40.5 -56t-55.5 -88t-63 -117q-29 -60 -59.5 -135.5t-55.5 -164.5t-40.5 -189.5t-15.5 -208.5t16 -208.5t41 -189t55.5 -164t60.5 -134.5q32 -65 62.5 -115.5t54.5 -86t39 -54.5l15 -19l-94 -80q-2 2 -18 23t-42.5 59.5t-59.5 93.5t-67 124
q-82 163 -128 331q-29 106 -43.5 210.5t-14.5 209.5t14.5 210.5t43.5 211.5q46 169 128 334q34 69 67.5 124t59.5 94t42.5 60t18.5 23z" />
    <glyph glyph-name="parenright" unicode=")" horiz-adv-x="753" 
d="M140 1614l94 79q2 -2 18.5 -23t42.5 -60t59.5 -94t67.5 -124q82 -165 128 -334q29 -106 43.5 -211.5t14.5 -210.5t-14.5 -209.5t-43.5 -210.5q-46 -168 -128 -331q-34 -69 -67 -124t-59.5 -93.5t-42.5 -59.5t-18 -23l-94 80l15 19q15 19 39 54.5t54.5 86t62.5 115.5
q30 59 60.5 134.5t55.5 164t41 189t16 208.5t-15.5 208.5t-40.5 189.5t-55.5 164.5t-59.5 135.5q-32 65 -63 117t-55.5 88t-40.5 56z" />
    <glyph glyph-name="asterisk" unicode="*" horiz-adv-x="933" 
d="M388 1074l-357 116l35 109l356 -132l-4 397h112l-9 -401l348 137l35 -109l-357 -123l239 -316l-91 -68l-230 328l-219 -326l-91 66z" />
    <glyph glyph-name="plus" unicode="+" horiz-adv-x="1242" 
d="M677 795h476v-120h-476v-518h-130v518h-466v120h466v501h130v-501z" />
    <glyph glyph-name="comma" unicode="," horiz-adv-x="421" 
d="M141 -292l-77 56q98 131 101 271v167h126v-134q0 -224 -150 -360z" />
    <glyph glyph-name="hyphen" unicode="-" horiz-adv-x="629" 
d="M567 636h-514v108h514v-108z" />
    <glyph glyph-name="period" unicode="." horiz-adv-x="525" 
d="M146 87q0 41 26.5 70t74.5 29q47 0 74.5 -29t27.5 -70q0 -42 -27.5 -69t-74.5 -27q-48 0 -74.5 27t-26.5 69z" />
    <glyph glyph-name="slash" unicode="/" horiz-adv-x="873" 
d="M149 -134h-117l653 1698h116z" />
    <glyph glyph-name="zero" unicode="0" horiz-adv-x="1219" 
d="M1090 652q0 -331 -121 -502t-358 -171q-232 0 -355.5 168t-126.5 489v280q0 330 122.5 500t357.5 170q232 0 354.5 -164t126.5 -483v-287zM961 932q0 269 -87.5 406.5t-264.5 137.5q-174 0 -262 -134.5t-90 -396.5v-307q0 -267 90.5 -409t263.5 -142q172 0 260.5 138.5
t89.5 406.5v300z" />
    <glyph glyph-name="one" unicode="1" horiz-adv-x="1219" 
d="M746 0h-129v1409l-426 -158v121l533 197h22v-1569z" />
    <glyph glyph-name="two" unicode="2" horiz-adv-x="1219" 
d="M1127 0h-980v99l536 608q133 153 185 253t52 195q0 148 -87 234.5t-240 86.5q-158 0 -255 -101t-97 -262h-128q0 132 59.5 240.5t169.5 170.5t251 62q215 0 336 -113t121 -307q0 -110 -68.5 -240t-240.5 -324l-436 -494h822v-108z" />
    <glyph glyph-name="three" unicode="3" horiz-adv-x="1219" 
d="M433 852h133q111 0 193.5 39t126 107.5t43.5 157.5q0 150 -85 235t-244 85q-150 0 -246 -88.5t-96 -233.5h-129q0 121 61 221.5t169.5 155.5t240.5 55q213 0 335.5 -116t122.5 -318q0 -113 -71.5 -208t-195.5 -143q146 -40 221 -139.5t75 -237.5q0 -201 -131 -323
t-350 -122q-140 0 -256.5 55.5t-180.5 156t-64 233.5h129q0 -149 104.5 -243t267.5 -94q166 0 259 85.5t93 247.5q0 157 -100.5 239.5t-295.5 82.5h-129v110z" />
    <glyph glyph-name="four" unicode="4" horiz-adv-x="1219" 
d="M937 504h244v-109h-244v-395h-129v395h-736v73l724 1096h141v-1060zM230 504h578v894l-57 -99z" />
    <glyph glyph-name="five" unicode="5" horiz-adv-x="1219" 
d="M234 801l76 763h782v-119h-671l-55 -529q126 86 295 86q211 0 337 -137.5t126 -366.5q0 -247 -122.5 -383t-345.5 -136q-204 0 -330.5 113.5t-145.5 318.5h124q18 -160 108.5 -242t243.5 -82q168 0 253.5 106.5t85.5 302.5q0 172 -95.5 280.5t-261.5 108.5
q-91 0 -159 -23t-143 -90z" />
    <glyph glyph-name="six" unicode="6" horiz-adv-x="1219" 
d="M906 1576v-113h-15q-281 0 -442 -165t-178 -458q64 89 164 138t223 49q207 0 329 -142.5t122 -372.5q0 -152 -57 -274.5t-163.5 -190.5t-242.5 -68q-225 0 -365.5 162.5t-140.5 420.5v129q0 420 191 650.5t542 234.5h33zM638 916q-122 0 -228 -72.5t-141 -183.5v-110
q0 -204 104.5 -333t272.5 -129q150 0 243 119.5t93 300.5q0 185 -93 296.5t-251 111.5z" />
    <glyph glyph-name="seven" unicode="7" horiz-adv-x="1219" 
d="M1111 1490l-668 -1490h-135l664 1454h-889v110h1028v-74z" />
    <glyph glyph-name="eight" unicode="8" horiz-adv-x="1219" 
d="M1069 1161q0 -121 -71 -217t-187 -142q135 -46 217 -149t82 -238q0 -201 -136.5 -318.5t-361.5 -117.5q-226 0 -362 117t-136 319q0 133 78.5 237t214.5 150q-116 46 -184.5 142t-68.5 217q0 195 125 310t331 115t332.5 -116t126.5 -309zM981 414q0 146 -104.5 240
t-266.5 94t-265 -92.5t-103 -241.5q0 -150 100 -238.5t270 -88.5q167 0 268 88t101 239zM940 1162q0 135 -93 224.5t-237 89.5q-146 0 -236.5 -86.5t-90.5 -227.5q0 -137 90.5 -221t237.5 -84q145 0 237 84.5t92 220.5z" />
    <glyph glyph-name="nine" unicode="9" horiz-adv-x="1219" 
d="M950 724q-69 -101 -171 -156.5t-221 -55.5q-134 0 -236 69t-158 190.5t-56 265.5q0 154 60 281t167 197.5t246 70.5q235 0 366.5 -165t131.5 -468v-116q0 -423 -180.5 -636t-551.5 -213h-24l1 112h46q280 4 426 159t154 465zM574 623q129 0 231.5 77t145.5 199v74
q0 239 -99.5 370.5t-268.5 131.5q-152 0 -250 -123t-98 -310q0 -179 94 -299t245 -120z" />
    <glyph glyph-name="colon" unicode=":" horiz-adv-x="462" 
d="M136 77q0 38 24.5 64.5t67.5 26.5t67.5 -26.5t24.5 -63.5q0 -38 -24.5 -62.5t-67.5 -24.5t-67.5 24.5t-24.5 61.5zM139 833q0 37 24 63.5t67 26.5t67.5 -26.5t24.5 -63.5q0 -38 -24.5 -62t-67.5 -24t-67 24t-24 62z" />
    <glyph glyph-name="semicolon" unicode=";" horiz-adv-x="429" 
d="M127 833q0 37 24 63.5t67 26.5t67.5 -26.5t24.5 -63.5q0 -38 -24.5 -62t-67.5 -24t-67 24t-24 62zM141 -292l-77 56q98 131 101 271v167h126v-134q0 -224 -150 -360z" />
    <glyph glyph-name="less" unicode="&#x3c;" horiz-adv-x="1125" 
d="M223 704l748 -323v-135l-888 407v104l888 406v-135z" />
    <glyph glyph-name="equal" unicode="=" horiz-adv-x="1217" 
d="M1056 891h-896v113h896v-113zM1056 449h-896v114h896v-114z" />
    <glyph glyph-name="greater" unicode="&#x3e;" horiz-adv-x="1140" 
d="M897 708l-764 325v133l908 -407v-104l-908 -407v133z" />
    <glyph glyph-name="question" unicode="?" horiz-adv-x="999" 
d="M404 434q2 127 34.5 204t138.5 182t136.5 148.5t47.5 95.5t17 119q0 134 -71.5 211t-199.5 77q-129 0 -208 -74t-81 -199h-128q2 176 119.5 282t297.5 106q185 0 292 -108t107 -293q0 -116 -53 -217.5t-200 -237.5q-121 -102 -121 -296h-128zM387 75q0 37 23 62t65 25
q41 0 65 -25t24 -62q0 -35 -24 -59.5t-65 -24.5q-42 0 -65 24.5t-23 59.5z" />
    <glyph glyph-name="at" unicode="@" horiz-adv-x="2009" 
d="M1884 551q-5 -158 -57.5 -292.5t-145.5 -207t-216 -72.5q-104 0 -169.5 54.5t-87.5 153.5q-116 -208 -320 -208q-150 0 -224 130q-59 103 -59 264q0 41 4 86q16 175 80 312t166.5 213.5t219.5 76.5q83 0 145.5 -23t144.5 -93l-54 -612q-2 -25 -2 -49q0 -90 38 -151.5
t131 -61.5q132 0 214.5 129.5t91.5 350.5q2 44 2 86q0 371 -176.5 579.5t-553.5 208.5q-227 0 -409 -113t-287 -320.5t-118 -477.5q-2 -36 -2 -71q0 -228 78.5 -420t249 -302.5t405.5 -110.5q99 0 194.5 23.5t160.5 61.5l33 -86q-61 -41 -170.5 -68.5t-221.5 -27.5
q-269 0 -462 121t-289 348q-86 200 -86 460q0 35 2 71q13 299 132 529.5t325 356.5t469 126q274 0 464 -114t282 -334q80 -193 80 -451q0 -37 -2 -75zM723 307q12 -107 60 -165.5t128 -58.5q199 0 293 274l49 554q-72 53 -170 53q-119 0 -207 -95.5t-128 -262.5
q-29 -120 -29 -222q0 -40 4 -77z" />
    <glyph glyph-name="A" unicode="A" horiz-adv-x="1374" 
d="M1042 438h-710l-161 -438h-139l592 1564h126l592 -1564h-138zM373 551h627l-314 852z" />
    <glyph glyph-name="B" unicode="B" horiz-adv-x="1348" 
d="M198 0v1564h462q251 0 381 -103.5t130 -305.5q0 -122 -66 -211.5t-181 -128.5q136 -30 219.5 -134t83.5 -241q0 -207 -134 -323.5t-372 -116.5h-523zM330 752v-640h396q170 0 269.5 86.5t99.5 239.5q0 145 -95.5 229.5t-262.5 84.5h-407zM330 863h361q165 3 256 77.5
t91 217.5q0 150 -94 221.5t-284 71.5h-330v-588z" />
    <glyph glyph-name="C" unicode="C" horiz-adv-x="1429" 
d="M1305 488q-27 -247 -176.5 -378t-399.5 -131q-174 0 -307.5 87t-206.5 246.5t-74 364.5v203q0 208 73 369t210 249t315 88q251 0 397 -136t169 -376h-133q-49 399 -433 399q-213 0 -339 -159t-126 -440v-191q0 -270 123 -431.5t332 -161.5q208 0 313 99.5t130 298.5h133z
" />
    <glyph glyph-name="D" unicode="D" horiz-adv-x="1441" 
d="M198 0v1564h437q192 0 344.5 -87.5t238 -251t85.5 -371.5v-144q0 -209 -85 -371.5t-239 -250.5t-354 -88h-427zM330 1451v-1339h296q247 0 396.5 163.5t149.5 443.5v137q0 270 -147 432t-388 163h-307z" />
    <glyph glyph-name="E" unicode="E" horiz-adv-x="1251" 
d="M1061 750h-731v-638h841v-112h-973v1564h968v-113h-836v-589h731v-112z" />
    <glyph glyph-name="F" unicode="F" horiz-adv-x="1238" 
d="M1059 730h-729v-730h-132v1564h969v-113h-837v-608h729v-113z" />
    <glyph glyph-name="G" unicode="G" horiz-adv-x="1504" 
d="M1327 186q-69 -98 -215.5 -152.5t-328.5 -54.5q-184 0 -326.5 88t-221 249t-79.5 369v198q0 325 164 514t442 189q241 0 388.5 -123t175.5 -339h-133q-29 172 -140 260.5t-290 88.5q-219 0 -347 -156t-128 -439v-185q0 -178 60.5 -315t174 -212.5t260.5 -75.5
q171 0 293 54q80 35 119 83v404h-420v111h552v-556z" />
    <glyph glyph-name="H" unicode="H" horiz-adv-x="1557" 
d="M1357 0h-133v750h-894v-750h-132v1564h132v-702h894v702h133v-1564z" />
    <glyph glyph-name="I" unicode="I" horiz-adv-x="585" 
d="M359 0h-132v1564h132v-1564z" />
    <glyph glyph-name="J" unicode="J" horiz-adv-x="1211" 
d="M888 1564h134v-1099q0 -222 -128.5 -354t-344.5 -132q-228 0 -350.5 119t-122.5 333h132q0 -170 89.5 -255.5t251.5 -85.5q149 0 243 99t96 269v1106z" />
    <glyph glyph-name="K" unicode="K" horiz-adv-x="1388" 
d="M550 777l-220 -217v-560h-132v1564h132v-843l801 843h167l-656 -696l706 -868h-161z" />
    <glyph glyph-name="L" unicode="L" horiz-adv-x="1159" 
d="M331 112h772v-112h-905v1564h133v-1452z" />
    <glyph glyph-name="M" unicode="M" horiz-adv-x="1904" 
d="M373 1564l577 -1380l579 1380h176v-1564h-132v681l10 698l-582 -1379h-102l-580 1374l11 -689v-685h-132v1564h175z" />
    <glyph glyph-name="N" unicode="N" horiz-adv-x="1562" 
d="M1362 0h-132l-899 1338v-1338h-133v1564h133l900 -1339v1339h131v-1564z" />
    <glyph glyph-name="O" unicode="O" horiz-adv-x="1489" 
d="M1354 697q0 -216 -75 -379t-213.5 -251t-319.5 -88q-274 0 -443 196t-169 529v161q0 214 76 378.5t214.5 253.5t319.5 89q180 0 318 -87t213 -246t79 -369v-187zM1221 867q0 282 -127.5 442.5t-350.5 160.5q-218 0 -347.5 -161t-129.5 -449v-163q0 -278 129 -441
t351 -163q224 0 349.5 161t125.5 447v166z" />
    <glyph glyph-name="P" unicode="P" horiz-adv-x="1355" 
d="M330 637v-637h-132v1564h532q244 0 385.5 -124.5t141.5 -342.5q0 -220 -136 -340t-394 -120h-397zM330 749h400q193 0 294 91t101 255q0 162 -100.5 258t-285.5 98h-409v-702z" />
    <glyph glyph-name="Q" unicode="Q" horiz-adv-x="1489" 
d="M1349 697q0 -223 -79 -389t-225 -251l285 -248l-91 -82l-319 276q-89 -24 -180 -24q-178 0 -317 88t-215.5 249.5t-77.5 373.5v175q0 214 75.5 378.5t214.5 253.5t318 89q183 0 321.5 -88.5t214 -252.5t75.5 -379v-169zM1217 867q0 282 -128 442.5t-351 160.5
q-217 0 -346.5 -161t-129.5 -449v-163q0 -278 128.5 -441t349.5 -163q224 0 350.5 160.5t126.5 446.5v167z" />
    <glyph glyph-name="R" unicode="R" horiz-adv-x="1396" 
d="M782 651h-454v-651h-134v1564h509q250 0 390.5 -121.5t140.5 -339.5q0 -150 -88 -265t-236 -159l391 -665v-14h-141zM328 764h405q166 0 267 94.5t101 244.5q0 166 -105 257t-296 91h-372v-687z" />
    <glyph glyph-name="S" unicode="S" horiz-adv-x="1303" 
d="M1083 385q0 130 -91.5 205.5t-334 143.5t-354.5 149q-159 114 -159 299q0 179 147.5 291.5t377.5 112.5q156 0 279 -60.5t190.5 -168t67.5 -239.5h-133q0 160 -109.5 257.5t-294.5 97.5q-179 0 -285.5 -80t-106.5 -209q0 -119 95.5 -194.5t306 -133t319 -119
t163.5 -147.5t55 -203q0 -185 -147.5 -296.5t-389.5 -111.5q-166 0 -304 59t-209 165t-71 244h132q0 -166 123.5 -261.5t328.5 -95.5q183 0 293.5 80.5t110.5 214.5z" />
    <glyph glyph-name="T" unicode="T" horiz-adv-x="1314" 
d="M1259 1451h-536v-1451h-132v1451h-535v113h1203v-113z" />
    <glyph glyph-name="U" unicode="U" horiz-adv-x="1446" 
d="M1275 1564v-1068q-1 -158 -69.5 -275t-194 -179.5t-287.5 -62.5q-247 0 -396 134.5t-154 373.5v1077h131v-1058q0 -198 113 -307t306 -109t305.5 109.5t112.5 305.5v1059h133z" />
    <glyph glyph-name="V" unicode="V" horiz-adv-x="1357" 
d="M669 193l9 -33l10 33l491 1371h146l-583 -1564h-126l-583 1564h144z" />
    <glyph glyph-name="W" unicode="W" horiz-adv-x="1972" 
d="M487 422l48 -243l59 232l339 1153h120l335 -1153l58 -234l51 245l283 1142h135l-400 -1564h-127l-355 1224l-39 154l-39 -154l-363 -1224h-127l-399 1564h135z" />
    <glyph glyph-name="X" unicode="X" horiz-adv-x="1346" 
d="M674 902l440 662h158l-518 -771l534 -793h-159l-455 683l-458 -683h-157l535 793l-519 771h158z" />
    <glyph glyph-name="Y" unicode="Y" horiz-adv-x="1317" 
d="M656 711l478 853h153l-565 -975v-589h-132v589l-564 975h157z" />
    <glyph glyph-name="Z" unicode="Z" horiz-adv-x="1316" 
d="M257 112h965v-112h-1125v100l928 1351h-900v113h1063v-94z" />
    <glyph glyph-name="bracketleft" unicode="[" horiz-adv-x="527" 
d="M530 1678h-226v-1904h226v-109h-355v2123h355v-110z" />
    <glyph glyph-name="backslash" unicode="\" horiz-adv-x="867" 
d="M52 1564h125l653 -1698h-125z" />
    <glyph glyph-name="bracketright" unicode="]" horiz-adv-x="527" 
d="M0 1788h356v-2123h-356v109h227v1904h-227v110z" />
    <glyph glyph-name="asciicircum" unicode="^" horiz-adv-x="915" 
d="M452 1394l-245 -611h-124l321 781h97l320 -781h-125z" />
    <glyph glyph-name="underscore" unicode="_" horiz-adv-x="950" 
d="M947 -108h-946v108h946v-108z" />
    <glyph glyph-name="grave" unicode="`" horiz-adv-x="628" 
d="M471 1337h-118l-242 300h154z" />
    <glyph glyph-name="a" unicode="a" horiz-adv-x="1178" 
d="M901 0q-19 55 -24 162q-68 -88 -173 -135.5t-222 -47.5q-167 0 -271 93t-104 236q0 170 141.5 269t393.5 99h233v132q0 124 -76.5 195.5t-223.5 71.5q-135 0 -223 -68.5t-88 -165.5l-129 1q0 139 129 240.5t317 101.5q195 0 307 -97.5t115 -271.5v-550q0 -168 36 -252
v-13h-138zM497 92q129 0 230.5 62.5t147.5 166.5v256h-229q-193 -2 -301.5 -70.5t-108.5 -187.5q0 -98 72.5 -162.5t188.5 -64.5z" />
    <glyph glyph-name="b" unicode="b" horiz-adv-x="1219" 
d="M1103 569q0 -271 -120 -430.5t-323 -159.5q-243 0 -368 180l-5 -159h-120v1650h127v-656q123 190 363 190q207 0 326.5 -157.5t119.5 -437.5v-20zM974 592q0 230 -89 355t-251 125q-124 0 -210 -60.5t-130 -177.5v-525q97 -219 342 -219q159 0 248.5 126t89.5 376z" />
    <glyph glyph-name="c" unicode="c" horiz-adv-x="1133" 
d="M597 87q135 0 225.5 75.5t98.5 196.5h123q-5 -107 -66.5 -194.5t-163 -136.5t-217.5 -49q-229 0 -362.5 158.5t-133.5 427.5v39q0 172 60 304t172.5 204t262.5 72q191 0 315.5 -114t132.5 -300h-123q-9 137 -98.5 220.5t-226.5 83.5q-174 0 -270 -125.5t-96 -352.5v-37
q0 -223 96 -347.5t271 -124.5z" />
    <glyph glyph-name="d" unicode="d" horiz-adv-x="1222" 
d="M116 592q0 271 121 431.5t328 160.5q235 0 359 -186v652h128v-1650h-121l-5 155q-124 -176 -363 -176q-201 0 -324 161.5t-123 436.5v15zM246 569q0 -222 89 -350.5t252 -128.5q237 0 337 210v545q-100 227 -335 227q-163 0 -253 -127.5t-90 -375.5z" />
    <glyph glyph-name="e" unicode="e" horiz-adv-x="1137" 
d="M618 -21q-149 0 -268.5 73t-186 203.5t-66.5 292.5v46q0 168 65 302t181 211t251 77q212 0 336 -144.5t124 -394.5v-72h-829v-25q0 -198 113 -329.5t285 -131.5q103 0 182 37.5t144 120.5l80 -61q-142 -205 -411 -205zM594 1074q-145 0 -244.5 -106t-120.5 -286h697v14
q-5 168 -95.5 273t-236.5 105z" />
    <glyph glyph-name="f" unicode="f" horiz-adv-x="728" 
d="M260 0v1057h-192v105h192v141q0 178 91 274t253 96q73 0 136 -19l-10 -107q-53 13 -117 13q-106 0 -165 -66t-59 -188v-144h277v-105h-277v-1057h-129z" />
    <glyph glyph-name="g" unicode="g" horiz-adv-x="1220" 
d="M116 592q0 273 121 432.5t328 159.5q237 0 361 -189l6 167h121v-1138q0 -225 -126 -356t-340 -131q-122 0 -232 54.5t-173 144.5l72 77q136 -167 324 -167q161 0 251.5 95t93.5 263v146q-124 -171 -360 -171q-202 0 -324.5 161t-122.5 435v17zM246 569q0 -222 89 -350.5
t252 -128.5q237 0 336 213v540q-45 112 -130 170.5t-204 58.5q-163 0 -253 -127.5t-90 -375.5z" />
    <glyph glyph-name="h" unicode="h" horiz-adv-x="1207" 
d="M295 966q64 104 162.5 161t216.5 57q186 0 277.5 -105.5t92.5 -315.5v-763h-128v764q-1 156 -66 232t-208 76q-119 0 -211 -74.5t-136 -201.5v-796h-127v1650h127v-684z" />
    <glyph glyph-name="i" unicode="i" horiz-adv-x="493" 
d="M312 0h-129v1162h129v-1162zM160 1499q0 36 23.5 61.5t64.5 25.5t65 -25.5t24 -61.5q0 -37 -24 -61.5t-65 -24.5t-64.5 24.5t-23.5 61.5z" />
    <glyph glyph-name="j" unicode="j" horiz-adv-x="502" 
d="M306 1162v-1301q0 -161 -77.5 -245.5t-227.5 -84.5q-58 0 -113 20l2 106q48 -14 97 -14q191 0 191 221v1298h128zM243 1586q42 0 65.5 -25.5t23.5 -61.5q0 -37 -23.5 -61.5t-65.5 -24.5q-41 0 -64 24.5t-23 61.5q0 36 23 61.5t64 25.5z" />
    <glyph glyph-name="k" unicode="k" horiz-adv-x="1077" 
d="M444 585l-148 -141v-444h-128v1650h128v-1056l122 131l445 437h162l-493 -490l536 -672h-154z" />
    <glyph glyph-name="l" unicode="l" horiz-adv-x="493" 
d="M312 0h-129v1650h129v-1650z" />
    <glyph glyph-name="m" unicode="m" horiz-adv-x="1950" 
d="M285 1162l4 -189q64 106 161 158.5t215 52.5q275 0 349 -226q62 109 166.5 167.5t229.5 58.5q374 0 382 -408v-776h-129v766q-1 156 -67 231t-216 75q-138 -2 -233.5 -89.5t-106.5 -213.5v-769h-129v776q-1 149 -70.5 222.5t-213.5 73.5q-121 0 -208 -69.5t-129 -205.5
v-797h-129v1162h124z" />
    <glyph glyph-name="n" unicode="n" horiz-adv-x="1208" 
d="M290 1162l4 -198q66 107 163.5 163.5t216.5 56.5q186 0 277.5 -105.5t92.5 -315.5v-763h-128v764q-1 156 -66 232t-208 76q-119 0 -211 -74.5t-136 -201.5v-796h-127v1162h122z" />
    <glyph glyph-name="o" unicode="o" horiz-adv-x="1232" 
d="M97 598q0 168 65 302t183.5 209t268.5 75q232 0 376 -163t144 -431v-27q0 -169 -65 -303.5t-183 -207.5t-269 -73q-231 0 -375.5 162.5t-144.5 431.5v25zM226 563q0 -209 108 -342.5t283 -133.5q174 0 282 133.5t108 353.5v24q0 134 -49.5 244.5t-139 171t-204.5 60.5
q-171 0 -279.5 -134.5t-108.5 -352.5v-24z" />
    </font>
</defs>
</svg>
