<?xml version="1.0" standalone="no"?>
<!DOCTYPE svg PUBLIC "-//W3C//DTD SVG 1.1//EN" "http://www.w3.org/Graphics/SVG/1.1/DTD/svg11.dtd" >
<svg xmlns="http://www.w3.org/2000/svg" xmlns:xlink="http://www.w3.org/1999/xlink" version="1.1">
<metadata>
Created by FontForge 20161003 at Sun Dec 16 22:19:37 2018
 By www-data
Copyright (c) 2019 by fontiran.com. All rights reserved.
</metadata>
<defs>
<font id="IRANYekanWeb-Bold" horiz-adv-x="0" >
  <font-face 
    font-family="IRANYekanWeb"
    font-weight="700"
    font-stretch="normal"
    units-per-em="2200"
    panose-1="2 11 5 6 3 8 4 2 2 4"
    ascent="1760"
    descent="-440"
    x-height="1162"
    cap-height="1564"
    bbox="-501 -1140 3140 2705"
    underline-thickness="100"
    underline-position="-850"
    unicode-range="U+001D-FEFF"
  />
<missing-glyph horiz-adv-x="1229" 
d="M102 -362v1806h1024v-1806h-1024zM217 -248h795v1577h-795v-1577z" />
    <glyph glyph-name="uni06440627.isol" unicode="&#xfedf;&#xfe8e;" horiz-adv-x="1302" arabic-form="isolated" 
d="M120 -15v249h429q116 0 187 19.5t110 64.5t52 119t13 183v807h248v-807q0 -59 -4.5 -121t-17 -122.5t-36 -117t-60.5 -103.5q-73 -85 -194 -128t-298 -43h-429zM240 399l-65 989l247 29l66 -1018h-248z" />
    <glyph glyph-name="uni06440627.fina" unicode="&#xfee0;&#xfe8e;" horiz-adv-x="1340" arabic-form="final" 
d="M125 -14v249h429q116 0 187 19.5t110 64.5t52 119t13 183v806h248v-1035q0 -35 11 -64t30.5 -50t47 -32.5t60.5 -11.5h51v-249h-51q-99 0 -172 37.5t-129 106.5q-74 -69 -187 -106t-271 -37h-429zM240 399l-65 989l247 29l66 -1018h-248z" />
    <glyph glyph-name="uni06440623.isol" unicode="&#xfedf;&#xfe84;" horiz-adv-x="1302" arabic-form="isolated" 
d="M160 -15v249h429q116 0 187 19.5t110 64.5t52 119t13 183v807h248v-807q0 -59 -4.5 -121t-17 -122.5t-36 -117t-60.5 -103.5q-73 -85 -194 -128t-298 -43h-429zM280 399l-65 989l247 29l66 -1018h-248zM0 1445v149l124 40q-30 31 -49.5 70t-19.5 83q0 34 12 67t33 61
t49.5 49t60.5 30q17 5 34.5 7.5t34.5 2.5q36 0 63.5 -8.5t51.5 -17.5l17 -8l-30 -124q-14 3 -31 8t-34 8t-33.5 3.5t-29.5 -3.5q-14 -5 -27.5 -14t-22.5 -20.5t-12 -26.5q-2 -6 -2 -12q0 -10 4 -20q8 -26 37.5 -44t82.5 -18q10 0 21.5 1t30.5 5.5t48.5 13t75.5 23.5l8 -141z
" />
    <glyph glyph-name="uni06440623.fina" unicode="&#xfee0;&#xfe84;" horiz-adv-x="1340" arabic-form="final" 
d="M125 -14v249h429q116 0 187 19.5t110 64.5t52 119t13 183v806h248v-1035q0 -35 11 -64t30.5 -50t47 -32.5t60.5 -11.5h51v-249h-51q-99 0 -172 37.5t-129 106.5q-74 -69 -187 -106t-271 -37h-429zM240 399l-65 989l247 29l66 -1018h-248zM13 1467v149l124 40
q-30 31 -49.5 70t-19.5 83q0 34 12 67t33 61t49.5 49t60.5 30q17 5 34.5 7.5t34.5 2.5q36 0 63.5 -8.5t51.5 -17.5l17 -8l-30 -124q-14 3 -31 8t-34 8t-33.5 3.5t-29.5 -3.5q-14 -5 -27.5 -14t-22.5 -20.5t-12 -26.5q-2 -6 -2 -12q0 -10 4 -20q8 -26 37.5 -44t82.5 -18
q10 0 21.5 1t30.5 5.5t48.5 13t75.5 23.5l8 -141z" />
    <glyph glyph-name="uni06440625.isol" unicode="&#xfedf;&#xfe88;" horiz-adv-x="1302" arabic-form="isolated" 
d="M120 -15v249h429q116 0 187 19.5t110 64.5t52 119t13 183v807h248v-807q0 -59 -4.5 -121t-17 -122.5t-36 -117t-60.5 -103.5q-73 -85 -194 -128t-298 -43h-429zM240 399l-65 989l247 29l66 -1018h-248zM257 -686v149l124 40q-30 31 -49.5 70t-19.5 83q0 34 12 67t33 61
t49.5 49t60.5 30q17 5 34.5 7.5t34.5 2.5q36 0 63.5 -8.5t51.5 -17.5l17 -8l-30 -124q-14 3 -31 8t-34 8t-33.5 3.5t-29.5 -3.5q-14 -5 -27.5 -14t-22.5 -20.5t-12 -26.5q-2 -6 -2 -12q0 -10 4 -20q8 -26 37.5 -44t82.5 -18q10 0 21.5 1t30.5 5.5t48.5 13t75.5 23.5l8 -141z
" />
    <glyph glyph-name="uni06440625.fina" unicode="&#xfee0;&#xfe88;" horiz-adv-x="1340" arabic-form="final" 
d="M125 -14v249h429q116 0 187 19.5t110 64.5t52 119t13 183v806h248v-1035q0 -35 11 -64t30.5 -50t47 -32.5t60.5 -11.5h51v-249h-51q-99 0 -172 37.5t-129 106.5q-74 -69 -187 -106t-271 -37h-429zM240 399l-65 989l247 29l66 -1018h-248zM252 -685v149l124 40
q-30 31 -49.5 70t-19.5 83q0 34 12 67t33 61t49.5 49t60.5 30q17 5 34.5 7.5t34.5 2.5q36 0 63.5 -8.5t51.5 -17.5l17 -8l-30 -124q-14 3 -31 8t-34 8t-33.5 3.5t-29.5 -3.5q-14 -5 -27.5 -14t-22.5 -20.5t-12 -26.5q-2 -6 -2 -12q0 -10 4 -20q8 -26 37.5 -44t82.5 -18
q10 0 21.5 1t30.5 5.5t48.5 13t75.5 23.5l8 -141z" />
    <glyph glyph-name="uni06440622.isol" unicode="&#xfedf;&#xfe82;" horiz-adv-x="1430" arabic-form="isolated" 
d="M280 -15v249h429q116 0 187 19.5t110 64.5t52 119t13 183v807h248v-807q0 -59 -4.5 -121t-17 -122.5t-36 -117t-60.5 -103.5q-73 -85 -194 -128t-298 -43h-429zM400 399l-65 989l247 29l66 -1018h-248zM925 1548h-490q-59 0 -99.5 -3.5t-69 -18t-47 -42t-33.5 -75.5
l-186 55q26 90 71 147t108 89q54 26 117 34.5t139 8.5h490v-195z" />
    <glyph glyph-name="uni06440622.fina" unicode="&#xfee0;&#xfe82;" horiz-adv-x="1508" arabic-form="final" 
d="M285 -14v249h429q116 0 187 19.5t110 64.5t52 119t13 183v806h248v-1035q0 -35 11 -64t30.5 -50t47 -32.5t60.5 -11.5h51v-249h-51q-99 0 -172 37.5t-129 106.5q-74 -69 -187 -106t-271 -37h-429zM400 399l-65 989l247 29l66 -1018h-248zM925 1553h-490q-59 0 -99.5 -3.5
t-69 -18t-47 -42t-33.5 -75.5l-186 55q26 90 71 147t108 89q54 26 117 34.5t139 8.5h490v-195z" />
    <glyph glyph-name="uni06440671.isol" unicode="&#xfedf;&#xfb51;" horiz-adv-x="1302" 
d="M120 -15v249h429q116 0 187 19.5t110 64.5t52 119t13 183v807h248v-807q0 -59 -4.5 -121t-17 -122.5t-36 -117t-60.5 -103.5q-73 -85 -194 -128t-298 -43h-429zM240 399l-65 989l247 29l66 -1018h-248zM-4 1530l24 109h132l44 68l83 122q35 52 86 82.5t111 30.5
q34 0 68 -13t61 -40t43.5 -68t16.5 -97q0 -54 -18 -91t-46 -60t-62.5 -33t-67.5 -10h-475zM476 1833q-27 0 -53.5 -18t-51 -46t-47.5 -62.5t-43 -67.5h190q36 0 60 20t24 65q0 53 -20.5 81t-58.5 28z" />
    <glyph glyph-name="uni06440671.fina" unicode="&#xfee0;&#xfb51;" horiz-adv-x="1340" 
d="M125 -14v249h429q116 0 187 19.5t110 64.5t52 119t13 183v806h248v-1035q0 -35 11 -64t30.5 -50t47 -32.5t60.5 -11.5h51v-249h-51q-99 0 -172 37.5t-129 106.5q-74 -69 -187 -106t-271 -37h-429zM240 399l-65 989l247 29l66 -1018h-248zM3 1532l24 109h132l44 68l83 122
q35 52 86 82.5t111 30.5q34 0 68 -13t61 -40t43.5 -68t16.5 -97q0 -54 -18 -91t-46 -60t-62.5 -33t-67.5 -10h-475zM483 1835q-27 0 -53.5 -18t-51 -46t-47.5 -62.5t-43 -67.5h190q36 0 60 20t24 65q0 53 -20.5 81t-58.5 28z" />
    <glyph glyph-name="allah" unicode="&#xfedf;&#xfee0;&#xfeea;" horiz-adv-x="2277" arabic-form="isolated" 
d="M1100 -15q-111 0 -187.5 28t-127 80t-78 124.5t-39.5 161.5l-57 410l-87 -19q-96 -24 -125 -78q-30 -52 -35 -113q-2 -21 -2 -41q0 -42 8.5 -94.5t27.5 -114t36 -113.5l58 -178l-238 -67l-52 168q-23 82 -45 167.5t-30 171.5q-4 37 -4 74q0 48 9 114.5t52 147.5
q45 75 114.5 125t166.5 73h-1q20 5 58 13t76 15.5t67.5 12.5t32.5 5l129 -84l83 -539q10 -64 30 -103.5t45.5 -61t55.5 -29t61 -7.5q69 0 109.5 16.5t61.5 41.5t27 55t6 57l-2 715l250 58v-773q0 -42 14.5 -73.5t40.5 -52.5t61 -32t76 -12h10q102 0 146 41t47 127l-50 837
l248 121l50 -956q0 -36 -3.5 -75t-14.5 -79t-32 -78.5t-56 -72.5q-31 -29 -61 -50.5t-68 -35.5t-87.5 -21t-118.5 -7h-10q-39 0 -83 7t-86.5 20.5t-81.5 33.5t-67 45q-29 -27 -60 -46.5t-69.5 -33t-86.5 -20t-110 -6.5h-2zM1311 1348q-91 0 -143 50.5t-52 141.5v93l111 19
v-112q0 -43 19.5 -62.5t64.5 -19.5q6 0 18 2.5t23.5 11t20 24.5t8.5 44v92l112 24v-116q0 -44 20 -63.5t65 -19.5q7 0 18 3t22 11.5t19 25t8 43.5q0 14 -3 32t-7.5 38t-10 39.5t-9.5 36.5l102 35q1 -5 7.5 -25t13.5 -46.5t12.5 -56t5.5 -53.5q0 -49 -16 -85.5t-42 -60.5
t-58 -35.5t-64 -11.5q-91 0 -140 48q-27 -26 -58.5 -36.5t-66.5 -10.5zM1379 2046l113 26v-286l-113 -27v287z" />
    <glyph glyph-name="riyal" unicode="&#x631;&#xfef3;&#xfe8e;&#x644;" horiz-adv-x="3285" arabic-form="isolated" 
d="M744 -568q-71 0 -136 16t-122 47t-105 74.5t-84 99.5q-15 24 -30.5 56.5t-27.5 73.5t-20 91t-8 109q0 49 5 100.5t19 109.5t39 125.5t65 150.5l225 -107q-30 -62 -50.5 -113.5t-32.5 -97t-17.5 -86.5t-5.5 -83q0 -57 12.5 -106.5t37.5 -89.5l-1 1q38 -54 101.5 -88
t135.5 -34h46q105 0 171.5 22t104 62t51 97t13.5 127v1438h246v-1438q0 -555 -586 -557h-46zM3140 46q-6 -138 -51 -248.5t-124 -188t-191 -119.5t-253 -42h-124v249h124q96 0 166 20t115 64t67 114.5t22 171.5v609h249v-630zM2113 -572l-168 170l166 172l172 -172z
M1694 -573l-168 170l165 172l172 -172zM2058 -15q-110 0 -189 13.5t-133 40t-86.5 67.5t-49.5 96t-22.5 124.5t-5.5 153.5v947h249v-947q0 -80 5.5 -128t29 -74.5t71 -35t131.5 -8.5v-249zM2562 825q2 -7 8.5 -33t14.5 -63.5t16.5 -83.5t16 -92.5t12 -90.5t4.5 -77
q0 -103 -34 -178.5t-89 -124.5t-123.5 -73t-137.5 -24h-266v249h273q12 0 34.5 3.5t45 18.5t39.5 45.5t17 83.5q0 22 -3.5 53.5t-9.5 67.5t-13.5 73.5t-14.5 71t-14 61t-11 42.5z" />
    <glyph glyph-name="uni0621" unicode="&#x621;" horiz-adv-x="1004" arabic-form="isolated" 
d="M107 -64l6 235l168 46q-40 33 -70.5 73t-47.5 85q-15 48 -15 99q0 70 28.5 135.5t77.5 115.5t115.5 80.5t142.5 30.5q25 0 49.5 -2.5t53.5 -8t64 -14t80 -19.5l-47 -199q-73 14 -119.5 19.5t-82.5 5.5q-69 0 -111.5 -39.5t-56.5 -103.5q8 -40 29 -69t51 -47.5t66 -27.5
t73 -9q64 0 146.5 26t172.5 61l3 -236z" />
    <glyph glyph-name="uni0627" unicode="&#x627;" horiz-adv-x="619" arabic-form="isolated" 
d="M434 -15h-249v1442h249v-1442z" />
    <glyph glyph-name="uni0627.fina" unicode="&#x627;" horiz-adv-x="651" arabic-form="final" 
d="M671 -15q-110 0 -189 13.5t-133 40t-86.5 67.5t-49.5 96t-22.5 124.5t-5.5 153.5v947h249v-947q0 -80 5.5 -128t29 -74.5t71 -35t131.5 -8.5v-249z" />
    <glyph glyph-name="uni062D" unicode="&#x62d;" horiz-adv-x="1485" arabic-form="isolated" 
d="M1377 558l-590 -243q-129 -49 -213.5 -84t-134 -69.5t-69 -73.5t-19.5 -95q0 -71 16 -121t46 -82.5t72.5 -51t95.5 -28t115 -11.5t131 -2h461v-249h-461q-159 0 -291 25.5t-227 87.5t-148 166t-53 261q0 82 21.5 147t61 117.5t94 94t120.5 75t141 61t156 53.5l401 132
q-116 40 -235.5 78.5t-234.5 75.5q-21 7 -40.5 12.5t-37.5 5.5q-23 0 -41.5 -4.5t-33.5 -16t-27.5 -32.5t-24.5 -54l-229 69q19 60 47.5 112.5t68.5 91.5t92.5 61.5t119.5 22.5q55 0 120 -20q80 -26 146.5 -51.5t132.5 -52.5q38 -15 79 -34t93 -41.5t117.5 -49.5t152.5 -58z
" />
    <glyph glyph-name="uni062D.init" unicode="&#x62d;" horiz-adv-x="1435" arabic-form="initial" 
d="M1361 383q-6 -4 -52 -35t-122 -75.5t-178 -94.5t-220 -93t-247 -71.5t-259 -28.5h-303v249h303q98 0 209 20t219 51.5t205.5 70.5t169.5 77q-46 14 -99.5 30.5t-109.5 33t-111 32t-103 27.5t-86 19t-60 7q-23 0 -40.5 -5.5t-31.5 -18t-26 -32.5t-25 -48l-229 69
q19 60 46.5 112.5t67 91.5t91.5 61.5t119 22.5q26 0 74 -11t109 -29t130.5 -41t139.5 -48t136 -49t119 -43.5t89 -32.5t46 -16z" />
    <glyph glyph-name="uni062D.medi" unicode="&#x62d;" horiz-adv-x="1553" arabic-form="medial" 
d="M1354 383q-5 -3 -32 -21.5t-73 -47.5q10 -30 31 -46.5t43 -24t41.5 -8.5t27.5 -1h183v-249h-183q-119 1 -213.5 52.5t-147.5 154.5q-77 -38 -166 -75.5t-186 -66.5t-199 -47t-204 -18h-298v249h298q98 0 209 20t219 51.5t205.5 70.5t169.5 77q-45 14 -99 30.5t-110 33
t-111 32t-103 27.5t-86 19t-60 7q-23 0 -40.5 -5.5t-31.5 -18t-26 -32.5t-25 -48l-229 69q19 60 46.5 112.5t67 91.5t91.5 61.5t119 22.5q26 0 74 -11t109 -29t130.5 -41t139.5 -48t136 -49t119 -43.5t89 -32.5t46 -16z" />
    <glyph glyph-name="uni062D.fina" unicode="&#x62d;" horiz-adv-x="1575" arabic-form="final" 
d="M1358 351l-108 -45q27 -35 56 -53.5t51 -18.5h245v-249h-245q-129 0 -216.5 60t-135.5 160l-237 -97q-129 -49 -213.5 -84t-134 -69.5t-69 -73.5t-19.5 -95q0 -71 16 -121t46 -82.5t72.5 -51t95.5 -28t115 -11.5t131 -2h461v-249h-461q-159 0 -291 25.5t-227 87.5
t-148 166t-53 261q0 82 21.5 147t61 117.5t94 94t120.5 75t141 61t156 53.5l401 132q-116 40 -235.5 78.5t-234.5 75.5q-21 7 -40.5 12.5t-37.5 5.5q-23 0 -41.5 -4.5t-33.5 -16t-27.5 -32.5t-24.5 -54l-229 69q19 60 47.5 112.5t68.5 91.5t92.5 61.5t119.5 22.5
q55 0 120 -20q80 -26 146.5 -51.5t132.5 -52.5q38 -15 79 -34t93 -41.5t117.5 -49.5t152.5 -58z" />
    <glyph glyph-name="uni062F" unicode="&#x62f;" horiz-adv-x="1042" arabic-form="isolated" 
d="M515 -16q-38 0 -75 4t-75 11t-78 17.5t-84 23.5l-119 36l72 240q87 -30 180.5 -53t176.5 -30q27 -2 52 -2q50 0 100.5 11t71.5 55q4 8 4 19q0 7 -4 22t-20 38l-373 544l210 136l68 -105q0 -1 3.5 -6t14 -21t30 -45.5t51.5 -77.5t78.5 -118.5t111.5 -168.5q51 -77 63 -159
q3 -21 3 -41q0 -60 -24 -115q-17 -40 -45.5 -73.5t-66.5 -59.5q-71 -49 -171 -67q-84 -15 -155 -15z" />
    <glyph glyph-name="uni0631" unicode="&#x631;" horiz-adv-x="811" arabic-form="isolated" 
d="M743 46q-6 -138 -51 -248.5t-124 -188t-191 -119.5t-253 -42h-124v249h124q96 0 166 20t115 64t67 114.5t22 171.5v609h249v-630z" />
    <glyph glyph-name="uni0631.fina" unicode="&#x631;" horiz-adv-x="909" arabic-form="final" 
d="M929 -15h-38q-41 0 -77.5 5t-71.5 28q-12 -129 -59 -234t-125.5 -179.5t-187.5 -115.5t-245 -41h-125v249h125q96 0 166 20t115 64t67 114.5t22 171.5v609h249v-299q0 -46 19.5 -74t45 -43.5t49.5 -20.5t33 -5h38v-249z" />
    <glyph glyph-name="uni0633" unicode="&#x633;" horiz-adv-x="2736" arabic-form="isolated" 
d="M2258 -15q-94 0 -169 26t-129 74q-30 -29 -63.5 -48t-69 -30.5t-71 -16.5t-68.5 -5q-52 0 -98 8t-88 36v-42q0 -275 -148.5 -407t-440.5 -132h-195q-134 0 -246 44t-193 125.5t-126.5 197t-45.5 259.5q0 66 8.5 132t26.5 135t46.5 144.5t69.5 161.5l224 -109
q-35 -72 -61.5 -133.5t-44 -117t-26 -107t-8.5 -103.5q0 -80 27.5 -149.5t77 -121t119.5 -80.5q67 -29 147 -29h200q106 0 172.5 19.5t103.5 56.5t50.5 91t13.5 123v689h249v-180q0 -86 16 -138t42 -79.5t59.5 -36.5t68.5 -9q21 0 47.5 7.5t50.5 25.5t40 48.5t16 75.5v286
h248v-296q2 -76 41.5 -111.5t124.5 -35.5h-1q14 1 37.5 6.5t45.5 22t38 47t16 81.5q0 33 -8 84t-19 104.5t-22 100t-18 69.5l235 71q2 -6 8.5 -31t15 -61.5t18 -81t17 -90t12.5 -89t5 -76.5q0 -102 -33.5 -177.5t-87 -126t-121 -75.5t-136.5 -26z" />
    <glyph glyph-name="uni0633.init" unicode="&#x633;" horiz-adv-x="1788" arabic-form="initial" 
d="M755 -13q-183 0 -290 95q-55 -51 -122 -74t-138 -23h-225v249h225q12 0 34.5 4t45 19.5t39.5 46t17 84.5v288h249v-284q0 -82 38.5 -119.5t126.5 -37.5q12 0 34.5 4.5t45 20.5t39.5 47.5t17 84.5v284h248v-284q0 -82 39.5 -120.5t128.5 -38.5q13 0 35.5 5.5t44.5 22
t38 47.5t16 84q0 22 -3.5 53t-9 65.5t-12.5 70t-14 67.5t-13.5 58t-10.5 41l235 77q2 -7 8 -32t14.5 -62t17.5 -82t16.5 -90.5t12.5 -89t5 -76.5q0 -102 -33.5 -178.5t-87.5 -127t-122 -75.5t-137 -26q-186 0 -294 98q-55 -51 -121.5 -73.5t-136.5 -22.5z" />
    <glyph glyph-name="uni0633.medi" unicode="&#x633;" horiz-adv-x="1896" arabic-form="medial" 
d="M-20 234h129q59 0 95.5 10t57 29.5t27.5 47.5t7 64v291h249v-286q0 -81 39 -118t123 -38q15 1 36.5 6t42 20.5t35 45t14.5 79.5v291h248v-286q0 -82 39 -119t127 -37q24 0 47.5 7.5t42.5 25t31 45.5t14 69v295h249v-296q2 -77 47 -111.5t138 -34.5h98v-249h-98
q-103 0 -179 22.5t-131 73.5q-51 -47 -119.5 -71.5t-139.5 -24.5q-94 0 -164.5 23t-125.5 74q-52 -46 -116.5 -71t-130.5 -26h-7q-90 0 -160 24.5t-122 68.5q-117 -93 -314 -93h-129v249z" />
    <glyph glyph-name="uni0633.fina" unicode="&#x633;" horiz-adv-x="2928" arabic-form="final" 
d="M2870 -15q-206 0 -315 100q-57 -46 -128.5 -73t-143.5 -27q-188 0 -296 100q-57 -46 -128.5 -73t-143.5 -27q-54 0 -98.5 8t-87.5 28v-34q0 -275 -148.5 -407.5t-440.5 -132.5h-221q-79 0 -153.5 19.5t-140 55t-121 85.5t-96.5 112q-48 78 -74 166t-26 194
q0 66 8.5 131.5t27.5 135t48 144.5t70 161l224 -109q-35 -73 -60 -134.5t-41 -116.5t-23 -106t-7 -103q0 -65 18.5 -124t45.5 -106q48 -71 126.5 -113.5t173.5 -42.5h221q106 0 172.5 19.5t103.5 57t50.5 91.5t13.5 123v689h249v-194q0 -86 16 -135.5t42 -74.5t59.5 -32
t68.5 -7q21 0 47.5 7.5t50.5 25.5t40 48.5t16 75.5v286h248v-296q2 -76 41.5 -111.5t126.5 -35.5q21 0 47.5 7.5t49.5 25.5t39 48t16 76v286h248v-296q2 -76 45.5 -111t139.5 -35h78v-249h-78z" />
    <glyph glyph-name="uni0635" unicode="&#x635;" horiz-adv-x="2793" arabic-form="isolated" 
d="M722 -552q-80 0 -155 19t-140.5 54t-121 86t-96.5 115q-48 79 -73.5 167.5t-25.5 194.5q0 66 8 129.5t26 131t46.5 141t69.5 158.5l225 -107q-35 -72 -59 -133t-39 -115t-22 -104t-7 -101q0 -71 15.5 -125.5t48.5 -105.5q46 -75 124.5 -115.5t175.5 -40.5h219
q106 0 172 20t103 58t50 93t13 124v684h248v-319q0 -17 5.5 -33t14.5 -29t20 -21.5t22 -11.5q74 121 150 230t160 190.5t180 129.5t210 48q78 0 154 -23t136 -76.5t96.5 -139.5t36.5 -212q0 -119 -39.5 -200.5t-101.5 -131t-139 -71t-152 -21.5h-573q-18 0 -41.5 1t-47.5 4
t-48 9.5t-43 17.5v-25q0 -278 -147 -411t-439 -133h-219zM2280 234q33 0 72.5 8.5t73.5 28.5t57 54t23 84q0 56 -18 94.5t-48.5 62.5t-69.5 34.5t-81 10.5q-59 0 -122 -31.5t-125 -83.5t-119.5 -120.5t-103.5 -141.5h461z" />
    <glyph glyph-name="uni0635.init" unicode="&#x635;" horiz-adv-x="1796" arabic-form="initial" 
d="M-19 -15v249h124q61 0 97 11t54.5 29t24.5 40.5t6 45.5v316h248v-316q0 -18 7 -35t18 -30.5t25 -22t29 -10.5l22 36q40 66 84.5 133t93.5 129.5t104 117t117 95t131 63.5t148 23q78 0 155 -21.5t137.5 -72.5t98 -135.5t37.5 -211.5q0 -120 -40.5 -202.5t-104 -133.5
t-142 -74t-153.5 -23h-572q-36 0 -80 1.5t-88 10t-83.5 26.5t-67.5 52q-109 -87 -299 -90h-131zM1314 611q-60 0 -121 -31t-120.5 -83t-114.5 -120t-101 -143h445q37 0 76 9.5t71 31t53 56.5t21 87q0 56 -17.5 93.5t-46.5 59.5t-66.5 31t-78.5 9z" />
    <glyph glyph-name="uni0635.medi" unicode="&#x635;" horiz-adv-x="1876" arabic-form="medial" 
d="M640 298q40 66 84.5 133.5t93.5 129.5t104 117t117 95t131 63.5t148 23.5q78 0 154 -21.5t136 -72.5t97 -136t37 -212q0 -55 -9.5 -99.5t-25.5 -84.5h189v-249h-1221q-82 0 -147 18.5t-110 73.5q-56 -48 -130 -69t-172 -23h-136v249h129q61 0 97 11t54.5 28.5t24.5 38
t6 40.5v324h248v-316q0 -18 7 -35t18 -30.5t25 -22t29 -10.5zM1318 612q-60 0 -122 -31t-122 -83.5t-115.5 -120.5t-101.5 -143h449q38 0 77 12t70.5 35.5t51 58t19.5 78.5q0 56 -17 93.5t-45.5 60t-65.5 31.5t-78 9z" />
    <glyph glyph-name="uni0635.fina" unicode="&#x635;" horiz-adv-x="2849" arabic-form="final" 
d="M722 -552q-80 0 -155 19t-140.5 54t-121 86t-96.5 115q-48 79 -73.5 167.5t-25.5 194.5q0 66 8 129.5t26 131t46.5 141t69.5 158.5l225 -107q-35 -72 -59 -133t-39 -115t-22 -104t-7 -101q0 -71 15.5 -125.5t48.5 -105.5q46 -75 124.5 -115.5t175.5 -40.5h219
q106 0 172 20t103 58t50 93t13 124v684h248v-319q0 -17 5.5 -33t14.5 -29t20 -21.5t22 -11.5q74 121 150 230t160 190.5t180 129.5t210 48q78 0 154 -23t136 -76.5t96.5 -139.5t36.5 -212q0 -51 -7.5 -94.5t-21.5 -80.5h186v-249h-1162q-18 0 -41.5 1t-47.5 4t-48 9.5
t-43 17.5v-25q0 -278 -147 -411t-439 -133h-219zM2280 234q33 0 72.5 8.5t73.5 28.5t57 54t23 84q0 56 -18 94.5t-48.5 62.5t-69.5 34.5t-81 10.5q-59 0 -122 -31.5t-125 -83.5t-119.5 -120.5t-103.5 -141.5h461z" />
    <glyph glyph-name="uni0637" unicode="&#x637;" horiz-adv-x="1525" arabic-form="isolated" 
d="M97 -15v249h199l84 129v1064h248v-759q40 41 84 75.5t92 60t100 40t108 14.5q79 0 155 -23t136 -76t96.5 -139t36.5 -212q0 -120 -40 -201.5t-102.5 -130.5t-140 -70t-152.5 -21h-904zM1012 610q-58 0 -120 -31t-123 -83t-117 -120t-102 -142h451q5 0 24 1t45 5.5t55 15
t53 30t40 49t16 73.5q0 56 -19 94.5t-50 62.5t-71 34.5t-82 10.5z" />
    <glyph glyph-name="uni0637.init" unicode="&#x637;" horiz-adv-x="1415" arabic-form="initial" 
d="M-20 -15v249h199l84 129v1064h248v-759q40 41 84 75.5t92 60t100 40t108 14.5q79 0 155 -23t136 -76t96.5 -139t36.5 -212q0 -120 -40 -201.5t-102.5 -130.5t-140 -70t-152.5 -21h-904zM895 610q-58 0 -120 -31t-123 -83t-117 -120t-102 -142h451q5 0 24 1t45 5.5t55 15
t53 30t40 49t16 73.5q0 56 -19 94.5t-50 62.5t-71 34.5t-82 10.5z" />
    <glyph glyph-name="uni0637.medi" unicode="&#x637;" horiz-adv-x="1486" arabic-form="medial" 
d="M-20 -15v249h199l84 129v1064h248v-759q40 41 84 75.5t92 60t100 40t108 14.5q79 0 155 -23t136 -76t96.5 -139t36.5 -212q0 -51 -7.5 -94t-21.5 -80h216v-249h-1526zM895 610q-58 0 -120 -31t-123 -83t-117 -120t-102 -142h462q12 0 33.5 2t46 8.5t50 18t46 31
t33.5 47.5t13 67q0 56 -19 94.5t-50 62.5t-71 34.5t-82 10.5z" />
    <glyph glyph-name="uni0637.fina" unicode="&#x637;" horiz-adv-x="1594" arabic-form="final" 
d="M113 -15v249h199l84 129v1064h248v-759q40 41 84 75.5t92 60t100 40t108 14.5q79 0 155 -23t136 -76t96.5 -139t36.5 -212q0 -51 -7.5 -94t-21.5 -80h191v-249h-1501zM1028 610q-58 0 -120 -31t-123 -83t-117 -120t-102 -142h462q12 0 33.5 2t46 8.5t50 18t46 31
t33.5 47.5t13 67q0 56 -19 94.5t-50 62.5t-71 34.5t-82 10.5z" />
    <glyph glyph-name="uni0639" unicode="&#x639;" horiz-adv-x="1387" arabic-form="isolated" 
d="M1233 -553h-480q-83 0 -165.5 15t-157.5 45.5t-139 78t-111.5 112t-74 146.5t-26.5 183q0 128 51 235.5t145 188.5q51 43 107.5 74t119.5 49q-31 38 -49.5 75.5t-28.5 72t-13 64t-3 52.5q0 88 35.5 165t95 134.5t138.5 90.5t166 33q56 0 103.5 -12t92 -33t88 -48.5
t90.5 -58.5l-111 -201q-63 36 -102.5 56.5t-66.5 31t-48 13.5t-46 3q-34 0 -69 -12t-63.5 -34.5t-46.5 -54.5t-18 -73q0 -25 19 -63.5t68 -80.5l-1 1q61 -48 162.5 -74t235.5 -26h112v-249h-590q-49 0 -108 -18.5t-110 -57.5t-85.5 -99t-34.5 -144q0 -80 27.5 -136
t70.5 -92.5t95 -57t100.5 -31t88 -12.5t57.5 -2h480v-249z" />
    <glyph glyph-name="uni0639.init" unicode="&#x639;" horiz-adv-x="1191" arabic-form="initial" 
d="M-20 -15v249h284q-25 35 -39 69t-21 64.5t-8.5 58t-1.5 48.5q0 89 34 165t92.5 132t136 88t164.5 32q50 0 92 -8.5t85.5 -26t93 -45t112.5 -64.5l-125 -213q-26 17 -58 36t-66.5 35t-69 26.5t-64.5 10.5q-33 0 -67.5 -11t-62.5 -32t-46 -52.5t-18 -72.5q0 -12 3.5 -28
t12.5 -35.5t25.5 -40.5t42.5 -43h-1q60 -49 161.5 -71t237.5 -22h110v-249h-1039z" />
    <glyph glyph-name="uni0639.medi" unicode="&#x639;" horiz-adv-x="1269" arabic-form="medial" 
d="M1289 -15h-378q-19 0 -42 4t-53.5 16t-69.5 35t-90 61q-60 -29 -136.5 -50.5t-163.5 -36t-182.5 -22t-193.5 -7.5v249q67 0 132 3t123.5 8.5t109 14t90.5 19.5q-85 75 -153.5 132.5t-107.5 97.5l-28 28v54q0 21 2 46.5t9.5 53t20.5 55t36 53.5q43 48 105.5 71.5
t153.5 23.5h350q45 0 88.5 -12t80.5 -34t66.5 -53.5t46.5 -70.5q11 -26 17.5 -58t6.5 -58q0 -24 -10 -50t-38 -64.5t-78.5 -95t-130.5 -142.5q9 -5 23 -8.5t28 -6t25.5 -4.5t14.5 -3h326v-249zM453 662q-30 0 -47.5 -5t-25.5 -9l286 -288q33 28 71.5 62.5t72 70t56 69
t24.5 59.5v2q0 14 -14.5 26.5t-37.5 12.5h-385z" />
    <glyph glyph-name="uni0639.fina" unicode="&#x639;" horiz-adv-x="1387" arabic-form="final" 
d="M1236 -759h-494q-143 0 -266 30t-213 95.5t-141.5 168t-51.5 246.5q0 103 47.5 194.5t144.5 179.5q59 53 123.5 98t134.5 87l-270 264q0 22 4.5 51.5t14 61t25 62t37.5 56.5q45 48 109 71.5t157 23.5h329q45 0 86.5 -12t77 -34t64 -53t46.5 -68q12 -27 18 -56t6 -57
q0 -56 -26 -104t-68 -89.5t-94.5 -78.5t-104.5 -72q48 -38 71.5 -53.5t30.5 -18.5h374v-249h-382q-32 0 -61 6.5t-63.5 25.5t-80 54t-111.5 91q-75 -45 -146 -90.5t-126.5 -92.5t-89 -96.5t-33.5 -101.5q0 -67 21 -114.5t55.5 -80t79 -51.5t92 -29t94.5 -13t86 -3h494v-249z
M576 700q-38 0 -57.5 -1t-23.5 -7q17 -19 41.5 -46.5t55 -60.5t66.5 -70.5t76 -76.5q76 54 140.5 98t115.5 94q11 11 15 26q2 7 2 13q0 5 -2 9q-5 11 -18 16.5t-30 5.5h-381z" />
    <glyph glyph-name="uni0643.init" unicode="&#x643;" horiz-adv-x="1149" arabic-form="initial" 
d="M-20 -15v249h585q16 0 44 1.5t55 8t46.5 19t19.5 34.5q0 43 -32.5 104t-83.5 130t-114.5 139.5t-126 133t-117.5 110.5t-88 72l20 226l870 398l91 -218l-732 -323q38 -37 85.5 -84t97.5 -99.5t99.5 -109t93 -113t77.5 -110.5t53 -102q17 -42 24 -81t7 -71q0 -40 -7.5 -70
t-16.5 -51q-12 -27 -37 -61t-69.5 -63t-112 -49t-163.5 -20h-568z" />
    <glyph glyph-name="uni0643.medi" unicode="&#x643;" horiz-adv-x="1249" arabic-form="medial" 
d="M1269 -15h-30q-88 0 -153 16.5t-117 46t-95.5 71t-88.5 92.5q-24 -63 -76.5 -107t-120 -71t-144.5 -38q-66 -10 -131 -10h-333v249h326q66 0 122 7.5t97 25t65 46.5t27 71q0 43 -36.5 109t-95 147t-132 171.5t-148.5 183.5l42 203l868 421l102 -228l-759 -351
q94 -126 187.5 -250.5t187.5 -250.5q55 -73 101 -129.5t92.5 -95.5t97.5 -59.5t115 -20.5h30v-249z" />
    <glyph glyph-name="uni0643" unicode="&#x643;" horiz-adv-x="2098" arabic-form="isolated" 
d="M831 622q106 21 168 41.5t90 35.5q-34 -1 -68 -2.5t-68 -2.5q-31 0 -61.5 7.5t-54.5 24t-38.5 42t-14.5 62.5q0 34 18.5 66t50.5 63.5t76.5 63t95.5 65.5l69 -120q-93 -55 -135 -90.5t-51 -51.5q15 0 31.5 0.5t37.5 0.5t48 0.5t64 0.5q27 -1 51.5 -10t42.5 -25t28.5 -39
t10.5 -53q0 -44 -24 -74t-70 -53.5t-114.5 -43t-156.5 -43.5zM1433 -17l-976 2q-74 0 -140 25t-117 73q-20 19 -41.5 46t-38.5 64t-28 83.5t-11 104.5q0 50 10 108.5t22.5 110.5t23.5 90t14 47l119 -38l118 -37q-9 -27 -19 -64.5t-19 -77t-15 -76.5t-6 -64q0 -48 13.5 -77.5
t33 -45t42.5 -20.5t41 -5l974 -1q100 1 156.5 13t79.5 35q16 14 23.5 43.5t7.5 79.5v1023h248v-1023q0 -36 -3.5 -75t-14.5 -79t-32 -78.5t-56 -72.5q-31 -29 -70 -50.5t-88.5 -35.5t-111.5 -21t-139 -7z" />
    <glyph glyph-name="uni0643.fina" unicode="&#x643;" horiz-adv-x="2149" arabic-form="final" 
d="M831 622q106 21 168 41.5t90 35.5q-34 -1 -68 -2.5t-68 -2.5q-31 0 -61.5 7.5t-54.5 24t-38.5 42t-14.5 62.5q0 34 18.5 66t50.5 63.5t76.5 63t95.5 65.5l69 -120q-93 -55 -135 -90.5t-51 -51.5q15 0 31.5 0.5t37.5 0.5t48 0.5t64 0.5q27 -1 51.5 -10t42.5 -25t28.5 -39
t10.5 -53q0 -44 -24 -74t-70 -53.5t-114.5 -43t-156.5 -43.5zM1058 231q114 0 215 4.5t181 14.5t136 26t80 39q15 15 22.5 43.5t7.5 79.5v989h249v-1016q0 -34 9.5 -65.5t29 -57t47 -40t62.5 -14.5h72v-249h-72q-39 0 -79.5 7t-78.5 21.5t-70.5 37.5t-55.5 56
q-51 -39 -127 -63t-171.5 -37.5t-209 -18.5t-239.5 -5h-11l-598 2q-74 0 -140 25t-117 73q-20 19 -41.5 46t-38.5 64t-28 83.5t-11 104.5q0 50 10 108.5t22.5 110.5t23.5 90t14 47l119 -38l118 -37q-9 -27 -19 -64.5t-19 -77t-15 -76.5t-6 -64q0 -48 13.5 -77.5t33 -45
t42.5 -20.5t41 -5z" />
    <glyph glyph-name="uni0644" unicode="&#x644;" horiz-adv-x="1376" arabic-form="isolated" 
d="M594 -568q-71 0 -136 16t-122 47t-105 74.5t-84 99.5q-15 24 -30.5 56.5t-27.5 73.5t-20 91t-8 109q0 49 5 100.5t19 109.5t39 125.5t65 150.5l225 -107q-30 -62 -50.5 -113.5t-32.5 -97t-17.5 -86.5t-5.5 -83q0 -57 12.5 -106.5t37.5 -89.5l-1 1q38 -54 101.5 -88
t135.5 -34h46q105 0 171.5 22t104 62t51 97t13.5 127v1438h246v-1438q0 -555 -586 -557h-46z" />
    <glyph glyph-name="uni0644.init" unicode="&#x644;" horiz-adv-x="645" arabic-form="initial" 
d="M-20 234q100 0 156.5 12t79.5 35q16 14 23.5 43.5t7.5 79.5v1023h248v-1023q0 -36 -3.5 -75t-14.5 -79t-32 -78.5t-56 -72.5q-31 -29 -70 -50.5t-88.5 -35.5t-111.5 -21t-139 -7v249z" />
    <glyph glyph-name="uni0644.medi" unicode="&#x644;" horiz-adv-x="657" arabic-form="medial" 
d="M-15 234q96 0 149 16.5t78.5 41.5t31 55t5.5 57v1023h248v-1023q0 -66 39.5 -114t111.5 -56h24v-249h-25q-50 1 -87.5 7t-68.5 19.5t-59.5 35.5t-59.5 54q-26 -32 -61.5 -54.5t-83 -36t-107.5 -19.5t-135 -6v249z" />
    <glyph glyph-name="uni0644.fina" unicode="&#x644;" horiz-adv-x="1423" arabic-form="final" 
d="M595 -568q-71 0 -136 16t-122 47t-105 74.5t-84 99.5q-15 24 -30.5 56.5t-27.5 73.5t-20 91t-8 109q0 49 5 100.5t18.5 109.5t38 125.5t64.5 150.5l225 -107q-30 -62 -50 -113.5t-32 -97t-17 -86.5t-5 -83q0 -57 12.5 -106.5t37.5 -89.5l-1 1q38 -54 101.5 -88t135.5 -34
h46q105 0 171.5 22t104 62t51 97t13.5 127v1438h246v-1058q0 -31 14.5 -56t37.5 -42.5t52.5 -27t58.5 -9.5h53v-249h-53q-35 0 -58.5 2.5t-41.5 8.5t-32.5 15.5t-30.5 23.5v-46q0 -555 -586 -557h-46z" />
    <glyph glyph-name="uni0645" unicode="&#x645;" horiz-adv-x="1382" arabic-form="isolated" 
d="M955 215q9 0 27.5 1.5t38 19.5t34 60t14.5 122q0 9 -2.5 29t-10 44.5t-20.5 50t-34 46.5t-50 34.5t-69 13.5q-18 0 -37 -2t-38.5 -11.5t-38.5 -29t-36.5 -53.5t-33 -86t-27.5 -127q39 -21 80 -41t78.5 -36t70 -25.5t54.5 -9.5zM879 885q101 0 178 -37.5t129.5 -101.5
t79.5 -149t27 -179q0 -104 -18 -177.5t-47.5 -123.5t-66 -80t-74 -45.5t-72.5 -20t-60 -4.5q-42 0 -95.5 16t-114 42t-127 60t-133.5 69q-25 13 -46.5 24t-42 21.5t-41.5 21t-45 21.5q0 -226 1 -451.5t1 -450.5h-241l-1 1036l234 142l162 -81q17 87 45 168.5t75 144.5
t118 100q67 35 164 35h11z" />
    <glyph glyph-name="uni0645.init" unicode="&#x645;" horiz-adv-x="1148" arabic-form="initial" 
d="M722 174q9 0 28.5 3.5t39.5 21.5t35.5 55.5t15.5 105.5q0 26 -9.5 66.5t-33 79t-63 66t-99.5 27.5q-52 0 -85 -31t-55.5 -77t-38 -99.5t-33.5 -97.5q37 -21 78.5 -42.5t81.5 -38.5t75.5 -28t62.5 -11zM636 847q105 0 183.5 -39t130 -104.5t77 -151.5t25.5 -180
q0 -104 -18 -177t-47.5 -121t-67 -75.5t-75 -41t-72.5 -17t-60 -3.5q-50 0 -95 9.5t-91.5 27t-96.5 43t-109 57.5q-45 -48 -96.5 -68.5t-120.5 -20.5h-123l-2 249h125q22 0 38.5 13t30 36.5t25 57t23.5 74.5q20 72 48 148.5t74.5 139.5t117.5 103.5t176 40.5z" />
    <glyph glyph-name="uni0645.medi" unicode="&#x645;" horiz-adv-x="1225" arabic-form="medial" 
d="M724 174q9 0 28.5 3.5t39.5 21.5t35.5 55.5t15.5 105.5q0 26 -9.5 66.5t-33 79t-63 66t-99.5 27.5q-52 0 -85 -31t-55.5 -77t-38 -99.5t-33.5 -97.5q37 -21 78.5 -42.5t81.5 -38.5t75.5 -28t62.5 -11zM638 847q103 0 179.5 -37t128.5 -100t78.5 -146t28.5 -174
q0 -56 22 -87.5t50 -46.5t55 -18.5t37 -3.5h28v-249h-28q-71 0 -130.5 20.5t-108.5 52.5q-30 -42 -66 -66.5t-72 -36.5t-69 -15t-57 -3q-50 0 -95 9.5t-91.5 27t-96.5 43t-109 57.5q-45 -48 -96.5 -68.5t-120.5 -20.5h-123l-2 249h125q22 0 38.5 13t30 36.5t25 57t23.5 74.5
q20 72 48 148.5t74.5 139.5t117.5 103.5t176 40.5z" />
    <glyph glyph-name="uni0645.fina" unicode="&#x645;" horiz-adv-x="1514" arabic-form="final" 
d="M933 885q101 0 178 -37.5t129.5 -101.5t79.5 -149t27 -179v-25.5t-1 -23.5q2 -41 22 -67t46 -41t52 -21t40 -6h28v-249h-28q-91 0 -153.5 19.5t-104.5 64.5q-29 -34 -61.5 -54t-65 -30.5t-61.5 -14t-51 -3.5q-42 0 -95.5 16t-114 42t-127 60t-133.5 69q-25 13 -46.5 24
t-42 21.5t-41.5 21t-45 21.5q0 -226 1 -451.5t1 -450.5h-241l-1 1036l234 142l162 -81q17 87 45 168.5t75 144.5t118 100q67 35 164 35h11zM1009 215q9 0 27.5 1.5t38 19.5t34 60t14.5 122q0 9 -2.5 29t-10 44.5t-20.5 50t-34 46.5t-50 34.5t-69 13.5q-18 0 -37 -2
t-38.5 -11.5t-38.5 -29t-36.5 -53.5t-33 -86t-27.5 -127q39 -21 80 -41t78.5 -36t70 -25.5t54.5 -9.5z" />
    <glyph glyph-name="uni0647" unicode="&#x647;" horiz-adv-x="1042" arabic-form="isolated" 
d="M519 -15q-96 0 -176.5 27.5t-138.5 78t-90.5 120.5t-32.5 155q0 84 21 150.5t56.5 124t83 110t100.5 108.5l-63 71l184 167q11 -13 26 -29t30.5 -33t30.5 -33t27 -29q72 -77 140.5 -149.5t122 -145t86.5 -145.5q31 -72 31 -148v-5q-1 -88 -35 -157.5t-99 -128.5
q-60 -51 -136.5 -80t-167.5 -29zM507 706q-40 -45 -75.5 -85t-61 -80t-38.5 -82q-12 -35 -12 -76q0 -8 1 -17q3 -37 22 -63.5t47 -44t62 -25.5t67 -8q38 0 73 11t61.5 31t42.5 49t16 64q0 43 -17 84t-45.5 81t-65.5 80t-77 81z" />
    <glyph glyph-name="uni0647.init" unicode="&#x647;" horiz-adv-x="1496" arabic-form="initial" 
d="M951 1078q65 -86 132 -174q28 -38 59.5 -79t64 -83.5t63.5 -84.5t60 -80q62 -83 81 -181q6 -35 6 -70q0 -63 -21 -126q-20 -60 -58.5 -110t-93.5 -86t-126 -56t-156 -20q-72 0 -149 14.5t-157 54.5q-18 8 -35 16q-15 7 -31 14.5t-27 13.5q-96 -29 -212.5 -42.5
t-257.5 -13.5h-113v249h113q28 0 49.5 -0.5t41.5 -0.5q19 0 38.5 1t43.5 4q-26 30 -46.5 58.5t-35 60t-22 67t-7.5 78.5q0 82 31.5 151t87 118t130 76.5t160.5 27.5q97 0 172.5 -38.5t127 -97t78 -126.5t26.5 -127q0 -48 -9.5 -88t-26.5 -75.5t-42 -67.5t-56 -63
q31 -10 64 -18.5t64 -8.5t65 4.5t64.5 18t54 37.5t35.5 63q4 14 4 29q0 27 -16 69t-58.5 107t-105.5 143.5t-138 171.5l-104 129zM391 502q0 -37 11.5 -65.5t35 -52.5t58 -46.5t80.5 -47.5q31 15 60 34t50.5 42.5t34.5 52.5t13 64q0 42 -18 74t-44 53t-55.5 31t-52.5 10
q-34 0 -65.5 -12t-55.5 -32.5t-38 -47.5t-14 -57z" />
    <glyph glyph-name="uni0647.medi" unicode="&#x647;" horiz-adv-x="1279" arabic-form="medial" 
d="M628 856q93 0 167 -24.5t125 -72.5t78.5 -118.5t27.5 -163.5v-6q0 -47 -16.5 -102t-63 -111t-129 -107t-212.5 -90h1q-38 -13 -82 -22t-83 -16q15 -47 54 -98.5t90 -98.5t108 -84.5t110 -56.5q-39 64 -46 130q-3 21 -3 42q0 44 14 96.5t52.5 106.5t91 94t117.5 62
q56 18 116 18h154v-249h-145q-47 -2 -81 -20t-56 -46t-30 -64q-5 -22 -5 -45q0 -14 3.5 -40.5t23 -64t54.5 -69.5l-82 -202q-138 0 -265 40.5t-230.5 114t-177 176.5t-103.5 227q-57 -4 -113 -5.5t-107 -1.5v249q42 0 93 1t117 6q3 57 8.5 104t13 88t17.5 77t23 71
q33 81 78 134.5t95 84.5t101.5 43.5t96.5 12.5zM628 608q-30 0 -64 -12t-63.5 -48t-48.5 -101.5t-19 -172.5q63 7 129.5 22.5t120.5 40.5t88 60t34 81q0 38 -15 63t-39.5 40t-56.5 21t-66 6z" />
    <glyph glyph-name="uni0647.fina" unicode="&#x647;" horiz-adv-x="1258" arabic-form="final" 
d="M1278 -15h-28q-78 0 -150 14.5t-133 44t-108.5 75.5t-77.5 109q-24 -37 -61.5 -65.5t-81.5 -47.5t-91 -28.5t-90 -9.5q-80 0 -151.5 28t-125.5 79.5t-85.5 125.5t-31.5 167q0 108 41 190t109 143.5t156.5 105t183.5 75.5l-24 96l244 57l182 -708q16 -65 52 -104.5
t78.5 -61t87 -29t77.5 -7.5h28v-249zM662 482q5 21 5 43q0 7 -1.5 24.5t-8.5 49.5t-18.5 69t-24.5 83q-160 -51 -242.5 -115.5t-82.5 -159.5q0 -37 16.5 -66t43 -48t59.5 -27q21 -6 42 -6q11 0 23 2q75 11 125 44.5t64 106.5z" />
    <glyph glyph-name="uni0648" unicode="&#x648;" horiz-adv-x="1066" arabic-form="isolated" 
d="M220 -303q80 0 142.5 5.5t111 16t85 27t63.5 39.5q42 34 63.5 79t25.5 121h-154q-50 0 -102 8t-100 27.5t-90.5 50.5t-74 76.5t-50 107.5t-18.5 142q0 69 12 122.5t30.5 94.5t41.5 71.5t44 53.5q60 60 136 92.5t164 32.5q109 0 186.5 -37.5t127 -103.5t72.5 -156.5
t23 -196.5v-355q0 -149 -45 -250.5t-137 -174.5q-46 -36 -100 -62.5t-121 -44.5t-149.5 -26.5t-186.5 -8.5v249zM550 615q-85 0 -135 -53t-50 -165q0 -44 17.5 -75t45 -50.5t61.5 -28.5t68 -9h154v136q0 57 -9 97.5t-23.5 67.5t-33 43t-36 24t-33.5 10.5t-26 2.5z" />
    <glyph glyph-name="uni0648.fina" unicode="&#x648;" horiz-adv-x="1099" arabic-form="final" 
d="M220 -303q80 0 142.5 5.5t111 16t85 27t63.5 39.5q42 34 63.5 79t25.5 121h-154q-50 0 -102 8t-100 27.5t-90.5 50.5t-74 76.5t-50 107.5t-18.5 142q0 69 12 122.5t30.5 94.5t41.5 71.5t44 53.5q60 60 136 92.5t164 32.5q109 0 186.5 -37.5t127 -103.5t72.5 -156.5
t23 -196.5v-136h170v-249h-171q-4 -137 -48.5 -231t-132.5 -164q-46 -36 -100 -62.5t-121 -44.5t-149.5 -26.5t-186.5 -8.5v249zM550 615q-85 0 -135 -53t-50 -165q0 -44 17.5 -75t45 -50.5t61.5 -28.5t68 -9h154v136q0 57 -9 97.5t-23.5 67.5t-33 43t-36 24t-33.5 10.5
t-26 2.5z" />
    <glyph glyph-name="uni0649" unicode="&#x649;" horiz-adv-x="1671" arabic-form="isolated" 
d="M940 -316q91 0 157.5 11.5t109.5 40t64.5 76.5t22.5 121q-14 4 -44.5 12t-72 19t-90 24t-98.5 26.5t-98.5 26t-89.5 22.5q-26 66 -38.5 128.5t-12.5 122.5q0 114 42 215.5t120 177t190.5 119.5t253.5 44q50 0 99.5 -8t112.5 -25l-63 -240q-47 14 -82 20.5t-72 6.5
q-75 0 -139.5 -21.5t-112 -62.5t-75 -100t-27.5 -134v-12.5t1 -12.5l351 -90q96 -24 139 -81.5t43 -142.5q0 -139 -32 -239.5t-102.5 -166t-183 -97t-273.5 -31.5h-211q-82 0 -157 19t-141 54.5t-121 86t-97 114.5q-99 160 -99 375q0 66 9 131t28.5 133.5t49.5 143.5t72 162
l222 -107q-35 -74 -59.5 -135.5t-41 -116t-24 -105t-7.5 -101.5q0 -145 64 -246q46 -76 125.5 -116.5t176.5 -40.5h211z" />
    <glyph glyph-name="uni0649.fina" unicode="&#x649;" horiz-adv-x="1782" arabic-form="final" 
d="M1802 -15h-267q23 -33 38 -72.5t15 -71.5q0 -93 -51 -168.5t-138 -128.5t-202.5 -82t-245.5 -29h-256q-82 0 -157 19t-141 54.5t-121 86t-97 114.5q-99 160 -99 375q0 66 7.5 131t25 133.5t46 143t70.5 161.5l222 -107q-35 -74 -58 -135t-37.5 -115.5t-20.5 -105
t-6 -101.5q0 -145 64 -246q46 -76 125.5 -116.5t176.5 -40.5h256q75 0 142 14t118 39t83 57.5t37 70.5q-29 31 -73.5 52.5t-101 36t-122 22t-136.5 10.5l7 248h897v-249z" />
    <glyph glyph-name="uni066E.init" unicode="&#x66e;" horiz-adv-x="680" 
d="M558 825q2 -7 8.5 -33t14.5 -63.5t16.5 -83.5t16 -92.5t12 -90.5t4.5 -77q0 -103 -34 -178.5t-89 -124.5t-123.5 -73t-137.5 -24h-266v249h273q12 0 34.5 3.5t45 18.5t39.5 45.5t17 83.5q0 22 -3.5 53.5t-9.5 67.5t-13.5 73.5t-14.5 71t-14 61t-11 42.5z" />
    <glyph glyph-name="uni066E.medi" unicode="&#x66e;" horiz-adv-x="782" 
d="M801 234v-249h-63q-85 0 -155 23t-118 68q-56 -47 -132.5 -69t-174.5 -22h-177v249h177q61 0 97.5 11.5t55 28.5t24 38t5.5 41v324h248v-317q0 -45 20 -70.5t45.5 -38t50.5 -15t34 -2.5h63z" />
    <glyph glyph-name="uni066E.fina" unicode="&#x66e;" horiz-adv-x="2249" 
d="M2041 676v-293q0 -35 10.5 -59.5t27 -41t36.5 -26t39 -14.5t33.5 -6.5t21.5 -1.5h62v-249h-62q-34 0 -72.5 4.5t-77 15t-74.5 28.5t-64 44q-109 -91 -296 -92h-1154q-74 0 -140 25t-117 73q-20 19 -41.5 46t-38.5 64t-28 83.5t-11 104.5q0 50 10 108.5t22.5 110.5
t23.5 90t14 47l119 -38l118 -37q-9 -27 -19 -64.5t-19 -77.5t-15 -77t-6 -64q0 -48 13.5 -77.5t33 -45t42.5 -20.5t41 -5h1145q55 0 94 10.5t58 30.5q23 26 23 75v329h248z" />
    <glyph glyph-name="uni066F.init" unicode="&#x66f;" horiz-adv-x="1052" 
d="M-20 -15v249h408q84 0 141 9.5t92.5 24.5t53.5 33.5t26 37.5q-73 -10 -137 -10q-54 0 -131 10.5t-151 56t-113.5 121.5t-39.5 182q0 84 31 158.5t86.5 130t131.5 87.5q66 27 145 27h20q80 -3 141.5 -28t107 -66t76 -95.5t49 -117.5t27 -131.5t9.5 -137.5l-4 -74
q-8 -140 -56 -230.5t-124.5 -143t-174.5 -73t-206 -20.5h-408zM541 853q-10 1 -19 1q-26 0 -55.5 -7.5t-55 -27.5t-41 -49.5t-15.5 -68.5q0 -87 92 -125q53 -23 133 -23q58 0 130 12q-2 43 -7 91t-22 90t-50 71.5t-90 35.5z" />
    <glyph glyph-name="uni066F.medi" unicode="&#x66f;" horiz-adv-x="1078" 
d="M554 867q93 0 166.5 -34t124.5 -89.5t78 -126.5t27 -146q0 -42 -5 -73.5t-15.5 -58t-25.5 -51t-35 -52.5q18 -1 39.5 -1.5t43 -0.5h41.5h35h72v-249h-72q-64 0 -130.5 4t-130 11.5t-120.5 18t-102 23.5q-91 -26 -204 -41.5t-258 -15.5h-105v249h105q27 0 43 -0.5t29 -0.5
t27 0.5t35 2.5q-42 56 -64 111t-22 124q0 79 33 151t90.5 126.5t134.5 86.5t165 32zM367 469q0 -71 50 -121t130 -81q38 15 70 34t55.5 43.5t37 56t13.5 70.5q0 24 -12 50t-34 47.5t-53 35.5t-70 14q-44 0 -79 -12.5t-59 -33t-36.5 -47.5t-12.5 -56z" />
    <glyph glyph-name="uni066F.fina" unicode="&#x66f;" horiz-adv-x="1652" 
d="M709 -552q-89 0 -169.5 22.5t-148.5 64t-122.5 99t-92.5 128t-58.5 151t-20.5 167.5q0 65 6.5 129t23 132t44.5 142t70 159l223 -106q-36 -73 -59 -134t-36.5 -115.5t-18.5 -105t-5 -102.5q0 -80 25.5 -149.5t73 -121.5t114.5 -81.5t151 -29.5h75q110 0 198 10t150 41
t95.5 87.5t33.5 149.5h-143q-50 0 -102 8.5t-100 28t-90.5 51.5t-74 78.5t-50 108.5t-18.5 142q0 93 27.5 177t81.5 147.5t134 101.5t185 38q106 0 181.5 -39.5t123.5 -107t70.5 -156.5t22.5 -188v-141h169v-249h-170q-5 -158 -59.5 -262t-148.5 -165t-223 -85.5t-283 -24.5
h-85zM1111 629q-85 0 -133.5 -57t-48.5 -170q0 -45 16.5 -76.5t43.5 -52t60.5 -30t68.5 -9.5h143v141q0 93 -17.5 144t-41.5 75.5t-49.5 29.5t-41.5 5z" />
    <glyph glyph-name="uni06C1.init" unicode="&#x6c1;" horiz-adv-x="706" arabic-form="initial" 
d="M476 -612q-1 -30 -15 -55t-36.5 -43.5t-50.5 -29t-57 -10.5q-44 0 -77 17t-55.5 46t-34 66.5t-11.5 79.5q0 109 64 207.5t180 176.5l59 -89q-30 -18 -59 -43.5t-52 -53.5t-37 -55t-14 -49q0 -18 14 -30.5t45 -14.5q30 -4 54 -11.5t41.5 -21t28 -35t13.5 -52.5zM558 825
q2 -7 8.5 -33t14.5 -63.5t16.5 -83.5t16 -92.5t12 -90.5t4.5 -77q0 -103 -34 -178.5t-89 -124.5t-123.5 -73t-137.5 -24h-266v249h273q12 0 34.5 3.5t45 18.5t39.5 45.5t17 83.5q0 22 -3.5 53.5t-9.5 67.5t-13.5 73.5t-14.5 71t-14 61t-11 42.5z" />
    <glyph glyph-name="uni06C1.medi" unicode="&#x6c1;" horiz-adv-x="1186" arabic-form="medial" 
d="M434 38q5 -49 18.5 -113.5t39 -130.5t64.5 -125.5t95 -97.5q-25 70 -29 145q-1 19 -1 37q0 56 12.5 118t44.5 126.5t80.5 114.5t113 82.5t143.5 39.5h192v-249h-186q-26 -11 -56 -33.5t-57.5 -55t-48.5 -75t-28 -92.5q-3 -21 -3 -44q0 -32 8 -78.5t44 -112.5l-94 -181
q-145 8 -252 66t-179.5 150t-113 210t-52.5 246h-211v249h447z" />
    <glyph glyph-name="uni06BE" unicode="&#x6be;" horiz-adv-x="1651" arabic-form="isolated" 
d="M1081 1063q65 -86 132 -174q28 -38 59.5 -79t64 -83.5t63.5 -84.5t60 -80q62 -83 81 -181q6 -35 6 -70q0 -63 -21 -126q-20 -60 -58.5 -110t-93.5 -86t-126 -56t-156 -20q-72 0 -149 14.5t-157 54.5q-18 8 -35 16q-15 7 -31 14.5t-27 13.5q-48 -14 -105 -28t-131 -21
q-52 -5 -113 -5q-27 0 -88.5 2t-183.5 22l54 243q61 -12 101.5 -17t70.5 -5h19q18 0 36.5 1.5t42.5 4.5q-26 30 -46.5 58.5t-35 60t-22 67t-7.5 78.5q0 82 31.5 151t87 118t130 76.5t160.5 27.5q97 0 172.5 -38.5t127 -97t78 -126.5t26.5 -127q0 -48 -9.5 -88t-26.5 -75.5
t-42 -67.5t-56 -63q31 -10 64 -18.5t64 -8.5t65 4.5t64.5 18t54 37.5t35.5 63q4 14 4 29q0 27 -16 69t-58.5 107t-105.5 143.5t-138 171.5l-104 129zM521 487q0 -37 11.5 -65.5t35 -52.5t58 -46.5t80.5 -47.5q31 15 60 34t50.5 42.5t34.5 52.5t13 64q0 42 -18 74t-44 53
t-55.5 31t-52.5 10q-34 0 -65.5 -12t-55.5 -32.5t-38 -47.5t-14 -57z" />
    <glyph glyph-name="uni06D2" unicode="&#x6d2;" horiz-adv-x="1651" arabic-form="isolated" 
d="M1647 -567h-1158q-91 0 -168.5 29t-134.5 82.5t-89 129t-32 169.5q0 82 35 153.5t94 124.5t135.5 83t159.5 30h420v-249h-412q-38 0 -74.5 -8.5t-65 -27t-46.5 -47.5t-18 -71t17.5 -70.5t45.5 -46t63 -25.5t70 -8h1158v-248z" />
    <glyph glyph-name="uni06D2.fina" unicode="&#x6d2;" horiz-adv-x="1328" arabic-form="final" 
d="M1294 -567h-805q-91 0 -168.5 29t-134.5 82.5t-89 129t-32 169.5q0 82 35 153.5t94 124.5t135.5 83t159.5 30h854v-249h-846q-37 0 -72 -11.5t-62.5 -32t-44 -49t-16.5 -61.5t16 -61t42.5 -47.5t60 -30.5t68.5 -11h805v-248z" />
    <glyph glyph-name="uni06A9" unicode="&#x6a9;" horiz-adv-x="2020" arabic-form="isolated" 
d="M462 -15q-74 0 -140 25t-117 73q-20 19 -41.5 46t-38.5 64t-28 83.5t-11 104.5q0 50 10 108.5t22.5 110.5t23.5 90t14 47l119 -38l118 -37q-9 -27 -19 -64.5t-19 -77t-15 -76.5t-6 -64q0 -48 13.5 -77.5t33 -45t42.5 -20.5t41 -5l592 1q121 0 213.5 2t157 10.5t102.5 26
t49 47.5q3 8 3 18q0 13 -8 34.5t-31.5 54.5t-56.5 71.5t-72 80.5q-91 96 -166.5 165t-129.5 113.5t-84.5 66t-31.5 21.5l18 268l901 402l100 -228l-758 -330q71 -53 155 -130.5t183 -187.5q41 -46 79 -91t67 -92t46.5 -98.5t17.5 -109.5v-21.5t-2 -20.5q-17 -113 -75 -177.5
t-154 -96t-227.5 -39t-295.5 -7.5h-594z" />
    <glyph glyph-name="uni06A9.fina" unicode="&#x6a9;" horiz-adv-x="2183" arabic-form="final" 
d="M1057 228q109 0 190.5 6.5t138.5 18.5t90 29.5t47 40.5v-1q5 8 7 21t2 25q0 19 -7.5 43t-20 50.5t-29.5 54t-36 54.5q-76 105 -133 180t-95 124q-45 57 -77 96l53 215l892 420l102 -228l-787 -361l307 -416q55 -75 98.5 -131.5t80.5 -97t70.5 -67t69 -42t75 -22
t88.5 -6.5h19v-249h-19q-86 0 -153 15.5t-121.5 43.5t-100.5 68t-90 90q-41 -82 -108 -127t-152.5 -66t-187.5 -25t-214 -4l-594 5q-74 0 -140 25t-117 73q-20 19 -41.5 46t-38.5 64t-28 83.5t-11 104.5q0 50 10 108.5t22.5 110.5t23.5 90t14 47l119 -38l118 -37
q-9 -27 -19 -64.5t-19 -77t-15 -76.5t-6 -64q0 -48 13.5 -77.5t33 -45t42.5 -20.5t41 -5z" />
    <glyph glyph-name="uni06AF" unicode="&#x6af;" horiz-adv-x="2020" arabic-form="isolated" 
d="M462 -15q-74 0 -140 25t-117 73q-20 19 -41.5 46t-38.5 64t-28 83.5t-11 104.5q0 50 10 108.5t22.5 110.5t23.5 90t14 47l119 -38l118 -37q-9 -27 -19 -64.5t-19 -77t-15 -76.5t-6 -64q0 -48 13.5 -77.5t33 -45t42.5 -20.5t41 -5l592 1q121 0 213.5 2t157 10.5t102.5 26
t49 47.5q3 8 3 18q0 13 -8 34.5t-31.5 54.5t-56.5 71.5t-72 80.5q-91 96 -166.5 165t-129.5 113.5t-84.5 66t-31.5 21.5l18 268l901 402l100 -228l-758 -330q71 -53 155 -130.5t183 -187.5q41 -46 79 -91t67 -92t46.5 -98.5t17.5 -109.5v-21.5t-2 -20.5q-17 -113 -75 -177.5
t-154 -96t-227.5 -39t-295.5 -7.5h-594zM1028.94 1509.06l793.301 338.575l54.1357 -114.562l-860.971 -369.263z" />
    <glyph glyph-name="uni06AF.init" unicode="&#x6af;" horiz-adv-x="1149" arabic-form="initial" 
d="M-20 -15v249h585q16 0 44 1.5t55 8t46.5 19t19.5 34.5q0 43 -32.5 104t-83.5 130t-114.5 139.5t-126 133t-117.5 110.5t-88 72l20 226l870 398l91 -218l-732 -323q38 -37 85.5 -84t97.5 -99.5t99.5 -109t93 -113t77.5 -110.5t53 -102q17 -42 24 -81t7 -71q0 -40 -7.5 -70
t-16.5 -51q-12 -27 -37 -61t-69.5 -63t-112 -49t-163.5 -20h-568zM202 1509l762 331l52 -112l-827 -361z" />
    <glyph glyph-name="uni06AF.medi" unicode="&#x6af;" horiz-adv-x="1249" arabic-form="medial" 
d="M1269 -15h-30q-88 0 -153 16.5t-117 46t-95.5 71t-88.5 92.5q-24 -63 -76.5 -107t-120 -71t-144.5 -38q-66 -10 -131 -10h-333v249h326q66 0 122 7.5t97 25t65 46.5t27 71q0 43 -36.5 109t-95 147t-132 171.5t-148.5 183.5l42 203l868 421l102 -228l-759 -351
q94 -126 187.5 -250.5t187.5 -250.5q55 -73 101 -129.5t92.5 -95.5t97.5 -59.5t115 -20.5h30v-249zM261 1499l762 331l52 -112l-827 -361z" />
    <glyph glyph-name="uni06AF.fina" unicode="&#x6af;" horiz-adv-x="2183" arabic-form="final" 
d="M1057 228q109 0 190.5 6.5t138.5 18.5t90 29.5t47 40.5v-1q5 8 7 21t2 25q0 19 -7.5 43t-20 50.5t-29.5 54t-36 54.5q-76 105 -133 180t-95 124q-45 57 -77 96l53 215l892 420l102 -228l-787 -361l307 -416q55 -75 98.5 -131.5t80.5 -97t70.5 -67t69 -42t75 -22
t88.5 -6.5h19v-249h-19q-86 0 -153 15.5t-121.5 43.5t-100.5 68t-90 90q-41 -82 -108 -127t-152.5 -66t-187.5 -25t-214 -4l-594 5q-74 0 -140 25t-117 73q-20 19 -41.5 46t-38.5 64t-28 83.5t-11 104.5q0 50 10 108.5t22.5 110.5t23.5 90t14 47l119 -38l118 -37
q-9 -27 -19 -64.5t-19 -77t-15 -76.5t-6 -64q0 -48 13.5 -77.5t33 -45t42.5 -20.5t41 -5zM1223 1500l762 331l52 -112l-827 -361z" />
    <glyph glyph-name="uni06BA" unicode="&#x6ba;" horiz-adv-x="1600" arabic-form="isolated" 
d="M700 -553q-80 0 -154 19t-139.5 54t-121 86t-96.5 115q-48 78 -74 173.5t-26 199.5q0 66 8 128t25.5 127t46 136t69.5 156l225 -107q-36 -73 -60 -131t-39 -109.5t-21.5 -99t-6.5 -99.5q0 -68 17 -130.5t47 -112.5q48 -71 126.5 -113.5t173.5 -42.5h203q106 0 172.5 22
t103.5 62.5t50.5 97.5t13.5 126v673h249v-673q0 -279 -147.5 -418t-441.5 -139h-203z" />
    <glyph glyph-name="uni06BA.fina" unicode="&#x6ba;" horiz-adv-x="1703" arabic-form="final" 
d="M700 -553q-80 0 -154 19t-139.5 54t-121 86t-96.5 115q-48 78 -74 173.5t-26 199.5q0 66 8 128t25.5 127t46 136t69.5 156l225 -107q-36 -73 -60 -131t-39 -109.5t-21.5 -99t-6.5 -99.5q0 -68 17 -130.5t47 -112.5q48 -71 126.5 -113.5t173.5 -42.5h203q106 0 172.5 22
t103.5 62.5t50.5 97.5t13.5 126v673h249v-312q2 -66 43.5 -98.5t107.5 -32.5h80v-249h-80q-38 0 -77.5 7t-73.5 20v-8q0 -279 -147.5 -418t-441.5 -139h-203z" />
    <glyph glyph-name="uni062F.fina" unicode="&#x62f;" horiz-adv-x="1187" arabic-form="final" 
d="M1207 -15h-81q-133 0 -254 117q-33 -39 -78.5 -64.5t-97.5 -40.5t-105.5 -21t-102.5 -6q-38 0 -77 4.5t-88.5 15t-113.5 28t-153 44.5l72 239q61 -24 126 -42.5t127 -30t119 -14.5q23 -2 44 -2q31 0 67 5t67.5 21.5t42.5 44.5q5 12 5 22q0 9 -5.5 22t-17.5 31.5t-31 48.5
l-355 499l210 135l357 -541q29 -44 61 -91t64 -85.5t62 -63.5t55 -25h81v-250z" />
    <glyph glyph-name="uni06C1.fina" unicode="&#x6c1;" horiz-adv-x="1290" arabic-form="final" 
d="M1318 -15h-74q-76 0 -157 21t-154.5 67.5t-131.5 120.5t-88 181l-127 458l-89 -19q-48 -11 -78.5 -30.5t-46.5 -47.5q-14 -26 -21 -59.5t-7 -73.5q0 -67 33 -186.5t83 -288.5l-239 -67q-26 93 -49 171.5t-40 145t-26.5 122.5t-9.5 103q0 69 14.5 134t46.5 122
q44 75 113 124t167 73q20 5 58 12.5l76 15t67.5 13t32.5 5.5l129 -84q15 -66 30 -125.5t33 -125t40 -144.5t52 -184q20 -64 55.5 -104t76.5 -62.5t82.5 -30.5t74.5 -8h74v-249z" />
    <glyph glyph-name="uni0686" unicode="&#x686;" horiz-adv-x="1475" arabic-form="isolated" 
d="M1351 526l-590 -243q-129 -49 -214.5 -84t-136 -69.5t-71 -73.5t-20.5 -95q0 -2 1 -19.5t2 -38.5t2 -39t1 -19q12 -127 54 -205t106 -120.5t148 -56.5t180 -14h461v-249h-461q-158 0 -286.5 30.5t-222.5 105t-150.5 198.5t-71.5 310q0 1 -1 18t-2 38t-2 38t-1 18
q0 123 48.5 209.5t131 149t191 107t229.5 82.5l401 132q-116 40 -235.5 78.5t-234.5 75.5q-21 7 -40.5 12.5t-37.5 5.5q-23 0 -41.5 -4.5t-33.5 -16t-27.5 -32.5t-24.5 -54l-229 69q19 60 47.5 112.5t68.5 91.5t92.5 61.5t119.5 22.5q55 0 120 -20q80 -26 146.5 -51.5
t132.5 -52.5q38 -15 79 -34t93 -41.5t117.5 -49.5t152.5 -58zM576.024 -35.5059l152.309 152.495l152.31 -154.29l-152.31 -152.495zM949.629 -37.3008l154.102 152.496l152.309 -154.29l-152.309 -152.495zM771.338 -288.47l141.558 141.731l143.35 -143.525
l-141.558 -141.731z" />
    <glyph glyph-name="uni0686.fina" unicode="&#x686;" horiz-adv-x="1579" arabic-form="final" 
d="M944 358l-180 -74q-129 -49 -214.5 -84t-136 -69.5t-71 -73.5t-20.5 -95q0 -2 1 -19.5t2 -38.5t2 -39t1 -19q12 -127 54 -205t106 -120.5t148 -56.5t180 -14h461v-249h-461q-158 0 -286.5 30.5t-222.5 105t-150.5 198.5t-71.5 310q0 1 -1 18t-2 38t-2 38t-1 18
q0 123 48.5 209.5t131 149t191 107t229.5 82.5l401 132q-116 40 -235.5 78.5t-234.5 75.5q-21 7 -40.5 12.5t-37.5 5.5q-23 0 -41.5 -4.5t-33.5 -16t-27.5 -32.5t-24.5 -54l-229 69q19 60 47.5 112.5t68.5 91.5t92.5 61.5t119.5 22.5q55 0 120 -20q80 -26 146.5 -51.5
t132.5 -52.5q38 -15 79 -34t93 -41.5t117.5 -49.5t152.5 -58l9 -225l-103 -42l-62 -26q2 -30 10 -65q10 -42 31 -77.5t52.5 -59t74.5 -23.5h245v-249h-245q-76 0 -135.5 18t-105.5 48t-78.5 69t-53.5 82t-30 86q-9 36 -10 70zM475.769 -81.8164l142.451 142.504
l142.452 -144.18l-142.452 -142.504zM825.194 -83.4922l144.127 142.503l142.452 -144.18l-142.452 -142.504zM658.441 -318.204l132.396 132.444l134.072 -134.121l-132.396 -132.444z" />
    <glyph glyph-name="uni0623" unicode="&#x623;" horiz-adv-x="619" arabic-form="isolated" 
d="M434 -15h-249v1295h249v-1295zM70 1349v149l124 40q-30 31 -49.5 70t-19.5 83q0 34 12 67t33 61t49.5 49t60.5 30q17 5 34.5 7.5t34.5 2.5q36 0 63.5 -8.5t51.5 -17.5l17 -8l-30 -124q-14 3 -31 8t-34 8t-33.5 3.5t-29.5 -3.5q-14 -5 -27.5 -14t-22.5 -20.5t-12 -26.5
q-2 -6 -2 -12q0 -10 4 -20q8 -26 37.5 -44t82.5 -18q10 0 21.5 1t30.5 5.5t48.5 13t75.5 23.5l8 -141z" />
    <glyph glyph-name="uni0623.fina" unicode="&#x623;" horiz-adv-x="674" arabic-form="final" 
d="M693 -15q-79 0 -141 8.5t-111 25.5t-87 42.5t-69 60.5q-32 37 -52 81.5t-30.5 91t-14 94t-3.5 91.5v800h249v-800q0 -81 9 -127.5t29 -69.5q12 -12 29 -21.5t43 -15.5t62.5 -9t86.5 -3v-249zM68 1355v149l124 40q-30 31 -49.5 70t-19.5 83q0 34 12 67t33 61t49.5 49
t60.5 30q17 5 34.5 7.5t34.5 2.5q36 0 63.5 -8.5t51.5 -17.5l17 -8l-30 -124q-14 3 -31 8t-34 8t-33.5 3.5t-29.5 -3.5q-14 -5 -27.5 -14t-22.5 -20.5t-12 -26.5q-2 -6 -2 -12q0 -10 4 -20q8 -26 37.5 -44t82.5 -18q10 0 21.5 1t30.5 5.5t48.5 13t75.5 23.5l8 -141z" />
    <glyph glyph-name="uni0625" unicode="&#x625;" horiz-adv-x="619" arabic-form="isolated" 
d="M434 -15h-249v1442h249v-1442zM48 -701v149l124 40q-30 31 -49.5 70t-19.5 83q0 34 12 67t33 61t49.5 49t60.5 30q17 5 34.5 7.5t34.5 2.5q36 0 63.5 -8.5t51.5 -17.5l17 -8l-30 -124q-14 3 -31 8t-34 8t-33.5 3.5t-29.5 -3.5q-14 -5 -27.5 -14t-22.5 -20.5t-12 -26.5
q-2 -6 -2 -12q0 -10 4 -20q8 -26 37.5 -44t82.5 -18q10 0 21.5 1t30.5 5.5t48.5 13t75.5 23.5l8 -141z" />
    <glyph glyph-name="uni0625.fina" unicode="&#x625;" horiz-adv-x="651" arabic-form="final" 
d="M671 -15q-110 0 -189 13.5t-133 40t-86.5 67.5t-49.5 96t-22.5 124.5t-5.5 153.5v947h249v-947q0 -80 5.5 -128t29 -74.5t71 -35t131.5 -8.5v-249zM72 -692v149l124 40q-30 31 -49.5 70t-19.5 83q0 34 12 67t33 61t49.5 49t60.5 30q17 5 34.5 7.5t34.5 2.5
q36 0 63.5 -8.5t51.5 -17.5l17 -8l-30 -124q-14 3 -31 8t-34 8t-33.5 3.5t-29.5 -3.5q-14 -5 -27.5 -14t-22.5 -20.5t-12 -26.5q-2 -6 -2 -12q0 -10 4 -20q8 -26 37.5 -44t82.5 -18q10 0 21.5 1t30.5 5.5t48.5 13t75.5 23.5l8 -141z" />
    <glyph glyph-name="uni0622" unicode="&#x622;" horiz-adv-x="925" arabic-form="isolated" 
d="M636 -15h-249v1295h249v-1295zM925 1424h-490q-59 0 -99.5 -3.5t-69 -18t-47 -42t-33.5 -75.5l-186 55q26 90 71 147t108 89q54 26 117 34.5t139 8.5h490v-195z" />
    <glyph glyph-name="uni0622.fina" unicode="&#x622;" horiz-adv-x="853" arabic-form="final" 
d="M865 -15q-79 0 -141 8.5t-111 25.5t-87 42.5t-69 60.5q-32 37 -52 81.5t-30.5 91t-14 94t-3.5 91.5v800h249v-800q0 -81 9 -127.5t29 -69.5q12 -12 29 -21.5t43 -15.5t62.5 -9t86.5 -3v-249zM925 1423h-490q-59 0 -99.5 -3.5t-69 -18t-47 -42t-33.5 -75.5l-186 55
q26 90 71 147t108 89q54 26 117 34.5t139 8.5h490v-195z" />
    <glyph glyph-name="uni0671" unicode="&#x671;" horiz-adv-x="619" arabic-form="isolated" 
d="M434 -15h-249v1295h249v-1295zM1 1421l24 109h132l44 68l83 122q35 52 86 82.5t111 30.5q34 0 68 -13t61 -40t43.5 -68t16.5 -97q0 -54 -18 -91t-46 -60t-62.5 -33t-67.5 -10h-475zM481 1724q-27 0 -53.5 -18t-51 -46t-47.5 -62.5t-43 -67.5h190q36 0 60 20t24 65
q0 53 -20.5 81t-58.5 28z" />
    <glyph glyph-name="uni0671.fina" unicode="&#x671;" horiz-adv-x="674" arabic-form="final" 
d="M693 -15q-79 0 -141 8.5t-111 25.5t-87 42.5t-69 60.5q-32 37 -52 81.5t-30.5 91t-14 94t-3.5 91.5v800h249v-800q0 -81 9 -127.5t29 -69.5q12 -12 29 -21.5t43 -15.5t62.5 -9t86.5 -3v-249zM1 1421l24 109h132l44 68l83 122q35 52 86 82.5t111 30.5q34 0 68 -13t61 -40
t43.5 -68t16.5 -97q0 -54 -18 -91t-46 -60t-62.5 -33t-67.5 -10h-475zM481 1724q-27 0 -53.5 -18t-51 -46t-47.5 -62.5t-43 -67.5h190q36 0 60 20t24 65q0 53 -20.5 81t-58.5 28z" />
    <glyph glyph-name="uni0628" unicode="&#x628;" horiz-adv-x="2103" arabic-form="isolated" 
d="M462 -15q-74 0 -140 25t-117 73q-20 19 -41.5 46t-38.5 64t-28 83.5t-11 104.5q0 50 10 108.5t22.5 110.5t23.5 90t14 47l119 -38l118 -37q-9 -27 -19 -64.5t-19 -77t-15 -76.5t-6 -64q0 -48 13.5 -77.5t33 -45t38.5 -19.5t45 -4h1192q12 0 34.5 3.5t45 18.5t39.5 45.5
t17 83.5q0 22 -3.5 53.5t-9.5 67.5t-13.5 73.5t-14.5 71.5q-3 13 -5 25l236 62q1 -5 2 -9q8 -38 16.5 -84t16 -92.5t12 -90.5t4.5 -77q0 -103 -34 -178.5t-89 -124.5t-123.5 -73t-137.5 -24h-1187zM877 -349l180 182l184 -184l-182 -182z" />
    <glyph glyph-name="uni0628.init" unicode="&#x628;" horiz-adv-x="680" arabic-form="initial" 
d="M558 825q2 -7 8.5 -33t14.5 -63.5t16.5 -83.5t16 -92.5t12 -90.5t4.5 -77q0 -103 -34 -178.5t-89 -124.5t-123.5 -73t-137.5 -24h-266v249h273q12 0 34.5 3.5t45 18.5t39.5 45.5t17 83.5q0 22 -3.5 53.5t-9.5 67.5t-13.5 73.5t-14.5 71t-14 61t-11 42.5zM121 -363
l180 182l184 -184l-182 -182z" />
    <glyph glyph-name="uni0628.medi" unicode="&#x628;" horiz-adv-x="782" arabic-form="medial" 
d="M801 234v-249h-63q-85 0 -155 23t-118 68q-56 -47 -132.5 -69t-174.5 -22h-177v249h177q61 0 97.5 11.5t55 28.5t24 38t5.5 41v324h248v-317q0 -45 20 -70.5t45.5 -38t50.5 -15t34 -2.5h63zM194 -374l180 182l184 -184l-182 -182z" />
    <glyph glyph-name="uni0628.fina" unicode="&#x628;" horiz-adv-x="2249" arabic-form="final" 
d="M2041 676v-293q0 -35 10.5 -59.5t27 -41t36.5 -26t39 -14.5t33.5 -6.5t21.5 -1.5h62v-249h-62q-34 0 -72.5 4.5t-77 15t-74.5 28.5t-64 44q-109 -91 -296 -92h-1154q-74 0 -140 25t-117 73q-20 19 -41.5 46t-38.5 64t-28 83.5t-11 104.5q0 50 10 108.5t22.5 110.5
t23.5 90t14 47l119 -38l118 -37q-9 -27 -19 -64.5t-19 -77.5t-15 -77t-6 -64q0 -48 13.5 -77.5t33 -45t42.5 -20.5t41 -5h1145q55 0 94 10.5t58 30.5q23 26 23 75v329h248zM898 -362l180 182l184 -184l-182 -182z" />
    <glyph glyph-name="uni067E" unicode="&#x67e;" horiz-adv-x="2103" arabic-form="isolated" 
d="M462 -15q-74 0 -140 25t-117 73q-20 19 -41.5 46t-38.5 64t-28 83.5t-11 104.5q0 50 10 108.5t22.5 110.5t23.5 90t14 47l119 -38l118 -37q-9 -27 -19 -64.5t-19 -77t-15 -76.5t-6 -64q0 -48 13.5 -77.5t33 -45t38.5 -19.5t45 -4h1192q12 0 34.5 3.5t45 18.5t39.5 45.5
t17 83.5q0 22 -3.5 53.5t-9.5 67.5t-13.5 73.5t-14.5 71.5q-3 13 -5 25l236 62q1 -5 2 -9q8 -38 16.5 -84t16 -92.5t12 -90.5t4.5 -77q0 -103 -34 -178.5t-89 -124.5t-123.5 -73t-137.5 -24h-1187zM707 -342l170 170l170 -172l-170 -170zM1124 -344l172 170l170 -172
l-170 -170zM925 -624l158 158l160 -160l-158 -158z" />
    <glyph glyph-name="uni067E.fina" unicode="&#x67e;" horiz-adv-x="2249" arabic-form="final" 
d="M2041 676v-293q0 -35 10.5 -59.5t27 -41t36.5 -26t39 -14.5t33.5 -6.5t21.5 -1.5h62v-249h-62q-34 0 -72.5 4.5t-77 15t-74.5 28.5t-64 44q-109 -91 -296 -92h-1154q-74 0 -140 25t-117 73q-20 19 -41.5 46t-38.5 64t-28 83.5t-11 104.5q0 50 10 108.5t22.5 110.5
t23.5 90t14 47l119 -38l118 -37q-9 -27 -19 -64.5t-19 -77.5t-15 -77t-6 -64q0 -48 13.5 -77.5t33 -45t42.5 -20.5t41 -5h1145q55 0 94 10.5t58 30.5q23 26 23 75v329h248zM706 -341l170 170l170 -172l-170 -170zM1123 -343l172 170l170 -172l-170 -170zM924 -623l158 158
l160 -160l-158 -158z" />
    <glyph glyph-name="uni067E.init" unicode="&#x67e;" horiz-adv-x="868" arabic-form="initial" 
d="M723 825q2 -7 8.5 -33t14.5 -63.5t16.5 -83.5t16 -92.5t12 -90.5t4.5 -77q0 -103 -34 -178.5t-89 -124.5t-123.5 -73t-137.5 -24h-431v249h438q12 0 34.5 3.5t45 18.5t39.5 45.5t17 83.5q0 22 -3.5 53.5t-9.5 67.5t-13.5 73.5t-14.5 71t-14 61t-11 42.5zM31 -344l170 170
l170 -172l-170 -170zM448 -346l172 170l170 -172l-170 -170zM249 -626l158 158l160 -160l-158 -158z" />
    <glyph glyph-name="uni067E.medi" unicode="&#x67e;" horiz-adv-x="1034" arabic-form="medial" 
d="M1054 234v-249h-148q-85 0 -155 23t-118 68q-56 -47 -132.5 -69t-174.5 -22h-346v249h346q61 0 97.5 11.5t55 28.5t24 38t5.5 41v324h248v-317q0 -45 20 -70.5t45.5 -38t50.5 -15t34 -2.5h148zM110 -339l170 170l170 -172l-170 -170zM527 -341l172 170l170 -172
l-170 -170zM328 -621l158 158l160 -160l-158 -158z" />
    <glyph glyph-name="uni062A" unicode="&#x62a;" horiz-adv-x="2103" arabic-form="isolated" 
d="M462 -15q-74 0 -140 25t-117 73q-20 19 -41.5 46t-38.5 64t-28 83.5t-11 104.5q0 50 10 108.5t22.5 110.5t23.5 90t14 47l119 -38l118 -37q-9 -27 -19 -64.5t-19 -77t-15 -76.5t-6 -64q0 -48 13.5 -77.5t33 -45t38.5 -19.5t45 -4h1192q12 0 34.5 3.5t45 18.5t39.5 45.5
t17 83.5q0 22 -3.5 53.5t-9.5 67.5t-13.5 73.5t-14.5 71.5q-3 13 -5 25l236 62q1 -5 2 -9q8 -38 16.5 -84t16 -92.5t12 -90.5t4.5 -77q0 -103 -34 -178.5t-89 -124.5t-123.5 -73t-137.5 -24h-1187zM1269 760l-168 170l166 172l172 -172zM850 759l-168 170l165 172l172 -172z
" />
    <glyph glyph-name="uni062A.init" unicode="&#x62a;" horiz-adv-x="868" arabic-form="initial" 
d="M723 825q2 -7 8.5 -33t14.5 -63.5t16.5 -83.5t16 -92.5t12 -90.5t4.5 -77q0 -103 -34 -178.5t-89 -124.5t-123.5 -73t-137.5 -24h-431v249h438q12 0 34.5 3.5t45 18.5t39.5 45.5t17 83.5q0 22 -3.5 53.5t-9.5 67.5t-13.5 73.5t-14.5 71t-14 61t-11 42.5zM629 1020
l-168 170l166 172l172 -172zM210 1019l-168 170l165 172l172 -172z" />
    <glyph glyph-name="uni062A.medi" unicode="&#x62a;" horiz-adv-x="1034" arabic-form="medial" 
d="M1054 234v-249h-148q-85 0 -155 23t-118 68q-56 -47 -132.5 -69t-174.5 -22h-346v249h346q61 0 97.5 11.5t55 28.5t24 38t5.5 41v324h248v-317q0 -45 20 -70.5t45.5 -38t50.5 -15t34 -2.5h148zM715 935l-168 170l166 172l172 -172zM296 934l-168 170l165 172l172 -172z
" />
    <glyph glyph-name="uni062A.fina" unicode="&#x62a;" horiz-adv-x="2249" arabic-form="final" 
d="M2041 676v-293q0 -35 10.5 -59.5t27 -41t36.5 -26t39 -14.5t33.5 -6.5t21.5 -1.5h62v-249h-62q-34 0 -72.5 4.5t-77 15t-74.5 28.5t-64 44q-109 -91 -296 -92h-1154q-74 0 -140 25t-117 73q-20 19 -41.5 46t-38.5 64t-28 83.5t-11 104.5q0 50 10 108.5t22.5 110.5
t23.5 90t14 47l119 -38l118 -37q-9 -27 -19 -64.5t-19 -77.5t-15 -77t-6 -64q0 -48 13.5 -77.5t33 -45t42.5 -20.5t41 -5h1145q55 0 94 10.5t58 30.5q23 26 23 75v329h248zM1269 760l-168 170l166 172l172 -172zM850 759l-168 170l165 172l172 -172z" />
    <glyph glyph-name="uni062B" unicode="&#x62b;" horiz-adv-x="2103" arabic-form="isolated" 
d="M462 -15q-74 0 -140 25t-117 73q-20 19 -41.5 46t-38.5 64t-28 83.5t-11 104.5q0 50 10 108.5t22.5 110.5t23.5 90t14 47l119 -38l118 -37q-9 -27 -19 -64.5t-19 -77t-15 -76.5t-6 -64q0 -48 13.5 -77.5t33 -45t38.5 -19.5t45 -4h1192q12 0 34.5 3.5t45 18.5t39.5 45.5
t17 83.5q0 22 -3.5 53.5t-9.5 67.5t-13.5 73.5t-14.5 71.5q-3 13 -5 25l236 62q1 -5 2 -9q8 -38 16.5 -84t16 -92.5t12 -90.5t4.5 -77q0 -103 -34 -178.5t-89 -124.5t-123.5 -73t-137.5 -24h-1187zM1035 887l-170 -172l-170 170l170 172zM1464 891l-168 -170l-175 168
l172 172zM1243 1173l-160 -160l-158 158l160 160z" />
    <glyph glyph-name="uni062B.init" unicode="&#x62b;" horiz-adv-x="868" arabic-form="initial" 
d="M723 825q2 -7 8.5 -33t14.5 -63.5t16.5 -83.5t16 -92.5t12 -90.5t4.5 -77q0 -103 -34 -178.5t-89 -124.5t-123.5 -73t-137.5 -24h-431v249h438q12 0 34.5 3.5t45 18.5t39.5 45.5t17 83.5q0 22 -3.5 53.5t-9.5 67.5t-13.5 73.5t-14.5 71t-14 61t-11 42.5zM369 1163
l-170 -172l-170 170l170 172zM798 1167l-168 -170l-175 168l172 172zM577 1449l-160 -160l-158 158l160 160z" />
    <glyph glyph-name="uni062B.medi" unicode="&#x62b;" horiz-adv-x="1034" arabic-form="medial" 
d="M1054 234v-249h-148q-85 0 -155 23t-118 68q-56 -47 -132.5 -69t-174.5 -22h-346v249h346q61 0 97.5 11.5t55 28.5t24 38t5.5 41v324h248v-317q0 -45 20 -70.5t45.5 -38t50.5 -15t34 -2.5h148zM438 1101l-170 -172l-170 170l170 172zM867 1105l-168 -170l-175 168
l172 172zM646 1387l-160 -160l-158 158l160 160z" />
    <glyph glyph-name="uni062B.fina" unicode="&#x62b;" horiz-adv-x="2249" arabic-form="final" 
d="M2041 676v-293q0 -35 10.5 -59.5t27 -41t36.5 -26t39 -14.5t33.5 -6.5t21.5 -1.5h62v-249h-62q-34 0 -72.5 4.5t-77 15t-74.5 28.5t-64 44q-109 -91 -296 -92h-1154q-74 0 -140 25t-117 73q-20 19 -41.5 46t-38.5 64t-28 83.5t-11 104.5q0 50 10 108.5t22.5 110.5
t23.5 90t14 47l119 -38l118 -37q-9 -27 -19 -64.5t-19 -77.5t-15 -77t-6 -64q0 -48 13.5 -77.5t33 -45t42.5 -20.5t41 -5h1145q55 0 94 10.5t58 30.5q23 26 23 75v329h248zM1035 887l-170 -172l-170 170l170 172zM1464 891l-168 -170l-175 168l172 172zM1243 1173l-160 -160
l-158 158l160 160z" />
    <glyph glyph-name="uni0679" unicode="&#x679;" horiz-adv-x="2103" arabic-form="isolated" 
d="M462 -15q-74 0 -140 25t-117 73q-20 19 -41.5 46t-38.5 64t-28 83.5t-11 104.5q0 50 10 108.5t22.5 110.5t23.5 90t14 47l119 -38l118 -37q-9 -27 -19 -64.5t-19 -77t-15 -76.5t-6 -64q0 -48 13.5 -77.5t33 -45t38.5 -19.5t45 -4h1192q12 0 34.5 3.5t45 18.5t39.5 45.5
t17 83.5q0 22 -3.5 53.5t-9.5 67.5t-13.5 73.5t-14.5 71.5q-3 13 -5 25l236 62q1 -5 2 -9q8 -38 16.5 -84t16 -92.5t12 -90.5t4.5 -77q0 -103 -34 -178.5t-89 -124.5t-123.5 -73t-137.5 -24h-1187zM806 658v109h104q3 4 5.5 8.5t7 11.5t12 17.5t18.5 26.5v488h107v-343
q36 38 79.5 63t95.5 25q34 0 68 -12t61 -37.5t43.5 -66t16.5 -96.5q0 -54 -18 -91t-46 -60t-62.5 -33t-67.5 -10h-424zM1235 955q-26 0 -52 -16.5t-51 -43.5t-48 -60.5t-44 -67.5h190q36 0 62 20t26 65q0 53 -22.5 78t-60.5 25z" />
    <glyph glyph-name="uni0679.init" unicode="&#x679;" horiz-adv-x="868" arabic-form="initial" 
d="M723 825q2 -7 8.5 -33t14.5 -63.5t16.5 -83.5t16 -92.5t12 -90.5t4.5 -77q0 -103 -34 -178.5t-89 -124.5t-123.5 -73t-137.5 -24h-431v249h438q12 0 34.5 3.5t45 18.5t39.5 45.5t17 83.5q0 22 -3.5 53.5t-9.5 67.5t-13.5 73.5t-14.5 71t-14 61t-11 42.5zM169 978v109h104
q3 4 5.5 8.5t7 11.5t12 17.5t18.5 26.5v488h107v-343q36 38 79.5 63t95.5 25q34 0 68 -12t61 -37.5t43.5 -66t16.5 -96.5q0 -54 -18 -91t-46 -60t-62.5 -33t-67.5 -10h-424zM598 1275q-26 0 -52 -16.5t-51 -43.5t-48 -60.5t-44 -67.5h190q36 0 62 20t26 65q0 53 -22.5 78
t-60.5 25z" />
    <glyph glyph-name="uni0679.medi" unicode="&#x679;" horiz-adv-x="1034" arabic-form="medial" 
d="M1054 234v-249h-148q-85 0 -155 23t-118 68q-56 -47 -132.5 -69t-174.5 -22h-346v249h346q61 0 97.5 11.5t55 28.5t24 38t5.5 41v324h248v-317q0 -45 20 -70.5t45.5 -38t50.5 -15t34 -2.5h148zM134 844v109h104q3 4 5.5 8.5t7 11.5t12 17.5t18.5 26.5v488h107v-343
q36 38 79.5 63t95.5 25q34 0 68 -12t61 -37.5t43.5 -66t16.5 -96.5q0 -54 -18 -91t-46 -60t-62.5 -33t-67.5 -10h-424zM563 1141q-26 0 -52 -16.5t-51 -43.5t-48 -60.5t-44 -67.5h190q36 0 62 20t26 65q0 53 -22.5 78t-60.5 25z" />
    <glyph glyph-name="uni0679.fina" unicode="&#x679;" horiz-adv-x="2249" arabic-form="final" 
d="M2041 676v-293q0 -35 10.5 -59.5t27 -41t36.5 -26t39 -14.5t33.5 -6.5t21.5 -1.5h62v-249h-62q-34 0 -72.5 4.5t-77 15t-74.5 28.5t-64 44q-109 -91 -296 -92h-1154q-74 0 -140 25t-117 73q-20 19 -41.5 46t-38.5 64t-28 83.5t-11 104.5q0 50 10 108.5t22.5 110.5
t23.5 90t14 47l119 -38l118 -37q-9 -27 -19 -64.5t-19 -77.5t-15 -77t-6 -64q0 -48 13.5 -77.5t33 -45t42.5 -20.5t41 -5h1145q55 0 94 10.5t58 30.5q23 26 23 75v329h248zM818 668v109h104q3 4 5.5 8.5t7 11.5t12 17.5t18.5 26.5v488h107v-343q36 38 79.5 63t95.5 25
q34 0 68 -12t61 -37.5t43.5 -66t16.5 -96.5q0 -54 -18 -91t-46 -60t-62.5 -33t-67.5 -10h-424zM1247 965q-26 0 -52 -16.5t-51 -43.5t-48 -60.5t-44 -67.5h190q36 0 62 20t26 65q0 53 -22.5 78t-60.5 25z" />
    <glyph glyph-name="uni0629" unicode="&#x629;" horiz-adv-x="1042" arabic-form="isolated" 
d="M519 -15q-96 0 -176.5 27.5t-138.5 78t-90.5 120.5t-32.5 155q0 84 21 150.5t56.5 124t83 110t100.5 108.5l-63 71l184 167q11 -13 26 -29t30.5 -33t30.5 -33t27 -29q72 -77 140.5 -149.5t122 -145t86.5 -145.5q31 -72 31 -148v-5q-1 -88 -35 -157.5t-99 -128.5
q-60 -51 -136.5 -80t-167.5 -29zM507 706q-40 -45 -75.5 -85t-61 -80t-38.5 -82q-12 -35 -12 -76q0 -8 1 -17q3 -37 22 -63.5t47 -44t62 -25.5t67 -8q38 0 73 11t61.5 31t42.5 49t16 64q0 43 -17 84t-45.5 81t-65.5 80t-77 81zM706 1208l-168 170l166 172l172 -172z
M287 1207l-168 170l165 172l172 -172z" />
    <glyph glyph-name="uni0629.fina" unicode="&#x629;" horiz-adv-x="1258" arabic-form="final" 
d="M1278 -15h-28q-78 0 -150 14.5t-133 44t-108.5 75.5t-77.5 109q-24 -37 -61.5 -65.5t-81.5 -47.5t-91 -28.5t-90 -9.5q-80 0 -151.5 28t-125.5 79.5t-85.5 125.5t-31.5 167q0 108 41 190t109 143.5t156.5 105t183.5 75.5l-24 96l244 57l182 -708q16 -65 52 -104.5
t78.5 -61t87 -29t77.5 -7.5h28v-249zM662 482q5 21 5 43q0 7 -1.5 24.5t-8.5 49.5t-18.5 69t-24.5 83q-160 -51 -242.5 -115.5t-82.5 -159.5q0 -37 16.5 -66t43 -48t59.5 -27q21 -6 42 -6q11 0 23 2q75 11 125 44.5t64 106.5zM852 1298l-168 170l166 172l172 -172zM433 1297
l-168 170l165 172l172 -172z" />
    <glyph glyph-name="uni0686.init" unicode="&#x686;" horiz-adv-x="1435" arabic-form="initial" 
d="M1361 383q-6 -4 -52 -35t-122 -75.5t-178 -94.5t-220 -93t-247 -71.5t-259 -28.5h-303v249h303q98 0 209 20t219 51.5t205.5 70.5t169.5 77q-46 14 -99.5 30.5t-109.5 33t-111 32t-103 27.5t-86 19t-60 7q-23 0 -40.5 -5.5t-31.5 -18t-26 -32.5t-25 -48l-229 69
q19 60 46.5 112.5t67 91.5t91.5 61.5t119 22.5q26 0 74 -11t109 -29t130.5 -41t139.5 -48t136 -49t119 -43.5t89 -32.5t46 -16zM309 -354l170 170l170 -172l-170 -170zM726 -356l172 170l170 -172l-170 -170zM527 -636l158 158l160 -160l-158 -158z" />
    <glyph glyph-name="uni0686.medi" unicode="&#x686;" horiz-adv-x="1553" arabic-form="medial" 
d="M1354 383q-5 -3 -32 -21.5t-73 -47.5q10 -30 31 -46.5t43 -24t41.5 -8.5t27.5 -1h183v-249h-183q-119 1 -213.5 52.5t-147.5 154.5q-77 -38 -166 -75.5t-186 -66.5t-199 -47t-204 -18h-298v249h298q98 0 209 20t219 51.5t205.5 70.5t169.5 77q-45 14 -99 30.5t-110 33
t-111 32t-103 27.5t-86 19t-60 7q-23 0 -40.5 -5.5t-31.5 -18t-26 -32.5t-25 -48l-229 69q19 60 46.5 112.5t67 91.5t91.5 61.5t119 22.5q26 0 74 -11t109 -29t130.5 -41t139.5 -48t136 -49t119 -43.5t89 -32.5t46 -16zM318 -355l170 170l170 -172l-170 -170zM735 -357
l172 170l170 -172l-170 -170zM536 -637l158 158l160 -160l-158 -158z" />
    <glyph glyph-name="uni062C" unicode="&#x62c;" horiz-adv-x="1485" arabic-form="isolated" 
d="M1377 558l-590 -243q-129 -49 -213.5 -84t-134 -69.5t-69 -73.5t-19.5 -95q0 -71 16 -121t46 -82.5t72.5 -51t95.5 -28t115 -11.5t131 -2h461v-249h-461q-159 0 -291 25.5t-227 87.5t-148 166t-53 261q0 82 21.5 147t61 117.5t94 94t120.5 75t141 61t156 53.5l401 132
q-116 40 -235.5 78.5t-234.5 75.5q-21 7 -40.5 12.5t-37.5 5.5q-23 0 -41.5 -4.5t-33.5 -16t-27.5 -32.5t-24.5 -54l-229 69q19 60 47.5 112.5t68.5 91.5t92.5 61.5t119.5 22.5q55 0 120 -20q80 -26 146.5 -51.5t132.5 -52.5q38 -15 79 -34t93 -41.5t117.5 -49.5t152.5 -58z
M686 42l180 182l184 -184l-182 -182z" />
    <glyph glyph-name="uni062C.init" unicode="&#x62c;" horiz-adv-x="1435" arabic-form="initial" 
d="M1361 383q-6 -4 -52 -35t-122 -75.5t-178 -94.5t-220 -93t-247 -71.5t-259 -28.5h-303v249h303q98 0 209 20t219 51.5t205.5 70.5t169.5 77q-46 14 -99.5 30.5t-109.5 33t-111 32t-103 27.5t-86 19t-60 7q-23 0 -40.5 -5.5t-31.5 -18t-26 -32.5t-25 -48l-229 69
q19 60 46.5 112.5t67 91.5t91.5 61.5t119 22.5q26 0 74 -11t109 -29t130.5 -41t139.5 -48t136 -49t119 -43.5t89 -32.5t46 -16zM492 -358l180 182l184 -184l-182 -182z" />
    <glyph glyph-name="uni062C.medi" unicode="&#x62c;" horiz-adv-x="1553" arabic-form="medial" 
d="M1354 383q-5 -3 -32 -21.5t-73 -47.5q10 -30 31 -46.5t43 -24t41.5 -8.5t27.5 -1h183v-249h-183q-119 1 -213.5 52.5t-147.5 154.5q-77 -38 -166 -75.5t-186 -66.5t-199 -47t-204 -18h-298v249h298q98 0 209 20t219 51.5t205.5 70.5t169.5 77q-45 14 -99 30.5t-110 33
t-111 32t-103 27.5t-86 19t-60 7q-23 0 -40.5 -5.5t-31.5 -18t-26 -32.5t-25 -48l-229 69q19 60 46.5 112.5t67 91.5t91.5 61.5t119 22.5q26 0 74 -11t109 -29t130.5 -41t139.5 -48t136 -49t119 -43.5t89 -32.5t46 -16zM509 -358l180 182l184 -184l-182 -182z" />
    <glyph glyph-name="uni062C.fina" unicode="&#x62c;" horiz-adv-x="1575" arabic-form="final" 
d="M1358 351l-108 -45q27 -35 56 -53.5t51 -18.5h245v-249h-245q-129 0 -216.5 60t-135.5 160l-237 -97q-129 -49 -213.5 -84t-134 -69.5t-69 -73.5t-19.5 -95q0 -71 16 -121t46 -82.5t72.5 -51t95.5 -28t115 -11.5t131 -2h461v-249h-461q-159 0 -291 25.5t-227 87.5
t-148 166t-53 261q0 82 21.5 147t61 117.5t94 94t120.5 75t141 61t156 53.5l401 132q-116 40 -235.5 78.5t-234.5 75.5q-21 7 -40.5 12.5t-37.5 5.5q-23 0 -41.5 -4.5t-33.5 -16t-27.5 -32.5t-24.5 -54l-229 69q19 60 47.5 112.5t68.5 91.5t92.5 61.5t119.5 22.5
q55 0 120 -20q80 -26 146.5 -51.5t132.5 -52.5q38 -15 79 -34t93 -41.5t117.5 -49.5t152.5 -58zM669 -198l180 182l184 -184l-182 -182z" />
    <glyph glyph-name="uni062E" unicode="&#x62e;" horiz-adv-x="1485" arabic-form="isolated" 
d="M1377 558l-590 -243q-129 -49 -213.5 -84t-134 -69.5t-69 -73.5t-19.5 -95q0 -71 16 -121t46 -82.5t72.5 -51t95.5 -28t115 -11.5t131 -2h461v-249h-461q-159 0 -291 25.5t-227 87.5t-148 166t-53 261q0 82 21.5 147t61 117.5t94 94t120.5 75t141 61t156 53.5l401 132
q-116 40 -235.5 78.5t-234.5 75.5q-21 7 -40.5 12.5t-37.5 5.5q-23 0 -41.5 -4.5t-33.5 -16t-27.5 -32.5t-24.5 -54l-229 69q19 60 47.5 112.5t68.5 91.5t92.5 61.5t119.5 22.5q55 0 120 -20q80 -26 146.5 -51.5t132.5 -52.5q38 -15 79 -34t93 -41.5t117.5 -49.5t152.5 -58z
M322 1466l180 182l184 -184l-182 -182z" />
    <glyph glyph-name="uni062E.init" unicode="&#x62e;" horiz-adv-x="1435" arabic-form="initial" 
d="M1361 383q-6 -4 -52 -35t-122 -75.5t-178 -94.5t-220 -93t-247 -71.5t-259 -28.5h-303v249h303q98 0 209 20t219 51.5t205.5 70.5t169.5 77q-46 14 -99.5 30.5t-109.5 33t-111 32t-103 27.5t-86 19t-60 7q-23 0 -40.5 -5.5t-31.5 -18t-26 -32.5t-25 -48l-229 69
q19 60 46.5 112.5t67 91.5t91.5 61.5t119 22.5q26 0 74 -11t109 -29t130.5 -41t139.5 -48t136 -49t119 -43.5t89 -32.5t46 -16zM256 1261l180 182l184 -184l-182 -182z" />
    <glyph glyph-name="uni062E.medi" unicode="&#x62e;" horiz-adv-x="1553" arabic-form="medial" 
d="M1354 383q-5 -3 -32 -21.5t-73 -47.5q10 -30 31 -46.5t43 -24t41.5 -8.5t27.5 -1h183v-249h-183q-119 1 -213.5 52.5t-147.5 154.5q-77 -38 -166 -75.5t-186 -66.5t-199 -47t-204 -18h-298v249h298q98 0 209 20t219 51.5t205.5 70.5t169.5 77q-45 14 -99 30.5t-110 33
t-111 32t-103 27.5t-86 19t-60 7q-23 0 -40.5 -5.5t-31.5 -18t-26 -32.5t-25 -48l-229 69q19 60 46.5 112.5t67 91.5t91.5 61.5t119 22.5q26 0 74 -11t109 -29t130.5 -41t139.5 -48t136 -49t119 -43.5t89 -32.5t46 -16zM261 1261l180 182l184 -184l-182 -182z" />
    <glyph glyph-name="uni062E.fina" unicode="&#x62e;" horiz-adv-x="1575" arabic-form="final" 
d="M1358 351l-108 -45q27 -35 56 -53.5t51 -18.5h245v-249h-245q-129 0 -216.5 60t-135.5 160l-237 -97q-129 -49 -213.5 -84t-134 -69.5t-69 -73.5t-19.5 -95q0 -71 16 -121t46 -82.5t72.5 -51t95.5 -28t115 -11.5t131 -2h461v-249h-461q-159 0 -291 25.5t-227 87.5
t-148 166t-53 261q0 82 21.5 147t61 117.5t94 94t120.5 75t141 61t156 53.5l401 132q-116 40 -235.5 78.5t-234.5 75.5q-21 7 -40.5 12.5t-37.5 5.5q-23 0 -41.5 -4.5t-33.5 -16t-27.5 -32.5t-24.5 -54l-229 69q19 60 47.5 112.5t68.5 91.5t92.5 61.5t119.5 22.5
q55 0 120 -20q80 -26 146.5 -51.5t132.5 -52.5q38 -15 79 -34t93 -41.5t117.5 -49.5t152.5 -58zM333 1259l180 182l184 -184l-182 -182z" />
    <glyph glyph-name="uni0630" unicode="&#x630;" horiz-adv-x="1042" arabic-form="isolated" 
d="M515 -16q-38 0 -75 4t-75 11t-78 17.5t-84 23.5l-119 36l72 240q87 -30 180.5 -53t176.5 -30q27 -2 52 -2q50 0 100.5 11t71.5 55q4 8 4 19q0 7 -4 22t-20 38l-373 544l210 136l68 -105q0 -1 3.5 -6t14 -21t30 -45.5t51.5 -77.5t78.5 -118.5t111.5 -168.5q51 -77 63 -159
q3 -21 3 -41q0 -60 -24 -115q-17 -40 -45.5 -73.5t-66.5 -59.5q-71 -49 -171 -67q-84 -15 -155 -15zM295 1390l180 182l184 -184l-182 -182z" />
    <glyph glyph-name="uni0630.fina" unicode="&#x630;" horiz-adv-x="1187" arabic-form="final" 
d="M1207 -15h-81q-133 0 -254 117q-33 -39 -78.5 -64.5t-97.5 -40.5t-105.5 -21t-102.5 -6q-38 0 -77 4.5t-88.5 15t-113.5 28t-153 44.5l72 239q61 -24 126 -42.5t127 -30t119 -14.5q23 -2 44 -2q31 0 67 5t67.5 21.5t42.5 44.5q5 12 5 22q0 9 -5.5 22t-17.5 31.5t-31 48.5
l-355 499l210 135l357 -541q29 -44 61 -91t64 -85.5t62 -63.5t55 -25h81v-250zM251 1418l180 182l184 -184l-182 -182z" />
    <glyph glyph-name="uni0688" unicode="&#x688;" horiz-adv-x="1042" arabic-form="isolated" 
d="M515 -16q-38 0 -75 4t-75 11t-78 17.5t-84 23.5l-119 36l72 240q87 -30 180.5 -53t176.5 -30q27 -2 52 -2q50 0 100.5 11t71.5 55q4 8 4 19q0 7 -4 22t-20 38l-373 544l210 136l68 -105q0 -1 3.5 -6t14 -21t30 -45.5t51.5 -77.5t78.5 -118.5t111.5 -168.5q51 -77 63 -159
q3 -21 3 -41q0 -60 -24 -115q-17 -40 -45.5 -73.5t-66.5 -59.5q-71 -49 -171 -67q-84 -15 -155 -15zM72 1208v109h104q3 4 5.5 8.5t7 11.5t12 17.5t18.5 26.5v488h107v-343q36 38 79.5 63t95.5 25q34 0 68 -12t61 -37.5t43.5 -66t16.5 -96.5q0 -54 -18 -91t-46 -60
t-62.5 -33t-67.5 -10h-424zM501 1505q-26 0 -52 -16.5t-51 -43.5t-48 -60.5t-44 -67.5h190q36 0 62 20t26 65q0 53 -22.5 78t-60.5 25z" />
    <glyph glyph-name="uni0688.fina" unicode="&#x688;" horiz-adv-x="1187" arabic-form="final" 
d="M1207 -15h-81q-133 0 -254 117q-33 -39 -78.5 -64.5t-97.5 -40.5t-105.5 -21t-102.5 -6q-38 0 -77 4.5t-88.5 15t-113.5 28t-153 44.5l72 239q61 -24 126 -42.5t127 -30t119 -14.5q23 -2 44 -2q31 0 67 5t67.5 21.5t42.5 44.5q5 12 5 22q0 9 -5.5 22t-17.5 31.5t-31 48.5
l-355 499l210 135l357 -541q29 -44 61 -91t64 -85.5t62 -63.5t55 -25h81v-250zM174 1236v109h104q3 4 5.5 8.5t7 11.5t12 17.5t18.5 26.5v488h107v-343q36 38 79.5 63t95.5 25q34 0 68 -12t61 -37.5t43.5 -66t16.5 -96.5q0 -54 -18 -91t-46 -60t-62.5 -33t-67.5 -10h-424z
M603 1533q-26 0 -52 -16.5t-51 -43.5t-48 -60.5t-44 -67.5h190q36 0 62 20t26 65q0 53 -22.5 78t-60.5 25z" />
    <glyph glyph-name="uni0632" unicode="&#x632;" horiz-adv-x="811" arabic-form="isolated" 
d="M743 46q-6 -138 -51 -248.5t-124 -188t-191 -119.5t-253 -42h-124v249h124q96 0 166 20t115 64t67 114.5t22 171.5v609h249v-630zM427 1109l180 182l184 -184l-182 -182z" />
    <glyph glyph-name="uni0632.fina" unicode="&#x632;" horiz-adv-x="909" arabic-form="final" 
d="M929 -15h-38q-41 0 -77.5 5t-71.5 28q-12 -129 -59 -234t-125.5 -179.5t-187.5 -115.5t-245 -41h-125v249h125q96 0 166 20t115 64t67 114.5t22 171.5v609h249v-299q0 -46 19.5 -74t45 -43.5t49.5 -20.5t33 -5h38v-249zM436 1081l180 182l184 -184l-182 -182z" />
    <glyph glyph-name="uni0691" unicode="&#x691;" horiz-adv-x="811" arabic-form="isolated" 
d="M743 46q-6 -138 -51 -248.5t-124 -188t-191 -119.5t-253 -42h-124v249h124q96 0 166 20t115 64t67 114.5t22 171.5v609h249v-630zM189 881v109h104q3 4 5.5 8.5t7 11.5t12 17.5t18.5 26.5v488h107v-343q36 38 79.5 63t95.5 25q34 0 68 -12t61 -37.5t43.5 -66t16.5 -96.5
q0 -54 -18 -91t-46 -60t-62.5 -33t-67.5 -10h-424zM618 1178q-26 0 -52 -16.5t-51 -43.5t-48 -60.5t-44 -67.5h190q36 0 62 20t26 65q0 53 -22.5 78t-60.5 25z" />
    <glyph glyph-name="uni0691.fina" unicode="&#x691;" horiz-adv-x="909" arabic-form="final" 
d="M929 -15h-38q-41 0 -77.5 5t-71.5 28q-12 -129 -59 -234t-125.5 -179.5t-187.5 -115.5t-245 -41h-125v249h125q96 0 166 20t115 64t67 114.5t22 171.5v609h249v-299q0 -46 19.5 -74t45 -43.5t49.5 -20.5t33 -5h38v-249zM226 875v109h104q3 4 5.5 8.5t7 11.5t12 17.5
t18.5 26.5v488h107v-343q36 38 79.5 63t95.5 25q34 0 68 -12t61 -37.5t43.5 -66t16.5 -96.5q0 -54 -18 -91t-46 -60t-62.5 -33t-67.5 -10h-424zM655 1172q-26 0 -52 -16.5t-51 -43.5t-48 -60.5t-44 -67.5h190q36 0 62 20t26 65q0 53 -22.5 78t-60.5 25z" />
    <glyph glyph-name="uni0698" unicode="&#x698;" horiz-adv-x="935" arabic-form="isolated" 
d="M743 46q-6 -138 -51 -248.5t-124 -188t-191 -119.5t-253 -42h-124v249h124q96 0 166 20t115 64t67 114.5t22 171.5v609h249v-630zM491 1078l-170 -172l-170 170l170 172zM920 1082l-168 -170l-175 168l172 172zM699 1364l-160 -160l-158 158l160 160z" />
    <glyph glyph-name="uni0698.fina" unicode="&#x698;" horiz-adv-x="909" arabic-form="final" 
d="M929 -15h-38q-41 0 -77.5 5t-71.5 28q-12 -129 -59 -234t-125.5 -179.5t-187.5 -115.5t-245 -41h-125v249h125q96 0 166 20t115 64t67 114.5t22 171.5v609h249v-299q0 -46 19.5 -74t45 -43.5t49.5 -20.5t33 -5h38v-249zM481 1082l-170 -172l-170 170l170 172zM910 1086
l-168 -170l-175 168l172 172zM689 1368l-160 -160l-158 158l160 160z" />
    <glyph glyph-name="uni0634" unicode="&#x634;" horiz-adv-x="2736" arabic-form="isolated" 
d="M2258 -15q-94 0 -169 26t-129 74q-30 -29 -63.5 -48t-69 -30.5t-71 -16.5t-68.5 -5q-52 0 -98 8t-88 36v-42q0 -275 -148.5 -407t-440.5 -132h-195q-134 0 -246 44t-193 125.5t-126.5 197t-45.5 259.5q0 66 8.5 132t26.5 135t46.5 144.5t69.5 161.5l224 -109
q-35 -72 -61.5 -133.5t-44 -117t-26 -107t-8.5 -103.5q0 -80 27.5 -149.5t77 -121t119.5 -80.5q67 -29 147 -29h200q106 0 172.5 19.5t103.5 56.5t50.5 91t13.5 123v689h249v-180q0 -86 16 -138t42 -79.5t59.5 -36.5t68.5 -9q21 0 47.5 7.5t50.5 25.5t40 48.5t16 75.5v286
h248v-296q2 -76 41.5 -111.5t124.5 -35.5h-1q14 1 37.5 6.5t45.5 22t38 47t16 81.5q0 33 -8 84t-19 104.5t-22 100t-18 69.5l235 71q2 -6 8.5 -31t15 -61.5t18 -81t17 -90t12.5 -89t5 -76.5q0 -102 -33.5 -177.5t-87 -126t-121 -75.5t-136.5 -26zM1909 1109l-170 -172
l-170 170l170 172zM2338 1113l-168 -170l-175 168l172 172zM2117 1395l-160 -160l-158 158l160 160z" />
    <glyph glyph-name="uni0634.init" unicode="&#x634;" horiz-adv-x="1788" arabic-form="initial" 
d="M755 -13q-183 0 -290 95q-55 -51 -122 -74t-138 -23h-225v249h225q12 0 34.5 4t45 19.5t39.5 46t17 84.5v288h249v-284q0 -82 38.5 -119.5t126.5 -37.5q12 0 34.5 4.5t45 20.5t39.5 47.5t17 84.5v284h248v-284q0 -82 39.5 -120.5t128.5 -38.5q13 0 35.5 5.5t44.5 22
t38 47.5t16 84q0 22 -3.5 53t-9 65.5t-12.5 70t-14 67.5t-13.5 58t-10.5 41l235 77q2 -7 8 -32t14.5 -62t17.5 -82t16.5 -90.5t12.5 -89t5 -76.5q0 -102 -33.5 -178.5t-87.5 -127t-122 -75.5t-137 -26q-186 0 -294 98q-55 -51 -121.5 -73.5t-136.5 -22.5zM981 1118
l-170 -172l-170 170l170 172zM1410 1122l-168 -170l-175 168l172 172zM1189 1404l-160 -160l-158 158l160 160z" />
    <glyph glyph-name="uni0634.medi" unicode="&#x634;" horiz-adv-x="1896" arabic-form="medial" 
d="M-20 234h129q59 0 95.5 10t57 29.5t27.5 47.5t7 64v291h249v-286q0 -81 39 -118t123 -38q15 1 36.5 6t42 20.5t35 45t14.5 79.5v291h248v-286q0 -82 39 -119t127 -37q24 0 47.5 7.5t42.5 25t31 45.5t14 69v295h249v-296q2 -77 47 -111.5t138 -34.5h98v-249h-98
q-103 0 -179 22.5t-131 73.5q-51 -47 -119.5 -71.5t-139.5 -24.5q-94 0 -164.5 23t-125.5 74q-52 -46 -116.5 -71t-130.5 -26h-7q-90 0 -160 24.5t-122 68.5q-117 -93 -314 -93h-129v249zM931 1090l-170 -172l-170 170l170 172zM1360 1094l-168 -170l-175 168l172 172z
M1139 1376l-160 -160l-158 158l160 160z" />
    <glyph glyph-name="uni0634.fina" unicode="&#x634;" horiz-adv-x="2928" arabic-form="final" 
d="M2870 -15q-206 0 -315 100q-57 -46 -128.5 -73t-143.5 -27q-188 0 -296 100q-57 -46 -128.5 -73t-143.5 -27q-54 0 -98.5 8t-87.5 28v-34q0 -275 -148.5 -407.5t-440.5 -132.5h-221q-79 0 -153.5 19.5t-140 55t-121 85.5t-96.5 112q-48 78 -74 166t-26 194
q0 66 8.5 131.5t27.5 135t48 144.5t70 161l224 -109q-35 -73 -60 -134.5t-41 -116.5t-23 -106t-7 -103q0 -65 18.5 -124t45.5 -106q48 -71 126.5 -113.5t173.5 -42.5h221q106 0 172.5 19.5t103.5 57t50.5 91.5t13.5 123v689h249v-194q0 -86 16 -135.5t42 -74.5t59.5 -32
t68.5 -7q21 0 47.5 7.5t50.5 25.5t40 48.5t16 75.5v286h248v-296q2 -76 41.5 -111.5t126.5 -35.5q21 0 47.5 7.5t49.5 25.5t39 48t16 76v286h248v-296q2 -76 45.5 -111t139.5 -35h78v-249h-78zM1972 1086l-170 -172l-170 170l170 172zM2401 1090l-168 -170l-175 168l172 172
zM2180 1372l-160 -160l-158 158l160 160z" />
    <glyph glyph-name="uni0636" unicode="&#x636;" horiz-adv-x="2793" arabic-form="isolated" 
d="M722 -552q-80 0 -155 19t-140.5 54t-121 86t-96.5 115q-48 79 -73.5 167.5t-25.5 194.5q0 66 8 129.5t26 131t46.5 141t69.5 158.5l225 -107q-35 -72 -59 -133t-39 -115t-22 -104t-7 -101q0 -71 15.5 -125.5t48.5 -105.5q46 -75 124.5 -115.5t175.5 -40.5h219
q106 0 172 20t103 58t50 93t13 124v684h248v-319q0 -17 5.5 -33t14.5 -29t20 -21.5t22 -11.5q74 121 150 230t160 190.5t180 129.5t210 48q78 0 154 -23t136 -76.5t96.5 -139.5t36.5 -212q0 -119 -39.5 -200.5t-101.5 -131t-139 -71t-152 -21.5h-573q-18 0 -41.5 1t-47.5 4
t-48 9.5t-43 17.5v-25q0 -278 -147 -411t-439 -133h-219zM2280 234q33 0 72.5 8.5t73.5 28.5t57 54t23 84q0 56 -18 94.5t-48.5 62.5t-69.5 34.5t-81 10.5q-59 0 -122 -31.5t-125 -83.5t-119.5 -120.5t-103.5 -141.5h461zM2077 1229l180 182l184 -184l-182 -182z" />
    <glyph glyph-name="uni0636.init" unicode="&#x636;" horiz-adv-x="1796" arabic-form="initial" 
d="M-19 -15v249h124q61 0 97 11t54.5 29t24.5 40.5t6 45.5v316h248v-316q0 -18 7 -35t18 -30.5t25 -22t29 -10.5l22 36q40 66 84.5 133t93.5 129.5t104 117t117 95t131 63.5t148 23q78 0 155 -21.5t137.5 -72.5t98 -135.5t37.5 -211.5q0 -120 -40.5 -202.5t-104 -133.5
t-142 -74t-153.5 -23h-572q-36 0 -80 1.5t-88 10t-83.5 26.5t-67.5 52q-109 -87 -299 -90h-131zM1314 611q-60 0 -121 -31t-120.5 -83t-114.5 -120t-101 -143h445q37 0 76 9.5t71 31t53 56.5t21 87q0 56 -17.5 93.5t-46.5 59.5t-66.5 31t-78.5 9zM1115 1238l180 182
l184 -184l-182 -182z" />
    <glyph glyph-name="uni0636.medi" unicode="&#x636;" horiz-adv-x="1876" arabic-form="medial" 
d="M640 298q40 66 84.5 133.5t93.5 129.5t104 117t117 95t131 63.5t148 23.5q78 0 154 -21.5t136 -72.5t97 -136t37 -212q0 -55 -9.5 -99.5t-25.5 -84.5h189v-249h-1221q-82 0 -147 18.5t-110 73.5q-56 -48 -130 -69t-172 -23h-136v249h129q61 0 97 11t54.5 28.5t24.5 38
t6 40.5v324h248v-316q0 -18 7 -35t18 -30.5t25 -22t29 -10.5zM1318 612q-60 0 -122 -31t-122 -83.5t-115.5 -120.5t-101.5 -143h449q38 0 77 12t70.5 35.5t51 58t19.5 78.5q0 56 -17 93.5t-45.5 60t-65.5 31.5t-78 9zM1132 1243l180 182l184 -184l-182 -182z" />
    <glyph glyph-name="uni0636.fina" unicode="&#x636;" horiz-adv-x="2849" arabic-form="final" 
d="M722 -552q-80 0 -155 19t-140.5 54t-121 86t-96.5 115q-48 79 -73.5 167.5t-25.5 194.5q0 66 8 129.5t26 131t46.5 141t69.5 158.5l225 -107q-35 -72 -59 -133t-39 -115t-22 -104t-7 -101q0 -71 15.5 -125.5t48.5 -105.5q46 -75 124.5 -115.5t175.5 -40.5h219
q106 0 172 20t103 58t50 93t13 124v684h248v-319q0 -17 5.5 -33t14.5 -29t20 -21.5t22 -11.5q74 121 150 230t160 190.5t180 129.5t210 48q78 0 154 -23t136 -76.5t96.5 -139.5t36.5 -212q0 -51 -7.5 -94.5t-21.5 -80.5h186v-249h-1162q-18 0 -41.5 1t-47.5 4t-48 9.5
t-43 17.5v-25q0 -278 -147 -411t-439 -133h-219zM2280 234q33 0 72.5 8.5t73.5 28.5t57 54t23 84q0 56 -18 94.5t-48.5 62.5t-69.5 34.5t-81 10.5q-59 0 -122 -31.5t-125 -83.5t-119.5 -120.5t-103.5 -141.5h461zM2100 1243l180 182l184 -184l-182 -182z" />
    <glyph glyph-name="uni0638" unicode="&#x638;" horiz-adv-x="1525" arabic-form="isolated" 
d="M97 -15v249h199l84 129v1064h248v-759q40 41 84 75.5t92 60t100 40t108 14.5q79 0 155 -23t136 -76t96.5 -139t36.5 -212q0 -120 -40 -201.5t-102.5 -130.5t-140 -70t-152.5 -21h-904zM1012 610q-58 0 -120 -31t-123 -83t-117 -120t-102 -142h451q5 0 24 1t45 5.5t55 15
t53 30t40 49t16 73.5q0 56 -19 94.5t-50 62.5t-71 34.5t-82 10.5zM859 1287l180 182l184 -184l-182 -182z" />
    <glyph glyph-name="uni0638.init" unicode="&#x638;" horiz-adv-x="1415" arabic-form="initial" 
d="M-20 -15v249h199l84 129v1064h248v-759q40 41 84 75.5t92 60t100 40t108 14.5q79 0 155 -23t136 -76t96.5 -139t36.5 -212q0 -120 -40 -201.5t-102.5 -130.5t-140 -70t-152.5 -21h-904zM895 610q-58 0 -120 -31t-123 -83t-117 -120t-102 -142h451q5 0 24 1t45 5.5t55 15
t53 30t40 49t16 73.5q0 56 -19 94.5t-50 62.5t-71 34.5t-82 10.5zM737 1282l180 182l184 -184l-182 -182z" />
    <glyph glyph-name="uni0638.medi" unicode="&#x638;" horiz-adv-x="1486" arabic-form="medial" 
d="M-20 -15v249h199l84 129v1064h248v-759q40 41 84 75.5t92 60t100 40t108 14.5q79 0 155 -23t136 -76t96.5 -139t36.5 -212q0 -51 -7.5 -94t-21.5 -80h216v-249h-1526zM895 610q-58 0 -120 -31t-123 -83t-117 -120t-102 -142h462q12 0 33.5 2t46 8.5t50 18t46 31
t33.5 47.5t13 67q0 56 -19 94.5t-50 62.5t-71 34.5t-82 10.5zM758 1283l180 182l184 -184l-182 -182z" />
    <glyph glyph-name="uni0638.fina" unicode="&#x638;" horiz-adv-x="1594" arabic-form="final" 
d="M113 -15v249h199l84 129v1064h248v-759q40 41 84 75.5t92 60t100 40t108 14.5q79 0 155 -23t136 -76t96.5 -139t36.5 -212q0 -51 -7.5 -94t-21.5 -80h191v-249h-1501zM1028 610q-58 0 -120 -31t-123 -83t-117 -120t-102 -142h462q12 0 33.5 2t46 8.5t50 18t46 31
t33.5 47.5t13 67q0 56 -19 94.5t-50 62.5t-71 34.5t-82 10.5zM879 1284l180 182l184 -184l-182 -182z" />
    <glyph glyph-name="uni063A" unicode="&#x63a;" horiz-adv-x="1387" arabic-form="isolated" 
d="M1233 -553h-480q-83 0 -165.5 15t-157.5 45.5t-139 78t-111.5 112t-74 146.5t-26.5 183q0 128 51 235.5t145 188.5q51 43 107.5 74t119.5 49q-31 38 -49.5 75.5t-28.5 72t-13 64t-3 52.5q0 88 35.5 165t95 134.5t138.5 90.5t166 33q56 0 103.5 -12t92 -33t88 -48.5
t90.5 -58.5l-111 -201q-63 36 -102.5 56.5t-66.5 31t-48 13.5t-46 3q-34 0 -69 -12t-63.5 -34.5t-46.5 -54.5t-18 -73q0 -25 19 -63.5t68 -80.5l-1 1q61 -48 162.5 -74t235.5 -26h112v-249h-590q-49 0 -108 -18.5t-110 -57.5t-85.5 -99t-34.5 -144q0 -80 27.5 -136
t70.5 -92.5t95 -57t100.5 -31t88 -12.5t57.5 -2h480v-249zM651 1590l180 182l184 -184l-182 -182z" />
    <glyph glyph-name="uni063A.init" unicode="&#x63a;" horiz-adv-x="1191" arabic-form="initial" 
d="M-20 -15v249h284q-25 35 -39 69t-21 64.5t-8.5 58t-1.5 48.5q0 89 34 165t92.5 132t136 88t164.5 32q50 0 92 -8.5t85.5 -26t93 -45t112.5 -64.5l-125 -213q-26 17 -58 36t-66.5 35t-69 26.5t-64.5 10.5q-33 0 -67.5 -11t-62.5 -32t-46 -52.5t-18 -72.5q0 -12 3.5 -28
t12.5 -35.5t25.5 -40.5t42.5 -43h-1q60 -49 161.5 -71t237.5 -22h110v-249h-1039zM435 1264l180 182l184 -184l-182 -182z" />
    <glyph glyph-name="uni063A.medi" unicode="&#x63a;" horiz-adv-x="1269" arabic-form="medial" 
d="M1289 -15h-378q-19 0 -42 4t-53.5 16t-69.5 35t-90 61q-60 -29 -136.5 -50.5t-163.5 -36t-182.5 -22t-193.5 -7.5v249q67 0 132 3t123.5 8.5t109 14t90.5 19.5q-85 75 -153.5 132.5t-107.5 97.5l-28 28v54q0 21 2 46.5t9.5 53t20.5 55t36 53.5q43 48 105.5 71.5
t153.5 23.5h350q45 0 88.5 -12t80.5 -34t66.5 -53.5t46.5 -70.5q11 -26 17.5 -58t6.5 -58q0 -24 -10 -50t-38 -64.5t-78.5 -95t-130.5 -142.5q9 -5 23 -8.5t28 -6t25.5 -4.5t14.5 -3h326v-249zM453 662q-30 0 -47.5 -5t-25.5 -9l286 -288q33 28 71.5 62.5t72 70t56 69
t24.5 59.5v2q0 14 -14.5 26.5t-37.5 12.5h-385zM489 1272l180 182l184 -184l-182 -182z" />
    <glyph glyph-name="uni063A.fina" unicode="&#x63a;" horiz-adv-x="1387" arabic-form="final" 
d="M1236 -759h-494q-143 0 -266 30t-213 95.5t-141.5 168t-51.5 246.5q0 103 47.5 194.5t144.5 179.5q59 53 123.5 98t134.5 87l-270 264q0 22 4.5 51.5t14 61t25 62t37.5 56.5q45 48 109 71.5t157 23.5h329q45 0 86.5 -12t77 -34t64 -53t46.5 -68q12 -27 18 -56t6 -57
q0 -56 -26 -104t-68 -89.5t-94.5 -78.5t-104.5 -72q48 -38 71.5 -53.5t30.5 -18.5h374v-249h-382q-32 0 -61 6.5t-63.5 25.5t-80 54t-111.5 91q-75 -45 -146 -90.5t-126.5 -92.5t-89 -96.5t-33.5 -101.5q0 -67 21 -114.5t55.5 -80t79 -51.5t92 -29t94.5 -13t86 -3h494v-249z
M576 700q-38 0 -57.5 -1t-23.5 -7q17 -19 41.5 -46.5t55 -60.5t66.5 -70.5t76 -76.5q76 54 140.5 98t115.5 94q11 11 15 26q2 7 2 13q0 5 -2 9q-5 11 -18 16.5t-30 5.5h-381zM534 1296l180 182l184 -184l-182 -182z" />
    <glyph glyph-name="uni06A9.init" unicode="&#x6a9;" horiz-adv-x="1149" arabic-form="initial" 
d="M-20 -15v249h585q16 0 44 1.5t55 8t46.5 19t19.5 34.5q0 43 -32.5 104t-83.5 130t-114.5 139.5t-126 133t-117.5 110.5t-88 72l20 226l870 398l91 -218l-732 -323q38 -37 85.5 -84t97.5 -99.5t99.5 -109t93 -113t77.5 -110.5t53 -102q17 -42 24 -81t7 -71q0 -40 -7.5 -70
t-16.5 -51q-12 -27 -37 -61t-69.5 -63t-112 -49t-163.5 -20h-568z" />
    <glyph glyph-name="uni06A9.medi" unicode="&#x6a9;" horiz-adv-x="1249" arabic-form="medial" 
d="M1269 -15h-30q-88 0 -153 16.5t-117 46t-95.5 71t-88.5 92.5q-24 -63 -76.5 -107t-120 -71t-144.5 -38q-66 -10 -131 -10h-333v249h326q66 0 122 7.5t97 25t65 46.5t27 71q0 43 -36.5 109t-95 147t-132 171.5t-148.5 183.5l42 203l868 421l102 -228l-759 -351
q94 -126 187.5 -250.5t187.5 -250.5q55 -73 101 -129.5t92.5 -95.5t97.5 -59.5t115 -20.5h30v-249z" />
    <glyph glyph-name="uni0641" unicode="&#x641;" horiz-adv-x="2127" arabic-form="isolated" 
d="M462 -15q-74 0 -140 25t-117 73q-20 19 -41.5 46t-38.5 64t-28 83.5t-11 104.5q0 50 10 108.5t22.5 110.5t23.5 90t14 47l119 -38l118 -37q-9 -27 -19 -64.5t-19 -77t-15 -76.5t-6 -64q0 -48 13.5 -77t33 -44.5t42.5 -20t41 -4.5h1005q84 0 141 9.5t92.5 24.5t53.5 33.5
t26 37.5q-73 -10 -137 -10q-54 0 -131 10.5t-151 56t-113.5 121.5t-39.5 182q0 84 31 158.5t86.5 130t131.5 87.5q66 27 145 27h20q81 -3 142 -28t106.5 -66t76 -95.5t49 -117.5t27 -131.5t9.5 -137.5l-4 -74q-8 -140 -56 -230.5t-124.5 -143t-174.5 -73t-206 -20.5h-1007z
M1622 853q-10 1 -19 1q-26 0 -55.5 -7.5t-55 -27.5t-41 -49.5t-15.5 -68.5q0 -87 92 -125q53 -23 133 -23q58 0 130 12q-2 43 -7 91t-22 90t-50 71.5t-90 35.5zM1422 1470l180 182l184 -184l-182 -182z" />
    <glyph glyph-name="uni0641.init" unicode="&#x641;" horiz-adv-x="1052" arabic-form="initial" 
d="M-11 -15v249h408q84 0 141 9.5t92.5 24.5t53.5 33.5t26 37.5q-73 -10 -137 -10q-54 0 -131 10.5t-151 56t-113.5 121.5t-39.5 182q0 84 31 158.5t86.5 130t131.5 87.5q66 27 145 27h20q80 -3 141.5 -28t107 -66t76 -95.5t49 -117.5t27 -131.5t9.5 -137.5l-4 -74
q-8 -140 -56 -230.5t-124.5 -143t-174.5 -73t-206 -20.5h-408zM550 853q-10 1 -19 1q-26 0 -55.5 -7.5t-55 -27.5t-41 -49.5t-15.5 -68.5q0 -87 92 -125q53 -23 133 -23q58 0 130 12q-2 43 -7 91t-22 90t-50 71.5t-90 35.5zM323 1488l180 182l184 -184l-182 -182z" />
    <glyph glyph-name="uni0641.medi" unicode="&#x641;" horiz-adv-x="1078" arabic-form="medial" 
d="M554 867q93 0 166.5 -34t124.5 -89.5t78 -126.5t27 -146q0 -42 -5 -73.5t-15.5 -58t-25.5 -51t-35 -52.5q18 -1 39.5 -1.5t43 -0.5h41.5h35h72v-249h-72q-64 0 -130.5 4t-130 11.5t-120.5 18t-102 23.5q-91 -26 -204 -41.5t-258 -15.5h-105v249h105q27 0 43 -0.5t29 -0.5
t27 0.5t35 2.5q-42 56 -64 111t-22 124q0 79 33 151t90.5 126.5t134.5 86.5t165 32zM367 469q0 -71 50 -121t130 -81q38 15 70 34t55.5 43.5t37 56t13.5 70.5q0 24 -12 50t-34 47.5t-53 35.5t-70 14q-44 0 -79 -12.5t-59 -33t-36.5 -47.5t-12.5 -56zM364 1290l180 182
l184 -184l-182 -182z" />
    <glyph glyph-name="uni0641.fina" unicode="&#x641;" horiz-adv-x="2114" arabic-form="final" 
d="M464 240q84 -10 174.5 -16.5t178.5 -10t170 -3.5h78q38 0 88 0.5t98.5 3t69.5 5.5q-50 50 -80 115.5t-30 146.5q0 79 33 150t90.5 124t134.5 84t165 31q93 0 166.5 -32.5t124.5 -87t78 -124.5t27 -145q0 -42 -5 -75t-15.5 -61.5t-25.5 -54.5t-35 -54q26 -2 53.5 -2h56.5
h84v-249h-84q-127 0 -235 11t-198 36q-34 -12 -96.5 -23.5t-148.5 -20.5t-191.5 -14.5t-223.5 -6.5h-34q-102 0 -221 5t-249 19q-74 8 -140 29t-117 69q-20 19 -41.5 46t-38.5 64t-28 83.5t-11 104.5q0 50 10 107.5t22.5 108.5t23.5 88t14 46l119 -38l118 -37
q-9 -27 -19 -63.5t-19 -75t-15 -74.5t-6 -63q0 -48 13.5 -76t33 -43t42.5 -20t41 -7zM1452 473q0 -38 12 -67t35 -52.5t55 -41.5t73 -33q38 15 68.5 32t52.5 40t33.5 52.5t11.5 70.5q0 24 -13 50t-35 47.5t-51 35.5t-60 14q-36 0 -69 -12.5t-58 -33t-40 -47.5t-15 -55z
M1462 1267l180 182l184 -184l-182 -182z" />
    <glyph glyph-name="veh.isol" unicode="&#x6a4;" horiz-adv-x="2127" arabic-form="isolated" 
d="M462 -15q-74 0 -140 25t-117 73q-20 19 -41.5 46t-38.5 64t-28 83.5t-11 104.5q0 50 10 108.5t22.5 110.5t23.5 90t14 47l119 -38l118 -37q-9 -27 -19 -64.5t-19 -77t-15 -76.5t-6 -64q0 -48 13.5 -77t33 -44.5t42.5 -20t41 -4.5h1005q84 0 141 9.5t92.5 24.5t53.5 33.5
t26 37.5q-73 -10 -137 -10q-54 0 -131 10.5t-151 56t-113.5 121.5t-39.5 182q0 84 31 158.5t86.5 130t131.5 87.5q66 27 145 27h20q81 -3 142 -28t106.5 -66t76 -95.5t49 -117.5t27 -131.5t9.5 -137.5l-4 -74q-8 -140 -56 -230.5t-124.5 -143t-174.5 -73t-206 -20.5h-1007z
M1622 853q-10 1 -19 1q-26 0 -55.5 -7.5t-55 -27.5t-41 -49.5t-15.5 -68.5q0 -87 92 -125q53 -23 133 -23q58 0 130 12q-2 43 -7 91t-22 90t-50 71.5t-90 35.5zM1580 1432l-170 -172l-170 170l170 172zM2009 1436l-168 -170l-175 168l172 172zM1788 1718l-160 -160l-158 158
l160 160z" />
    <glyph glyph-name="veh.init" unicode="&#x6a4;" horiz-adv-x="1052" arabic-form="initial" 
d="M-20 -15v249h408q84 0 141 9.5t92.5 24.5t53.5 33.5t26 37.5q-73 -10 -137 -10q-54 0 -131 10.5t-151 56t-113.5 121.5t-39.5 182q0 84 31 158.5t86.5 130t131.5 87.5q66 27 145 27h20q80 -3 141.5 -28t107 -66t76 -95.5t49 -117.5t27 -131.5t9.5 -137.5l-4 -74
q-8 -140 -56 -230.5t-124.5 -143t-174.5 -73t-206 -20.5h-408zM541 853q-10 1 -19 1q-26 0 -55.5 -7.5t-55 -27.5t-41 -49.5t-15.5 -68.5q0 -87 92 -125q53 -23 133 -23q58 0 130 12q-2 43 -7 91t-22 90t-50 71.5t-90 35.5zM473 1381l-170 -172l-170 170l170 172zM902 1385
l-168 -170l-175 168l172 172zM681 1667l-160 -160l-158 158l160 160z" />
    <glyph glyph-name="veh.medi" unicode="&#x6a4;" horiz-adv-x="1078" arabic-form="medial" 
d="M554 867q93 0 166.5 -34t124.5 -89.5t78 -126.5t27 -146q0 -42 -5 -73.5t-15.5 -58t-25.5 -51t-35 -52.5q18 -1 39.5 -1.5t43 -0.5h41.5h35h72v-249h-72q-64 0 -130.5 4t-130 11.5t-120.5 18t-102 23.5q-91 -26 -204 -41.5t-258 -15.5h-105v249h105q27 0 43 -0.5t29 -0.5
t27 0.5t35 2.5q-42 56 -64 111t-22 124q0 79 33 151t90.5 126.5t134.5 86.5t165 32zM367 469q0 -71 50 -121t130 -81q38 15 70 34t55.5 43.5t37 56t13.5 70.5q0 24 -12 50t-34 47.5t-53 35.5t-70 14q-44 0 -79 -12.5t-59 -33t-36.5 -47.5t-12.5 -56zM490 1264l-170 -172
l-170 170l170 172zM919 1268l-168 -170l-175 168l172 172zM698 1550l-160 -160l-158 158l160 160z" />
    <glyph glyph-name="veh.fina" unicode="&#x6a4;" horiz-adv-x="2114" arabic-form="final" 
d="M464 240q84 -10 174.5 -16.5t178.5 -10t170 -3.5h78q38 0 88 0.5t98.5 3t69.5 5.5q-50 50 -80 115.5t-30 146.5q0 79 33 150t90.5 124t134.5 84t165 31q93 0 166.5 -32.5t124.5 -87t78 -124.5t27 -145q0 -42 -5 -75t-15.5 -61.5t-25.5 -54.5t-35 -54q26 -2 53.5 -2h56.5
h84v-249h-84q-127 0 -235 11t-198 36q-34 -12 -96.5 -23.5t-148.5 -20.5t-191.5 -14.5t-223.5 -6.5h-34q-102 0 -221 5t-249 19q-74 8 -140 29t-117 69q-20 19 -41.5 46t-38.5 64t-28 83.5t-11 104.5q0 50 10 107.5t22.5 108.5t23.5 88t14 46l119 -38l118 -37
q-9 -27 -19 -63.5t-19 -75t-15 -74.5t-6 -63q0 -48 13.5 -76t33 -43t42.5 -20t41 -7zM1452 473q0 -38 12 -67t35 -52.5t55 -41.5t73 -33q38 15 68.5 32t52.5 40t33.5 52.5t11.5 70.5q0 24 -13 50t-35 47.5t-51 35.5t-60 14q-36 0 -69 -12.5t-58 -33t-40 -47.5t-15 -55z
M1596 1247l-170 -172l-170 170l170 172zM2025 1251l-168 -170l-175 168l172 172zM1804 1533l-160 -160l-158 158l160 160z" />
    <glyph glyph-name="uni0642.init" unicode="&#x642;" horiz-adv-x="1052" arabic-form="initial" 
d="M-20 -15v249h408q84 0 141 9.5t92.5 24.5t53.5 33.5t26 37.5q-73 -10 -137 -10q-54 0 -131 10.5t-151 56t-113.5 121.5t-39.5 182q0 84 31 158.5t86.5 130t131.5 87.5q66 27 145 27h20q80 -3 141.5 -28t107 -66t76 -95.5t49 -117.5t27 -131.5t9.5 -137.5l-4 -74
q-8 -140 -56 -230.5t-124.5 -143t-174.5 -73t-206 -20.5h-408zM541 853q-10 1 -19 1q-26 0 -55.5 -7.5t-55 -27.5t-41 -49.5t-15.5 -68.5q0 -87 92 -125q53 -23 133 -23q58 0 130 12q-2 43 -7 91t-22 90t-50 71.5t-90 35.5zM705 1264l-168 170l166 172l172 -172zM286 1263
l-168 170l165 172l172 -172z" />
    <glyph glyph-name="uni0642.medi" unicode="&#x642;" horiz-adv-x="1078" arabic-form="medial" 
d="M554 867q93 0 166.5 -34t124.5 -89.5t78 -126.5t27 -146q0 -42 -5 -73.5t-15.5 -58t-25.5 -51t-35 -52.5q18 -1 39.5 -1.5t43 -0.5h41.5h35h72v-249h-72q-64 0 -130.5 4t-130 11.5t-120.5 18t-102 23.5q-91 -26 -204 -41.5t-258 -15.5h-105v249h105q27 0 43 -0.5t29 -0.5
t27 0.5t35 2.5q-42 56 -64 111t-22 124q0 79 33 151t90.5 126.5t134.5 86.5t165 32zM367 469q0 -71 50 -121t130 -81q38 15 70 34t55.5 43.5t37 56t13.5 70.5q0 24 -12 50t-34 47.5t-53 35.5t-70 14q-44 0 -79 -12.5t-59 -33t-36.5 -47.5t-12.5 -56zM738 1098l-168 170
l166 172l172 -172zM319 1097l-168 170l165 172l172 -172z" />
    <glyph glyph-name="uni0642" unicode="&#x642;" horiz-adv-x="1620" arabic-form="isolated" 
d="M709 -552q-80 0 -154.5 19t-140.5 54t-121 86t-95 115q-48 78 -74.5 165.5t-26.5 192.5q0 65 6.5 129t23 132t44.5 142t70 159l223 -106q-36 -73 -59 -134t-36.5 -115.5t-18.5 -105t-5 -102.5q0 -70 16 -122.5t48 -103.5q46 -75 124.5 -115.5t175.5 -40.5h75
q110 0 198 10t150 41t95.5 87.5t33.5 149.5h-143q-50 0 -102 8.5t-100 28t-90.5 51.5t-74 78.5t-50 108.5t-18.5 142q0 93 27.5 177t81.5 147.5t134 101.5t185 38q106 0 181.5 -39.5t123.5 -107t70.5 -156.5t22.5 -188v-360q0 -112 -23.5 -197.5t-68 -148.5t-108 -105.5
t-143 -68t-173.5 -36.5t-199 -11h-85zM1111 629q-85 0 -133.5 -57t-48.5 -170q0 -45 16.5 -76.5t43.5 -52t60.5 -30t68.5 -9.5h143v141q0 93 -17.5 144t-41.5 75.5t-49.5 29.5t-41.5 5zM1290 1064l-168 170l166 172l172 -172zM871 1063l-168 170l165 172l172 -172z" />
    <glyph glyph-name="uni0642.fina" unicode="&#x642;" horiz-adv-x="1652" arabic-form="final" 
d="M709 -552q-89 0 -169.5 22.5t-148.5 64t-122.5 99t-92.5 128t-58.5 151t-20.5 167.5q0 65 6.5 129t23 132t44.5 142t70 159l223 -106q-36 -73 -59 -134t-36.5 -115.5t-18.5 -105t-5 -102.5q0 -80 25.5 -149.5t73 -121.5t114.5 -81.5t151 -29.5h75q110 0 198 10t150 41
t95.5 87.5t33.5 149.5h-143q-50 0 -102 8.5t-100 28t-90.5 51.5t-74 78.5t-50 108.5t-18.5 142q0 93 27.5 177t81.5 147.5t134 101.5t185 38q106 0 181.5 -39.5t123.5 -107t70.5 -156.5t22.5 -188v-141h169v-249h-170q-5 -158 -59.5 -262t-148.5 -165t-223 -85.5t-283 -24.5
h-85zM1111 629q-85 0 -133.5 -57t-48.5 -170q0 -45 16.5 -76.5t43.5 -52t60.5 -30t68.5 -9.5h143v141q0 93 -17.5 144t-41.5 75.5t-49.5 29.5t-41.5 5zM1288 1061l-168 170l166 172l172 -172zM869 1060l-168 170l165 172l172 -172z" />
    <glyph glyph-name="uni0646.init" unicode="&#x646;" horiz-adv-x="680" arabic-form="initial" 
d="M558 825q2 -7 8.5 -33t14.5 -63.5t16.5 -83.5t16 -92.5t12 -90.5t4.5 -77q0 -103 -34 -178.5t-89 -124.5t-123.5 -73t-137.5 -24h-266v249h273q12 0 34.5 3.5t45 18.5t39.5 45.5t17 83.5q0 22 -3.5 53.5t-9.5 67.5t-13.5 73.5t-14.5 71t-14 61t-11 42.5zM183 1227
l180 182l184 -184l-182 -182z" />
    <glyph glyph-name="uni0646.medi" unicode="&#x646;" horiz-adv-x="782" arabic-form="medial" 
d="M801 234v-249h-63q-85 0 -155 23t-118 68q-56 -47 -132.5 -69t-174.5 -22h-177v249h177q61 0 97.5 11.5t55 28.5t24 38t5.5 41v324h248v-317q0 -45 20 -70.5t45.5 -38t50.5 -15t34 -2.5h63zM225 1137l180 182l184 -184l-182 -182z" />
    <glyph glyph-name="uni0646" unicode="&#x646;" horiz-adv-x="1600" arabic-form="isolated" 
d="M700 -553q-80 0 -154 19t-139.5 54t-121 86t-96.5 115q-48 78 -74 173.5t-26 199.5q0 66 8 128t25.5 127t46 136t69.5 156l225 -107q-36 -73 -60 -131t-39 -109.5t-21.5 -99t-6.5 -99.5q0 -68 17 -130.5t47 -112.5q48 -71 126.5 -113.5t173.5 -42.5h203q106 0 172.5 22
t103.5 62.5t50.5 97.5t13.5 126v673h249v-673q0 -279 -147.5 -418t-441.5 -139h-203zM680 755l180 182l184 -184l-182 -182z" />
    <glyph glyph-name="uni0646.fina" unicode="&#x646;" horiz-adv-x="1703" arabic-form="final" 
d="M700 -553q-80 0 -154 19t-139.5 54t-121 86t-96.5 115q-48 78 -74 173.5t-26 199.5q0 66 8 128t25.5 127t46 136t69.5 156l225 -107q-36 -73 -60 -131t-39 -109.5t-21.5 -99t-6.5 -99.5q0 -68 17 -130.5t47 -112.5q48 -71 126.5 -113.5t173.5 -42.5h203q106 0 172.5 22
t103.5 62.5t50.5 97.5t13.5 126v673h249v-312q2 -66 43.5 -98.5t107.5 -32.5h80v-249h-80q-38 0 -77.5 7t-73.5 20v-8q0 -279 -147.5 -418t-441.5 -139h-203zM679 751l180 182l184 -184l-182 -182z" />
    <glyph glyph-name="uni06C0" unicode="&#x6c0;" horiz-adv-x="1042" arabic-form="isolated" 
d="M519 -15q-96 0 -176.5 27.5t-138.5 78t-90.5 120.5t-32.5 155q0 84 21 150.5t56.5 124t83 110t100.5 108.5l-63 71l184 167q11 -13 26 -29t30.5 -33t30.5 -33t27 -29q72 -77 140.5 -149.5t122 -145t86.5 -145.5q31 -72 31 -148v-5q-1 -88 -35 -157.5t-99 -128.5
q-60 -51 -136.5 -80t-167.5 -29zM507 706q-40 -45 -75.5 -85t-61 -80t-38.5 -82q-12 -35 -12 -76q0 -8 1 -17q3 -37 22 -63.5t47 -44t62 -25.5t67 -8q38 0 73 11t61.5 31t42.5 49t16 64q0 43 -17 84t-45.5 81t-65.5 80t-77 81zM560 1832q44 0 95 -14l-34 -128q-14 3 -29 5.5
t-31 2.5q-21 0 -42 -5.5t-38 -20.5q-16 -13 -26 -31.5t-15 -41.5q52 -9 83 -14.5t50 -10.5q18 -5 29.5 -9t21.5 -11q35 -24 35 -66q0 -9 -0.5 -24t-4 -33t-11 -38.5t-20.5 -39.5q-63 -89 -213 -89h-110v133h110q30 0 50.5 4t33 11.5t19 16.5t9.5 20q-13 3 -31 6t-43.5 7.5
t-59 10t-78.5 13.5l-5 51q-1 14 -1 28q0 56 21.5 112t69.5 97q34 28 77 43t88 15z" />
    <glyph glyph-name="uni06C0.fina" unicode="&#x6c0;" horiz-adv-x="1258" arabic-form="final" 
d="M1278 -15h-28q-78 0 -150 14.5t-133 44t-108.5 75.5t-77.5 109q-24 -37 -61.5 -65.5t-81.5 -47.5t-91 -28.5t-90 -9.5q-80 0 -151.5 28t-125.5 79.5t-85.5 125.5t-31.5 167q0 108 41 190t109 143.5t156.5 105t183.5 75.5l-24 96l244 57l182 -708q16 -65 52 -104.5
t78.5 -61t87 -29t77.5 -7.5h28v-249zM662 482q5 21 5 43q0 7 -1.5 24.5t-8.5 49.5t-18.5 69t-24.5 83q-160 -51 -242.5 -115.5t-82.5 -159.5q0 -37 16.5 -66t43 -48t59.5 -27q21 -6 42 -6q11 0 23 2q75 11 125 44.5t64 106.5zM759 1834q44 0 95 -14l-34 -128q-14 3 -29 5.5
t-31 2.5q-21 0 -42 -5.5t-38 -20.5q-16 -13 -26 -31.5t-15 -41.5q52 -9 83 -14.5t50 -10.5q18 -5 29.5 -9t21.5 -11q35 -24 35 -66q0 -9 -0.5 -24t-4 -33t-11 -38.5t-20.5 -39.5q-63 -89 -213 -89h-110v133h110q30 0 50.5 4t33 11.5t19 16.5t9.5 20q-13 3 -31 6t-43.5 7.5
t-59 10t-78.5 13.5l-5 51q-1 14 -1 28q0 56 21.5 112t69.5 97q34 28 77 43t88 15z" />
    <glyph glyph-name="uni0624" unicode="&#x624;" horiz-adv-x="1066" arabic-form="isolated" 
d="M220 -303q80 0 142.5 5.5t111 16t85 27t63.5 39.5q42 34 63.5 79t25.5 121h-154q-50 0 -102 8t-100 27.5t-90.5 50.5t-74 76.5t-50 107.5t-18.5 142q0 69 12 122.5t30.5 94.5t41.5 71.5t44 53.5q60 60 136 92.5t164 32.5q109 0 186.5 -37.5t127 -103.5t72.5 -156.5
t23 -196.5v-355q0 -149 -45 -250.5t-137 -174.5q-46 -36 -100 -62.5t-121 -44.5t-149.5 -26.5t-186.5 -8.5v249zM550 615q-85 0 -135 -53t-50 -165q0 -44 17.5 -75t45 -50.5t61.5 -28.5t68 -9h154v136q0 57 -9 97.5t-23.5 67.5t-33 43t-36 24t-33.5 10.5t-26 2.5zM164 996
v149l124 40q-30 31 -49.5 70t-19.5 83q0 34 12 67t33 61t49.5 49t60.5 30q17 5 34.5 7.5t34.5 2.5q36 0 63.5 -8.5t51.5 -17.5l17 -8l-30 -124q-14 3 -31 8t-34 8t-33.5 3.5t-29.5 -3.5q-14 -5 -27.5 -14t-22.5 -20.5t-12 -26.5q-2 -6 -2 -12q0 -10 4 -20q8 -26 37.5 -44
t82.5 -18q10 0 21.5 1t30.5 5.5t48.5 13t75.5 23.5l8 -141z" />
    <glyph glyph-name="uni0624.fina" unicode="&#x624;" horiz-adv-x="1099" arabic-form="final" 
d="M220 -303q80 0 142.5 5.5t111 16t85 27t63.5 39.5q42 34 63.5 79t25.5 121h-154q-50 0 -102 8t-100 27.5t-90.5 50.5t-74 76.5t-50 107.5t-18.5 142q0 69 12 122.5t30.5 94.5t41.5 71.5t44 53.5q60 60 136 92.5t164 32.5q109 0 186.5 -37.5t127 -103.5t72.5 -156.5
t23 -196.5v-136h170v-249h-171q-4 -137 -48.5 -231t-132.5 -164q-46 -36 -100 -62.5t-121 -44.5t-149.5 -26.5t-186.5 -8.5v249zM550 615q-85 0 -135 -53t-50 -165q0 -44 17.5 -75t45 -50.5t61.5 -28.5t68 -9h154v136q0 57 -9 97.5t-23.5 67.5t-33 43t-36 24t-33.5 10.5
t-26 2.5zM163 994v149l124 40q-30 31 -49.5 70t-19.5 83q0 34 12 67t33 61t49.5 49t60.5 30q17 5 34.5 7.5t34.5 2.5q36 0 63.5 -8.5t51.5 -17.5l17 -8l-30 -124q-14 3 -31 8t-34 8t-33.5 3.5t-29.5 -3.5q-14 -5 -27.5 -14t-22.5 -20.5t-12 -26.5q-2 -6 -2 -12q0 -10 4 -20
q8 -26 37.5 -44t82.5 -18q10 0 21.5 1t30.5 5.5t48.5 13t75.5 23.5l8 -141z" />
    <glyph glyph-name="uni0649.init" unicode="&#x649;" horiz-adv-x="680" arabic-form="initial" 
d="M558 825q2 -7 8.5 -33t14.5 -63.5t16.5 -83.5t16 -92.5t12 -90.5t4.5 -77q0 -103 -34 -178.5t-89 -124.5t-123.5 -73t-137.5 -24h-266v249h273q12 0 34.5 3.5t45 18.5t39.5 45.5t17 83.5q0 22 -3.5 53.5t-9.5 67.5t-13.5 73.5t-14.5 71t-14 61t-11 42.5z" />
    <glyph glyph-name="uni0649.medi" unicode="&#x649;" horiz-adv-x="782" arabic-form="medial" 
d="M801 234v-249h-63q-85 0 -155 23t-118 68q-56 -47 -132.5 -69t-174.5 -22h-177v249h177q61 0 97.5 11.5t55 28.5t24 38t5.5 41v324h248v-317q0 -45 20 -70.5t45.5 -38t50.5 -15t34 -2.5h63z" />
    <glyph glyph-name="uni064A.init" unicode="&#x64a;" horiz-adv-x="868" arabic-form="initial" 
d="M723 825q2 -7 8.5 -33t14.5 -63.5t16.5 -83.5t16 -92.5t12 -90.5t4.5 -77q0 -103 -34 -178.5t-89 -124.5t-123.5 -73t-137.5 -24h-431v249h438q12 0 34.5 3.5t45 18.5t39.5 45.5t17 83.5q0 22 -3.5 53.5t-9.5 67.5t-13.5 73.5t-14.5 71t-14 61t-11 42.5zM608 -566
l-168 170l166 172l172 -172zM189 -567l-168 170l165 172l172 -172z" />
    <glyph glyph-name="uni064A.medi" unicode="&#x64a;" horiz-adv-x="1034" arabic-form="medial" 
d="M1054 234v-249h-148q-85 0 -155 23t-118 68q-56 -47 -132.5 -69t-174.5 -22h-346v249h346q61 0 97.5 11.5t55 28.5t24 38t5.5 41v324h248v-317q0 -45 20 -70.5t45.5 -38t50.5 -15t34 -2.5h148zM666 -570l-168 170l166 172l172 -172zM247 -571l-168 170l165 172l172 -172z
" />
    <glyph glyph-name="uni064A" unicode="&#x64a;" horiz-adv-x="1671" arabic-form="isolated" 
d="M940 -316q91 0 157.5 11.5t109.5 40t64.5 76.5t22.5 121q-14 4 -44.5 12t-72 19t-90 24t-98.5 26.5t-98.5 26t-89.5 22.5q-26 66 -38.5 128.5t-12.5 122.5q0 114 42 215.5t120 177t190.5 119.5t253.5 44q50 0 99.5 -8t112.5 -25l-63 -240q-47 14 -82 20.5t-72 6.5
q-75 0 -139.5 -21.5t-112 -62.5t-75 -100t-27.5 -134v-12.5t1 -12.5l351 -90q96 -24 139 -81.5t43 -142.5q0 -139 -32 -239.5t-102.5 -166t-183 -97t-273.5 -31.5h-211q-82 0 -157 19t-141 54.5t-121 86t-97 114.5q-99 160 -99 375q0 66 9 131t28.5 133.5t49.5 143.5t72 162
l222 -107q-35 -74 -59.5 -135.5t-41 -116t-24 -105t-7.5 -101.5q0 -145 64 -246q46 -76 125.5 -116.5t176.5 -40.5h211zM1050 -988l-168 170l166 172l172 -172zM631 -989l-168 170l165 172l172 -172z" />
    <glyph glyph-name="uni064A.fina" unicode="&#x64a;" horiz-adv-x="1782" arabic-form="final" 
d="M1802 -15h-267q23 -33 38 -72.5t15 -71.5q0 -93 -51 -168.5t-138 -128.5t-202.5 -82t-245.5 -29h-256q-82 0 -157 19t-141 54.5t-121 86t-97 114.5q-99 160 -99 375q0 66 7.5 131t25 133.5t46 143t70.5 161.5l222 -107q-35 -74 -58 -135t-37.5 -115.5t-20.5 -105
t-6 -101.5q0 -145 64 -246q46 -76 125.5 -116.5t176.5 -40.5h256q75 0 142 14t118 39t83 57.5t37 70.5q-29 31 -73.5 52.5t-101 36t-122 22t-136.5 10.5l7 248h897v-249zM1064 -1022l-168 170l166 172l172 -172zM645 -1023l-168 170l165 172l172 -172z" />
    <glyph glyph-name="uni06CC" unicode="&#x6cc;" horiz-adv-x="1671" arabic-form="isolated" 
d="M940 -316q91 0 157.5 11.5t109.5 40t64.5 76.5t22.5 121q-14 4 -44.5 12t-72 19t-90 24t-98.5 26.5t-98.5 26t-89.5 22.5q-26 66 -38.5 128.5t-12.5 122.5q0 114 42 215.5t120 177t190.5 119.5t253.5 44q50 0 99.5 -8t112.5 -25l-63 -240q-47 14 -82 20.5t-72 6.5
q-75 0 -139.5 -21.5t-112 -62.5t-75 -100t-27.5 -134v-12.5t1 -12.5l351 -90q96 -24 139 -81.5t43 -142.5q0 -139 -32 -239.5t-102.5 -166t-183 -97t-273.5 -31.5h-211q-82 0 -157 19t-141 54.5t-121 86t-97 114.5q-99 160 -99 375q0 66 9 131t28.5 133.5t49.5 143.5t72 162
l222 -107q-35 -74 -59.5 -135.5t-41 -116t-24 -105t-7.5 -101.5q0 -145 64 -246q46 -76 125.5 -116.5t176.5 -40.5h211z" />
    <glyph glyph-name="uni06CC.init" unicode="&#x6cc;" horiz-adv-x="868" arabic-form="initial" 
d="M723 825q2 -7 8.5 -33t14.5 -63.5t16.5 -83.5t16 -92.5t12 -90.5t4.5 -77q0 -103 -34 -178.5t-89 -124.5t-123.5 -73t-137.5 -24h-431v249h438q12 0 34.5 3.5t45 18.5t39.5 45.5t17 83.5q0 22 -3.5 53.5t-9.5 67.5t-13.5 73.5t-14.5 71t-14 61t-11 42.5zM607 -559
l-168 170l166 172l172 -172zM188 -560l-168 170l165 172l172 -172z" />
    <glyph glyph-name="uni06CC.medi" unicode="&#x6cc;" horiz-adv-x="1034" arabic-form="medial" 
d="M1054 234v-249h-148q-85 0 -155 23t-118 68q-56 -47 -132.5 -69t-174.5 -22h-346v249h346q61 0 97.5 11.5t55 28.5t24 38t5.5 41v324h248v-317q0 -45 20 -70.5t45.5 -38t50.5 -15t34 -2.5h148zM654 -565l-168 170l166 172l172 -172zM235 -566l-168 170l165 172l172 -172z
" />
    <glyph glyph-name="uni06CC.fina" unicode="&#x6cc;" horiz-adv-x="1782" arabic-form="final" 
d="M1802 -15h-267q23 -33 38 -72.5t15 -71.5q0 -93 -51 -168.5t-138 -128.5t-202.5 -82t-245.5 -29h-256q-82 0 -157 19t-141 54.5t-121 86t-97 114.5q-99 160 -99 375q0 66 7.5 131t25 133.5t46 143t70.5 161.5l222 -107q-35 -74 -58 -135t-37.5 -115.5t-20.5 -105
t-6 -101.5q0 -145 64 -246q46 -76 125.5 -116.5t176.5 -40.5h256q75 0 142 14t118 39t83 57.5t37 70.5q-29 31 -73.5 52.5t-101 36t-122 22t-136.5 10.5l7 248h897v-249z" />
    <glyph glyph-name="uni06D3" unicode="&#x6d3;" horiz-adv-x="1651" arabic-form="isolated" 
d="M1647 -567h-1158q-91 0 -168.5 29t-134.5 82.5t-89 129t-32 169.5q0 82 35 153.5t94 124.5t135.5 83t159.5 30h420v-249h-412q-38 0 -74.5 -8.5t-65 -27t-46.5 -47.5t-18 -71t17.5 -70.5t45.5 -46t63 -25.5t70 -8h1158v-248zM164 302v149l124 40q-30 31 -49.5 70
t-19.5 83q0 34 12 67t33 61t49.5 49t60.5 30q17 5 34.5 7.5t34.5 2.5q36 0 63.5 -8.5t51.5 -17.5l17 -8l-30 -124q-14 3 -31 8t-34 8t-33.5 3.5t-29.5 -3.5q-14 -5 -27.5 -14t-22.5 -20.5t-12 -26.5q-2 -6 -2 -12q0 -10 4 -20q8 -26 37.5 -44t82.5 -18q10 0 21.5 1t30.5 5.5
t48.5 13t75.5 23.5l8 -141z" />
    <glyph glyph-name="uni06D3.fina" unicode="&#x6d3;" horiz-adv-x="1328" arabic-form="final" 
d="M1294 -567h-805q-91 0 -168.5 29t-134.5 82.5t-89 129t-32 169.5q0 82 35 153.5t94 124.5t135.5 83t159.5 30h854v-249h-846q-37 0 -72 -11.5t-62.5 -32t-44 -49t-16.5 -61.5t16 -61t42.5 -47.5t60 -30.5t68.5 -11h805v-248zM166 274v149l124 40q-30 31 -49.5 70
t-19.5 83q0 34 12 67t33 61t49.5 49t60.5 30q17 5 34.5 7.5t34.5 2.5q36 0 63.5 -8.5t51.5 -17.5l17 -8l-30 -124q-14 3 -31 8t-34 8t-33.5 3.5t-29.5 -3.5q-14 -5 -27.5 -14t-22.5 -20.5t-12 -26.5q-2 -6 -2 -12q0 -10 4 -20q8 -26 37.5 -44t82.5 -18q10 0 21.5 1t30.5 5.5
t48.5 13t75.5 23.5l8 -141z" />
    <glyph glyph-name="uni0626" unicode="&#x626;" horiz-adv-x="1671" arabic-form="isolated" 
d="M940 -316q91 0 157.5 11.5t109.5 40t64.5 76.5t22.5 121q-14 4 -44.5 12t-72 19t-90 24t-98.5 26.5t-98.5 26t-89.5 22.5q-26 66 -38.5 128.5t-12.5 122.5q0 114 42 215.5t120 177t190.5 119.5t253.5 44q50 0 99.5 -8t112.5 -25l-63 -240q-47 14 -82 20.5t-72 6.5
q-75 0 -139.5 -21.5t-112 -62.5t-75 -100t-27.5 -134v-12.5t1 -12.5l351 -90q96 -24 139 -81.5t43 -142.5q0 -139 -32 -239.5t-102.5 -166t-183 -97t-273.5 -31.5h-211q-82 0 -157 19t-141 54.5t-121 86t-97 114.5q-99 160 -99 375q0 66 9 131t28.5 133.5t49.5 143.5t72 162
l222 -107q-35 -74 -59.5 -135.5t-41 -116t-24 -105t-7.5 -101.5q0 -145 64 -246q46 -76 125.5 -116.5t176.5 -40.5h211zM91 737v149l124 40q-30 31 -49.5 70t-19.5 83q0 34 12 67t33 61t49.5 49t60.5 30q17 5 34.5 7.5t34.5 2.5q36 0 63.5 -8.5t51.5 -17.5l17 -8l-30 -124
q-14 3 -31 8t-34 8t-33.5 3.5t-29.5 -3.5q-14 -5 -27.5 -14t-22.5 -20.5t-12 -26.5q-2 -6 -2 -12q0 -10 4 -20q8 -26 37.5 -44t82.5 -18q10 0 21.5 1t30.5 5.5t48.5 13t75.5 23.5l8 -141z" />
    <glyph glyph-name="uni0626.init" unicode="&#x626;" horiz-adv-x="868" arabic-form="initial" 
d="M723 825q2 -7 8.5 -33t14.5 -63.5t16.5 -83.5t16 -92.5t12 -90.5t4.5 -77q0 -103 -34 -178.5t-89 -124.5t-123.5 -73t-137.5 -24h-431v249h438q12 0 34.5 3.5t45 18.5t39.5 45.5t17 83.5q0 22 -3.5 53.5t-9.5 67.5t-13.5 73.5t-14.5 71t-14 61t-11 42.5zM112 841v149
l124 40q-30 31 -49.5 70t-19.5 83q0 34 12 67t33 61t49.5 49t60.5 30q17 5 34.5 7.5t34.5 2.5q36 0 63.5 -8.5t51.5 -17.5l17 -8l-30 -124q-14 3 -31 8t-34 8t-33.5 3.5t-29.5 -3.5q-14 -5 -27.5 -14t-22.5 -20.5t-12 -26.5q-2 -6 -2 -12q0 -10 4 -20q8 -26 37.5 -44
t82.5 -18q10 0 21.5 1t30.5 5.5t48.5 13t75.5 23.5l8 -141z" />
    <glyph glyph-name="uni0626.medi" unicode="&#x626;" horiz-adv-x="1034" arabic-form="medial" 
d="M1054 234v-249h-148q-85 0 -155 23t-118 68q-56 -47 -132.5 -69t-174.5 -22h-346v249h346q61 0 97.5 11.5t55 28.5t24 38t5.5 41v324h248v-317q0 -45 20 -70.5t45.5 -38t50.5 -15t34 -2.5h148zM175 784v149l124 40q-30 31 -49.5 70t-19.5 83q0 34 12 67t33 61t49.5 49
t60.5 30q17 5 34.5 7.5t34.5 2.5q36 0 63.5 -8.5t51.5 -17.5l17 -8l-30 -124q-14 3 -31 8t-34 8t-33.5 3.5t-29.5 -3.5q-14 -5 -27.5 -14t-22.5 -20.5t-12 -26.5q-2 -6 -2 -12q0 -10 4 -20q8 -26 37.5 -44t82.5 -18q10 0 21.5 1t30.5 5.5t48.5 13t75.5 23.5l8 -141z" />
    <glyph glyph-name="uni0626.fina" unicode="&#x626;" horiz-adv-x="1782" arabic-form="final" 
d="M1802 -15h-267q23 -33 38 -72.5t15 -71.5q0 -93 -51 -168.5t-138 -128.5t-202.5 -82t-245.5 -29h-256q-82 0 -157 19t-141 54.5t-121 86t-97 114.5q-99 160 -99 375q0 66 7.5 131t25 133.5t46 143t70.5 161.5l222 -107q-35 -74 -58 -135t-37.5 -115.5t-20.5 -105
t-6 -101.5q0 -145 64 -246q46 -76 125.5 -116.5t176.5 -40.5h256q75 0 142 14t118 39t83 57.5t37 70.5q-29 31 -73.5 52.5t-101 36t-122 22t-136.5 10.5l7 248h897v-249zM670 299v149l124 40q-30 31 -49.5 70t-19.5 83q0 34 12 67t33 61t49.5 49t60.5 30q17 5 34.5 7.5
t34.5 2.5q36 0 63.5 -8.5t51.5 -17.5l17 -8l-30 -124q-14 3 -31 8t-34 8t-33.5 3.5t-29.5 -3.5q-14 -5 -27.5 -14t-22.5 -20.5t-12 -26.5q-2 -6 -2 -12q0 -10 4 -20q8 -26 37.5 -44t82.5 -18q10 0 21.5 1t30.5 5.5t48.5 13t75.5 23.5l8 -141z" />
    <glyph glyph-name="uni06C2.fina" unicode="&#x6c2;" horiz-adv-x="1290" 
d="M1318 -15h-74q-76 0 -157 21t-154.5 67.5t-131.5 120.5t-88 181l-127 458l-89 -19q-48 -11 -78.5 -30.5t-46.5 -47.5q-14 -26 -21 -59.5t-7 -73.5q0 -67 33 -186.5t83 -288.5l-239 -67q-26 93 -49 171.5t-40 145t-26.5 122.5t-9.5 103q0 69 14.5 134t46.5 122
q44 75 113 124t167 73q20 5 58 12.5l76 15t67.5 13t32.5 5.5l129 -84q15 -66 30 -125.5t33 -125t40 -144.5t52 -184q20 -64 55.5 -104t76.5 -62.5t82.5 -30.5t74.5 -8h74v-249zM131 1126v149l124 40q-30 31 -49.5 70t-19.5 83q0 34 12 67t33 61t49.5 49t60.5 30
q17 5 34.5 7.5t34.5 2.5q36 0 63.5 -8.5t51.5 -17.5l17 -8l-30 -124q-14 3 -31 8t-34 8t-33.5 3.5t-29.5 -3.5q-14 -5 -27.5 -14t-22.5 -20.5t-12 -26.5q-2 -6 -2 -12q0 -10 4 -20q8 -26 37.5 -44t82.5 -18q10 0 21.5 1t30.5 5.5t48.5 13t75.5 23.5l8 -141z" />
    <glyph glyph-name="uni06C1" unicode="&#x6c1;" horiz-adv-x="1042" arabic-form="isolated" 
d="M519 -15q-96 0 -176.5 27.5t-138.5 78t-90.5 120.5t-32.5 155q0 84 21 150.5t56.5 124t83 110t100.5 108.5l-63 71l184 167q11 -13 26 -29t30.5 -33t30.5 -33t27 -29q72 -77 140.5 -149.5t122 -145t86.5 -145.5q31 -72 31 -148v-5q-1 -88 -35 -157.5t-99 -128.5
q-60 -51 -136.5 -80t-167.5 -29zM507 706q-40 -45 -75.5 -85t-61 -80t-38.5 -82q-12 -35 -12 -76q0 -8 1 -17q3 -37 22 -63.5t47 -44t62 -25.5t67 -8q38 0 73 11t61.5 31t42.5 49t16 64q0 43 -17 84t-45.5 81t-65.5 80t-77 81z" />
    <glyph glyph-name="uni06C3.fina" unicode="&#x6c3;" horiz-adv-x="1290" 
d="M1318 -15h-74q-76 0 -157 21t-154.5 67.5t-131.5 120.5t-88 181l-127 458l-89 -19q-48 -11 -78.5 -30.5t-46.5 -47.5q-14 -26 -21 -59.5t-7 -73.5q0 -67 33 -186.5t83 -288.5l-239 -67q-26 93 -49 171.5t-40 145t-26.5 122.5t-9.5 103q0 69 14.5 134t46.5 122
q44 75 113 124t167 73q20 5 58 12.5l76 15t67.5 13t32.5 5.5l129 -84q15 -66 30 -125.5t33 -125t40 -144.5t52 -184q20 -64 55.5 -104t76.5 -62.5t82.5 -30.5t74.5 -8h74v-249zM680 1209l-168 170l166 172l172 -172zM261 1208l-168 170l165 172l172 -172z" />
    <glyph glyph-name="uni06BE.fina" unicode="&#x6be;" horiz-adv-x="1744" arabic-form="final" 
d="M1105 1078q65 -86 132 -174q28 -38 59.5 -79t64 -83.5t63.5 -84.5t60 -80q57 -76 77 -165q10 -43 10 -87q0 -45 -11 -91h211v-249h-405q-51 -27 -113.5 -42t-136.5 -15q-72 0 -149 14.5t-157 54.5q-18 8 -35 16q-15 7 -31 14.5t-27 13.5q-96 -29 -212.5 -42.5
t-257.5 -13.5h-113l81 249h113q28 0 37 -0.5t13 -0.5t11 1t31 4q-26 30 -46.5 58.5t-35 60t-22 67t-7.5 78.5q0 82 31.5 151t87 118t130 76.5t160.5 27.5q97 0 172.5 -38.5t127 -97t78 -126.5t26.5 -127q0 -48 -9.5 -88t-26.5 -75.5t-42 -67.5t-56 -63q31 -10 64 -18.5
t64 -8.5t65 4.5t64.5 18t54 37.5t35.5 63q4 14 4 29q0 27 -16 69t-58.5 107t-105.5 143.5t-138 171.5l-104 129zM545 502q0 -37 11.5 -65.5t35 -52.5t58 -46.5t80.5 -47.5q31 15 60 34t50.5 42.5t34.5 52.5t13 64q0 42 -18 74t-44 53t-55.5 31t-52.5 10q-34 0 -65.5 -12
t-55.5 -32.5t-38 -47.5t-14 -57z" />
    <glyph glyph-name="uni06BE.init" unicode="&#x6be;" horiz-adv-x="1496" arabic-form="initial" 
d="M951 1078q65 -86 132 -174q28 -38 59.5 -79t64 -83.5t63.5 -84.5t60 -80q62 -83 81 -181q6 -35 6 -70q0 -63 -21 -126q-20 -60 -58.5 -110t-93.5 -86t-126 -56t-156 -20q-72 0 -149 14.5t-157 54.5q-18 8 -35 16q-15 7 -31 14.5t-27 13.5q-96 -29 -212.5 -42.5
t-257.5 -13.5h-113v249h113q28 0 49.5 -0.5t41.5 -0.5q19 0 38.5 1t43.5 4q-26 30 -46.5 58.5t-35 60t-22 67t-7.5 78.5q0 82 31.5 151t87 118t130 76.5t160.5 27.5q97 0 172.5 -38.5t127 -97t78 -126.5t26.5 -127q0 -48 -9.5 -88t-26.5 -75.5t-42 -67.5t-56 -63
q31 -10 64 -18.5t64 -8.5t65 4.5t64.5 18t54 37.5t35.5 63q4 14 4 29q0 27 -16 69t-58.5 107t-105.5 143.5t-138 171.5l-104 129zM391 502q0 -37 11.5 -65.5t35 -52.5t58 -46.5t80.5 -47.5q31 15 60 34t50.5 42.5t34.5 52.5t13 64q0 42 -18 74t-44 53t-55.5 31t-52.5 10
q-34 0 -65.5 -12t-55.5 -32.5t-38 -47.5t-14 -57z" />
    <glyph glyph-name="uni06BE.medi" unicode="&#x6be;" horiz-adv-x="1279" arabic-form="medial" 
d="M628 856q93 0 167 -24.5t125 -72.5t78.5 -118.5t27.5 -163.5v-6q0 -47 -16.5 -102t-63 -111t-129 -107t-212.5 -90h1q-38 -13 -82 -22t-83 -16q15 -47 54 -98.5t90 -98.5t108 -84.5t110 -56.5q-39 64 -46 130q-3 21 -3 42q0 44 14 96.5t52.5 106.5t91 94t117.5 62
q56 18 116 18h154v-249h-145q-47 -2 -81 -20t-56 -46t-30 -64q-5 -22 -5 -45q0 -14 3.5 -40.5t23 -64t54.5 -69.5l-82 -202q-138 0 -265 40.5t-230.5 114t-177 176.5t-103.5 227q-57 -4 -113 -5.5t-107 -1.5v249q42 0 93 1t117 6q3 57 8.5 104t13 88t17.5 77t23 71
q33 81 78 134.5t95 84.5t101.5 43.5t96.5 12.5zM628 608q-30 0 -64 -12t-63.5 -48t-48.5 -101.5t-19 -172.5q63 7 129.5 22.5t120.5 40.5t88 60t34 81q0 38 -15 63t-39.5 40t-56.5 21t-66 6z" />
    <glyph glyph-name="fathatan_01" unicode="&#xfe70;" arabic-form="isolated" 
d="M-252 1711l504 187v-138l-504 -189v140zM-252 1952l504 187v-137l-504 -189v139z" />
    <glyph glyph-name="dammatan_01" unicode="&#xfe72;" arabic-form="isolated" 
d="M-277 1664q4 9 10.5 21t12 26t9.5 29t4 29q0 8 -4 18.5t-7 17.5q-14 17 -35 17q-18 0 -39 -9.5t-35 -20.5l-72 71q3 4 15.5 17t32.5 26t47 23q24 8 53 8h7q37 -2 67.5 -22t48.5 -51q11 -21 16.5 -46.5t5.5 -48.5q0 -13 -1 -25t-3 -24q42 14 88.5 32.5t83.5 41.5
q-35 13 -63.5 33t-49 44t-31.5 51.5t-11 56.5q0 33 16 65q12 25 32 47.5t44 39t51.5 26t54.5 9.5q34 0 63 -14q55 -26 79.5 -75.5t24.5 -105.5q0 -48 -15.5 -97.5t-42.5 -90.5q-22 -32 -58 -59.5t-77.5 -49.5t-85 -38.5t-80 -28t-63 -17.5t-34.5 -7zM71 2050q-10 0 -23 -3.5
t-26 -9.5t-24.5 -15t-18.5 -20q0 -21 13.5 -39t33 -32t42 -24.5t40.5 -17.5q5 19 8 39.5t3 41.5q0 24 -7 44q-5 14 -15.5 25t-25.5 11z" />
    <glyph glyph-name="kasratan_01" unicode="&#xfe74;" arabic-form="isolated" 
d="M-252 -681l504 187v-137l-504 -190v140zM-252 -440l504 188v-138l-504 -189v139z" />
    <glyph glyph-name="fatha_01" unicode="&#xfe76;" arabic-form="isolated" 
d="M-252 1711l504 187v-138l-504 -189v140z" />
    <glyph glyph-name="damma_01" unicode="&#xfe78;" arabic-form="isolated" 
d="M-298 1635q33 10 70.5 22.5t75 27.5t72.5 32.5t63 38.5q-37 12 -67.5 32t-52.5 46t-34.5 55.5t-12.5 61.5q0 33 13 62q12 25 32 48t44.5 40t52.5 27t56 10q36 0 67 -17q57 -31 81 -78.5t24 -103.5q0 -54 -19.5 -110t-53.5 -104q-33 -47 -86.5 -82.5t-109.5 -60.5
t-106 -40.5t-76 -23.5zM16 2019q-23 0 -51.5 -11.5t-41.5 -35.5q-2 -4 -2 -10q0 -8 7 -23t26.5 -34t46.5 -35t57 -20q6 15 10.5 38t4.5 47q0 31 -12.5 56t-45.5 28h1z" />
    <glyph glyph-name="kasra_01" unicode="&#xfe7a;" arabic-form="isolated" 
d="M-252 -440l504 188v-138l-504 -189v139z" />
    <glyph glyph-name="shadda_01" unicode="&#xfe7c;" arabic-form="isolated" 
d="M-130 1679q-92 0 -144.5 51.5t-52.5 142.5v108h115v-108q0 -42 19.5 -61t62.5 -19q6 0 17.5 2.5t22.5 10.5t19.5 24t8.5 43v108h116v-108q0 -42 19.5 -61.5t63.5 -19.5q6 0 17 3t21.5 11.5t18.5 24.5t8 42t-9.5 64t-20.5 79l109 37q3 -13 9 -32.5t12 -43.5t10.5 -50.5
t4.5 -53.5q0 -50 -16.5 -86.5t-42.5 -60.5t-58.5 -36t-64.5 -12q-43 0 -79 13t-61 35q-26 -24 -59 -35.5t-66 -11.5z" />
    <glyph glyph-name="sukun_01" unicode="&#xfe7e;" arabic-form="isolated" 
d="M-2 1659q-54 0 -97 16t-74 45t-47.5 71t-16.5 95t16.5 96t47.5 73t74.5 46t96.5 16q51 0 95.5 -16t76.5 -46t50.5 -72.5t18.5 -94.5t-18 -95t-50 -73t-76 -46q-42 -15 -91 -15h-6zM-2 1786q22 0 41.5 6.5t34.5 19.5t23.5 31.5t8.5 42.5t-8.5 43.5t-23.5 33t-34.5 21
t-41.5 7.5q-45 0 -77.5 -28t-32.5 -77q0 -51 29.5 -75.5t80.5 -24.5z" />
    <glyph glyph-name="uni0651064C" unicode="&#xfc5e;" arabic-form="isolated" 
d="M-130 1679q-92 0 -144.5 51.5t-52.5 142.5v108h115v-108q0 -42 19.5 -61t62.5 -19q6 0 17.5 2.5t22.5 10.5t19.5 24t8.5 43v108h116v-108q0 -42 19.5 -61.5t63.5 -19.5q6 0 17 3t21.5 11.5t18.5 24.5t8 42t-9.5 64t-20.5 79l109 37q3 -13 9 -32.5t12 -43.5t10.5 -50.5
t4.5 -53.5q0 -50 -16.5 -86.5t-42.5 -60.5t-58.5 -36t-64.5 -12q-43 0 -79 13t-61 35q-26 -24 -59 -35.5t-66 -11.5zM-277 2203q4 9 10.5 21t12 26t9.5 29t4 29q0 8 -4 18.5t-7 17.5q-14 17 -35 17q-18 0 -39 -9.5t-35 -20.5l-72 71q3 4 15.5 17t32.5 26t47 23q24 8 53 8h7
q37 -2 67.5 -22t48.5 -51q11 -21 16.5 -46.5t5.5 -48.5q0 -13 -1 -25t-3 -24q42 14 88.5 32.5t83.5 41.5q-35 13 -63.5 33t-49 44t-31.5 51.5t-11 56.5q0 33 16 65q12 25 32 47.5t44 39t51.5 26t54.5 9.5q34 0 63 -14q55 -26 79.5 -75.5t24.5 -105.5q0 -48 -15.5 -97.5
t-42.5 -90.5q-22 -32 -58 -59.5t-77.5 -49.5t-85 -38.5t-80 -28t-63 -17.5t-34.5 -7zM71 2589q-10 0 -23 -3.5t-26 -9.5t-24.5 -15t-18.5 -20q0 -21 13.5 -39t33 -32t42 -24.5t40.5 -17.5q5 19 8 39.5t3 41.5q0 24 -7 44q-5 14 -15.5 25t-25.5 11z" />
    <glyph glyph-name="uni0651064D" unicode="&#xfc5f;" arabic-form="isolated" 
d="M1 1741q-92 0 -144.5 51.5t-52.5 142.5v108h115v-108q0 -42 19.5 -61t62.5 -19q6 0 17.5 2.5t22.5 10.5t19.5 24t8.5 43v108h116v-108q0 -42 19.5 -61.5t63.5 -19.5q6 0 17 3t21.5 11.5t18.5 24.5t8 42t-9.5 64t-20.5 79l109 37q3 -13 9 -32.5t12 -43.5t10.5 -50.5
t4.5 -53.5q0 -50 -16.5 -86.5t-42.5 -60.5t-58.5 -36t-64.5 -12q-43 0 -79 13t-61 35q-26 -24 -59 -35.5t-66 -11.5zM-129 1265l504 187v-137l-504 -190v140zM-129 1506l504 188v-138l-504 -189v139z" />
    <glyph glyph-name="uni0651064E" unicode="&#xfc60;" arabic-form="isolated" 
d="M-130 1679q-92 0 -144.5 51.5t-52.5 142.5v108h115v-108q0 -42 19.5 -61t62.5 -19q6 0 17.5 2.5t22.5 10.5t19.5 24t8.5 43v108h116v-108q0 -42 19.5 -61.5t63.5 -19.5q6 0 17 3t21.5 11.5t18.5 24.5t8 42t-9.5 64t-20.5 79l109 37q3 -13 9 -32.5t12 -43.5t10.5 -50.5
t4.5 -53.5q0 -50 -16.5 -86.5t-42.5 -60.5t-58.5 -36t-64.5 -12q-43 0 -79 13t-61 35q-26 -24 -59 -35.5t-66 -11.5zM-344 2223l504 187v-138l-504 -189v140z" />
    <glyph glyph-name="uni0651064F" unicode="&#xfc61;" arabic-form="isolated" 
d="M-130 1679q-92 0 -144.5 51.5t-52.5 142.5v108h115v-108q0 -42 19.5 -61t62.5 -19q6 0 17.5 2.5t22.5 10.5t19.5 24t8.5 43v108h116v-108q0 -42 19.5 -61.5t63.5 -19.5q6 0 17 3t21.5 11.5t18.5 24.5t8 42t-9.5 64t-20.5 79l109 37q3 -13 9 -32.5t12 -43.5t10.5 -50.5
t4.5 -53.5q0 -50 -16.5 -86.5t-42.5 -60.5t-58.5 -36t-64.5 -12q-43 0 -79 13t-61 35q-26 -24 -59 -35.5t-66 -11.5zM-298 2182q33 10 70.5 22.5t75 27.5t72.5 32.5t63 38.5q-37 12 -67.5 32t-52.5 46t-34.5 55.5t-12.5 61.5q0 33 13 62q12 25 32 48t44.5 40t52.5 27t56 10
q36 0 67 -17q57 -31 81 -78.5t24 -103.5q0 -54 -19.5 -110t-53.5 -104q-33 -47 -86.5 -82.5t-109.5 -60.5t-106 -40.5t-76 -23.5zM16 2566q-23 0 -51.5 -11.5t-41.5 -35.5q-2 -4 -2 -10q0 -8 7 -23t26.5 -34t46.5 -35t57 -20q6 15 10.5 38t4.5 47q0 31 -12.5 56t-45.5 28h1z
" />
    <glyph glyph-name="uni06510650" unicode="&#xfc62;" arabic-form="isolated" 
d="M-16 1702q-92 0 -144.5 51.5t-52.5 142.5v108h115v-108q0 -42 19.5 -61t62.5 -19q6 0 17.5 2.5t22.5 10.5t19.5 24t8.5 43v108h116v-108q0 -42 19.5 -61.5t63.5 -19.5q6 0 17 3t21.5 11.5t18.5 24.5t8 42t-9.5 64t-20.5 79l109 37q3 -13 9 -32.5t12 -43.5t10.5 -50.5
t4.5 -53.5q0 -50 -16.5 -86.5t-42.5 -60.5t-58.5 -36t-64.5 -12q-43 0 -79 13t-61 35q-26 -24 -59 -35.5t-66 -11.5zM-139 1463l504 188v-138l-504 -189v139z" />
    <glyph glyph-name="uniFC63" unicode="&#xfc63;" arabic-form="isolated" 
d="M-130 1679q-92 0 -144.5 51.5t-52.5 142.5v108h115v-108q0 -42 19.5 -61t62.5 -19q6 0 17.5 2.5t22.5 10.5t19.5 24t8.5 43v108h116v-108q0 -42 19.5 -61.5t63.5 -19.5q6 0 17 3t21.5 11.5t18.5 24.5t8 42t-9.5 64t-20.5 79l109 37q3 -13 9 -32.5t12 -43.5t10.5 -50.5
t4.5 -53.5q0 -50 -16.5 -86.5t-42.5 -60.5t-58.5 -36t-64.5 -12q-43 0 -79 13t-61 35q-26 -24 -59 -35.5t-66 -11.5zM-71 2592h140v-408h-140v408z" />
    <glyph glyph-name="uni0692.fina" unicode="&#x692;" horiz-adv-x="909" 
d="M929 -15h-38q-41 0 -77.5 5t-71.5 28q-12 -129 -59 -234t-125.5 -179.5t-187.5 -115.5t-245 -41h-125v249h125q96 0 166 20t115 64t67 114.5t22 171.5v609h249v-299q0 -46 19.5 -74t45 -43.5t49.5 -20.5t33 -5h38v-249zM900 1281l-231 -413h-131l-234 413h171l126 -253
l130 253h169z" />
    <glyph glyph-name="uni0695.fina" unicode="&#x695;" horiz-adv-x="909" 
d="M929 -15h-38q-41 0 -77.5 5t-71.5 28q-12 -129 -59 -234t-125.5 -179.5t-187.5 -115.5t-245 -41h-125v249h125q96 0 166 20t115 64t67 114.5t22 171.5v609h249v-299q0 -46 19.5 -74t45 -43.5t49.5 -20.5t33 -5h38v-249zM648 -679l-231 -413h-131l-234 413h171l126 -253
l130 253h169z" />
    <glyph glyph-name="uni06A4.init" unicode="&#x6a8;" horiz-adv-x="1052" 
d="M-20 -15v249h408q84 0 141 9.5t92.5 24.5t53.5 33.5t26 37.5q-73 -10 -137 -10q-54 0 -131 10.5t-151 56t-113.5 121.5t-39.5 182q0 84 31 158.5t86.5 130t131.5 87.5q66 27 145 27h20q80 -3 141.5 -28t107 -66t76 -95.5t49 -117.5t27 -131.5t9.5 -137.5l-4 -74
q-8 -140 -56 -230.5t-124.5 -143t-174.5 -73t-206 -20.5h-408zM541 853q-10 1 -19 1q-26 0 -55.5 -7.5t-55 -27.5t-41 -49.5t-15.5 -68.5q0 -87 92 -125q53 -23 133 -23q58 0 130 12q-2 43 -7 91t-22 90t-50 71.5t-90 35.5zM475 1346l-170 -172l-170 170l170 172zM904 1350
l-168 -170l-175 168l172 172zM683 1632l-160 -160l-158 158l160 160z" />
    <glyph glyph-name="uni06A4.medi" unicode="&#x6a8;" horiz-adv-x="1078" 
d="M554 867q93 0 166.5 -34t124.5 -89.5t78 -126.5t27 -146q0 -42 -5 -73.5t-15.5 -58t-25.5 -51t-35 -52.5q18 -1 39.5 -1.5t43 -0.5h41.5h35h72v-249h-72q-64 0 -130.5 4t-130 11.5t-120.5 18t-102 23.5q-91 -26 -204 -41.5t-258 -15.5h-105v249h105q27 0 43 -0.5t29 -0.5
t27 0.5t35 2.5q-42 56 -64 111t-22 124q0 79 33 151t90.5 126.5t134.5 86.5t165 32zM367 469q0 -71 50 -121t130 -81q38 15 70 34t55.5 43.5t37 56t13.5 70.5q0 24 -12 50t-34 47.5t-53 35.5t-70 14q-44 0 -79 -12.5t-59 -33t-36.5 -47.5t-12.5 -56zM514 1106l-170 -172
l-170 170l170 172zM943 1110l-168 -170l-175 168l172 172zM722 1392l-160 -160l-158 158l160 160z" />
    <glyph glyph-name="uni06A8.fina" unicode="&#x6a8;" horiz-adv-x="1652" 
d="M709 -552q-89 0 -169.5 22.5t-148.5 64t-122.5 99t-92.5 128t-58.5 151t-20.5 167.5q0 65 6.5 129t23 132t44.5 142t70 159l223 -106q-36 -73 -59 -134t-36.5 -115.5t-18.5 -105t-5 -102.5q0 -80 25.5 -149.5t73 -121.5t114.5 -81.5t151 -29.5h75q110 0 198 10t150 41
t95.5 87.5t33.5 149.5h-143q-50 0 -102 8.5t-100 28t-90.5 51.5t-74 78.5t-50 108.5t-18.5 142q0 93 27.5 177t81.5 147.5t134 101.5t185 38q106 0 181.5 -39.5t123.5 -107t70.5 -156.5t22.5 -188v-141h169v-249h-170q-5 -158 -59.5 -262t-148.5 -165t-223 -85.5t-283 -24.5
h-85zM1111 629q-85 0 -133.5 -57t-48.5 -170q0 -45 16.5 -76.5t43.5 -52t60.5 -30t68.5 -9.5h143v141q0 93 -17.5 144t-41.5 75.5t-49.5 29.5t-41.5 5zM1062 1105l-170 -172l-170 170l170 172zM1491 1109l-168 -170l-175 168l172 172zM1270 1391l-160 -160l-158 158l160 160
z" />
    <glyph glyph-name="uni06AA.init" unicode="&#x6aa;" horiz-adv-x="1702" 
d="M1529 -15h-1555v249h1411q-8 56 -27 99.5t-54.5 73.5t-91 45.5t-134.5 15.5q-169 0 -298.5 1t-226 4.5t-165 11t-116 20t-78 31t-51.5 45.5q-20 26 -28.5 55t-8.5 56q0 26 5.5 47.5t9.5 33.5q33 112 142.5 219t298.5 206q61 31 114.5 55t105.5 44t104 38t110 36l76 -238
q-28 -7 -78 -24t-107 -39.5t-113.5 -47t-98.5 -46.5q-121 -63 -199.5 -124t-107.5 -118q21 -3 52.5 -5.5t79.5 -4.5q46 -3 103 -4t127.5 -2t156.5 -1h191q348 0 486 -242q28 -51 43.5 -106t22.5 -106t8 -95t1 -73z" />
    <glyph glyph-name="uni06AA.medi" unicode="&#x6aa;" horiz-adv-x="1953" 
d="M-25 -15v249h1424q24 0 33 3.5t9 10.5q0 12 -5.5 27t-14.5 32v-1q-19 31 -53.5 60t-79.5 51.5t-99 36.5t-111 14q-172 0 -302.5 1t-227.5 4.5t-164.5 10.5t-114.5 19.5t-77 31.5t-51 46q-22 29 -28.5 57.5t-6.5 54.5q0 71 37 139.5t100 132.5t145.5 122.5t174.5 110.5
q52 29 103 52.5t103.5 43.5t108 39t115.5 40l81 -240q-1 0 -20.5 -6.5t-52 -18t-74.5 -26.5t-86 -32t-88 -35.5t-80 -36.5q-51 -29 -102.5 -60.5t-95 -63t-76.5 -62t-48 -56.5q57 -5 107.5 -8t101 -5t103.5 -3.5t114.5 -2t135 -0.5h165.5q115 0 222 -38.5t191 -112.5
q45 -42 81 -84t64 -79q27 -34 53.5 -64.5t58 -54t70 -37t88.5 -13.5h67v-249h-67q-100 0 -174 25t-133 69l-23 -22q-83 -72 -210 -72h-1391z" />
    <glyph glyph-name="uni06AA.fina" unicode="&#x6aa;" horiz-adv-x="2511" 
d="M447 -15q-70 0 -138.5 24t-123 73t-88 124.5t-33.5 178.5q0 47 9 104.5t21 110.5t23.5 95.5t16.5 59.5l236 -74q-7 -22 -16.5 -58.5t-18.5 -78.5t-15.5 -84t-6.5 -75q0 -53 16.5 -83t38.5 -45t44.5 -19t34.5 -4h1518q24 0 33 3.5t9 10.5q0 12 -5.5 27t-14.5 33v-1
q-19 30 -54 59t-81.5 51.5t-101 36.5t-112.5 14q-172 0 -302.5 1t-227.5 4.5t-164.5 10.5t-114.5 19.5t-77 31.5t-51 46q-22 29 -28.5 57.5t-6.5 54.5q0 23 2.5 40.5t6.5 30.5h-1q14 57 51.5 113.5t95.5 111.5t134 107.5t168 101.5q54 27 105 50.5t103.5 44.5t107.5 40.5
t115 39.5l79 -234q-38 -13 -85 -29.5t-99 -37t-107 -44t-109 -50.5q-51 -29 -101 -60.5t-92.5 -63t-74.5 -62t-47 -56.5q77 -7 144 -11t139 -5.5t156.5 -2t195.5 -0.5h85q115 0 222 -38.5t191 -112.5q45 -42 81 -84t64 -79q27 -34 53.5 -64.5t58 -54t70 -37t88.5 -13.5h64
v-249h-64q-100 0 -174 25t-133 69l-23 -22q-83 -72 -210 -72h-1479z" />
    <glyph glyph-name="uni06B5.init" unicode="&#x6b5;" horiz-adv-x="645" 
d="M-20 234q100 0 156.5 12t79.5 35q16 14 23.5 43.5t7.5 79.5v1023h248v-1023q0 -36 -3.5 -75t-14.5 -79t-32 -78.5t-56 -72.5q-31 -29 -70 -50.5t-88.5 -35.5t-111.5 -21t-139 -7v249zM647 2022l-231 -413h-131l-234 413h171l126 -253l130 253h169z" />
    <glyph glyph-name="uni06B5.medi" unicode="&#x6b5;" horiz-adv-x="657" 
d="M-15 234q96 0 149 16.5t78.5 41.5t31 55t5.5 57v1023h248v-1023q0 -66 39.5 -114t111.5 -56h24v-249h-25q-50 1 -87.5 7t-68.5 19.5t-59.5 35.5t-59.5 54q-26 -32 -61.5 -54.5t-83 -36t-107.5 -19.5t-135 -6v249zM661 2013l-231 -413h-131l-234 413h171l126 -253l130 253
h169z" />
    <glyph glyph-name="uni06B5.fina" unicode="&#x6b5;" horiz-adv-x="1423" 
d="M595 -568q-71 0 -136 16t-122 47t-105 74.5t-84 99.5q-15 24 -30.5 56.5t-27.5 73.5t-20 91t-8 109q0 49 5 100.5t18.5 109.5t38 125.5t64.5 150.5l225 -107q-30 -62 -50 -113.5t-32 -97t-17 -86.5t-5 -83q0 -57 12.5 -106.5t37.5 -89.5l-1 1q38 -54 101.5 -88t135.5 -34
h46q105 0 171.5 22t104 62t51 97t13.5 127v1438h246v-1058q0 -31 14.5 -56t37.5 -42.5t52.5 -27t58.5 -9.5h53v-249h-53q-35 0 -58.5 2.5t-41.5 8.5t-32.5 15.5t-30.5 23.5v-46q0 -555 -586 -557h-46zM1407 2013l-231 -413h-131l-234 413h171l126 -253l130 253h169z" />
    <glyph glyph-name="uni06A4.fina" unicode="&#x6a4;" horiz-adv-x="2114" arabic-form="final" 
d="M464 240q84 -10 174.5 -16.5t178.5 -10t170 -3.5h78q38 0 88 0.5t98.5 3t69.5 5.5q-50 50 -80 115.5t-30 146.5q0 79 33 150t90.5 124t134.5 84t165 31q93 0 166.5 -32.5t124.5 -87t78 -124.5t27 -145q0 -42 -5 -75t-15.5 -61.5t-25.5 -54.5t-35 -54q26 -2 53.5 -2h56.5
h84v-249h-84q-127 0 -235 11t-198 36q-34 -12 -96.5 -23.5t-148.5 -20.5t-191.5 -14.5t-223.5 -6.5h-34q-102 0 -221 5t-249 19q-74 8 -140 29t-117 69q-20 19 -41.5 46t-38.5 64t-28 83.5t-11 104.5q0 50 10 107.5t22.5 108.5t23.5 88t14 46l119 -38l118 -37
q-9 -27 -19 -63.5t-19 -75t-15 -74.5t-6 -63q0 -48 13.5 -76t33 -43t42.5 -20t41 -7zM1452 473q0 -38 12 -67t35 -52.5t55 -41.5t73 -33q38 15 68.5 32t52.5 40t33.5 52.5t11.5 70.5q0 24 -13 50t-35 47.5t-51 35.5t-60 14q-36 0 -69 -12.5t-58 -33t-40 -47.5t-15 -55z
M1561 1133l-170 -172l-170 170l170 172zM1990 1137l-168 -170l-175 168l172 172zM1769 1419l-160 -160l-158 158l160 160z" />
    <glyph glyph-name="uni06C6.fina" unicode="&#x6c6;" horiz-adv-x="1099" arabic-form="final" 
d="M220 -303q80 0 142.5 5.5t111 16t85 27t63.5 39.5q42 34 63.5 79t25.5 121h-154q-50 0 -102 8t-100 27.5t-90.5 50.5t-74 76.5t-50 107.5t-18.5 142q0 69 12 122.5t30.5 94.5t41.5 71.5t44 53.5q60 60 136 92.5t164 32.5q109 0 186.5 -37.5t127 -103.5t72.5 -156.5
t23 -196.5v-136h170v-249h-171q-4 -137 -48.5 -231t-132.5 -164q-46 -36 -100 -62.5t-121 -44.5t-149.5 -26.5t-186.5 -8.5v249zM550 615q-85 0 -135 -53t-50 -165q0 -44 17.5 -75t45 -50.5t61.5 -28.5t68 -9h154v136q0 57 -9 97.5t-23.5 67.5t-33 43t-36 24t-33.5 10.5
t-26 2.5zM831 1473l-231 -413h-131l-234 413h171l126 -253l130 253h169z" />
    <glyph glyph-name="uni06CE.init" unicode="&#x6ce;" horiz-adv-x="868" 
d="M723 825q2 -7 8.5 -33t14.5 -63.5t16.5 -83.5t16 -92.5t12 -90.5t4.5 -77q0 -103 -34 -178.5t-89 -124.5t-123.5 -73t-137.5 -24h-431v249h438q12 0 34.5 3.5t45 18.5t39.5 45.5t17 83.5q0 22 -3.5 53.5t-9.5 67.5t-13.5 73.5t-14.5 71t-14 61t-11 42.5zM609 -512
l-168 170l166 172l172 -172zM190 -513l-168 170l165 172l172 -172zM668 1437l-231 -413h-131l-234 413h171l126 -253l130 253h169z" />
    <glyph glyph-name="uni06CE.medi" unicode="&#x6ce;" horiz-adv-x="1034" 
d="M1054 234v-249h-148q-85 0 -155 23t-118 68q-56 -47 -132.5 -69t-174.5 -22h-346v249h346q61 0 97.5 11.5t55 28.5t24 38t5.5 41v324h248v-317q0 -45 20 -70.5t45.5 -38t50.5 -15t34 -2.5h148zM724 -504l-168 170l166 172l172 -172zM305 -505l-168 170l165 172l172 -172z
M941 1269l-231 -413h-131l-234 413h171l126 -253l130 253h169z" />
    <glyph glyph-name="uni06CE.fina" unicode="&#x6ce;" horiz-adv-x="1782" 
d="M1802 -15h-267q23 -33 38 -72.5t15 -71.5q0 -93 -51 -168.5t-138 -128.5t-202.5 -82t-245.5 -29h-256q-82 0 -157 19t-141 54.5t-121 86t-97 114.5q-99 160 -99 375q0 66 7.5 131t25 133.5t46 143t70.5 161.5l222 -107q-35 -74 -58 -135t-37.5 -115.5t-20.5 -105
t-6 -101.5q0 -145 64 -246q46 -76 125.5 -116.5t176.5 -40.5h256q75 0 142 14t118 39t83 57.5t37 70.5q-29 31 -73.5 52.5t-101 36t-122 22t-136.5 10.5l7 248h897v-249zM1241 822l-231 -413h-131l-234 413h171l126 -253l130 253h169z" />
    <glyph glyph-name=".notdef" horiz-adv-x="1229" 
d="M102 -362v1806h1024v-1806h-1024zM217 -248h795v1577h-795v-1577z" />
    <glyph glyph-name="NULL" unicode="&#xfeff;" 
 />
    <glyph glyph-name="NULL" 
 />
    <glyph glyph-name="nonmarkingreturn" horiz-adv-x="602" 
 />
    <glyph glyph-name="space" unicode=" " horiz-adv-x="696" 
 />
    <glyph glyph-name="space" unicode="&#xa0;" horiz-adv-x="696" 
 />
    <glyph glyph-name="uni0640" unicode="&#x640;" horiz-adv-x="414" 
d="M416 234q20 0 30.5 -10.5t10.5 -27.5v-171q0 -22 -10.5 -31t-30.5 -9h-418q-22 0 -31 9t-9 31v171q0 17 9 27.5t31 10.5h418z" />
    <glyph glyph-name="uni066E" unicode="&#x66e;" horiz-adv-x="2103" 
d="M462 -15q-74 0 -140 25t-117 73q-20 19 -41.5 46t-38.5 64t-28 83.5t-11 104.5q0 50 10 108.5t22.5 110.5t23.5 90t14 47l119 -38l118 -37q-9 -27 -19 -64.5t-19 -77t-15 -76.5t-6 -64q0 -48 13.5 -77.5t33 -45t38.5 -19.5t45 -4h1192q12 0 34.5 3.5t45 18.5t39.5 45.5
t17 83.5q0 22 -3.5 53.5t-9.5 67.5t-13.5 73.5t-14.5 71.5q-3 13 -5 25l236 62q1 -5 2 -9q8 -38 16.5 -84t16 -92.5t12 -90.5t4.5 -77q0 -103 -34 -178.5t-89 -124.5t-123.5 -73t-137.5 -24h-1187z" />
    <glyph glyph-name="feh_dotless.isol" horiz-adv-x="2127" 
d="M462 -15q-74 0 -140 25t-117 73q-20 19 -41.5 46t-38.5 64t-28 83.5t-11 104.5q0 50 10 108.5t22.5 110.5t23.5 90t14 47l119 -38l118 -37q-9 -27 -19 -64.5t-19 -77t-15 -76.5t-6 -64q0 -48 13.5 -77t33 -44.5t42.5 -20t41 -4.5h1005q84 0 141 9.5t92.5 24.5t53.5 33.5
t26 37.5q-73 -10 -137 -10q-54 0 -131 10.5t-151 56t-113.5 121.5t-39.5 182q0 84 31 158.5t86.5 130t131.5 87.5q66 27 145 27h20q81 -3 142 -28t106.5 -66t76 -95.5t49 -117.5t27 -131.5t9.5 -137.5l-4 -74q-8 -140 -56 -230.5t-124.5 -143t-174.5 -73t-206 -20.5h-1007z
M1622 853q-10 1 -19 1q-26 0 -55.5 -7.5t-55 -27.5t-41 -49.5t-15.5 -68.5q0 -87 92 -125q53 -23 133 -23q58 0 130 12q-2 43 -7 91t-22 90t-50 71.5t-90 35.5z" />
    <glyph glyph-name="uni06A1.fina" horiz-adv-x="2114" 
d="M464 240q84 -10 174.5 -16.5t178.5 -10t170 -3.5h78q38 0 88 0.5t98.5 3t69.5 5.5q-50 50 -80 115.5t-30 146.5q0 79 33 150t90.5 124t134.5 84t165 31q93 0 166.5 -32.5t124.5 -87t78 -124.5t27 -145q0 -42 -5 -75t-15.5 -61.5t-25.5 -54.5t-35 -54q26 -2 53.5 -2h56.5
h84v-249h-84q-127 0 -235 11t-198 36q-34 -12 -96.5 -23.5t-148.5 -20.5t-191.5 -14.5t-223.5 -6.5h-34q-102 0 -221 5t-249 19q-74 8 -140 29t-117 69q-20 19 -41.5 46t-38.5 64t-28 83.5t-11 104.5q0 50 10 107.5t22.5 108.5t23.5 88t14 46l119 -38l118 -37
q-9 -27 -19 -63.5t-19 -75t-15 -74.5t-6 -63q0 -48 13.5 -76t33 -43t42.5 -20t41 -7zM1452 473q0 -38 12 -67t35 -52.5t55 -41.5t73 -33q38 15 68.5 32t52.5 40t33.5 52.5t11.5 70.5q0 24 -13 50t-35 47.5t-51 35.5t-60 14q-36 0 -69 -12.5t-58 -33t-40 -47.5t-15 -55z" />
    <glyph glyph-name="uni066F" unicode="&#x66f;" horiz-adv-x="1620" 
d="M709 -552q-80 0 -154.5 19t-140.5 54t-121 86t-95 115q-48 78 -74.5 165.5t-26.5 192.5q0 65 6.5 129t23 132t44.5 142t70 159l223 -106q-36 -73 -59 -134t-36.5 -115.5t-18.5 -105t-5 -102.5q0 -70 16 -122.5t48 -103.5q46 -75 124.5 -115.5t175.5 -40.5h75
q110 0 198 10t150 41t95.5 87.5t33.5 149.5h-143q-50 0 -102 8.5t-100 28t-90.5 51.5t-74 78.5t-50 108.5t-18.5 142q0 93 27.5 177t81.5 147.5t134 101.5t185 38q106 0 181.5 -39.5t123.5 -107t70.5 -156.5t22.5 -188v-360q0 -112 -23.5 -197.5t-68 -148.5t-108 -105.5
t-143 -68t-173.5 -36.5t-199 -11h-85zM1111 629q-85 0 -133.5 -57t-48.5 -170q0 -45 16.5 -76.5t43.5 -52t60.5 -30t68.5 -9.5h143v141q0 93 -17.5 144t-41.5 75.5t-49.5 29.5t-41.5 5z" />
    <glyph glyph-name="onedot.above" 
d="M-179 1314l180 182l184 -184l-182 -182z" />
    <glyph glyph-name="twodots.above" 
d="M200 1143l-168 170l166 172l172 -172zM-219 1142l-168 170l165 172l172 -172z" />
    <glyph glyph-name="threedots.above" 
d="M-51 1318l-170 -172l-170 170l170 172zM378 1322l-168 -170l-175 168l172 172zM157 1604l-160 -160l-158 158l160 160z" />
    <glyph glyph-name="threedots.below" 
d="M-375 -335l170 170l170 -172l-170 -170zM42 -337l172 170l170 -172l-170 -170zM-157 -617l158 158l160 -160l-158 -158z" />
    <glyph glyph-name="uni0660" unicode="&#x660;" horiz-adv-x="1083" 
d="M544 161q-84 0 -158 32.5t-129 88t-87 130t-32 158.5t32 158t87 129t129 87t158 32t158.5 -32t130 -87t88 -129t32.5 -158t-32.5 -158.5t-88 -130t-130 -88t-158.5 -32.5zM544 734q-34 0 -63.5 -13t-51.5 -35t-35 -52t-13 -64t13 -64.5t35 -53t51.5 -35.5t63.5 -13
t64.5 13t53 35.5t36 53t13.5 64.5t-13.5 64t-36 52t-53 35t-64.5 13z" />
    <glyph glyph-name="uni0661" unicode="&#x661;" horiz-adv-x="624" 
d="M226 -14v40v48t0.5 49t1.5 44v-1q1 48 1.5 99.5t0.5 108.5q0 110 -2.5 228t-14.5 245.5t-37 264t-71 283.5l233 76q51 -163 79.5 -312.5t42 -286t16.5 -261.5t3 -240q0 -57 -0.5 -109.5t-1.5 -100.5q-1 -20 -1.5 -43.5t-0.5 -47.5v-46v-38h-249z" />
    <glyph glyph-name="uni0662" unicode="&#x662;" horiz-adv-x="1149" 
d="M1011 1465q3 -9 13 -43t20 -81.5t18 -102t8 -104.5q0 -103 -34 -179t-88 -125.5t-122.5 -73.5t-137.5 -24q-68 0 -124.5 16.5t-105.5 44.5q9 -87 14 -173t7 -181.5t2.5 -206.5t-0.5 -248h-246v242q0 118 -3.5 249.5t-18.5 276.5t-46 304t-86 332l237 76l41 -122
q5 -15 16.5 -47.5t30.5 -73t45.5 -83t61.5 -78t78.5 -58t96.5 -22.5q12 0 34.5 4t45 19.5t39.5 46.5t17 84q0 31 -5 67.5t-12.5 71t-16 65t-15.5 51.5z" />
    <glyph glyph-name="uni0663" unicode="&#x663;" horiz-adv-x="1459" 
d="M1317 1465q8 -35 17.5 -77t17 -88.5t12.5 -96t5 -99.5q0 -74 -18 -141t-56.5 -118t-98.5 -81t-144 -30q-30 0 -64.5 6t-69.5 20.5t-69.5 39t-65.5 62.5q-47 -58 -101.5 -86t-105.5 -40h1q-15 -4 -33 -5.5t-36 -1.5q-22 0 -46 3.5t-45 10.5q13 -154 15.5 -290.5
t2.5 -248.5v-218h-248v198q0 118 -2.5 265t-17 306.5t-44 322t-83.5 311.5l235 78q10 -34 19 -62t17 -57t16.5 -61t18.5 -74q10 -38 27 -79.5t39.5 -75.5t51 -56t62.5 -22q23 4 43 19t35 46t23.5 79t8.5 118v39.5t-0.5 36t-2.5 41.5t-5 57l246 22q12 -122 24 -208.5t29 -141
t43.5 -79.5t67.5 -25q33 0 58 30t25 84q0 40 -5 83t-12 83t-15 74t-15 56z" />
    <glyph glyph-name="uni0664" unicode="&#x664;" horiz-adv-x="1049" 
d="M634 -16q-86 0 -158.5 16.5t-129.5 47t-98.5 73.5t-65.5 95q-29 63 -30 134v6q0 68 20.5 132t61.5 118.5t97 86.5q-53 15 -104 41.5t-91 65.5t-65 89.5t-25 113.5q0 67 26.5 124t71 105.5t102 88t119.5 72.5t124 59.5t115 47.5l80 -237q-70 -23 -137.5 -53t-121.5 -64.5
t-89.5 -72t-40.5 -74.5v-5q0 -23 34 -40t94.5 -28.5t138.5 -17.5t159 -7l38 -237q-73 -21 -143 -58t-122 -83.5t-76 -99.5q-15 -31 -15 -63q0 -22 8 -45q6 -17 25 -32t48 -26t66.5 -17.5t81.5 -6.5q28 0 52.5 1.5t52 7t60 16t76.5 28.5l93 -232q-55 -26 -100.5 -40
t-85.5 -21t-75.5 -8t-70.5 -1z" />
    <glyph glyph-name="uni0665" unicode="&#x665;" horiz-adv-x="1324" 
d="M652 -16q-118 0 -224 32.5t-187 100t-127 167.5t-46 229q0 82 28 168t75 176t107 182.5t125 188.5l122 182l96 -47q80 -38 158 -91.5t148.5 -118.5t131 -140t104.5 -157t69 -168.5t25 -174.5q0 -132 -41.5 -232t-118 -166.5t-184.5 -99.5q-102 -31 -225 -31h-36z
M1009 513q0 85 -36 168t-94 158.5t-129.5 139t-142.5 109.5q-58 -86 -110.5 -164.5t-92.5 -150t-63.5 -136.5t-23.5 -124q0 -141 93.5 -212t262.5 -71q80 0 142.5 15t105.5 48.5t65.5 87.5t22.5 132z" />
    <glyph glyph-name="uni0666" unicode="&#x666;" horiz-adv-x="1184" 
d="M880 -55q-45 147 -77.5 309t-52.5 331q-6 56 -10.5 107.5t-7.5 101.5t-4.5 100.5t-1.5 104.5v50t0.5 43l1 42t2.5 48q-57 -8 -128.5 -16t-156.5 -8q-47 0 -92.5 1.5t-93.5 7t-99.5 16t-110.5 28.5l69 238q49 -14 91.5 -22.5t82.5 -12.5t78.5 -5t79.5 -1q68 0 132.5 5.5
t118 12.5t91 14t52.5 10l139 -120q-8 -79 -8 -151v-171q0 -143 11 -279t30 -262t44.5 -240t54.5 -213z" />
    <glyph glyph-name="uni0667" unicode="&#x667;" horiz-adv-x="1366" 
d="M1290 1340q-110 -130 -195.5 -298.5t-161.5 -387.5q-32 -92 -58 -185.5t-44.5 -181t-28.5 -166t-10 -138.5h-248q0 59 -10.5 137.5t-29.5 167t-45 182.5t-56 184q-75 211 -164 382t-195 300l193 163q65 -78 125 -181t114 -220.5t102 -243.5t90 -250q41 123 88.5 248.5
t101.5 243.5t114 221.5t127 182.5z" />
    <glyph glyph-name="uni0668" unicode="&#x668;" horiz-adv-x="1376" 
d="M931 801q75 -218 173.5 -402.5t208.5 -317.5l-193 -160q-60 73 -118.5 170t-115.5 215.5t-112 256.5t-109 293q-42 -125 -93 -257t-109.5 -256.5t-121.5 -233t-129 -186.5l-195 158q53 62 105 144t101 175.5t93.5 195.5t82.5 205q28 87 54 175t45 170t30.5 154.5
t11.5 129.5h248q0 -61 10.5 -132t29 -151t45 -167t58.5 -179z" />
    <glyph glyph-name="uni0669" unicode="&#x669;" horiz-adv-x="982" 
d="M676 -74q-21 57 -36.5 138.5t-26 177t-17.5 200.5t-10 208h-143q-75 0 -149 18.5t-133.5 62.5t-96.5 116.5t-37 180.5q0 105 30 186.5t84.5 138t129.5 86t165 29.5q99 0 173 -35.5t123 -98t73.5 -147.5t24.5 -185q0 -190 5.5 -350.5t15.5 -286.5t24 -215.5t32 -136.5z
M582 896q-1 29 -1 56v50q0 75 -17.5 119.5t-41.5 68t-48.5 30t-37.5 6.5q-38 0 -70 -12t-55.5 -36.5t-36.5 -62t-13 -87.5q0 -39 19 -64.5t47 -40.5t59.5 -21t56.5 -6h139z" />
    <glyph glyph-name="uni06F4" unicode="&#x6f4;" horiz-adv-x="1366" 
d="M989 925q28 0 55 0.5t54 2.5t56.5 5.5t63.5 9.5l56 -225q-52 -15 -100 -25.5t-99 -17t-108.5 -10t-129.5 -3.5q-104 0 -211.5 16t-204.5 58q6 -81 10.5 -148t6.5 -127t3 -117t1 -118q0 -42 -0.5 -85.5t-0.5 -94.5v-62h-248v63q0 147 -1.5 275t-7 242t-15.5 218t-27 204
t-42 199t-60 203l240 76q16 -52 29.5 -103t26.5 -104q8 -29 14.5 -59.5t14.5 -60.5q18 -71 56.5 -115.5t83.5 -65.5q-6 15 -13 32t-12.5 38.5t-9 47.5t-3.5 58q0 91 35.5 162.5t93 121t130 75t145.5 25.5q58 0 107.5 -13.5t92.5 -34.5t81.5 -46.5t75.5 -49.5l-118 -211
q-35 25 -66 44.5t-60 32.5t-56.5 20.5t-56.5 8.5h-6q-26 0 -56 -9t-56 -28t-43.5 -46.5t-17.5 -62.5q0 -57 27 -95t69.5 -60.5t95.5 -31.5t105 -9z" />
    <glyph glyph-name="uni06F5" unicode="&#x6f5;" horiz-adv-x="1376" 
d="M570 1534q6 -5 40.5 -32.5t87.5 -74t118 -110.5t132.5 -141.5t131 -167t113.5 -187t80 -201.5t30 -211q0 -69 -13 -123.5t-33.5 -96t-46 -71t-49.5 -49.5q-51 -42 -113.5 -63t-128.5 -21q-63 0 -121 18t-109 59q-48 -38 -107.5 -58.5t-118.5 -20.5q-48 0 -96 11.5
t-91.5 34.5t-80.5 57t-64 79q-24 40 -37.5 79.5t-20 73t-8.5 58.5t-2 37q0 94 21.5 183t56.5 171.5t80.5 157t93 139t94 117.5t83.5 92l-74 61zM1003 262q27 23 45.5 59.5t18.5 87.5q0 63 -17.5 127.5t-47 128t-69.5 125t-84.5 119.5t-91 111.5t-90.5 100.5
q-32 -36 -72 -82.5t-81 -102t-79.5 -118.5t-68.5 -129.5t-48.5 -136.5t-18.5 -139q0 -35 11.5 -67.5t31.5 -58.5t48 -41.5t60 -15.5q21 0 46 6t46 24q20 18 28.5 45t9 57.5t-3.5 61t-9 55.5l242 46q0 -1 1 -6t2.5 -18t3 -35t3.5 -58v-16q0 -17 -1.5 -39.5t-6.5 -48.5
q15 -38 45.5 -54t63.5 -16q22 0 43.5 7t39.5 21z" />
    <glyph glyph-name="uni06F6" unicode="&#x6f6;" horiz-adv-x="1136" 
d="M1073 980l-74 -78q-14 -13 -48.5 -54t-83.5 -104.5t-108.5 -147.5t-122 -185t-124.5 -216t-116 -240l-228 100q37 85 82 168.5t93 162t95.5 150.5t88.5 134q-42 0 -87.5 6t-90 19.5t-85 36t-71.5 55.5q-51 56 -75.5 122t-24.5 137q0 83 32.5 163t95.5 144
q35 31 72.5 52.5t82 37t97 26.5t116.5 20l49 -232q-36 -3 -73 -11t-70 -19t-60 -25.5t-44 -30.5q-21 -20 -35 -48.5t-18 -59.5q-2 -13 -2 -26q0 -18 5 -42.5t26 -48.5q14 -17 53 -32q29 -11 68 -11q13 0 27 1q68 4 146 50t166 128l78 81z" />
    <glyph glyph-name="uni066A" unicode="&#x66a;" horiz-adv-x="1174" 
d="M766 1555h248l-607 -1542h-246zM916 -4l-213 213l212 211l213 -213zM289 1116l-213 213l212 211l213 -213z" />
    <glyph glyph-name="uni061F" unicode="&#x61f;" horiz-adv-x="1083" 
d="M599 822q27 -22 49.5 -58.5t38.5 -82.5t25 -98.5t9 -105.5v-136h-240v136q0 60 -25.5 114.5t-71.5 96.5q-20 18 -43 36.5t-46 36.5q-29 23 -57 46t-53 46q-57 55 -83.5 132t-26.5 164q0 91 42.5 168.5t110.5 134.5t153 89t171 32q110 0 196.5 -34.5t145.5 -98.5t89 -155
q27 -83 27 -184v-20h-240q0 70 -17.5 118.5t-47.5 77.5t-69.5 42t-83.5 13q-48 0 -88.5 -13.5t-70 -38t-46 -58t-16.5 -72.5q0 -59 23 -108.5t68 -84.5zM603 -157l-179 182l186 185l180 -185z" />
    <glyph glyph-name="uni060C" unicode="&#x60c;" horiz-adv-x="580" 
d="M485 150q0 -35 -16 -65t-42.5 -51.5t-59.5 -34t-67 -12.5q-49 0 -87 20t-64.5 53.5t-40.5 77t-14 90.5q0 121 57.5 223.5t185.5 192.5l98 -91q-93 -66 -136 -130.5t-48 -128.5q16 7 38.5 13.5t45.5 6.5q31 0 58.5 -12t47.5 -34t32 -52t12 -66z" />
    <glyph glyph-name="uni061B" unicode="&#x61b;" horiz-adv-x="562" 
d="M419 125q0 -28 -11.5 -53t-30.5 -43.5t-44 -29.5t-53 -11t-53.5 11t-44.5 29.5t-30 43.5t-11 53t11 53.5t30 44.5t44.5 30t53.5 11t53 -11.5t44 -30.5t30.5 -44t11.5 -53zM472 570q0 -35 -16.5 -64.5t-43 -51.5t-59.5 -34t-66 -12q-51 0 -89.5 19.5t-64.5 53t-39 77
t-13 91.5q0 245 199 372l101 -92q-68 -45 -98 -96t-34 -112q35 8 68 8q31 0 59.5 -8.5t50 -27.5t34.5 -49q11 -29 11 -67v-7z" />
    <glyph glyph-name="uni066B" unicode="&#x66b;" horiz-adv-x="685" 
d="M428 855h172l-493 -1084h-174z" />
    <glyph glyph-name="uni066C" unicode="&#x66c;" horiz-adv-x="513" 
d="M29 -257q121 58 183 119t69 130q-37 -14 -69 -14q-33 0 -62.5 12.5t-51.5 35t-35.5 53.5t-15.5 69q0 39 15 70.5t40 53t58 33.5t69 12h5q48 0 86.5 -18.5t65 -51t40 -76.5t13.5 -92v-20q0 -62 -17.5 -122t-59 -117.5t-107 -108.5t-156.5 -97z" />
    <glyph glyph-name="uni066D" unicode="&#x66d;" horiz-adv-x="1126" 
d="M205 725l193 299q-80 13 -162 26t-162 25l31 207l369 -70l-22 351h219l-13 -351l366 70l28 -207l-329 -52l198 -298l-191 -103l-172 310l-156 -310z" />
    <glyph glyph-name="uni064B" unicode="&#x64b;" 
d="M-252 1711l504 187v-138l-504 -189v140zM-252 1952l504 187v-137l-504 -189v139z" />
    <glyph glyph-name="uni064D" unicode="&#x64d;" 
d="M-252 -681l504 187v-137l-504 -190v140zM-252 -440l504 188v-138l-504 -189v139z" />
    <glyph glyph-name="uni064E" unicode="&#x64e;" 
d="M-252 1711l504 187v-138l-504 -189v140z" />
    <glyph glyph-name="uni064F" unicode="&#x64f;" 
d="M-298 1635q33 10 70.5 22.5t75 27.5t72.5 32.5t63 38.5q-37 12 -67.5 32t-52.5 46t-34.5 55.5t-12.5 61.5q0 33 13 62q12 25 32 48t44.5 40t52.5 27t56 10q36 0 67 -17q57 -31 81 -78.5t24 -103.5q0 -54 -19.5 -110t-53.5 -104q-33 -47 -86.5 -82.5t-109.5 -60.5
t-106 -40.5t-76 -23.5zM16 2019q-23 0 -51.5 -11.5t-41.5 -35.5q-2 -4 -2 -10q0 -8 7 -23t26.5 -34t46.5 -35t57 -20q6 15 10.5 38t4.5 47q0 31 -12.5 56t-45.5 28h1z" />
    <glyph glyph-name="uni064C" unicode="&#x64c;" 
d="M-277 1664q4 9 10.5 21t12 26t9.5 29t4 29q0 8 -4 18.5t-7 17.5q-14 17 -35 17q-18 0 -39 -9.5t-35 -20.5l-72 71q3 4 15.5 17t32.5 26t47 23q24 8 53 8h7q37 -2 67.5 -22t48.5 -51q11 -21 16.5 -46.5t5.5 -48.5q0 -13 -1 -25t-3 -24q42 14 88.5 32.5t83.5 41.5
q-35 13 -63.5 33t-49 44t-31.5 51.5t-11 56.5q0 33 16 65q12 25 32 47.5t44 39t51.5 26t54.5 9.5q34 0 63 -14q55 -26 79.5 -75.5t24.5 -105.5q0 -48 -15.5 -97.5t-42.5 -90.5q-22 -32 -58 -59.5t-77.5 -49.5t-85 -38.5t-80 -28t-63 -17.5t-34.5 -7zM71 2050q-10 0 -23 -3.5
t-26 -9.5t-24.5 -15t-18.5 -20q0 -21 13.5 -39t33 -32t42 -24.5t40.5 -17.5q5 19 8 39.5t3 41.5q0 24 -7 44q-5 14 -15.5 25t-25.5 11z" />
    <glyph glyph-name="uni0650" unicode="&#x650;" 
d="M-252 -440l504 188v-138l-504 -189v139z" />
    <glyph glyph-name="uni0651" unicode="&#x651;" 
d="M-130 1679q-92 0 -144.5 51.5t-52.5 142.5v108h115v-108q0 -42 19.5 -61t62.5 -19q6 0 17.5 2.5t22.5 10.5t19.5 24t8.5 43v108h116v-108q0 -42 19.5 -61.5t63.5 -19.5q6 0 17 3t21.5 11.5t18.5 24.5t8 42t-9.5 64t-20.5 79l109 37q3 -13 9 -32.5t12 -43.5t10.5 -50.5
t4.5 -53.5q0 -50 -16.5 -86.5t-42.5 -60.5t-58.5 -36t-64.5 -12q-43 0 -79 13t-61 35q-26 -24 -59 -35.5t-66 -11.5z" />
    <glyph glyph-name="uni0652" unicode="&#x652;" 
d="M-2 1659q-54 0 -97 16t-74 45t-47.5 71t-16.5 95t16.5 96t47.5 73t74.5 46t96.5 16q51 0 95.5 -16t76.5 -46t50.5 -72.5t18.5 -94.5t-18 -95t-50 -73t-76 -46q-42 -15 -91 -15h-6zM-2 1786q22 0 41.5 6.5t34.5 19.5t23.5 31.5t8.5 42.5t-8.5 43.5t-23.5 33t-34.5 21
t-41.5 7.5q-45 0 -77.5 -28t-32.5 -77q0 -51 29.5 -75.5t80.5 -24.5z" />
    <glyph glyph-name="uni0653" unicode="&#x653;" 
d="M424 1598h-490q-59 0 -99.5 -3.5t-69 -18t-47 -42t-33.5 -75.5l-186 55q26 90 71 147t108 89q54 26 117 34.5t139 8.5h490v-195z" />
    <glyph glyph-name="uni0654" unicode="&#x654;" 
d="M-283 1480v149l124 40q-30 31 -49.5 70t-19.5 83q0 34 12 67t33 61t49.5 49t60.5 30q17 5 34.5 7.5t34.5 2.5q36 0 63.5 -8.5t51.5 -17.5l17 -8l-30 -124q-14 3 -31 8t-34 8t-33.5 3.5t-29.5 -3.5q-14 -5 -27.5 -14t-22.5 -20.5t-12 -26.5q-2 -6 -2 -12q0 -10 4 -20
q8 -26 37.5 -44t82.5 -18q10 0 21.5 1t30.5 5.5t48.5 13t75.5 23.5l8 -141z" />
    <glyph glyph-name="uni0655" unicode="&#x655;" 
d="M-240 -651v149l124 40q-30 31 -49.5 70t-19.5 83q0 34 12 67t33 61t49.5 49t60.5 30q17 5 34.5 7.5t34.5 2.5q36 0 63.5 -8.5t51.5 -17.5l17 -8l-30 -124q-14 3 -31 8t-34 8t-33.5 3.5t-29.5 -3.5q-14 -5 -27.5 -14t-22.5 -20.5t-12 -26.5q-2 -6 -2 -12q0 -10 4 -20
q8 -26 37.5 -44t82.5 -18q10 0 21.5 1t30.5 5.5t48.5 13t75.5 23.5l8 -141z" />
    <glyph glyph-name="uni0670" unicode="&#x670;" 
d="M-71 2070h140v-408h-140v408z" />
    <glyph glyph-name="uni0656" unicode="&#x656;" 
d="M-71 -383h140v-409h-140v409z" />
    <glyph glyph-name="uni0615" unicode="&#x615;" 
d="M-352 1194v109h104q3 4 5.5 8.5t7 11.5t12 17.5t18.5 26.5v488h107v-343q36 38 79.5 63t95.5 25q34 0 68 -12t61 -37.5t43.5 -66t16.5 -96.5q0 -54 -18 -91t-46 -60t-62.5 -33t-67.5 -10h-424zM77 1491q-26 0 -52 -16.5t-51 -43.5t-48 -60.5t-44 -67.5h190q36 0 62 20
t26 65q0 53 -22.5 78t-60.5 25z" />
    <glyph glyph-name="wasla" 
d="M-322 1562l24 109h132l44 68l83 122q35 52 86 82.5t111 30.5q34 0 68 -13t61 -40t43.5 -68t16.5 -97q0 -54 -18 -91t-46 -60t-62.5 -33t-67.5 -10h-475zM158 1865q-27 0 -53.5 -18t-51 -46t-47.5 -62.5t-43 -67.5h190q36 0 60 20t24 65q0 53 -20.5 81t-58.5 28z" />
    <glyph glyph-name="beh_dotless_alt.init" horiz-adv-x="868" 
d="M723 825q2 -7 8.5 -33t14.5 -63.5t16.5 -83.5t16 -92.5t12 -90.5t4.5 -77q0 -103 -34 -178.5t-89 -124.5t-123.5 -73t-137.5 -24h-431v249h438q12 0 34.5 3.5t45 18.5t39.5 45.5t17 83.5q0 22 -3.5 53.5t-9.5 67.5t-13.5 73.5t-14.5 71t-14 61t-11 42.5z" />
    <glyph glyph-name="beh_dotless_alt.medi" horiz-adv-x="1034" 
d="M1054 234v-249h-148q-85 0 -155 23t-118 68q-56 -47 -132.5 -69t-174.5 -22h-346v249h346q61 0 97.5 11.5t55 28.5t24 38t5.5 41v324h248v-317q0 -45 20 -70.5t45.5 -38t50.5 -15t34 -2.5h148z" />
    <glyph glyph-name="onedot.below" 
d="M-180 -289l180 182l184 -184l-182 -182z" />
    <glyph glyph-name="twodots.below" 
d="M206 -461l-168 170l166 172l172 -172zM-213 -462l-168 170l165 172l172 -172z" />
    <glyph glyph-name="alef_alt.isol" horiz-adv-x="619" 
d="M434 -15h-249v1295h249v-1295z" />
    <glyph glyph-name="alef_alt.fina" horiz-adv-x="674" 
d="M693 -15q-79 0 -141 8.5t-111 25.5t-87 42.5t-69 60.5q-32 37 -52 81.5t-30.5 91t-14 94t-3.5 91.5v800h249v-800q0 -81 9 -127.5t29 -69.5q12 -12 29 -21.5t43 -15.5t62.5 -9t86.5 -3v-249z" />
    <glyph glyph-name="uni06D5" unicode="&#x6d5;" horiz-adv-x="1042" 
d="M519 -15q-96 0 -176.5 27.5t-138.5 78t-90.5 120.5t-32.5 155q0 84 21 150.5t56.5 124t83 110t100.5 108.5l-63 71l184 167q11 -13 26 -29t30.5 -33t30.5 -33t27 -29q72 -77 140.5 -149.5t122 -145t86.5 -145.5q31 -72 31 -148v-5q-1 -88 -35 -157.5t-99 -128.5
q-60 -51 -136.5 -80t-167.5 -29zM507 706q-40 -45 -75.5 -85t-61 -80t-38.5 -82q-12 -35 -12 -76q0 -8 1 -17q3 -37 22 -63.5t47 -44t62 -25.5t67 -8q38 0 73 11t61.5 31t42.5 49t16 64q0 43 -17 84t-45.5 81t-65.5 80t-77 81z" />
    <glyph glyph-name="heh_ae.fina" horiz-adv-x="1258" 
d="M1278 -15h-28q-78 0 -150 14.5t-133 44t-108.5 75.5t-77.5 109q-24 -37 -61.5 -65.5t-81.5 -47.5t-91 -28.5t-90 -9.5q-80 0 -151.5 28t-125.5 79.5t-85.5 125.5t-31.5 167q0 108 41 190t109 143.5t156.5 105t183.5 75.5l-24 96l244 57l182 -708q16 -65 52 -104.5
t78.5 -61t87 -29t77.5 -7.5h28v-249zM662 482q5 21 5 43q0 7 -1.5 24.5t-8.5 49.5t-18.5 69t-24.5 83q-160 -51 -242.5 -115.5t-82.5 -159.5q0 -37 16.5 -66t43 -48t59.5 -27q21 -6 42 -6q11 0 23 2q75 11 125 44.5t64 106.5z" />
    <glyph glyph-name="uni06C2" unicode="&#x6c2;" horiz-adv-x="1042" 
d="M519 -15q-96 0 -176.5 27.5t-138.5 78t-90.5 120.5t-32.5 155q0 84 21 150.5t56.5 124t83 110t100.5 108.5l-63 71l184 167q11 -13 26 -29t30.5 -33t30.5 -33t27 -29q72 -77 140.5 -149.5t122 -145t86.5 -145.5q31 -72 31 -148v-5q-1 -88 -35 -157.5t-99 -128.5
q-60 -51 -136.5 -80t-167.5 -29zM507 706q-40 -45 -75.5 -85t-61 -80t-38.5 -82q-12 -35 -12 -76q0 -8 1 -17q3 -37 22 -63.5t47 -44t62 -25.5t67 -8q38 0 73 11t61.5 31t42.5 49t16 64q0 43 -17 84t-45.5 81t-65.5 80t-77 81zM166 1148v149l124 40q-30 31 -49.5 70
t-19.5 83q0 34 12 67t33 61t49.5 49t60.5 30q17 5 34.5 7.5t34.5 2.5q36 0 63.5 -8.5t51.5 -17.5l17 -8l-30 -124q-14 3 -31 8t-34 8t-33.5 3.5t-29.5 -3.5q-14 -5 -27.5 -14t-22.5 -20.5t-12 -26.5q-2 -6 -2 -12q0 -10 4 -20q8 -26 37.5 -44t82.5 -18q10 0 21.5 1t30.5 5.5
t48.5 13t75.5 23.5l8 -141z" />
    <glyph glyph-name="uni06C3" unicode="&#x6c3;" horiz-adv-x="1042" 
d="M519 -15q-96 0 -176.5 27.5t-138.5 78t-90.5 120.5t-32.5 155q0 84 21 150.5t56.5 124t83 110t100.5 108.5l-63 71l184 167q11 -13 26 -29t30.5 -33t30.5 -33t27 -29q72 -77 140.5 -149.5t122 -145t86.5 -145.5q31 -72 31 -148v-5q-1 -88 -35 -157.5t-99 -128.5
q-60 -51 -136.5 -80t-167.5 -29zM507 706q-40 -45 -75.5 -85t-61 -80t-38.5 -82q-12 -35 -12 -76q0 -8 1 -17q3 -37 22 -63.5t47 -44t62 -25.5t67 -8q38 0 73 11t61.5 31t42.5 49t16 64q0 43 -17 84t-45.5 81t-65.5 80t-77 81zM652 1164l-168 170l166 172l172 -172z
M233 1163l-168 170l165 172l172 -172z" />
    <glyph glyph-name="uni06F0" unicode="&#x6f0;" horiz-adv-x="1083" 
d="M544 161q-84 0 -158 32.5t-129 88t-87 130t-32 158.5t32 158t87 129t129 87t158 32t158.5 -32t130 -87t88 -129t32.5 -158t-32.5 -158.5t-88 -130t-130 -88t-158.5 -32.5zM544 734q-34 0 -63.5 -13t-51.5 -35t-35 -52t-13 -64t13 -64.5t35 -53t51.5 -35.5t63.5 -13
t64.5 13t53 35.5t36 53t13.5 64.5t-13.5 64t-36 52t-53 35t-64.5 13z" />
    <glyph glyph-name="uni06F1" unicode="&#x6f1;" horiz-adv-x="624" 
d="M226 -14v40v48t0.5 49t1.5 44v-1q1 48 1.5 99.5t0.5 108.5q0 110 -2.5 228t-14.5 245.5t-37 264t-71 283.5l233 76q51 -163 79.5 -312.5t42 -286t16.5 -261.5t3 -240q0 -57 -0.5 -109.5t-1.5 -100.5q-1 -20 -1.5 -43.5t-0.5 -47.5v-46v-38h-249z" />
    <glyph glyph-name="uni06F2" unicode="&#x6f2;" horiz-adv-x="1149" 
d="M1011 1465q3 -9 13 -43t20 -81.5t18 -102t8 -104.5q0 -103 -34 -179t-88 -125.5t-122.5 -73.5t-137.5 -24q-68 0 -124.5 16.5t-105.5 44.5q9 -87 14 -173t7 -181.5t2.5 -206.5t-0.5 -248h-246v242q0 118 -3.5 249.5t-18.5 276.5t-46 304t-86 332l237 76l41 -122
q5 -15 16.5 -47.5t30.5 -73t45.5 -83t61.5 -78t78.5 -58t96.5 -22.5q12 0 34.5 4t45 19.5t39.5 46.5t17 84q0 31 -5 67.5t-12.5 71t-16 65t-15.5 51.5z" />
    <glyph glyph-name="uni06F3" unicode="&#x6f3;" horiz-adv-x="1459" 
d="M1317 1465q8 -35 17.5 -77t17 -88.5t12.5 -96t5 -99.5q0 -74 -18 -141t-56.5 -118t-98.5 -81t-144 -30q-30 0 -64.5 6t-69.5 20.5t-69.5 39t-65.5 62.5q-47 -58 -101.5 -86t-105.5 -40h1q-15 -4 -33 -5.5t-36 -1.5q-22 0 -46 3.5t-45 10.5q13 -154 15.5 -290.5
t2.5 -248.5v-218h-248v198q0 118 -2.5 265t-17 306.5t-44 322t-83.5 311.5l235 78q10 -34 19 -62t17 -57t16.5 -61t18.5 -74q10 -38 27 -79.5t39.5 -75.5t51 -56t62.5 -22q23 4 43 19t35 46t23.5 79t8.5 118v39.5t-0.5 36t-2.5 41.5t-5 57l246 22q12 -122 24 -208.5t29 -141
t43.5 -79.5t67.5 -25q33 0 58 30t25 84q0 40 -5 83t-12 83t-15 74t-15 56z" />
    <glyph glyph-name="uni06F9" unicode="&#x6f9;" horiz-adv-x="982" 
d="M716 -74q-21 57 -36.5 138.5t-26 177t-17.5 200.5t-10 208h-143q-75 0 -149 18.5t-133.5 62.5t-96.5 116.5t-37 180.5q0 105 30 186.5t84.5 138t129.5 86t165 29.5q99 0 173 -35.5t123 -98t73.5 -147.5t24.5 -185q0 -190 5.5 -350.5t15.5 -286.5t24 -215.5t32 -136.5z
M622 896q-1 29 -1 56v50q0 75 -17.5 119.5t-41.5 68t-48.5 30t-37.5 6.5q-38 0 -70 -12t-55.5 -36.5t-36.5 -62t-13 -87.5q0 -39 19 -64.5t47 -40.5t59.5 -21t56.5 -6h139z" />
    <glyph glyph-name="uni06F7" unicode="&#x6f7;" horiz-adv-x="1366" 
d="M1290 1340q-110 -130 -195.5 -298.5t-161.5 -387.5q-32 -92 -58 -185.5t-44.5 -181t-28.5 -166t-10 -138.5h-248q0 59 -10.5 137.5t-29.5 167t-45 182.5t-56 184q-75 211 -164 382t-195 300l193 163q65 -78 125 -181t114 -220.5t102 -243.5t90 -250q41 123 88.5 248.5
t101.5 243.5t114 221.5t127 182.5z" />
    <glyph glyph-name="uni06F8" unicode="&#x6f8;" horiz-adv-x="1376" 
d="M931 801q75 -218 173.5 -402.5t208.5 -317.5l-193 -160q-60 73 -118.5 170t-115.5 215.5t-112 256.5t-109 293q-42 -125 -93 -257t-109.5 -256.5t-121.5 -233t-129 -186.5l-195 158q53 62 105 144t101 175.5t93.5 195.5t82.5 205q28 87 54 175t45 170t30.5 154.5
t11.5 129.5h248q0 -61 10.5 -132t29 -151t45 -167t58.5 -179z" />
    <glyph glyph-name="uni06F4.urdu" horiz-adv-x="1133" 
d="M1107 1288q-41 -35 -72 -71t-60 -70q-26 -30 -54 -68.5t-56 -83.5t-53.5 -95t-44.5 -103l-165 -51q-20 97 -48.5 172.5t-65.5 128.5q-35 50 -68 79q-28 24 -55 24q-6 0 -11 -1q-23 -5 -32.5 -24t-9.5 -39q0 -44 28.5 -132t85.5 -209l89 -182q37 -80 64.5 -156t46.5 -144
t29 -126t11 -103l-208 -56q-15 103 -48.5 208t-74.5 202q-41 96 -82 189t-83 183q-15 33 -30 73.5t-27 84t-20 87.5t-8 84t7.5 78.5t24 73t43 64.5t63.5 53q23 15 67.5 28t94.5 13q52 0 105 -17t96 -60q32 -32 60 -82.5t52 -103.5q25 45 58.5 93.5t72 93t79 81t79.5 57.5z
" />
    <glyph glyph-name="uni06F7.urdu" horiz-adv-x="1007" 
d="M886 19q-19 -5 -40.5 -10t-38.5 -7q-30 -5 -71 -9t-86.5 -7t-93 -4.5t-91.5 -1.5q-23 0 -43.5 0.5t-41.5 2t-43 4t-49 5.5h1q-52 5 -98 13t-85 19q-11 51 -18 99.5t-7 95.5q0 101 36 202.5t99 207.5q20 34 44 72.5t56 85.5t75 105t100.5 131.5t132.5 164t171 202.5
l145 -168l-121 -151v1l-240 -311q-63 -84 -111 -160.5t-82.5 -140.5t-54.5 -113.5t-26 -80.5q63 -11 124.5 -17.5t117.5 -6.5q94 0 191.5 11.5t203.5 28.5v-244z" />
    <glyph glyph-name="Ghunna_above" 
d="M-66 1189q-89 0 -141 59.5t-52 170.5q0 60 9 109.5t29 97.5l86 -22q-9 -22 -15 -41.5t-9 -40t-4.5 -44t-1.5 -53.5q0 -152 118 -152h24q80 0 116.5 35t36.5 107v213h90v-207q0 -115 -57 -173.5t-181 -58.5h-48zM-56 1843h90v-333h-90v333z" />
    <glyph glyph-name="uni0651064B" 
d="M-220 1679q-92 0 -144.5 51.5t-52.5 142.5v108h115v-108q0 -42 19.5 -61t62.5 -19q6 0 17.5 2.5t22.5 10.5t19.5 24t8.5 43v108h116v-108q0 -42 19.5 -61.5t63.5 -19.5q6 0 17 3t21.5 11.5t18.5 24.5t8 42t-9.5 64t-20.5 79l109 37q3 -13 9 -32.5t12 -43.5t10.5 -50.5
t4.5 -53.5q0 -50 -16.5 -86.5t-42.5 -60.5t-58.5 -36t-64.5 -12q-43 0 -79 13t-61 35q-26 -24 -59 -35.5t-66 -11.5zM-379 2192l504 187v-138l-504 -189v140zM-379 2433l504 187v-137l-504 -189v139z" />
    <glyph glyph-name="uni0654064B" 
d="M-252 2144l504 187v-138l-504 -189v140zM-252 2385l504 187v-137l-504 -189v139zM-253 1453v149l124 40q-30 31 -49.5 70t-19.5 83q0 34 12 67t33 61t49.5 49t60.5 30q17 5 34.5 7.5t34.5 2.5q36 0 63.5 -8.5t51.5 -17.5l17 -8l-30 -124q-14 3 -31 8t-34 8t-33.5 3.5
t-29.5 -3.5q-14 -5 -27.5 -14t-22.5 -20.5t-12 -26.5q-2 -6 -2 -12q0 -10 4 -20q8 -26 37.5 -44t82.5 -18q10 0 21.5 1t30.5 5.5t48.5 13t75.5 23.5l8 -141z" />
    <glyph glyph-name="uni0654064E" 
d="M-252 2120l504 187v-138l-504 -189v140zM-237 1442v149l124 40q-30 31 -49.5 70t-19.5 83q0 34 12 67t33 61t49.5 49t60.5 30q17 5 34.5 7.5t34.5 2.5q36 0 63.5 -8.5t51.5 -17.5l17 -8l-30 -124q-14 3 -31 8t-34 8t-33.5 3.5t-29.5 -3.5q-14 -5 -27.5 -14t-22.5 -20.5
t-12 -26.5q-2 -6 -2 -12q0 -10 4 -20q8 -26 37.5 -44t82.5 -18q10 0 21.5 1t30.5 5.5t48.5 13t75.5 23.5l8 -141z" />
    <glyph glyph-name="uni0654064C" 
d="M-280 2166q4 9 10.5 21t12 26t9.5 29t4 29q0 8 -4 18.5t-7 17.5q-14 17 -35 17q-18 0 -39 -9.5t-35 -20.5l-72 71q3 4 15.5 17t32.5 26t47 23q24 8 53 8h7q37 -2 67.5 -22t48.5 -51q11 -21 16.5 -46.5t5.5 -48.5q0 -13 -1 -25t-3 -24q42 14 88.5 32.5t83.5 41.5
q-35 13 -63.5 33t-49 44t-31.5 51.5t-11 56.5q0 33 16 65q12 25 32 47.5t44 39t51.5 26t54.5 9.5q34 0 63 -14q55 -26 79.5 -75.5t24.5 -105.5q0 -48 -15.5 -97.5t-42.5 -90.5q-22 -32 -58 -59.5t-77.5 -49.5t-85 -38.5t-80 -28t-63 -17.5t-34.5 -7zM68 2552q-10 0 -23 -3.5
t-26 -9.5t-24.5 -15t-18.5 -20q0 -21 13.5 -39t33 -32t42 -24.5t40.5 -17.5q5 19 8 39.5t3 41.5q0 24 -7 44q-5 14 -15.5 25t-25.5 11zM-283 1480v149l124 40q-30 31 -49.5 70t-19.5 83q0 34 12 67t33 61t49.5 49t60.5 30q17 5 34.5 7.5t34.5 2.5q36 0 63.5 -8.5t51.5 -17.5
l17 -8l-30 -124q-14 3 -31 8t-34 8t-33.5 3.5t-29.5 -3.5q-14 -5 -27.5 -14t-22.5 -20.5t-12 -26.5q-2 -6 -2 -12q0 -10 4 -20q8 -26 37.5 -44t82.5 -18q10 0 21.5 1t30.5 5.5t48.5 13t75.5 23.5l8 -141z" />
    <glyph glyph-name="uni0654064F" 
d="M-298 2158q33 10 70.5 22.5t75 27.5t72.5 32.5t63 38.5q-37 12 -67.5 32t-52.5 46t-34.5 55.5t-12.5 61.5q0 33 13 62q12 25 32 48t44.5 40t52.5 27t56 10q36 0 67 -17q57 -31 81 -78.5t24 -103.5q0 -54 -19.5 -110t-53.5 -104q-33 -47 -86.5 -82.5t-109.5 -60.5
t-106 -40.5t-76 -23.5zM16 2542q-23 0 -51.5 -11.5t-41.5 -35.5q-2 -4 -2 -10q0 -8 7 -23t26.5 -34t46.5 -35t57 -20q6 15 10.5 38t4.5 47q0 31 -12.5 56t-45.5 28h1zM-283 1480v149l124 40q-30 31 -49.5 70t-19.5 83q0 34 12 67t33 61t49.5 49t60.5 30q17 5 34.5 7.5
t34.5 2.5q36 0 63.5 -8.5t51.5 -17.5l17 -8l-30 -124q-14 3 -31 8t-34 8t-33.5 3.5t-29.5 -3.5q-14 -5 -27.5 -14t-22.5 -20.5t-12 -26.5q-2 -6 -2 -12q0 -10 4 -20q8 -26 37.5 -44t82.5 -18q10 0 21.5 1t30.5 5.5t48.5 13t75.5 23.5l8 -141z" />
    <glyph glyph-name="uni06540652" 
d="M-25 2144q-54 0 -97 16t-74 45t-47.5 71t-16.5 95t16.5 96t47.5 73t74.5 46t96.5 16q51 0 95.5 -16t76.5 -46t50.5 -72.5t18.5 -94.5t-18 -95t-50 -73t-76 -46q-42 -15 -91 -15h-6zM-25 2271q22 0 41.5 6.5t34.5 19.5t23.5 31.5t8.5 42.5t-8.5 43.5t-23.5 33t-34.5 21
t-41.5 7.5q-45 0 -77.5 -28t-32.5 -77q0 -51 29.5 -75.5t80.5 -24.5zM-283 1480v149l124 40q-30 31 -49.5 70t-19.5 83q0 34 12 67t33 61t49.5 49t60.5 30q17 5 34.5 7.5t34.5 2.5q36 0 63.5 -8.5t51.5 -17.5l17 -8l-30 -124q-14 3 -31 8t-34 8t-33.5 3.5t-29.5 -3.5
q-14 -5 -27.5 -14t-22.5 -20.5t-12 -26.5q-2 -6 -2 -12q0 -10 4 -20q8 -26 37.5 -44t82.5 -18q10 0 21.5 1t30.5 5.5t48.5 13t75.5 23.5l8 -141z" />
    <glyph glyph-name="uni0655064D" 
d="M-248 -1000l504 187v-137l-504 -190v140zM-248 -759l504 188v-138l-504 -189v139zM-240 -651v149l124 40q-30 31 -49.5 70t-19.5 83q0 34 12 67t33 61t49.5 49t60.5 30q17 5 34.5 7.5t34.5 2.5q36 0 63.5 -8.5t51.5 -17.5l17 -8l-30 -124q-14 3 -31 8t-34 8t-33.5 3.5
t-29.5 -3.5q-14 -5 -27.5 -14t-22.5 -20.5t-12 -26.5q-2 -6 -2 -12q0 -10 4 -20q8 -26 37.5 -44t82.5 -18q10 0 21.5 1t30.5 5.5t48.5 13t75.5 23.5l8 -141z" />
    <glyph glyph-name="uni06550650" 
d="M-252 -761l504 188v-138l-504 -189v139zM-240 -651v149l124 40q-30 31 -49.5 70t-19.5 83q0 34 12 67t33 61t49.5 49t60.5 30q17 5 34.5 7.5t34.5 2.5q36 0 63.5 -8.5t51.5 -17.5l17 -8l-30 -124q-14 3 -31 8t-34 8t-33.5 3.5t-29.5 -3.5q-14 -5 -27.5 -14t-22.5 -20.5
t-12 -26.5q-2 -6 -2 -12q0 -10 4 -20q8 -26 37.5 -44t82.5 -18q10 0 21.5 1t30.5 5.5t48.5 13t75.5 23.5l8 -141z" />
    <glyph glyph-name="uni0692" unicode="&#x692;" horiz-adv-x="811" 
d="M743 46q-6 -138 -51 -248.5t-124 -188t-191 -119.5t-253 -42h-124v249h124q96 0 166 20t115 64t67 114.5t22 171.5v609h249v-630zM899 1281l-231 -413h-131l-234 413h171l126 -253l130 253h169z" />
    <glyph glyph-name="uni0695" unicode="&#x695;" horiz-adv-x="811" 
d="M743 46q-6 -138 -51 -248.5t-124 -188t-191 -119.5t-253 -42h-124v249h124q96 0 166 20t115 64t67 114.5t22 171.5v609h249v-630zM647 -679l-231 -413h-131l-234 413h171l126 -253l130 253h169z" />
    <glyph glyph-name="uni06A8" unicode="&#x6a8;" horiz-adv-x="1620" 
d="M709 -552q-80 0 -154.5 19t-140.5 54t-121 86t-95 115q-48 78 -74.5 165.5t-26.5 192.5q0 65 6.5 129t23 132t44.5 142t70 159l223 -106q-36 -73 -59 -134t-36.5 -115.5t-18.5 -105t-5 -102.5q0 -70 16 -122.5t48 -103.5q46 -75 124.5 -115.5t175.5 -40.5h75
q110 0 198 10t150 41t95.5 87.5t33.5 149.5h-143q-50 0 -102 8.5t-100 28t-90.5 51.5t-74 78.5t-50 108.5t-18.5 142q0 93 27.5 177t81.5 147.5t134 101.5t185 38q106 0 181.5 -39.5t123.5 -107t70.5 -156.5t22.5 -188v-360q0 -112 -23.5 -197.5t-68 -148.5t-108 -105.5
t-143 -68t-173.5 -36.5t-199 -11h-85zM1111 629q-85 0 -133.5 -57t-48.5 -170q0 -45 16.5 -76.5t43.5 -52t60.5 -30t68.5 -9.5h143v141q0 93 -17.5 144t-41.5 75.5t-49.5 29.5t-41.5 5zM1054 1106l-170 -172l-170 170l170 172zM1483 1110l-168 -170l-175 168l172 172z
M1262 1392l-160 -160l-158 158l160 160z" />
    <glyph glyph-name="uni06AA" unicode="&#x6aa;" horiz-adv-x="2306" 
d="M448 -15q-70 0 -138.5 24t-123 73t-88.5 124.5t-34 178.5q0 50 6.5 96.5t16.5 91.5t22.5 88.5t23.5 88.5l235 -74q-7 -22 -16.5 -58t-18 -76.5t-14.5 -82t-6 -74.5q0 -53 16.5 -83.5t39 -45.5t45 -18.5t34.5 -3.5h1518q-8 56 -27 99.5t-54.5 73.5t-91 45.5t-134.5 15.5
q-169 0 -298.5 1t-226.5 4.5t-165 11t-115.5 20t-78 31t-51.5 45.5q-20 25 -28 53t-8 57q0 21 4.5 41.5t9.5 40.5q33 113 141.5 219t299.5 206q100 51 203.5 93t230.5 80l76 -234l-105 -35q-17 -6 -47.5 -17.5t-69.5 -27.5t-84 -36.5t-91 -44.5q-60 -31 -112.5 -62
t-93.5 -61.5t-70 -60.5t-44 -58q21 -3 52.5 -5.5t79.5 -4.5q93 -5 236.5 -6t354.5 -1q348 0 486 -242q28 -51 43.5 -106t22.5 -106t8 -95t1 -73l-110 -110h-1662z" />
    <glyph glyph-name="uni06B5" unicode="&#x6b5;" horiz-adv-x="1407" 
d="M1402 2022l-231 -413h-131l-234 413h171l126 -253l130 253h169zM594 -568q-71 0 -136 16t-122 47t-105 74.5t-84 99.5q-15 24 -30.5 56.5t-27.5 73.5t-20 91t-8 109q0 49 5 100.5t19 109.5t39 125.5t65 150.5l225 -107q-30 -62 -50.5 -113.5t-32.5 -97t-17.5 -86.5
t-5.5 -83q0 -57 12.5 -106.5t37.5 -89.5l-1 1q38 -54 101.5 -88t135.5 -34h46q105 0 171.5 22t104 62t51 97t13.5 127v1438h246v-1438q0 -555 -586 -557h-46z" />
    <glyph glyph-name="uni06440675.isol" horiz-adv-x="1302" 
d="M120 -15v249h429q116 0 187 19.5t110 64.5t52 119t13 183v807h248v-807q0 -59 -4.5 -121t-17 -122.5t-36 -117t-60.5 -103.5q-73 -85 -194 -128t-298 -43h-429zM240 399l-65 989l247 29l66 -1018h-248zM448 1460v149l124 40q-30 31 -49.5 70t-19.5 83q0 34 12 67t33 61
t49.5 49t60.5 30q17 5 34.5 7.5t34.5 2.5q36 0 63.5 -8.5t51.5 -17.5l17 -8l-30 -124q-14 3 -31 8t-34 8t-33.5 3.5t-29.5 -3.5q-14 -5 -27.5 -14t-22.5 -20.5t-12 -26.5q-2 -6 -2 -12q0 -10 4 -20q8 -26 37.5 -44t82.5 -18q10 0 21.5 1t30.5 5.5t48.5 13t75.5 23.5l8 -141z
" />
    <glyph glyph-name="uni06440675.fina" horiz-adv-x="1340" 
d="M125 -14v249h429q116 0 187 19.5t110 64.5t52 119t13 183v806h248v-1035q0 -35 11 -64t30.5 -50t47 -32.5t60.5 -11.5h51v-249h-51q-99 0 -172 37.5t-129 106.5q-74 -69 -187 -106t-271 -37h-429zM240 399l-65 989l247 29l66 -1018h-248zM464 1470v149l124 40
q-30 31 -49.5 70t-19.5 83q0 34 12 67t33 61t49.5 49t60.5 30q17 5 34.5 7.5t34.5 2.5q36 0 63.5 -8.5t51.5 -17.5l17 -8l-30 -124q-14 3 -31 8t-34 8t-33.5 3.5t-29.5 -3.5q-14 -5 -27.5 -14t-22.5 -20.5t-12 -26.5q-2 -6 -2 -12q0 -10 4 -20q8 -26 37.5 -44t82.5 -18
q10 0 21.5 1t30.5 5.5t48.5 13t75.5 23.5l8 -141z" />
    <glyph glyph-name="uni06B50627.isol" horiz-adv-x="1302" 
d="M120 -15v249h429q116 0 187 19.5t110 64.5t52 119t13 183v807h248v-807q0 -59 -4.5 -121t-17 -122.5t-36 -117t-60.5 -103.5q-73 -85 -194 -128t-298 -43h-429zM240 399l-65 989l247 29l66 -1018h-248zM1335 1965l-231 -413h-131l-234 413h171l126 -253l130 253h169z" />
    <glyph glyph-name="uni06B50627.fina" horiz-adv-x="1340" 
d="M125 -14v249h429q116 0 187 19.5t110 64.5t52 119t13 183v806h248v-1035q0 -35 11 -64t30.5 -50t47 -32.5t60.5 -11.5h51v-249h-51q-99 0 -172 37.5t-129 106.5q-74 -69 -187 -106t-271 -37h-429zM240 399l-65 989l247 29l66 -1018h-248zM1345 1965l-231 -413h-131
l-234 413h171l126 -253l130 253h169z" />
    <glyph glyph-name="uni065A" unicode="&#x65a;" 
d="M299 1426l-231 -413h-131l-234 413h171l126 -253l130 253h169z" />
    <glyph glyph-name="uni065B" unicode="&#x65b;" 
d="M-278 1067l231 415h90l233 -415h-150l-126 255l-131 -255h-147z" />
    <glyph glyph-name="smallv.arabic" 
d="M299 1696l-231 -413h-131l-234 413h171l126 -253l130 253h169z" />
    <glyph glyph-name="circumflex.arabic" 
d="M-278 1284l231 415h90l233 -415h-150l-126 255l-131 -255h-147z" />
    <glyph glyph-name="uni06A4" unicode="&#x6a4;" horiz-adv-x="2127" 
d="M462 -15q-74 0 -140 25t-117 73q-20 19 -41.5 46t-38.5 64t-28 83.5t-11 104.5q0 50 10 108.5t22.5 110.5t23.5 90t14 47l119 -38l118 -37q-9 -27 -19 -64.5t-19 -77t-15 -76.5t-6 -64q0 -48 13.5 -77t33 -44.5t42.5 -20t41 -4.5h1005q84 0 141 9.5t92.5 24.5t53.5 33.5
t26 37.5q-73 -10 -137 -10q-54 0 -131 10.5t-151 56t-113.5 121.5t-39.5 182q0 84 31 158.5t86.5 130t131.5 87.5q66 27 145 27h20q81 -3 142 -28t106.5 -66t76 -95.5t49 -117.5t27 -131.5t9.5 -137.5l-4 -74q-8 -140 -56 -230.5t-124.5 -143t-174.5 -73t-206 -20.5h-1007z
M1622 853q-10 1 -19 1q-26 0 -55.5 -7.5t-55 -27.5t-41 -49.5t-15.5 -68.5q0 -87 92 -125q53 -23 133 -23q58 0 130 12q-2 43 -7 91t-22 90t-50 71.5t-90 35.5zM1473 1318l-170 -172l-170 170l170 172zM1902 1322l-168 -170l-175 168l172 172zM1681 1604l-160 -160l-158 158
l160 160z" />
    <glyph glyph-name="uni06C6" unicode="&#x6c6;" horiz-adv-x="1066" 
d="M220 -303q80 0 142.5 5.5t111 16t85 27t63.5 39.5q42 34 63.5 79t25.5 121h-154q-50 0 -102 8t-100 27.5t-90.5 50.5t-74 76.5t-50 107.5t-18.5 142q0 69 12 122.5t30.5 94.5t41.5 71.5t44 53.5q60 60 136 92.5t164 32.5q109 0 186.5 -37.5t127 -103.5t72.5 -156.5
t23 -196.5v-355q0 -149 -45 -250.5t-137 -174.5q-46 -36 -100 -62.5t-121 -44.5t-149.5 -26.5t-186.5 -8.5v249zM550 615q-85 0 -135 -53t-50 -165q0 -44 17.5 -75t45 -50.5t61.5 -28.5t68 -9h154v136q0 57 -9 97.5t-23.5 67.5t-33 43t-36 24t-33.5 10.5t-26 2.5zM831 1473
l-231 -413h-131l-234 413h171l126 -253l130 253h169z" />
    <glyph glyph-name="uni06CE" unicode="&#x6ce;" horiz-adv-x="1671" 
d="M940 -316q91 0 157.5 11.5t109.5 40t64.5 76.5t22.5 121q-14 4 -44.5 12t-72 19t-90 24t-98.5 26.5t-98.5 26t-89.5 22.5q-26 66 -38.5 128.5t-12.5 122.5q0 114 42 215.5t120 177t190.5 119.5t253.5 44q50 0 99.5 -8t112.5 -25l-63 -240q-47 14 -82 20.5t-72 6.5
q-75 0 -139.5 -21.5t-112 -62.5t-75 -100t-27.5 -134v-12.5t1 -12.5l351 -90q96 -24 139 -81.5t43 -142.5q0 -139 -32 -239.5t-102.5 -166t-183 -97t-273.5 -31.5h-211q-82 0 -157 19t-141 54.5t-121 86t-97 114.5q-99 160 -99 375q0 66 9 131t28.5 133.5t49.5 143.5t72 162
l222 -107q-35 -74 -59.5 -135.5t-41 -116t-24 -105t-7.5 -101.5q0 -145 64 -246q46 -76 125.5 -116.5t176.5 -40.5h211zM914 1222l-231 -413h-131l-234 413h171l126 -253l130 253h169z" />
    <glyph glyph-name="uni060D" unicode="&#x60d;" horiz-adv-x="690" 
d="M704 -16h-141q-45 0 -85 -22.5t-76 -72t-68 -129.5t-61 -194l-212 53q81 309 204 462t296 153h143v-250z" />
    <glyph glyph-name="patah.wide" horiz-adv-x="729" 
d="M0 257v222h729v-222h-729z" />
    <glyph glyph-name="uniFD3E" unicode="&#xfd3e;" horiz-adv-x="727" 
d="M627 1503l-15 -19q-15 -19 -38.5 -54.5t-53.5 -85.5t-61 -113q-28 -57 -57 -129.5t-53 -157.5t-39 -181t-15 -199t15 -198t39 -179.5t53 -156.5t57 -129q31 -63 60.5 -112.5t53 -84t38.5 -53.5l15 -19l-188 -158q-2 2 -19.5 24t-45 62t-61.5 97t-70 128q-83 167 -132 343
q-30 109 -45 218t-15 218t15 218.5t45 219.5q24 88 57 174t75 171q36 72 70.5 129t62 97.5t44.5 62.5t19 24z" />
    <glyph glyph-name="uniFD3F" unicode="&#xfd3f;" horiz-adv-x="727" 
d="M100 1503l189 157q2 -2 19 -24t44.5 -62.5t62 -97.5t70.5 -129q42 -85 75 -171t57 -174q30 -110 45 -219.5t15 -218.5t-15 -218t-45 -218q-49 -176 -132 -343q-36 -71 -70 -128t-61.5 -97t-45 -62t-19.5 -24l-188 158l15 19q15 19 38.5 53.5t53 84t60.5 112.5
q28 57 57 129t53 156.5t39 179.5t15 198t-15 199t-39 181t-53 157.5t-57 129.5q-31 63 -61 113t-53.5 85.5t-38.5 54.5z" />
    <glyph glyph-name="hah_alt.isol" horiz-adv-x="1475" 
d="M1351 575l-590 -243q-129 -49 -214.5 -84t-136 -69.5t-71 -73.5t-20.5 -95q0 -2 1 -19.5t2 -38.5t2 -39t1 -19q12 -127 54 -205t106 -120.5t148 -56.5t180 -14h461v-249h-461q-158 0 -286.5 30.5t-222.5 105t-150.5 198.5t-71.5 310q0 1 -1 18t-2 38t-2 38t-1 18
q0 123 48.5 209.5t131 149t191 107t229.5 82.5l401 132q-116 40 -235.5 78.5t-234.5 75.5q-21 7 -40.5 12.5t-37.5 5.5q-23 0 -41.5 -4.5t-33.5 -16t-27.5 -32.5t-24.5 -54l-229 69q19 60 47.5 112.5t68.5 91.5t92.5 61.5t119.5 22.5q55 0 120 -20q80 -26 146.5 -51.5
t132.5 -52.5q38 -15 79 -34t93 -41.5t117.5 -49.5t152.5 -58z" />
    <glyph glyph-name="hah_alt.fina" horiz-adv-x="1579" 
d="M944 358l-180 -74q-129 -49 -214.5 -84t-136 -69.5t-71 -73.5t-20.5 -95q0 -2 1 -19.5t2 -38.5t2 -39t1 -19q12 -127 54 -205t106 -120.5t148 -56.5t180 -14h461v-249h-461q-158 0 -286.5 30.5t-222.5 105t-150.5 198.5t-71.5 310q0 1 -1 18t-2 38t-2 38t-1 18
q0 123 48.5 209.5t131 149t191 107t229.5 82.5l401 132q-116 40 -235.5 78.5t-234.5 75.5q-21 7 -40.5 12.5t-37.5 5.5q-23 0 -41.5 -4.5t-33.5 -16t-27.5 -32.5t-24.5 -54l-229 69q19 60 47.5 112.5t68.5 91.5t92.5 61.5t119.5 22.5q55 0 120 -20q80 -26 146.5 -51.5
t132.5 -52.5q38 -15 79 -34t93 -41.5t117.5 -49.5t152.5 -58l9 -225l-103 -42l-62 -26q2 -30 10 -65q10 -42 31 -77.5t52.5 -59t74.5 -23.5h245v-249h-245q-76 0 -135.5 18t-105.5 48t-78.5 69t-53.5 82t-30 86q-9 36 -10 70z" />
    <glyph glyph-name="sareya" 
d="M93 1796q44 0 95 -14l-34 -128q-14 3 -29 5.5t-31 2.5q-21 0 -42 -5.5t-38 -20.5q-16 -13 -26 -31.5t-15 -41.5q52 -9 83 -14.5t50 -10.5q18 -5 29.5 -9t21.5 -11q35 -24 35 -66q0 -9 -0.5 -24t-4 -33t-11 -38.5t-20.5 -39.5q-63 -89 -213 -89h-110v133h110q30 0 50.5 4
t33 11.5t19 16.5t9.5 20q-13 3 -31 6t-43.5 7.5t-59 10t-78.5 13.5l-5 51q-1 14 -1 28q0 56 21.5 112t69.5 97q34 28 77 43t88 15z" />
    <glyph glyph-name="diagonal" horiz-adv-x="957" 
d="M96 1357l762 331l52 -112l-827 -361z" />
    <glyph glyph-name="uni25CC" unicode="&#x25cc;" horiz-adv-x="1217" 
d="M980 918q0 -50 -48 -50q-52 0 -52 50t52 50q48 0 48 -50zM832 1016q0 -49 -48 -49q-52 0 -52 49q0 51 52 51q48 0 48 -51zM1079 770q0 -51 -51 -51q-49 0 -49 51q0 49 51 49q49 0 49 -49zM1115 596q0 -50 -48 -50q-52 0 -52 50t52 50q48 0 48 -50zM658 1053
q0 -51 -50 -51t-50 51q0 49 50 49t50 -49zM485 1016q0 -49 -51 -49q-49 0 -49 49q0 51 49 51q51 0 51 -51zM1079 422q0 -49 -51 -49q-49 0 -49 49q0 51 49 51q51 0 51 -51zM337 918q0 -50 -50 -50t-50 47q0 53 50 53t50 -50zM980 272q0 -49 -48 -49q-52 0 -52 49q0 51 52 51
q48 0 48 -51zM832 174q0 -48 -48 -48q-52 0 -52 48q0 52 52 52q48 0 48 -52zM238 770q0 -51 -48 -51q-52 0 -52 51q0 49 50 49t50 -49zM202 592q0 -46 -48 -46q-52 0 -52 50t52 50q48 0 48 -46v-8zM658 141q0 -51 -50 -51t-50 51q0 49 50 49t50 -49zM238 422q0 -49 -50 -49
t-50 49q0 51 50 51t50 -51zM485 178q0 -52 -51 -52q-49 0 -49 48q0 52 49 52q51 0 51 -48zM337 272q0 -49 -50 -49t-50 49q0 51 50 51t50 -51z" />
    <glyph glyph-name="ZWSP" unicode="&#x200b;" 
 />
    <glyph glyph-name="uni200C" unicode="&#x200c;" 
d="M36 1667v-1484h-72v1484h72z" />
    <glyph glyph-name="uni200D" unicode="&#x200d;" 
d="M36 183h-72v1185l-134 -136l-49 49l171 169l-171 168l49 49l170 -171l170 171l49 -49l-171 -168l171 -169l-49 -49l-134 136v-1185z" />
    <glyph glyph-name="uni200E" unicode="&#x200e;" 
d="M430 1452l-217 -214l-49 49l137 130h-266v-1234h-71v1305h337l-137 130l49 49z" />
    <glyph glyph-name="uni200F" unicode="&#x200f;" 
d="M35 183h-71v1234h-266l137 -130l-49 -49l-217 214l217 215l49 -49l-137 -130h337v-1305z" />
    <glyph glyph-name="thin_hairSpace" unicode="&#x2009;" 
 />
    <glyph glyph-name="thin_hairSpace" unicode="&#x200a;" 
 />
    <glyph glyph-name="word_joiner" unicode="&#x2060;" 
 />
    <glyph glyph-name="line_seperator" unicode="&#x2028;" 
 />
    <glyph glyph-name="paragraph_seperator" unicode="&#x2029;" 
 />
    <glyph glyph-name="exclam" unicode="!" horiz-adv-x="590" 
d="M410 461h-224l-25 1103h275zM293 -145l-179 182l186 185l180 -185z" />
    <glyph glyph-name="quotedbl" unicode="&#x22;" horiz-adv-x="713" 
d="M295 1503l-37 -416h-150v563h187v-147zM619 1503l-38 -416h-149v563h187v-147z" />
    <glyph glyph-name="numbersign" unicode="#" horiz-adv-x="1343" 
d="M772 440h-240l-82 -440h-180l81 440h-248v170h280l63 336h-261v171h293l84 447h179l-84 -447h242l84 447h179l-83 -447h223v-171h-256l-62 -336h237v-170h-269l-82 -440h-179zM564 610h241l62 336h-241z" />
    <glyph glyph-name="dollar" unicode="$" horiz-adv-x="1250" 
d="M880 408q0 92 -58 151.5t-193.5 107t-210.5 88.5q-250 134 -250 398q0 178 108.5 293t293.5 136v235h172v-237q187 -27 289 -158.5t102 -341.5h-260q0 135 -60.5 213t-164.5 78q-103 0 -161 -56t-58 -160q0 -94 57.5 -150t195 -106.5t215.5 -93.5t132 -98.5t83 -127.5
t29 -169q0 -181 -111.5 -294t-309.5 -133v-210h-171v209q-213 23 -327.5 152t-114.5 342h261q0 -135 68.5 -209.5t192.5 -74.5q123 0 187 59t64 157z" />
    <glyph glyph-name="percent" unicode="%" horiz-adv-x="1616" 
d="M106 1263q0 142 91.5 233t239.5 91q151 0 241.5 -91t90.5 -238v-77q0 -141 -90.5 -231.5t-239.5 -90.5q-145 0 -239 89t-94 239v76zM289 1181q0 -75 41.5 -120.5t108.5 -45.5t108 45.5t41 124.5v78q0 74 -41.5 120.5t-108.5 46.5q-68 0 -108.5 -47t-40.5 -123v-79z
M858 383q0 144 93.5 233.5t238.5 89.5q146 0 239 -89.5t93 -240.5v-76q0 -140 -89.5 -230.5t-239.5 -90.5q-151 0 -243 89.5t-92 236.5v78zM1041 300q0 -73 42.5 -120t108.5 -47q69 0 108.5 44.5t39.5 125.5v80q0 76 -42 121t-108 45t-107.5 -45t-41.5 -125v-79zM493 117
l-134 77l764 1223l134 -77z" />
    <glyph glyph-name="ampersand" unicode="&#x26;" horiz-adv-x="1406" 
d="M92 422q0 109 59.5 199.5t233.5 215.5q-92 115 -128 195.5t-36 155.5q0 184 112 291t301 107q171 0 280 -100.5t109 -249.5q0 -97 -49.5 -179.5t-162.5 -163.5l-106 -78l302 -356q65 129 65 287h227q0 -289 -136 -474l230 -272h-303l-88 104q-167 -125 -399 -125
t-371.5 123t-139.5 320zM610 187q132 0 247 88l-341 403l-34 -24q-129 -98 -129 -223q0 -109 70 -176.5t187 -67.5zM466 1195q0 -91 111 -227l119 82l33 26q67 59 67 152q0 61 -46 104.5t-117 43.5q-77 0 -122 -51.5t-45 -129.5z" />
    <glyph glyph-name="quotesingle" unicode="'" horiz-adv-x="372" 
d="M287 1516l-28 -420h-171v554h199v-134z" />
    <glyph glyph-name="parenleft" unicode="(" horiz-adv-x="727" 
d="M627 1503l-15 -19q-15 -19 -38.5 -54.5t-53.5 -85.5t-61 -113q-28 -57 -57 -129.5t-53 -157.5t-39 -181t-15 -199t15 -198t39 -179.5t53 -156.5t57 -129q31 -63 60.5 -112.5t53 -84t38.5 -53.5l15 -19l-188 -158q-2 2 -19.5 24t-45 62t-61.5 97t-70 128q-83 167 -132 343
q-30 109 -45 218t-15 218t15 218.5t45 219.5q24 88 57 174t75 171q36 72 70.5 129t62 97.5t44.5 62.5t19 24z" />
    <glyph glyph-name="parenright" unicode=")" horiz-adv-x="727" 
d="M100 1503l189 157q2 -2 19 -24t44.5 -62.5t62 -97.5t70.5 -129q42 -85 75 -171t57 -174q30 -110 45 -219.5t15 -218.5t-15 -218t-45 -218q-49 -176 -132 -343q-36 -71 -70 -128t-61.5 -97t-45 -62t-19.5 -24l-188 158l15 19q15 19 38.5 53.5t53 84t60.5 112.5
q28 57 57 129t53 156.5t39 179.5t15 198t-15 199t-39 181t-53 157.5t-57 129.5q-31 63 -61 113t-53.5 85.5t-38.5 54.5z" />
    <glyph glyph-name="asterisk" unicode="*" horiz-adv-x="972" 
d="M357 1044l-328 95l59 181l325 -125l-17 369h193l-16 -376l319 124l58 -185l-333 -95l214 -285l-155 -114l-194 309l-191 -300l-157 110z" />
    <glyph glyph-name="plus" unicode="+" horiz-adv-x="1226" 
d="M737 860h408v-238h-408v-465h-254v465h-410v238h410v436h254v-436z" />
    <glyph glyph-name="comma" unicode="," horiz-adv-x="483" 
d="M171 -352l-141 83q62 98 85.5 170.5t24.5 147.5v203h235l-1 -188q-1 -113 -57.5 -227.5t-145.5 -188.5z" />
    <glyph glyph-name="hyphen" unicode="-" horiz-adv-x="722" 
d="M640 560h-564v210h564v-210z" />
    <glyph glyph-name="period" unicode="." horiz-adv-x="614" 
d="M295 294q79 0 121.5 -44t42.5 -110t-42.5 -109t-121.5 -43q-73 0 -117 42.5t-44 109.5q0 66 42.5 110t118.5 44z" />
    <glyph glyph-name="slash" unicode="/" horiz-adv-x="870" 
d="M207 -134h-205l616 1698h205z" />
    <glyph glyph-name="zero" unicode="0" horiz-adv-x="1250" 
d="M1137 658q0 -337 -126.5 -508t-384.5 -171q-253 0 -381.5 167t-131.5 494v271q0 337 126 506t385 169q257 0 383 -164.5t130 -492.5v-271zM875 951q0 220 -60 322.5t-191 102.5q-128 0 -188 -97t-63 -304v-354q0 -219 61 -326.5t192 -107.5q126 0 186 99.5t63 310.5v354z
" />
    <glyph glyph-name="one" unicode="1" horiz-adv-x="1250" 
d="M824 0h-260v1256l-384 -131v220l611 224h33v-1569z" />
    <glyph glyph-name="two" unicode="2" horiz-adv-x="1250" 
d="M1169 0h-1052v179l521 569q113 125 160.5 209.5t47.5 169.5q0 112 -62.5 180.5t-169.5 68.5q-126 0 -196 -77.5t-70 -211.5h-261q0 143 65 257.5t186 178t279 63.5q227 0 359 -114.5t132 -316.5q0 -117 -66.5 -245.5t-216.5 -291.5l-382 -410h726v-208z" />
    <glyph glyph-name="three" unicode="3" horiz-adv-x="1250" 
d="M419 901h159q120 1 190.5 62.5t70.5 177.5q0 112 -58.5 173.5t-178.5 61.5q-106 0 -173.5 -60.5t-67.5 -158.5h-261q0 120 64 219t178.5 154.5t255.5 55.5q235 0 368.5 -118t133.5 -327q0 -105 -67 -198t-174 -141q129 -44 196.5 -138.5t67.5 -225.5
q0 -210 -144.5 -334.5t-380.5 -124.5q-225 0 -369 120t-144 320h261q0 -103 69 -167.5t187 -64.5q121 0 191 64.5t70 186.5q0 124 -73 190.5t-217 66.5h-154v206z" />
    <glyph glyph-name="four" unicode="4" horiz-adv-x="1250" 
d="M1000 558h195v-210h-195v-348h-261v348h-676l-7 159l674 1057h270v-1006zM330 558h409v653l-19 -35z" />
    <glyph glyph-name="five" unicode="5" horiz-adv-x="1250" 
d="M187 776l85 788h840v-226h-623l-43 -373q108 62 245 62q223 0 347 -143t124 -384q0 -239 -137.5 -380t-376.5 -141q-215 0 -356.5 121.5t-152.5 321.5h252q15 -114 81.5 -174.5t174.5 -60.5q120 0 187 86t67 234q0 143 -74 226t-204 83q-71 0 -120.5 -18.5t-107.5 -73.5z
" />
    <glyph glyph-name="six" unicode="6" horiz-adv-x="1250" 
d="M929 1572v-216h-32q-219 -4 -350 -121t-156 -332q126 133 321 133q208 0 327.5 -146.5t119.5 -377.5q0 -238 -140 -385.5t-368 -147.5q-234 0 -379.5 172.5t-145.5 453.5v89q0 411 200 644.5t576 233.5h27zM649 825q-86 0 -157.5 -48.5t-104.5 -128.5v-80
q0 -174 73 -276.5t189 -102.5t183.5 87t67.5 229t-68.5 231t-182.5 89z" />
    <glyph glyph-name="seven" unicode="7" horiz-adv-x="1250" 
d="M1158 1419l-625 -1419h-274l624 1355h-809v209h1084v-145z" />
    <glyph glyph-name="eight" unicode="8" horiz-adv-x="1250" 
d="M1102 1152q0 -115 -59 -205t-161 -141q122 -57 188.5 -156t66.5 -224q0 -206 -140 -326.5t-372 -120.5q-233 0 -373 121t-140 326q0 126 66.5 226t186.5 154q-101 51 -159.5 141t-58.5 205q0 199 129 316.5t348 117.5q220 0 349 -117.5t129 -316.5zM875 439
q0 116 -69 187.5t-183 71.5t-182 -71t-68 -188q0 -115 67 -183.5t185 -68.5t184 66.5t66 185.5zM842 1142q0 102 -59 168t-159 66t-158 -63t-58 -171t58.5 -171t158.5 -63t158.5 63t58.5 171z" />
    <glyph glyph-name="nine" unicode="9" horiz-adv-x="1250" 
d="M857 654q-131 -138 -306 -138q-206 0 -328.5 144.5t-122.5 379.5q0 155 62.5 280.5t177 195.5t266.5 70q236 0 374.5 -176.5t138.5 -471.5v-73q0 -423 -191 -645.5t-570 -225.5h-31v215h37q231 4 354.5 112t138.5 333zM606 720q78 0 147 45t106 124v103
q0 172 -70.5 277.5t-183.5 105.5t-180 -93t-67 -235q0 -147 67.5 -237t180.5 -90z" />
    <glyph glyph-name="colon" unicode=":" horiz-adv-x="583" 
d="M291 275q73 0 113 -41.5t40 -103.5q0 -61 -40 -101.5t-113 -40.5q-70 0 -110.5 40t-40.5 102t39.5 103.5t111.5 41.5zM291 1087q73 0 113 -41.5t40 -103.5q0 -61 -40 -101.5t-113 -40.5q-70 0 -110.5 40t-40.5 102t39.5 103.5t111.5 41.5z" />
    <glyph glyph-name="semicolon" unicode=";" horiz-adv-x="523" 
d="M269 1087q73 0 112.5 -41.5t39.5 -103.5q0 -61 -39.5 -101.5t-112.5 -40.5q-70 0 -111 40t-41 102t40 103.5t112 41.5zM190 -352l-141 83q63 98 86 170.5t24 147.5v203h235l-1 -188q-1 -113 -57.5 -227.5t-145.5 -188.5z" />
    <glyph glyph-name="less" unicode="&#x3c;" horiz-adv-x="1118" 
d="M333 678l634 -241v-261l-899 401v207l899 400v-261z" />
    <glyph glyph-name="equal" unicode="=" horiz-adv-x="1231" 
d="M1082 838h-926v217h926v-217zM1082 382h-926v216h926v-216z" />
    <glyph glyph-name="greater" unicode="&#x3e;" horiz-adv-x="1145" 
d="M801 683l-663 244v257l928 -400v-207l-928 -400v257z" />
    <glyph glyph-name="question" unicode="?" horiz-adv-x="1070" 
d="M376 460q0 143 35.5 227.5t140 186t132.5 144.5q43 66 43 142q0 101 -50 154t-146 53q-93 0 -149.5 -52t-56.5 -141h-261q3 190 130 301t337 111q216 0 336.5 -110t120.5 -306q0 -175 -163 -345l-132 -130q-71 -81 -73 -235h-244zM358 126q0 63 39.5 102t107.5 39
q69 0 108.5 -40t39.5 -101q0 -59 -38.5 -99t-109.5 -40t-109 40t-38 99z" />
    <glyph glyph-name="at" unicode="@" horiz-adv-x="1968" 
d="M1870 556q-13 -268 -132 -423.5t-323 -155.5q-195 0 -260 166q-55 -82 -127.5 -122.5t-152.5 -40.5q-156 0 -237 129q-66 103 -66 263q0 39 4 81q17 175 85 316t173 217.5t223 76.5q90 0 159.5 -22.5t162.5 -93.5l-56 -604q-2 -26 -2 -49q0 -164 125 -164
q109 0 179.5 117.5t77.5 304.5q2 38 2 74q0 343 -163.5 543.5t-507.5 200.5q-210 0 -373 -105.5t-258.5 -304.5t-104.5 -454q-2 -38 -2 -75q0 -212 69 -385.5t223 -271t377 -97.5q90 0 188 21.5t167 57.5l41 -147q-65 -43 -176.5 -69.5t-224.5 -26.5q-272 0 -468 115.5
t-293 334.5q-90 203 -90 477q0 32 1 66q12 294 131.5 529t326.5 365t471 130q267 0 460 -118t289 -338q84 -194 84 -448q0 -34 -2 -70zM786 453q-4 -38 -4 -71q0 -94 35 -160t122 -66q58 0 109.5 51t83.5 140l49 530q-54 20 -105 20q-119 0 -194 -112.5t-96 -331.5z" />
    <glyph glyph-name="A" unicode="A" horiz-adv-x="1464" 
d="M1034 364h-605l-127 -364h-283l591 1564h244l592 -1564h-284zM505 583h453l-226 649z" />
    <glyph glyph-name="B" unicode="B" horiz-adv-x="1388" 
d="M159 0v1564h536q265 0 404 -106.5t139 -316.5q0 -108 -58.5 -193.5t-169.5 -133.5q127 -34 196 -129t69 -228q0 -221 -141 -339t-405 -118h-570zM431 706v-489h302q127 0 199 63.5t72 176.5q0 243 -249 249h-324zM431 906h266q127 0 198.5 57.5t71.5 162.5
q0 116 -66 167.5t-206 51.5h-264v-439z" />
    <glyph glyph-name="C" unicode="C" horiz-adv-x="1436" 
d="M1352 509q-23 -250 -184 -390t-429 -140q-187 0 -329.5 88.5t-219.5 251.5t-80 379v146q0 222 78 390.5t225 260t339 91.5q259 0 417 -141t183 -398h-270q-20 169 -99 243.5t-231 74.5q-177 0 -272 -129.5t-98 -379.5v-138q0 -254 91 -387t266 -133q160 0 240.5 72
t102.5 239h270z" />
    <glyph glyph-name="D" unicode="D" horiz-adv-x="1437" 
d="M159 0v1564h462q207 0 367.5 -92.5t249 -262t88.5 -388.5v-79q0 -222 -89 -390.5t-252.5 -260t-375.5 -91.5h-450zM431 1345v-1128h177q214 0 328.5 133.5t116.5 384.5v87q0 254 -111 388.5t-321 134.5h-190z" />
    <glyph glyph-name="E" unicode="E" horiz-adv-x="1244" 
d="M1073 698h-642v-481h751v-217h-1023v1564h1015v-219h-743v-432h642v-215z" />
    <glyph glyph-name="F" unicode="F" horiz-adv-x="1208" 
d="M1060 663h-629v-663h-272v1564h994v-219h-722v-465h629v-217z" />
    <glyph glyph-name="G" unicode="G" horiz-adv-x="1497" 
d="M1358 203q-85 -111 -235.5 -167.5t-341.5 -56.5q-197 0 -348.5 89t-233.5 255t-85 387v123q0 354 169.5 553.5t473.5 199.5q261 0 415 -129t185 -372h-267q-45 282 -327 282q-183 0 -278 -131.5t-98 -385.5v-121q0 -253 106.5 -393t297.5 -140q208 0 296 94v306h-322v206
h593v-599z" />
    <glyph glyph-name="H" unicode="H" horiz-adv-x="1563" 
d="M1401 0h-271v695h-699v-695h-272v1564h272v-651h699v651h271v-1564z" />
    <glyph glyph-name="I" unicode="I" horiz-adv-x="621" 
d="M446 0h-271v1564h271v-1564z" />
    <glyph glyph-name="J" unicode="J" horiz-adv-x="1221" 
d="M799 1564h271v-1097q0 -224 -140 -356t-370 -132q-245 0 -378.5 123.5t-133.5 343.5h271q0 -125 62 -187.5t179 -62.5q109 0 174 72.5t65 199.5v1096z" />
    <glyph glyph-name="K" unicode="K" horiz-adv-x="1387" 
d="M608 676l-177 -188v-488h-272v1564h272v-734l150 186l458 548h328l-581 -693l615 -871h-322z" />
    <glyph glyph-name="L" unicode="L" horiz-adv-x="1190" 
d="M431 217h710v-217h-982v1564h272v-1347z" />
    <glyph glyph-name="M" unicode="M" horiz-adv-x="1926" 
d="M511 1564l452 -1199l450 1199h351v-1564h-271v516l27 689l-462 -1205h-194l-461 1204l27 -688v-516h-271v1564h352z" />
    <glyph glyph-name="N" unicode="N" horiz-adv-x="1562" 
d="M1400 0h-272l-697 1110v-1110h-272v1564h272l699 -1114v1114h270v-1564z" />
    <glyph glyph-name="O" unicode="O" horiz-adv-x="1519" 
d="M1407 741q0 -230 -79.5 -403.5t-227 -266t-339.5 -92.5q-191 0 -339.5 92.5t-229.5 264.5t-82 397v88q0 229 81 404t228.5 268t339.5 93q191 0 338.5 -92t228 -264.5t81.5 -401.5v-87zM1135 823q0 260 -98 398.5t-279 138.5q-176 0 -275.5 -138t-101.5 -391v-90
q0 -258 100.5 -398.5t279.5 -140.5q180 0 277 137.5t97 401.5v82z" />
    <glyph glyph-name="P" unicode="P" horiz-adv-x="1406" 
d="M431 581v-581h-272v1564h598q262 0 416.5 -136.5t154.5 -360.5q0 -230 -151 -358t-423 -128h-323zM431 799h326q145 0 221.5 68.5t76.5 197.5q0 126 -77.5 202t-212.5 78h-334v-546z" />
    <glyph glyph-name="Q" unicode="Q" horiz-adv-x="1519" 
d="M1402 741q0 -222 -70.5 -385t-197.5 -258l269 -210l-176 -159l-333 263q-66 -13 -141 -13q-189 0 -338 92.5t-230 264.5t-82 397v88q0 229 81 404t229 268t338 93q193 0 341 -92t228.5 -264.5t81.5 -401.5v-87zM1129 823q0 264 -99 400.5t-279 136.5q-175 0 -274.5 -138
t-101.5 -389v-92q0 -253 99.5 -396t278.5 -143q182 0 279 137.5t97 401.5v82z" />
    <glyph glyph-name="R" unicode="R" horiz-adv-x="1373" 
d="M734 603h-303v-603h-272v1564h550q271 0 418 -121.5t147 -351.5q0 -156 -75.5 -262t-211.5 -163l351 -652v-14h-291zM431 821h279q138 0 215 69t77 190q0 125 -71.5 194t-212.5 71h-287v-524z" />
    <glyph glyph-name="S" unicode="S" horiz-adv-x="1328" 
d="M976 403q0 103 -72.5 159t-261.5 113t-300 126q-214 135 -214 351q0 189 154 311.5t400 122.5q163 0 291 -60.5t201 -171.5t73 -246h-271q0 122 -76.5 191.5t-219.5 69.5q-133 0 -206.5 -57t-73.5 -159q0 -86 79.5 -143.5t262 -112t293 -123.5t162 -159t51.5 -210
q0 -196 -149.5 -311t-406.5 -115q-170 0 -312.5 62.5t-221.5 173t-79 258.5h272q0 -134 88 -207t253 -73q142 0 213 57.5t71 152.5z" />
    <glyph glyph-name="T" unicode="T" horiz-adv-x="1335" 
d="M1289 1345h-488v-1345h-269v1345h-484v219h1241v-219z" />
    <glyph glyph-name="U" unicode="U" horiz-adv-x="1434" 
d="M1303 1564v-1045q0 -249 -159.5 -394.5t-424.5 -145.5q-269 0 -427 143t-158 398v1044h271v-1046q0 -157 79.5 -239.5t234.5 -82.5q313 0 313 330v1038h271z" />
    <glyph glyph-name="V" unicode="V" horiz-adv-x="1423" 
d="M710 341l398 1223h298l-563 -1564h-263l-561 1564h298z" />
    <glyph glyph-name="W" unicode="W" horiz-adv-x="1936" 
d="M1386 387l240 1177h270l-361 -1564h-260l-297 1142l-304 -1142h-261l-361 1564h269l243 -1175l299 1175h227z" />
    <glyph glyph-name="X" unicode="X" horiz-adv-x="1392" 
d="M697 999l329 565h314l-473 -776l483 -788h-317l-336 574l-337 -574h-316l485 788l-474 776h313z" />
    <glyph glyph-name="Y" unicode="Y" horiz-adv-x="1341" 
d="M669 823l360 741h301l-524 -988v-576h-273v576l-525 988h301z" />
    <glyph glyph-name="Z" unicode="Z" horiz-adv-x="1325" 
d="M415 217h835v-217h-1164v176l809 1169h-804v219h1134v-172z" />
    <glyph glyph-name="bracketleft" unicode="[" horiz-adv-x="603" 
d="M580 1598h-177v-1743h177v-203h-438v2151h438v-205z" />
    <glyph glyph-name="backslash" unicode="\" horiz-adv-x="920" 
d="M21 1564h258l653 -1698h-257z" />
    <glyph glyph-name="bracketright" unicode="]" horiz-adv-x="603" 
d="M13 1803h440v-2151h-440v203h179v1743h-179v205z" />
    <glyph glyph-name="asciicircum" unicode="^" horiz-adv-x="940" 
d="M469 1278l-191 -495h-221l321 781h184l320 -781h-220z" />
    <glyph glyph-name="underscore" unicode="_" horiz-adv-x="993" 
d="M988 -205h-985v205h985v-205z" />
    <glyph glyph-name="grave" unicode="`" horiz-adv-x="709" 
d="M560 1325h-217l-290 325h297z" />
    <glyph glyph-name="a" unicode="a" horiz-adv-x="1190" 
d="M828 0q-17 33 -30 108q-124 -129 -305 -129q-175 0 -285.5 99.5t-110.5 246.5q0 186 138 285.5t394 99.5h161v76q0 91 -50.5 145t-154.5 54q-89 0 -146 -44.5t-57 -113.5h-261q0 96 63.5 179t172.5 130.5t243 47.5q205 0 326 -102.5t125 -288.5v-524q0 -157 44 -251v-18
h-267zM541 188q78 0 146 37.5t103 101.5v219h-141q-145 0 -218 -50.5t-73 -143.5q0 -75 50 -119.5t133 -44.5z" />
    <glyph glyph-name="b" unicode="b" horiz-adv-x="1239" 
d="M1154 569q0 -270 -121 -430t-333 -160q-204 0 -318 147l-12 -126h-237v1650h261v-599q113 133 304 133q213 0 334.5 -158t121.5 -442v-15zM893 592q0 189 -67 283.5t-193 94.5q-170 0 -239 -148v-479q70 -152 241 -152q122 0 189 91.5t69 276.5v33z" />
    <glyph glyph-name="c" unicode="c" horiz-adv-x="1152" 
d="M611 187q98 0 162.5 57t68.5 141h246q-4 -109 -67.5 -203t-172 -148.5t-234.5 -54.5q-243 0 -386 157.5t-143 436.5v26q0 266 141.5 425.5t386.5 159.5q208 0 338.5 -121t136.5 -317h-246q-4 99 -68 163.5t-163 64.5q-127 0 -195.5 -91.5t-69.5 -278.5v-42
q0 -189 68 -282t197 -93z" />
    <glyph glyph-name="d" unicode="d" horiz-adv-x="1242" 
d="M85 590q0 268 124.5 431t334.5 163q184 0 298 -129v595h261v-1650h-236l-13 120q-117 -141 -313 -141q-204 0 -330 164t-126 447zM346 567q0 -177 68 -276.5t194 -99.5q160 0 234 143v496q-72 140 -232 140q-127 0 -195.5 -100.5t-68.5 -302.5z" />
    <glyph glyph-name="e" unicode="e" horiz-adv-x="1181" 
d="M646 -21q-249 0 -403 156t-154 416v32q0 174 67 311t188.5 213.5t271.5 76.5q237 0 366.5 -151.5t129.5 -428.5v-106h-760q12 -144 96.5 -227.5t212.5 -83.5q179 0 292 145l141 -134q-70 -105 -186.5 -162t-261.5 -57zM614 974q-107 0 -173 -75t-84 -209h497v19
q-9 131 -70 198t-170 67z" />
    <glyph glyph-name="f" unicode="f" horiz-adv-x="780" 
d="M226 0v969h-178v193h178v107q0 193 107 298.5t301 105.5q69 0 146 -20l-7 -204q-43 9 -99 9q-187 0 -187 -193v-103h236v-193h-236v-969h-261z" />
    <glyph glyph-name="g" unicode="g" horiz-adv-x="1247" 
d="M88 590q0 270 127.5 432t337.5 162q199 0 313 -139l12 117h235v-1127q0 -228 -142.5 -360.5t-383.5 -132.5q-128 0 -250 53.5t-186 139.5l124 157q120 -143 296 -143q130 0 205.5 70t75.5 207v78q-113 -125 -301 -125q-204 0 -333.5 162t-129.5 449zM348 567
q0 -175 71.5 -275.5t198.5 -100.5q158 0 234 136v511q-74 132 -232 132q-129 0 -200.5 -102t-71.5 -301z" />
    <glyph glyph-name="h" unicode="h" horiz-adv-x="1221" 
d="M391 1036q128 148 323 148q372 0 377 -425v-759h-261v750q0 120 -52 170t-153 50q-157 0 -234 -140v-830h-261v1650h261v-614z" />
    <glyph glyph-name="i" unicode="i" horiz-adv-x="562" 
d="M411 0h-261v1162h261v-1162zM134 1464q0 60 38.5 100t109.5 40q70 0 109 -40t39 -100q0 -59 -39 -98t-109 -39q-71 0 -109.5 39t-38.5 98z" />
    <glyph glyph-name="j" unicode="j" horiz-adv-x="551" 
d="M406 1162v-1265q0 -178 -88.5 -272t-259.5 -94q-72 0 -139 18v206q41 -10 93 -10q130 0 133 142v1275h261zM122 1464q0 60 38.5 100t109.5 40t109.5 -40t38.5 -100q0 -59 -38.5 -98t-109.5 -39t-109.5 39t-38.5 98z" />
    <glyph glyph-name="k" unicode="k" horiz-adv-x="1148" 
d="M511 498l-116 -119v-379h-261v1650h261v-952l82 102l321 362h314l-432 -484l478 -678h-302z" />
    <glyph glyph-name="l" unicode="l" horiz-adv-x="562" 
d="M411 0h-261v1650h261v-1650z" />
    <glyph glyph-name="m" unicode="m" horiz-adv-x="1914" 
d="M379 1162l8 -121q122 143 335 143q233 0 319 -179q127 179 357 179q192 0 286 -106.5t96 -313.5v-764h-261v756q0 111 -48.5 162.5t-159.5 51.5q-90 0 -146 -48t-79 -125l1 -797h-261v765q-5 205 -209 205q-157 0 -223 -128v-842h-261v1162h246z" />
    <glyph glyph-name="n" unicode="n" horiz-adv-x="1224" 
d="M376 1162l7 -134q129 156 339 156q363 0 369 -416v-768h-261v753q0 111 -47.5 164t-156.5 53q-158 0 -235 -143v-827h-261v1162h246z" />
    <glyph glyph-name="o" unicode="o" horiz-adv-x="1253" 
d="M85 592q0 171 67.5 308t190 210.5t281.5 73.5q235 0 382 -151.5t158 -401.5l2 -62q0 -172 -66.5 -307t-189.5 -209t-284 -74q-246 0 -393.5 163.5t-147.5 436.5v13zM346 569q0 -179 74 -280.5t206 -101.5t206 103t74 302q0 176 -76 279t-206 103q-128 0 -203 -101.5
t-75 -303.5z" />
    <glyph glyph-name="p" unicode="p" horiz-adv-x="1239" 
d="M1152 569q0 -269 -122.5 -429.5t-329.5 -160.5q-191 0 -306 125v-551h-261v1609h241l11 -118q115 140 312 140q213 0 334 -158.5t121 -440.5v-16zM892 592q0 174 -69.5 276t-198.5 102q-160 0 -230 -132v-516q71 -135 232 -135q125 0 195.5 100.5t70.5 304.5z" />
    <glyph glyph-name="q" unicode="q" horiz-adv-x="1249" 
d="M85 591q0 273 124.5 433t337.5 160q194 0 308 -137l15 115h232v-1609h-261v546q-114 -120 -296 -120q-209 0 -334.5 162.5t-125.5 449.5zM346 568q0 -178 70.5 -279.5t194.5 -101.5q155 0 230 132v529q-75 126 -228 126q-124 0 -195.5 -99.5t-71.5 -306.5z" />
    <glyph glyph-name="r" unicode="r" horiz-adv-x="773" 
d="M742 924q-51 8 -106 8q-179 0 -242 -137v-795h-261v1162h249l7 -130q94 152 262 152q56 0 92 -15z" />
    <glyph glyph-name="s" unicode="s" horiz-adv-x="1135" 
d="M785 316q0 70 -57.5 106.5t-190.5 64.5t-222 71q-196 94 -196 273q0 151 127 252t322 101q209 0 337 -103t128 -268h-261q0 75 -55.5 125t-148.5 50q-86 0 -140 -39.5t-54 -106.5q0 -60 50.5 -93.5t204 -67t241 -80.5t130 -112.5t42.5 -158.5q0 -157 -130 -254t-341 -97
q-142 0 -254 51.5t-174 141.5t-62 194h253q5 -92 69.5 -142t171.5 -50q103 0 156.5 39t53.5 103z" />
    <glyph glyph-name="t" unicode="t" horiz-adv-x="732" 
d="M461 1445v-283h205v-193h-205v-649q0 -66 26 -96t94 -30q45 0 91 11v-202q-89 -24 -171 -24q-301 0 -301 331v659h-191v193h191v283h261z" />
    <glyph glyph-name="u" unicode="u" horiz-adv-x="1222" 
d="M838 114q-115 -135 -327 -135q-189 0 -286 110.5t-97 319.5v753h261v-749q0 -222 184 -222q190 0 256 137v834h261v-1162h-246z" />
    <glyph glyph-name="v" unicode="v" horiz-adv-x="1088" 
d="M544 331l246 831h269l-403 -1162h-226l-406 1162h270z" />
    <glyph glyph-name="w" unicode="w" horiz-adv-x="1635" 
d="M1155 360l185 802h254l-317 -1162h-215l-249 798l-245 -798h-215l-318 1162h255l188 -794l239 794h196z" />
    <glyph glyph-name="x" unicode="x" horiz-adv-x="1106" 
d="M551 780l221 382h290l-355 -572l367 -590h-288l-232 397l-231 -397h-290l368 590l-355 572h288z" />
    <glyph glyph-name="y" unicode="y" horiz-adv-x="1071" 
d="M540 374l237 788h278l-462 -1338q-106 -293 -361 -293q-57 0 -126 19v202l50 -3q99 0 148.5 36t78.5 120l38 100l-408 1157h281z" />
    <glyph glyph-name="z" unicode="z" horiz-adv-x="1106" 
d="M413 208h618v-208h-943v171l590 781h-579v210h910v-165z" />
    <glyph glyph-name="braceleft" unicode="{" horiz-adv-x="738" 
d="M654 -387q-379 107 -387 485v229q0 241 -207 241v191q207 0 207 243v228q4 193 101 312.5t286 173.5l52 -151q-186 -60 -193 -329v-232q0 -241 -185 -339q185 -99 185 -343v-229q7 -268 193 -328z" />
    <glyph glyph-name="bar" unicode="|" horiz-adv-x="552" 
d="M366 -290h-179v1854h179v-1854z" />
    <glyph glyph-name="braceright" unicode="}" horiz-adv-x="738" 
d="M29 -235q189 61 193 335v223q0 248 196 341q-196 92 -196 344v222q-4 274 -193 335l52 151q195 -55 290.5 -178t95.5 -322v-215q0 -242 209 -242v-191q-209 0 -209 -241v-212q0 -201 -96 -324t-290 -178z" />
    <glyph glyph-name="asciitilde" unicode="~" horiz-adv-x="1462" 
d="M1336 844q0 -189 -102 -308.5t-254 -119.5q-80 0 -147 30t-150 103.5t-118.5 91t-76.5 17.5q-72 0 -113.5 -55.5t-41.5 -145.5h-207q0 183 97.5 300.5t256.5 117.5q80 0 151.5 -31.5t149 -102.5t113.5 -89t78 -18q72 0 117 60t45 150h202z" />
    <glyph glyph-name="exclamdown" unicode="&#xa1;" horiz-adv-x="582" 
d="M183 711h224l26 -1102h-276zM439 1043q0 -60 -38.5 -100.5t-108.5 -40.5q-71 0 -109.5 40.5t-38.5 100.5q0 59 38.5 99.5t109.5 40.5q70 0 108.5 -40.5t38.5 -99.5z" />
    <glyph glyph-name="cent" unicode="&#xa2;" horiz-adv-x="1234" 
d="M635 187q95 0 159.5 56t71.5 142h245q-5 -147 -110.5 -257t-262.5 -140v-251h-215v251q-196 37 -306 191t-110 390v30q0 229 110 384t306 191v242h215v-241q170 -30 269 -146t104 -283h-245q-8 103 -71 165.5t-161 62.5q-247 0 -264 -335l-2 -77q0 -189 68.5 -282
t198.5 -93z" />
    <glyph glyph-name="sterling" unicode="&#xa3;" horiz-adv-x="1294" 
d="M547 642l7 -189q0 -145 -68 -236h747l-1 -217h-1127v217h88q42 10 65 69.5t23 157.5l-7 198h-173v214h166l-8 260q0 217 134 342.5t353 125.5q218 0 342.5 -117t124.5 -314h-263q0 102 -56.5 158t-157.5 56q-96 0 -151 -69.5t-55 -181.5l9 -260h334v-214h-326z" />
    <glyph glyph-name="currency" unicode="&#xa4;" horiz-adv-x="1544" 
d="M1166 115q-171 -136 -389 -136q-217 0 -387 135l-139 -142l-151 155l145 147q-107 168 -107 379q0 215 117 392l-155 158l151 155l153 -156q166 124 373 124q208 0 375 -126l155 159l153 -156l-159 -162q115 -171 115 -388q0 -207 -105 -375l149 -151l-153 -156zM336 653
q0 -129 59 -239.5t161 -173.5t221 -63q118 0 220 63.5t160.5 174t58.5 238.5t-58.5 237.5t-160 172.5t-220.5 63q-120 0 -222 -63t-160.5 -172.5t-58.5 -237.5z" />
    <glyph glyph-name="yen" unicode="&#xa5;" horiz-adv-x="1341" 
d="M667 881l338 683h301l-422 -767h289v-163h-375v-148h375v-163h-375v-323h-271v323h-380v163h380v148h-380v163h302l-422 767h302z" />
    <glyph glyph-name="brokenbar" unicode="&#xa6;" horiz-adv-x="546" 
d="M146 -290v854h246v-854h-246zM392 750h-246v814h246v-814z" />
    <glyph glyph-name="section" unicode="&#xa7;" horiz-adv-x="1366" 
d="M1250 489q0 -198 -183 -293q145 -108 145 -307q0 -185 -145 -291.5t-397 -106.5q-264 0 -418.5 116.5t-154.5 338.5l260 1q0 -118 83.5 -182.5t229.5 -64.5q130 0 206 51t76 136q0 83 -72 132t-273 108q-202 55 -304 114t-152 141.5t-50 199.5q0 198 182 295
q-70 53 -106.5 126t-36.5 181q0 182 147.5 292t394.5 110q258 0 402 -121t144 -340h-261q0 114 -78 182.5t-207 68.5q-132 0 -206.5 -51t-74.5 -139q0 -90 64.5 -137t272 -102.5t312 -116.5t152.5 -143t48 -198zM646 723q-87 23 -169 53q-116 -43 -116 -177q0 -87 53 -133
t213 -96l193 -57l49 -18q124 51 124 177q0 87 -73.5 139t-273.5 112z" />
    <glyph glyph-name="dieresis" unicode="&#xa8;" horiz-adv-x="968" 
d="M100 1467q0 54 36 90.5t100 36.5q63 0 99.5 -36.5t36.5 -89.5q0 -54 -36.5 -90.5t-99.5 -36.5q-64 0 -100 36.5t-36 89.5zM590 1466q0 54 36.5 90.5t100.5 36.5q63 0 99.5 -36.5t36.5 -89.5q0 -54 -36.5 -90.5t-99.5 -36.5q-64 0 -100.5 36.5t-36.5 89.5z" />
    <glyph glyph-name="copyright" unicode="&#xa9;" horiz-adv-x="1723" 
d="M1201 640q0 -163 -94 -250t-266 -87t-273.5 114.5t-101.5 307.5v121q0 187 102.5 301.5t272.5 114.5q175 0 268 -88.5t93 -248.5h-168q0 103 -49 147.5t-144 44.5q-99 0 -154 -73t-55 -200v-125q0 -127 55.5 -199t153.5 -72q96 0 144 43.5t48 148.5h168zM1487 783
q0 178 -80.5 331.5t-228 245t-322.5 91.5q-171 0 -317.5 -88t-230 -242.5t-83.5 -337.5t83 -337.5t229.5 -244t318.5 -89.5t319.5 91t229.5 246t82 334zM93 783q0 217 100.5 403t278.5 293t384 107t383.5 -107t278 -293t100.5 -403t-100.5 -403t-276.5 -293.5t-385 -107.5
q-207 0 -384 107t-278 293t-101 404z" />
    <glyph glyph-name="ordfeminine" unicode="&#xaa;" horiz-adv-x="981" 
d="M653 757l-18 73q-83 -88 -216 -88q-127 0 -197.5 66t-70.5 179q0 118 90.5 183t276.5 65h109v55q0 137 -124 137q-70 0 -109.5 -27.5t-39.5 -79.5l-185 15q0 112 94 181.5t240 69.5q147 0 229.5 -78t82.5 -220v-339q0 -105 28 -192h-190zM465 897q43 0 88 19.5t74 46.5
v147h-114q-81 -1 -127.5 -33.5t-46.5 -84.5q0 -95 126 -95z" />
    <glyph glyph-name="guillemotleft" unicode="&#xab;" horiz-adv-x="865" 
d="M464 1002q0 -1 -23.5 -33.5t-52 -90t-51.5 -134.5t-23 -166q0 -47 7 -90.5t18.5 -82t24.5 -71.5t26 -58q28 -56 50.5 -87t23.5 -32l-139 -116q-2 2 -17 22t-36 54t-45 81.5t-44.5 106.5t-34 128t-13.5 145t13.5 145.5t34 128t44.5 106.5t45 83t36 54.5t17 22.5zM756 255
l-139 -116q-2 4 -27 37.5t-53.5 92t-52 137t-23.5 172.5q0 93 23.5 173t52 139t53.5 92.5t27 36.5l139 -115q-3 -4 -18 -26q-18 -25 -39.5 -68.5t-39.5 -103t-18 -128.5t18 -127.5t39.5 -102t39.5 -68.5z" />
    <glyph glyph-name="logicalnot" unicode="&#xac;" horiz-adv-x="1217" 
d="M1033 402h-214v279h-683v184h897v-463z" />
    <glyph glyph-name="softhyphen" unicode="&#xad;" horiz-adv-x="722" 
d="M640 560h-564v210h564v-210z" />
    <glyph glyph-name="registered" unicode="&#xae;" horiz-adv-x="1723" 
d="M93 783q0 217 100.5 403t278.5 293t384 107t383.5 -107t278 -293t100.5 -403t-100.5 -403t-276.5 -293.5t-385 -107.5q-207 0 -384 107t-278 293t-101 404zM1487 783q0 178 -80.5 331.5t-228 245t-322.5 91.5q-171 0 -317.5 -88t-230 -242.5t-83.5 -337.5t83 -337.5
t229.5 -244t318.5 -89.5t319.5 91t229.5 246t82 334zM701 701v-362h-162v914h302q164 0 256.5 -72.5t92.5 -207.5q0 -125 -129 -193q70 -31 98 -91t28 -147.5t4 -124t14 -60.5v-18h-166q-14 37 -14 209q0 81 -35.5 117t-118.5 36h-170zM701 845h154q74 0 124 33.5t50 91.5
q0 75 -38 107t-138 33h-152v-265z" />
    <glyph glyph-name="macron" unicode="&#xaf;" horiz-adv-x="1060" 
d="M926 1394h-781v170h781v-170z" />
    <glyph glyph-name="degree" unicode="&#xb0;" horiz-adv-x="836" 
d="M420 1586q114 0 196.5 -85t82.5 -203q0 -119 -81.5 -202t-197.5 -83q-117 0 -200.5 83t-83.5 202q0 118 84.5 203t199.5 85zM420 1164q57 0 94 38.5t37 95.5q0 56 -37 96.5t-94 40.5t-95.5 -40.5t-38.5 -96.5t39 -95t95 -39z" />
    <glyph glyph-name="plusminus" unicode="&#xb1;" horiz-adv-x="1179" 
d="M718 966h368v-214h-368v-417h-232v417h-384v214h384v405h232v-405zM1046 1h-912v211h912v-211z" />
    <glyph glyph-name="twosuperior" unicode="&#xb2;" horiz-adv-x="814" 
d="M741 717h-657v134l306 280q121 111 121 183q0 45 -29 73.5t-85 28.5q-62 0 -97.5 -35.5t-35.5 -93.5h-200q0 125 91 207t236 82q154 0 237.5 -69t83.5 -192q0 -115 -114 -225l-105 -93l-150 -122h398v-158z" />
    <glyph glyph-name="threesuperior" unicode="&#xb3;" horiz-adv-x="814" 
d="M288 1216h87q142 0 142 104q0 38 -29 66.5t-96 28.5q-51 0 -86 -21t-35 -59h-200q0 107 88.5 173.5t228.5 66.5q153 0 241 -65t88 -178q0 -128 -146 -183q161 -44 161 -196q0 -114 -95.5 -181.5t-248.5 -67.5q-145 0 -237 68t-92 189h200q0 -40 37 -68.5t101 -28.5
q68 0 101 29.5t33 74.5q0 108 -144 109h-99v139z" />
    <glyph glyph-name="acute" unicode="&#xb4;" horiz-adv-x="717" 
d="M330 1650h297l-297 -325h-210z" />
    <glyph glyph-name="mu" unicode="&#xb5;" horiz-adv-x="1301" 
d="M417 1162v-683q2 -151 50 -221t161 -70q181 0 244 130v844h261v-1162h-239l-8 92q-99 -115 -257 -115q-129 0 -212 60v-484h-260v1609h260z" />
    <glyph glyph-name="paragraph" unicode="&#xb6;" horiz-adv-x="1080" 
d="M692 0v559h-86q-247 0 -389.5 136t-142.5 366q0 229 143 366t390 137h310v-1564h-225z" />
    <glyph glyph-name="periodcentered" unicode="&#xb7;" horiz-adv-x="621" 
d="M153 767q0 62 39.5 104t111.5 42t112.5 -42t40.5 -104q0 -63 -42 -103t-111 -40q-70 0 -110.5 40t-40.5 103z" />
    <glyph glyph-name="cedilla" unicode="&#xb8;" horiz-adv-x="567" 
d="M342 3l-12 -58q161 -29 161 -186q0 -112 -92.5 -175.5t-258.5 -63.5l-8 147q71 0 109 25t38 71q0 48 -38 67t-124 24l34 149h191z" />
    <glyph glyph-name="onesuperior" unicode="&#xb9;" horiz-adv-x="814" 
d="M552 722h-199v612l-215 -51v156l394 128h20v-845z" />
    <glyph glyph-name="ordmasculine" unicode="&#xba;" horiz-adv-x="1004" 
d="M128 1204q0 172 102.5 277t269.5 105q166 0 269 -104.5t103 -282.5v-78q0 -170 -101 -275t-269 -105q-170 0 -272 105.5t-102 280.5v77zM316 1121q0 -105 50 -164t136 -59q83 0 132 58t50 162v86q0 104 -50 163.5t-134 59.5t-134 -59t-50 -168v-79z" />
    <glyph glyph-name="guillemotright" unicode="&#xbb;" horiz-adv-x="898" 
d="M436 1002l139 116q2 -3 17 -22.5t36 -54.5t45 -83t44.5 -106.5t34.5 -128t14 -145.5t-14 -145t-34.5 -128t-44.5 -106.5t-45 -81.5t-36 -54t-17 -22l-139 116q1 1 24 32t50 87q13 25 26.5 58t24.5 71.5t18 82t7 90.5q0 89 -23 166t-51 134.5t-52 90t-24 33.5zM145 255
q2 3 17 25q19 25 40.5 68.5t39 102t17.5 127.5t-17.5 128.5t-39 103t-40.5 68.5q-15 22 -17 26l138 115q2 -3 27 -36.5t53.5 -92.5t52 -139t23.5 -173q0 -94 -23.5 -172.5t-52 -137t-53.5 -92t-27 -37.5z" />
    <glyph glyph-name="onequarter" unicode="&#xbc;" horiz-adv-x="1598" 
d="M510 713h-198v613l-216 -52v157l394 128h20v-846zM487 126l-135 77l764 1222l134 -77zM1414 337h102v-162h-102v-175h-201v175h-385l-9 130l392 543h203v-511zM1013 337h200v260l-15 -23z" />
    </font>
</defs>
</svg>
