<?xml version="1.0" standalone="no"?>
<!DOCTYPE svg PUBLIC "-//W3C//DTD SVG 1.1//EN" "http://www.w3.org/Graphics/SVG/1.1/DTD/svg11.dtd" >
<svg xmlns="http://www.w3.org/2000/svg" xmlns:xlink="http://www.w3.org/1999/xlink" version="1.1">
<metadata>
Created by FontForge 20161003 at Sun Dec 16 22:19:23 2018
 By www-data
Copyright (c) 2019 by fontiran.com. All rights reserved.
</metadata>
<defs>
<font id="IRANYekanWeb-Black" horiz-adv-x="0" >
  <font-face 
    font-family="IRANYekanWeb Black"
    font-weight="900"
    font-stretch="normal"
    units-per-em="2200"
    panose-1="2 11 5 6 3 8 4 2 2 4"
    ascent="1760"
    descent="-440"
    x-height="1192"
    cap-height="1540"
    bbox="-523 -1295 3383 2833"
    underline-thickness="100"
    underline-position="-850"
    unicode-range="U+001D-FEFF"
  />
<missing-glyph horiz-adv-x="1229" 
d="M102 -362v1806h1024v-1806h-1024zM217 -248h795v1577h-795v-1577z" />
    <glyph glyph-name="uni06440627.isol" unicode="&#xfedf;&#xfe8e;" horiz-adv-x="1339" arabic-form="isolated" 
d="M1238 1428v-685q0 -86 -4.5 -183.5t-27 -192t-73.5 -176.5q-86 -131 -239 -195q-137 -58 -343 -58h-431v456h431q104 0 160.5 15t81.5 53t30 106t5 175v685h410zM517 1413l68 -907l-409 -31l-68 908z" />
    <glyph glyph-name="uni06440627.fina" unicode="&#xfee0;&#xfe8e;" horiz-adv-x="1340" arabic-form="final" 
d="M522 1413l68 -907l-408 -31l-68 908zM1243 1428v-919q0 -59 16 -86.5t73 -27.5h32v-458h-32q-112 0 -207 39q-68 29 -122 75q-47 -33 -103 -56q-138 -58 -344 -58h-431v457h431q104 0 161 15t82 53t30 106t5 175v685h409z" />
    <glyph glyph-name="uni06440623.isol" unicode="&#xfedf;&#xfe84;" horiz-adv-x="1339" arabic-form="isolated" 
d="M1238 1428v-685q0 -86 -4.5 -183.5t-27 -192t-73.5 -176.5q-86 -131 -239 -195q-137 -58 -343 -58h-431v456h431q104 0 160.5 15t81.5 53t30 106t5 175v685h410zM517 1413l68 -907l-409 -31l-68 908zM508 1634l-499 -164v160l115 37q-30 31 -47 68.5t-17 81.5
q0 68 46.5 129.5t112.5 82.5q34 10 70 10q38 0 70.5 -10t63.5 -23l-32 -133q-60 17 -101 17q-14 0 -25 -3q-23 -7 -41.5 -25.5t-18.5 -42.5q0 -9 3 -19q7 -25 35.5 -41.5t79.5 -16.5q13 0 29.5 2.5t50.5 11.5t97 30z" />
    <glyph glyph-name="uni06440623.fina" unicode="&#xfee0;&#xfe84;" horiz-adv-x="1340" arabic-form="final" 
d="M522 1413l68 -907l-408 -31l-68 908zM1243 1428v-919q0 -59 16 -86.5t73 -27.5h32v-458h-32q-112 0 -207 39q-68 29 -122 75q-47 -33 -103 -56q-138 -58 -344 -58h-431v457h431q104 0 161 15t82 53t30 106t5 175v685h409zM511 1636l-499 -164v160l115 37q-30 31 -47 68.5
t-17 81.5q0 68 46.5 129.5t112.5 82.5q34 10 70 10q38 0 70.5 -10t63.5 -23l-32 -133q-60 17 -101 17q-14 0 -25 -3q-23 -7 -41.5 -25.5t-18.5 -42.5q0 -9 3 -19q7 -25 35.5 -41.5t79.5 -16.5q13 0 29.5 2.5t50.5 11.5t97 30z" />
    <glyph glyph-name="uni06440625.isol" unicode="&#xfedf;&#xfe88;" horiz-adv-x="1339" arabic-form="isolated" 
d="M1238 1428v-685q0 -86 -4.5 -183.5t-27 -192t-73.5 -176.5q-86 -131 -239 -195q-137 -58 -343 -58h-431v456h431q104 0 160.5 15t81.5 53t30 106t5 175v685h410zM517 1413l68 -907l-409 -31l-68 908zM695 -517l-499 -164v160l115 37q-30 31 -47 68.5t-17 81.5
q0 68 46.5 129.5t112.5 82.5q34 10 70 10q38 0 70.5 -10t63.5 -23l-32 -133q-60 17 -101 17q-14 0 -25 -3q-23 -7 -41.5 -25.5t-18.5 -42.5q0 -9 3 -19q7 -25 35.5 -41.5t79.5 -16.5q13 0 29.5 2.5t50.5 11.5t97 30z" />
    <glyph glyph-name="uni06440625.fina" unicode="&#xfee0;&#xfe88;" horiz-adv-x="1340" arabic-form="final" 
d="M522 1413l68 -907l-408 -31l-68 908zM1243 1428v-919q0 -59 16 -86.5t73 -27.5h32v-458h-32q-112 0 -207 39q-68 29 -122 75q-47 -33 -103 -56q-138 -58 -344 -58h-431v457h431q104 0 161 15t82 53t30 106t5 175v685h409zM700 -526l-499 -164v160l115 37q-30 31 -47 68.5
t-17 81.5q0 68 46.5 129.5t112.5 82.5q34 10 70 10q38 0 70.5 -10t63.5 -23l-32 -133q-60 17 -101 17q-14 0 -25 -3q-23 -7 -41.5 -25.5t-18.5 -42.5q0 -9 3 -19q7 -25 35.5 -41.5t79.5 -16.5q13 0 29.5 2.5t50.5 11.5t97 30z" />
    <glyph glyph-name="uni06440622.isol" unicode="&#xfedf;&#xfe82;" horiz-adv-x="1478" arabic-form="isolated" 
d="M1377 1428v-685q0 -86 -4.5 -183.5t-27 -192t-73.5 -176.5q-86 -131 -239 -195q-137 -58 -343 -58h-431v456h431q104 0 160.5 15t81.5 53t30 106t5 175v685h410zM656 1413l68 -907l-409 -31l-68 908zM947 1835v-287h-517q-60 0 -90.5 -16.5t-44 -40.5t-19.5 -50l-276 78
q17 64 47 125t87 109q95 82 296 82h517z" />
    <glyph glyph-name="uni06440622.fina" unicode="&#xfee0;&#xfe82;" horiz-adv-x="1530" arabic-form="final" 
d="M712 1413l68 -907l-408 -31l-68 908zM1433 1428v-919q0 -59 16 -86.5t73 -27.5h32v-458h-32q-112 0 -207 39q-68 29 -122 75q-47 -33 -103 -56q-138 -58 -344 -58h-431v457h431q104 0 161 15t82 53t30 106t5 175v685h409zM947 1840v-287h-517q-60 0 -90.5 -16.5
t-44 -40.5t-19.5 -50l-276 78q17 64 47 125t87 109q95 82 296 82h517z" />
    <glyph glyph-name="uni06440671.isol" unicode="&#xfedf;&#xfb51;" horiz-adv-x="1318" 
d="M1268 1428v-685q0 -86 -4.5 -183.5t-27 -192t-73.5 -176.5q-86 -131 -239 -195q-137 -58 -343 -58h-431v456h431q104 0 160.5 15t81.5 53t30 106t5 175v685h410zM547 1413l68 -907l-409 -31l-68 908zM481 1515h-481l26 119h133l43 66l83 122q36 53 88 84t113 31
q47 0 91.5 -24t73.5 -73.5t29 -125.5q0 -74 -31 -117.5t-77 -62.5t-91 -19zM486 1818q-32 0 -65 -28.5t-64 -70.5t-57 -85h181q34 0 56.5 19t22.5 61q0 102 -74 104z" />
    <glyph glyph-name="uni06440671.fina" unicode="&#xfee0;&#xfb51;" horiz-adv-x="1392" 
d="M575 1413l68 -907l-408 -31l-68 908zM1296 1428v-919q0 -59 16 -86.5t73 -27.5h32v-458h-32q-112 0 -207 39q-68 29 -122 75q-47 -33 -103 -56q-138 -58 -344 -58h-431v457h431q104 0 161 15t82 53t30 106t5 175v685h409zM481 1517h-481l26 119h133l43 66l83 122
q36 53 88 84t113 31q47 0 91.5 -24t73.5 -73.5t29 -125.5q0 -74 -31 -117.5t-77 -62.5t-91 -19zM486 1820q-32 0 -65 -28.5t-64 -70.5t-57 -85h181q34 0 56.5 19t22.5 61q0 102 -74 104z" />
    <glyph glyph-name="allah" unicode="&#xfedf;&#xfee0;&#xfeea;" horiz-adv-x="2479" arabic-form="isolated" 
d="M1470 1445q-94 0 -148 53t-54 146v109h125v-109q0 -79 77 -75q8 0 23 4.5t27.5 20.5t12.5 50v109h126v-109q0 -79 78 -76q8 0 22 5.5t26 22t12 48.5q0 40 -21 110q-4 15 -8 32l118 40l8 -31q1 -2 1 -5q9 -29 18 -68t9 -78q0 -67 -28.5 -111.5t-71.5 -66.5t-87 -22
q-84 0 -140 46q-27 -22 -60 -33.5t-65 -11.5zM1529 1859v288l129 31v-287zM2444 1427v-953q0 -34 -11 -106.5t-42.5 -152.5t-92.5 -142q-63 -67 -139.5 -100t-242.5 -33q-51 0 -110.5 8.5t-105.5 24.5q-57 21 -106 54q-131 -87 -310 -87q-208 0 -365 127t-209 364
q-6 31 -13 56q-2 7 -4 13q-14 54 -23 88t-20 82q-80 -17 -111 -50t-31 -82q0 -35 11 -79q76 -305 81 -305l-393 -116q-3 4 -85 322q-24 99 -24 184q0 117 39 207t101.5 154t137 102.5t147.5 53.5q84 18 152 31.5t93 17.5l235 -154v-3q27 -113 40.5 -168t22.5 -91t23 -91
l18 -69q3 -10 5 -20q6 -31 19 -58t47 -44t106 -17q54 0 79.5 15.5t25.5 63.5v763l410 72v-851q0 -27 27.5 -45t85.5 -18q30 0 59 3t47 19q10 10 13.5 26.5t3.5 30.5l-3 870z" />
    <glyph glyph-name="riyal" unicode="&#x631;&#xfef3;&#xfe8e;&#x644;" horiz-adv-x="3478" arabic-form="isolated" 
d="M734 -598q-176 0 -312.5 69.5t-220.5 201.5q-34 53 -54.5 114t-32.5 110q-20 80 -20 168q0 16 1 32q7 207 118 440l370 -174q-73 -158 -79 -281v-14q0 -79 31 -128q24 -37 60.5 -55t74 -24t64.5 -6q106 0 164.5 15t81.5 57t23 123v1377h409v-1377q0 -65 -9 -150.5
t-39.5 -170.5t-91.5 -152q-89 -93 -233 -137q-125 -38 -305 -38zM3383 713v-537q0 -163 -43 -318t-124 -245q-95 -109 -237 -162q-135 -51 -306 -51h-98v457h98q171 0 236 73q39 48 51.5 118t12.5 128v537h410zM1794 -103l220 -219l-220 -220l-219 220zM2263 -103l220 -219
l-220 -220l-219 220zM2090 395v-458h-89q-88 0 -154.5 20t-113.5 50t-77 60q-31 30 -60.5 77t-50 113.5t-20.5 154.5v271t0.5 380.5t0.5 298.5v65h409v-968q0 -35 23 -49.5t41 -14.5h91zM2671 849l17 -91.5t39 -212.5q15 -78 15 -144q0 -34 -4 -65q-8 -61 -29.5 -126.5
t-56.5 -108.5q-70 -91 -185 -135q-85 -27 -201 -27h-249v456h249q37 0 50 9.5t13 29.5q0 15 -4 35l-50 260z" />
    <glyph glyph-name="uni0621" unicode="&#x621;" horiz-adv-x="1004" arabic-form="isolated" 
d="M512 954q59 0 117 -11t114 -25q3 0 6 -1q9 -3 18 -4l-64 -277l-28 6t-73 12q-18 1 -35 1q-58 0 -96.5 -18t-57.5 -45t-19 -54q0 -10 3 -20q12 -39 57.5 -66t127.5 -27q81 0 200 35l97 30l4 -366q-19 -6 -138 -42.5t-270 -83t-267 -82l-116 -35.5l2 373l90 27
q-55 66 -81 147q-17 59 -17 117q0 107 58 205q85 136 236 185q68 19 132 19z" />
    <glyph glyph-name="uni0627" unicode="&#x627;" horiz-adv-x="610" arabic-form="isolated" 
d="M510 1427v-1491h-410v1491h410z" />
    <glyph glyph-name="uni0627.fina" unicode="&#x627;" horiz-adv-x="638" arabic-form="final" 
d="M665 395v-458h-89q-88 0 -154.5 20t-113.5 50t-77 60q-31 30 -60.5 77t-50 113.5t-20.5 154.5v271t0.5 380.5t0.5 298.5v65h409v-968q0 -35 23 -49.5t41 -14.5h91z" />
    <glyph glyph-name="uni062D" unicode="&#x62d;" horiz-adv-x="1606" arabic-form="isolated" 
d="M624 1211q30 0 62 -4q35 -3 136.5 -39.5t342.5 -144.5q110 -50 169.5 -77.5t93.5 -43.5q12 -6 23 -11l53 -422q-27 -10 -159 -58t-304 -111.5t-321 -120t-211 -82.5q1 -5 2 -15q1 -23 7 -60t23 -75t49.5 -64.5t87.5 -26.5h683v-456h-558q-105 0 -195.5 9t-166 41
t-137.5 99t-110.5 180.5t-83.5 285.5q-14 74 -14 135q0 148 85 235.5t269 148.5q229 77 396.5 132l167.5 55q-172 46 -253.5 66t-110.5 27q-1 0 -2 1q-4 1 -8 1q-22 0 -40.5 -24t-36.5 -67l-384 98q51 192 185 298q121 90 260 90z" />
    <glyph glyph-name="uni062D.init" unicode="&#x62d;" horiz-adv-x="1506" arabic-form="initial" 
d="M495 973q56 0 109 -16q234 -70 442.5 -139t303.5 -102q40 -13 45 -15l51 -408q-160 -113 -323 -192t-421.5 -121t-725.5 -42l-1 457q311 0 588.5 11t416.5 54l-76.5 24t-176 54.5t-177.5 53.5q-12 3 -23 3q-28 0 -43.5 -25.5t-32.5 -72.5l-382 98q61 226 233 326
q94 52 193 52z" />
    <glyph glyph-name="uni062D.medi" unicode="&#x62d;" horiz-adv-x="1547" arabic-form="medial" 
d="M1440 397l23 -1q23 0 54 -0.5t54 -0.5v-458q-113 0 -186.5 21.5t-116 49.5t-59.5 50l-17 22q-216 -81 -531 -112t-687 -31v458q188 0 388.5 3.5t366 17.5t256.5 43l-76 24q-77 24 -176 54.5t-178 53.5q-12 3 -23 3q-27 0 -43 -25.5t-33 -72.5l-382 98q61 226 233 326
q94 52 193 52q56 0 109 -16q233 -70 441.5 -139t304.5 -102q40 -14 45 -15l43 -303h-3z" />
    <glyph glyph-name="uni062D.fina" unicode="&#x62d;" horiz-adv-x="1719" arabic-form="final" 
d="M1121 338q-111 -45 -233 -94q-248 -99 -413 -166q4 -18 21.5 -78.5t39 -132.5t38.5 -126v-2q0 -1 1 -1v-3l2 -6q0 -1 1 -1v-3h1v-3q0 -1 1 -1v-3q1 -1 1 -2t1 -2q6 -20 7 -25q1 -1 1 -2h774v-457h-608q-113 0 -203 12q-91 11 -163 55t-128 139q-20 35 -57.5 136
t-73 218.5t-48.5 205.5q-10 61 -10 114q0 130 59 211q81 114 321 194q236 82 400 134l164 53q-192 43 -317 69t-165 26q-22 0 -41 -24q-18 -24 -36 -67l-384 98q51 192 185 298q121 90 260 90q90 0 227 -36q136 -37 285 -89t285 -102q71 -27 132 -49l55 -425l-64 -26l1 -2
q3 -5 12 -13t26 -17q18 -10 47 -18t72 -13q43 -6 103 -6h39v-457h-118q-192 0 -330 88t-170 311z" />
    <glyph glyph-name="uni062F" unicode="&#x62f;" horiz-adv-x="1162" arabic-form="isolated" 
d="M329 972l338 231q0 1 46 -65q69 -100 311 -444q77 -110 90 -236q3 -28 3 -57q0 -54 -11 -111t-38 -113q-59 -112 -167.5 -174t-244.5 -62q-112 0 -241.5 27.5t-226 56t-118.5 36.5l130 428q92 -31 230 -64.5t226 -33.5q42 0 48 15q2 4 2 10q0 15 -17 42
q-266 380 -327 466q-32 47 -33 48z" />
    <glyph glyph-name="uni0631" unicode="&#x631;" horiz-adv-x="876" arabic-form="isolated" 
d="M808 713v-537q0 -163 -43 -318t-124 -245q-95 -109 -237 -162q-135 -51 -306 -51h-98v457h98q171 0 236 73q39 48 51.5 118t12.5 128v537h410z" />
    <glyph glyph-name="uni0631.fina" unicode="&#x631;" horiz-adv-x="904" arabic-form="final" 
d="M893 395h36v-457h-46q-46 0 -89 10q-17 -68 -52.5 -161t-99.5 -173q-95 -109 -238 -162q-135 -51 -305 -51h-99v456h99q170 0 236 73q39 48 51.5 118t12.5 128v537h410v-239q0 -31 21.5 -55t62.5 -24z" />
    <glyph glyph-name="uni0633" unicode="&#x633;" horiz-adv-x="2873" arabic-form="isolated" 
d="M2751 832l8.5 -41.5t19.5 -99.5t20 -113t12 -85q2 -25 2 -49q0 -117 -33.5 -208.5t-84.5 -152.5q-137 -141 -351 -146v-1q-106 0 -182.5 25t-128.5 60q-132 -85 -284 -85q-58 0 -108 8q-15 -149 -108 -288t-259 -206q-130 -49 -309 -49h-236q-180 0 -324.5 82t-231.5 253
l-4 8q-51 92 -78 200q-17 78 -17 163q0 36 3 73q17 249 162 536l366 -184q-121 -248 -121 -421q0 -96 38 -160q25 -39 60 -59.5t74 -28t73 -7.5h236q59 0 125.5 12t102.5 49q41 49 41 175v621h409v-235q0 -34 19 -60t79 -26q43 0 67.5 21.5t24.5 64.5v235h410v-235
q0 -37 21.5 -61t53.5 -24q40 0 62.5 22t22.5 43q0 3 -1 6q-9 53 -21 119t-21.5 116l-9.5 50z" />
    <glyph glyph-name="uni0633.init" unicode="&#x633;" horiz-adv-x="1844" arabic-form="initial" 
d="M1722 830l8.5 -41.5t19.5 -99.5t20 -113t11 -85q2 -22 2 -44q0 -81 -18 -152t-45 -124.5t-55 -83.5q-136 -142 -351 -149q-106 0 -182.5 25.5t-127.5 61.5q-61 -41 -125 -64t-140 -23q-106 0 -173.5 25.5t-117.5 61.5q-37 -40 -78.5 -58.5t-127.5 -23.5t-267 -5v457h155
q65 0 91.5 22.5t26.5 63.5v232h410v-237q0 -37 18.5 -61t50.5 -25q78 0 77 86v237h409v-237q0 -37 22 -61t54 -24q41 0 62.5 22.5t21.5 43.5v5q-9 53 -21 119t-21.5 116l-9.5 50z" />
    <glyph glyph-name="uni0633.medi" unicode="&#x633;" horiz-adv-x="1886" arabic-form="medial" 
d="M1698 713v-237q0 -41 26.5 -61t90.5 -20h96v-457q-153 0 -226.5 5t-111.5 23.5t-76 58.5q-69 -52 -185 -79q-37 -7 -79 -8h-4q-209 2 -286 87q-61 -41 -122 -64t-137 -23q-106 0 -173.5 25.5t-117.5 61.5l-17 -17q-28 -32 -58 -47t-103 -19t-240 -4v457h101q65 0 91 21
t26 62v235h410v-237q0 -37 17 -61t49 -25q77 0 74 86v237h409v-237q0 -37 21 -61t53 -24t47 24t15 61v237h410z" />
    <glyph glyph-name="uni0633.fina" unicode="&#x633;" horiz-adv-x="2966" arabic-form="final" 
d="M238 716l366 -184q-121 -249 -121 -422q0 -95 38 -159q25 -39 60.5 -59.5t74.5 -28t72 -7.5h236q60 0 126 12t102 49q41 49 41 175v621h410v-237q0 -34 19 -60t79 -26q43 0 67.5 21.5t24.5 64.5v237h409v-237q0 -37 19 -61t51 -24t50 24t18 61v237h410v-232
q0 -41 26.5 -63.5t90.5 -22.5h84v-457q-112 0 -184 5t-120.5 23.5t-88.5 58.5q-47 -32 -119 -59.5t-159 -27.5q-106 0 -171.5 25.5t-115.5 61.5q-132 -85 -284 -85q-58 0 -109 8q-15 -151 -108 -291t-259 -206q-130 -49 -309 -49h-236q-179 0 -324 82t-231 252
q-54 97 -82 208q-17 80 -17 169q0 33 2 67q19 249 162 536z" />
    <glyph glyph-name="uni0635" unicode="&#x635;" horiz-adv-x="2955" arabic-form="isolated" 
d="M2865 731q40 -92 40 -226q0 -73 -12 -156.5t-48 -151.5q-55 -105 -156 -172q-58 -37 -115.5 -56t-107.5 -25t-82 -6h-679q-30 0 -59 3q-21 -203 -138 -338q-90 -103 -229 -153q-131 -48 -308 -48l-239 -1q-179 0 -311 80q-132 79 -217 209t-109 254q-17 81 -17 169
q0 33 2 67q19 249 162 536l366 -184q-18 -35 -33 -70q-15 -36 -28 -70q-60 -162 -60 -281q0 -94 38 -160q25 -39 60 -59q36 -21 75 -28q39 -8 72 -8l239 1q170 0 229 60q40 47 40 171v625h409v-82q-1 -82 -1 -200q95 173 219 288q115 109 233 168q148 75 301 75h20
q45 0 95 -3t101.5 -15.5t100.5 -41.5q100 -60 147 -171zM2359 393q86 0 119 22t33 75q0 38 -14 54t-41.5 19t-67.5 3q-58 0 -135.5 -39t-147.5 -105q-15 -13 -29 -29h283z" />
    <glyph glyph-name="uni0635.init" unicode="&#x635;" horiz-adv-x="1973" arabic-form="initial" 
d="M1439 963q45 0 95 -3t101.5 -15.5t100.5 -41.5q100 -60 147 -171q40 -92 40 -226q0 -73 -12.5 -156.5t-47.5 -151.5q-55 -105 -156 -172q-58 -37 -116 -56t-107.5 -25t-81.5 -6h-679q-153 0 -278 77q-40 -24 -87 -41q-99 -36 -227 -36h-156v456h179q18 0 38 2.5t33.5 12
t13.5 30.5v273h410v-314q100 195 236 321q114 109 233 168q148 75 301 75h20zM1094 394h283q86 0 119 22t33 75q0 38 -14 54t-41.5 19t-67.5 3q-58 0 -135.5 -39t-147.5 -105q-15 -14 -29 -29z" />
    <glyph glyph-name="uni0635.medi" unicode="&#x635;" horiz-adv-x="2008" arabic-form="medial" 
d="M1439 963q45 0 95 -3t101.5 -15.5t100.5 -41.5q100 -60 147 -171q40 -92 40 -226q0 -58 -10 -111h120v-458h-1310q-153 0 -278 77q-40 -24 -87 -41q-99 -36 -227 -36h-156v458h179q18 0 38 2.5t33.5 12t13.5 30.5v273h410v-314q100 195 236 321q114 109 233 168
q148 75 301 75h20zM1094 394h283q86 0 119 22t33 75q0 38 -14 54t-41.5 19t-67.5 3q-58 0 -135.5 -39t-147.5 -105q-15 -14 -29 -29z" />
    <glyph glyph-name="uni0635.fina" unicode="&#x635;" horiz-adv-x="2994" arabic-form="final" 
d="M2359 393q86 0 119 22t33 75q0 38 -14 54t-41.5 19t-67.5 3q-58 0 -135.5 -39t-147.5 -105q-15 -13 -29 -29h283zM2899 395h115v-457l-604 1q-14 -1 -26 -1h-679q-30 0 -59 3q-21 -203 -138 -338q-90 -103 -229 -153q-131 -48 -308 -48l-239 -1q-179 0 -311 80
q-132 79 -217 209t-109 254q-17 81 -17 169q0 33 2 67q19 249 162 536l366 -184q-18 -35 -33 -70q-15 -36 -28 -70q-60 -162 -60 -281q0 -94 38 -160q25 -39 60 -59q36 -21 75 -28q39 -8 72 -8l239 1q170 0 229 60q40 47 40 171v625h409v-82q-1 -82 -1 -200q95 173 219 288
q115 109 233 168q148 75 301 75h20q45 0 95 -3t101.5 -15.5t100.5 -41.5q100 -60 147 -171q40 -92 40 -226q0 -52 -6 -110z" />
    <glyph glyph-name="uni0637" unicode="&#x637;" horiz-adv-x="1552" arabic-form="isolated" 
d="M698 395h283q86 0 119 21.5t33 75.5q0 38 -14 53.5t-41.5 18.5t-67.5 3q-58 0 -135.5 -38.5t-147.5 -104.5l-10 -10q-10 -9 -19 -19zM688 1430v-539l-2 -13l11 6q149 79 302 79h20q45 0 95 -3t101.5 -15.5t100.5 -41.5q99 -60 147 -171q39 -92 39 -226q0 -73 -13.5 -156
t-46.5 -154q-55 -107 -156 -172q-58 -37 -115.5 -56t-107 -25t-82.5 -6h-911v458h159q24 36 49 72v963h410z" />
    <glyph glyph-name="uni0637.init" unicode="&#x637;" horiz-adv-x="1416" arabic-form="initial" 
d="M562 395h283q86 0 119 21.5t33 75.5q0 38 -14 53.5t-41.5 18.5t-67.5 3q-58 0 -135.5 -38.5t-147.5 -104.5l-10 -10q-10 -9 -19 -19zM552 1430v-539l-2 -13l11 6q149 79 302 79h20q45 0 95 -3t101.5 -15.5t100.5 -41.5q99 -60 147 -171q39 -92 39 -226q0 -73 -15 -162
t-45 -148q-55 -107 -156 -172q-58 -37 -115.5 -56t-107 -25t-82.5 -6h-870v458h118q24 36 49 72v963h410z" />
    <glyph glyph-name="uni0637.medi" unicode="&#x637;" horiz-adv-x="1477" arabic-form="medial" 
d="M1502 395v-458h-1527v458h118q24 36 49 72v963h410v-539l-2 -13l11 6q149 79 302 79h20q45 0 95 -3t101.5 -15.5t100.5 -41.5q99 -60 147 -171q39 -92 39 -226q0 -58 -9 -111h145zM562 395h283q86 0 119 21.5t33 75.5q0 38 -14 53.5t-41.5 18.5t-67.5 3
q-58 0 -135.5 -38.5t-147.5 -104.5l-10 -10q-10 -9 -19 -19z" />
    <glyph glyph-name="uni0637.fina" unicode="&#x637;" horiz-adv-x="1572" arabic-form="final" 
d="M1597 395v-458h-1527v458h118q24 36 49 72v963h410v-539l-2 -13l11 6q149 79 302 79h20q45 0 95 -3t101.5 -15.5t100.5 -41.5q99 -60 147 -171q39 -92 39 -226q0 -58 -9 -111h145zM657 395h283q86 0 119 21.5t33 75.5q0 38 -14 53.5t-41.5 18.5t-67.5 3
q-58 0 -135.5 -38.5t-147.5 -104.5l-10 -10q-10 -9 -19 -19z" />
    <glyph glyph-name="uni0639" unicode="&#x639;" horiz-adv-x="1417" arabic-form="isolated" 
d="M784 892q10 -71 124 -104.5t294 -33.5h129v-456h-159h-11q-46 0 -169.5 0.5t-225.5 0.5q-68 0 -123.5 -12.5t-101.5 -58.5q-29 -31 -42 -67t-16 -63l-3 -27q0 -70 35 -118t96.5 -72t139.5 -24h516v-455h-516q-139 0 -263.5 48.5t-220.5 140.5q-197 258 -197 480
q0 173 63 306.5t181 225.5q51 40 109 70q-49 101 -49 219q0 219 161 379q162 146 378 146q82 0 153 -21.5t136.5 -54.5t127.5 -70l37 -21l-202 -356l-39 22q-4 2 -7 4q-65 38 -119 65t-93 27q-45 0 -84.5 -27t-39.5 -80q0 -6 1 -13z" />
    <glyph glyph-name="uni0639.init" unicode="&#x639;" horiz-adv-x="1200" arabic-form="initial" 
d="M649 1065q78 0 156.5 -20t142.5 -46t103 -46l39 -20l-177 -351l-42.5 18.5t-101 37t-110.5 21.5h-5q-56 0 -96 -34t-40 -83q0 -54 48 -84.5t126 -44.5t172 -18h10t23.5 -0.5t25.5 -0.5h16h128v-457h-1092v458h155q-22 71 -22 147q0 93 33 186t100 168.5t169 122t239 46.5
z" />
    <glyph glyph-name="uni0639.medi" unicode="&#x639;" horiz-adv-x="1290" arabic-form="medial" 
d="M663 511q24 18 63.5 56.5t75.5 78.5t52 64h-384q7 -12 35 -41.5t62.5 -64.5t62 -61.5t33.5 -31.5zM805 1084q120 0 226 -64q104 -66 155 -172q36 -82 36 -161q0 -126 -92 -244q-14 -16 -26 -32q-7 -8 -13 -16h224v-457h-429q-56 0 -110.5 18t-117.5 64q-67 -44 -185 -63
t-246 -19h-252v457h247q-48 53 -76 87.5t-30 38.5l-43 55v69q0 79 17 138t42 101t50 69q27 31 71.5 61t108.5 50t151 20h292z" />
    <glyph glyph-name="uni0639.fina" unicode="&#x639;" horiz-adv-x="1422" arabic-form="final" 
d="M945 1082q114 0 216 -60q96 -60 149 -157q44 -86 44 -177q0 -111 -66 -213q-28 -42 -66 -80h225v-457h-364q-113 0 -202.5 45.5t-147.5 125.5q-110 -50 -183 -107q-70 -52 -70 -138q0 -85 60.5 -147t142.5 -62h593l2 -454h-593q-124 0 -240 50q-110 48 -194 134t-130 196
q-29 77 -40 149t-11 134q0 97 26.5 173t66.5 133t84 97t81.5 64.5t57.5 34.5q7 5 11 7q-17 14 -37 32q-44 38 -86 73l-72 156q0 54 15.5 126.5t63.5 145.5q127 176 356 176h308zM792 511q25 18 64 56.5t75.5 78.5t51.5 64h-384q7 -12 35 -41.5t62.5 -64.5t62 -61.5
t33.5 -31.5z" />
    <glyph glyph-name="uni0643.init" unicode="&#x643;" horiz-adv-x="1207" arabic-form="initial" 
d="M120 872l42 347l875 399l170 -373l-599 -274q24 -25 52 -53q65 -64 146 -149q15 -16 29 -30q56 -58 96 -105.5t65 -99.5q33 -71 42 -130q6 -44 6 -84q0 -15 -2 -49t-27 -100q-19 -49 -72 -103.5t-155 -91.5q-111 -38 -282 -38h-531v457h531q30 0 71 1.5t61 3.5
q-93 108 -206 210.5t-201.5 174t-107.5 85.5z" />
    <glyph glyph-name="uni0643.medi" unicode="&#x643;" horiz-adv-x="1252" arabic-form="medial" 
d="M923 589q71 -95 113 -136.5t89 -49.5t139 -8v-458q-113 0 -208.5 15t-181.5 63q-60 35 -112 84q-55 -58 -132 -99q-125 -63 -268 -63h-387v458h357q43 0 89 5t79 12.5t38 16.5l-37.5 51.5t-87.5 117.5l-240 289l71 311l865 419l178 -368l-634 -308q11 -13 54.5 -69.5
t102 -133t113.5 -149.5z" />
    <glyph glyph-name="uni0643" unicode="&#x643;" horiz-adv-x="2053" arabic-form="isolated" 
d="M1032 1155l94 -158q-109 -67 -138 -100h39q20 1 41 1q50 0 101 -7q65 -13 103.5 -56.5t38.5 -100.5q0 -47 -31 -97q-43 -66 -144 -105q-95 -36 -240 -50l-17 183q109 11 211 48q9 3 9 6t-15 3.5t-37 0.5h-55q-46 0 -79 4q-62 11 -97.5 49.5t-35.5 91.5q0 38 20 81
q21 45 70 90q58 55 162 116zM2003 1418v-937q0 -66 -11.5 -157.5t-50 -177t-116.5 -139.5q-53 -34 -111.5 -48.5t-120.5 -17.5t-128 -3h-691q-137 0 -216.5 2t-139.5 12q-172 27 -262 166q-74 158 -74 324q0 45 5 92q24 156 59 260q0 2 1 4v2l393 -116l-14.5 -60t-32.5 -139
q-7 -26 -7 -46t11.5 -32t43.5 -12h936q69 0 93 28t24 85v910h409z" />
    <glyph glyph-name="uni0643.fina" unicode="&#x643;" horiz-adv-x="2157" arabic-form="final" 
d="M1979 1428v-960q2 -37 29 -55t88 -18h86v-458q-205 0 -286 10.5t-123 52.5q-74 -37 -158 -44.5t-173 -7.5h-656q-137 0 -222 2t-145 12q-172 27 -262 166q-38 58 -56.5 143t-18.5 176q0 49 5 97q24 156 59 260q0 2 1 4v2l393 -116l-14.5 -60t-32.5 -139q-7 -26 -7 -46
t11.5 -32t43.5 -12h912q69 0 93 28t24 85v910h409zM1026 1165l94 -158q-109 -67 -138 -100h39q20 1 41 1q50 0 101 -7q65 -13 103.5 -56.5t38.5 -100.5q0 -47 -31 -97q-43 -66 -144 -105q-95 -36 -240 -50l-17 183q109 11 211 48q9 3 9 6t-15 3.5t-37 0.5h-55q-46 0 -79 4
q-62 11 -97.5 49.5t-35.5 91.5q0 38 20 81q21 45 70 90q58 55 162 116z" />
    <glyph glyph-name="uni0644" unicode="&#x644;" horiz-adv-x="1490" arabic-form="isolated" 
d="M712 -598q-176 0 -312.5 69.5t-220.5 201.5q-34 53 -54.5 114t-32.5 110q-20 80 -20 168q0 16 1 32q7 207 118 440l370 -174q-73 -158 -79 -281v-14q0 -79 31 -128q24 -37 60.5 -55t74 -24t64.5 -6q106 0 164.5 15t81.5 57t23 123v1377h409v-1377q0 -65 -9 -150.5
t-39.5 -170.5t-91.5 -152q-89 -93 -233 -137q-125 -38 -305 -38z" />
    <glyph glyph-name="uni0644.init" unicode="&#x644;" horiz-adv-x="669" arabic-form="initial" 
d="M568 1427l1 -1000v-1q0 -20 -7 -75.5t-28 -115.5q-38 -95 -111 -164q-147 -133 -368 -133h-79l-1 457h79q60 0 88 22q10 10 13.5 26.5t3.5 30.5v953h409z" />
    <glyph glyph-name="uni0644.medi" unicode="&#x644;" horiz-adv-x="634" arabic-form="medial" 
d="M569 458q0 -15 7 -29.5t26 -24t57 -9.5v-458q-102 0 -189 33q-57 21 -106 54q-131 -87 -310 -87h-79v458h79q54 0 79.5 15.5t25.5 63.5v953h410v-969z" />
    <glyph glyph-name="uni0644.fina" unicode="&#x644;" horiz-adv-x="1501" arabic-form="final" 
d="M1464 395h62v-459h-62q-39 0 -75 5q0 -84 -30.5 -183.5t-108.5 -180.5q-90 -93 -233 -137q-126 -38 -306 -38q-176 0 -315.5 73t-228.5 202q-43 61 -71 149.5t-28 196.5q0 36 4 74q10 102 37 213t81 227l371 -174q-74 -158 -79 -281v-15q0 -78 30 -127q24 -37 60.5 -55
t74 -24t64.5 -6q108 0 166.5 15.5t80.5 57.5t22 122v1377h410v-953q0 -78 74 -79z" />
    <glyph glyph-name="uni0645" unicode="&#x645;" horiz-adv-x="1513" arabic-form="isolated" 
d="M1032 311q32 0 47.5 31t15.5 74q0 20 -3 40q-9 58 -42 96t-81 38q-37 0 -63.5 -24.5t-47 -67t-40.5 -97.5l27.5 -13t69.5 -32t87 -39q17 -6 30 -6zM950 977q128 0 217.5 -44t147.5 -112.5t90.5 -146.5t45 -150t12.5 -119q0 -118 -38.5 -211.5t-100.5 -158.5t-136.5 -99
t-146.5 -34q-36 0 -72 10q-100 29 -212.5 76.5t-195 87l-82.5 39.5q0 -206 0.5 -415t0.5 -280v-19h-410v1115l256 147l19.5 -11t46 -25.5t48.5 -26.5t28 -16q8 26 30.5 73t60.5 101.5t93.5 104t129.5 82t168 32.5z" />
    <glyph glyph-name="uni0645.init" unicode="&#x645;" horiz-adv-x="1236" arabic-form="initial" 
d="M764 289q6 0 9 2q16 8 29 41.5t13 73.5q0 14 -2 28q-5 32 -23 64.5t-46.5 55.5t-64.5 23t-61.5 -36t-41.5 -79.5t-22 -71.5q25 -21 66.5 -44.5t83 -40t60.5 -16.5zM681 974q105 0 184 -37t135 -96t91.5 -128.5t53.5 -136.5t20 -119q1 -24 1 -47q0 -121 -27.5 -206
t-71 -141t-93.5 -88.5t-97.5 -46.5t-82.5 -15q-13 -1 -28 -1q-98 0 -184.5 21.5t-153 49.5t-105.5 50q-42 -41 -123 -68t-155 -27h-70v457h40q99 0 128 34t55 131q8 24 17 54q7 25 27 68t55.5 93t88 95t126 74.5t169.5 29.5z" />
    <glyph glyph-name="uni0645.medi" unicode="&#x645;" horiz-adv-x="1209" arabic-form="medial" 
d="M1203 -63q-41 0 -88 24t-90 63q-63 -60 -128.5 -85t-112.5 -26q-13 -1 -28 -1q-86 0 -163.5 24t-140.5 55.5t-107 57.5q-18 10 -32 18q-45 -59 -129 -94.5t-162 -35.5h-47v458h30q99 0 128 34t55 131q8 24 17 54q7 25 27 68t55.5 92.5t88 94.5t126 74.5t169.5 29.5
q103 0 182 -35.5t136.5 -93t94 -125t54 -134.5t17.5 -119q0 -38 22.5 -54.5t51.5 -16.5h5v-458h-31zM754 289q6 0 9 2q16 8 29 41.5t13 73.5q0 14 -2 28q-5 32 -23 64.5t-46.5 55.5t-64.5 23t-61.5 -36t-41.5 -79.5t-22 -71.5q25 -22 66.5 -45t83 -39.5t60.5 -16.5z" />
    <glyph glyph-name="uni0645.fina" unicode="&#x645;" horiz-adv-x="1542" arabic-form="final" 
d="M1541 395h26v-458h-26q-65 0 -123.5 18.5t-98.5 74.5q-61 -62 -133.5 -95t-143.5 -33q-38 0 -73 10q-100 29 -212.5 76.5t-195 87l-82.5 39.5q0 -206 0.5 -415t0.5 -280v-19h-410v1115l256 147l20 -11t46 -25.5t48 -26.5t28 -16q8 26 30.5 73t60.5 101.5t93.5 104
t129.5 82t168 32.5q132 0 223 -46.5t149 -118.5t89 -153t42 -152q13 -50 37.5 -81t50.5 -31zM1002 317q16 -7 30 -7q32 0 47.5 31t15.5 75q0 19 -3 40q-9 58 -41.5 96t-81.5 38q-37 0 -63.5 -24.5t-47 -67t-40.5 -97.5l27.5 -13t69.5 -32t87 -39z" />
    <glyph glyph-name="uni0647" unicode="&#x647;" horiz-adv-x="1098" arabic-form="isolated" 
d="M553 352q18 0 42.5 10t43.5 32.5t19 58.5q0 18 -17 43.5t-38 50t-38 41l-17 16.5l-15.5 -15.5t-35 -39.5t-35 -50.5t-15.5 -48.5q0 -36 19.5 -57.5t44.5 -31t42 -9.5zM539 1188l6 -7q42 -48 308 -340q68 -69 125 -160.5t70 -237.5q2 -24 2 -46q0 -86 -21 -152t-54 -115
t-70 -82q-69 -62 -154.5 -87.5t-194.5 -25.5t-193 25t-154 90q-57 54 -98 151.5t-41 213.5v23q9 140 56.5 234.5t101.5 150.5q24 25 43 49q-12 13 -20 22q-18 20 -18 21z" />
    <glyph glyph-name="uni0647.init" unicode="&#x647;" horiz-adv-x="1811" arabic-form="initial" 
d="M1471 862q184 -185 237 -341q30 -90 30 -167q0 -56 -16 -106q-23 -81 -89 -156.5t-188 -120.5q-103 -39 -255 -39q-27 0 -55 1q-248 15 -384 35l-136 19q-100 -27 -202 -38.5t-214 -11.5h-219l1 458h125q-15 63 -16 131q0 222 147 384q150 162 378 162q171 0 300 -94
l213 214q3 -2 55 -52t130 -125.5t158 -152.5zM615 404q6 1 27 8.5t46 23t43.5 40.5t18.5 62q0 13 -5 37t-19.5 49t-41 43t-69.5 18q-44 0 -70.5 -18t-40.5 -43t-19 -49t-5 -37q0 -38 18 -63.5t43 -40.5t46 -22t28 -8zM1315 417q1 3 1 5q0 18 -24.5 49t-62 65t-67.5 58
l-30 24q7 -45 7 -92q0 -69 -15 -132l-4 -12q42 -14 81 -14q21 0 60.5 7t53.5 42z" />
    <glyph glyph-name="uni0647.medi" unicode="&#x647;" horiz-adv-x="1264" arabic-form="medial" 
d="M679 -197q-13 28 -18 59t-5 60q0 40 6 73t11.5 53.5l5.5 20.5q-11 -3 -43 -10t-65 -13.5t-46 -8.5q11 -72 60.5 -135.5t93.5 -98.5zM525 412q80 11 140.5 46t64.5 70v5q0 44 -20 62.5t-45 18.5h-3q-32 0 -56 -23t-40 -56t-26 -66.5t-15 -56.5zM665 997q132 0 217.5 -41.5
t135.5 -104.5t74 -131t30.5 -125t6.5 -82q0 -61 -16 -118h176v-457h-173q-40 0 -63.5 -31t-23.5 -74q0 -31 14 -63t45 -58l-123 -317q-53 -7 -106 -7q-111 0 -215 33q-137 49 -255 145q-165 124 -262 373q-37 -1 -65.5 -1h-61.5h-25v457h133q0 17 9 67.5t31 118.5t62 140.5
t101.5 134.5t149 101.5t204.5 39.5z" />
    <glyph glyph-name="uni0647.fina" unicode="&#x647;" horiz-adv-x="1389" arabic-form="final" 
d="M571 435q21 0 39 5.5t29 11.5q34 19 47.5 47t13.5 61q0 28 -6.5 59t-14.5 61q-5 18 -9 35q-81 -34 -117.5 -52t-51.5 -34q-40 -42 -40 -86q0 -40 29 -73q18 -19 39 -27t42 -8zM961 1233q51 -218 81 -351q7 -32 13 -60q19 -89 36 -160.5t41 -166.5q7 -33 24 -55
t61.5 -33.5t137.5 -11.5h59v-457h-59q-112 0 -193.5 19.5t-137.5 48t-90.5 57.5t-51.5 50q-79 -44 -156 -58.5t-163 -14.5q-97 0 -191.5 37.5t-166 124.5t-103.5 235q-12 58 -12 119q0 75 23 152t78 148.5t149 130t234 98.5l-13 57z" />
    <glyph glyph-name="uni0648" unicode="&#x648;" horiz-adv-x="1124" arabic-form="isolated" 
d="M526 394h155v96q0 47 -34 78.5t-84 31.5q-49 0 -82 -32t-33 -78q0 -25 5.5 -47t22 -35.5t50.5 -13.5zM287 -144q123 0 204 7t116 26t39 48h-86q-133 4 -241.5 60.5t-173.5 162t-65 255.5q0 167 47.5 276.5t121.5 174t157 91t154 26.5q215 0 369 -162q145 -164 145 -406
v-374q-1 -139 -40.5 -239.5t-99 -169.5t-120.5 -116q-36 -25 -98.5 -52.5t-178.5 -45.5q-101 -16 -262 -16h-109v454h121z" />
    <glyph glyph-name="uni0648.fina" unicode="&#x648;" horiz-adv-x="1102" arabic-form="final" 
d="M526 394h155v96q0 47 -34 78.5t-84 31.5q-49 0 -82 -32t-33 -78q0 -25 5.5 -47t22 -35.5t50.5 -13.5zM1074 395h53v-457h-60q-9 -75 -33 -136q-40 -101 -99.5 -170t-120.5 -116q-36 -25 -98.5 -52.5t-178.5 -45.5q-101 -16 -262 -16h-109v454h121q123 0 204 7t116 26
t39 48h-86q-133 4 -241.5 60.5t-173.5 162t-65 255.5q0 167 47.5 276.5t121.5 174t157 91t154 26.5q215 0 369 -162q145 -164 145 -406v-20z" />
    <glyph glyph-name="uni0649" unicode="&#x649;" horiz-adv-x="1695" arabic-form="isolated" 
d="M1429 1027q53 0 107 -9.5t109 -24.5l-104 -396q-68 26 -142 26q-59 0 -114.5 -22.5t-96.5 -76t-59 -144.5q92 -25 163 -44q118 -30 185 -52q84 -28 120 -89t36 -146v-4q-2 -167 -42.5 -281.5t-107 -186t-146.5 -109.5t-161 -51.5t-149 -13.5h-306q-169 0 -292 61
t-202.5 160t-118 217.5t-38.5 232.5q0 187 45 337.5t117 292.5l367 -180q-54 -109 -87 -211t-33 -199q0 -107 34 -162.5t90 -75t121 -19.5h306q81 0 124.5 17.5t61 40.5t17.5 42q-7 2 -74.5 20t-154 41t-153.5 41l-67 18l-10 39.5t-20.5 105t-10.5 143.5q0 84 19 172
q9 42 36.5 103t76.5 128t125 125.5t182 96t247 37.5z" />
    <glyph glyph-name="uni0649.fina" unicode="&#x649;" horiz-adv-x="1856" arabic-form="final" 
d="M226 700l367 -177q-110 -228 -110 -390q0 -130 69 -203.5t206 -73.5h266q76 0 128 5t86 12.5t52.5 15t25.5 12.5l7 5q-59 28 -133.5 43t-161.5 26q-30 4 -61 9v410h914v-456h-183q5 -29 5 -58q0 -133 -48.5 -220t-126.5 -139t-169 -77.5t-179.5 -33t-155.5 -7.5h-266
q-180 0 -310 63t-214 167.5t-124 234.5t-40 265q0 121 40.5 274t115.5 293z" />
    <glyph glyph-name="uni066E.init" unicode="&#x66e;" horiz-adv-x="754" 
d="M629 849l17 -91.5t39 -212.5q15 -78 15 -144q0 -34 -4 -65q-8 -61 -29.5 -126.5t-56.5 -108.5q-70 -91 -185 -135q-85 -27 -201 -27h-249v456h249q37 0 50 9.5t13 29.5q0 15 -4 35l-50 260z" />
    <glyph glyph-name="uni066E.medi" unicode="&#x66e;" horiz-adv-x="770" 
d="M681 713v-270q0 -25 11 -36.5t55 -11.5h48v-456h-40q-153 0 -278 77q-41 -24 -86 -41q-100 -36 -228 -36h-188v456h217q49 0 64 10.5t15 37.5v270h410z" />
    <glyph glyph-name="uni066E.fina" unicode="&#x66e;" horiz-adv-x="2204" 
d="M147 794l393 -116l-14.5 -60t-32.5 -139q-7 -26 -7 -46t11.5 -32t43.5 -12h959q69 0 93 28t24 85v211h409v-245q2 -37 29 -55t88 -18h86v-458q-137 0 -207 3.5t-106.5 17.5t-66.5 43q-53 -34 -111.5 -48.5t-121 -17.5t-127.5 -3h-703q-137 0 -222 2t-145 12
q-172 27 -262 166q-39 60 -57.5 143.5t-18.5 172.5q0 51 6 100q24 156 59 260q0 2 1 4v2z" />
    <glyph glyph-name="uni066F.init" unicode="&#x66f;" horiz-adv-x="1159" 
d="M1067 429q0 -141 -69.5 -252t-203.5 -175t-326 -64h-486v457h95q-4 56 -4 105q0 167 48 277t121.5 174t156.5 90.5t154 26.5q215 0 369 -162q145 -164 145 -406v-71zM556 638q-49 0 -82 -32t-33 -78q0 -25 5.5 -47t22 -35.5t50.5 -13.5h155v96q0 47 -33.5 78.5
t-84.5 31.5z" />
    <glyph glyph-name="uni066F.medi" unicode="&#x66f;" horiz-adv-x="1222" 
d="M1124 395h122v-457h-216q-112 0 -206 11.5t-209 38.5q-100 -27 -201.5 -38.5t-214.5 -11.5h-219v457h125q-15 63 -15 132q0 222 147 384q150 162 378 162q227 0 377 -162q147 -162 147 -384q0 -69 -15 -132zM615 405q7 1 27.5 8.5t45.5 22.5t43.5 40.5t18.5 62.5
q0 12 -5 36.5t-19.5 49.5t-41 43t-69.5 18t-70 -18t-41 -43t-19 -49.5t-5 -36.5q0 -38 18.5 -63.5t43 -40.5t45.5 -22t28 -8z" />
    <glyph glyph-name="uni066F.fina" unicode="&#x66f;" horiz-adv-x="1692" 
d="M1127 983q215 0 369 -162q145 -164 145 -406v-20h76v-457h-79q-2 -39 -6.5 -69t-18.5 -82q-37 -125 -123 -213q-167 -173 -529 -173h-196q-199 0 -350.5 71.5t-239.5 207.5q-48 78 -72.5 184t-24.5 213q0 29 2 57q14 225 140 506l373 -168q-95 -212 -105 -363
q-1 -14 -1 -27q0 -84 32 -133q27 -39 71 -59t92 -26t83 -6h196q116 0 171.5 10.5t74 28.5t19.5 41h-79q-131 0 -242.5 57t-178.5 163.5t-67 256.5q0 167 46 276.5t117.5 174t152.5 91t152 26.5zM1093 395h154v95q0 47 -33.5 78.5t-83.5 31.5t-82.5 -32t-32.5 -78
q0 -25 5.5 -47t22 -35t50.5 -13z" />
    <glyph glyph-name="uni06C1.init" unicode="&#x6c1;" horiz-adv-x="754" arabic-form="initial" 
d="M629 849l17 -91.5t39 -212.5q15 -78 15 -144q0 -34 -4 -65q-8 -61 -29.5 -126.5t-56.5 -108.5q-70 -91 -185 -135q-85 -27 -201 -27h-249v456h249q37 0 50 9.5t13 29.5q0 15 -4 35l-50 260zM281 -144l168 -154l-15 -12t-35.5 -31t-39.5 -41t-29 -43q88 -5 148 -67
t60 -149q0 -89 -69.5 -152.5t-158.5 -63.5q-61 0 -122 29t-101 95t-40 176q0 101 57 213t177 200z" />
    <glyph glyph-name="uni06C1.medi" unicode="&#x6c1;" horiz-adv-x="1179" arabic-form="medial" 
d="M1204 395v-455h-116q-64 0 -111 -48t-47 -132q0 -70 42 -160l-187 -288q-126 0 -246.5 32.5t-217.5 106t-154.5 194t-57.5 295.5h-134v455h321l205 -205v-11q0 -70 3.5 -146t20 -149t53.5 -135q-13 52 -13 110q0 91 33 185t100.5 173.5t171.5 128.5t247 49h87z" />
    <glyph glyph-name="uni06BE" unicode="&#x6be;" horiz-adv-x="2058" arabic-form="isolated" 
d="M1385 239q50 0 84.5 14.5t55.5 34.5t28 39q7 17 7 37q0 40 -33.5 105t-126.5 185q3 -12 3 -47q0 -17 -2 -63t-27.5 -132t-88.5 -154q28 -8 53 -13.5t47 -5.5zM871 378q69 18 105 52.5t42 95.5v11q0 52 -36 89t-89 37q-40 0 -69.5 -20t-45.5 -49t-16 -56q0 -51 33.5 -95.5
t75.5 -64.5zM819 12q-120 -46 -251 -47h-23q-118 0 -227.5 19.5t-181.5 42.5h-2l-1 1h-1q-1 0 -2 1h-1q-1 0 -2 1l-8 2q-2 1 -3 1h-1v1h-3v1h-2q-1 0 -1 1h-3v1h-3l-1 1h-2l-4 2h-3l-1 1h-2q0 1 -1 1q-19 6 -24 7l-1 1h-1l113 394q95 -29 155 -42h1q1 0 2 -1h1q14 -3 24 -5
h2q1 -1 2 -1h1q1 0 2 -1h3q14 -3 19 -4l2 -1h1q-9 31 -16 68t-7 70q0 151 71 268.5t195.5 185t283.5 67.5q129 0 249 -71l270 223q293 -299 416 -524q104 -190 104 -341q0 -28 -13.5 -126.5t-157.5 -231.5q-61 -58 -154.5 -91.5t-222.5 -33.5q-118 0 -265 35.5t-325 124.5z
" />
    <glyph glyph-name="uni06D2" unicode="&#x6d2;" horiz-adv-x="1705" arabic-form="isolated" 
d="M913 395v-456h-342q-40 0 -65.5 -15.5t-25.5 -47.5q0 -34 24 -49.5t67 -15.5h1084v-448h-1084q-207 0 -357 139q-70 67 -107 166t-37 231t38 212t110 146q151 138 353 138h342z" />
    <glyph glyph-name="uni06D2.fina" unicode="&#x6d2;" horiz-adv-x="1320" arabic-form="final" 
d="M1345 395v-457h-779q-38 0 -62 -13.5t-24 -44.5q0 -67 91 -69h727v-447h-727q-207 0 -357 139q-70 67 -107 162.5t-37 232.5q0 120 38 206t110 153q151 138 353 138h774z" />
    <glyph glyph-name="uni06A9" unicode="&#x6a9;" horiz-adv-x="2016" arabic-form="isolated" 
d="M1846 1613l170 -372l-600 -275l41 -41q70 -68 158 -160q26 -28 50 -53q47 -49 82 -90.5t57 -88.5q26 -55 37.5 -108t11.5 -101q0 -88 -29 -152q-19 -49 -72 -103.5t-156 -90.5q-111 -38 -282 -38h-528q-137 0 -222 2t-145 12q-172 27 -262 166q-39 58 -57.5 140.5
t-18.5 171.5q0 51 6 101q24 156 59 260q0 2 1 4v2l393 -116l-14.5 -60t-32.5 -139q-7 -26 -7 -46t11.5 -32t43.5 -12h773q31 0 72 1.5t61 3.5q-96 111 -212 215t-204.5 174t-101.5 79l42 347z" />
    <glyph glyph-name="uni06A9.fina" unicode="&#x6a9;" horiz-adv-x="2008" arabic-form="final" 
d="M1982 -61q-112 0 -207.5 15.5t-181.5 63.5q-60 34 -113 84q-55 -60 -132 -100q-124 -63 -267 -63h-306q-137 0 -222 2t-145 12q-172 27 -262 166q-40 59 -57.5 138.5t-17.5 165.5q0 55 6 110q24 156 59 260q0 2 1 4v2l393 -116l-14.5 -60t-32.5 -139q-7 -26 -7 -46
t11.5 -32t43.5 -12h520q43 0 89 5t79 13t38 17l-37.5 51.5t-87.5 118.5l-240 288l71 312l865 419l179 -369l-635 -307q19 -24 102 -131.5t169 -221.5q71 -95 113 -136t88.5 -49.5t138.5 -8.5h44l-1 -456h-44z" />
    <glyph glyph-name="uni06AF" unicode="&#x6af;" horiz-adv-x="2016" arabic-form="isolated" 
d="M1845 1613l170 -372l-600 -275l41 -41q70 -68 158 -160q26 -28 50 -53q47 -49 82 -90.5t57 -88.5q26 -55 37.5 -108t11.5 -101q0 -88 -29 -152q-19 -49 -72 -103.5t-156 -90.5q-111 -38 -282 -38h-528q-137 0 -222 2t-145 12q-172 27 -262 166q-39 58 -57.5 140.5
t-18.5 171.5q0 51 6 101q24 156 59 260q0 2 1 4v2l393 -116l-14.5 -60t-32.5 -139q-7 -26 -7 -46t11.5 -32t43.5 -12h773q31 0 72 1.5t61 3.5q-96 111 -212 215t-204.5 174t-101.5 79l42 347zM972.409 1306.81l13.5342 145.25l778.726 333.461l54.1357 -114.563z" />
    <glyph glyph-name="uni06AF.init" unicode="&#x6af;" horiz-adv-x="1207" arabic-form="initial" 
d="M120 872l42 347l875 399l170 -373l-599 -274q24 -25 52 -53q65 -64 146 -149q15 -16 29 -30q56 -58 96 -105.5t65 -99.5q33 -71 42 -130q6 -44 6 -84q0 -15 -2 -49t-27 -100q-19 -49 -72 -103.5t-155 -91.5q-111 -38 -282 -38h-531v457h531q30 0 71 1.5t61 3.5
q-93 108 -206 210.5t-201.5 174t-107.5 85.5zM177 1316l13 142l748 326l52 -112z" />
    <glyph glyph-name="uni06AF.medi" unicode="&#x6af;" horiz-adv-x="1252" arabic-form="medial" 
d="M933 589q71 -95 113 -136.5t89 -49.5t139 -8v-458q-113 0 -208.5 15t-181.5 63q-60 35 -112 84q-55 -58 -132 -99q-125 -63 -268 -63h-387v458h357q43 0 89 5t79 12.5t38 16.5l-37.5 51.5t-87.5 117.5l-240 289l71 311l865 419l178 -368l-634 -308q11 -13 54.5 -69.5
t102 -133t113.5 -149.5zM268 1317l13 142l748 326l52 -112z" />
    <glyph glyph-name="uni06AF.fina" unicode="&#x6af;" horiz-adv-x="2008" arabic-form="final" 
d="M1991 -61q-112 0 -207.5 15.5t-181.5 63.5q-60 34 -113 84q-55 -60 -132 -100q-124 -63 -267 -63h-306q-137 0 -222 2t-145 12q-172 27 -262 166q-40 59 -57.5 138.5t-17.5 165.5q0 55 6 110q24 156 59 260q0 2 1 4v2l393 -116l-14.5 -60t-32.5 -139q-7 -26 -7 -46
t11.5 -32t43.5 -12h520q43 0 89 5t79 13t38 17l-37.5 51.5t-87.5 118.5l-240 288l71 312l865 419l179 -369l-635 -307q19 -24 102 -131.5t169 -221.5q71 -95 113 -136t88.5 -49.5t138.5 -8.5h44l-1 -456h-44zM989 1318l13 142l748 326l52 -112z" />
    <glyph glyph-name="uni06BA" unicode="&#x6ba;" horiz-adv-x="1622" arabic-form="isolated" 
d="M1572 713v-661q0 -164 -43 -278.5t-114.5 -187.5t-160 -113.5t-182.5 -56t-179 -15.5h-118q-160 0 -276.5 41t-196 110.5t-126.5 156.5t-67.5 182.5t-20.5 185.5q0 29 2 57q15 225 140 506l374 -168q-96 -212 -105 -363v-5q-2 -16 -2 -36q0 -30 9 -66.5t36.5 -69
t83 -53.5t149.5 -21h118q98 0 152.5 17t80 44t31.5 57.5t6 58.5v678h409z" />
    <glyph glyph-name="uni06BA.fina" unicode="&#x6ba;" horiz-adv-x="1697" arabic-form="final" 
d="M1572 474q0 -79 75 -79h75v-456h-75q-40 0 -77 5q-1 -98 -41 -191q-43 -106 -114.5 -175.5t-160 -108t-182.5 -53.5t-179 -15h-118q-170 0 -291.5 45t-201 120.5t-126.5 168.5t-60 205q-8 73 -8 133q0 32 2 61q15 225 140 506l374 -168q-96 -212 -105 -363v-5
q-1 -14 -1 -31t2 -48t26 -71.5t82 -68t167 -27.5h118q102 0 157.5 18.5t79.5 47t29 60.5q4 26 4 50v679h409v-239z" />
    <glyph glyph-name="uni062F.fina" unicode="&#x62f;" horiz-adv-x="1281" arabic-form="final" 
d="M1253 394h53v-456h-97q-143 1 -275 106q-36 -33 -80 -57q-115 -63 -250 -63q-113 0 -235.5 22.5t-210.5 46t-108 30.5l122 437q38 -12 113 -31t162 -34.5t157 -15.5q26 0 42 7t21 16q2 4 2 9q0 9 -4.5 19t-7.5 15l-1 1q-192 283 -270.5 400.5t-77.5 117.5l343 224
q0 -1 77 -116.5t267 -396.5q7 -10 13 -21q5 -9 32.5 -48.5t66 -88.5t78 -86t68.5 -37z" />
    <glyph glyph-name="uni06C1.fina" unicode="&#x6c1;" horiz-adv-x="1336" arabic-form="final" 
d="M756 1110l235 -154v-3q27 -113 40.5 -168t22.5 -91t23 -91l18 -69q8 -34 26.5 -65.5t60.5 -52.5t121 -21h58v-454h-75q-88 0 -181.5 24.5t-151.5 65.5q-106 75 -155 168q-61 106 -100 232q-9 41 -17 69q-14 54 -23 88t-20 82q-80 -17 -111 -50t-31 -82q0 -35 11 -79
q76 -305 81 -305l-393 -116q-3 4 -85 322q-24 99 -24 184q0 117 39 207t101.5 154t137 102.5t147.5 53.5q84 18 152 31.5t93 17.5z" />
    <glyph glyph-name="uni0686" unicode="&#x686;" horiz-adv-x="1602" arabic-form="isolated" 
d="M559 1461q90 0 226 -36t285.5 -88t285.5 -103q70 -26 131 -48l56 -425q-61 -25 -168 -68q-200 -80 -447.5 -179.5t-412.5 -166.5q12 -60 30.5 -144t38 -165.5t32.5 -137.5l13 -56h775v-456h-608q-113 0 -203.5 11.5t-162.5 55.5t-128 138.5t-100 258t-79 413.5
q-10 62 -10 116q0 129 70 226t310 177q236 83 400 135l164 52q-192 44 -317 69.5t-165 25.5q-23 0 -41 -24t-36 -67l-384 98q50 192 185 298q120 90 260 90zM1020 183l161 -160l-161 -160l-160 160zM832 447l176 -176l-176 -176l-176 176zM1207 447l176 -176l-176 -176
l-175 176z" />
    <glyph glyph-name="uni0686.fina" unicode="&#x686;" horiz-adv-x="1729" arabic-form="final" 
d="M1131 337q-111 -44 -234 -93q-247 -100 -412 -167q11 -60 30 -144t38 -166t33 -137l13 -56h775v-456h-608q-113 0 -204 12q-90 11 -162 55t-128 139q-57 94 -100 257q-44 164 -79 414q-10 62 -10 116q0 129 58 209q82 114 322 194q236 82 400 135l164 52q-192 44 -317 69
q-125 26 -165 26q-23 0 -41 -24q-19 -24 -36 -67l-384 98q50 192 185 298q120 90 260 90q90 0 226 -36t286 -88q149 -52 285 -103q70 -26 131 -48l56 -426q-28 -10 -64 -25q0 -1 1 -2q3 -5 11.5 -13.5t26 -17.5t46.5 -17.5t72 -13.5t104 -5h38v-457h-23q-179 0 -312.5 38.5
t-207.5 132.5q-68 85 -74 227zM907 -102l161 -160l-161 -160l-160 160zM719 162l176 -176l-176 -176l-176 176zM1094 162l176 -176l-176 -176l-175 176z" />
    <glyph glyph-name="uni0623" unicode="&#x623;" horiz-adv-x="610" arabic-form="isolated" 
d="M510 1280v-1342h-410v1342h410zM508 1508l-499 -164v160l115 37q-30 31 -47 68.5t-17 81.5q0 68 46.5 129.5t112.5 82.5q34 10 70 10q38 0 70.5 -10t63.5 -23l-32 -133q-60 17 -101 17q-14 0 -25 -3q-23 -7 -41.5 -25.5t-18.5 -42.5q0 -9 3 -19q7 -25 35.5 -41.5
t79.5 -16.5q13 0 29.5 2.5t50.5 11.5t97 30z" />
    <glyph glyph-name="uni0623.fina" unicode="&#x623;" horiz-adv-x="641" arabic-form="final" 
d="M665 395v-456h-89q-88 0 -154.5 20t-113.5 50t-77 60q-31 30 -60.5 77t-50 113.5t-20.5 154.5q0 121 0.5 394.5t0.5 416.5v55h409v-821q0 -35 23 -49.5t41 -14.5h91zM516 1514l-499 -164v160l115 37q-30 31 -47 68.5t-17 81.5q0 68 46.5 129.5t112.5 82.5q34 10 70 10
q38 0 70.5 -10t63.5 -23l-32 -133q-60 17 -101 17q-14 0 -25 -3q-23 -7 -41.5 -25.5t-18.5 -42.5q0 -9 3 -19q7 -25 35.5 -41.5t79.5 -16.5q13 0 29.5 2.5t50.5 11.5t97 30z" />
    <glyph glyph-name="uni0625" unicode="&#x625;" horiz-adv-x="610" arabic-form="isolated" 
d="M510 1427v-1491h-410v1491h410zM546 -542l-499 -164v160l115 37q-30 31 -47 68.5t-17 81.5q0 68 46.5 129.5t112.5 82.5q34 10 70 10q38 0 70.5 -10t63.5 -23l-32 -133q-60 17 -101 17q-14 0 -25 -3q-23 -7 -41.5 -25.5t-18.5 -42.5q0 -9 3 -19q7 -25 35.5 -41.5
t79.5 -16.5q13 0 29.5 2.5t50.5 11.5t97 30z" />
    <glyph glyph-name="uni0625.fina" unicode="&#x625;" horiz-adv-x="638" arabic-form="final" 
d="M665 395v-458h-89q-88 0 -154.5 20t-113.5 50t-77 60q-31 30 -60.5 77t-50 113.5t-20.5 154.5v271t0.5 380.5t0.5 298.5v65h409v-968q0 -35 23 -49.5t41 -14.5h91zM570 -533l-499 -164v160l115 37q-30 31 -47 68.5t-17 81.5q0 68 46.5 129.5t112.5 82.5q34 10 70 10
q38 0 70.5 -10t63.5 -23l-32 -133q-60 17 -101 17q-14 0 -25 -3q-23 -7 -41.5 -25.5t-18.5 -42.5q0 -9 3 -19q7 -25 35.5 -41.5t79.5 -16.5q13 0 29.5 2.5t50.5 11.5t97 30z" />
    <glyph glyph-name="uni0622" unicode="&#x622;" horiz-adv-x="847" arabic-form="isolated" 
d="M634 1280v-1342h-410v1342h410zM847 1711v-287h-517q-60 0 -90.5 -16.5t-44 -40.5t-19.5 -50l-276 78q17 64 47 125t87 109q95 82 296 82h517z" />
    <glyph glyph-name="uni0622.fina" unicode="&#x622;" horiz-adv-x="747" arabic-form="final" 
d="M759 395v-456h-89q-88 0 -154.5 20t-113.5 50t-77 60q-31 30 -60.5 77t-50 113.5t-20.5 154.5q0 121 0.5 394.5t0.5 416.5v55h409v-821q0 -35 23 -49.5t41 -14.5h91zM847 1710v-287h-517q-60 0 -90.5 -16.5t-44 -40.5t-19.5 -50l-276 78q17 64 47 125t87 109
q95 82 296 82h517z" />
    <glyph glyph-name="uni0671" unicode="&#x671;" horiz-adv-x="610" arabic-form="isolated" 
d="M510 1280v-1342h-410v1342h410zM446 1416h-481l26 119h133l43 66l83 122q36 53 88 84t113 31q47 0 91.5 -24t73.5 -73.5t29 -125.5q0 -74 -31 -117.5t-77 -62.5t-91 -19zM451 1719q-32 0 -65 -28.5t-64 -70.5t-57 -85h181q34 0 56.5 19t22.5 61q0 102 -74 104z" />
    <glyph glyph-name="uni0671.fina" unicode="&#x671;" horiz-adv-x="646" arabic-form="final" 
d="M665 395v-456h-89q-88 0 -154.5 20t-113.5 50t-77 60q-31 30 -60.5 77t-50 113.5t-20.5 154.5q0 121 0.5 394.5t0.5 416.5v55h409v-821q0 -35 23 -49.5t41 -14.5h91zM446 1416h-481l26 119h133l43 66l83 122q36 53 88 84t113 31q47 0 91.5 -24t73.5 -73.5t29 -125.5
q0 -74 -31 -117.5t-77 -62.5t-91 -19zM451 1719q-32 0 -65 -28.5t-64 -70.5t-57 -85h181q34 0 56.5 19t22.5 61q0 102 -74 104z" />
    <glyph glyph-name="uni0628" unicode="&#x628;" horiz-adv-x="2076" arabic-form="isolated" 
d="M785 -61q-137 0 -222 2t-145 12q-172 27 -262 166q-75 139 -75 321q0 45 5 93q24 156 59 260q0 2 1 4v2l393 -116v-1q-2 -7 -14 -59q-15 -60 -33 -139q-7 -25 -7 -45v-3q0 -18 11.5 -30t43.5 -12l807 1h196q51 0 60 18q4 8 4 21q0 14 -5 35l-40 209l397 116q3 -16 7 -36
q17 -92 38 -213q15 -77 15 -143q0 -34 -4 -66q-4 -151 -84 -248q-71 -86 -187 -122q-85 -27 -201 -27h-758zM1290 -356l-234 -233l-233 233l233 234z" />
    <glyph glyph-name="uni0628.init" unicode="&#x628;" horiz-adv-x="754" arabic-form="initial" 
d="M629 849l17 -91.5t39 -212.5q15 -78 15 -144q0 -34 -4 -65q-8 -61 -29.5 -126.5t-56.5 -108.5q-70 -91 -185 -135q-85 -27 -201 -27h-249v456h249q37 0 50 9.5t13 29.5q0 15 -4 35l-50 260zM535 -370l-234 -233l-233 233l233 234z" />
    <glyph glyph-name="uni0628.medi" unicode="&#x628;" horiz-adv-x="770" arabic-form="medial" 
d="M681 713v-270q0 -25 11 -36.5t55 -11.5h48v-456h-40q-153 0 -278 77q-41 -24 -86 -41q-100 -36 -228 -36h-188v456h217q49 0 64 10.5t15 37.5v270h410zM608 -381l-234 -233l-233 233l233 234z" />
    <glyph glyph-name="uni0628.fina" unicode="&#x628;" horiz-adv-x="2204" arabic-form="final" 
d="M147 794l393 -116l-14.5 -60t-32.5 -139q-7 -26 -7 -46t11.5 -32t43.5 -12h959q69 0 93 28t24 85v211h409v-245q2 -37 29 -55t88 -18h86v-458q-137 0 -207 3.5t-106.5 17.5t-66.5 43q-53 -34 -111.5 -48.5t-121 -17.5t-127.5 -3h-703q-137 0 -222 2t-145 12
q-172 27 -262 166q-39 60 -57.5 143.5t-18.5 172.5q0 51 6 100q24 156 59 260q0 2 1 4v2zM1312 -369l-234 -233l-233 233l233 234z" />
    <glyph glyph-name="uni067E" unicode="&#x67e;" horiz-adv-x="2076" arabic-form="isolated" 
d="M786 -61q-137 0 -222 2t-145 12q-172 27 -262 166q-75 139 -75 321q0 45 5 93q24 156 59 260q0 2 1 4v2l393 -116v-1q-2 -7 -14 -59q-15 -60 -33 -139q-7 -25 -7 -45v-3q0 -18 11.5 -30t43.5 -12l807 1h196q51 0 60 18q4 8 4 21q0 14 -5 35l-40 209l397 116q3 -16 7 -36
q17 -92 38 -213q15 -77 15 -143q0 -34 -4 -66q-4 -151 -84 -248q-71 -86 -187 -122q-85 -27 -201 -27h-758zM1062 -493l201 -200l-201 -201l-200 201zM827 -164l220 -219l-220 -220l-219 220zM1296 -164l220 -219l-220 -220l-219 220z" />
    <glyph glyph-name="uni067E.fina" unicode="&#x67e;" horiz-adv-x="2204" arabic-form="final" 
d="M147 794l393 -116l-14.5 -60t-32.5 -139q-7 -26 -7 -46t11.5 -32t43.5 -12h959q69 0 93 28t24 85v211h409v-245q2 -37 29 -55t88 -18h86v-458q-137 0 -207 3.5t-106.5 17.5t-66.5 43q-53 -34 -111.5 -48.5t-121 -17.5t-127.5 -3h-703q-137 0 -222 2t-145 12
q-172 27 -262 166q-39 60 -57.5 143.5t-18.5 172.5q0 51 6 100q24 156 59 260q0 2 1 4v2zM1061 -492l201 -200l-201 -201l-200 201zM826 -163l220 -219l-220 -220l-219 220zM1295 -163l220 -219l-220 -220l-219 220z" />
    <glyph glyph-name="uni067E.init" unicode="&#x67e;" horiz-adv-x="923" arabic-form="initial" 
d="M794 849l17 -91.5t39 -212.5q15 -78 15 -144q0 -34 -4 -65q-8 -61 -29.5 -126.5t-56.5 -108.5q-70 -91 -185 -135q-85 -27 -201 -27h-444v456h444q37 0 50 9.5t13 29.5q0 15 -4 35l-50 260zM466 -495l201 -200l-201 -201l-200 201zM231 -166l220 -219l-220 -220l-219 220
zM700 -166l220 -219l-220 -220l-219 220z" />
    <glyph glyph-name="uni067E.medi" unicode="&#x67e;" horiz-adv-x="1024" arabic-form="medial" 
d="M828 713v-270q0 -25 11 -36.5t55 -11.5h155v-456h-147q-76 0 -147 22t-131 60q-58 -46 -129.5 -64t-184.5 -18h-335v456h364q49 0 64 10.5t15 37.5v270h410zM505 -490l201 -200l-201 -201l-200 201zM270 -161l220 -219l-220 -220l-219 220zM739 -161l220 -219l-220 -220
l-219 220z" />
    <glyph glyph-name="uni062A" unicode="&#x62a;" horiz-adv-x="2076" arabic-form="isolated" 
d="M786 -61q-137 0 -222 2t-145 12q-172 27 -262 166q-75 139 -75 321q0 45 5 93q24 156 59 260q0 2 1 4v2l393 -116v-1q-2 -7 -14 -59q-15 -60 -33 -139q-7 -25 -7 -45v-3q0 -18 11.5 -30t43.5 -12l807 1h196q51 0 60 18q4 8 4 21q0 14 -5 35l-40 209l397 116q3 -16 7 -36
q17 -92 38 -213q15 -77 15 -143q0 -34 -4 -66q-4 -151 -84 -248q-71 -86 -187 -122q-85 -27 -201 -27h-758zM1054 929l-220 -219l-219 219l219 220zM1523 929l-220 -219l-219 219l219 220z" />
    <glyph glyph-name="uni062A.init" unicode="&#x62a;" horiz-adv-x="923" arabic-form="initial" 
d="M794 849l17 -91.5t39 -212.5q15 -78 15 -144q0 -34 -4 -65q-8 -61 -29.5 -126.5t-56.5 -108.5q-70 -91 -185 -135q-85 -27 -201 -27h-444v456h444q37 0 50 9.5t13 29.5q0 15 -4 35l-50 260zM450 1189l-220 -219l-219 219l219 220zM919 1189l-220 -219l-219 219l219 220z
" />
    <glyph glyph-name="uni062A.medi" unicode="&#x62a;" horiz-adv-x="1024" arabic-form="medial" 
d="M503 1112l-220 -219l-219 219l219 220zM972 1112l-220 -219l-219 219l219 220zM828 713v-270q0 -25 11 -36.5t55 -11.5h155v-456h-147q-76 0 -147 22t-131 60q-58 -46 -129.5 -64t-184.5 -18h-335v456h364q49 0 64 10.5t15 37.5v270h410z" />
    <glyph glyph-name="uni062A.fina" unicode="&#x62a;" horiz-adv-x="2204" arabic-form="final" 
d="M147 794l393 -116l-14.5 -60t-32.5 -139q-7 -26 -7 -46t11.5 -32t43.5 -12h959q69 0 93 28t24 85v211h409v-245q2 -37 29 -55t88 -18h86v-458q-137 0 -207 3.5t-106.5 17.5t-66.5 43q-53 -34 -111.5 -48.5t-121 -17.5t-127.5 -3h-703q-137 0 -222 2t-145 12
q-172 27 -262 166q-39 60 -57.5 143.5t-18.5 172.5q0 51 6 100q24 156 59 260q0 2 1 4v2zM1054 929l-220 -219l-219 219l219 220zM1523 929l-220 -219l-219 219l219 220z" />
    <glyph glyph-name="uni062B" unicode="&#x62b;" horiz-adv-x="2076" arabic-form="isolated" 
d="M786 -61q-137 0 -222 2t-145 12q-172 27 -262 166q-75 139 -75 321q0 45 5 93q24 156 59 260q0 2 1 4v2l393 -116v-1q-2 -7 -14 -59q-15 -60 -33 -139q-7 -25 -7 -45v-3q0 -18 11.5 -30t43.5 -12l807 1h196q51 0 60 18q4 8 4 21q0 14 -5 35l-40 209l397 116q3 -16 7 -36
q17 -92 38 -213q15 -77 15 -143q0 -34 -4 -66q-4 -151 -84 -248q-71 -86 -187 -122q-85 -27 -201 -27h-758zM1267 1191l-201 -200l-200 200l200 201zM1051 881l-220 -219l-219 219l219 220zM1520 881l-220 -219l-219 219l219 220z" />
    <glyph glyph-name="uni062B.init" unicode="&#x62b;" horiz-adv-x="923" arabic-form="initial" 
d="M794 849l17 -91.5t39 -212.5q15 -78 15 -144q0 -34 -4 -65q-8 -61 -29.5 -126.5t-56.5 -108.5q-70 -91 -185 -135q-85 -27 -201 -27h-444v456h444q37 0 50 9.5t13 29.5q0 15 -4 35l-50 260zM671 1467l-201 -200l-200 200l200 201zM455 1157l-220 -219l-219 219l219 220z
M924 1157l-220 -219l-219 219l219 220z" />
    <glyph glyph-name="uni062B.medi" unicode="&#x62b;" horiz-adv-x="1024" arabic-form="medial" 
d="M828 713v-270q0 -25 11 -36.5t55 -11.5h155v-456h-147q-76 0 -147 22t-131 60q-58 -46 -129.5 -64t-184.5 -18h-335v456h364q49 0 64 10.5t15 37.5v270h410zM710 1405l-201 -200l-200 200l200 201zM494 1095l-220 -219l-219 219l219 220zM963 1095l-220 -219l-219 219
l219 220z" />
    <glyph glyph-name="uni062B.fina" unicode="&#x62b;" horiz-adv-x="2204" arabic-form="final" 
d="M147 794l393 -116l-14.5 -60t-32.5 -139q-7 -26 -7 -46t11.5 -32t43.5 -12h959q69 0 93 28t24 85v211h409v-245q2 -37 29 -55t88 -18h86v-458q-137 0 -207 3.5t-106.5 17.5t-66.5 43q-53 -34 -111.5 -48.5t-121 -17.5t-127.5 -3h-703q-137 0 -222 2t-145 12
q-172 27 -262 166q-39 60 -57.5 143.5t-18.5 172.5q0 51 6 100q24 156 59 260q0 2 1 4v2zM1287 1191l-201 -200l-200 200l200 201zM1071 881l-220 -219l-219 219l219 220zM1540 881l-220 -219l-219 219l219 220z" />
    <glyph glyph-name="uni0679" unicode="&#x679;" horiz-adv-x="2076" arabic-form="isolated" 
d="M786 -61q-137 0 -222 2t-145 12q-172 27 -262 166q-75 139 -75 321q0 45 5 93q24 156 59 260q0 2 1 4v2l393 -116v-1q-2 -7 -14 -59q-15 -60 -33 -139q-7 -25 -7 -45v-3q0 -18 11.5 -30t43.5 -12l807 1h196q51 0 60 18q4 8 4 21q0 14 -5 35l-40 209l397 116q3 -16 7 -36
q17 -92 38 -213q15 -77 15 -143q0 -34 -4 -66q-4 -151 -84 -248q-71 -86 -187 -122q-85 -27 -201 -27h-758zM1220 653h-423v119h100q3 3 4.5 5t2 3t1.5 2q0 2 2 5t5 7q8 13 26 39v487h117v-331q35 36 77.5 58t92.5 22q47 0 91.5 -22t73.5 -70t29 -125q0 -74 -31 -117.5
t-77 -62.5t-91 -19zM1225 950q-32 0 -64.5 -26.5t-63 -67t-58.5 -84.5h181q34 0 58.5 19t24.5 61q0 51 -21 74.5t-57 23.5z" />
    <glyph glyph-name="uni0679.init" unicode="&#x679;" horiz-adv-x="923" arabic-form="initial" 
d="M794 849l17 -91.5t39 -212.5q15 -78 15 -144q0 -34 -4 -65q-8 -61 -29.5 -126.5t-56.5 -108.5q-70 -91 -185 -135q-85 -27 -201 -27h-444v456h444q37 0 50 9.5t13 29.5q0 15 -4 35l-50 260zM663 993h-423v119h100q3 3 4.5 5t2 3t1.5 2q0 2 2 5t5 7q8 13 26 39v487h117
v-331q35 36 77.5 58t92.5 22q47 0 91.5 -22t73.5 -70t29 -125q0 -74 -31 -117.5t-77 -62.5t-91 -19zM668 1290q-32 0 -64.5 -26.5t-63 -67t-58.5 -84.5h181q34 0 58.5 19t24.5 61q0 51 -21 74.5t-57 23.5z" />
    <glyph glyph-name="uni0679.medi" unicode="&#x679;" horiz-adv-x="1024" arabic-form="medial" 
d="M828 713v-270q0 -25 11 -36.5t55 -11.5h155v-456h-147q-76 0 -147 22t-131 60q-58 -46 -129.5 -64t-184.5 -18h-335v456h364q49 0 64 10.5t15 37.5v270h410zM558 839h-423v119h100q3 3 4.5 5t2 3t1.5 2q0 2 2 5t5 7q8 13 26 39v487h117v-331q35 36 77.5 58t92.5 22
q47 0 91.5 -22t73.5 -70t29 -125q0 -74 -31 -117.5t-77 -62.5t-91 -19zM563 1136q-32 0 -64.5 -26.5t-63 -67t-58.5 -84.5h181q34 0 58.5 19t24.5 61q0 51 -21 74.5t-57 23.5z" />
    <glyph glyph-name="uni0679.fina" unicode="&#x679;" horiz-adv-x="2204" arabic-form="final" 
d="M147 794l393 -116l-14.5 -60t-32.5 -139q-7 -26 -7 -46t11.5 -32t43.5 -12h959q69 0 93 28t24 85v211h409v-245q2 -37 29 -55t88 -18h86v-458q-137 0 -207 3.5t-106.5 17.5t-66.5 43q-53 -34 -111.5 -48.5t-121 -17.5t-127.5 -3h-703q-137 0 -222 2t-145 12
q-172 27 -262 166q-39 60 -57.5 143.5t-18.5 172.5q0 51 6 100q24 156 59 260q0 2 1 4v2zM1232 663h-423v119h100q3 3 4.5 5t2 3t1.5 2q0 2 2 5t5 7q8 13 26 39v487h117v-331q35 36 77.5 58t92.5 22q47 0 91.5 -22t73.5 -70t29 -125q0 -74 -31 -117.5t-77 -62.5t-91 -19z
M1237 960q-32 0 -64.5 -26.5t-63 -67t-58.5 -84.5h181q34 0 58.5 19t24.5 61q0 51 -21 74.5t-57 23.5z" />
    <glyph glyph-name="uni0629" unicode="&#x629;" horiz-adv-x="1098" arabic-form="isolated" 
d="M553 352q18 0 42.5 10t43.5 32.5t19 58.5q0 18 -17 43.5t-38 50t-38 41l-17 16.5l-15.5 -15.5t-35 -39.5t-35 -50.5t-15.5 -48.5q0 -36 19.5 -57.5t44.5 -31t42 -9.5zM539 1188l6 -7q42 -48 308 -340q68 -69 125 -160.5t70 -237.5q2 -24 2 -46q0 -86 -21 -152t-54 -115
t-70 -82q-69 -62 -154.5 -87.5t-194.5 -25.5t-193 25t-154 90q-57 54 -98 151.5t-41 213.5v23q9 140 56.5 234.5t101.5 150.5q24 25 43 49q-12 13 -20 22q-18 20 -18 21zM511 1377l-220 -219l-219 219l219 220zM980 1377l-220 -219l-219 219l219 220z" />
    <glyph glyph-name="uni0629.fina" unicode="&#x629;" horiz-adv-x="1389" arabic-form="final" 
d="M571 435q21 0 39 5.5t29 11.5q34 19 47.5 47t13.5 61q0 28 -6.5 59t-14.5 61q-5 18 -9 35q-81 -34 -117.5 -52t-51.5 -34q-40 -42 -40 -86q0 -40 29 -73q18 -19 39 -27t42 -8zM961 1233q51 -218 81 -351q7 -32 13 -60q19 -89 36 -160.5t41 -166.5q7 -33 24 -55
t61.5 -33.5t137.5 -11.5h59v-457h-59q-112 0 -193.5 19.5t-137.5 48t-90.5 57.5t-51.5 50q-79 -44 -156 -58.5t-163 -14.5q-97 0 -191.5 37.5t-166 124.5t-103.5 235q-12 58 -12 119q0 75 23 152t78 148.5t149 130t234 98.5l-13 57zM647 1507l-220 -219l-219 219l219 220z
M1116 1507l-220 -219l-219 219l219 220z" />
    <glyph glyph-name="uni0686.init" unicode="&#x686;" horiz-adv-x="1506" arabic-form="initial" 
d="M495 973q56 0 109 -16q234 -70 442.5 -139t303.5 -102q40 -13 45 -15l51 -408q-160 -113 -323 -192t-421.5 -121t-725.5 -42l-1 457q311 0 588.5 11t416.5 54l-76.5 24t-176 54.5t-177.5 53.5q-12 3 -23 3q-28 0 -43.5 -25.5t-32.5 -72.5l-382 98q61 226 233 326
q94 52 193 52zM684 -505l201 -200l-201 -201l-200 201zM449 -176l220 -219l-220 -220l-219 220zM918 -176l220 -219l-220 -220l-219 220z" />
    <glyph glyph-name="uni0686.medi" unicode="&#x686;" horiz-adv-x="1547" arabic-form="medial" 
d="M1440 397l23 -1q23 0 54 -0.5t54 -0.5v-458q-113 0 -186.5 21.5t-116 49.5t-59.5 50l-17 22q-216 -81 -531 -112t-687 -31v458q188 0 388.5 3.5t366 17.5t256.5 43l-76 24q-77 24 -176 54.5t-178 53.5q-12 3 -23 3q-27 0 -43 -25.5t-33 -72.5l-382 98q61 226 233 326
q94 52 193 52q56 0 109 -16q233 -70 441.5 -139t304.5 -102q40 -14 45 -15l43 -303h-3zM693 -506l201 -200l-201 -201l-200 201zM458 -177l220 -219l-220 -220l-219 220zM927 -177l220 -219l-220 -220l-219 220z" />
    <glyph glyph-name="uni062C" unicode="&#x62c;" horiz-adv-x="1606" arabic-form="isolated" 
d="M624 1211q30 0 62 -4q35 -3 136.5 -39.5t342.5 -144.5q110 -50 169.5 -77.5t93.5 -43.5q12 -6 23 -11l53 -422q-27 -10 -159 -58t-304 -111.5t-321 -120t-211 -82.5q1 -5 2 -15q1 -23 7 -60t23 -75t49.5 -64.5t87.5 -26.5h683v-456h-558q-105 0 -195.5 9t-166 41
t-137.5 99t-110.5 180.5t-83.5 285.5q-14 74 -14 135q0 148 85 235.5t269 148.5q229 77 396.5 132l167.5 55q-172 46 -253.5 66t-110.5 27q-1 0 -2 1q-4 1 -8 1q-22 0 -40.5 -24t-36.5 -67l-384 98q51 192 185 298q121 90 260 90zM1381 99l-234 -233l-233 233l233 234z" />
    <glyph glyph-name="uni062C.init" unicode="&#x62c;" horiz-adv-x="1506" arabic-form="initial" 
d="M495 973q56 0 109 -16q234 -70 442.5 -139t303.5 -102q40 -13 45 -15l51 -408q-160 -113 -323 -192t-421.5 -121t-725.5 -42l-1 457q311 0 588.5 11t416.5 54l-76.5 24t-176 54.5t-177.5 53.5q-12 3 -23 3q-28 0 -43.5 -25.5t-32.5 -72.5l-382 98q61 226 233 326
q94 52 193 52zM906 -365l-234 -233l-233 233l233 234z" />
    <glyph glyph-name="uni062C.medi" unicode="&#x62c;" horiz-adv-x="1547" arabic-form="medial" 
d="M1440 397l23 -1q23 0 54 -0.5t54 -0.5v-458q-113 0 -186.5 21.5t-116 49.5t-59.5 50l-17 22q-216 -81 -531 -112t-687 -31v458q188 0 388.5 3.5t366 17.5t256.5 43l-76 24q-77 24 -176 54.5t-178 53.5q-12 3 -23 3q-27 0 -43 -25.5t-33 -72.5l-382 98q61 226 233 326
q94 52 193 52q56 0 109 -16q233 -70 441.5 -139t304.5 -102q40 -14 45 -15l43 -303h-3zM923 -365l-234 -233l-233 233l233 234z" />
    <glyph glyph-name="uni062C.fina" unicode="&#x62c;" horiz-adv-x="1719" arabic-form="final" 
d="M1121 338q-111 -45 -233 -94q-248 -99 -413 -166q4 -18 21.5 -78.5t39 -132.5t38.5 -126v-2q0 -1 1 -1v-3l2 -6q0 -1 1 -1v-3h1v-3q0 -1 1 -1v-3q1 -1 1 -2t1 -2q6 -20 7 -25q1 -1 1 -2h774v-457h-608q-113 0 -203 12q-91 11 -163 55t-128 139q-20 35 -57.5 136
t-73 218.5t-48.5 205.5q-10 61 -10 114q0 130 59 211q81 114 321 194q236 82 400 134l164 53q-192 43 -317 69t-165 26q-22 0 -41 -24q-18 -24 -36 -67l-384 98q51 192 185 298q121 90 260 90q90 0 227 -36q136 -37 285 -89t285 -102q71 -27 132 -49l55 -425l-64 -26l1 -2
q3 -5 12 -13t26 -17q18 -10 47 -18t72 -13q43 -6 103 -6h39v-457h-118q-192 0 -330 88t-170 311zM1195 -29l-234 -233l-233 233l233 234z" />
    <glyph glyph-name="uni062E" unicode="&#x62e;" horiz-adv-x="1606" arabic-form="isolated" 
d="M624 1211q30 0 62 -4q35 -3 136.5 -39.5t342.5 -144.5q110 -50 169.5 -77.5t93.5 -43.5q12 -6 23 -11l53 -422q-27 -10 -159 -58t-304 -111.5t-321 -120t-211 -82.5q1 -5 2 -15q1 -23 7 -60t23 -75t49.5 -64.5t87.5 -26.5h683v-456h-558q-105 0 -195.5 9t-166 41
t-137.5 99t-110.5 180.5t-83.5 285.5q-14 74 -14 135q0 148 85 235.5t269 148.5q229 77 396.5 132l167.5 55q-172 46 -253.5 66t-110.5 27q-1 0 -2 1q-4 1 -8 1q-22 0 -40.5 -24t-36.5 -67l-384 98q51 192 185 298q121 90 260 90zM823 1539l-234 -233l-233 233l233 234z" />
    <glyph glyph-name="uni062E.init" unicode="&#x62e;" horiz-adv-x="1506" arabic-form="initial" 
d="M495 973q56 0 109 -16q234 -70 442.5 -139t303.5 -102q40 -13 45 -15l51 -408q-160 -113 -323 -192t-421.5 -121t-725.5 -42l-1 457q311 0 588.5 11t416.5 54l-76.5 24t-176 54.5t-177.5 53.5q-12 3 -23 3q-28 0 -43.5 -25.5t-32.5 -72.5l-382 98q61 226 233 326
q94 52 193 52zM678 1313l-234 -233l-233 233l233 234z" />
    <glyph glyph-name="uni062E.medi" unicode="&#x62e;" horiz-adv-x="1547" arabic-form="medial" 
d="M1440 397l23 -1q23 0 54 -0.5t54 -0.5v-458q-113 0 -186.5 21.5t-116 49.5t-59.5 50l-17 22q-216 -81 -531 -112t-687 -31v458q188 0 388.5 3.5t366 17.5t256.5 43l-76 24q-77 24 -176 54.5t-178 53.5q-12 3 -23 3q-27 0 -43 -25.5t-33 -72.5l-382 98q61 226 233 326
q94 52 193 52q56 0 109 -16q233 -70 441.5 -139t304.5 -102q40 -14 45 -15l43 -303h-3zM728 1314l-234 -233l-233 233l233 234z" />
    <glyph glyph-name="uni062E.fina" unicode="&#x62e;" horiz-adv-x="1719" arabic-form="final" 
d="M1121 338q-111 -45 -233 -94q-248 -99 -413 -166q4 -18 21.5 -78.5t39 -132.5t38.5 -126v-2q0 -1 1 -1v-3l2 -6q0 -1 1 -1v-3h1v-3q0 -1 1 -1v-3q1 -1 1 -2t1 -2q6 -20 7 -25q1 -1 1 -2h774v-457h-608q-113 0 -203 12q-91 11 -163 55t-128 139q-20 35 -57.5 136
t-73 218.5t-48.5 205.5q-10 61 -10 114q0 130 59 211q81 114 321 194q236 82 400 134l164 53q-192 43 -317 69t-165 26q-22 0 -41 -24q-18 -24 -36 -67l-384 98q51 192 185 298q121 90 260 90q90 0 227 -36q136 -37 285 -89t285 -102q71 -27 132 -49l55 -425l-64 -26l1 -2
q3 -5 12 -13t26 -17q18 -10 47 -18t72 -13q43 -6 103 -6h39v-457h-118q-192 0 -330 88t-170 311zM844 1551l-234 -233l-233 233l233 234z" />
    <glyph glyph-name="uni0630" unicode="&#x630;" horiz-adv-x="1162" arabic-form="isolated" 
d="M329 972l338 231q0 1 46 -65q69 -100 311 -444q77 -110 90 -236q3 -28 3 -57q0 -54 -11 -111t-38 -113q-59 -112 -167.5 -174t-244.5 -62q-112 0 -241.5 27.5t-226 56t-118.5 36.5l130 428q92 -31 230 -64.5t226 -33.5q42 0 48 15q2 4 2 10q0 15 -17 42
q-266 380 -327 466q-32 47 -33 48zM837 1559l-234 -233l-233 233l233 234z" />
    <glyph glyph-name="uni0630.fina" unicode="&#x630;" horiz-adv-x="1281" arabic-form="final" 
d="M1253 394h53v-456h-97q-143 1 -275 106q-36 -33 -80 -57q-115 -63 -250 -63q-113 0 -235.5 22.5t-210.5 46t-108 30.5l122 437q38 -12 113 -31t162 -34.5t157 -15.5q26 0 42 7t21 16q2 4 2 9q0 9 -4.5 19t-7.5 15l-1 1q-192 283 -270.5 400.5t-77.5 117.5l343 224
q0 -1 77 -116.5t267 -396.5q7 -10 13 -21q5 -9 32.5 -48.5t66 -88.5t78 -86t68.5 -37zM853 1558l-234 -233l-233 233l233 234z" />
    <glyph glyph-name="uni0688" unicode="&#x688;" horiz-adv-x="1162" arabic-form="isolated" 
d="M329 972l338 231q0 1 46 -65q69 -100 311 -444q77 -110 90 -236q3 -28 3 -57q0 -54 -11 -111t-38 -113q-59 -112 -167.5 -174t-244.5 -62q-112 0 -241.5 27.5t-226 56t-118.5 36.5l130 428q92 -31 230 -64.5t226 -33.5q42 0 48 15q2 4 2 10q0 15 -17 42
q-266 380 -327 466q-32 47 -33 48zM731 1285h-423v119h100q3 3 4.5 5t2 3t1.5 2q0 2 2 5t5 7q8 13 26 39v487h117v-331q35 36 77.5 58t92.5 22q47 0 91.5 -22t73.5 -70t29 -125q0 -74 -31 -117.5t-77 -62.5t-91 -19zM736 1582q-32 0 -64.5 -26.5t-63 -67t-58.5 -84.5h181
q34 0 58.5 19t24.5 61q0 51 -21 74.5t-57 23.5z" />
    <glyph glyph-name="uni0688.fina" unicode="&#x688;" horiz-adv-x="1281" arabic-form="final" 
d="M1253 394h53v-456h-97q-143 1 -275 106q-36 -33 -80 -57q-115 -63 -250 -63q-113 0 -235.5 22.5t-210.5 46t-108 30.5l122 437q38 -12 113 -31t162 -34.5t157 -15.5q26 0 42 7t21 16q2 4 2 9q0 9 -4.5 19t-7.5 15l-1 1q-192 283 -270.5 400.5t-77.5 117.5l343 224
q0 -1 77 -116.5t267 -396.5q7 -10 13 -21q5 -9 32.5 -48.5t66 -88.5t78 -86t68.5 -37zM743 1285h-423v119h100q3 3 4.5 5t2 3t1.5 2q0 2 2 5t5 7q8 13 26 39v487h117v-331q35 36 77.5 58t92.5 22q47 0 91.5 -22t73.5 -70t29 -125q0 -74 -31 -117.5t-77 -62.5t-91 -19z
M748 1582q-32 0 -64.5 -26.5t-63 -67t-58.5 -84.5h181q34 0 58.5 19t24.5 61q0 51 -21 74.5t-57 23.5z" />
    <glyph glyph-name="uni0632" unicode="&#x632;" horiz-adv-x="876" arabic-form="isolated" 
d="M808 713v-537q0 -163 -43 -318t-124 -245q-95 -109 -237 -162q-135 -51 -306 -51h-98v457h98q171 0 236 73q39 48 51.5 118t12.5 128v537h410zM840 1067l-234 -233l-233 233l233 234z" />
    <glyph glyph-name="uni0632.fina" unicode="&#x632;" horiz-adv-x="904" arabic-form="final" 
d="M893 395h36v-457h-46q-46 0 -89 10q-17 -68 -52.5 -161t-99.5 -173q-95 -109 -238 -162q-135 -51 -305 -51h-99v456h99q170 0 236 73q39 48 51.5 118t12.5 128v537h410v-239q0 -31 21.5 -55t62.5 -24zM839 1069l-234 -233l-233 233l233 234z" />
    <glyph glyph-name="uni0691" unicode="&#x691;" horiz-adv-x="876" arabic-form="isolated" 
d="M808 713v-537q0 -163 -43 -318t-124 -245q-95 -109 -237 -162q-135 -51 -306 -51h-98v457h98q171 0 236 73q39 48 51.5 118t12.5 128v537h410zM613 876h-423v119h100q3 3 4.5 5t2 3t1.5 2q0 2 2 5t5 7q8 13 26 39v487h117v-331q35 36 77.5 58t92.5 22q47 0 91.5 -22
t73.5 -70t29 -125q0 -74 -31 -117.5t-77 -62.5t-91 -19zM618 1173q-32 0 -64.5 -26.5t-63 -67t-58.5 -84.5h181q34 0 58.5 19t24.5 61q0 51 -21 74.5t-57 23.5z" />
    <glyph glyph-name="uni0691.fina" unicode="&#x691;" horiz-adv-x="904" arabic-form="final" 
d="M893 395h36v-457h-46q-46 0 -89 10q-17 -68 -52.5 -161t-99.5 -173q-95 -109 -238 -162q-135 -51 -305 -51h-99v456h99q170 0 236 73q39 48 51.5 118t12.5 128v537h410v-239q0 -31 21.5 -55t62.5 -24zM650 870h-423v119h100q3 3 4.5 5t2 3t1.5 2q0 2 2 5t5 7q8 13 26 39
v487h117v-331q35 36 77.5 58t92.5 22q47 0 91.5 -22t73.5 -70t29 -125q0 -74 -31 -117.5t-77 -62.5t-91 -19zM655 1167q-32 0 -64.5 -26.5t-63 -67t-58.5 -84.5h181q34 0 58.5 19t24.5 61q0 51 -21 74.5t-57 23.5z" />
    <glyph glyph-name="uni0698" unicode="&#x698;" horiz-adv-x="985" arabic-form="isolated" 
d="M808 713v-537q0 -163 -43 -318t-124 -245q-95 -109 -237 -162q-135 -51 -306 -51h-98v457h98q171 0 236 73q39 48 51.5 118t12.5 128v537h410zM728 1392l-201 -200l-200 200l200 201zM512 1082l-220 -219l-219 219l219 220zM981 1082l-220 -219l-219 219l219 220z" />
    <glyph glyph-name="uni0698.fina" unicode="&#x698;" horiz-adv-x="913" arabic-form="final" 
d="M893 395h36v-457h-46q-46 0 -89 10q-17 -68 -52.5 -161t-99.5 -173q-95 -109 -238 -162q-135 -51 -305 -51h-99v456h99q170 0 236 73q39 48 51.5 118t12.5 128v537h410v-239q0 -31 21.5 -55t62.5 -24zM713 1386l-201 -200l-200 200l200 201zM497 1076l-220 -219l-219 219
l219 220zM966 1076l-220 -219l-219 219l219 220z" />
    <glyph glyph-name="uni0634" unicode="&#x634;" horiz-adv-x="2873" arabic-form="isolated" 
d="M2751 832l8.5 -41.5t19.5 -99.5t20 -113t12 -85q2 -25 2 -49q0 -117 -33.5 -208.5t-84.5 -152.5q-137 -141 -351 -146v-1q-106 0 -182.5 25t-128.5 60q-132 -85 -284 -85q-58 0 -108 8q-15 -149 -108 -288t-259 -206q-130 -49 -309 -49h-236q-180 0 -324.5 82t-231.5 253
l-4 8q-51 92 -78 200q-17 78 -17 163q0 36 3 73q17 249 162 536l366 -184q-121 -248 -121 -421q0 -96 38 -160q25 -39 60 -59.5t74 -28t73 -7.5h236q59 0 125.5 12t102.5 49q41 49 41 175v621h409v-235q0 -34 19 -60t79 -26q43 0 67.5 21.5t24.5 64.5v235h410v-235
q0 -37 21.5 -61t53.5 -24q40 0 62.5 22t22.5 43q0 3 -1 6q-9 53 -21 119t-21.5 116l-9.5 50zM2225 1431l-201 -200l-200 200l200 201zM2009 1121l-220 -219l-219 219l219 220zM2478 1121l-220 -219l-219 219l219 220z" />
    <glyph glyph-name="uni0634.init" unicode="&#x634;" horiz-adv-x="1844" arabic-form="initial" 
d="M1722 830l8.5 -41.5t19.5 -99.5t20 -113t11 -85q2 -22 2 -44q0 -81 -18 -152t-45 -124.5t-55 -83.5q-136 -142 -351 -149q-106 0 -182.5 25.5t-127.5 61.5q-61 -41 -125 -64t-140 -23q-106 0 -173.5 25.5t-117.5 61.5q-37 -40 -78.5 -58.5t-127.5 -23.5t-267 -5v457h155
q65 0 91.5 22.5t26.5 63.5v232h410v-237q0 -37 18.5 -61t50.5 -25q78 0 77 86v237h409v-237q0 -37 22 -61t54 -24q41 0 62.5 22.5t21.5 43.5v5q-9 53 -21 119t-21.5 116l-9.5 50zM1213 1432l-201 -200l-200 200l200 201zM997 1122l-220 -219l-219 219l219 220zM1466 1122
l-220 -219l-219 219l219 220z" />
    <glyph glyph-name="uni0634.medi" unicode="&#x634;" horiz-adv-x="1886" arabic-form="medial" 
d="M1698 713v-237q0 -41 26.5 -61t90.5 -20h96v-457q-153 0 -226.5 5t-111.5 23.5t-76 58.5q-69 -52 -185 -79q-37 -7 -79 -8h-4q-209 2 -286 87q-61 -41 -122 -64t-137 -23q-106 0 -173.5 25.5t-117.5 61.5l-17 -17q-28 -32 -58 -47t-103 -19t-240 -4v457h101q65 0 91 21
t26 62v235h410v-237q0 -37 17 -61t49 -25q77 0 74 86v237h409v-237q0 -37 21 -61t53 -24t47 24t15 61v237h410zM1153 1394l-201 -200l-200 200l200 201zM937 1084l-220 -219l-219 219l219 220zM1406 1084l-220 -219l-219 219l219 220z" />
    <glyph glyph-name="uni0634.fina" unicode="&#x634;" horiz-adv-x="2966" arabic-form="final" 
d="M238 716l366 -184q-121 -249 -121 -422q0 -95 38 -159q25 -39 60.5 -59.5t74.5 -28t72 -7.5h236q60 0 126 12t102 49q41 49 41 175v621h410v-237q0 -34 19 -60t79 -26q43 0 67.5 21.5t24.5 64.5v237h409v-237q0 -37 19 -61t51 -24t50 24t18 61v237h410v-232
q0 -41 26.5 -63.5t90.5 -22.5h84v-457q-112 0 -184 5t-120.5 23.5t-88.5 58.5q-47 -32 -119 -59.5t-159 -27.5q-106 0 -171.5 25.5t-115.5 61.5q-132 -85 -284 -85q-58 0 -109 8q-15 -151 -108 -291t-259 -206q-130 -49 -309 -49h-236q-179 0 -324 82t-231 252
q-54 97 -82 208q-17 80 -17 169q0 33 2 67q19 249 162 536zM2224 1410l-201 -200l-200 200l200 201zM2008 1100l-220 -219l-219 219l219 220zM2477 1100l-220 -219l-219 219l219 220z" />
    <glyph glyph-name="uni0636" unicode="&#x636;" horiz-adv-x="2955" arabic-form="isolated" 
d="M2865 731q40 -92 40 -226q0 -73 -12 -156.5t-48 -151.5q-55 -105 -156 -172q-58 -37 -115.5 -56t-107.5 -25t-82 -6h-679q-30 0 -59 3q-21 -203 -138 -338q-90 -103 -229 -153q-131 -48 -308 -48l-239 -1q-179 0 -311 80q-132 79 -217 209t-109 254q-17 81 -17 169
q0 33 2 67q19 249 162 536l366 -184q-18 -35 -33 -70q-15 -36 -28 -70q-60 -162 -60 -281q0 -94 38 -160q25 -39 60 -59q36 -21 75 -28q39 -8 72 -8l239 1q170 0 229 60q40 47 40 171v625h409v-82q-1 -82 -1 -200q95 173 219 288q115 109 233 168q148 75 301 75h20
q45 0 95 -3t101.5 -15.5t100.5 -41.5q100 -60 147 -171zM2359 393q86 0 119 22t33 75q0 38 -14 54t-41.5 19t-67.5 3q-58 0 -135.5 -39t-147.5 -105q-15 -13 -29 -29h283zM2636 1326l-234 -233l-233 233l233 234z" />
    <glyph glyph-name="uni0636.init" unicode="&#x636;" horiz-adv-x="1973" arabic-form="initial" 
d="M1439 963q45 0 95 -3t101.5 -15.5t100.5 -41.5q100 -60 147 -171q40 -92 40 -226q0 -73 -12.5 -156.5t-47.5 -151.5q-55 -105 -156 -172q-58 -37 -116 -56t-107.5 -25t-81.5 -6h-679q-153 0 -278 77q-40 -24 -87 -41q-99 -36 -227 -36h-156v456h179q18 0 38 2.5t33.5 12
t13.5 30.5v273h410v-314q100 195 236 321q114 109 233 168q148 75 301 75h20zM1094 394h283q86 0 119 22t33 75q0 38 -14 54t-41.5 19t-67.5 3q-58 0 -135.5 -39t-147.5 -105q-15 -14 -29 -29zM1642 1299l-234 -233l-233 233l233 234z" />
    <glyph glyph-name="uni0636.medi" unicode="&#x636;" horiz-adv-x="2008" arabic-form="medial" 
d="M1439 963q45 0 95 -3t101.5 -15.5t100.5 -41.5q100 -60 147 -171q40 -92 40 -226q0 -58 -10 -111h120v-458h-1310q-153 0 -278 77q-40 -24 -87 -41q-99 -36 -227 -36h-156v458h179q18 0 38 2.5t33.5 12t13.5 30.5v273h410v-314q100 195 236 321q114 109 233 168
q148 75 301 75h20zM1094 394h283q86 0 119 22t33 75q0 38 -14 54t-41.5 19t-67.5 3q-58 0 -135.5 -39t-147.5 -105q-15 -14 -29 -29zM1635 1300l-234 -233l-233 233l233 234z" />
    <glyph glyph-name="uni0636.fina" unicode="&#x636;" horiz-adv-x="2994" arabic-form="final" 
d="M2359 393q86 0 119 22t33 75q0 38 -14 54t-41.5 19t-67.5 3q-58 0 -135.5 -39t-147.5 -105q-15 -13 -29 -29h283zM2899 395h115v-457l-604 1q-14 -1 -26 -1h-679q-30 0 -59 3q-21 -203 -138 -338q-90 -103 -229 -153q-131 -48 -308 -48l-239 -1q-179 0 -311 80
q-132 79 -217 209t-109 254q-17 81 -17 169q0 33 2 67q19 249 162 536l366 -184q-18 -35 -33 -70q-15 -36 -28 -70q-60 -162 -60 -281q0 -94 38 -160q25 -39 60 -59q36 -21 75 -28q39 -8 72 -8l239 1q170 0 229 60q40 47 40 171v625h409v-82q-1 -82 -1 -200q95 173 219 288
q115 109 233 168q148 75 301 75h20q45 0 95 -3t101.5 -15.5t100.5 -41.5q100 -60 147 -171q40 -92 40 -226q0 -52 -6 -110zM2641 1321l-234 -233l-233 233l233 234z" />
    <glyph glyph-name="uni0638" unicode="&#x638;" horiz-adv-x="1552" arabic-form="isolated" 
d="M698 395h283q86 0 119 21.5t33 75.5q0 38 -14 53.5t-41.5 18.5t-67.5 3q-58 0 -135.5 -38.5t-147.5 -104.5l-10 -10q-10 -9 -19 -19zM688 1430v-539l-2 -13l11 6q149 79 302 79h20q45 0 95 -3t101.5 -15.5t100.5 -41.5q99 -60 147 -171q39 -92 39 -226q0 -73 -13.5 -156
t-46.5 -154q-55 -107 -156 -172q-58 -37 -115.5 -56t-107 -25t-82.5 -6h-911v458h159q24 36 49 72v963h410zM1282 1285l-234 -233l-233 233l233 234z" />
    <glyph glyph-name="uni0638.init" unicode="&#x638;" horiz-adv-x="1416" arabic-form="initial" 
d="M562 395h283q86 0 119 21.5t33 75.5q0 38 -14 53.5t-41.5 18.5t-67.5 3q-58 0 -135.5 -38.5t-147.5 -104.5l-10 -10q-10 -9 -19 -19zM552 1430v-539l-2 -13l11 6q149 79 302 79h20q45 0 95 -3t101.5 -15.5t100.5 -41.5q99 -60 147 -171q39 -92 39 -226q0 -73 -15 -162
t-45 -148q-55 -107 -156 -172q-58 -37 -115.5 -56t-107 -25t-82.5 -6h-870v458h118q24 36 49 72v963h410zM1150 1280l-234 -233l-233 233l233 234z" />
    <glyph glyph-name="uni0638.medi" unicode="&#x638;" horiz-adv-x="1477" arabic-form="medial" 
d="M1502 395v-458h-1527v458h118q24 36 49 72v963h410v-539l-2 -13l11 6q149 79 302 79h20q45 0 95 -3t101.5 -15.5t100.5 -41.5q99 -60 147 -171q39 -92 39 -226q0 -58 -9 -111h145zM562 395h283q86 0 119 21.5t33 75.5q0 38 -14 53.5t-41.5 18.5t-67.5 3
q-58 0 -135.5 -38.5t-147.5 -104.5l-10 -10q-10 -9 -19 -19zM1131 1281l-234 -233l-233 233l233 234z" />
    <glyph glyph-name="uni0638.fina" unicode="&#x638;" horiz-adv-x="1572" arabic-form="final" 
d="M1597 395v-458h-1527v458h118q24 36 49 72v963h410v-539l-2 -13l11 6q149 79 302 79h20q45 0 95 -3t101.5 -15.5t100.5 -41.5q99 -60 147 -171q39 -92 39 -226q0 -58 -9 -111h145zM657 395h283q86 0 119 21.5t33 75.5q0 38 -14 53.5t-41.5 18.5t-67.5 3
q-58 0 -135.5 -38.5t-147.5 -104.5l-10 -10q-10 -9 -19 -19zM1242 1282l-234 -233l-233 233l233 234z" />
    <glyph glyph-name="uni063A" unicode="&#x63a;" horiz-adv-x="1417" arabic-form="isolated" 
d="M784 892q10 -71 124 -104.5t294 -33.5h129v-456h-159h-11q-46 0 -169.5 0.5t-225.5 0.5q-68 0 -123.5 -12.5t-101.5 -58.5q-29 -31 -42 -67t-16 -63l-3 -27q0 -70 35 -118t96.5 -72t139.5 -24h516v-455h-516q-139 0 -263.5 48.5t-220.5 140.5q-197 258 -197 480
q0 173 63 306.5t181 225.5q51 40 109 70q-49 101 -49 219q0 219 161 379q162 146 378 146q82 0 153 -21.5t136.5 -54.5t127.5 -70l37 -21l-202 -356l-39 22q-4 2 -7 4q-65 38 -119 65t-93 27q-45 0 -84.5 -27t-39.5 -80q0 -6 1 -13zM1137 1775l-234 -233l-233 233l233 234z
" />
    <glyph glyph-name="uni063A.init" unicode="&#x63a;" horiz-adv-x="1200" arabic-form="initial" 
d="M649 1065q78 0 156.5 -20t142.5 -46t103 -46l39 -20l-177 -351l-42.5 18.5t-101 37t-110.5 21.5h-5q-56 0 -96 -34t-40 -83q0 -54 48 -84.5t126 -44.5t172 -18h10t23.5 -0.5t25.5 -0.5h16h128v-457h-1092v458h155q-22 71 -22 147q0 93 33 186t100 168.5t169 122t239 46.5
zM858 1424l-234 -233l-233 233l233 234z" />
    <glyph glyph-name="uni063A.medi" unicode="&#x63a;" horiz-adv-x="1290" arabic-form="medial" 
d="M663 511q24 18 63.5 56.5t75.5 78.5t52 64h-384q7 -12 35 -41.5t62.5 -64.5t62 -61.5t33.5 -31.5zM805 1084q120 0 226 -64q104 -66 155 -172q36 -82 36 -161q0 -126 -92 -244q-14 -16 -26 -32q-7 -8 -13 -16h224v-457h-429q-56 0 -110.5 18t-117.5 64q-67 -44 -185 -63
t-246 -19h-252v457h247q-48 53 -76 87.5t-30 38.5l-43 55v69q0 79 17 138t42 101t50 69q27 31 71.5 61t108.5 50t151 20h292zM905 1422l-234 -233l-233 233l233 234z" />
    <glyph glyph-name="uni063A.fina" unicode="&#x63a;" horiz-adv-x="1422" arabic-form="final" 
d="M945 1082q114 0 216 -60q96 -60 149 -157q44 -86 44 -177q0 -111 -66 -213q-28 -42 -66 -80h225v-457h-364q-113 0 -202.5 45.5t-147.5 125.5q-110 -50 -183 -107q-70 -52 -70 -138q0 -85 60.5 -147t142.5 -62h593l2 -454h-593q-124 0 -240 50q-110 48 -194 134t-130 196
q-29 77 -40 149t-11 134q0 97 26.5 173t66.5 133t84 97t81.5 64.5t57.5 34.5q7 5 11 7q-17 14 -37 32q-44 38 -86 73l-72 156q0 54 15.5 126.5t63.5 145.5q127 176 356 176h308zM792 511q25 18 64 56.5t75.5 78.5t51.5 64h-384q7 -12 35 -41.5t62.5 -64.5t62 -61.5
t33.5 -31.5zM1011 1419l-234 -233l-233 233l233 234z" />
    <glyph glyph-name="uni06A9.init" unicode="&#x6a9;" horiz-adv-x="1207" arabic-form="initial" 
d="M120 872l42 347l875 399l170 -373l-599 -274q24 -25 52 -53q65 -64 146 -149q15 -16 29 -30q56 -58 96 -105.5t65 -99.5q33 -71 42 -130q6 -44 6 -84q0 -15 -2 -49t-27 -100q-19 -49 -72 -103.5t-155 -91.5q-111 -38 -282 -38h-531v457h531q30 0 71 1.5t61 3.5
q-93 108 -206 210.5t-201.5 174t-107.5 85.5z" />
    <glyph glyph-name="uni06A9.medi" unicode="&#x6a9;" horiz-adv-x="1252" arabic-form="medial" 
d="M923 589q71 -95 113 -136.5t89 -49.5t139 -8v-458q-113 0 -208.5 15t-181.5 63q-60 35 -112 84q-55 -58 -132 -99q-125 -63 -268 -63h-387v458h357q43 0 89 5t79 12.5t38 16.5l-37.5 51.5t-87.5 117.5l-240 289l71 311l865 419l178 -368l-634 -308q11 -13 54.5 -69.5
t102 -133t113.5 -149.5z" />
    <glyph glyph-name="uni0641" unicode="&#x641;" horiz-adv-x="2111" arabic-form="isolated" 
d="M2022 427q0 -142 -69.5 -253t-203.5 -174.5t-327 -63.5h-632q-137 0 -222 2t-145 12q-172 27 -262 166q-75 139 -75 321q0 45 5 93q24 156 59 260q0 2 1 4v2l393 -117q-1 -4 -5 -21q-4 -14 -9 -38q-15 -60 -33 -139q-7 -25 -7 -45v-3q0 -18 11 -30q12 -12 44 -12h392v2
h95q-4 56 -4 105q0 167 47.5 276.5t121.5 174t157 91t154 26.5q215 0 369 -162q145 -164 145 -406v-71zM1629 430v96q0 47 -34 78.5t-84 31.5q-49 0 -82 -32t-33 -78q0 -26 5.5 -47.5t22 -35t50.5 -13.5h155zM1772 1425l-234 -233l-233 233l233 234z" />
    <glyph glyph-name="uni0641.init" unicode="&#x641;" horiz-adv-x="1159" arabic-form="initial" 
d="M1076 429q0 -141 -69.5 -252t-203.5 -175t-326 -64h-486v457h95q-4 56 -4 105q0 167 48 277t121.5 174t156.5 90.5t154 26.5q215 0 369 -162q145 -164 145 -406v-71zM565 638q-49 0 -82 -32t-33 -78q0 -25 5.5 -47t22 -35.5t50.5 -13.5h155v96q0 47 -33.5 78.5
t-84.5 31.5zM800 1426l-234 -233l-233 233l233 234z" />
    <glyph glyph-name="uni0641.medi" unicode="&#x641;" horiz-adv-x="1222" arabic-form="medial" 
d="M1124 395h122v-457h-216q-112 0 -206 11.5t-209 38.5q-100 -27 -201.5 -38.5t-214.5 -11.5h-219v457h125q-15 63 -15 132q0 222 147 384q150 162 378 162q227 0 377 -162q147 -162 147 -384q0 -69 -15 -132zM615 405q7 1 27.5 8.5t45.5 22.5t43.5 40.5t18.5 62.5
q0 12 -5 36.5t-19.5 49.5t-41 43t-69.5 18t-70 -18t-41 -43t-19 -49.5t-5 -36.5q0 -38 18.5 -63.5t43 -40.5t45.5 -22t28 -8zM848 1422l-234 -233l-233 233l233 234z" />
    <glyph glyph-name="uni0641.fina" unicode="&#x641;" horiz-adv-x="2198" arabic-form="final" 
d="M147 800l393 -116l-14.5 -60t-32.5 -139q-7 -26 -7 -46t11.5 -32t43.5 -12h556q-15 63 -15 132q0 222 147 384q150 162 378 162q227 0 377 -162q147 -162 147 -384q0 -69 -15 -132h107v-457h-201q-112 0 -206 11.5t-209 38.5q-94 -27 -222 -38.5t-380 -11.5
q-137 0 -325 2t-261 12q-172 27 -262 167q-39 57 -57.5 140.5t-18.5 174.5q0 50 6 100q24 156 59 260q0 2 1 4v2zM1607 405q7 1 27.5 8.5t45.5 22.5t43.5 40.5t18.5 62.5q0 12 -5 36.5t-19.5 49.5t-41 43t-69.5 18t-70 -18t-41 -43t-19 -49.5t-5 -36.5q0 -38 18.5 -63.5
t43 -40.5t45.5 -22t28 -8zM1840 1417l-234 -233l-233 233l233 234z" />
    <glyph glyph-name="veh.isol" unicode="&#x6a4;" horiz-adv-x="2111" arabic-form="isolated" 
d="M2022 427q0 -142 -69.5 -253t-203.5 -174.5t-327 -63.5h-632q-137 0 -222 2t-145 12q-172 27 -262 166q-75 139 -75 321q0 45 5 93q24 156 59 260q0 2 1 4v2l393 -117q-1 -4 -5 -21q-4 -14 -9 -38q-15 -60 -33 -139q-7 -25 -7 -45v-3q0 -18 11 -30q12 -12 44 -12h392v2
h95q-4 56 -4 105q0 167 47.5 276.5t121.5 174t157 91t154 26.5q215 0 369 -162q145 -164 145 -406v-71zM1629 430v96q0 47 -34 78.5t-84 31.5q-49 0 -82 -32t-33 -78q0 -26 5.5 -47.5t22 -35t50.5 -13.5h155zM1725 1717l-201 -200l-200 200l200 201zM1509 1407l-220 -219
l-219 219l219 220zM1978 1407l-220 -219l-219 219l219 220z" />
    <glyph glyph-name="veh.init" unicode="&#x6a4;" horiz-adv-x="1159" arabic-form="initial" 
d="M1067 429q0 -141 -69.5 -252t-203.5 -175t-326 -64h-486v457h95q-4 56 -4 105q0 167 48 277t121.5 174t156.5 90.5t154 26.5q215 0 369 -162q145 -164 145 -406v-71zM556 638q-49 0 -82 -32t-33 -78q0 -25 5.5 -47t22 -35.5t50.5 -13.5h155v96q0 47 -33.5 78.5
t-84.5 31.5zM754 1717l-201 -200l-200 200l200 201zM538 1407l-220 -219l-219 219l219 220zM1007 1407l-220 -219l-219 219l219 220z" />
    <glyph glyph-name="veh.medi" unicode="&#x6a4;" horiz-adv-x="1222" arabic-form="medial" 
d="M1124 395h122v-457h-216q-112 0 -206 11.5t-209 38.5q-100 -27 -201.5 -38.5t-214.5 -11.5h-219v457h125q-15 63 -15 132q0 222 147 384q150 162 378 162q227 0 377 -162q147 -162 147 -384q0 -69 -15 -132zM615 405q7 1 27.5 8.5t45.5 22.5t43.5 40.5t18.5 62.5
q0 12 -5 36.5t-19.5 49.5t-41 43t-69.5 18t-70 -18t-41 -43t-19 -49.5t-5 -36.5q0 -38 18.5 -63.5t43 -40.5t45.5 -22t28 -8zM817 1719l-201 -200l-200 200l200 201zM601 1409l-220 -219l-219 219l219 220zM1070 1409l-220 -219l-219 219l219 220z" />
    <glyph glyph-name="veh.fina" unicode="&#x6a4;" horiz-adv-x="2198" arabic-form="final" 
d="M147 800l393 -116l-14.5 -60t-32.5 -139q-7 -26 -7 -46t11.5 -32t43.5 -12h556q-15 63 -15 132q0 222 147 384q150 162 378 162q227 0 377 -162q147 -162 147 -384q0 -69 -15 -132h107v-457h-201q-112 0 -206 11.5t-209 38.5q-94 -27 -222 -38.5t-380 -11.5
q-137 0 -325 2t-261 12q-172 27 -262 167q-39 57 -57.5 140.5t-18.5 174.5q0 50 6 100q24 156 59 260q0 2 1 4v2zM1607 405q7 1 27.5 8.5t45.5 22.5t43.5 40.5t18.5 62.5q0 12 -5 36.5t-19.5 49.5t-41 43t-69.5 18t-70 -18t-41 -43t-19 -49.5t-5 -36.5q0 -38 18.5 -63.5
t43 -40.5t45.5 -22t28 -8zM1815 1713l-201 -200l-200 200l200 201zM1599 1403l-220 -219l-219 219l219 220zM2068 1403l-220 -219l-219 219l219 220z" />
    <glyph glyph-name="uni0642.init" unicode="&#x642;" horiz-adv-x="1159" arabic-form="initial" 
d="M1067 429q0 -141 -69.5 -252t-203.5 -175t-326 -64h-486v457h95q-4 56 -4 105q0 167 48 277t121.5 174t156.5 90.5t154 26.5q215 0 369 -162q145 -164 145 -406v-71zM556 638q-49 0 -82 -32t-33 -78q0 -25 5.5 -47t22 -35.5t50.5 -13.5h155v96q0 47 -33.5 78.5
t-84.5 31.5zM545 1413l-220 -219l-219 219l219 220zM1014 1413l-220 -219l-219 219l219 220z" />
    <glyph glyph-name="uni0642.medi" unicode="&#x642;" horiz-adv-x="1222" arabic-form="medial" 
d="M1124 395h122v-457h-216q-112 0 -206 11.5t-209 38.5q-100 -27 -201.5 -38.5t-214.5 -11.5h-219v457h125q-15 63 -15 132q0 222 147 384q150 162 378 162q227 0 377 -162q147 -162 147 -384q0 -69 -15 -132zM615 405q7 1 27.5 8.5t45.5 22.5t43.5 40.5t18.5 62.5
q0 12 -5 36.5t-19.5 49.5t-41 43t-69.5 18t-70 -18t-41 -43t-19 -49.5t-5 -36.5q0 -38 18.5 -63.5t43 -40.5t45.5 -22t28 -8zM593 1412l-220 -219l-219 219l219 220zM1062 1412l-220 -219l-219 219l219 220z" />
    <glyph glyph-name="uni0642" unicode="&#x642;" horiz-adv-x="1691" arabic-form="isolated" 
d="M1127 983q215 0 369 -162q145 -164 145 -406l-1 -363q0 -62 -5 -132.5t-22 -129.5q-37 -125 -123 -213q-167 -173 -529 -173h-196q-199 0 -350.5 71.5t-239.5 207.5q-57 94 -77.5 180.5t-20.5 176.5q0 46 3 94q14 225 140 506l373 -168q-95 -212 -105 -363q-1 -14 -1 -27
q0 -84 32 -133q27 -39 71 -59t92 -26t83 -6h196q267 0 265 81h-79q-131 0 -242.5 56.5t-178.5 163t-67 256.5q0 167 46 276.5t117.5 174t152.5 91t152 26.5zM1092 395h154v95q0 47 -33.5 78.5t-83.5 31.5t-82.5 -32t-32.5 -78q0 -25 5.5 -47t22 -35t50.5 -13zM1104 1314
l-220 -219l-219 219l219 220zM1573 1314l-220 -219l-219 219l219 220z" />
    <glyph glyph-name="uni0642.fina" unicode="&#x642;" horiz-adv-x="1692" arabic-form="final" 
d="M1127 983q215 0 369 -162q145 -164 145 -406v-20h76v-457h-79q-2 -39 -6.5 -69t-18.5 -82q-37 -125 -123 -213q-167 -173 -529 -173h-196q-199 0 -350.5 71.5t-239.5 207.5q-48 78 -72.5 184t-24.5 213q0 29 2 57q14 225 140 506l373 -168q-95 -212 -105 -363
q-1 -14 -1 -27q0 -84 32 -133q27 -39 71 -59t92 -26t83 -6h196q116 0 171.5 10.5t74 28.5t19.5 41h-79q-131 0 -242.5 57t-178.5 163.5t-67 256.5q0 167 46 276.5t117.5 174t152.5 91t152 26.5zM1093 395h154v95q0 47 -33.5 78.5t-83.5 31.5t-82.5 -32t-32.5 -78
q0 -25 5.5 -47t22 -35t50.5 -13zM1103 1310l-220 -219l-219 219l219 220zM1572 1310l-220 -219l-219 219l219 220z" />
    <glyph glyph-name="uni0646.init" unicode="&#x646;" horiz-adv-x="754" arabic-form="initial" 
d="M629 849l17 -91.5t39 -212.5q15 -78 15 -144q0 -34 -4 -65q-8 -61 -29.5 -126.5t-56.5 -108.5q-70 -91 -185 -135q-85 -27 -201 -27h-249v456h249q37 0 50 9.5t13 29.5q0 15 -4 35l-50 260zM594 1223l-234 -233l-233 233l233 234z" />
    <glyph glyph-name="uni0646.medi" unicode="&#x646;" horiz-adv-x="770" arabic-form="medial" 
d="M681 713v-270q0 -25 11 -36.5t55 -11.5h48v-456h-40q-153 0 -278 77q-41 -24 -86 -41q-100 -36 -228 -36h-188v456h217q49 0 64 10.5t15 37.5v270h410zM638 1155l-234 -233l-233 233l233 234z" />
    <glyph glyph-name="uni0646" unicode="&#x646;" horiz-adv-x="1622" arabic-form="isolated" 
d="M1572 713v-661q0 -164 -43 -278.5t-114.5 -187.5t-160 -113.5t-182.5 -56t-179 -15.5h-118q-160 0 -276.5 41t-196 110.5t-126.5 156.5t-67.5 182.5t-20.5 185.5q0 29 2 57q15 225 140 506l374 -168q-96 -212 -105 -363v-5q-2 -16 -2 -36q0 -30 9 -66.5t36.5 -69
t83 -53.5t149.5 -21h118q98 0 152.5 17t80 44t31.5 57.5t6 58.5v678h409zM1083 803l-234 -233l-233 233l233 234z" />
    <glyph glyph-name="uni0646.fina" unicode="&#x646;" horiz-adv-x="1697" arabic-form="final" 
d="M1572 474q0 -79 75 -79h75v-456h-75q-40 0 -77 5q-1 -98 -41 -191q-43 -106 -114.5 -175.5t-160 -108t-182.5 -53.5t-179 -15h-118q-170 0 -291.5 45t-201 120.5t-126.5 168.5t-60 205q-8 73 -8 133q0 32 2 61q15 225 140 506l374 -168q-96 -212 -105 -363v-5
q-1 -14 -1 -31t2 -48t26 -71.5t82 -68t167 -27.5h118q102 0 157.5 18.5t79.5 47t29 60.5q4 26 4 50v679h409v-239zM1082 799l-234 -233l-233 233l233 234z" />
    <glyph glyph-name="uni06C0" unicode="&#x6c0;" horiz-adv-x="1098" arabic-form="isolated" 
d="M553 352q18 0 42.5 10t43.5 32.5t19 58.5q0 18 -17 43.5t-38 50t-38 41l-17 16.5l-15.5 -15.5t-35 -39.5t-35 -50.5t-15.5 -48.5q0 -36 19.5 -57.5t44.5 -31t42 -9.5zM539 1188l6 -7q42 -48 308 -340q68 -69 125 -160.5t70 -237.5q2 -24 2 -46q0 -86 -21 -152t-54 -115
t-70 -82q-69 -62 -154.5 -87.5t-194.5 -25.5t-193 25t-154 90q-57 54 -98 151.5t-41 213.5v23q9 140 56.5 234.5t101.5 150.5q24 25 43 49q-12 13 -20 22q-18 20 -18 21zM620 1861q47 0 96 -13l-36 -138q-29 8 -59 8q-21 0 -40.5 -5.5t-36.5 -19.5q-27 -23 -37 -65
q94 -16 127 -24q36 -8 53 -21q37 -26 37 -70q0 -19 -5 -57.5t-32 -80.5q-64 -91 -217 -91h-109v143h109q22 0 53 5.5t46 24.5q5 7 6 13q-44 9 -119 21l-36 6l-55 9l-5 56q-1 14 -1 28q0 128 93 213q50 42 117 54q26 4 51 4z" />
    <glyph glyph-name="uni06C0.fina" unicode="&#x6c0;" horiz-adv-x="1389" arabic-form="final" 
d="M571 435q21 0 39 5.5t29 11.5q34 19 47.5 47t13.5 61q0 28 -6.5 59t-14.5 61q-5 18 -9 35q-81 -34 -117.5 -52t-51.5 -34q-40 -42 -40 -86q0 -40 29 -73q18 -19 39 -27t42 -8zM961 1233q51 -218 81 -351q7 -32 13 -60q19 -89 36 -160.5t41 -166.5q7 -33 24 -55
t61.5 -33.5t137.5 -11.5h59v-457h-59q-112 0 -193.5 19.5t-137.5 48t-90.5 57.5t-51.5 50q-79 -44 -156 -58.5t-163 -14.5q-97 0 -191.5 37.5t-166 124.5t-103.5 235q-12 58 -12 119q0 75 23 152t78 148.5t149 130t234 98.5l-13 57zM895 1915q47 0 96 -13l-36 -138
q-29 8 -59 8q-21 0 -40.5 -5.5t-36.5 -19.5q-27 -23 -37 -65q94 -16 127 -24q36 -8 53 -21q37 -26 37 -70q0 -19 -5 -57.5t-32 -80.5q-64 -91 -217 -91h-109v143h109q22 0 53 5.5t46 24.5q5 7 6 13q-44 9 -119 21l-36 6l-55 9l-5 56q-1 14 -1 28q0 128 93 213q50 42 117 54
q26 4 51 4z" />
    <glyph glyph-name="uni0624" unicode="&#x624;" horiz-adv-x="1124" arabic-form="isolated" 
d="M526 394h155v96q0 47 -34 78.5t-84 31.5q-49 0 -82 -32t-33 -78q0 -25 5.5 -47t22 -35.5t50.5 -13.5zM287 -144q123 0 204 7t116 26t39 48h-86q-133 4 -241.5 60.5t-173.5 162t-65 255.5q0 167 47.5 276.5t121.5 174t157 91t154 26.5q215 0 369 -162q145 -164 145 -406
v-374q-1 -139 -40.5 -239.5t-99 -169.5t-120.5 -116q-36 -25 -98.5 -52.5t-178.5 -45.5q-101 -16 -262 -16h-109v454h121zM762 1215l-499 -164v160l115 37q-30 31 -47 68.5t-17 81.5q0 68 46.5 129.5t112.5 82.5q34 10 70 10q38 0 70.5 -10t63.5 -23l-32 -133
q-60 17 -101 17q-14 0 -25 -3q-23 -7 -41.5 -25.5t-18.5 -42.5q0 -9 3 -19q7 -25 35.5 -41.5t79.5 -16.5q13 0 29.5 2.5t50.5 11.5t97 30z" />
    <glyph glyph-name="uni0624.fina" unicode="&#x624;" horiz-adv-x="1102" arabic-form="final" 
d="M526 394h155v96q0 47 -34 78.5t-84 31.5q-49 0 -82 -32t-33 -78q0 -25 5.5 -47t22 -35.5t50.5 -13.5zM1074 395h53v-457h-60q-9 -75 -33 -136q-40 -101 -99.5 -170t-120.5 -116q-36 -25 -98.5 -52.5t-178.5 -45.5q-101 -16 -262 -16h-109v454h121q123 0 204 7t116 26
t39 48h-86q-133 4 -241.5 60.5t-173.5 162t-65 255.5q0 167 47.5 276.5t121.5 174t157 91t154 26.5q215 0 369 -162q145 -164 145 -406v-20zM755 1211l-499 -164v160l115 37q-30 31 -47 68.5t-17 81.5q0 68 46.5 129.5t112.5 82.5q34 10 70 10q38 0 70.5 -10t63.5 -23
l-32 -133q-60 17 -101 17q-14 0 -25 -3q-23 -7 -41.5 -25.5t-18.5 -42.5q0 -9 3 -19q7 -25 35.5 -41.5t79.5 -16.5q13 0 29.5 2.5t50.5 11.5t97 30z" />
    <glyph glyph-name="uni0649.init" unicode="&#x649;" horiz-adv-x="754" arabic-form="initial" 
d="M629 849l17 -91.5t39 -212.5q15 -78 15 -144q0 -34 -4 -65q-8 -61 -29.5 -126.5t-56.5 -108.5q-70 -91 -185 -135q-85 -27 -201 -27h-249v456h249q37 0 50 9.5t13 29.5q0 15 -4 35l-50 260z" />
    <glyph glyph-name="uni0649.medi" unicode="&#x649;" horiz-adv-x="770" arabic-form="medial" 
d="M681 713v-270q0 -25 11 -36.5t55 -11.5h48v-456h-40q-153 0 -278 77q-41 -24 -86 -41q-100 -36 -228 -36h-188v456h217q49 0 64 10.5t15 37.5v270h410z" />
    <glyph glyph-name="uni064A.init" unicode="&#x64a;" horiz-adv-x="923" arabic-form="initial" 
d="M794 849l17 -91.5t39 -212.5q15 -78 15 -144q0 -34 -4 -65q-8 -61 -29.5 -126.5t-56.5 -108.5q-70 -91 -185 -135q-85 -27 -201 -27h-444v456h444q37 0 50 9.5t13 29.5q0 15 -4 35l-50 260zM247 -179l220 -219l-220 -220l-219 220zM716 -179l220 -219l-220 -220l-219 220
z" />
    <glyph glyph-name="uni064A.medi" unicode="&#x64a;" horiz-adv-x="1024" arabic-form="medial" 
d="M828 713v-270q0 -25 11 -36.5t55 -11.5h155v-456h-147q-76 0 -147 22t-131 60q-58 -46 -129.5 -64t-184.5 -18h-335v456h364q49 0 64 10.5t15 37.5v270h410zM255 -183l220 -219l-220 -220l-219 220zM724 -183l220 -219l-220 -220l-219 220z" />
    <glyph glyph-name="uni064A" unicode="&#x64a;" horiz-adv-x="1695" arabic-form="isolated" 
d="M1429 1027q53 0 107 -9.5t109 -24.5l-104 -396q-68 26 -142 26q-59 0 -114.5 -22.5t-96.5 -76t-59 -144.5q92 -25 163 -44q118 -30 185 -52q84 -28 120 -89t36 -146v-4q-2 -167 -42.5 -281.5t-107 -186t-146.5 -109.5t-161 -51.5t-149 -13.5h-306q-169 0 -292 61
t-202.5 160t-118 217.5t-38.5 232.5q0 187 45 337.5t117 292.5l367 -180q-54 -109 -87 -211t-33 -199q0 -107 34 -162.5t90 -75t121 -19.5h306q81 0 124.5 17.5t61 40.5t17.5 42q-7 2 -74.5 20t-154 41t-153.5 41l-67 18l-10 39.5t-20.5 105t-10.5 143.5q0 84 19 172
q9 42 36.5 103t76.5 128t125 125.5t182 96t247 37.5zM629 -641l220 -219l-220 -220l-219 220zM1098 -641l220 -219l-220 -220l-219 220z" />
    <glyph glyph-name="uni064A.fina" unicode="&#x64a;" horiz-adv-x="1856" arabic-form="final" 
d="M226 700l367 -177q-110 -228 -110 -390q0 -130 69 -203.5t206 -73.5h266q76 0 128 5t86 12.5t52.5 15t25.5 12.5l7 5q-59 28 -133.5 43t-161.5 26q-30 4 -61 9v410h914v-456h-183q5 -29 5 -58q0 -133 -48.5 -220t-126.5 -139t-169 -77.5t-179.5 -33t-155.5 -7.5h-266
q-180 0 -310 63t-214 167.5t-124 234.5t-40 265q0 121 40.5 274t115.5 293zM693 -635l220 -219l-220 -220l-219 220zM1162 -635l220 -219l-220 -220l-219 220z" />
    <glyph glyph-name="uni06CC" unicode="&#x6cc;" horiz-adv-x="1695" arabic-form="isolated" 
d="M1429 1027q53 0 107 -9.5t109 -24.5l-104 -396q-68 26 -142 26q-59 0 -114.5 -22.5t-96.5 -76t-59 -144.5q92 -25 163 -44q118 -30 185 -52q84 -28 120 -89t36 -146v-4q-2 -167 -42.5 -281.5t-107 -186t-146.5 -109.5t-161 -51.5t-149 -13.5h-306q-169 0 -292 61
t-202.5 160t-118 217.5t-38.5 232.5q0 187 45 337.5t117 292.5l367 -180q-54 -109 -87 -211t-33 -199q0 -107 34 -162.5t90 -75t121 -19.5h306q81 0 124.5 17.5t61 40.5t17.5 42q-7 2 -74.5 20t-154 41t-153.5 41l-67 18l-10 39.5t-20.5 105t-10.5 143.5q0 84 19 172
q9 42 36.5 103t76.5 128t125 125.5t182 96t247 37.5z" />
    <glyph glyph-name="uni06CC.init" unicode="&#x6cc;" horiz-adv-x="923" arabic-form="initial" 
d="M794 849l17 -91.5t39 -212.5q15 -78 15 -144q0 -34 -4 -65q-8 -61 -29.5 -126.5t-56.5 -108.5q-70 -91 -185 -135q-85 -27 -201 -27h-444v456h444q37 0 50 9.5t13 29.5q0 15 -4 35l-50 260zM246 -172l220 -219l-220 -220l-219 220zM715 -172l220 -219l-220 -220l-219 220
z" />
    <glyph glyph-name="uni06CC.medi" unicode="&#x6cc;" horiz-adv-x="1024" arabic-form="medial" 
d="M828 713v-270q0 -25 11 -36.5t55 -11.5h155v-456h-147q-76 0 -147 22t-131 60q-58 -46 -129.5 -64t-184.5 -18h-335v456h364q49 0 64 10.5t15 37.5v270h410zM253 -178l220 -219l-220 -220l-219 220zM722 -178l220 -219l-220 -220l-219 220z" />
    <glyph glyph-name="uni06CC.fina" unicode="&#x6cc;" horiz-adv-x="1856" arabic-form="final" 
d="M226 700l367 -177q-110 -228 -110 -390q0 -130 69 -203.5t206 -73.5h266q76 0 128 5t86 12.5t52.5 15t25.5 12.5l7 5q-59 28 -133.5 43t-161.5 26q-30 4 -61 9v410h914v-456h-183q5 -29 5 -58q0 -133 -48.5 -220t-126.5 -139t-169 -77.5t-179.5 -33t-155.5 -7.5h-266
q-180 0 -310 63t-214 167.5t-124 234.5t-40 265q0 121 40.5 274t115.5 293z" />
    <glyph glyph-name="uni06D3" unicode="&#x6d3;" horiz-adv-x="1705" arabic-form="isolated" 
d="M913 395v-456h-342q-40 0 -65.5 -15.5t-25.5 -47.5q0 -34 24 -49.5t67 -15.5h1084v-448h-1084q-207 0 -357 139q-70 67 -107 166t-37 231t38 212t110 146q151 138 353 138h342zM671 578l-499 -164v160l115 37q-30 31 -47 68.5t-17 81.5q0 68 46.5 129.5t112.5 82.5
q34 10 70 10q38 0 70.5 -10t63.5 -23l-32 -133q-60 17 -101 17q-14 0 -25 -3q-23 -7 -41.5 -25.5t-18.5 -42.5q0 -9 3 -19q7 -25 35.5 -41.5t79.5 -16.5q13 0 29.5 2.5t50.5 11.5t97 30z" />
    <glyph glyph-name="uni06D3.fina" unicode="&#x6d3;" horiz-adv-x="1320" arabic-form="final" 
d="M1345 395v-457h-779q-38 0 -62 -13.5t-24 -44.5q0 -67 91 -69h727v-447h-727q-207 0 -357 139q-70 67 -107 162.5t-37 232.5q0 120 38 206t110 153q151 138 353 138h774zM673 587l-499 -164v160l115 37q-30 31 -47 68.5t-17 81.5q0 68 46.5 129.5t112.5 82.5q34 10 70 10
q38 0 70.5 -10t63.5 -23l-32 -133q-60 17 -101 17q-14 0 -25 -3q-23 -7 -41.5 -25.5t-18.5 -42.5q0 -9 3 -19q7 -25 35.5 -41.5t79.5 -16.5q13 0 29.5 2.5t50.5 11.5t97 30z" />
    <glyph glyph-name="uni0626" unicode="&#x626;" horiz-adv-x="1695" arabic-form="isolated" 
d="M1429 1027q53 0 107 -9.5t109 -24.5l-104 -396q-68 26 -142 26q-59 0 -114.5 -22.5t-96.5 -76t-59 -144.5q92 -25 163 -44q118 -30 185 -52q84 -28 120 -89t36 -146v-4q-2 -167 -42.5 -281.5t-107 -186t-146.5 -109.5t-161 -51.5t-149 -13.5h-306q-169 0 -292 61
t-202.5 160t-118 217.5t-38.5 232.5q0 187 45 337.5t117 292.5l367 -180q-54 -109 -87 -211t-33 -199q0 -107 34 -162.5t90 -75t121 -19.5h306q81 0 124.5 17.5t61 40.5t17.5 42q-7 2 -74.5 20t-154 41t-153.5 41l-67 18l-10 39.5t-20.5 105t-10.5 143.5q0 84 19 172
q9 42 36.5 103t76.5 128t125 125.5t182 96t247 37.5zM752 924l-499 -164v160l115 37q-30 31 -47 68.5t-17 81.5q0 68 46.5 129.5t112.5 82.5q34 10 70 10q38 0 70.5 -10t63.5 -23l-32 -133q-60 17 -101 17q-14 0 -25 -3q-23 -7 -41.5 -25.5t-18.5 -42.5q0 -9 3 -19
q7 -25 35.5 -41.5t79.5 -16.5q13 0 29.5 2.5t50.5 11.5t97 30z" />
    <glyph glyph-name="uni0626.init" unicode="&#x626;" horiz-adv-x="923" arabic-form="initial" 
d="M794 849l17 -91.5t39 -212.5q15 -78 15 -144q0 -34 -4 -65q-8 -61 -29.5 -126.5t-56.5 -108.5q-70 -91 -185 -135q-85 -27 -201 -27h-444v456h444q37 0 50 9.5t13 29.5q0 15 -4 35l-50 260zM610 1000l-499 -164v160l115 37q-30 31 -47 68.5t-17 81.5q0 68 46.5 129.5
t112.5 82.5q34 10 70 10q38 0 70.5 -10t63.5 -23l-32 -133q-60 17 -101 17q-14 0 -25 -3q-23 -7 -41.5 -25.5t-18.5 -42.5q0 -9 3 -19q7 -25 35.5 -41.5t79.5 -16.5q13 0 29.5 2.5t50.5 11.5t97 30z" />
    <glyph glyph-name="uni0626.medi" unicode="&#x626;" horiz-adv-x="1024" arabic-form="medial" 
d="M828 713v-270q0 -25 11 -36.5t55 -11.5h155v-456h-147q-76 0 -147 22t-131 60q-58 -46 -129.5 -64t-184.5 -18h-335v456h364q49 0 64 10.5t15 37.5v270h410zM799 961l-499 -164v160l115 37q-30 31 -47 68.5t-17 81.5q0 68 46.5 129.5t112.5 82.5q34 10 70 10
q38 0 70.5 -10t63.5 -23l-32 -133q-60 17 -101 17q-14 0 -25 -3q-23 -7 -41.5 -25.5t-18.5 -42.5q0 -9 3 -19q7 -25 35.5 -41.5t79.5 -16.5q13 0 29.5 2.5t50.5 11.5t97 30z" />
    <glyph glyph-name="uni0626.fina" unicode="&#x626;" horiz-adv-x="1856" arabic-form="final" 
d="M226 700l367 -177q-110 -228 -110 -390q0 -130 69 -203.5t206 -73.5h266q76 0 128 5t86 12.5t52.5 15t25.5 12.5l7 5q-59 28 -133.5 43t-161.5 26q-30 4 -61 9v410h914v-456h-183q5 -29 5 -58q0 -133 -48.5 -220t-126.5 -139t-169 -77.5t-179.5 -33t-155.5 -7.5h-266
q-180 0 -310 63t-214 167.5t-124 234.5t-40 265q0 121 40.5 274t115.5 293zM757 928l-499 -164v160l115 37q-30 31 -47 68.5t-17 81.5q0 68 46.5 129.5t112.5 82.5q34 10 70 10q38 0 70.5 -10t63.5 -23l-32 -133q-60 17 -101 17q-14 0 -25 -3q-23 -7 -41.5 -25.5
t-18.5 -42.5q0 -9 3 -19q7 -25 35.5 -41.5t79.5 -16.5q13 0 29.5 2.5t50.5 11.5t97 30z" />
    <glyph glyph-name="uni06C2.fina" unicode="&#x6c2;" horiz-adv-x="1336" 
d="M756 1110l235 -154v-3q27 -113 40.5 -168t22.5 -91t23 -91l18 -69q8 -34 26.5 -65.5t60.5 -52.5t121 -21h58v-454h-75q-88 0 -181.5 24.5t-151.5 65.5q-106 75 -155 168q-61 106 -100 232q-9 41 -17 69q-14 54 -23 88t-20 82q-80 -17 -111 -50t-31 -82q0 -35 11 -79
q76 -305 81 -305l-393 -116q-3 4 -85 322q-24 99 -24 184q0 117 39 207t101.5 154t137 102.5t147.5 53.5q84 18 152 31.5t93 17.5zM629 1285l-499 -164v160l115 37q-30 31 -47 68.5t-17 81.5q0 68 46.5 129.5t112.5 82.5q34 10 70 10q38 0 70.5 -10t63.5 -23l-32 -133
q-60 17 -101 17q-14 0 -25 -3q-23 -7 -41.5 -25.5t-18.5 -42.5q0 -9 3 -19q7 -25 35.5 -41.5t79.5 -16.5q13 0 29.5 2.5t50.5 11.5t97 30z" />
    <glyph glyph-name="uni06C1" unicode="&#x6c1;" horiz-adv-x="1098" arabic-form="isolated" 
d="M553 352q18 0 42.5 10t43.5 32.5t19 58.5q0 18 -17 43.5t-38 50t-38 41l-17 16.5l-15.5 -15.5t-35 -39.5t-35 -50.5t-15.5 -48.5q0 -36 19.5 -57.5t44.5 -31t42 -9.5zM539 1188l6 -7q42 -48 308 -340q68 -69 125 -160.5t70 -237.5q2 -24 2 -46q0 -86 -21 -152t-54 -115
t-70 -82q-69 -62 -154.5 -87.5t-194.5 -25.5t-193 25t-154 90q-57 54 -98 151.5t-41 213.5v23q9 140 56.5 234.5t101.5 150.5q24 25 43 49q-12 13 -20 22q-18 20 -18 21z" />
    <glyph glyph-name="uni06C3.fina" unicode="&#x6c3;" horiz-adv-x="1336" 
d="M756 1110l235 -154v-3q27 -113 40.5 -168t22.5 -91t23 -91l18 -69q8 -34 26.5 -65.5t60.5 -52.5t121 -21h58v-454h-75q-88 0 -181.5 24.5t-151.5 65.5q-106 75 -155 168q-61 106 -100 232q-9 41 -17 69q-14 54 -23 88t-20 82q-80 -17 -111 -50t-31 -82q0 -35 11 -79
q76 -305 81 -305l-393 -116q-3 4 -85 322q-24 99 -24 184q0 117 39 207t101.5 154t137 102.5t147.5 53.5q84 18 152 31.5t93 17.5zM515 1408l-220 -219l-219 219l219 220zM984 1408l-220 -219l-219 219l219 220z" />
    <glyph glyph-name="uni06BE.fina" unicode="&#x6be;" horiz-adv-x="1811" arabic-form="final" 
d="M1139 233q49 0 84 14t56 34t28 40q7 17 7 37q0 40 -33.5 104.5t-126.5 185.5q3 -13 3 -48q0 -17 -2 -63t-27.5 -131.5t-88.5 -153.5q28 -8 53 -13.5t47 -5.5zM625 372q69 17 105 51.5t42 96.5v11q0 52 -36.5 89t-88.5 37q-41 0 -70 -20.5t-45 -49.5t-16 -55
q0 -51 33.5 -95.5t75.5 -64.5zM1555 -15q-7 -7 -15 -14q-61 -58 -154.5 -91.5t-222.5 -33.5q-118 0 -265 35t-325 125q-6 0 -37 -4q-50 -4 -138 -10.5t-179 -6.5h-177v410h97q-17 60 -17 126q0 151 71 268.5t195 185t284 67.5q129 0 249 -71l270 223q293 -299 416 -525
q81 -149 99 -274h135v-410h-286z" />
    <glyph glyph-name="uni06BE.init" unicode="&#x6be;" horiz-adv-x="1811" arabic-form="initial" 
d="M1471 862q184 -185 237 -341q30 -90 30 -167q0 -56 -16 -106q-23 -81 -89 -156.5t-188 -120.5q-103 -39 -255 -39q-27 0 -55 1q-248 15 -384 35l-136 19q-100 -27 -202 -38.5t-214 -11.5h-219l1 458h125q-15 63 -16 131q0 222 147 384q150 162 378 162q171 0 300 -94
l213 214q3 -2 55 -52t130 -125.5t158 -152.5zM615 404q6 1 27 8.5t46 23t43.5 40.5t18.5 62q0 13 -5 37t-19.5 49t-41 43t-69.5 18q-44 0 -70.5 -18t-40.5 -43t-19 -49t-5 -37q0 -38 18 -63.5t43 -40.5t46 -22t28 -8zM1315 417q1 3 1 5q0 18 -24.5 49t-62 65t-67.5 58
l-30 24q7 -45 7 -92q0 -69 -15 -132l-4 -12q42 -14 81 -14q21 0 60.5 7t53.5 42z" />
    <glyph glyph-name="uni06BE.medi" unicode="&#x6be;" horiz-adv-x="1264" arabic-form="medial" 
d="M679 -197q-13 28 -18 59t-5 60q0 40 6 73t11.5 53.5l5.5 20.5q-11 -3 -43 -10t-65 -13.5t-46 -8.5q11 -72 60.5 -135.5t93.5 -98.5zM525 412q80 11 140.5 46t64.5 70v5q0 44 -20 62.5t-45 18.5h-3q-32 0 -56 -23t-40 -56t-26 -66.5t-15 -56.5zM665 997q132 0 217.5 -41.5
t135.5 -104.5t74 -131t30.5 -125t6.5 -82q0 -61 -16 -118h176v-457h-173q-40 0 -63.5 -31t-23.5 -74q0 -31 14 -63t45 -58l-123 -317q-53 -7 -106 -7q-111 0 -215 33q-137 49 -255 145q-165 124 -262 373q-37 -1 -65.5 -1h-61.5h-25v457h133q0 17 9 67.5t31 118.5t62 140.5
t101.5 134.5t149 101.5t204.5 39.5z" />
    <glyph glyph-name="fathatan_01" unicode="&#xfe70;" arabic-form="isolated" 
d="M-262 1596v150l504 187v-148zM-262 1838v149l504 187v-147z" />
    <glyph glyph-name="dammatan_01" unicode="&#xfe72;" arabic-form="isolated" 
d="M-213 1594l-62 85l8 16q12 24 21 46.5t9 42.5q0 15 -7 28q-19 17 -41 17q-18 0 -36.5 -8t-33.5 -19l-79 77q5 7 24 24.5t51 33t75 15.5h6q79 -8 120 -76q23 -50 23 -97q0 -11 -1 -24.5t-3 -23.5q43 9 86.5 28.5t69.5 43.5q-64 31 -105 83.5t-41 109.5q0 30 14 60
q27 54 79 89.5t107 35.5q36 0 65 -14q56 -28 80 -78t24 -108q0 -97 -63 -187q-62 -77 -146.5 -120t-154 -61t-89.5 -19zM71 2055q-19 0 -45.5 -12t-41.5 -32q10 -38 47 -64t74 -41q10 16 14.5 32t4.5 42q0 31 -14.5 53t-38.5 22z" />
    <glyph glyph-name="kasratan_01" unicode="&#xfe74;" arabic-form="isolated" 
d="M-252 -826v150l504 187v-147zM-252 -584v149l504 188v-148z" />
    <glyph glyph-name="fatha_01" unicode="&#xfe76;" arabic-form="isolated" 
d="M-251 1596v150l504 187v-148z" />
    <glyph glyph-name="damma_01" unicode="&#xfe78;" arabic-form="isolated" 
d="M-268 1592l-36 126q67 20 142.5 48.5t133.5 67.5q-70 26 -116.5 79.5t-46.5 116.5q0 32 15 65q26 54 79.5 89.5t112.5 35.5q34 0 67 -15q59 -30 84.5 -78t25.5 -104q0 -58 -21 -116t-55 -105q-46 -61 -119 -103t-144.5 -67.5t-113.5 -37.5zM15 2098q-22 0 -48.5 -12.5
t-39.5 -35.5q-2 -4 -2 -8q0 -23 38.5 -59t91.5 -47q16 33 16 78q0 29 -13 54.5t-43 29.5z" />
    <glyph glyph-name="kasra_01" unicode="&#xfe7a;" arabic-form="isolated" 
d="M-252 -584v149l504 188v-148z" />
    <glyph glyph-name="shadda_01" unicode="&#xfe7c;" arabic-form="isolated" 
d="M-130 1594q-94 0 -148 53t-54 146v109h125v-109q0 -79 77 -75q8 0 23 4.5t27.5 20.5t12.5 50v109h126v-109q0 -79 78 -76q8 0 22 5.5t26 22t12 48.5q0 40 -21 110q-4 15 -8 32l118 40l8 -31q1 -2 1 -5q9 -29 18 -68t9 -78q0 -67 -28.5 -111.5t-71.5 -66.5t-87 -22
q-84 0 -140 46q-27 -22 -60 -33.5t-65 -11.5z" />
    <glyph glyph-name="sukun_01" unicode="&#xfe7e;" arabic-form="isolated" 
d="M-2 1594q-109 0 -174.5 62.5t-65.5 169.5q0 109 65.5 172.5t174.5 63.5q105 0 175.5 -63.5t70.5 -170.5q0 -106 -67.5 -170t-171.5 -64h-7zM-2 1731q42 0 72.5 24.5t30.5 70.5t-30.5 73t-72.5 27q-43 0 -74 -26.5t-31 -73.5q0 -49 28 -72t77 -23z" />
    <glyph glyph-name="uni0651064C" unicode="&#xfc5e;" arabic-form="isolated" 
d="M-130 1604q-94 0 -148 53t-54 146v109h125v-109q0 -79 77 -75q8 0 23 4.5t27.5 20.5t12.5 50v109h126v-109q0 -79 78 -76q8 0 22 5.5t26 22t12 48.5q0 40 -21 110q-4 15 -8 32l118 40l8 -31q1 -2 1 -5q9 -29 18 -68t9 -78q0 -67 -28.5 -111.5t-71.5 -66.5t-87 -22
q-84 0 -140 46q-27 -22 -60 -33.5t-65 -11.5zM-213 2043l-62 85l8 16q12 24 21 46.5t9 42.5q0 15 -7 28q-19 17 -41 17q-18 0 -36.5 -8t-33.5 -19l-79 77q5 7 24 24.5t51 33t75 15.5h6q79 -8 120 -76q23 -50 23 -97q0 -11 -1 -24.5t-3 -23.5q43 9 86.5 28.5t69.5 43.5
q-64 31 -105 83.5t-41 109.5q0 30 14 60q27 54 79 89.5t107 35.5q36 0 65 -14q56 -28 80 -78t24 -108q0 -97 -63 -187q-62 -77 -146.5 -120t-154 -61t-89.5 -19zM71 2504q-19 0 -45.5 -12t-41.5 -32q10 -38 47 -64t74 -41q10 16 14.5 32t4.5 42q0 31 -14.5 53t-38.5 22z" />
    <glyph glyph-name="uni0651064D" unicode="&#xfc5f;" arabic-form="isolated" 
d="M-139 2186q-94 0 -148 53t-54 146v109h125v-109q0 -79 77 -75q8 0 23 4.5t27.5 20.5t12.5 50v109h126v-109q0 -79 78 -76q8 0 22 5.5t26 22t12 48.5q0 40 -21 110q-4 15 -8 32l118 40l8 -31q1 -2 1 -5q9 -29 18 -68t9 -78q0 -67 -28.5 -111.5t-71.5 -66.5t-87 -22
q-84 0 -140 46q-27 -22 -60 -33.5t-65 -11.5zM-269 1600v150l504 187v-147zM-269 1842v149l504 188v-148z" />
    <glyph glyph-name="uni0651064E" unicode="&#xfc60;" arabic-form="isolated" 
d="M-130 1604q-94 0 -148 53t-54 146v109h125v-109q0 -79 77 -75q8 0 23 4.5t27.5 20.5t12.5 50v109h126v-109q0 -79 78 -76q8 0 22 5.5t26 22t12 48.5q0 40 -21 110q-4 15 -8 32l118 40l8 -31q1 -2 1 -5q9 -29 18 -68t9 -78q0 -67 -28.5 -111.5t-71.5 -66.5t-87 -22
q-84 0 -140 46q-27 -22 -60 -33.5t-65 -11.5zM-293 2008v150l504 187v-148z" />
    <glyph glyph-name="uni0651064F" unicode="&#xfc61;" arabic-form="isolated" 
d="M-130 1594q-94 0 -148 53t-54 146v109h125v-109q0 -79 77 -75q8 0 23 4.5t27.5 20.5t12.5 50v109h126v-109q0 -79 78 -76q8 0 22 5.5t26 22t12 48.5q0 40 -21 110q-4 15 -8 32l118 40l8 -31q1 -2 1 -5q9 -29 18 -68t9 -78q0 -67 -28.5 -111.5t-71.5 -66.5t-87 -22
q-84 0 -140 46q-27 -22 -60 -33.5t-65 -11.5zM-228 1969l-36 126q67 20 142.5 48.5t133.5 67.5q-70 26 -116.5 79.5t-46.5 116.5q0 32 15 65q26 54 79.5 89.5t112.5 35.5q34 0 67 -15q59 -30 84.5 -78t25.5 -104q0 -58 -21 -116t-55 -105q-46 -61 -119 -103t-144.5 -67.5
t-113.5 -37.5zM55 2475q-22 0 -48.5 -12.5t-39.5 -35.5q-2 -4 -2 -8q0 -23 38.5 -59t91.5 -47q16 33 16 78q0 29 -13 54.5t-43 29.5z" />
    <glyph glyph-name="uni06510650" unicode="&#xfc62;" arabic-form="isolated" 
d="M-126 1947q-94 0 -148 53t-54 146v109h125v-109q0 -79 77 -75q8 0 23 4.5t27.5 20.5t12.5 50v109h126v-109q0 -79 78 -76q8 0 22 5.5t26 22t12 48.5q0 40 -21 110q-4 15 -8 32l118 40l8 -31q1 -2 1 -5q9 -29 18 -68t9 -78q0 -67 -28.5 -111.5t-71.5 -66.5t-87 -22
q-84 0 -140 46q-27 -22 -60 -33.5t-65 -11.5zM-249 1599v149l504 188v-148z" />
    <glyph glyph-name="uniFC63" unicode="&#xfc63;" arabic-form="isolated" 
d="M-130 1614q-94 0 -148 53t-54 146v109h125v-109q0 -79 77 -75q8 0 23 4.5t27.5 20.5t12.5 50v109h126v-109q0 -79 78 -76q8 0 22 5.5t26 22t12 48.5q0 40 -21 110q-4 15 -8 32l118 40l8 -31q1 -2 1 -5q9 -29 18 -68t9 -78q0 -67 -28.5 -111.5t-71.5 -66.5t-87 -22
q-84 0 -140 46q-27 -22 -60 -33.5t-65 -11.5zM-76 2054v408h150v-408h-150z" />
    <glyph glyph-name="uni0692.fina" unicode="&#x692;" horiz-adv-x="904" 
d="M893 395h36v-457h-46q-46 0 -89 10q-17 -68 -52.5 -161t-99.5 -173q-95 -109 -238 -162q-135 -51 -305 -51h-99v456h99q170 0 236 73q39 48 51.5 118t12.5 128v537h410v-239q0 -31 21.5 -55t62.5 -24zM890 1311l-231 -413h-131l-234 413h171l126 -253l130 253h169z" />
    <glyph glyph-name="uni0695.fina" unicode="&#x695;" horiz-adv-x="904" 
d="M893 395h36v-457h-46q-46 0 -89 10q-17 -68 -52.5 -161t-99.5 -173q-95 -109 -238 -162q-135 -51 -305 -51h-99v456h99q170 0 236 73q39 48 51.5 118t12.5 128v537h410v-239q0 -31 21.5 -55t62.5 -24zM648 -679l-231 -413h-131l-234 413h171l126 -253l130 253h169z" />
    <glyph glyph-name="uni06A4.init" unicode="&#x6a8;" horiz-adv-x="1159" 
d="M1067 429q0 -141 -69.5 -252t-203.5 -175t-326 -64h-486v457h95q-4 56 -4 105q0 167 48 277t121.5 174t156.5 90.5t154 26.5q215 0 369 -162q145 -164 145 -406v-71zM556 638q-49 0 -82 -32t-33 -78q0 -25 5.5 -47t22 -35.5t50.5 -13.5h155v96q0 47 -33.5 78.5
t-84.5 31.5zM765 1709l-201 -200l-200 200l200 201zM549 1399l-220 -219l-219 219l219 220zM1018 1399l-220 -219l-219 219l219 220z" />
    <glyph glyph-name="uni06A4.medi" unicode="&#x6a8;" horiz-adv-x="1222" 
d="M1124 395h122v-457h-216q-112 0 -206 11.5t-209 38.5q-100 -27 -201.5 -38.5t-214.5 -11.5h-219v457h125q-15 63 -15 132q0 222 147 384q150 162 378 162q227 0 377 -162q147 -162 147 -384q0 -69 -15 -132zM615 405q7 1 27.5 8.5t45.5 22.5t43.5 40.5t18.5 62.5
q0 12 -5 36.5t-19.5 49.5t-41 43t-69.5 18t-70 -18t-41 -43t-19 -49.5t-5 -36.5q0 -38 18.5 -63.5t43 -40.5t45.5 -22t28 -8zM846 1721l-201 -200l-200 200l200 201zM630 1411l-220 -219l-219 219l219 220zM1099 1411l-220 -219l-219 219l219 220z" />
    <glyph glyph-name="uni06A8.fina" unicode="&#x6a8;" horiz-adv-x="1692" 
d="M1127 983q215 0 369 -162q145 -164 145 -406v-20h76v-457h-79q-2 -39 -6.5 -69t-18.5 -82q-37 -125 -123 -213q-167 -173 -529 -173h-196q-199 0 -350.5 71.5t-239.5 207.5q-48 78 -72.5 184t-24.5 213q0 29 2 57q14 225 140 506l373 -168q-95 -212 -105 -363
q-1 -14 -1 -27q0 -84 32 -133q27 -39 71 -59t92 -26t83 -6h196q116 0 171.5 10.5t74 28.5t19.5 41h-79q-131 0 -242.5 57t-178.5 163.5t-67 256.5q0 167 46 276.5t117.5 174t152.5 91t152 26.5zM1093 395h154v95q0 47 -33.5 78.5t-83.5 31.5t-82.5 -32t-32.5 -78
q0 -25 5.5 -47t22 -35t50.5 -13zM1306 1604l-201 -200l-200 200l200 201zM1090 1294l-220 -219l-219 219l219 220zM1559 1294l-220 -219l-219 219l219 220z" />
    <glyph glyph-name="uni06AA.init" unicode="&#x6aa;" horiz-adv-x="1764" 
d="M1009 1479l130 -389h-1q-9 0 -69.5 -24.5t-151.5 -67t-173 -88.5t-120 -82h166q108 -1 237 -1q82 0 177.5 -9t183.5 -38.5t150 -88.5q83 -83 129.5 -183t46.5 -196q0 -135 -91 -278q-21 -22 -55 -43.5t-81 -36t-109 -14.5h-127l-836 -2h-440v457h439l903 1l-9 9
q-23 23 -60.5 43t-88.5 20q-769 0 -865 1h-3l-204 205q0 204 182 387q118 119 314 228q164 88 288.5 137.5t137.5 52.5z" />
    <glyph glyph-name="uni06AA.medi" unicode="&#x6aa;" horiz-adv-x="2017" 
d="M1044 1479l130 -389h-1q-9 0 -69.5 -24.5t-151.5 -67t-173 -88.5t-120 -82h166q108 -1 237 -1q82 0 177.5 -9t183.5 -38.5t150 -88.5q0 -1 1 -1v-1l1 2q20 -20 40 -42q19 -22 39 -42q53 -79 96.5 -122.5t81.5 -63t75 -23t77 -3.5h58v-456h-58q-71 0 -161 13.5t-185 61.5
q-34 -29 -89 -52t-134 -23h-1440v456h474l903 1l-9 9q-23 23 -60.5 43t-88.5 20q-769 0 -865 1h-3l-204 205q0 204 182 387q118 119 314 228q164 88 288.5 137.5t137.5 52.5z" />
    <glyph glyph-name="uni06AA.fina" unicode="&#x6aa;" horiz-adv-x="2586" 
d="M1612 1479l130 -389h-1q-9 0 -69.5 -24.5t-151.5 -67t-173 -88.5t-120 -82h166q108 -1 237 -1q82 0 177.5 -9t183.5 -38.5t150 -88.5q0 -1 1 -1v-1l1 2q20 -20 40 -42q19 -22 39 -42q53 -79 96.5 -122.5t81.5 -63t75 -23t77 -3.5h58v-457h-58q-71 0 -161 13.5t-185 61.5
q-34 -29 -89 -52t-134 -23h-1120q-182 0 -304 6t-207 28q-145 40 -218 147q-41 111 -52.5 175.5t-11.5 110.5q0 93 43 257q15 57 26.5 95.5t12.5 41.5l197 -62l193 -61q-22 -72 -40.5 -149.5t-21.5 -116.5q29 -6 99 -11q109 -4 284 -4h154l903 1l-9 9q-23 23 -60.5 43
t-88.5 20q-769 0 -865 1h-3l-204 205q0 204 182 387q118 119 314 228q164 88 288.5 137.5t137.5 52.5z" />
    <glyph glyph-name="uni06B5.init" unicode="&#x6b5;" horiz-adv-x="647" 
d="M568 1427l1 -1000v-1q0 -20 -7 -75.5t-28 -115.5q-38 -95 -111 -164q-147 -133 -368 -133h-79l-1 457h79q60 0 88 22q10 10 13.5 26.5t3.5 30.5v953h409zM647 2022l-231 -413h-131l-234 413h171l126 -253l130 253h169z" />
    <glyph glyph-name="uni06B5.medi" unicode="&#x6b5;" horiz-adv-x="642" 
d="M569 458q0 -15 7 -29.5t26 -24t57 -9.5v-458q-102 0 -189 33q-57 21 -106 54q-131 -87 -310 -87h-79v458h79q54 0 79.5 15.5t25.5 63.5v953h410v-969zM661 2013l-231 -413h-131l-234 413h171l126 -253l130 253h169z" />
    <glyph glyph-name="uni06B5.fina" unicode="&#x6b5;" horiz-adv-x="1518" 
d="M1464 395h62v-459h-62q-39 0 -75 5q0 -84 -30.5 -183.5t-108.5 -180.5q-90 -93 -233 -137q-126 -38 -306 -38q-176 0 -315.5 73t-228.5 202q-43 61 -71 149.5t-28 196.5q0 36 4 74q10 102 37 213t81 227l371 -174q-74 -158 -79 -281v-15q0 -78 30 -127q24 -37 60.5 -55
t74 -24t64.5 -6q108 0 166.5 15.5t80.5 57.5t22 122v1377h410v-953q0 -78 74 -79zM1487 2013l-231 -413h-131l-234 413h171l126 -253l130 253h169z" />
    <glyph glyph-name="uni06A4.fina" unicode="&#x6a4;" horiz-adv-x="2198" arabic-form="final" 
d="M147 800l393 -116l-14.5 -60t-32.5 -139q-7 -26 -7 -46t11.5 -32t43.5 -12h556q-15 63 -15 132q0 222 147 384q150 162 378 162q227 0 377 -162q147 -162 147 -384q0 -69 -15 -132h107v-457h-201q-112 0 -206 11.5t-209 38.5q-94 -27 -222 -38.5t-380 -11.5
q-137 0 -325 2t-261 12q-172 27 -262 167q-39 57 -57.5 140.5t-18.5 174.5q0 50 6 100q24 156 59 260q0 2 1 4v2zM1607 405q7 1 27.5 8.5t45.5 22.5t43.5 40.5t18.5 62.5q0 12 -5 36.5t-19.5 49.5t-41 43t-69.5 18t-70 -18t-41 -43t-19 -49.5t-5 -36.5q0 -38 18.5 -63.5
t43 -40.5t45.5 -22t28 -8zM1803 1703l-201 -200l-200 200l200 201zM1587 1393l-220 -219l-219 219l219 220zM2056 1393l-220 -219l-219 219l219 220z" />
    <glyph glyph-name="uni06C6.fina" unicode="&#x6c6;" horiz-adv-x="1102" arabic-form="final" 
d="M526 394h155v96q0 47 -34 78.5t-84 31.5q-49 0 -82 -32t-33 -78q0 -25 5.5 -47t22 -35.5t50.5 -13.5zM1074 395h53v-457h-60q-9 -75 -33 -136q-40 -101 -99.5 -170t-120.5 -116q-36 -25 -98.5 -52.5t-178.5 -45.5q-101 -16 -262 -16h-109v454h121q123 0 204 7t116 26
t39 48h-86q-133 4 -241.5 60.5t-173.5 162t-65 255.5q0 167 47.5 276.5t121.5 174t157 91t154 26.5q215 0 369 -162q145 -164 145 -406v-20zM831 1473l-231 -413h-131l-234 413h171l126 -253l130 253h169z" />
    <glyph glyph-name="uni06CE.init" unicode="&#x6ce;" horiz-adv-x="923" 
d="M794 849l17 -91.5t39 -212.5q15 -78 15 -144q0 -34 -4 -65q-8 -61 -29.5 -126.5t-56.5 -108.5q-70 -91 -185 -135q-85 -27 -201 -27h-444v456h444q37 0 50 9.5t13 29.5q0 15 -4 35l-50 260zM218 -125l220 -219l-220 -220l-219 220zM687 -125l220 -219l-220 -220l-219 220
zM668 1437l-231 -413h-131l-234 413h171l126 -253l130 253h169z" />
    <glyph glyph-name="uni06CE.medi" unicode="&#x6ce;" horiz-adv-x="1024" 
d="M828 713v-270q0 -25 11 -36.5t55 -11.5h155v-456h-147q-76 0 -147 22t-131 60q-58 -46 -129.5 -64t-184.5 -18h-335v456h364q49 0 64 10.5t15 37.5v270h410zM262 -117l220 -219l-220 -220l-219 220zM731 -117l220 -219l-220 -220l-219 220zM941 1269l-231 -413h-131
l-234 413h171l126 -253l130 253h169z" />
    <glyph glyph-name="uni06CE.fina" unicode="&#x6ce;" horiz-adv-x="1856" 
d="M226 700l367 -177q-110 -228 -110 -390q0 -130 69 -203.5t206 -73.5h266q76 0 128 5t86 12.5t52.5 15t25.5 12.5l7 5q-59 28 -133.5 43t-161.5 26q-30 4 -61 9v410h914v-456h-183q5 -29 5 -58q0 -133 -48.5 -220t-126.5 -139t-169 -77.5t-179.5 -33t-155.5 -7.5h-266
q-180 0 -310 63t-214 167.5t-124 234.5t-40 265q0 121 40.5 274t115.5 293zM1176 1039l-231 -413h-131l-234 413h171l126 -253l130 253h169z" />
    <glyph glyph-name=".notdef" horiz-adv-x="1229" 
d="M102 -362v1806h1024v-1806h-1024zM217 -248h795v1577h-795v-1577z" />
    <glyph glyph-name="NULL" unicode="&#xfeff;" 
 />
    <glyph glyph-name="NULL" 
 />
    <glyph glyph-name="nonmarkingreturn" horiz-adv-x="602" 
 />
    <glyph glyph-name="space" unicode=" " horiz-adv-x="696" 
 />
    <glyph glyph-name="space" unicode="&#xa0;" horiz-adv-x="696" 
 />
    <glyph glyph-name="uni0640" unicode="&#x640;" horiz-adv-x="414" 
d="M4 394h418q41 0 41 -38v-378q0 -22 -10 -31t-31 -9h-418q-43 0 -40 40v378q0 17 9.5 27.5t30.5 10.5z" />
    <glyph glyph-name="uni066E" unicode="&#x66e;" horiz-adv-x="2076" 
d="M786 -61q-137 0 -222 2t-145 12q-172 27 -262 166q-75 139 -75 321q0 45 5 93q24 156 59 260q0 2 1 4v2l393 -116v-1q-2 -7 -14 -59q-15 -60 -33 -139q-7 -25 -7 -45v-3q0 -18 11.5 -30t43.5 -12l807 1h196q51 0 60 18q4 8 4 21q0 14 -5 35l-40 209l397 116q3 -16 7 -36
q17 -92 38 -213q15 -77 15 -143q0 -34 -4 -66q-4 -151 -84 -248q-71 -86 -187 -122q-85 -27 -201 -27h-758z" />
    <glyph glyph-name="feh_dotless.isol" horiz-adv-x="2111" 
d="M2022 427q0 -142 -69.5 -253t-203.5 -174.5t-327 -63.5h-632q-137 0 -222 2t-145 12q-172 27 -262 166q-75 139 -75 321q0 45 5 93q24 156 59 260q0 2 1 4v2l393 -117q-1 -4 -5 -21q-4 -14 -9 -38q-15 -60 -33 -139q-7 -25 -7 -45v-3q0 -18 11 -30q12 -12 44 -12h392v2
h95q-4 56 -4 105q0 167 47.5 276.5t121.5 174t157 91t154 26.5q215 0 369 -162q145 -164 145 -406v-71zM1629 430v96q0 47 -34 78.5t-84 31.5q-49 0 -82 -32t-33 -78q0 -26 5.5 -47.5t22 -35t50.5 -13.5h155z" />
    <glyph glyph-name="uni06A1.fina" horiz-adv-x="2198" 
d="M147 800l393 -116l-14.5 -60t-32.5 -139q-7 -26 -7 -46t11.5 -32t43.5 -12h556q-15 63 -15 132q0 222 147 384q150 162 378 162q227 0 377 -162q147 -162 147 -384q0 -69 -15 -132h107v-457h-201q-112 0 -206 11.5t-209 38.5q-94 -27 -222 -38.5t-380 -11.5
q-137 0 -325 2t-261 12q-172 27 -262 167q-39 57 -57.5 140.5t-18.5 174.5q0 50 6 100q24 156 59 260q0 2 1 4v2zM1607 405q7 1 27.5 8.5t45.5 22.5t43.5 40.5t18.5 62.5q0 12 -5 36.5t-19.5 49.5t-41 43t-69.5 18t-70 -18t-41 -43t-19 -49.5t-5 -36.5q0 -38 18.5 -63.5
t43 -40.5t45.5 -22t28 -8z" />
    <glyph glyph-name="uni066F" unicode="&#x66f;" horiz-adv-x="1691" 
d="M1127 983q215 0 369 -162q145 -164 145 -406l-1 -363q0 -62 -5 -132.5t-22 -129.5q-37 -125 -123 -213q-167 -173 -529 -173h-196q-199 0 -350.5 71.5t-239.5 207.5q-57 94 -77.5 180.5t-20.5 176.5q0 46 3 94q14 225 140 506l373 -168q-95 -212 -105 -363q-1 -14 -1 -27
q0 -84 32 -133q27 -39 71 -59t92 -26t83 -6h196q267 0 265 81h-79q-131 0 -242.5 56.5t-178.5 163t-67 256.5q0 167 46 276.5t117.5 174t152.5 91t152 26.5zM1092 395h154v95q0 47 -33.5 78.5t-83.5 31.5t-82.5 -32t-32.5 -78q0 -25 5.5 -47t22 -35t50.5 -13z" />
    <glyph glyph-name="onedot.above" 
d="M234 1312l-234 -233l-233 233l233 234z" />
    <glyph glyph-name="twodots.above" 
d="M-15 1312l-220 -219l-219 219l219 220zM454 1312l-220 -219l-219 219l219 220z" />
    <glyph glyph-name="threedots.above" 
d="M201 1622l-201 -200l-200 200l200 201zM-15 1312l-220 -219l-219 219l219 220zM454 1312l-220 -219l-219 219l219 220z" />
    <glyph glyph-name="threedots.below" 
d="M0 -486l201 -200l-201 -201l-200 201zM-235 -157l220 -219l-220 -220l-219 220zM234 -157l220 -219l-220 -220l-219 220z" />
    <glyph glyph-name="uni0660" unicode="&#x660;" horiz-adv-x="1250" 
d="M977 929q146 -154 146 -353q0 -200 -146 -354q-153 -145 -353 -145t-353 145q-146 154 -146 354q0 199 146 353q153 145 353 145t353 -145zM624 434q59 0 100 41.5t41 100.5q0 58 -41 99.5t-100 41.5q-58 0 -99.5 -41.5t-41.5 -99.5q0 -59 41.5 -100.5t99.5 -41.5z" />
    <glyph glyph-name="uni0661" unicode="&#x661;" horiz-adv-x="676" 
d="M589 -63h-409q0 69 0.5 114t1.5 84v6q3 100 3 213q0 143 -10 304.5t-39 335.5t-86 357l390 123q65 -210 98.5 -409t44.5 -380.5t11 -336.5q0 -116 -3 -215v-3q-1 -38 -1.5 -81.5t-0.5 -111.5z" />
    <glyph glyph-name="uni0662" unicode="&#x662;" horiz-adv-x="1289" 
d="M1174 1350q36 -152 36 -253q0 -73 -10.5 -147.5t-38.5 -142t-79 -121.5q-139 -144 -342 -144q-73 0 -143 20q8 -87 10.5 -180t2.5 -181q0 -62 -1 -119v-142h-410v212q0 200 -11.5 401.5t-44.5 401t-93 393.5l390 123q32 -99 58 -203q10 -39 26 -85t40.5 -88.5t60.5 -70
t86 -27.5q14 0 29 2q40 7 56.5 39t16.5 80q0 52 -13 115t-30 128l368 115q1 -3 11.5 -37.5t24.5 -88.5z" />
    <glyph glyph-name="uni0663" unicode="&#x663;" horiz-adv-x="1675" 
d="M1511 1460v-1q4 -16 15.5 -73t22.5 -134t11 -147q0 -105 -18.5 -208.5t-77.5 -186.5q-56 -79 -138 -123q-83 -45 -181 -45q-153 0 -266 82q-100 -80 -242 -86h-39q9 -132 9 -269q0 -88 -2 -170v-160h-410v99t1 66v12q1 63 1 134q0 155 -11 343t-48 398q-12 42 -24.5 103
t-18.5 93q-1 8 -2 11q-19 74 -43 147l391 124q7 -31 14 -60q31 -144 56.5 -242.5t51.5 -149.5t61 -51q20 0 28 23t8 66q0 50 -8.5 124t-21.5 169q-3 21 -6 44l399 39q4 -37 7 -75q6 -63 21 -154t36.5 -163.5t45.5 -72.5q16 0 25.5 21.5t9.5 72.5q0 95 -39 311z" />
    <glyph glyph-name="uni0664" unicode="&#x664;" horiz-adv-x="1224" 
d="M706 1462l129 -337q-204 -65 -304.5 -115.5t-100.5 -81.5q0 -5 2 -9q9 -15 57 -26t131 -11q113 0 227 19l59 -319q-145 -39 -210.5 -76.5t-95.5 -85.5q-20 -30 -20 -57q0 -13 5 -26q15 -37 61 -51q38 -11 84 -11q111 0 248 60l165 -326q-152 -70 -307 -84h-3
q-52 -6 -102 -6q-123 0 -231 34q-103 36 -180 99q-79 70 -120 163q-30 72 -30 146q0 27 4 54q14 98 74 187l4 6l12 16q-18 7 -33 19q-71 44 -113 106q-44 64 -55 137q-3 21 -3 43q0 122 94 233q73 85 204 158q107 58 203.5 94t144.5 48z" />
    <glyph glyph-name="uni0665" unicode="&#x665;" horiz-adv-x="1307" 
d="M657 417q41 0 76.5 32t35.5 76q0 47 -17 76t-40 53q-4 5 -9 11q-20 26 -59 60q-47 -55 -77 -101t-30 -99q0 -48 36.5 -78t83.5 -30zM498 1419l208 -125q172 -113 279.5 -209t164.5 -187.5t77.5 -191.5t20.5 -224q0 -69 -20.5 -146.5t-64.5 -150.5t-113.5 -132.5
t-167.5 -95t-227 -35.5q-149 0 -262 53.5t-189.5 138.5t-115 183t-38.5 188q0 133 27 228t75.5 178.5t114.5 177.5q16 23 33 49q30 44 64 96z" />
    <glyph glyph-name="uni0666" unicode="&#x666;" horiz-adv-x="1283" 
d="M854 1462l259 -219q-17 -157 -17 -316q0 -444 135 -907l-393 -117q-81 286 -110.5 546t-29.5 493v16q-77 -14 -173 -14q-119 0 -240 16.5t-197 41.5l81 451q76 -21 153 -29.5t147 -8.5q90 0 163 8q185 25 219 38z" />
    <glyph glyph-name="uni0667" unicode="&#x667;" horiz-adv-x="1532" 
d="M1168 1512l314 -263q-204 -250 -365 -667q-68 -177 -107.5 -345.5t-39.5 -304.5h-410q0 137 -39 305.5t-106 344.5q-161 418 -365 667l314 263q115 -142 230 -388.5t172 -481.5q50 235 168 481.5t234 388.5z" />
    <glyph glyph-name="uni0668" unicode="&#x668;" horiz-adv-x="1532" 
d="M1168 -98q-116 142 -234 388.5t-168 481.5q-57 -235 -172 -481.5t-230 -388.5l-314 263q204 250 365 667q67 176 106 345t39 305h410q0 -136 39.5 -304.5t107.5 -345.5q161 -417 365 -667z" />
    <glyph glyph-name="uni0669" unicode="&#x669;" horiz-adv-x="1095" 
d="M541 928h73v16.5t-1 27.5v26.5v14.5q0 25 -6.5 50.5t-26 42.5t-59.5 17t-60 -17.5t-26.5 -43t-6.5 -49.5q0 -26 8.5 -45.5t33 -29.5t71.5 -10zM527 1489q76 0 134.5 -17t102 -41.5t72.5 -49.5q88 -76 132 -194q44 -117 44 -272q0 -297 11 -478t26 -274t27 -123l-383 -143
q-51 145 -72 352q-9 86 -10 161q-1 32 -3 68h-69q-151 0 -261 66q-93 64 -140.5 187t-47.5 246q0 39 9.5 102.5t35.5 133.5t75 133t126.5 103t190.5 40z" />
    <glyph glyph-name="uni06F4" unicode="&#x6f4;" horiz-adv-x="1527" 
d="M1477 482l-48 -12.5t-153.5 -25.5t-280.5 -13q-97 0 -211 21.5t-182 56.5q8 -189 8 -332q0 -66 -1 -125v-141h-410q0 66 1 98v46v116q0 151 -9 335.5t-41.5 389.5t-99.5 422l391 123q63 -183 101 -379q9 90 52 167t81 112q75 69 167 105.5t188 36.5q74 0 133 -17t113 -45
t109 -61q27 -16 59 -34l-173 -298l-63 37q-65 38 -111.5 48t-75.5 10q-6 1 -12 1h-10q-45 0 -76.5 -29.5t-36.5 -66.5q-1 -10 -1 -19q0 -31 11.5 -54t24.5 -36.5t19 -17.5q74 -48 216 -48q14 0 27 1q50 4 104 11.5t79 12.5l24 5z" />
    <glyph glyph-name="uni06F5" unicode="&#x6f5;" horiz-adv-x="1398" 
d="M741 331q122 0 179 35t57 98q0 49 -19 101t-49 103t-63 96t-62.5 79.5t-48.5 54.5l-19 19l-26 -31q-26 -32 -63.5 -83.5t-75 -112t-63 -120.5t-25.5 -106q0 -72 70 -102.5t208 -30.5zM638 1518q10 -8 111.5 -100.5t233.5 -237.5q375 -417 375 -716q0 -101 -27.5 -187.5
t-75 -162.5t-109 -114t-130.5 -60.5t-139.5 -32.5t-135.5 -10q-73 0 -150.5 11t-152.5 35.5t-140.5 63.5t-116 115t-79 160.5t-28.5 181.5q0 129 85 299q59 117 158 258q58 81 108 146q-52 47 -55 49z" />
    <glyph glyph-name="uni06F6" unicode="&#x6f6;" horiz-adv-x="1238" 
d="M1213 847l-78 -80q-78 -81 -194 -220t-237 -316.5t-213 -374.5l-376 162q144 330 282 528q-124 39 -210 133q-123 139 -123 323q0 19 1 38q7 95 50 177q45 89 123 151q83 64 164 89t164 38q30 5 62 11l76 -375l-69 -13q-114 -25 -155 -75q-22 -28 -22 -55q0 -24 16 -47
q27 -35 70 -35q9 0 42 5.5t95.5 44t114.5 85.5q40 37 67 65q20 20 42 41z" />
    <glyph glyph-name="uni066A" unicode="&#x66a;" horiz-adv-x="1232" 
d="M1107 1525l-622 -1584h-387l621 1584h388zM1166 178l-234 -233l-233 233l233 234zM517 1289l-234 -233l-233 233l233 234z" />
    <glyph glyph-name="uni061F" unicode="&#x61f;" horiz-adv-x="1089" 
d="M554 1588q130 0 216 -43t138 -110t78 -142t34.5 -143t8.5 -110h-373q0 95 -32.5 134t-78.5 39q-47 0 -75.5 -31.5t-28.5 -72.5q0 -48 42.5 -92.5t113.5 -102.5l22 -18q116 -95 158.5 -184.5t42.5 -235.5v-198h-410v272q0 12 -3 21t-17.5 24t-46.5 42.5t-90 75.5
q-83 71 -125 144.5t-55 139t-13 112.5q0 48 11.5 111t42.5 127t86.5 118.5t142 88.5t211.5 34zM849 -64l-234 -233l-233 233l233 234z" />
    <glyph glyph-name="uni060C" unicode="&#x60c;" horiz-adv-x="580" 
d="M281 654l168 -154l-15 -12t-35.5 -31t-39.5 -41t-29 -43q88 -5 148 -67t60 -149q0 -89 -69.5 -152.5t-158.5 -63.5q-61 0 -122 29t-101 95t-40 176q0 101 57 213t177 200z" />
    <glyph glyph-name="uni061B" unicode="&#x61b;" horiz-adv-x="562" 
d="M274 1206l168 -154l-15 -12t-35.5 -31t-39.5 -41t-29 -43q88 -5 148 -67t60 -149q0 -89 -69.5 -152.5t-158.5 -63.5q-61 0 -122 29t-101 95t-40 176q0 101 57 213t177 200zM114 128q0 77 54.5 132t131.5 55t132 -55t55 -132t-55 -131.5t-132 -54.5t-131.5 54.5
t-54.5 131.5z" />
    <glyph glyph-name="uni066B" unicode="&#x66b;" horiz-adv-x="933" 
d="M903 856l-496 -1086h-387l495 1086h388z" />
    <glyph glyph-name="uni066C" unicode="&#x66c;" horiz-adv-x="587" 
d="M157 -413l-99 178l26 14t62.5 38t71.5 56t56 68q6 12 6 21q0 15 -15 19t-29 4q-43 0 -86 20.5t-71.5 63.5t-28.5 109q0 89 69.5 152.5t158.5 63.5q62 0 121.5 -34.5t98.5 -100.5t39 -163q0 -46 -14 -109.5t-54 -134.5t-115.5 -139.5t-196.5 -125.5z" />
    <glyph glyph-name="uni066D" unicode="&#x66d;" horiz-adv-x="1126" 
d="M1082 1033l-241 -45l169 -173l-330 -242l-118 235l-116 -235l-332 240l196 175l-268 47l127 390l224 -125l-36 262h410l-39 -262l228 124z" />
    <glyph glyph-name="uni064B" unicode="&#x64b;" 
d="M-252 1566v150l504 187v-148zM-252 1808v149l504 187v-147z" />
    <glyph glyph-name="uni064D" unicode="&#x64d;" 
d="M-252 -826v150l504 187v-147zM-252 -584v149l504 188v-148z" />
    <glyph glyph-name="uni064E" unicode="&#x64e;" 
d="M-251 1566v150l504 187v-148z" />
    <glyph glyph-name="uni064F" unicode="&#x64f;" 
d="M-268 1562l-36 126q67 20 142.5 48.5t133.5 67.5q-70 26 -116.5 79.5t-46.5 116.5q0 32 15 65q26 54 79.5 89.5t112.5 35.5q34 0 67 -15q59 -30 84.5 -78t25.5 -104q0 -58 -21 -116t-55 -105q-46 -61 -119 -103t-144.5 -67.5t-113.5 -37.5zM15 2068q-22 0 -48.5 -12.5
t-39.5 -35.5q-2 -4 -2 -8q0 -23 38.5 -59t91.5 -47q16 33 16 78q0 29 -13 54.5t-43 29.5z" />
    <glyph glyph-name="uni064C" unicode="&#x64c;" 
d="M-213 1584l-62 85l8 16q12 24 21 46.5t9 42.5q0 15 -7 28q-19 17 -41 17q-18 0 -36.5 -8t-33.5 -19l-79 77q5 7 24 24.5t51 33t75 15.5h6q79 -8 120 -76q23 -50 23 -97q0 -11 -1 -24.5t-3 -23.5q43 9 86.5 28.5t69.5 43.5q-64 31 -105 83.5t-41 109.5q0 30 14 60
q27 54 79 89.5t107 35.5q36 0 65 -14q56 -28 80 -78t24 -108q0 -97 -63 -187q-62 -77 -146.5 -120t-154 -61t-89.5 -19zM71 2045q-19 0 -45.5 -12t-41.5 -32q10 -38 47 -64t74 -41q10 16 14.5 32t4.5 42q0 31 -14.5 53t-38.5 22z" />
    <glyph glyph-name="uni0650" unicode="&#x650;" 
d="M-252 -584v149l504 188v-148z" />
    <glyph glyph-name="uni0651" unicode="&#x651;" 
d="M-130 1644q-94 0 -148 53t-54 146v109h125v-109q0 -79 77 -75q8 0 23 4.5t27.5 20.5t12.5 50v109h126v-109q0 -79 78 -76q8 0 22 5.5t26 22t12 48.5q0 40 -21 110q-4 15 -8 32l118 40l8 -31q1 -2 1 -5q9 -29 18 -68t9 -78q0 -67 -28.5 -111.5t-71.5 -66.5t-87 -22
q-84 0 -140 46q-27 -22 -60 -33.5t-65 -11.5z" />
    <glyph glyph-name="uni0652" unicode="&#x652;" 
d="M-2 1654q-109 0 -174.5 62.5t-65.5 169.5q0 109 65.5 172.5t174.5 63.5q105 0 175.5 -63.5t70.5 -170.5q0 -106 -67.5 -170t-171.5 -64h-7zM-2 1791q42 0 72.5 24.5t30.5 70.5t-30.5 73t-72.5 27q-43 0 -74 -26.5t-31 -73.5q0 -49 28 -72t77 -23z" />
    <glyph glyph-name="uni0653" unicode="&#x653;" 
d="M424 1885v-287h-517q-60 0 -90.5 -16.5t-44 -40.5t-19.5 -50l-276 78q17 64 47 125t87 109q95 82 296 82h517z" />
    <glyph glyph-name="uni0654" unicode="&#x654;" 
d="M215 1639l-499 -164v160l115 37q-30 31 -47 68.5t-17 81.5q0 68 46.5 129.5t112.5 82.5q34 10 70 10q38 0 70.5 -10t63.5 -23l-32 -133q-60 17 -101 17q-14 0 -25 -3q-23 -7 -41.5 -25.5t-18.5 -42.5q0 -9 3 -19q7 -25 35.5 -41.5t79.5 -16.5q13 0 29.5 2.5t50.5 11.5
t97 30z" />
    <glyph glyph-name="uni0655" unicode="&#x655;" 
d="M258 -492l-499 -164v160l115 37q-30 31 -47 68.5t-17 81.5q0 68 46.5 129.5t112.5 82.5q34 10 70 10q38 0 70.5 -10t63.5 -23l-32 -133q-60 17 -101 17q-14 0 -25 -3q-23 -7 -41.5 -25.5t-18.5 -42.5q0 -9 3 -19q7 -25 35.5 -41.5t79.5 -16.5q13 0 29.5 2.5t50.5 11.5
t97 30z" />
    <glyph glyph-name="uni0670" unicode="&#x670;" 
d="M-76 1662v408h150v-408h-150z" />
    <glyph glyph-name="uni0656" unicode="&#x656;" 
d="M-76 -792v409h150v-409h-150z" />
    <glyph glyph-name="uni0615" unicode="&#x615;" 
d="M72 1189h-423v119h100q3 3 4.5 5t2 3t1.5 2q0 2 2 5t5 7q8 13 26 39v487h117v-331q35 36 77.5 58t92.5 22q47 0 91.5 -22t73.5 -70t29 -125q0 -74 -31 -117.5t-77 -62.5t-91 -19zM77 1486q-32 0 -64.5 -26.5t-63 -67t-58.5 -84.5h181q34 0 58.5 19t24.5 61q0 51 -21 74.5
t-57 23.5z" />
    <glyph glyph-name="wasla" 
d="M153 1557h-481l26 119h133l43 66l83 122q36 53 88 84t113 31q47 0 91.5 -24t73.5 -73.5t29 -125.5q0 -74 -31 -117.5t-77 -62.5t-91 -19zM158 1860q-32 0 -65 -28.5t-64 -70.5t-57 -85h181q34 0 56.5 19t22.5 61q0 102 -74 104z" />
    <glyph glyph-name="beh_dotless_alt.init" horiz-adv-x="923" 
d="M794 849l17 -91.5t39 -212.5q15 -78 15 -144q0 -34 -4 -65q-8 -61 -29.5 -126.5t-56.5 -108.5q-70 -91 -185 -135q-85 -27 -201 -27h-444v456h444q37 0 50 9.5t13 29.5q0 15 -4 35l-50 260z" />
    <glyph glyph-name="beh_dotless_alt.medi" horiz-adv-x="1024" 
d="M828 713v-270q0 -25 11 -36.5t55 -11.5h155v-456h-147q-76 0 -147 22t-131 60q-58 -46 -129.5 -64t-184.5 -18h-335v456h364q49 0 64 10.5t15 37.5v270h410z" />
    <glyph glyph-name="onedot.below" 
d="M234 -296l-234 -233l-233 233l233 234z" />
    <glyph glyph-name="twodots.below" 
d="M-235 -74l220 -219l-220 -220l-219 220zM234 -74l220 -219l-220 -220l-219 220z" />
    <glyph glyph-name="alef_alt.isol" horiz-adv-x="610" 
d="M510 1280v-1342h-410v1342h410z" />
    <glyph glyph-name="alef_alt.fina" horiz-adv-x="641" 
d="M665 395v-456h-89q-88 0 -154.5 20t-113.5 50t-77 60q-31 30 -60.5 77t-50 113.5t-20.5 154.5q0 121 0.5 394.5t0.5 416.5v55h409v-821q0 -35 23 -49.5t41 -14.5h91z" />
    <glyph glyph-name="uni06D5" unicode="&#x6d5;" horiz-adv-x="1098" 
d="M553 352q18 0 42.5 10t43.5 32.5t19 58.5q0 18 -17 43.5t-38 50t-38 41l-17 16.5l-15.5 -15.5t-35 -39.5t-35 -50.5t-15.5 -48.5q0 -36 19.5 -57.5t44.5 -31t42 -9.5zM539 1188l6 -7q42 -48 308 -340q68 -69 125 -160.5t70 -237.5q2 -24 2 -46q0 -86 -21 -152t-54 -115
t-70 -82q-69 -62 -154.5 -87.5t-194.5 -25.5t-193 25t-154 90q-57 54 -98 151.5t-41 213.5v23q9 140 56.5 234.5t101.5 150.5q24 25 43 49q-12 13 -20 22q-18 20 -18 21z" />
    <glyph glyph-name="heh_ae.fina" horiz-adv-x="1389" 
d="M571 435q21 0 39 5.5t29 11.5q34 19 47.5 47t13.5 61q0 28 -6.5 59t-14.5 61q-5 18 -9 35q-81 -34 -117.5 -52t-51.5 -34q-40 -42 -40 -86q0 -40 29 -73q18 -19 39 -27t42 -8zM961 1233q51 -218 81 -351q7 -32 13 -60q19 -89 36 -160.5t41 -166.5q7 -33 24 -55
t61.5 -33.5t137.5 -11.5h59v-457h-59q-112 0 -193.5 19.5t-137.5 48t-90.5 57.5t-51.5 50q-79 -44 -156 -58.5t-163 -14.5q-97 0 -191.5 37.5t-166 124.5t-103.5 235q-12 58 -12 119q0 75 23 152t78 148.5t149 130t234 98.5l-13 57z" />
    <glyph glyph-name="uni06C2" unicode="&#x6c2;" horiz-adv-x="1098" 
d="M553 352q18 0 42.5 10t43.5 32.5t19 58.5q0 18 -17 43.5t-38 50t-38 41l-17 16.5l-15.5 -15.5t-35 -39.5t-35 -50.5t-15.5 -48.5q0 -36 19.5 -57.5t44.5 -31t42 -9.5zM539 1188l6 -7q42 -48 308 -340q68 -69 125 -160.5t70 -237.5q2 -24 2 -46q0 -86 -21 -152t-54 -115
t-70 -82q-69 -62 -154.5 -87.5t-194.5 -25.5t-193 25t-154 90q-57 54 -98 151.5t-41 213.5v23q9 140 56.5 234.5t101.5 150.5q24 25 43 49q-12 13 -20 22q-18 20 -18 21zM664 1307l-499 -164v160l115 37q-30 31 -47 68.5t-17 81.5q0 68 46.5 129.5t112.5 82.5q34 10 70 10
q38 0 70.5 -10t63.5 -23l-32 -133q-60 17 -101 17q-14 0 -25 -3q-23 -7 -41.5 -25.5t-18.5 -42.5q0 -9 3 -19q7 -25 35.5 -41.5t79.5 -16.5q13 0 29.5 2.5t50.5 11.5t97 30z" />
    <glyph glyph-name="uni06C3" unicode="&#x6c3;" horiz-adv-x="1098" 
d="M553 352q18 0 42.5 10t43.5 32.5t19 58.5q0 18 -17 43.5t-38 50t-38 41l-17 16.5l-15.5 -15.5t-35 -39.5t-35 -50.5t-15.5 -48.5q0 -36 19.5 -57.5t44.5 -31t42 -9.5zM539 1188l6 -7q42 -48 308 -340q68 -69 125 -160.5t70 -237.5q2 -24 2 -46q0 -86 -21 -152t-54 -115
t-70 -82q-69 -62 -154.5 -87.5t-194.5 -25.5t-193 25t-154 90q-57 54 -98 151.5t-41 213.5v23q9 140 56.5 234.5t101.5 150.5q24 25 43 49q-12 13 -20 22q-18 20 -18 21zM519 1389l-220 -219l-219 219l219 220zM988 1389l-220 -219l-219 219l219 220z" />
    <glyph glyph-name="uni06F0" unicode="&#x6f0;" horiz-adv-x="1250" 
d="M977 929q146 -154 146 -353q0 -200 -146 -354q-153 -145 -353 -145t-353 145q-146 154 -146 354q0 199 146 353q153 145 353 145t353 -145zM624 434q59 0 100 41.5t41 100.5q0 58 -41 99.5t-100 41.5q-58 0 -99.5 -41.5t-41.5 -99.5q0 -59 41.5 -100.5t99.5 -41.5z" />
    <glyph glyph-name="uni06F1" unicode="&#x6f1;" horiz-adv-x="676" 
d="M589 -63h-409q0 69 0.5 114t1.5 84v6q3 100 3 213q0 143 -10 304.5t-39 335.5t-86 357l390 123q65 -210 98.5 -409t44.5 -380.5t11 -336.5q0 -116 -3 -215v-3q-1 -38 -1.5 -81.5t-0.5 -111.5z" />
    <glyph glyph-name="uni06F2" unicode="&#x6f2;" horiz-adv-x="1289" 
d="M1174 1350q36 -152 36 -253q0 -73 -10.5 -147.5t-38.5 -142t-79 -121.5q-139 -144 -342 -144q-73 0 -143 20q8 -87 10.5 -180t2.5 -181q0 -62 -1 -119v-142h-410v212q0 200 -11.5 401.5t-44.5 401t-93 393.5l390 123q32 -99 58 -203q10 -39 26 -85t40.5 -88.5t60.5 -70
t86 -27.5q14 0 29 2q40 7 56.5 39t16.5 80q0 52 -13 115t-30 128l368 115q1 -3 11.5 -37.5t24.5 -88.5z" />
    <glyph glyph-name="uni06F3" unicode="&#x6f3;" horiz-adv-x="1675" 
d="M1511 1460v-1q4 -16 15.5 -73t22.5 -134t11 -147q0 -105 -18.5 -208.5t-77.5 -186.5q-56 -79 -138 -123q-83 -45 -181 -45q-153 0 -266 82q-100 -80 -242 -86h-39q9 -132 9 -269q0 -88 -2 -170v-160h-410v99t1 66v12q1 63 1 134q0 155 -11 343t-48 398q-12 42 -24.5 103
t-18.5 93q-1 8 -2 11q-19 74 -43 147l391 124q7 -31 14 -60q31 -144 56.5 -242.5t51.5 -149.5t61 -51q20 0 28 23t8 66q0 50 -8.5 124t-21.5 169q-3 21 -6 44l399 39q4 -37 7 -75q6 -63 21 -154t36.5 -163.5t45.5 -72.5q16 0 25.5 21.5t9.5 72.5q0 95 -39 311z" />
    <glyph glyph-name="uni06F9" unicode="&#x6f9;" horiz-adv-x="1095" 
d="M581 928h73v16.5t-1 27.5v26.5v14.5q0 25 -6.5 50.5t-26 42.5t-59.5 17t-60 -17.5t-26.5 -43t-6.5 -49.5q0 -26 8.5 -45.5t33 -29.5t71.5 -10zM567 1489q76 0 134.5 -17t102 -41.5t72.5 -49.5q88 -76 132 -194q44 -117 44 -272q0 -297 11 -478t26 -274t27 -123l-383 -143
q-51 145 -72 352q-9 86 -10 161q-1 32 -3 68h-69q-151 0 -261 66q-93 64 -140.5 187t-47.5 246q0 39 9.5 102.5t35.5 133.5t75 133t126.5 103t190.5 40z" />
    <glyph glyph-name="uni06F7" unicode="&#x6f7;" horiz-adv-x="1532" 
d="M1168 1512l314 -263q-204 -250 -365 -667q-68 -177 -107.5 -345.5t-39.5 -304.5h-410q0 137 -39 305.5t-106 344.5q-161 418 -365 667l314 263q115 -142 230 -388.5t172 -481.5q50 235 168 481.5t234 388.5z" />
    <glyph glyph-name="uni06F8" unicode="&#x6f8;" horiz-adv-x="1532" 
d="M1168 -98q-116 142 -234 388.5t-168 481.5q-57 -235 -172 -481.5t-230 -388.5l-314 263q204 250 365 667q67 176 106 345t39 305h410q0 -136 39.5 -304.5t107.5 -345.5q161 -417 365 -667z" />
    <glyph glyph-name="uni06F4.urdu" horiz-adv-x="1244" 
d="M951 1482l231 -311q-82 -52 -129 -137.5t-47 -176.5q0 -13 1 -25l-358 -79q-32 121 -95.5 216.5t-113.5 114.5q-1 -8 -1 -17q0 -63 35 -147t81 -166t82 -142q2 -3 3 -5q60 -96 121.5 -217.5t111.5 -294.5l-395 -109q-70 251 -171 412q-18 30 -38 61q-57 89 -111 195.5
t-89 251.5q-14 60 -14 119q0 167 102 301q55 69 129 107q82 42 175 42q88 0 176 -65.5t128 -166.5q27 79 79.5 142.5t106.5 96.5z" />
    <glyph glyph-name="uni06F7.urdu" horiz-adv-x="1100" 
d="M767 1408l271 -306l-6 -6q-29 -28 -129.5 -137.5t-216.5 -261t-192 -306.5h46q120 0 257.5 13t191.5 24l33 -403h-2q-13 -4 -85.5 -16.5t-180.5 -22.5q-96 -9 -183 -9q-196 0 -338 45l-140 45l-2 147v16q0 194 76 359q74 162 230 377q157 220 256.5 326.5t113.5 115.5z
" />
    <glyph glyph-name="Ghunna_above" 
d="M10 1603h-48q-94 0 -156 66.5t-62 181.5q0 58 12 107t33 99l103 -36q-19 -45 -26.5 -76.5t-7.5 -87.5q0 -70 34.5 -110t88.5 -40h24q75 0 105 35.5t30 102.5v205h110v-199q0 -120 -55.5 -184t-184.5 -64zM-46 1950v318h110v-318h-110z" />
    <glyph glyph-name="uni0651064B" 
d="M-130 1594q-94 0 -148 53t-54 146v109h125v-109q0 -79 77 -75q8 0 23 4.5t27.5 20.5t12.5 50v109h126v-109q0 -79 78 -76q8 0 22 5.5t26 22t12 48.5q0 40 -21 110q-4 15 -8 32l118 40l8 -31q1 -2 1 -5q9 -29 18 -68t9 -78q0 -67 -28.5 -111.5t-71.5 -66.5t-87 -22
q-84 0 -140 46q-27 -22 -60 -33.5t-65 -11.5zM-289 1997v150l504 187v-148zM-289 2239v149l504 187v-147z" />
    <glyph glyph-name="uni0654064B" 
d="M-282 2149v150l504 187v-148zM-282 2391v149l504 187v-147zM215 1762l-499 -164v160l115 37q-30 31 -47 68.5t-17 81.5q0 68 46.5 129.5t112.5 82.5q34 10 70 10q38 0 70.5 -10t63.5 -23l-32 -133q-60 17 -101 17q-14 0 -25 -3q-23 -7 -41.5 -25.5t-18.5 -42.5
q0 -9 3 -19q7 -25 35.5 -41.5t79.5 -16.5q13 0 29.5 2.5t50.5 11.5t97 30z" />
    <glyph glyph-name="uni0654064E" 
d="M-281 2135v150l504 187v-148zM231 1761l-499 -164v160l115 37q-30 31 -47 68.5t-17 81.5q0 68 46.5 129.5t112.5 82.5q34 10 70 10q38 0 70.5 -10t63.5 -23l-32 -133q-60 17 -101 17q-14 0 -25 -3q-23 -7 -41.5 -25.5t-18.5 -42.5q0 -9 3 -19q7 -25 35.5 -41.5
t79.5 -16.5q13 0 29.5 2.5t50.5 11.5t97 30z" />
    <glyph glyph-name="uni0654064C" 
d="M-186 2206l-62 85l8 16q12 24 21 46.5t9 42.5q0 15 -7 28q-19 17 -41 17q-18 0 -36.5 -8t-33.5 -19l-79 77q5 7 24 24.5t51 33t75 15.5h6q79 -8 120 -76q23 -50 23 -97q0 -11 -1 -24.5t-3 -23.5q43 9 86.5 28.5t69.5 43.5q-64 31 -105 83.5t-41 109.5q0 30 14 60
q27 54 79 89.5t107 35.5q36 0 65 -14q56 -28 80 -78t24 -108q0 -97 -63 -187q-62 -77 -146.5 -120t-154 -61t-89.5 -19zM98 2667q-19 0 -45.5 -12t-41.5 -32q10 -38 47 -64t74 -41q10 16 14.5 32t4.5 42q0 31 -14.5 53t-38.5 22zM245 1759l-499 -164v160l115 37
q-30 31 -47 68.5t-17 81.5q0 68 46.5 129.5t112.5 82.5q34 10 70 10q38 0 70.5 -10t63.5 -23l-32 -133q-60 17 -101 17q-14 0 -25 -3q-23 -7 -41.5 -25.5t-18.5 -42.5q0 -9 3 -19q7 -25 35.5 -41.5t79.5 -16.5q13 0 29.5 2.5t50.5 11.5t97 30z" />
    <glyph glyph-name="uni0654064F" 
d="M-248 2205l-36 126q67 20 142.5 48.5t133.5 67.5q-70 26 -116.5 79.5t-46.5 116.5q0 32 15 65q26 54 79.5 89.5t112.5 35.5q34 0 67 -15q59 -30 84.5 -78t25.5 -104q0 -58 -21 -116t-55 -105q-46 -61 -119 -103t-144.5 -67.5t-113.5 -37.5zM35 2711q-22 0 -48.5 -12.5
t-39.5 -35.5q-2 -4 -2 -8q0 -23 38.5 -59t91.5 -47q16 33 16 78q0 29 -13 54.5t-43 29.5zM235 1759l-499 -164v160l115 37q-30 31 -47 68.5t-17 81.5q0 68 46.5 129.5t112.5 82.5q34 10 70 10q38 0 70.5 -10t63.5 -23l-32 -133q-60 17 -101 17q-14 0 -25 -3
q-23 -7 -41.5 -25.5t-18.5 -42.5q0 -9 3 -19q7 -25 35.5 -41.5t79.5 -16.5q13 0 29.5 2.5t50.5 11.5t97 30z" />
    <glyph glyph-name="uni06540652" 
d="M-15 2259q-109 0 -174.5 62.5t-65.5 169.5q0 109 65.5 172.5t174.5 63.5q105 0 175.5 -63.5t70.5 -170.5q0 -106 -67.5 -170t-171.5 -64h-7zM-15 2396q42 0 72.5 24.5t30.5 70.5t-30.5 73t-72.5 27q-43 0 -74 -26.5t-31 -73.5q0 -49 28 -72t77 -23zM225 1759l-499 -164
v160l115 37q-30 31 -47 68.5t-17 81.5q0 68 46.5 129.5t112.5 82.5q34 10 70 10q38 0 70.5 -10t63.5 -23l-32 -133q-60 17 -101 17q-14 0 -25 -3q-23 -7 -41.5 -25.5t-18.5 -42.5q0 -9 3 -19q7 -25 35.5 -41.5t79.5 -16.5q13 0 29.5 2.5t50.5 11.5t97 30z" />
    <glyph glyph-name="uni0655064D" 
d="M-248 -1295v150l504 187v-147zM-248 -1053v149l504 188v-148zM258 -642l-499 -164v160l115 37q-30 31 -47 68.5t-17 81.5q0 68 46.5 129.5t112.5 82.5q34 10 70 10q38 0 70.5 -10t63.5 -23l-32 -133q-60 17 -101 17q-14 0 -25 -3q-23 -7 -41.5 -25.5t-18.5 -42.5
q0 -9 3 -19q7 -25 35.5 -41.5t79.5 -16.5q13 0 29.5 2.5t50.5 11.5t97 30z" />
    <glyph glyph-name="uni06550650" 
d="M-252 -1055v149l504 188v-148zM258 -642l-499 -164v160l115 37q-30 31 -47 68.5t-17 81.5q0 68 46.5 129.5t112.5 82.5q34 10 70 10q38 0 70.5 -10t63.5 -23l-32 -133q-60 17 -101 17q-14 0 -25 -3q-23 -7 -41.5 -25.5t-18.5 -42.5q0 -9 3 -19q7 -25 35.5 -41.5
t79.5 -16.5q13 0 29.5 2.5t50.5 11.5t97 30z" />
    <glyph glyph-name="uni0692" unicode="&#x692;" horiz-adv-x="876" 
d="M808 713v-537q0 -163 -43 -318t-124 -245q-95 -109 -237 -162q-135 -51 -306 -51h-98v457h98q171 0 236 73q39 48 51.5 118t12.5 128v537h410zM879 1311l-231 -413h-131l-234 413h171l126 -253l130 253h169z" />
    <glyph glyph-name="uni0695" unicode="&#x695;" horiz-adv-x="876" 
d="M808 713v-537q0 -163 -43 -318t-124 -245q-95 -109 -237 -162q-135 -51 -306 -51h-98v457h98q171 0 236 73q39 48 51.5 118t12.5 128v537h410zM647 -679l-231 -413h-131l-234 413h171l126 -253l130 253h169z" />
    <glyph glyph-name="uni06A8" unicode="&#x6a8;" horiz-adv-x="1691" 
d="M1127 983q215 0 369 -162q145 -164 145 -406l-1 -363q0 -62 -5 -132.5t-22 -129.5q-37 -125 -123 -213q-167 -173 -529 -173h-196q-199 0 -350.5 71.5t-239.5 207.5q-57 94 -77.5 180.5t-20.5 176.5q0 46 3 94q14 225 140 506l373 -168q-95 -212 -105 -363q-1 -14 -1 -27
q0 -84 32 -133q27 -39 71 -59t92 -26t83 -6h196q267 0 265 81h-79q-131 0 -242.5 56.5t-178.5 163t-67 256.5q0 167 46 276.5t117.5 174t152.5 91t152 26.5zM1092 395h154v95q0 47 -33.5 78.5t-83.5 31.5t-82.5 -32t-32.5 -78q0 -25 5.5 -47t22 -35t50.5 -13zM1306 1604
l-201 -200l-200 200l200 201zM1090 1294l-220 -219l-219 219l219 220zM1559 1294l-220 -219l-219 219l219 220z" />
    <glyph glyph-name="uni06AA" unicode="&#x6aa;" horiz-adv-x="2367" 
d="M1742 1090q-48 -14 -89.5 -31.5t-132.5 -60t-173 -88.5t-120 -82h166q108 -1 237 -1q82 0 177.5 -9t183.5 -38.5t150 -88.5q83 -83 129.5 -183t46.5 -196q0 -182 -91 -278q-21 -22 -55 -44t-81 -37t-109 -15h-1118q-182 0 -304 6t-207 28q-145 40 -218 147
q-41 64 -52.5 152t-11.5 134q0 93 43 257q15 57 26.5 95.5t12.5 41.5l197 -62l193 -61q-22 -72 -40.5 -149.5t-21.5 -116.5q29 -6 99 -11q109 -4 284 -4h154l903 1l-9 9q-23 23 -60.5 43t-88.5 20q-769 0 -865 1h-3l-204 205q0 204 182 387q118 119 314 228
q164 88 288.5 137.5t137.5 52.5z" />
    <glyph glyph-name="uni06B5" unicode="&#x6b5;" horiz-adv-x="1455" 
d="M1442 2022l-231 -413h-131l-234 413h171l126 -253l130 253h169zM712 -598q-176 0 -312.5 69.5t-220.5 201.5q-34 53 -54.5 114t-32.5 110q-20 80 -20 168q0 16 1 32q7 207 118 440l370 -174q-73 -158 -79 -281v-14q0 -79 31 -128q24 -37 60.5 -55t74 -24t64.5 -6
q106 0 164.5 15t81.5 57t23 123v1377h409v-1377q0 -65 -9 -150.5t-39.5 -170.5t-91.5 -152q-89 -93 -233 -137q-125 -38 -305 -38z" />
    <glyph glyph-name="uni06440675.isol" horiz-adv-x="1235" 
d="M1238 1428v-685q0 -86 -4.5 -183.5t-27 -192t-73.5 -176.5q-86 -131 -239 -195q-137 -58 -343 -58h-431v456h431q104 0 160.5 15t81.5 53t30 106t5 175v685h410zM517 1413l68 -907l-409 -31l-68 908zM593 1631l-499 -164v160l115 37q-30 31 -47 68.5t-17 81.5
q0 68 46.5 129.5t112.5 82.5q34 10 70 10q38 0 70.5 -10t63.5 -23l-32 -133q-60 17 -101 17q-14 0 -25 -3q-23 -7 -41.5 -25.5t-18.5 -42.5q0 -9 3 -19q7 -25 35.5 -41.5t79.5 -16.5q13 0 29.5 2.5t50.5 11.5t97 30z" />
    <glyph glyph-name="uni06440675.fina" horiz-adv-x="1356" 
d="M522 1413l68 -907l-408 -31l-68 908zM1243 1428v-919q0 -59 16 -86.5t73 -27.5h32v-458h-32q-112 0 -207 39q-68 29 -122 75q-47 -33 -103 -56q-138 -58 -344 -58h-431v457h431q104 0 161 15t82 53t30 106t5 175v685h409zM615 1623l-499 -164v160l115 37q-30 31 -47 68.5
t-17 81.5q0 68 46.5 129.5t112.5 82.5q34 10 70 10q38 0 70.5 -10t63.5 -23l-32 -133q-60 17 -101 17q-14 0 -25 -3q-23 -7 -41.5 -25.5t-18.5 -42.5q0 -9 3 -19q7 -25 35.5 -41.5t79.5 -16.5q13 0 29.5 2.5t50.5 11.5t97 30z" />
    <glyph glyph-name="uni06B50627.isol" horiz-adv-x="1325" 
d="M1238 1428v-685q0 -86 -4.5 -183.5t-27 -192t-73.5 -176.5q-86 -131 -239 -195q-137 -58 -343 -58h-431v456h431q104 0 160.5 15t81.5 53t30 106t5 175v685h410zM517 1413l68 -907l-409 -31l-68 908zM1335 1965l-231 -413h-131l-234 413h171l126 -253l130 253h169z" />
    <glyph glyph-name="uni06B50627.fina" horiz-adv-x="1352" 
d="M522 1413l68 -907l-408 -31l-68 908zM1243 1428v-919q0 -59 16 -86.5t73 -27.5h32v-458h-32q-112 0 -207 39q-68 29 -122 75q-47 -33 -103 -56q-138 -58 -344 -58h-431v457h431q104 0 161 15t82 53t30 106t5 175v685h409zM1345 1965l-231 -413h-131l-234 413h171
l126 -253l130 253h169z" />
    <glyph glyph-name="uni065A" unicode="&#x65a;" 
d="M130 1426h169l-231 -413h-131l-234 413h171l126 -253z" />
    <glyph glyph-name="uni065B" unicode="&#x65b;" 
d="M-131 1067h-147l231 415h90l233 -415h-150l-126 255z" />
    <glyph glyph-name="smallv.arabic" 
d="M299 1696l-231 -413h-131l-234 413h171l126 -253l130 253h169z" />
    <glyph glyph-name="circumflex.arabic" 
d="M-278 1284l231 415h90l233 -415h-150l-126 255l-131 -255h-147z" />
    <glyph glyph-name="uni06A4" unicode="&#x6a4;" horiz-adv-x="2088" 
d="M2022 427q0 -142 -69.5 -253t-203.5 -174.5t-327 -63.5h-632q-137 0 -222 2t-145 12q-172 27 -262 166q-75 139 -75 321q0 45 5 93q24 156 59 260q0 2 1 4v2l393 -117q-1 -4 -5 -21q-4 -14 -9 -38q-15 -60 -33 -139q-7 -25 -7 -45v-3q0 -18 11 -30q12 -12 44 -12h392v2
h95q-4 56 -4 105q0 167 47.5 276.5t121.5 174t157 91t154 26.5q215 0 369 -162q145 -164 145 -406v-71zM1629 430v96q0 47 -34 78.5t-84 31.5q-49 0 -82 -32t-33 -78q0 -26 5.5 -47.5t22 -35t50.5 -13.5h155zM1702 1709l-201 -200l-200 200l200 201zM1486 1399l-220 -219
l-219 219l219 220zM1955 1399l-220 -219l-219 219l219 220z" />
    <glyph glyph-name="uni06C6" unicode="&#x6c6;" horiz-adv-x="1124" 
d="M526 394h155v96q0 47 -34 78.5t-84 31.5q-49 0 -82 -32t-33 -78q0 -25 5.5 -47t22 -35.5t50.5 -13.5zM287 -144q123 0 204 7t116 26t39 48h-86q-133 4 -241.5 60.5t-173.5 162t-65 255.5q0 167 47.5 276.5t121.5 174t157 91t154 26.5q215 0 369 -162q145 -164 145 -406
v-374q-1 -139 -40.5 -239.5t-99 -169.5t-120.5 -116q-36 -25 -98.5 -52.5t-178.5 -45.5q-101 -16 -262 -16h-109v454h121zM831 1473l-231 -413h-131l-234 413h171l126 -253l130 253h169z" />
    <glyph glyph-name="uni06CE" unicode="&#x6ce;" horiz-adv-x="1695" 
d="M1429 1027q53 0 107 -9.5t109 -24.5l-104 -396q-68 26 -142 26q-59 0 -114.5 -22.5t-96.5 -76t-59 -144.5q92 -25 163 -44q118 -30 185 -52q84 -28 120 -89t36 -146v-4q-2 -167 -42.5 -281.5t-107 -186t-146.5 -109.5t-161 -51.5t-149 -13.5h-306q-169 0 -292 61
t-202.5 160t-118 217.5t-38.5 232.5q0 187 45 337.5t117 292.5l367 -180q-54 -109 -87 -211t-33 -199q0 -107 34 -162.5t90 -75t121 -19.5h306q81 0 124.5 17.5t61 40.5t17.5 42q-7 2 -74.5 20t-154 41t-153.5 41l-67 18l-10 39.5t-20.5 105t-10.5 143.5q0 84 19 172
q9 42 36.5 103t76.5 128t125 125.5t182 96t247 37.5zM914 1222l-231 -413h-131l-234 413h171l126 -253l130 253h169z" />
    <glyph glyph-name="uni060D" unicode="&#x60d;" horiz-adv-x="819" 
d="M831 396v-456h-86q-108 0 -185 -109q-78 -110 -179 -292l-351 260q175 323 299 460t359 137h143z" />
    <glyph glyph-name="patah.wide" horiz-adv-x="729" 
d="M729 163h-729v410h729v-410z" />
    <glyph glyph-name="uniFD3E" unicode="&#xfd3e;" horiz-adv-x="773" 
d="M401 1531l272 -220l-36.5 -52t-83.5 -145.5t-83.5 -218t-36.5 -270.5q0 -122 24 -226t59 -186.5t69.5 -140.5t58.5 -89l24 -31l-262 -232l-33 42t-80.5 121t-95.5 190.5t-81 250.5t-33 301q0 153 32.5 290t79.5 249.5t94 194.5t79.5 127z" />
    <glyph glyph-name="uniFD3F" unicode="&#xfd3f;" horiz-adv-x="773" 
d="M100 1311l272 220l32.5 -45t79.5 -127t94 -194.5t79.5 -249.5t32.5 -290q0 -162 -33 -301t-80.5 -250.5t-95.5 -190.5t-81 -121l-33 -42l-262 232l24 31t59 89t69.5 140.5t58.5 186.5t24 226q0 146 -36.5 270.5t-83.5 218t-83.5 145.5z" />
    <glyph glyph-name="hah_alt.isol" horiz-adv-x="1602" 
d="M520 1470q90 0 226 -36t285.5 -88t285.5 -103q70 -26 131 -48l56 -425q-61 -25 -168 -68q-200 -80 -447.5 -179.5t-412.5 -166.5q12 -60 30.5 -144t38 -165.5t32.5 -137.5l13 -56h775v-456h-608q-113 0 -203.5 11.5t-162.5 55.5t-128 138.5t-100 258t-79 413.5
q-10 62 -10 116q0 129 70 226t310 177q236 83 400 135l164 52q-192 44 -317 69.5t-165 25.5q-23 0 -41 -24t-36 -67l-384 98q50 192 185 298q120 90 260 90z" />
    <glyph glyph-name="hah_alt.fina" horiz-adv-x="1729" 
d="M1131 337q-111 -44 -234 -93q-247 -100 -412 -167q11 -60 30 -144t38 -166t33 -137l13 -56h775v-456h-608q-113 0 -204 12q-90 11 -162 55t-128 139q-57 94 -100 257q-44 164 -79 414q-10 62 -10 116q0 129 58 209q82 114 322 194q236 82 400 135l164 52q-192 44 -317 69
q-125 26 -165 26q-23 0 -41 -24q-19 -24 -36 -67l-384 98q50 192 185 298q120 90 260 90q90 0 226 -36t286 -88q149 -52 285 -103q70 -26 131 -48l56 -426q-28 -10 -64 -25q0 -1 1 -2q3 -5 11.5 -13.5t26 -17.5t46.5 -17.5t72 -13.5t104 -5h38v-457h-23q-179 0 -312.5 38.5
t-207.5 132.5q-68 85 -74 227z" />
    <glyph glyph-name="chedots" 
d="M1 -523l161 -160l-161 -160l-160 160zM-187 -259l176 -176l-176 -176l-176 176zM188 -259l176 -176l-176 -176l-175 176z" />
    <glyph glyph-name="jimdot" 
d="M200 -329l-200 -200l-200 200l200 200z" />
    <glyph glyph-name="diagonal" horiz-adv-x="957" 
d="M83 1215l13 142l748 326l52 -112z" />
    <glyph glyph-name="saryaa" 
d="M106 1861q47 0 96 -13l-36 -138q-29 8 -59 8q-21 0 -40.5 -5.5t-36.5 -19.5q-27 -23 -37 -65q94 -16 127 -24q36 -8 53 -21q37 -26 37 -70q0 -19 -5 -57.5t-32 -80.5q-64 -91 -217 -91h-109v143h109q22 0 53 5.5t46 24.5q5 7 6 13q-44 9 -119 21l-36 6l-55 9l-5 56
q-1 14 -1 28q0 128 93 213q50 42 117 54q26 4 51 4z" />
    <glyph glyph-name="uni25CC" unicode="&#x25cc;" horiz-adv-x="1217" 
d="M980 918q0 -50 -48 -50q-52 0 -52 50t52 50q48 0 48 -50zM832 1016q0 -49 -48 -49q-52 0 -52 49q0 51 52 51q48 0 48 -51zM1079 770q0 -51 -51 -51q-49 0 -49 51q0 49 51 49q49 0 49 -49zM1115 596q0 -50 -48 -50q-52 0 -52 50t52 50q48 0 48 -50zM658 1053
q0 -51 -50 -51t-50 51q0 49 50 49t50 -49zM485 1016q0 -49 -51 -49q-49 0 -49 49q0 51 49 51q51 0 51 -51zM1079 422q0 -49 -51 -49q-49 0 -49 49q0 51 49 51q51 0 51 -51zM337 918q0 -50 -50 -50t-50 47q0 53 50 53t50 -50zM980 272q0 -49 -48 -49q-52 0 -52 49q0 51 52 51
q48 0 48 -51zM832 174q0 -48 -48 -48q-52 0 -52 48q0 52 52 52q48 0 48 -52zM238 770q0 -51 -48 -51q-52 0 -52 51q0 49 50 49t50 -49zM202 592q0 -46 -48 -46q-52 0 -52 50t52 50q48 0 48 -46v-8zM658 141q0 -51 -50 -51t-50 51q0 49 50 49t50 -49zM238 422q0 -49 -50 -49
t-50 49q0 51 50 51t50 -51zM485 178q0 -52 -51 -52q-49 0 -49 48q0 52 49 52q51 0 51 -48zM337 272q0 -49 -50 -49t-50 49q0 51 50 51t50 -51z" />
    <glyph glyph-name="ZWSP" unicode="&#x200b;" 
 />
    <glyph glyph-name="uni200C" unicode="&#x200c;" 
d="M36 1667v-1484h-72v1484h72z" />
    <glyph glyph-name="uni200D" unicode="&#x200d;" 
d="M36 183h-72v1185l-134 -136l-49 49l171 169l-171 168l49 49l170 -171l170 171l49 -49l-171 -168l171 -169l-49 -49l-134 136v-1185z" />
    <glyph glyph-name="uni200E" unicode="&#x200e;" 
d="M430 1452l-217 -214l-49 49l137 130h-266v-1234h-71v1305h337l-137 130l49 49z" />
    <glyph glyph-name="uni200F" unicode="&#x200f;" 
d="M35 183h-71v1234h-266l137 -130l-49 -49l-217 214l217 215l49 -49l-137 -130h337v-1305z" />
    <glyph glyph-name="thin_hairSpace" unicode="&#x2009;" 
 />
    <glyph glyph-name="thin_hairSpace" unicode="&#x200a;" 
 />
    <glyph glyph-name="word_joiner" unicode="&#x2060;" 
 />
    <glyph glyph-name="line_seperator" unicode="&#x2028;" 
 />
    <glyph glyph-name="paragraph_seperator" unicode="&#x2029;" 
 />
    <glyph glyph-name="exclam" unicode="!" horiz-adv-x="641" 
d="M504 286h-369l-58 1278h485zM564 -64l-234 -233l-233 233l233 234z" />
    <glyph glyph-name="quotedbl" unicode="&#x22;" horiz-adv-x="1016" 
d="M117 898l-27 642h352l-28 -642h-297zM601 898l-27 642h352l-28 -642h-297z" />
    <glyph glyph-name="numbersign" unicode="#" horiz-adv-x="1606" 
d="M1569 928h-313l-37 -316h275v-284h-310l-42 -328h-299l41 328h-270l-42 -328h-299l42 328h-278v284h313l37 316h-277v284h312l42 328h299l-41 -328h270l42 328h299l-42 -328h278v-284zM920 612l37 316h-271l-37 -316h271z" />
    <glyph glyph-name="dollar" unicode="$" horiz-adv-x="1423" 
d="M1377 466q0 -116 -56 -217.5t-169.5 -171.5t-284.5 -97v-244h-264v235q-348 30 -557 168l143 321q105 -69 240 -110.5t268 -41.5q136 0 193.5 34.5t57.5 90.5q0 49 -41 78t-109 49t-152 37q-77 17 -157 38.5t-154 54t-133.5 82t-94 123t-34.5 176.5q0 121 58 224.5
t176 173.5t296 93v242h264v-238q253 -20 446 -129l-134 -324q-225 119 -427 119q-91 0 -145.5 -18.5t-78.5 -50t-24 -70.5q0 -46 40 -74t107 -46.5t150 -35.5q77 -16 157 -37t155 -53t134.5 -81.5t94.5 -122.5t35 -177z" />
    <glyph glyph-name="percent" unicode="%" horiz-adv-x="1973" 
d="M442 706q-113 0 -202 51t-140.5 146.5t-51.5 229.5q0 133 51.5 228.5t140.5 147t202 51.5q115 0 204.5 -51.5t140.5 -147t51 -228.5q0 -134 -51 -229.5t-140.5 -146.5t-204.5 -51zM301 0l1052 1540h317l-1052 -1540h-317zM442 915q56 0 93 50.5t37 167.5t-37 167.5
t-93 50.5q-35 0 -64.5 -22t-47.5 -70t-18 -126t18 -126t47.5 -70t64.5 -22zM1529 -20q-114 0 -203 51t-140 146.5t-51 229.5q0 133 51 228.5t140 147t203 51.5t203.5 -51.5t141 -147t51.5 -228.5q0 -134 -51.5 -229.5t-141 -146.5t-203.5 -51zM1529 189q54 0 92 50.5
t38 167.5t-38 167.5t-92 50.5t-92 -50.5t-38 -167.5t38 -167.5t92 -50.5z" />
    <glyph glyph-name="ampersand" unicode="&#x26;" horiz-adv-x="1654" 
d="M1597 231l-224 -257l-174 154q-223 -159 -517 -159q-177 0 -315.5 56t-218.5 154t-80 224q0 146 78 254.5t243 198.5q-147 152 -147 310q0 177 141.5 286.5t375.5 109.5q213 0 344 -100t131 -270q0 -118 -69.5 -211.5t-216.5 -173.5l225 -200q45 99 68 220l336 -101
q-43 -196 -143 -350zM759 1287q-66 0 -101 -32.5t-35 -81.5q0 -37 20 -71.5t79 -89.5q88 47 124 88t36 84q0 46 -31 74.5t-92 28.5zM713 288q125 0 235 64l-332 295q-74 -44 -106.5 -92t-32.5 -106q0 -69 63.5 -115t172.5 -46z" />
    <glyph glyph-name="quotesingle" unicode="'" horiz-adv-x="532" 
d="M117 898l-27 642h352l-28 -642h-297z" />
    <glyph glyph-name="parenleft" unicode="(" horiz-adv-x="773" 
d="M401 1531l272 -220l-36.5 -52t-83.5 -145.5t-83.5 -218t-36.5 -270.5q0 -122 24 -226t59 -186.5t69.5 -140.5t58.5 -89l24 -31l-262 -232l-33 42t-80.5 121t-95.5 190.5t-81 250.5t-33 301q0 153 32.5 290t79.5 249.5t94 194.5t79.5 127z" />
    <glyph glyph-name="parenright" unicode=")" horiz-adv-x="773" 
d="M100 1311l272 220l32.5 -45t79.5 -127t94 -194.5t79.5 -249.5t32.5 -290q0 -162 -33 -301t-80.5 -250.5t-95.5 -190.5t-81 -121l-33 -42l-262 232l24 31t59 89t69.5 140.5t58.5 186.5t24 226q0 146 -36.5 270.5t-83.5 218t-83.5 145.5z" />
    <glyph glyph-name="asterisk" unicode="*" horiz-adv-x="997" 
d="M975 1307l-225 -123l225 -121l-128 -212l-231 139l7 -253h-251l6 253l-231 -139l-125 212l224 121l-224 123l125 211l231 -141l-6 255h251l-7 -255l231 141z" />
    <glyph glyph-name="plus" unicode="+" horiz-adv-x="1340" 
d="M1212 931v-322h-372v-363h-338v363h-374v322h374v363h338v-363h372z" />
    <glyph glyph-name="comma" unicode="," horiz-adv-x="623" 
d="M312 475q108 0 178.5 -67t70.5 -179q0 -46 -13 -97.5t-60 -155.5l-138 -321h-262l103 358q-60 29 -94.5 83.5t-34.5 132.5q0 112 71 179t179 67z" />
    <glyph glyph-name="hyphen" unicode="-" horiz-adv-x="854" 
d="M106 466v322h642v-322h-642z" />
    <glyph glyph-name="period" unicode="." horiz-adv-x="623" 
d="M310 -20q-105 0 -178 70t-73 179q0 112 73 179t178 67q107 0 179 -67t72 -179q0 -109 -72 -179t-179 -70z" />
    <glyph glyph-name="slash" unicode="/" horiz-adv-x="913" 
d="M-81 -220l726 2072h371l-726 -2072h-371z" />
    <glyph glyph-name="zero" unicode="0" horiz-adv-x="1507" 
d="M755 -31q-197 0 -350.5 94.5t-241.5 273.5t-88 433t88 433t241.5 273.5t350.5 94.5q195 0 348.5 -94.5t241 -273.5t87.5 -433t-87.5 -433t-241 -273.5t-348.5 -94.5zM755 326q69 0 123 43.5t85 141t31 259.5t-31 259.5t-85 141t-123 43.5q-71 0 -125.5 -43.5t-85.5 -141
t-31 -259.5t31 -259.5t85.5 -141t125.5 -43.5z" />
    <glyph glyph-name="one" unicode="1" horiz-adv-x="891" 
d="M13 1540h722v-1540h-436v1203h-286v337z" />
    <glyph glyph-name="two" unicode="2" horiz-adv-x="1318" 
d="M671 345h594v-345h-1199v273l576 539q61 57 91.5 101t40 80t9.5 67q0 75 -49.5 117t-148.5 42q-84 0 -156 -37.5t-119 -112.5l-323 181q88 147 249 234t389 87q177 0 312 -57.5t210.5 -163t75.5 -248.5q0 -75 -19.5 -148.5t-76.5 -156.5t-166 -183z" />
    <glyph glyph-name="three" unicode="3" horiz-adv-x="1327" 
d="M865 924q195 -43 295.5 -160t100.5 -282q0 -98 -40 -190t-122 -164.5t-208.5 -115.5t-300.5 -43q-160 0 -318.5 39t-280.5 113l159 328q94 -63 206 -95.5t220 -32.5q111 0 178 41.5t67 119.5q0 69 -55 109t-181 40h-182v275l275 297h-608v337h1114v-273z" />
    <glyph glyph-name="four" unicode="4" horiz-adv-x="1540" 
d="M1527 640v-345h-229v-295h-425v295h-814v284l691 961h451l-627 -900h313v262h411v-262h229z" />
    <glyph glyph-name="five" unicode="5" horiz-adv-x="1335" 
d="M651 979q228 0 367.5 -64t203 -174t63.5 -246q0 -103 -40 -197.5t-122 -168.5t-208.5 -117t-300.5 -43q-160 0 -318.5 39t-277.5 113l156 328q95 -63 205.5 -95.5t221.5 -32.5q110 0 178 42.5t68 120.5q0 47 -26 82.5t-90.5 54.5t-182.5 19h-418l77 900h981v-337h-620
l-20 -224h103z" />
    <glyph glyph-name="six" unicode="6" horiz-adv-x="1428" 
d="M862 981q146 0 266.5 -60t192.5 -169.5t72 -256.5q0 -161 -81.5 -279t-218.5 -182.5t-305 -64.5q-216 0 -376 86t-248.5 255t-88.5 418q0 269 103 457t287.5 287t427.5 99q131 0 249.5 -29t203.5 -83l-158 -313q-66 46 -138 62.5t-146 16.5q-165 0 -268 -90.5
t-121 -267.5q130 114 347 114zM761 279q93 0 151 52.5t58 143.5q0 89 -58.5 141.5t-152.5 52.5t-153.5 -54.5t-59.5 -141.5q0 -86 58 -140t157 -54z" />
    <glyph glyph-name="seven" unicode="7" horiz-adv-x="1390" 
d="M51 1540h1276v-273l-544 -1267h-475l519 1195h-405v-238h-371v583z" />
    <glyph glyph-name="eight" unicode="8" horiz-adv-x="1472" 
d="M1184 812q104 -60 162 -150t58 -209q0 -147 -84.5 -256t-235 -168.5t-349.5 -59.5t-350 59.5t-235 168.5t-84 256q0 119 57.5 209t162.5 150q-78 54 -121.5 132.5t-43.5 177.5q0 136 78 237t216 156.5t320 55.5q181 0 319.5 -55.5t216.5 -156.5t78 -237
q0 -99 -43.5 -177.5t-121.5 -132.5zM735 1265q-81 0 -132 -42.5t-51 -120.5q0 -76 50 -118t133 -42q82 0 133.5 42t51.5 118q0 78 -52 120.5t-133 42.5zM735 275q104 0 167.5 51t63.5 140q0 90 -63.5 141t-167.5 51t-167.5 -51t-63.5 -141q0 -89 63.5 -140t167.5 -51z" />
    <glyph glyph-name="nine" unicode="9" horiz-adv-x="1428" 
d="M638 1571q217 0 377.5 -86t249 -254.5t88.5 -418.5q0 -269 -103.5 -457t-288 -287t-429.5 -99q-128 0 -246.5 29t-204.5 83l159 313q66 -46 137.5 -62.5t146.5 -16.5q163 0 265 90.5t122 265.5q-64 -55 -150.5 -83.5t-195.5 -28.5q-145 0 -265.5 60t-192.5 169.5
t-72 256.5q0 161 81 279t218 182.5t304 64.5zM669 871q94 0 153.5 54.5t59.5 141.5q0 86 -58 140t-157 54q-93 0 -151 -52.5t-58 -143.5q0 -89 58.5 -141.5t152.5 -52.5z" />
    <glyph glyph-name="colon" unicode=":" horiz-adv-x="623" 
d="M310 717q-105 0 -178 70t-73 179q0 112 73 179t178 67q107 0 179 -67t72 -179q0 -109 -72 -179t-179 -70zM310 -20q-105 0 -178 70t-73 179q0 112 73 179t178 67q107 0 179 -67t72 -179q0 -109 -72 -179t-179 -70z" />
    <glyph glyph-name="semicolon" unicode=";" horiz-adv-x="623" 
d="M310 717q-105 0 -178 70t-73 179q0 112 73 179t178 67q107 0 179 -67t72 -179q0 -109 -72 -179t-179 -70zM312 475q108 0 178.5 -67t70.5 -179q0 -46 -13 -97.5t-60 -155.5l-138 -321h-262l103 358q-60 29 -94.5 83.5t-34.5 132.5q0 112 71 179t179 67z" />
    <glyph glyph-name="less" unicode="&#x3c;" horiz-adv-x="1340" 
d="M1212 1340v-321l-702 -249l702 -249v-321l-1084 401v338z" />
    <glyph glyph-name="equal" unicode="=" horiz-adv-x="1340" 
d="M128 889v319h1084v-319h-1084zM128 332v319h1084v-319h-1084z" />
    <glyph glyph-name="greater" unicode="&#x3e;" horiz-adv-x="1340" 
d="M128 1340l1084 -401v-338l-1084 -401v321l701 249l-701 249v321z" />
    <glyph glyph-name="question" unicode="?" horiz-adv-x="1313" 
d="M466 561q0 82 29.5 143t72.5 108.5t88 87.5q34 31 62 60.5t45.5 60t17.5 66.5q0 66 -54.5 103.5t-139.5 37.5q-178 0 -275 -159l-327 176q58 99 149 172t216.5 113.5t287.5 40.5q169 0 300.5 -47.5t206 -140t74.5 -226.5q0 -97 -33 -166t-82.5 -121t-100.5 -95
q-39 -33 -72 -65.5t-53 -68.5t-20 -80h-392zM662 -20q-110 0 -179 68t-69 163q0 98 69 162.5t179 64.5q111 0 181 -64.5t70 -162.5q0 -95 -70 -163t-181 -68z" />
    <glyph glyph-name="at" unicode="@" horiz-adv-x="2279" 
d="M1155 1566q234 0 427 -72.5t332 -202.5t214.5 -303.5t75.5 -375.5q0 -204 -63 -344.5t-172.5 -213t-248.5 -72.5q-117 0 -200 49t-123 143q-51 -92 -139.5 -142t-216.5 -50q-130 0 -241.5 68.5t-179.5 192.5t-68 292q0 167 67 290.5t178.5 191.5t243.5 68q198 0 305 -126
v108h359v-671q0 -74 28.5 -103t68.5 -29q41 0 72 33t48.5 108t17.5 200q0 211 -98 373t-275 253t-412 91t-412.5 -99.5t-276.5 -272.5t-99 -393q0 -225 97.5 -398.5t272.5 -272.5t409 -99q107 0 218.5 23t219.5 73l81 -235q-101 -50 -240.5 -78t-278.5 -28
q-243 0 -440.5 76.5t-338.5 214t-216.5 322.5t-75.5 402q0 214 76 398t218 321t341 213.5t445 76.5zM1135 282q94 0 156 64.5t62 188.5q0 122 -62 186t-156 64t-154.5 -65t-60.5 -185q0 -122 60.5 -187.5t154.5 -65.5z" />
    <glyph glyph-name="A" unicode="A" horiz-adv-x="1729" 
d="M1307 0l-121 299h-651l-121 -299h-445l680 1540h429l682 -1540h-453zM662 620h396l-198 493z" />
    <glyph glyph-name="B" unicode="B" horiz-adv-x="1692" 
d="M1338 803q131 -47 206 -143.5t75 -237.5q0 -199 -161.5 -310.5t-471.5 -111.5h-832v1540h788q202 0 336 -51t200 -142t66 -210q0 -221 -206 -334zM884 1225h-299v-297h299q218 0 220 150q0 145 -220 147zM950 315q113 0 171 38.5t58 117.5t-58 117.5t-171 38.5h-365v-312
h365z" />
    <glyph glyph-name="C" unicode="C" horiz-adv-x="1624" 
d="M922 -31q-244 0 -435.5 102.5t-301.5 283.5t-110 415t110 415t301.5 283.5t435.5 102.5q213 0 381 -75t281 -216l-277 -250q-73 87 -163 133.5t-200 46.5q-190 0 -309.5 -121t-119.5 -319t119.5 -319t309.5 -121q110 0 200 46.5t163 133.5l277 -250q-113 -141 -281 -216
t-381 -75z" />
    <glyph glyph-name="D" unicode="D" horiz-adv-x="1817" 
d="M154 0v1540h728q255 0 449 -94t302.5 -266.5t108.5 -409.5q0 -236 -108.5 -409t-302.5 -267t-449 -94h-728zM590 348h275q131 0 229.5 50t153 144.5t54.5 227.5t-54.5 227.5t-153 144.5t-229.5 50h-275v-844z" />
    <glyph glyph-name="E" unicode="E" horiz-adv-x="1478" 
d="M585 337h805v-337h-1236v1540h1208v-337h-777v-259h684v-326h-684v-281z" />
    <glyph glyph-name="F" unicode="F" horiz-adv-x="1412" 
d="M1362 1203h-772v-338h679v-337h-679v-528h-436v1540h1208v-337z" />
    <glyph glyph-name="G" unicode="G" horiz-adv-x="1694" 
d="M1186 381v422h385v-638q-137 -96 -308 -146t-339 -50q-245 0 -437 102.5t-302 283.5t-110 415t110.5 415t304 283.5t443.5 102.5q432 0 673 -282l-277 -251q-153 172 -374 172q-198 0 -319 -120t-121 -320q0 -195 120.5 -317.5t314.5 -122.5q123 0 236 51z" />
    <glyph glyph-name="H" unicode="H" horiz-adv-x="1773" 
d="M1184 1540h435v-1540h-435v601h-594v-601h-436v1540h436v-579h594v579z" />
    <glyph glyph-name="I" unicode="I" horiz-adv-x="746" 
d="M154 0v1540h436v-1540h-436z" />
    <glyph glyph-name="J" unicode="J" horiz-adv-x="1225" 
d="M491 -31q-169 0 -307 58t-228 169l238 281q60 -79 126 -119.5t140 -40.5q94 0 143.5 57t49.5 167v662h-532v337h964v-972q0 -301 -152 -450t-442 -149z" />
    <glyph glyph-name="K" unicode="K" horiz-adv-x="1654" 
d="M1188 0l-440 559l-163 -174v-385h-431v1540h431v-640l596 640h480l-629 -682l662 -858h-506z" />
    <glyph glyph-name="L" unicode="L" horiz-adv-x="1342" 
d="M154 0v1540h436v-1195h734v-345h-1170z" />
    <glyph glyph-name="M" unicode="M" horiz-adv-x="2099" 
d="M1945 0h-401l-4 816l-396 -664h-194l-393 642v-794h-403v1540h359l541 -889l528 889h358z" />
    <glyph glyph-name="N" unicode="N" horiz-adv-x="1773" 
d="M1192 1540h427v-1540h-358l-680 821v-821h-427v1540h359l679 -821v821z" />
    <glyph glyph-name="O" unicode="O" horiz-adv-x="1861" 
d="M931 -31q-247 0 -440.5 104t-304.5 285t-111 412t111 412t304.5 285t440.5 104q246 0 439.5 -104t304.5 -285t111 -412t-111 -412t-304.5 -285t-439.5 -104zM931 330q116 0 210.5 54.5t149.5 153.5t55 232t-55 232t-149.5 153.5t-210.5 54.5q-117 0 -211 -54.5
t-149.5 -153.5t-55.5 -232t55.5 -232t149.5 -153.5t211 -54.5z" />
    <glyph glyph-name="P" unicode="P" horiz-adv-x="1621" 
d="M858 1540q210 0 363.5 -69t237 -197t83.5 -304q0 -262 -184.5 -414.5t-499.5 -152.5h-268v-403h-436v1540h704zM832 746q135 0 202.5 59.5t67.5 164.5q0 107 -67.5 167t-202.5 60h-242v-451h242z" />
    <glyph glyph-name="Q" unicode="Q" horiz-adv-x="1861" 
d="M1676 46l190 -224q-168 -194 -432 -194q-188 0 -336.5 78t-336.5 276q-204 36 -358 144.5t-241 274.5t-87 369q0 231 111 412t304.5 285t440.5 104q246 0 439.5 -104t304.5 -285t111 -412q0 -175 -65 -322.5t-182.5 -255.5t-275.5 -166q45 -48 88 -68t92 -20
q126 0 233 108zM515 770q0 -133 55.5 -232t149.5 -153.5t211 -54.5q116 0 210.5 54.5t149.5 153.5t55 232t-55 232t-149.5 153.5t-210.5 54.5q-117 0 -211 -54.5t-149.5 -153.5t-55.5 -232z" />
    <glyph glyph-name="R" unicode="R" horiz-adv-x="1628" 
d="M1107 0l-280 409h-237v-409h-436v1540h704q210 0 363.5 -69t237 -197t83.5 -304q0 -170 -78.5 -293t-222.5 -193l332 -484h-466zM1102 970q0 107 -67.5 167t-202.5 60h-242v-451h242q135 0 202.5 59.5t67.5 164.5z" />
    <glyph glyph-name="S" unicode="S" horiz-adv-x="1423" 
d="M695 -31q-190 0 -363.5 46.5t-285.5 123.5l143 321q105 -69 240 -110.5t268 -41.5q136 0 193.5 34.5t57.5 90.5q0 49 -41 78t-109 49t-152 37q-77 17 -157 38.5t-154 54t-133.5 82t-94 123t-34.5 176.5q0 138 75 251.5t226.5 181t380.5 67.5q150 0 296.5 -34t261.5 -100
l-134 -324q-225 119 -427 119q-91 0 -145.5 -18.5t-78.5 -50t-24 -70.5q0 -46 40 -74t107 -46.5t150 -35.5q77 -16 157 -37t155 -53t134.5 -81.5t94.5 -122.5t35 -177q0 -100 -42 -190t-127 -159t-213 -108.5t-300 -39.5z" />
    <glyph glyph-name="T" unicode="T" horiz-adv-x="1397" 
d="M482 0v1195h-473v345h1379v-345h-471v-1195h-435z" />
    <glyph glyph-name="U" unicode="U" horiz-adv-x="1729" 
d="M865 -31q-342 0 -533 186.5t-191 530.5v854h435v-840q0 -132 35.5 -213.5t101 -119t156.5 -37.5q90 0 155 37.5t100 119t35 213.5v840h429v-854q0 -344 -191 -530.5t-532 -186.5z" />
    <glyph glyph-name="V" unicode="V" horiz-adv-x="1685" 
d="M1285 1540h431l-660 -1540h-429l-658 1540h471l418 -1003z" />
    <glyph glyph-name="W" unicode="W" horiz-adv-x="2605" 
d="M2154 1540h416l-500 -1540h-466l-295 937l-308 -937h-466l-500 1540h449l310 -983l326 983h400l310 -992z" />
    <glyph glyph-name="X" unicode="X" horiz-adv-x="1621" 
d="M1628 0h-502l-319 477l-314 -477h-497l561 779l-537 761h490l308 -444l304 444h471l-537 -744z" />
    <glyph glyph-name="Y" unicode="Y" horiz-adv-x="1525" 
d="M1569 1540l-590 -988v-552h-436v559l-587 981h460l365 -612l365 612h423z" />
    <glyph glyph-name="Z" unicode="Z" horiz-adv-x="1494" 
d="M647 345h809v-345h-1379v273l777 922h-757v345h1326v-273z" />
    <glyph glyph-name="bracketleft" unicode="[" horiz-adv-x="856" 
d="M154 -427v2059h673v-319h-255v-1421h255v-319h-673z" />
    <glyph glyph-name="backslash" unicode="\" horiz-adv-x="913" 
d="M994 -220h-371l-726 2072h371z" />
    <glyph glyph-name="bracketright" unicode="]" horiz-adv-x="856" 
d="M700 -427h-674v319h256v1421h-256v319h674v-2059z" />
    <glyph glyph-name="asciicircum" unicode="^" horiz-adv-x="1342" 
d="M1239 308h-317l-251 603l-251 -603h-317l403 924h330z" />
    <glyph glyph-name="underscore" unicode="_" horiz-adv-x="1100" 
d="M0 -229v229h1100v-229h-1100z" />
    <glyph glyph-name="grave" unicode="`" horiz-adv-x="1320" 
d="M576 1335l-413 335h418l295 -335h-300z" />
    <glyph glyph-name="a" unicode="a" horiz-adv-x="1382" 
d="M642 1212q194 0 330 -58.5t208 -180.5t72 -311v-662h-390v154q-91 -174 -352 -174q-143 0 -242 49t-150.5 132t-51.5 187q0 110 55.5 189.5t172.5 123t302 43.5h238q-5 91 -67 140t-186 49q-86 0 -173.5 -27.5t-150.5 -75.5l-140 284q104 67 244.5 102.5t280.5 35.5z
M627 244q69 0 125 34t82 105v103h-181q-100 0 -141 -33t-41 -88q0 -53 41 -87t115 -34z" />
    <glyph glyph-name="b" unicode="b" horiz-adv-x="1529" 
d="M884 1212q162 0 295 -74.5t212 -212t79 -327.5t-79 -328.5t-212 -214t-295 -75.5q-234 0 -352 139v-119h-398v1632h418v-543q125 123 332 123zM796 312q71 0 127.5 33.5t90 97.5t33.5 155t-33.5 153.5t-90 95.5t-127.5 33q-70 0 -127 -33t-90 -95.5t-33 -153.5t33 -155
t90 -97.5t127 -33.5z" />
    <glyph glyph-name="c" unicode="c" horiz-adv-x="1327" 
d="M744 -20q-201 0 -355 79t-242 218.5t-88 320.5q0 180 88 318.5t242 217t355 78.5q203 0 349 -85.5t209 -242.5l-323 -165q-43 84 -104 122.5t-134 38.5q-72 0 -131 -33t-93.5 -95.5t-34.5 -153.5q0 -92 34.5 -156t93.5 -97t131 -33q73 0 134 38.5t104 122.5l323 -165
q-63 -156 -209 -242t-349 -86z" />
    <glyph glyph-name="d" unicode="d" horiz-adv-x="1536" 
d="M983 1632h418v-1632h-398v119q-119 -139 -350 -139q-162 0 -295.5 75.5t-212.5 214t-79 328.5t79 327.5t212.5 212t295.5 74.5q104 0 187.5 -30t142.5 -93v543zM741 312q71 0 127 33.5t89 97.5t33 155t-33 153.5t-89 95.5t-127 33t-128 -33t-89.5 -95.5t-32.5 -153.5
t32.5 -155t89.5 -97.5t128 -33.5z" />
    <glyph glyph-name="e" unicode="e" horiz-adv-x="1412" 
d="M1353 594q0 -32 -4 -71q-2 -17 -3 -32h-866q61 -192 292 -192q88 0 152 25.5t123 78.5l220 -229q-85 -96 -211.5 -145t-296.5 -49q-212 0 -369.5 80.5t-244 220t-86.5 317.5q0 180 85.5 318.5t234 217t336.5 78.5q132 0 248 -41t203 -120t137 -194t50 -263zM717 915
q-97 0 -161 -54.5t-83 -149.5h488q-17 95 -81.5 149.5t-162.5 54.5z" />
    <glyph glyph-name="f" unicode="f" horiz-adv-x="893" 
d="M590 1175v-27h283v-312h-272v-836h-418v836h-174v312h174v31q0 143 57.5 249.5t168.5 165t271 58.5q76 0 150 -15t127 -46l-103 -295q-60 35 -126 35t-102 -38.5t-36 -117.5z" />
    <glyph glyph-name="g" unicode="g" horiz-adv-x="1551" 
d="M1019 1192h398v-974q0 -226 -82.5 -373t-239 -219.5t-378.5 -72.5q-171 0 -326 39.5t-266 117.5l152 292q77 -60 187 -93.5t216 -33.5q168 0 243.5 74t75.5 214v39q-127 -140 -354 -140q-159 0 -292 70.5t-213.5 200t-80.5 305.5q0 175 80.5 304t213.5 199.5t292 70.5
q123 0 217.5 -40.5t156.5 -124.5v145zM744 394q112 0 185.5 67.5t73.5 176.5t-73.5 175.5t-185.5 66.5q-113 0 -187.5 -66.5t-74.5 -175.5t74.5 -176.5t187.5 -67.5z" />
    <glyph glyph-name="h" unicode="h" horiz-adv-x="1531" 
d="M911 1212q140 0 251.5 -55.5t176.5 -172.5t65 -302v-682h-418v614q0 129 -52.5 186.5t-143.5 57.5q-67 0 -121 -29t-85.5 -91.5t-31.5 -161.5v-576h-418v1632h418v-550q148 130 359 130z" />
    <glyph glyph-name="i" unicode="i" horiz-adv-x="689" 
d="M343 1324q-115 0 -185 64.5t-70 158.5t70 158t185 64q116 0 185.5 -61t69.5 -155q0 -99 -69.5 -164t-185.5 -65zM134 0v1192h418v-1192h-418z" />
    <glyph glyph-name="j" unicode="j" horiz-adv-x="704" 
d="M361 1324q-116 0 -185.5 64.5t-69.5 158.5t69.5 158t185.5 64q115 0 185 -61t70 -155q0 -99 -70 -164t-185 -65zM84 -447q-83 0 -159 15.5t-132 46.5l106 297q57 -35 130 -35q54 0 88.5 37.5t34.5 118.5v1159h418v-1161q0 -218 -127.5 -348t-358.5 -130z" />
    <glyph glyph-name="k" unicode="k" horiz-adv-x="1509" 
d="M1010 0l-335 418l-123 -125v-293h-418v1632h418v-855l427 415h495l-495 -510l537 -682h-506z" />
    <glyph glyph-name="l" unicode="l" horiz-adv-x="689" 
d="M134 0v1632h418v-1632h-418z" />
    <glyph glyph-name="m" unicode="m" horiz-adv-x="2299" 
d="M1687 1212q139 0 248 -55.5t171.5 -172.5t62.5 -302v-682h-418v614q0 129 -49 186.5t-131 57.5q-61 0 -108 -28t-74 -87t-27 -151v-592h-418v614q0 129 -48 186.5t-133 57.5q-61 0 -109 -28t-75 -87t-27 -151v-592h-418v1192h398v-125q69 73 160 109t197 36
q122 0 221.5 -45.5t163.5 -141.5q156 187 413 187z" />
    <glyph glyph-name="n" unicode="n" horiz-adv-x="1531" 
d="M911 1212q140 0 251.5 -55.5t176.5 -172.5t65 -302v-682h-418v614q0 129 -52.5 186.5t-143.5 57.5q-67 0 -121 -29t-85.5 -91.5t-31.5 -161.5v-576h-418v1192h398v-129q72 74 169.5 111.5t209.5 37.5z" />
    <glyph glyph-name="o" unicode="o" horiz-adv-x="1465" 
d="M733 -20q-195 0 -347 79.5t-239.5 219t-87.5 319.5t87.5 318.5t239.5 217t347 78.5q197 0 348.5 -78.5t238 -217t86.5 -318.5t-86.5 -319.5t-238 -219t-348.5 -79.5zM733 312q71 0 128 33.5t89.5 97.5t32.5 155t-32.5 153.5t-89.5 95.5t-128 33t-127.5 -33t-90 -95.5
t-33.5 -153.5t33.5 -155t90 -97.5t127.5 -33.5z" />
    <glyph glyph-name="p" unicode="p" horiz-adv-x="1529" 
d="M884 1212q162 0 295 -75t212 -213.5t79 -327.5t-79 -327t-212 -213.5t-295 -75.5q-207 0 -332 126v-533h-418v1619h398v-118q118 138 352 138zM796 312q71 0 127.5 33.5t90 97t33.5 153.5t-33.5 153.5t-90 97t-127.5 33.5q-70 0 -127 -33.5t-90 -97t-33 -153.5t33 -153.5
t90 -97t127 -33.5z" />
    <glyph glyph-name="q" unicode="q" horiz-adv-x="1529" 
d="M997 1192h398v-1619h-418v533q-124 -126 -332 -126q-162 0 -295 75.5t-212 213.5t-79 327t79 327.5t212 213.5t295 75q234 0 352 -138v118zM733 312q70 0 127 33.5t90 97t33 153.5t-33 153.5t-90 97t-127 33.5q-71 0 -127.5 -33.5t-90 -97t-33.5 -153.5t33.5 -153.5
t90 -97t127.5 -33.5z" />
    <glyph glyph-name="r" unicode="r" horiz-adv-x="975" 
d="M532 1049q65 81 167 122t234 41v-376q-49 7 -95 7q-84 0 -148.5 -30.5t-101 -95.5t-36.5 -169v-548h-418v1192h398v-143z" />
    <glyph glyph-name="s" unicode="s" horiz-adv-x="1203" 
d="M568 -20q-152 0 -295 34t-233 89l125 286q85 -51 196 -80.5t220 -29.5q105 0 146 22t41 60q0 29 -29 45.5t-77 25.5t-109 17q-79 9 -164 26t-158.5 54t-120 105.5t-46.5 181.5q0 112 67 202t197 142t317 52q125 0 252 -25.5t218 -75.5l-125 -284q-90 49 -177 68.5
t-166 19.5q-106 0 -149 -25t-43 -58q0 -31 29.5 -48t78.5 -27t111 -18q78 -10 162 -28t156.5 -55t118.5 -105t46 -179q0 -110 -66.5 -199t-198 -141t-324.5 -52z" />
    <glyph glyph-name="t" unicode="t" horiz-adv-x="983" 
d="M854 341l103 -293q-55 -34 -131.5 -51t-158.5 -17q-230 0 -357 113t-127 343v400h-174v312h174v311h418v-311h272v-312h-272v-396q0 -66 34.5 -101t90.5 -35q69 0 128 37z" />
    <glyph glyph-name="u" unicode="u" horiz-adv-x="1522" 
d="M970 1192h418v-1192h-398v128q-69 -75 -160.5 -111.5t-193.5 -36.5q-146 0 -260.5 57.5t-180 178.5t-65.5 310v666h418v-598q0 -139 52 -198t146 -59q61 0 112 28.5t81.5 90.5t30.5 162v574z" />
    <glyph glyph-name="v" unicode="v" horiz-adv-x="1364" 
d="M992 1192h398l-492 -1192h-432l-490 1192h429l286 -728z" />
    <glyph glyph-name="w" unicode="w" horiz-adv-x="2103" 
d="M1742 1192h368l-425 -1192h-405l-224 649l-233 -649h-405l-425 1192h396l245 -721l253 721h356l246 -728z" />
    <glyph glyph-name="x" unicode="x" horiz-adv-x="1362" 
d="M1368 0h-477l-213 312l-229 -312h-453l453 596l-440 596h471l211 -301l220 301h442l-440 -580z" />
    <glyph glyph-name="y" unicode="y" horiz-adv-x="1364" 
d="M992 1192h398l-514 -1240q-63 -153 -143 -240.5t-178 -123t-216 -35.5q-94 0 -189 29t-157 79l146 293q85 -71 184 -71q61 0 99.5 24.5t63.5 77.5l-510 1207h429l292 -728z" />
    <glyph glyph-name="z" unicode="z" horiz-adv-x="1223" 
d="M598 312h575v-312h-1100v246l552 636h-537v310h1063v-244z" />
    <glyph glyph-name="braceleft" unicode="{" horiz-adv-x="911" 
d="M693 873q0 -123 -40 -185t-125 -85q85 -23 125 -85t40 -186v-281q0 -76 39.5 -117.5t118.5 -41.5h31v-319h-143q-231 0 -347.5 112.5t-116.5 316.5v341q0 51 -26 75t-69 24h-74v321h74q43 0 69 24t26 75v341q0 205 116.5 317t347.5 112h143v-319h-31q-79 0 -118.5 -41
t-39.5 -117v-282z" />
    <glyph glyph-name="bar" unicode="|" horiz-adv-x="691" 
d="M154 -427v2059h383v-2059h-383z" />
    <glyph glyph-name="braceright" unicode="}" horiz-adv-x="911" 
d="M730 763h73v-321h-73q-42 0 -68 -24t-26 -75v-341q0 -204 -116.5 -316.5t-347.5 -112.5h-146v319h33q80 0 119.5 41.5t39.5 117.5v281q0 124 39.5 186t125.5 85q-86 23 -125.5 85t-39.5 185v282q0 76 -39.5 117t-119.5 41h-33v319h146q231 0 347.5 -112t116.5 -317v-341
q0 -51 26 -75t68 -24z" />
    <glyph glyph-name="asciitilde" unicode="~" horiz-adv-x="1340" 
d="M889 535q-59 0 -106.5 17t-87.5 42t-74 50q-37 29 -71 49t-68 20q-55 0 -88.5 -40.5t-37.5 -113.5h-257q6 219 103 335t249 116q59 0 107.5 -17t88.5 -42.5t74 -50.5q38 -29 71.5 -48.5t67.5 -19.5q55 0 87.5 41.5t35.5 114.5h258q-6 -221 -102.5 -337t-249.5 -116z" />
    <glyph glyph-name="exclamdown" unicode="&#xa1;" horiz-adv-x="662" 
d="M332 1212q111 0 180 -67.5t69 -163.5q0 -95 -69 -160.5t-180 -65.5q-110 0 -180.5 65.5t-70.5 160.5q0 96 70.5 163.5t180.5 67.5zM497 631l84 -970h-497l81 970h332z" />
    <glyph glyph-name="cent" unicode="&#xa2;" horiz-adv-x="1327" 
d="M741 312q73 0 134 38.5t104 122.5l323 -165q-115 -273 -448 -321v-251h-264v257q-160 30 -278.5 113t-185.5 209t-67 283q0 156 67 281t185.5 207.5t278.5 112.5v257h264v-250q333 -49 448 -322l-323 -165q-43 84 -104 122.5t-134 38.5q-72 0 -131 -33t-93.5 -95.5
t-34.5 -153.5q0 -92 34.5 -156t93.5 -97t131 -33z" />
    <glyph glyph-name="sterling" unicode="&#xa3;" horiz-adv-x="1498" 
d="M711 645v-308h715v-337h-1360v337h209v308h-209v250h209v14q0 313 196 487.5t554 174.5q271 0 449 -99l-128 -335q-68 40 -145.5 56.5t-153.5 16.5q-160 0 -248 -72t-88 -221v-22h497v-250h-497z" />
    <glyph glyph-name="currency" unicode="&#xa4;" horiz-adv-x="1540" 
d="M1338 708q0 -74 -19 -142.5t-52 -129.5l225 -225l-234 -235l-231 229q-121 -62 -259 -62q-139 0 -258 62l-231 -229l-231 235l223 225q-34 61 -52.5 129.5t-18.5 142.5q0 142 64 260l-216 218l231 235l218 -215q126 68 271 68q148 0 273 -68l217 215l234 -235l-218 -218
q64 -118 64 -260zM768 471q100 0 173 69t73 168t-73 169.5t-173 70.5q-101 0 -171.5 -70.5t-70.5 -169.5t70.5 -168t171.5 -69z" />
    <glyph glyph-name="yen" unicode="&#xa5;" horiz-adv-x="1657" 
d="M1701 1540l-570 -856h297v-213h-383v-90h383v-214h-383v-167h-436v167h-382v214h382v90h-382v213h301l-572 856h464l425 -629l427 629h429z" />
    <glyph glyph-name="brokenbar" unicode="&#xa6;" horiz-adv-x="691" 
d="M154 862v770h383v-770h-383zM154 -427v770h383v-770h-383z" />
    <glyph glyph-name="section" unicode="&#xa7;" horiz-adv-x="1177" 
d="M1120 667q0 -76 -33 -144.5t-97 -122.5q40 -39 64 -95t24 -136q0 -116 -60.5 -208.5t-178 -146.5t-289.5 -54q-140 0 -280 34.5t-228 91.5l116 283q84 -53 192 -84.5t200 -31.5q81 0 121 28.5t40 74.5q0 39 -31.5 61.5t-83 36.5t-114.5 26q-73 13 -147.5 33.5t-138.5 58
t-103.5 101t-39.5 165.5q0 172 130 284q-40 37 -63 93t-23 133q0 118 64 211t194 147t327 54q96 0 231 -24.5t227 -76.5l-117 -284q-89 50 -180 71t-183 21q-109 0 -152.5 -28.5t-43.5 -74.5q0 -33 28.5 -53t76 -33t106.5 -25q73 -15 150.5 -37t144 -62.5t108.5 -109
t42 -177.5zM414 669q0 -40 32 -63.5t84.5 -38.5t117.5 -28q16 -3 32 -7q79 46 79 121q0 40 -32 63.5t-85 38.5t-117 28q-16 3 -32 7q-37 -22 -58 -52.5t-21 -68.5z" />
    <glyph glyph-name="dieresis" unicode="&#xa8;" horiz-adv-x="1320" 
d="M427 1333q-74 0 -124 47t-50 125q0 77 50 125.5t124 48.5t124 -48.5t50 -125.5q0 -78 -50 -125t-124 -47zM893 1333q-74 0 -124 47t-50 125q0 77 50 125.5t124 48.5t124 -48.5t50 -125.5q0 -78 -50 -125t-124 -47z" />
    <glyph glyph-name="copyright" unicode="&#xa9;" horiz-adv-x="1705" 
d="M849 -7q-219 0 -394 104t-277.5 280t-102.5 393t102.5 393t279 280t397.5 104t396 -102t276.5 -277t101.5 -394q0 -218 -103.5 -395.5t-280 -281.5t-395.5 -104zM849 161q173 0 308.5 81.5t214 220.5t78.5 311q0 173 -76.5 310t-210.5 216t-309 79t-310.5 -80.5
t-213 -218.5t-77.5 -310t77 -310t212 -218.5t307 -80.5zM882 330q-137 0 -244 56.5t-168 155.5t-61 228t61 228t168 155.5t244 56.5q139 0 240 -61t145 -168l-237 -130q-29 53 -66.5 75t-83.5 22q-66 0 -114.5 -46t-48.5 -132t48.5 -132t114.5 -46q46 0 83.5 22t66.5 75
l237 -130q-44 -107 -145 -168t-240 -61z" />
    <glyph glyph-name="ordfeminine" unicode="&#xaa;" horiz-adv-x="917" 
d="M420 1652q192 0 296.5 -80t104.5 -252v-392h-264v93q-56 -104 -225 -104q-93 0 -156 29.5t-94 79.5t-31 111q0 101 80.5 156.5t255.5 55.5h148q-5 51 -43 77t-116 26q-51 0 -106 -16.5t-96 -45.5l-93 176q68 42 160 64t179 22zM414 1082q41 0 73 18.5t48 54.5v57h-104
q-115 0 -112 -64q0 -29 25 -47.5t70 -18.5z" />
    <glyph glyph-name="guillemotleft" unicode="&#xab;" horiz-adv-x="1132" 
d="M805 1102l195 -135l-18 -21.5t-44 -61.5q-25 -38 -50 -90t-42.5 -115.5t-17.5 -134.5q0 -94 25.5 -170.5t58.5 -131t59 -84l26 -29.5l-188 -143l-35.5 40t-80.5 114t-80.5 176.5t-35.5 227.5q0 118 35 219.5t79.5 177.5t79 118.5zM395 1196l195 -157l-18 -25t-44 -71
q-25 -45 -50.5 -105.5t-42.5 -134.5t-17 -156q0 -110 25.5 -198.5t58.5 -152t59 -98l26 -34.5l-188 -166l-35.5 47t-80.5 133t-80.5 205t-35.5 264q0 137 35 255t79.5 206.5t79 138z" />
    <glyph glyph-name="logicalnot" unicode="&#xac;" horiz-adv-x="1340" 
d="M1212 931v-700h-339v381h-745v319h1084z" />
    <glyph glyph-name="softhyphen" unicode="&#xad;" horiz-adv-x="854" 
d="M106 466v322h642v-322h-642z" />
    <glyph glyph-name="registered" unicode="&#xae;" horiz-adv-x="1705" 
d="M854 1547q221 0 396 -102t276.5 -277t101.5 -394q0 -218 -103.5 -395.5t-280 -281.5t-395.5 -104t-394 104t-277.5 280t-102.5 393t102.5 393t279 280t397.5 104zM1296 354q73 83 113.5 190t40.5 230q0 173 -76.5 310t-210.5 216t-309 79t-310.5 -80.5t-213 -218.5
t-77.5 -310t77 -310t212 -218.5t307 -80.5q134 0 247 50t193 139h-266l-147 229h-104v-229h-270v840h382q179 0 279 -82.5t100 -223.5q0 -181 -145 -257zM772 772h95q61 0 94 30.5t33 81.5q0 53 -33 83t-94 30h-95v-225z" />
    <glyph glyph-name="macron" unicode="&#xaf;" horiz-adv-x="1320" 
d="M227 1390v225h866v-225h-866z" />
    <glyph glyph-name="degree" unicode="&#xb0;" horiz-adv-x="917" 
d="M458 788q-110 0 -200.5 51t-144.5 139t-54 197t54 196.5t144.5 139t200.5 51.5q111 0 201.5 -51.5t144.5 -139t54 -196.5t-54 -197t-144.5 -139t-201.5 -51zM458 986q80 0 133.5 54t53.5 135q0 79 -53.5 133t-133.5 54t-132.5 -54t-52.5 -133q0 -81 52.5 -135t132.5 -54z
" />
    <glyph glyph-name="plusminus" unicode="&#xb1;" horiz-adv-x="1340" 
d="M840 1140h372v-306h-372v-348h-338v348h-374v306h374v347h338v-347zM128 0v319h1084v-319h-1084z" />
    <glyph glyph-name="twosuperior" unicode="&#xb2;" horiz-adv-x="946" 
d="M495 937h374v-218h-785v174l365 315q56 48 75 80t19 58q0 35 -29.5 59.5t-95.5 24.5q-119 0 -176 -90l-213 114q49 89 153 143.5t262 54.5q180 0 287 -78.5t107 -205.5q0 -66 -35.5 -131t-140.5 -157z" />
    <glyph glyph-name="threesuperior" unicode="&#xb3;" horiz-adv-x="946" 
d="M638 1272q126 -25 190.5 -95t64.5 -169q0 -78 -47 -148.5t-146 -115t-256 -44.5q-118 0 -230 26t-183 73l99 206q67 -39 149.5 -61t160.5 -22q158 0 158 86q0 36 -32 57.5t-108 21.5h-143v174l171 158h-411v213h765v-173z" />
    <glyph glyph-name="acute" unicode="&#xb4;" horiz-adv-x="1320" 
d="M444 1335l295 335h418l-413 -335h-300z" />
    <glyph glyph-name="mu" unicode="&#xb5;" horiz-adv-x="1529" 
d="M977 1192h418v-1192h-370v132q-54 -82 -129 -117t-152 -35q-113 0 -192 53v-460h-418v1619h418v-598q0 -139 53 -198t147 -59q62 0 113 28.5t81.5 90.5t30.5 162v574z" />
    <glyph glyph-name="paragraph" unicode="&#xb6;" horiz-adv-x="1555" 
d="M502 -220v983q-136 4 -243.5 57.5t-171 149.5t-63.5 227q0 134 68.5 231.5t192 150.5t289.5 53h827v-1852h-338v1560h-223v-1560h-338z" />
    <glyph glyph-name="periodcentered" unicode="&#xb7;" horiz-adv-x="711" 
d="M354 378q-109 0 -180 68.5t-71 182.5q0 112 71 180.5t180 68.5q111 0 181 -68.5t70 -180.5q0 -114 -70 -182.5t-181 -68.5z" />
    <glyph glyph-name="cedilla" unicode="&#xb8;" horiz-adv-x="1320" 
d="M579 -519q-56 0 -114 13t-95 33l57 165q28 -13 62.5 -22t73.5 -9q60 0 85 17.5t25 44.5q0 25 -23 40t-76 15h-81l57 242h218l-31 -132q68 -9 109.5 -35.5t60.5 -64.5t19 -78q0 -106 -95.5 -167.5t-251.5 -61.5z" />
    <glyph glyph-name="onesuperior" unicode="&#xb9;" horiz-adv-x="946" 
d="M660 933h180v-214h-688v214h209v486h-189v213h488v-699z" />
    <glyph glyph-name="ordmasculine" unicode="&#xba;" horiz-adv-x="950" 
d="M475 917q-124 0 -221.5 47t-153.5 130t-56 191q0 107 56 189.5t153.5 130t221.5 47.5q190 0 310.5 -103.5t120.5 -263.5q0 -162 -120.5 -265t-310.5 -103zM475 1129q65 0 107.5 41t42.5 115q0 76 -42.5 116t-107.5 40q-64 0 -106.5 -40t-42.5 -116q0 -74 42.5 -115
t106.5 -41z" />
    <glyph glyph-name="guillemotright" unicode="&#xbb;" horiz-adv-x="1132" 
d="M322 1102l35 -42.5t79.5 -118.5t79 -177.5t34.5 -219.5q0 -125 -35 -227.5t-80.5 -176.5t-80.5 -114l-35 -40l-188 143l25.5 29.5t58.5 84t58.5 131t25.5 170.5q0 71 -17 134.5t-42 115.5t-51 90q-26 40 -44 61.5l-18 21.5zM732 1196l35 -49.5t79.5 -138t79 -206.5
t34.5 -255q0 -145 -35 -264t-80.5 -205t-80.5 -133l-35 -47l-188 166l25.5 34.5t58.5 98t58.5 152t25.5 198.5q0 82 -17 156t-42 134.5t-51 105.5q-26 46 -44 71l-18 25z" />
    <glyph glyph-name="onequarter" unicode="&#xbc;" horiz-adv-x="2310" 
d="M840 840v-213h-688v213h209v487h-189v213h488v-700h180zM1525 1540h314l-1051 -1540h-315zM2277 385v-218h-128v-167h-283v167h-489v181l401 565h312l-376 -528h182v139h253v-139h128z" />
    <glyph glyph-name="onehalf" unicode="&#xbd;" horiz-adv-x="2310" 
d="M840 840v-213h-688v213h209v487h-189v213h488v-700h180zM1525 1540h314l-1051 -1540h-315zM1859 218h374v-218h-785v174l365 314q56 49 75 81t19 58q0 35 -29.5 59.5t-95.5 24.5q-119 0 -176 -91l-213 115q49 89 153 143.5t262 54.5q180 0 287 -78.5t107 -205.5
q0 -66 -35.5 -131t-140.5 -157z" />
    <glyph glyph-name="threequarters" unicode="&#xbe;" horiz-adv-x="2310" 
d="M893 915q0 -78 -47 -148.5t-146 -115t-256 -44.5q-118 0 -230 26.5t-183 72.5l99 207q67 -40 149.5 -62t160.5 -22q158 0 158 86q0 37 -32 58t-108 21h-143v174l171 159h-411v213h765v-174l-202 -187q126 -24 190.5 -94.5t64.5 -169.5zM1525 1540h314l-1051 -1540h-315z
M2277 385v-218h-128v-167h-283v167h-489v181l401 565h312l-376 -528h182v139h253v-139h128z" />
    <glyph glyph-name="questiondown" unicode="&#xbf;" horiz-adv-x="1313" 
d="M651 755q-110 0 -180.5 65.5t-70.5 160.5q0 96 70.5 163.5t180.5 67.5q111 0 180 -67.5t69 -163.5q0 -95 -69 -160.5t-180 -65.5zM675 -367q-169 0 -300 47t-205.5 138.5t-74.5 223.5q0 97 33 165.5t82.5 120t100.5 94.5q39 32 71.5 64t52.5 67.5t20 77.5h392
q0 -80 -29 -140t-72 -107t-88 -87q-34 -31 -62.5 -60t-46 -60t-17.5 -67q0 -61 55 -97.5t139 -36.5q89 0 160 41.5t115 114.5l328 -174q-58 -98 -149.5 -171t-217 -113.5t-287.5 -40.5z" />
    <glyph glyph-name="Agrave" unicode="&#xc0;" horiz-adv-x="1729" 
d="M1080 1665h-299l-414 335h418zM1307 0l-121 299h-651l-121 -299h-445l680 1540h429l682 -1540h-453zM662 620h396l-198 493z" />
    <glyph glyph-name="Aacute" unicode="&#xc1;" horiz-adv-x="1729" 
d="M1362 2000l-414 -335h-299l295 335h418zM1307 0l-121 299h-651l-121 -299h-445l680 1540h429l682 -1540h-453zM662 620h396l-198 493z" />
    <glyph glyph-name="Acircumflex" unicode="&#xc2;" horiz-adv-x="1729" 
d="M865 1833l-190 -168h-277l286 335h361l286 -335h-277zM1307 0l-121 299h-651l-121 -299h-445l680 1540h429l682 -1540h-453zM662 620h396l-198 493z" />
    <glyph glyph-name="Atilde" unicode="&#xc3;" horiz-adv-x="1729" 
d="M719 1786q-89 0 -101 -116h-204q4 162 78 256t201 94q46 0 83.5 -13t69 -32.5t59.5 -38.5q29 -21 54.5 -36t50.5 -15q89 0 101 110h205q-5 -157 -79 -251t-201 -94q-45 0 -83 13t-69.5 32.5t-58.5 39.5q-29 22 -55 36.5t-51 14.5zM1307 0l-121 299h-651l-121 -299h-445
l680 1540h429l682 -1540h-453zM662 620h396l-198 493z" />
    <glyph glyph-name="Adieresis" unicode="&#xc4;" horiz-adv-x="1729" 
d="M631 1663q-74 0 -123.5 47t-49.5 125q0 77 49.5 125.5t123.5 48.5q75 0 124.5 -48.5t49.5 -125.5q0 -78 -49.5 -125t-124.5 -47zM1098 1663q-74 0 -124 47t-50 125q0 77 50 125.5t124 48.5t124 -48.5t50 -125.5q0 -78 -50 -125t-124 -47zM1307 0l-121 299h-651l-121 -299
h-445l680 1540h429l682 -1540h-453zM662 620h396l-198 493z" />
    <glyph glyph-name="Aring" unicode="&#xc5;" horiz-adv-x="1729" 
d="M865 1648q-124 0 -207.5 81t-83.5 198t83.5 199.5t207.5 82.5q122 0 206 -82.5t84 -199.5t-84 -198t-206 -81zM865 2055q-53 0 -89.5 -36t-36.5 -92q0 -54 36.5 -89.5t89.5 -35.5q52 0 88.5 35.5t36.5 89.5q0 56 -36.5 92t-88.5 36zM1307 0l-121 299h-651l-121 -299h-445
l680 1540h429l682 -1540h-453zM662 620h396l-198 493z" />
    <glyph glyph-name="AE" unicode="&#xc6;" horiz-adv-x="2418" 
d="M1525 337h805v-337h-1237v299h-523l-156 -299h-445l841 1540h1491v-337h-776v-259h684v-326h-684v-281zM739 620h354v583h-50z" />
    <glyph glyph-name="Ccedilla" unicode="&#xc7;" horiz-adv-x="1624" 
d="M944 330q110 0 200 46.5t163 133.5l277 -250q-217 -271 -618 -291l-20 -81q68 -9 109.5 -35.5t60.5 -64.5t19 -78q0 -106 -95.5 -167.5t-251.5 -61.5q-56 0 -114 13t-95 33l57 165q28 -13 62.5 -22t73.5 -9q60 0 85 17.5t25 44.5q0 25 -23 40t-76 15h-81l48 204
q-200 36 -351.5 143.5t-237.5 273t-86 371.5q0 234 110 415t301.5 283.5t435.5 102.5q213 0 381 -75t281 -216l-277 -250q-73 87 -163 133.5t-200 46.5q-190 0 -309.5 -121t-119.5 -319t119.5 -319t309.5 -121z" />
    <glyph glyph-name="Egrave" unicode="&#xc8;" horiz-adv-x="1478" 
d="M975 1665h-300l-413 335h418zM585 337h805v-337h-1236v1540h1208v-337h-777v-259h684v-326h-684v-281z" />
    <glyph glyph-name="Eacute" unicode="&#xc9;" horiz-adv-x="1478" 
d="M1256 2000l-413 -335h-300l295 335h418zM585 337h805v-337h-1236v1540h1208v-337h-777v-259h684v-326h-684v-281z" />
    <glyph glyph-name="Ecircumflex" unicode="&#xca;" horiz-adv-x="1478" 
d="M759 1833l-189 -168h-277l286 335h360l286 -335h-277zM585 337h805v-337h-1236v1540h1208v-337h-777v-259h684v-326h-684v-281z" />
    <glyph glyph-name="Edieresis" unicode="&#xcb;" horiz-adv-x="1478" 
d="M526 1663q-74 0 -124 47t-50 125q0 77 50 125.5t124 48.5t124 -48.5t50 -125.5q0 -78 -50 -125t-124 -47zM992 1663q-74 0 -124 47t-50 125q0 77 50 125.5t124 48.5t124 -48.5t50 -125.5q0 -78 -50 -125t-124 -47zM585 337h805v-337h-1236v1540h1208v-337h-777v-259h684
v-326h-684v-281z" />
    <glyph glyph-name="Igrave" unicode="&#xcc;" horiz-adv-x="746" 
d="M288 1665l-413 335h418l294 -335h-299zM154 0v1540h436v-1540h-436z" />
    <glyph glyph-name="Iacute" unicode="&#xcd;" horiz-adv-x="746" 
d="M156 1665l295 335h418l-414 -335h-299zM154 0v1540h436v-1540h-436z" />
    <glyph glyph-name="Icircumflex" unicode="&#xce;" horiz-adv-x="746" 
d="M372 1833l-189 -168h-278l286 335h361l286 -335h-277zM154 0v1540h436v-1540h-436z" />
    <glyph glyph-name="Idieresis" unicode="&#xcf;" horiz-adv-x="746" 
d="M139 1663q-75 0 -124.5 47t-49.5 125q0 77 49.5 125.5t124.5 48.5q74 0 123.5 -48.5t49.5 -125.5q0 -78 -49.5 -125t-123.5 -47zM605 1663q-74 0 -124 47t-50 125q0 77 50 125.5t124 48.5t124 -48.5t50 -125.5q0 -78 -50 -125t-124 -47zM154 0v1540h436v-1540h-436z" />
    <glyph glyph-name="Eth" unicode="&#xd0;" horiz-adv-x="1855" 
d="M920 1540q255 0 448.5 -94t302.5 -266.5t109 -409.5q0 -236 -109 -409t-302.5 -267t-448.5 -94h-729v647h-198v268h198v625h729zM902 348q131 0 229.5 50t153.5 144.5t55 227.5t-55 227.5t-153.5 144.5t-229.5 50h-275v-277h356v-268h-356v-299h275z" />
    <glyph glyph-name="Ntilde" unicode="&#xd1;" horiz-adv-x="1773" 
d="M741 1786q-89 0 -101 -116h-204q4 162 78 256t201 94q46 0 83.5 -13t69 -32.5t59.5 -38.5q29 -21 54.5 -36t50.5 -15q89 0 101 110h205q-5 -157 -79 -251t-201 -94q-45 0 -83 13t-69.5 32.5t-58.5 39.5q-29 22 -55 36.5t-51 14.5zM1192 1540h427v-1540h-358l-680 821
v-821h-427v1540h359l679 -821v821z" />
    <glyph glyph-name="Ograve" unicode="&#xd2;" horiz-adv-x="1861" 
d="M847 1665l-414 335h418l295 -335h-299zM931 -31q-247 0 -440.5 104t-304.5 285t-111 412t111 412t304.5 285t440.5 104q246 0 439.5 -104t304.5 -285t111 -412t-111 -412t-304.5 -285t-439.5 -104zM931 330q116 0 210.5 54.5t149.5 153.5t55 232t-55 232t-149.5 153.5
t-210.5 54.5q-117 0 -211 -54.5t-149.5 -153.5t-55.5 -232t55.5 -232t149.5 -153.5t211 -54.5z" />
    <glyph glyph-name="Oacute" unicode="&#xd3;" horiz-adv-x="1861" 
d="M715 1665l295 335h418l-414 -335h-299zM931 -31q-247 0 -440.5 104t-304.5 285t-111 412t111 412t304.5 285t440.5 104q246 0 439.5 -104t304.5 -285t111 -412t-111 -412t-304.5 -285t-439.5 -104zM931 330q116 0 210.5 54.5t149.5 153.5t55 232t-55 232t-149.5 153.5
t-210.5 54.5q-117 0 -211 -54.5t-149.5 -153.5t-55.5 -232t55.5 -232t149.5 -153.5t211 -54.5z" />
    <glyph glyph-name="Ocircumflex" unicode="&#xd4;" horiz-adv-x="1861" 
d="M931 1833l-190 -168h-277l286 335h361l286 -335h-277zM931 1571q246 0 439.5 -104t304.5 -285t111 -412t-111 -412t-304.5 -285t-439.5 -104q-247 0 -440.5 104t-304.5 285t-111 412t111 412t304.5 285t440.5 104zM931 330q116 0 210.5 54.5t149.5 153.5t55 232t-55 232
t-149.5 153.5t-210.5 54.5q-117 0 -211 -54.5t-149.5 -153.5t-55.5 -232t55.5 -232t149.5 -153.5t211 -54.5z" />
    <glyph glyph-name="Otilde" unicode="&#xd5;" horiz-adv-x="1861" 
d="M1102 1650q-45 0 -83 13t-69.5 32.5t-58.5 39.5q-29 22 -55 36.5t-51 14.5q-89 0 -101 -116h-204q4 162 78 256t201 94q46 0 83.5 -13t69 -32.5t59.5 -38.5q29 -21 54.5 -36t50.5 -15q89 0 101 110h205q-5 -157 -79 -251t-201 -94zM931 -31q-247 0 -440.5 104t-304.5 285
t-111 412t111 412t304.5 285t440.5 104q246 0 439.5 -104t304.5 -285t111 -412t-111 -412t-304.5 -285t-439.5 -104zM931 330q116 0 210.5 54.5t149.5 153.5t55 232t-55 232t-149.5 153.5t-210.5 54.5q-117 0 -211 -54.5t-149.5 -153.5t-55.5 -232t55.5 -232t149.5 -153.5
t211 -54.5z" />
    <glyph glyph-name="Odieresis" unicode="&#xd6;" horiz-adv-x="1861" 
d="M697 1663q-74 0 -123.5 47t-49.5 125q0 77 49.5 125.5t123.5 48.5q75 0 124.5 -48.5t49.5 -125.5q0 -78 -49.5 -125t-124.5 -47zM1164 1663q-74 0 -124 47t-50 125q0 77 50 125.5t124 48.5t124 -48.5t50 -125.5q0 -78 -50 -125t-124 -47zM931 -31q-247 0 -440.5 104
t-304.5 285t-111 412t111 412t304.5 285t440.5 104q246 0 439.5 -104t304.5 -285t111 -412t-111 -412t-304.5 -285t-439.5 -104zM931 330q116 0 210.5 54.5t149.5 153.5t55 232t-55 232t-149.5 153.5t-210.5 54.5q-117 0 -211 -54.5t-149.5 -153.5t-55.5 -232t55.5 -232
t149.5 -153.5t211 -54.5z" />
    <glyph glyph-name="multiply" unicode="&#xd7;" horiz-adv-x="1340" 
d="M1166 1041l-271 -271l271 -271l-224 -226l-271 270l-271 -270l-224 226l271 271l-271 271l224 226l271 -270l271 270z" />
    <glyph glyph-name="Oslash" unicode="&#xd8;" horiz-adv-x="1861" 
d="M1496 1384q137 -109 213.5 -266.5t76.5 -347.5q0 -231 -111 -412t-304.5 -285t-439.5 -104q-106 0 -202.5 20.5t-182.5 56.5l-143 -200h-258l220 310q-136 109 -213 266.5t-77 347.5q0 231 111 412t304.5 285t440.5 104q105 0 202 -20.5t183 -56.5l143 200h257zM515 770
q0 -84 23 -154.5t65 -127.5l490 691q-77 31 -162 31q-117 0 -211 -54.5t-149.5 -153.5t-55.5 -232zM931 330q116 0 210.5 54.5t149.5 153.5t55 232q0 84 -23 154.5t-65 127.5l-490 -691q77 -31 163 -31z" />
    <glyph glyph-name="Ugrave" unicode="&#xd9;" horiz-adv-x="1729" 
d="M785 1665l-413 335h418l295 -335h-300zM865 -31q-342 0 -533 186.5t-191 530.5v854h435v-840q0 -132 35.5 -213.5t101 -119t156.5 -37.5q90 0 155 37.5t100 119t35 213.5v840h429v-854q0 -344 -191 -530.5t-532 -186.5z" />
    <glyph glyph-name="Uacute" unicode="&#xda;" horiz-adv-x="1729" 
d="M653 1665l295 335h418l-413 -335h-300zM865 -31q-342 0 -533 186.5t-191 530.5v854h435v-840q0 -132 35.5 -213.5t101 -119t156.5 -37.5q90 0 155 37.5t100 119t35 213.5v840h429v-854q0 -344 -191 -530.5t-532 -186.5z" />
    <glyph glyph-name="Ucircumflex" unicode="&#xdb;" horiz-adv-x="1729" 
d="M869 1833l-189 -168h-277l286 335h360l286 -335h-277zM1159 1540h429v-854q0 -344 -191 -530.5t-532 -186.5q-342 0 -533 186.5t-191 530.5v854h435v-840q0 -132 35.5 -213.5t101 -119t156.5 -37.5q90 0 155 37.5t100 119t35 213.5v840z" />
    <glyph glyph-name="Udieresis" unicode="&#xdc;" horiz-adv-x="1729" 
d="M636 1663q-74 0 -124 47t-50 125q0 77 50 125.5t124 48.5t124 -48.5t50 -125.5q0 -78 -50 -125t-124 -47zM1102 1663q-74 0 -124 47t-50 125q0 77 50 125.5t124 48.5t124 -48.5t50 -125.5q0 -78 -50 -125t-124 -47zM865 -31q-342 0 -533 186.5t-191 530.5v854h435v-840
q0 -132 35.5 -213.5t101 -119t156.5 -37.5q90 0 155 37.5t100 119t35 213.5v840h429v-854q0 -344 -191 -530.5t-532 -186.5z" />
    <glyph glyph-name="Yacute" unicode="&#xdd;" horiz-adv-x="1525" 
d="M1258 2000l-413 -335h-299l294 335h418zM1569 1540l-590 -988v-552h-436v559l-587 981h460l365 -612l365 612h423z" />
    <glyph glyph-name="Thorn" unicode="&#xde;" horiz-adv-x="1621" 
d="M858 1382q315 0 499.5 -154t184.5 -416q0 -263 -184.5 -416.5t-499.5 -153.5h-268v-242h-436v1542h436v-160h268zM832 587q135 0 202.5 59.5t67.5 165.5q0 105 -67.5 164.5t-202.5 59.5h-242v-449h242z" />
    <glyph glyph-name="germandbls" unicode="&#xdf;" horiz-adv-x="1547" 
d="M1197 867q138 -50 215 -152.5t77 -252.5q0 -152 -71 -259.5t-199 -165t-297 -57.5q-68 0 -141 9.5t-123 25.5l44 324q69 -27 165 -27q89 0 143.5 41.5t54.5 119.5q0 155 -218 158h-117v322q102 4 161 55.5t59 137.5q0 79 -50.5 127.5t-138.5 48.5q-95 0 -152 -55
t-57 -163v-1104h-418v1052q0 148 49 260.5t135 188t200 113.5t243 38q188 0 320 -62.5t201 -169.5t69 -239q0 -99 -42 -177.5t-112 -136.5z" />
    <glyph glyph-name="agrave" unicode="&#xe0;" horiz-adv-x="1382" 
d="M904 1335h-299l-414 335h418zM642 1212q194 0 330 -58.5t208 -180.5t72 -311v-662h-390v154q-91 -174 -352 -174q-143 0 -242 49t-150.5 132t-51.5 187q0 110 55.5 189.5t172.5 123t302 43.5h238q-5 91 -67 140t-186 49q-86 0 -173.5 -27.5t-150.5 -75.5l-140 284
q104 67 244.5 102.5t280.5 35.5zM627 244q69 0 125 34t82 105v103h-181q-100 0 -141 -33t-41 -88q0 -53 41 -87t115 -34z" />
    <glyph glyph-name="aacute" unicode="&#xe1;" horiz-adv-x="1382" 
d="M1186 1670l-414 -335h-299l295 335h418zM642 1212q194 0 330 -58.5t208 -180.5t72 -311v-662h-390v154q-91 -174 -352 -174q-143 0 -242 49t-150.5 132t-51.5 187q0 110 55.5 189.5t172.5 123t302 43.5h238q-5 91 -67 140t-186 49q-86 0 -173.5 -27.5t-150.5 -75.5
l-140 284q104 67 244.5 102.5t280.5 35.5zM627 244q69 0 125 34t82 105v103h-181q-100 0 -141 -33t-41 -88q0 -53 41 -87t115 -34z" />
    <glyph glyph-name="acircumflex" unicode="&#xe2;" horiz-adv-x="1382" 
d="M689 1503l-190 -168h-277l286 335h361l286 -335h-277zM642 1212q194 0 330 -58.5t208 -180.5t72 -311v-662h-390v154q-91 -174 -352 -174q-143 0 -242 49t-150.5 132t-51.5 187q0 110 55.5 189.5t172.5 123t302 43.5h238q-5 91 -67 140t-186 49q-86 0 -173.5 -27.5
t-150.5 -75.5l-140 284q104 67 244.5 102.5t280.5 35.5zM627 244q69 0 125 34t82 105v103h-181q-100 0 -141 -33t-41 -88q0 -53 41 -87t115 -34z" />
    <glyph glyph-name="atilde" unicode="&#xe3;" horiz-adv-x="1382" 
d="M543 1456q-89 0 -101 -116h-204q4 162 78 256t201 94q46 0 83.5 -13t69 -32.5t59.5 -38.5q29 -21 54.5 -36t50.5 -15q89 0 101 110h205q-5 -157 -79 -251t-201 -94q-45 0 -83 13t-69.5 32.5t-58.5 39.5q-29 22 -55 36.5t-51 14.5zM642 1212q194 0 330 -58.5t208 -180.5
t72 -311v-662h-390v154q-91 -174 -352 -174q-143 0 -242 49t-150.5 132t-51.5 187q0 110 55.5 189.5t172.5 123t302 43.5h238q-5 91 -67 140t-186 49q-86 0 -173.5 -27.5t-150.5 -75.5l-140 284q104 67 244.5 102.5t280.5 35.5zM627 244q69 0 125 34t82 105v103h-181
q-100 0 -141 -33t-41 -88q0 -53 41 -87t115 -34z" />
    <glyph glyph-name="adieresis" unicode="&#xe4;" horiz-adv-x="1382" 
d="M455 1333q-74 0 -123.5 47t-49.5 125q0 77 49.5 125.5t123.5 48.5q75 0 124.5 -48.5t49.5 -125.5q0 -78 -49.5 -125t-124.5 -47zM922 1333q-74 0 -124 47t-50 125q0 77 50 125.5t124 48.5t124 -48.5t50 -125.5q0 -78 -50 -125t-124 -47zM642 1212q194 0 330 -58.5
t208 -180.5t72 -311v-662h-390v154q-91 -174 -352 -174q-143 0 -242 49t-150.5 132t-51.5 187q0 110 55.5 189.5t172.5 123t302 43.5h238q-5 91 -67 140t-186 49q-86 0 -173.5 -27.5t-150.5 -75.5l-140 284q104 67 244.5 102.5t280.5 35.5zM627 244q69 0 125 34t82 105v103
h-181q-100 0 -141 -33t-41 -88q0 -53 41 -87t115 -34z" />
    <glyph glyph-name="aring" unicode="&#xe5;" horiz-adv-x="1382" 
d="M689 1300q-124 0 -207.5 81t-83.5 199q0 117 83.5 199t207.5 82q122 0 206 -82t84 -199q0 -118 -84 -199t-206 -81zM689 1707q-53 0 -89.5 -35.5t-36.5 -91.5q0 -55 36.5 -90.5t89.5 -35.5q52 0 88.5 35.5t36.5 90.5q0 56 -36.5 91.5t-88.5 35.5zM642 1212
q194 0 330 -58.5t208 -180.5t72 -311v-662h-390v154q-91 -174 -352 -174q-143 0 -242 49t-150.5 132t-51.5 187q0 110 55.5 189.5t172.5 123t302 43.5h238q-5 91 -67 140t-186 49q-86 0 -173.5 -27.5t-150.5 -75.5l-140 284q104 67 244.5 102.5t280.5 35.5zM627 244
q69 0 125 34t82 105v103h-181q-100 0 -141 -33t-41 -88q0 -53 41 -87t115 -34z" />
    <glyph glyph-name="ae" unicode="&#xe6;" horiz-adv-x="2198" 
d="M2138 603q0 -66 -6 -115h-867q61 -189 288 -189q81 0 147.5 25.5t129.5 78.5l220 -229q-183 -194 -503 -194q-149 0 -281.5 46t-231.5 148q-54 -73 -124.5 -115.5t-153 -60.5t-171.5 -18q-163 0 -279 48t-178 134t-62 199q0 103 55.5 181.5t172.5 122t302 43.5h238
q-7 87 -69 136t-182 49q-181 0 -326 -103l-140 284q104 67 242.5 102.5t280.5 35.5q140 0 250.5 -37t185.5 -112q178 149 429 149q128 0 242.5 -41t202 -120t138 -192t50.5 -256zM1498 915q-87 0 -154.5 -53.5t-87.5 -153.5h482q-18 100 -84.5 153.5t-155.5 53.5zM631 244
q96 0 149.5 53.5t53.5 142.5v48h-181q-102 0 -142 -33t-40 -85q0 -58 41.5 -92t118.5 -34z" />
    <glyph glyph-name="ccedilla" unicode="&#xe7;" horiz-adv-x="1327" 
d="M741 312q73 0 134 38.5t104 122.5l323 -165q-59 -148 -193 -232.5t-324 -95.5l-22 -92q68 -9 110 -35.5t61 -64.5t19 -78q0 -106 -95.5 -167.5t-252.5 -61.5q-56 0 -113.5 13t-95.5 33l57 165q28 -13 62.5 -22t74.5 -9q59 0 84.5 17.5t25.5 44.5q0 25 -23.5 40t-75.5 15
h-82l53 220q-234 49 -373.5 209t-139.5 391q0 180 88 318.5t242 217t355 78.5q203 0 349 -85.5t209 -242.5l-323 -165q-43 84 -104 122.5t-134 38.5q-72 0 -131 -33t-93.5 -95.5t-34.5 -153.5q0 -92 34.5 -156t93.5 -97t131 -33z" />
    <glyph glyph-name="egrave" unicode="&#xe8;" horiz-adv-x="1412" 
d="M922 1335h-299l-414 335h418zM1353 594q0 -32 -4 -71q-2 -17 -3 -32h-866q61 -192 292 -192q88 0 152 25.5t123 78.5l220 -229q-85 -96 -211.5 -145t-296.5 -49q-212 0 -369.5 80.5t-244 220t-86.5 317.5q0 180 85.5 318.5t234 217t336.5 78.5q132 0 248 -41t203 -120
t137 -194t50 -263zM717 915q-97 0 -161 -54.5t-83 -149.5h488q-17 95 -81.5 149.5t-162.5 54.5z" />
    <glyph glyph-name="eacute" unicode="&#xe9;" horiz-adv-x="1412" 
d="M1203 1670l-413 -335h-299l294 335h418zM1353 594q0 -32 -4 -71q-2 -17 -3 -32h-866q61 -192 292 -192q88 0 152 25.5t123 78.5l220 -229q-85 -96 -211.5 -145t-296.5 -49q-212 0 -369.5 80.5t-244 220t-86.5 317.5q0 180 85.5 318.5t234 217t336.5 78.5q132 0 248 -41
t203 -120t137 -194t50 -263zM717 915q-97 0 -161 -54.5t-83 -149.5h488q-17 95 -81.5 149.5t-162.5 54.5z" />
    <glyph glyph-name="ecircumflex" unicode="&#xea;" horiz-adv-x="1412" 
d="M706 1503l-189 -168h-277l286 335h361l286 -335h-278zM1353 594q0 -32 -4 -71q-2 -17 -3 -32h-866q61 -192 292 -192q88 0 152 25.5t123 78.5l220 -229q-85 -96 -211.5 -145t-296.5 -49q-212 0 -369.5 80.5t-244 220t-86.5 317.5q0 180 85.5 318.5t234 217t336.5 78.5
q132 0 248 -41t203 -120t137 -194t50 -263zM717 915q-97 0 -161 -54.5t-83 -149.5h488q-17 95 -81.5 149.5t-162.5 54.5z" />
    <glyph glyph-name="edieresis" unicode="&#xeb;" horiz-adv-x="1412" 
d="M473 1333q-74 0 -124 47t-50 125q0 77 50 125.5t124 48.5t124 -48.5t50 -125.5q0 -78 -50 -125t-124 -47zM939 1333q-74 0 -123.5 47t-49.5 125q0 77 49.5 125.5t123.5 48.5q75 0 124.5 -48.5t49.5 -125.5q0 -78 -49.5 -125t-124.5 -47zM1353 594q0 -32 -4 -71
q-2 -17 -3 -32h-866q61 -192 292 -192q88 0 152 25.5t123 78.5l220 -229q-85 -96 -211.5 -145t-296.5 -49q-212 0 -369.5 80.5t-244 220t-86.5 317.5q0 180 85.5 318.5t234 217t336.5 78.5q132 0 248 -41t203 -120t137 -194t50 -263zM717 915q-97 0 -161 -54.5t-83 -149.5
h488q-17 95 -81.5 149.5t-162.5 54.5z" />
    <glyph glyph-name="igrave" unicode="&#xec;" horiz-adv-x="689" 
d="M260 1335l-414 335h418l295 -335h-299zM134 0v1192h418v-1192h-418z" />
    <glyph glyph-name="iacute" unicode="&#xed;" horiz-adv-x="689" 
d="M128 1335l294 335h418l-413 -335h-299zM134 0v1192h418v-1192h-418z" />
    <glyph glyph-name="icircumflex" unicode="&#xee;" horiz-adv-x="689" 
d="M343 1487l-136 -152h-275l235 335h352l236 -335h-275zM134 0v1192h418v-1192h-418z" />
    <glyph glyph-name="idieresis" unicode="&#xef;" horiz-adv-x="689" 
d="M152 1333q-69 0 -116 48t-47 124t47 123.5t116 47.5q67 0 113.5 -47.5t46.5 -123.5q0 -78 -46.5 -125t-113.5 -47zM537 1333q-69 0 -116 48t-47 124t47 123.5t116 47.5q67 0 113.5 -47.5t46.5 -123.5q0 -78 -46.5 -125t-113.5 -47zM134 0v1192h418v-1192h-418z" />
    <glyph glyph-name="eth" unicode="&#xf0;" horiz-adv-x="1465" 
d="M1236 1344q83 -110 126.5 -259t43.5 -337q0 -244 -90 -418.5t-254.5 -267.5t-388.5 -93q-172 0 -311.5 65t-221 183.5t-81.5 277.5q0 150 74.5 260.5t199.5 171.5t276 61q116 0 205.5 -32t153.5 -94q-6 224 -108 341l-537 -198l-72 187l369 139q-56 9 -118 9
q-142 0 -282 -44l-44 312q80 19 165 29.5t183 10.5q330 0 550 -148l202 75l73 -189zM706 279q101 0 164 56.5t63 141.5q0 90 -64.5 145.5t-160.5 55.5q-99 0 -161.5 -54t-62.5 -147q0 -90 63.5 -144t158.5 -54z" />
    <glyph glyph-name="ntilde" unicode="&#xf1;" horiz-adv-x="1531" 
d="M629 1456q-89 0 -101 -116h-205q5 162 79 256t201 94q45 0 83 -13t69.5 -32.5t58.5 -38.5q29 -21 55 -36t51 -15q89 0 101 110h204q-4 -157 -78 -251t-201 -94q-46 0 -83.5 13t-69 32.5t-59.5 39.5q-29 22 -54.5 36.5t-50.5 14.5zM911 1212q140 0 251.5 -55.5
t176.5 -172.5t65 -302v-682h-418v614q0 129 -52.5 186.5t-143.5 57.5q-67 0 -121 -29t-85.5 -91.5t-31.5 -161.5v-576h-418v1192h398v-129q72 74 169.5 111.5t209.5 37.5z" />
    <glyph glyph-name="ograve" unicode="&#xf2;" horiz-adv-x="1465" 
d="M645 1335l-414 335h418l295 -335h-299zM733 -20q-195 0 -347 79.5t-239.5 219t-87.5 319.5t87.5 318.5t239.5 217t347 78.5q197 0 348.5 -78.5t238 -217t86.5 -318.5t-86.5 -319.5t-238 -219t-348.5 -79.5zM733 312q71 0 128 33.5t89.5 97.5t32.5 155t-32.5 153.5
t-89.5 95.5t-128 33t-127.5 -33t-90 -95.5t-33.5 -153.5t33.5 -155t90 -97.5t127.5 -33.5z" />
    <glyph glyph-name="oacute" unicode="&#xf3;" horiz-adv-x="1465" 
d="M513 1335l294 335h418l-413 -335h-299zM733 -20q-195 0 -347 79.5t-239.5 219t-87.5 319.5t87.5 318.5t239.5 217t347 78.5q197 0 348.5 -78.5t238 -217t86.5 -318.5t-86.5 -319.5t-238 -219t-348.5 -79.5zM733 312q71 0 128 33.5t89.5 97.5t32.5 155t-32.5 153.5
t-89.5 95.5t-128 33t-127.5 -33t-90 -95.5t-33.5 -153.5t33.5 -155t90 -97.5t127.5 -33.5z" />
    <glyph glyph-name="ocircumflex" unicode="&#xf4;" horiz-adv-x="1465" 
d="M728 1503l-189 -168h-277l286 335h361l286 -335h-278zM733 1212q197 0 348.5 -78.5t238 -217t86.5 -318.5t-86.5 -319.5t-238 -219t-348.5 -79.5q-195 0 -347 79.5t-239.5 219t-87.5 319.5t87.5 318.5t239.5 217t347 78.5zM733 312q71 0 128 33.5t89.5 97.5t32.5 155
t-32.5 153.5t-89.5 95.5t-128 33t-127.5 -33t-90 -95.5t-33.5 -153.5t33.5 -155t90 -97.5t127.5 -33.5z" />
    <glyph glyph-name="otilde" unicode="&#xf5;" horiz-adv-x="1465" 
d="M900 1320q-46 0 -83.5 13t-69.5 32.5t-59 39.5q-29 22 -54.5 36.5t-50.5 14.5q-89 0 -101 -116h-205q5 162 79 256t201 94q45 0 83 -13t69.5 -32.5t58.5 -38.5q29 -21 55 -36t50 -15q90 0 102 110h204q-4 -157 -78 -251t-201 -94zM733 -20q-195 0 -347 79.5t-239.5 219
t-87.5 319.5t87.5 318.5t239.5 217t347 78.5q197 0 348.5 -78.5t238 -217t86.5 -318.5t-86.5 -319.5t-238 -219t-348.5 -79.5zM733 312q71 0 128 33.5t89.5 97.5t32.5 155t-32.5 153.5t-89.5 95.5t-128 33t-127.5 -33t-90 -95.5t-33.5 -153.5t33.5 -155t90 -97.5
t127.5 -33.5z" />
    <glyph glyph-name="odieresis" unicode="&#xf6;" horiz-adv-x="1465" 
d="M495 1333q-74 0 -124 47t-50 125q0 77 50 125.5t124 48.5t124 -48.5t50 -125.5q0 -78 -50 -125t-124 -47zM961 1333q-74 0 -123.5 47t-49.5 125q0 77 49.5 125.5t123.5 48.5q75 0 124.5 -48.5t49.5 -125.5q0 -78 -49.5 -125t-124.5 -47zM733 -20q-195 0 -347 79.5
t-239.5 219t-87.5 319.5t87.5 318.5t239.5 217t347 78.5q197 0 348.5 -78.5t238 -217t86.5 -318.5t-86.5 -319.5t-238 -219t-348.5 -79.5zM733 312q71 0 128 33.5t89.5 97.5t32.5 155t-32.5 153.5t-89.5 95.5t-128 33t-127.5 -33t-90 -95.5t-33.5 -153.5t33.5 -155t90 -97.5
t127.5 -33.5z" />
    <glyph glyph-name="divide" unicode="&#xf7;" horiz-adv-x="1340" 
d="M671 1032q-91 0 -152 59.5t-61 151.5q0 94 61 151.5t152 57.5q89 0 151 -57.5t62 -151.5q0 -92 -62 -151.5t-151 -59.5zM128 609v322h1084v-322h-1084zM671 88q-91 0 -152 59.5t-61 153.5q0 93 61 150t152 57q89 0 151 -57t62 -150q0 -94 -62 -153.5t-151 -59.5z" />
    <glyph glyph-name="oslash" unicode="&#xf8;" horiz-adv-x="1465" 
d="M1148 1093q122 -81 190 -208.5t68 -286.5q0 -180 -86.5 -319.5t-238 -219t-348.5 -79.5q-152 0 -278 49l-118 -183h-190l168 257q-120 82 -188 209.5t-68 285.5q0 180 87.5 318.5t239.5 217t347 78.5q148 0 275 -46l110 169h189zM482 598q0 -105 44 -171l288 442
q-38 11 -81 11q-71 0 -127.5 -33t-90 -95.5t-33.5 -153.5zM733 312q71 0 128 33.5t89.5 97.5t32.5 155q0 106 -44 172l-290 -444q41 -14 84 -14z" />
    </font>
</defs>
</svg>
