<?xml version="1.0" standalone="no"?>
<!DOCTYPE svg PUBLIC "-//W3C//DTD SVG 1.1//EN" "http://www.w3.org/Graphics/SVG/1.1/DTD/svg11.dtd" >
<svg xmlns="http://www.w3.org/2000/svg" xmlns:xlink="http://www.w3.org/1999/xlink" version="1.1">
<metadata>
Created by FontForge 20161003 at Sun Dec 16 22:20:19 2018
 By www-data
Copyright (c) 2019 by fontiran.com. All rights reserved.
</metadata>
<defs>
<font id="IRANYekanWeb-Medium" horiz-adv-x="0" >
  <font-face 
    font-family="IRANYekanWeb Medium"
    font-weight="500"
    font-stretch="normal"
    units-per-em="2200"
    panose-1="2 11 5 6 3 8 4 2 2 4"
    ascent="1760"
    descent="-440"
    x-height="1162"
    cap-height="1564"
    bbox="-492 -1106 3125 2698"
    underline-thickness="100"
    underline-position="-850"
    unicode-range="U+001D-FEFF"
  />
<missing-glyph horiz-adv-x="1229" 
d="M102 -362v1806h1024v-1806h-1024zM217 -248h795v1577h-795v-1577z" />
    <glyph glyph-name="uni06440627.isol" unicode="&#xfedf;&#xfe8e;" horiz-adv-x="1272" arabic-form="isolated" 
d="M123 -13v219h414q121 0 195 20.5t114.5 67.5t54 123.5t13.5 189.5v819h218v-819q0 -58 -3.5 -119t-15.5 -120.5t-35 -114t-62 -100.5h1q-71 -85 -188 -125.5t-292 -40.5h-414zM250 332l-71 1057l217 25l72 -1082h-218z" />
    <glyph glyph-name="uni06440627.fina" unicode="&#xfee0;&#xfe8e;" horiz-adv-x="1333" arabic-form="final" 
d="M120 -13v219h414q121 0 195 20.5t114.5 67.5t54 123.5t13.5 189.5v819h218v-1048q0 -38 12 -70t33.5 -55t52 -36t66.5 -13h65v-219h-65q-97 0 -171.5 41.5t-128.5 110.5q-72 -73 -184 -111.5t-275 -38.5h-414zM242 332l-71 1057l217 25l72 -1082h-218z" />
    <glyph glyph-name="uni06440623.isol" unicode="&#xfedf;&#xfe84;" horiz-adv-x="1272" arabic-form="isolated" 
d="M135 -13v219h414q121 0 195 20.5t114.5 67.5t54 123.5t13.5 189.5v819h218v-819q0 -58 -3.5 -119t-15.5 -120.5t-35 -114t-62 -100.5h1q-71 -85 -188 -125.5t-292 -40.5h-414zM262 332l-71 1057l217 25l72 -1082h-218zM3 1463v133l118 35q-34 31 -55.5 71t-21.5 86
q0 33 11.5 65.5t31.5 59.5t48 46.5t60 28.5h-1q17 5 33.5 7.5t33.5 2.5q38 0 69 -10.5t60 -21.5l-27 -110q-26 6 -51 12.5t-49 6.5q-15 0 -30 -5q-15 -6 -29.5 -15.5t-24.5 -22.5t-13 -29q-2 -6 -2 -13q0 -11 4 -22q9 -28 40.5 -47.5t86.5 -19.5q10 0 22.5 1t32 5.5t48.5 12
t72 21.5l8 -126z" />
    <glyph glyph-name="uni06440623.fina" unicode="&#xfee0;&#xfe84;" horiz-adv-x="1333" arabic-form="final" 
d="M116 -13v219h414q121 0 195 20.5t114.5 67.5t54 123.5t13.5 189.5v819h218v-1048q0 -38 12 -70t33.5 -55t52 -36t66.5 -13h65v-219h-65q-97 0 -171.5 41.5t-128.5 110.5q-72 -73 -184 -111.5t-275 -38.5h-414zM238 332l-71 1057l217 25l72 -1082h-218zM36 1485v133
l118 35q-34 31 -55.5 71t-21.5 86q0 33 11.5 65.5t31.5 59.5t48 46.5t60 28.5h-1q17 5 33.5 7.5t33.5 2.5q38 0 69 -10.5t60 -21.5l-27 -110q-26 6 -51 12.5t-49 6.5q-15 0 -30 -5q-15 -6 -29.5 -15.5t-24.5 -22.5t-13 -29q-2 -6 -2 -13q0 -11 4 -22q9 -28 40.5 -47.5
t86.5 -19.5q10 0 22.5 1t32 5.5t48.5 12t72 21.5l8 -126z" />
    <glyph glyph-name="uni06440625.isol" unicode="&#xfedf;&#xfe88;" horiz-adv-x="1275" arabic-form="isolated" 
d="M115 -13v219h414q121 0 195 20.5t114.5 67.5t54 123.5t13.5 189.5v819h218v-819q0 -58 -3.5 -119t-15.5 -120.5t-35 -114t-62 -100.5h1q-71 -85 -188 -125.5t-292 -40.5h-414zM242 332l-71 1057l217 25l72 -1082h-218zM278 -669v133l118 35q-34 31 -55.5 71t-21.5 86
q0 33 11.5 65.5t31.5 59.5t48 46.5t60 28.5h-1q17 5 33.5 7.5t33.5 2.5q38 0 69 -10.5t60 -21.5l-27 -110q-26 6 -51 12.5t-49 6.5q-15 0 -30 -5q-15 -6 -29.5 -15.5t-24.5 -22.5t-13 -29q-2 -6 -2 -13q0 -11 4 -22q9 -28 40.5 -47.5t86.5 -19.5q10 0 22.5 1t32 5.5t48.5 12
t72 21.5l8 -126z" />
    <glyph glyph-name="uni06440625.fina" unicode="&#xfee0;&#xfe88;" horiz-adv-x="1333" arabic-form="final" 
d="M116 -13v219h414q121 0 195 20.5t114.5 67.5t54 123.5t13.5 189.5v819h218v-1048q0 -38 12 -70t33.5 -55t52 -36t66.5 -13h65v-219h-65q-97 0 -171.5 41.5t-128.5 110.5q-72 -73 -184 -111.5t-275 -38.5h-414zM238 332l-71 1057l217 25l72 -1082h-218zM273 -668v133
l118 35q-34 31 -55.5 71t-21.5 86q0 33 11.5 65.5t31.5 59.5t48 46.5t60 28.5h-1q17 5 33.5 7.5t33.5 2.5q38 0 69 -10.5t60 -21.5l-27 -110q-26 6 -51 12.5t-49 6.5q-15 0 -30 -5q-15 -6 -29.5 -15.5t-24.5 -22.5t-13 -29q-2 -6 -2 -13q0 -11 4 -22q9 -28 40.5 -47.5
t86.5 -19.5q10 0 22.5 1t32 5.5t48.5 12t72 21.5l8 -126z" />
    <glyph glyph-name="uni06440622.isol" unicode="&#xfedf;&#xfe82;" horiz-adv-x="1396" arabic-form="isolated" 
d="M241 -13v219h414q121 0 195 20.5t114.5 67.5t54 123.5t13.5 189.5v819h218v-819q0 -58 -3.5 -119t-15.5 -120.5t-35 -114t-62 -100.5h1q-71 -85 -188 -125.5t-292 -40.5h-414zM368 332l-71 1057l217 25l72 -1082h-218zM916 1555h-490q-61 0 -103 -5t-70.5 -20
t-47.5 -43.5t-33 -75.5l-172 51q25 85 69 142.5t104 89.5q52 26 115 34t138 8h490v-181z" />
    <glyph glyph-name="uni06440622.fina" unicode="&#xfee0;&#xfe82;" horiz-adv-x="1492" arabic-form="final" 
d="M275 -13v219h414q121 0 195 20.5t114.5 67.5t54 123.5t13.5 189.5v819h218v-1048q0 -38 12 -70t33.5 -55t52 -36t66.5 -13h65v-219h-65q-97 0 -171.5 41.5t-128.5 110.5q-72 -73 -184 -111.5t-275 -38.5h-414zM397 332l-71 1057l217 25l72 -1082h-218zM916 1560h-490
q-61 0 -103 -5t-70.5 -20t-47.5 -43.5t-33 -75.5l-172 51q25 85 69 142.5t104 89.5q52 26 115 34t138 8h490v-181z" />
    <glyph glyph-name="uni06440671.isol" unicode="&#xfedf;&#xfb51;" horiz-adv-x="1272" 
d="M123 -13v219h414q121 0 195 20.5t114.5 67.5t54 123.5t13.5 189.5v819h218v-819q0 -58 -3.5 -119t-15.5 -120.5t-35 -114t-62 -100.5h1q-71 -85 -188 -125.5t-292 -40.5h-414zM250 332l-71 1057l217 25l72 -1082h-218zM-15 1527l21 95h130l46 71l83 122q35 51 84 80.5
t107 29.5q33 0 66 -12.5t58.5 -38.5t41.5 -66t16 -94q0 -52 -17.5 -88t-44.5 -58t-60 -31.5t-65 -9.5h-466zM456 1830q-30 0 -58 -19.5t-54 -49.5t-50 -67t-45 -72h202q39 0 65 22t26 70q0 56 -22 86t-64 30z" />
    <glyph glyph-name="uni06440671.fina" unicode="&#xfee0;&#xfb51;" horiz-adv-x="1333" 
d="M120 -13v219h414q121 0 195 20.5t114.5 67.5t54 123.5t13.5 189.5v819h218v-1048q0 -38 12 -70t33.5 -55t52 -36t66.5 -13h65v-219h-65q-97 0 -171.5 41.5t-128.5 110.5q-72 -73 -184 -111.5t-275 -38.5h-414zM242 332l-71 1057l217 25l72 -1082h-218zM-28 1529l21 95
h130l46 71l83 122q35 51 84 80.5t107 29.5q33 0 66 -12.5t58.5 -38.5t41.5 -66t16 -94q0 -52 -17.5 -88t-44.5 -58t-60 -31.5t-65 -9.5h-466zM443 1832q-30 0 -58 -19.5t-54 -49.5t-50 -67t-45 -72h202q39 0 65 22t26 70q0 56 -22 86t-64 30z" />
    <glyph glyph-name="allah" unicode="&#xfedf;&#xfee0;&#xfeea;" horiz-adv-x="2251" arabic-form="isolated" 
d="M1100 -15q-107 0 -181 27.5t-122.5 77.5t-75 120t-38.5 156l-60 426l-104 -22h1q-100 -26 -134 -86q-23 -40 -31 -85q-6 -37 -6 -75q0 -9 1 -38.5t11.5 -79t24 -98t29 -94.5t27.5 -87l32 -106l-210 -59l-30 104q-16 58 -33.5 119t-32 122.5t-22.5 123.5q-8 56 -8 112
q0 6 0.5 39.5t14 93t44.5 116.5q42 72 109.5 120t162.5 70h-1q20 5 56.5 13t73 15.5t64.5 12.5t31 5l120 -78l82 -532q11 -71 32 -113t48.5 -64.5t60 -29.5t66.5 -7q74 0 117.5 18t66 45t29 59.5t6.5 62.5l-2 717l220 51v-768q0 -46 15.5 -80.5t43.5 -57t66 -34.5t82 -13h10
q56 0 95 10.5t63.5 33t36.5 57.5t13 83l-49 841l218 107l49 -947q0 -35 -3.5 -73t-14 -76t-30.5 -75t-53 -70q-30 -28 -59 -48.5t-65.5 -34t-84.5 -20.5t-116 -7h-10q-40 0 -84 7t-86.5 20.5t-80 33.5t-62.5 46l-2 2v-1l-3 3q-29 -28 -59.5 -48.5t-69 -34.5t-86.5 -21
t-111 -7h-2zM1311 1311q-89 0 -139.5 49.5t-50.5 137.5v95l101 17v-112q0 -46 21 -66.5t68 -20.5q7 0 19.5 2.5t25 11.5t21.5 26.5t9 46.5v94l102 22v-116q0 -46 21 -67t69 -21q7 0 19 3t24 12.5t20.5 26.5t8.5 46q0 16 -3.5 37.5t-8.5 42.5t-10 39.5t-8 28.5l94 32
q1 -5 7 -24.5t13 -46t12 -56t5 -53.5q0 -48 -15.5 -83.5t-40.5 -58.5t-56.5 -34.5t-62.5 -11.5q-91 0 -140 51q-26 -26 -58.5 -38t-66.5 -12zM1384 1988l103 24v-288l-103 -25v289z" />
    <glyph glyph-name="riyal" unicode="&#x631;&#xfef3;&#xfe8e;&#x644;" horiz-adv-x="3285" arabic-form="isolated" 
d="M744 -568q-68 0 -131.5 15.5t-119 45.5t-102 72.5t-81.5 96.5q-15 24 -30 55.5t-27 71.5t-19.5 89t-7.5 106q0 49 7 102t22.5 113t41 128t63.5 146l197 -94q-57 -118 -85.5 -213.5t-28.5 -182.5q0 -118 52 -204q20 -28 47.5 -51.5t59.5 -40.5t68 -26.5t74 -9.5h46
q110 0 179 23t108 65t53.5 101.5t14.5 133.5v1452h216v-1452q0 -540 -571 -542h-46zM3125 32q-6 -134 -49.5 -242t-121 -184t-186.5 -117t-247 -41h-138v219h138q100 0 172.5 21t119.5 66.5t70 119t23 178.5v624h219v-644zM2095 -557l-158 160l156 162l162 -162zM1714 -555
l-158 160l156 162l162 -162zM2007 -15q-104 0 -178 13t-124.5 39t-81 65.5t-46.5 93t-21 120.5t-5 149v962h219v-962q0 -84 5.5 -135.5t29 -79.5t71 -37t131.5 -9v-219zM2535 818q2 -6 8 -32.5t14.5 -65.5t17 -86t16 -94.5t12.5 -92t5 -77.5q0 -99 -33 -172t-85.5 -120
t-118.5 -70t-132 -23h-270v219h277q13 0 38.5 4t50.5 20.5t43.5 49.5t18.5 92q0 22 -4 55t-10 71t-14 78t-15.5 75t-14.5 63t-11 43z" />
    <glyph glyph-name="uni0621" unicode="&#x621;" horiz-adv-x="974" arabic-form="isolated" 
d="M93 -51l6 213l188 50q-45 35 -79.5 75t-50.5 91q-16 48 -16 97q0 31 12 87t60.5 120t122 104t160.5 40q25 0 50 -3t54 -8.5t63 -14t76 -18.5l-43 -180q-68 14 -116.5 20t-85.5 6q-73 0 -118.5 -42t-59.5 -111q8 -42 30.5 -72.5t53.5 -51t68.5 -30t76.5 -9.5q35 0 76 8.5
t83 21t82.5 27t75.5 26.5l3 -214z" />
    <glyph glyph-name="uni0627" unicode="&#x627;" horiz-adv-x="599" arabic-form="isolated" 
d="M409 -15h-219v1442h219v-1442z" />
    <glyph glyph-name="uni0627.fina" unicode="&#x627;" horiz-adv-x="628" arabic-form="final" 
d="M646 -15q-104 0 -178 13t-124.5 39t-81 65.5t-46.5 93t-21 120.5t-5 149v962h219v-962q0 -84 5.5 -135.5t29 -79.5t71 -37t131.5 -9v-219z" />
    <glyph glyph-name="uni062D" unicode="&#x62d;" horiz-adv-x="1460" arabic-form="isolated" 
d="M1354 583l-609 -239q-132 -50 -218.5 -86t-137 -71.5t-70.5 -77t-20 -101.5q0 -112 37 -179t102 -103t155 -47.5t197 -11.5h474v-219h-474q-155 0 -284.5 29.5t-222.5 95t-145 171.5t-52 259q0 119 46.5 204t126.5 147.5t186 106.5t225 82l432 133l-502 175
q-45 13 -80 13.5t-62 -12.5t-47 -41t-36 -71l-202 61q21 67 57 128t89 102.5t124 55.5q22 4 46 4q53 0 116 -20q56 -18 101.5 -34.5t89.5 -34t92.5 -37.5t112 -45.5t147.5 -58t199 -73.5z" />
    <glyph glyph-name="uni062D.init" unicode="&#x62d;" horiz-adv-x="1418" arabic-form="initial" 
d="M1358 379q-6 -4 -53 -34.5t-125 -74.5t-182 -94t-223 -92.5t-248.5 -70.5t-258.5 -28h-288v219h288q70 0 145 10t149.5 27.5t147.5 40.5t140.5 49t126.5 53.5t106 54.5l-499 175q-45 13 -80 13.5t-62 -12.5t-47 -41t-36 -71l-202 61q21 67 57 128t89 102.5t124 55.5
q22 4 46 4q53 0 116 -20q56 -18 101.5 -33.5t89.5 -32t92.5 -35t112 -42.5t147.5 -55.5t199 -72.5z" />
    <glyph glyph-name="uni062D.medi" unicode="&#x62d;" horiz-adv-x="1529" arabic-form="medial" 
d="M1204 285q11 -31 33 -47q22 -17 46 -24.5t45 -8.5t30 -1h191v-219h-191q-77 0 -143 22.5t-118 65.5v1q-54 44 -86 109q-7 -3 -15 -7q-104 -50 -223 -92.5t-248.5 -70.5t-258.5 -28h-288v219h288q70 0 145 10t149.5 27.5t147.5 40.5t140.5 49t126.5 53.5t106 54.5
l-499 175q-45 13 -80 13.5t-62 -12.5t-47 -41t-36 -71l-202 61q21 67 57 128t89 102.5t124 55.5q22 4 46 4q53 0 116 -20q56 -18 101.5 -33.5t89.5 -32t92.5 -35t112 -42.5t147.5 -55.5t199 -72.5l27 -184q-6 -4 -53 -34q-39 -26 -99 -60z" />
    <glyph glyph-name="uni062D.fina" unicode="&#x62d;" horiz-adv-x="1560" arabic-form="final" 
d="M1198 315q14 -24 30 -43q18 -23 37.5 -38t39 -22.5t34.5 -7.5h242v-219h-242q-70 0 -127 18.5t-101.5 51.5t-76.5 80q-30 43 -49 96l-240 -94q-132 -50 -218.5 -86t-137 -71.5t-70.5 -77t-20 -101.5q0 -112 37 -179t102 -103t155 -47.5t197 -11.5h474v-219h-474
q-155 0 -284.5 29.5t-222.5 95t-145 171.5t-52 259q0 119 46.5 204.5t126 147.5t186 106.5t225.5 81.5l432 133l-502 175q-45 13 -80 13.5t-62 -12.5t-47 -41t-36 -71l-202 61q21 67 57 128t89 102.5t124 55.5q22 4 46 4q53 0 116 -20q56 -18 101.5 -34.5t89.5 -34
t92.5 -37.5t112 -45.5t147.5 -58t199 -73.5l7 -205z" />
    <glyph glyph-name="uni062F" unicode="&#x62f;" horiz-adv-x="1112" arabic-form="isolated" 
d="M563 -24q-61 0 -119 6q-29 3 -63 8t-69.5 14t-71 22.5t-67.5 31.5l-95 54l109 190l95 -54q34 -20 83.5 -32t105.5 -17q46 -4 93 -4q10 0 43 0.5t81 7.5q64 10 95.5 25.5t36.5 29.5q3 6 3 15q0 13 -7 39t-43 80q-96 145 -156 235.5t-94 141.5t-46 70t-13 20l-60 92
l183 120l60 -92l13 -19q12 -19 46 -70t94 -142t156 -235q57 -86 77 -166q9 -38 9 -74q0 -55 -22 -104q-35 -80 -119 -126q-73 -41 -181 -56q-38 -6 -77 -8.5t-80 -2.5z" />
    <glyph glyph-name="uni0631" unicode="&#x631;" horiz-adv-x="802" arabic-form="isolated" 
d="M742 32q-6 -134 -49.5 -242t-121 -184t-186.5 -117t-247 -41h-138v219h138q100 0 172.5 21t119.5 66.5t70 119t23 178.5v624h219v-644z" />
    <glyph glyph-name="uni0631.fina" unicode="&#x631;" horiz-adv-x="910" arabic-form="final" 
d="M925 -15h-21q-44 0 -83 7t-79 40q-6 -134 -49.5 -242t-121 -184t-186.5 -117t-247 -41h-138v219h138q100 0 172.5 21t119.5 66.5t70 119t23 178.5v624h219v-314q0 -51 21.5 -82t49.5 -48t54.5 -22.5t36.5 -5.5h21v-219z" />
    <glyph glyph-name="uni0633" unicode="&#x633;" horiz-adv-x="2692" arabic-form="isolated" 
d="M2226 -15q-96 0 -171 27.5t-127 78.5q-29 -30 -62 -50.5t-68.5 -33t-71.5 -17.5t-70 -5q-29 0 -56 2t-52 8t-48 18t-45 32v-73q0 -268 -144.5 -396t-429.5 -128h-195q-131 0 -240 43t-188.5 122.5t-123.5 192t-44 253.5q0 131 39.5 272.5t117.5 305.5l197 -96
q-69 -141 -109 -257t-40 -222q0 -83 28.5 -155t80.5 -125.5t124 -84.5q69 -30 153 -30h200q111 0 180.5 20.5t108 59.5t52.5 96t14 129v704h219v-195q0 -91 17 -145.5t45.5 -84t64.5 -39t74 -9.5q23 0 52.5 8t55.5 28t43.5 53t17.5 83v301h218v-311q2 -84 45 -123t136 -39
q16 1 41.5 7t50 24t42 51.5t17.5 89.5q0 22 -4 54t-10 69t-13.5 75.5t-15 73t-14.5 62t-11 42.5l208 63q2 -6 8.5 -31.5t14.5 -63t17 -83.5t16.5 -93t12.5 -91t5 -77q0 -98 -32 -171t-83.5 -121t-116.5 -72.5t-131 -25.5z" />
    <glyph glyph-name="uni0633.init" unicode="&#x633;" horiz-adv-x="1748" arabic-form="initial" 
d="M751 -13q-93 0 -165.5 25.5t-124.5 75.5q-54 -52 -122.5 -77.5t-137.5 -25.5h-221v219h221q13 0 38.5 4.5t50.5 21.5t43.5 50.5t18.5 92.5v303h219v-299q0 -90 42 -131t138 -41q13 0 38.5 5t50.5 22.5t43.5 51.5t18.5 93v299h218v-299q0 -90 43 -132t140 -42q15 0 40 6
t49 24t42 52.5t18 91.5q0 22 -4 54.5t-10 69.5t-13.5 75.5t-15 73t-14.5 61.5t-11 41l207 66q2 -6 8.5 -32t15 -64t18 -84t17.5 -93t13 -91t5 -77q0 -99 -32.5 -172t-84 -122t-117 -73t-131.5 -25q-93 0 -167 27t-127 77q-54 -52 -121.5 -77t-136.5 -25z" />
    <glyph glyph-name="uni0633.medi" unicode="&#x633;" horiz-adv-x="1897" arabic-form="medial" 
d="M-27 204h126q64 0 103.5 11t61.5 32.5t29.5 52.5t7.5 70v306h219v-301q0 -89 42.5 -129.5t135.5 -41.5q16 1 40.5 6.5t47 23t38.5 50t16 86.5v306h218v-301q0 -90 43 -130.5t138 -40.5q27 0 53 8.5t47 27.5t34.5 49.5t15.5 75.5v311h219v-311q2 -85 51 -123t149 -38h104
v-219h-104q-102 0 -179.5 25.5t-130.5 77.5q-48 -52 -116.5 -77.5t-142.5 -25.5q-94 0 -165 25.5t-125 76.5q-51 -48 -116.5 -74.5t-130.5 -27.5h-7q-91 0 -161 26.5t-121 71.5q-57 -49 -134 -73.5t-180 -24.5h-126v219z" />
    <glyph glyph-name="uni0633.fina" unicode="&#x633;" horiz-adv-x="2910" arabic-form="final" 
d="M2837 -15q-212 0 -316 107q-3 -3 -6.5 -7.5t-6.5 -6.5q-51 -43 -119 -68t-139 -25q-193 0 -297 107q-3 -3 -6.5 -7.5t-6.5 -6.5q-51 -43 -119 -68t-139 -25q-114 0 -201 45v-58q0 -268 -144.5 -396.5t-429.5 -128.5h-221q-77 0 -149.5 19t-136.5 53.5t-118 83.5t-94 109
q-47 76 -72.5 162.5t-25.5 189.5q0 131 39.5 274t117.5 307l197 -96q-69 -141 -103 -258.5t-34 -223.5q0 -74 16.5 -130t49.5 -108q50 -78 130.5 -120.5t182.5 -42.5h221q111 0 180.5 20.5t108 60t52.5 96.5t14 129v704h219v-209q0 -91 17 -143.5t45.5 -79.5t64.5 -34t74 -7
q23 0 52.5 8t55.5 28t43.5 53t17.5 83v301h218v-311q2 -84 45 -123t138 -39q23 0 52 8.5t54.5 28t43 52.5t17.5 83v301h218v-311q2 -84 49.5 -122.5t150.5 -38.5h95v-219h-95z" />
    <glyph glyph-name="uni0635" unicode="&#x635;" horiz-adv-x="2742" arabic-form="isolated" 
d="M687 -552q-78 0 -151 18t-137 52.5t-118 84t-94 112.5q-47 78 -72 164.5t-25 189.5q0 129 39 267.5t116 299.5l198 -94q-67 -140 -101 -254.5t-34 -218.5q0 -74 16 -130t50 -109q48 -78 130 -120.5t183 -42.5h219q110 0 179 21t107.5 61t52.5 97.5t14 130.5v699h218v-334
q0 -22 8 -42t20 -35.5t27 -24.5t30 -9q50 81 99.5 159t101.5 147.5t107.5 128.5t116 102t126.5 67t141 24q76 0 149 -25.5t130.5 -81t93 -142t35.5 -208.5q0 -115 -38 -194.5t-98 -129t-134.5 -71.5t-146.5 -22h-573q-21 0 -48 0.5t-54 5t-52 14.5t-41 28v-56
q0 -270 -143 -399.5t-428 -129.5h-219zM2245 204q8 0 22.5 1t32 4t36.5 9.5t36 18.5q18 12 35.5 28t31 36.5t22 45.5t8.5 55q0 60 -16.5 104.5t-46 74t-68.5 44.5t-84 15q-64 0 -127 -39t-123 -101.5t-114.5 -140t-102.5 -155.5h458z" />
    <glyph glyph-name="uni0635.init" unicode="&#x635;" horiz-adv-x="1809" arabic-form="initial" 
d="M-21 -15v219h155q66 0 104.5 12.5t59 32t27 43t6.5 45.5v339h218v-331q0 -23 9 -43t24 -36t33 -25t36 -9q41 67 86 140t94.5 142.5t105.5 132t119 110t134 75t153 27.5q76 0 149 -25.5t130 -80t92 -141t35 -209.5q0 -77 -17.5 -138t-48 -107.5t-71 -79t-87 -53.5
t-96.5 -30.5t-98 -9.5h-572q-36 0 -78 6t-83.5 17.5t-78.5 27t-62 34.5l-15 12q-54 -50 -127.5 -72.5t-173.5 -24.5h-162zM1343 641q-65 0 -128 -39t-123 -101.5t-115 -140.5t-103 -156h457q9 0 24 1t32.5 4.5t36.5 10.5t37 18v-1q18 12 34.5 28t29 36.5t20.5 46t8 55.5
q0 60 -16.5 104.5t-45 74.5t-66.5 44.5t-82 14.5z" />
    <glyph glyph-name="uni0635.medi" unicode="&#x635;" horiz-adv-x="1915" arabic-form="medial" 
d="M651 232q41 67 86 140t94.5 142.5t105.5 132t119 110t134 75t153 27.5q76 0 149 -25.5t130 -80t92 -141t35 -209.5q0 -60 -10.5 -109t-29.5 -90h217v-219h-1167q-36 0 -78 6t-83.5 17.5t-78.5 27t-62 34.5l-15 12q-54 -50 -127.5 -72.5t-173.5 -24.5h-162v219h155
q66 0 104.5 12.5t59 32t27 43t6.5 45.5v339h218v-331q0 -23 9 -43t24 -36t33 -25t36 -9zM1343 641q-65 0 -128 -39t-123 -101.5t-115 -140.5t-103 -156h457q9 0 24 1t32.5 4.5t36.5 10.5t37 18v-1q18 12 34.5 28t29 36.5t20.5 46t8 55.5q0 60 -16.5 104.5t-45 74.5
t-66.5 44.5t-82 14.5z" />
    <glyph glyph-name="uni0635.fina" unicode="&#x635;" horiz-adv-x="2837" arabic-form="final" 
d="M687 -552q-78 0 -151 18t-137 52.5t-118 84t-94 112.5q-47 78 -72 164.5t-25 189.5q0 129 39 267.5t116 299.5l198 -94q-67 -140 -101 -254.5t-34 -218.5q0 -74 16 -130t50 -109q48 -78 130 -120.5t183 -42.5h219q110 0 179 21t107.5 61t52.5 97.5t14 130.5v699h218v-334
q0 -22 8.5 -42t22 -35.5t30 -24.5t32.5 -9q50 81 99.5 159t101.5 147.5t107.5 128.5t116 102t126.5 67t141 24q76 0 149 -25.5t130.5 -81t93 -142t35.5 -208.5q0 -60 -10.5 -108.5t-29.5 -89.5h222v-219h-1172q-21 0 -49.5 0.5t-57 5t-54.5 14.5t-42 28v-56
q0 -270 -143 -399.5t-428 -129.5h-219zM2253 204q8 0 22.5 1t32 4t36.5 9.5t36 18.5q18 12 35.5 28t31 36.5t22 45.5t8.5 55q0 60 -16.5 104.5t-46 74t-68.5 44.5t-84 15q-64 0 -124.5 -39t-117.5 -101.5t-109 -140t-100 -155.5h442z" />
    <glyph glyph-name="uni0637" unicode="&#x637;" horiz-adv-x="1525" arabic-form="isolated" 
d="M87 -15v219h232l12 18t16 23.5t25 37t38 60.5v1083h218v-780q41 46 86.5 85t95 67.5t104 45t113.5 16.5q76 0 149.5 -27.5t131 -84.5t93 -145t35.5 -210q0 -116 -38.5 -194.5t-99 -126t-135.5 -67.5t-147 -20h-929zM1027 642q-63 0 -127.5 -39t-126 -102t-118 -141
t-103.5 -156h464q8 0 23 1.5t33 5t37 10t37 17.5q18 12 35 26t31 32.5t22.5 42t8.5 54.5q0 60 -17 106t-46 78t-68.5 48.5t-84.5 16.5z" />
    <glyph glyph-name="uni0637.init" unicode="&#x637;" horiz-adv-x="1374" arabic-form="initial" 
d="M-27 -15v219h204l12 18t16 23.5t25 37t38 60.5v1083h218v-780q41 46 86.5 85t95 67.5t104 45t113.5 16.5q76 0 149.5 -27.5t131 -84.5t93 -145t35.5 -210q0 -116 -38.5 -194.5t-99 -126t-135.5 -67.5t-147 -20h-901zM885 642q-63 0 -127.5 -39t-126 -102t-118 -141
t-103.5 -156h464q8 0 23 1.5t33 5t37 10t37 17.5q18 12 35 26t31 32.5t22.5 42t8.5 54.5q0 60 -17 106t-46 78t-68.5 48.5t-84.5 16.5z" />
    <glyph glyph-name="uni0637.medi" unicode="&#x637;" horiz-adv-x="1466" arabic-form="medial" 
d="M-22 -15v219h192l12 18t16 23.5t25 37t38 60.5v1083h218v-780q41 46 86.5 85t95 67.5t104 45t113.5 16.5q76 0 149.5 -27.5t131 -84.5t93 -145t35.5 -210q0 -57 -10 -104t-27 -86h244v-218h-1516zM878 642q-63 0 -127.5 -39t-126 -102t-118 -141t-103.5 -156h464
q8 0 23 1.5t33 5t37 10t37 17.5q18 12 35 26t31 32.5t22.5 42t8.5 54.5q0 60 -17 106t-46 78t-68.5 48.5t-84.5 16.5z" />
    <glyph glyph-name="uni0637.fina" unicode="&#x637;" horiz-adv-x="1587" arabic-form="final" 
d="M90 -15v219h232l91 139v1083h218v-780q41 46 86.5 85t95 67.5t104 45t113.5 16.5q76 0 149.5 -27.5t131 -84.5t93 -145t35.5 -210q0 -57 -12.5 -104t-29.5 -86h210v-218h-1517zM1030 642q-63 0 -127.5 -39t-126 -102t-118 -141t-103.5 -156h464q41 0 81.5 12.5t73 37
t52.5 59.5t20 80q0 60 -17 106t-46 78t-68.5 48.5t-84.5 16.5z" />
    <glyph glyph-name="uni0639" unicode="&#x639;" horiz-adv-x="1373" arabic-form="isolated" 
d="M1204 -553h-465q-123 0 -241 33t-211 102t-150 175.5t-57 254.5q0 125 49.5 230t141.5 183q54 46 115 77.5t129 47.5q-35 39 -56 77.5t-32 74t-14.5 66.5t-3.5 55q0 85 34 159.5t92 129.5t134 87t160 32q54 0 104 -13.5t97 -35t92 -49.5t89 -57l-99 -176q-60 34 -102 56
t-73.5 34.5t-56.5 17t-51 4.5q-36 0 -72.5 -13t-65 -37.5t-46.5 -59.5t-18 -79q0 -14 3 -31.5t12 -38t25 -42t42 -43.5q63 -49 166.5 -76t240.5 -27h127v-219h-605q-51 0 -112.5 -19.5t-114.5 -60t-88.5 -104t-35.5 -150.5q0 -84 28.5 -142.5t72.5 -96.5t97.5 -60t104 -32
t91 -12.5t58.5 -2.5h465v-219z" />
    <glyph glyph-name="uni0639.init" unicode="&#x639;" horiz-adv-x="1180" arabic-form="initial" 
d="M-21 -15v219h312q-30 36 -47.5 72t-26 69t-10.5 62t-2 52q0 85 33 158.5t89 127.5t131 85t159 31q48 0 92 -10.5t89.5 -30.5t95 -48.5t109.5 -63.5l-109 -187q-25 16 -59.5 37t-72 40t-75.5 31.5t-70 12.5q-36 0 -73 -11.5t-67.5 -35t-49.5 -57.5t-19 -79
q0 -13 3.5 -30.5t13.5 -38.5t27.5 -44t45.5 -46h-1q63 -51 166.5 -73.5t241.5 -22.5h125v-219h-1051z" />
    <glyph glyph-name="uni0639.medi" unicode="&#x639;" horiz-adv-x="1283" arabic-form="medial" 
d="M360 655q28 -26 59.5 -61t69 -75.5t82 -85t97.5 -90.5q24 19 52.5 47t59.5 61t61.5 68t57.5 69q13 16 15 32l1 8q0 11 -6 22.5t-21.5 19.5t-36.5 8h-396q-26 0 -43.5 -2t-28 -5t-16 -6.5t-7.5 -9.5zM1303 -15h-390q-18 0 -40.5 4t-52.5 17t-69.5 36t-90.5 62
q-59 -30 -136 -52t-165.5 -37t-185 -22.5t-193.5 -7.5v219q69 0 139.5 3.5t135 10.5t119 17t93.5 23q-53 46 -101 91.5t-88 85t-69.5 69.5t-45.5 46v47q0 20 2 43.5t9 49t19.5 51.5t33.5 50q41 45 101 67.5t147 22.5h350q43 0 83 -11.5t74.5 -32.5t61 -50.5t43.5 -66.5
q11 -25 17 -53t6 -53q0 -24 -9.5 -52t-37 -70.5t-78.5 -103.5t-135 -150q28 -17 43.5 -24t23.5 -10h386v-219z" />
    <glyph glyph-name="uni0639.fina" unicode="&#x639;" horiz-adv-x="1376" arabic-form="final" 
d="M1206 -759h-479q-140 0 -260 29.5t-208.5 93t-138.5 163t-50 239.5q0 99 46.5 188t140.5 175q60 54 129.5 101t142.5 91l-279 293q0 21 4 48t13.5 56t24 58t35.5 53q42 46 104 68t151 22h329q43 0 83 -11t74 -31.5t60 -49.5t43 -66q12 -26 17.5 -53t5.5 -54
q0 -56 -27.5 -107.5t-71 -98t-97.5 -87.5t-106 -75q29 -24 50.5 -39.5t36 -24.5t23 -13t12.5 -5h382v-219h-386q-32 0 -59.5 6.5t-62 26t-80 55t-112.5 93.5q-77 -46 -151 -93t-132 -96.5t-93.5 -102t-35.5 -108.5q0 -71 21.5 -121t57.5 -84t82 -54t95 -30.5t97.5 -13.5
t89.5 -3h479v-219zM464 688q16 -18 44 -48t64 -67t76.5 -78.5t82.5 -81.5q81 57 144.5 110t115.5 104q15 15 19 30q1 6 1 11q0 9 -3 17v-1q-7 15 -24 23t-38 8h-385q-51 0 -74 -3q-23 -4 -23 -22v-2z" />
    <glyph glyph-name="uni0643.init" unicode="&#x643;" horiz-adv-x="1169" arabic-form="initial" 
d="M-20 -15v219h597q18 0 47 2t56.5 9.5t48 23.5t20.5 43q0 44 -34 106t-87.5 131.5t-119.5 141t-130.5 134.5t-121 111.5t-89.5 72.5l18 209l905 399l79 -190l-767 -338q37 -36 84.5 -83t99 -100.5t103 -111.5t97 -115.5t81 -113t54.5 -104.5q16 -41 23 -78.5t7 -68.5
q0 -38 -7.5 -66.5t-15.5 -48.5q-12 -26 -36 -58t-66.5 -60t-107.5 -47t-158 -19h-580z" />
    <glyph glyph-name="uni0643.medi" unicode="&#x643;" horiz-adv-x="1244" arabic-form="medial" 
d="M1264 -15h-30q-88 0 -153 17.5t-117 49t-96 75t-90 95.5q-14 -27 -35.5 -54t-47.5 -51t-57 -44.5t-64 -35.5q-60 -26 -134 -39t-153 -13h-309v219h323q53 0 102 8.5t89 23t69.5 35t44.5 44.5q5 11 8 25.5t3 28.5q0 30 -21 75.5t-56 100.5t-80 115.5t-92.5 120t-94 114
t-84.5 97.5l39 188l900 415l90 -201l-788 -363l386 -516q57 -76 104 -134t94.5 -97.5t99.5 -59.5t120 -20h30v-219z" />
    <glyph glyph-name="uni0643" unicode="&#x643;" horiz-adv-x="2082" arabic-form="isolated" 
d="M1104 935q-55 -32 -88.5 -57.5t-52 -43.5t-25.5 -30t-9 -17q8 -2 26 -3h7q14 0 30.5 1t33.5 3q18 2 36.5 3t36.5 1q21 0 41 -3q27 -3 46 -11.5t31.5 -20t20 -24t11.5 -24.5q5 -17 5 -35q0 -30 -17 -60q-35 -57 -138 -100q-42 -17 -93 -31.5t-112 -26.5l-24 121
q57 11 105.5 24.5t84.5 29.5q26 11 41 20.5t22 15.5q-4 1 -8 1t-9 1h-7q-14 0 -30 -1t-33 -3q-19 -2 -37.5 -3t-36.5 -1q-9 0 -18.5 0.5t-17.5 1.5q-51 6 -75.5 27.5t-33.5 42.5q-9 19 -11 48v8q0 26 16 59q20 40 64 81q29 27 67 54.5t89 57.5zM464 -15q-73 0 -138 25
t-116 72q-20 19 -41.5 46t-38.5 63.5t-28 83t-11 104.5q0 51 10.5 111.5t23 115t24.5 94t15 48.5l104 -33l105 -33q-7 -21 -17.5 -58.5t-20.5 -81t-17.5 -87.5t-7.5 -76q0 -61 19.5 -96t45 -52.5t51.5 -22t40 -4.5h981q96 0 151 12.5t81 38.5q18 17 26.5 48.5t8.5 85.5v1041
h218v-1041q0 -35 -3.5 -73t-14 -76t-30.5 -75t-53 -70q-59 -56 -150 -83t-234 -27h-983z" />
    <glyph glyph-name="uni0643.fina" unicode="&#x643;" horiz-adv-x="2123" arabic-form="final" 
d="M1451 204q87 0 145 12.5t84 38.5q19 17 27 48.5t8 85.5v1037h219v-1037q0 -85 44.5 -135t119.5 -50h45v-219h-45q-78 0 -146.5 32t-121.5 83q-62 -65 -155.5 -90t-224.5 -25h-983q-73 0 -138 25t-116 72q-20 19 -41.5 46t-38.5 63.5t-28 83t-11 104.5q0 51 10.5 111.5
t23 115t24.5 94t15 48.5l104 -33l105 -33q-7 -21 -17.5 -58.5t-20.5 -81t-17.5 -87.5t-7.5 -76q0 -61 19.5 -96t45 -52.5t51.5 -22t40 -4.5h982zM1104 945q-55 -32 -88.5 -57.5t-52 -43.5t-25.5 -30t-9 -17q8 -2 26 -3h7q14 0 30.5 1t33.5 3q18 2 36.5 3t36.5 1q21 0 41 -3
q27 -3 46 -11.5t31.5 -20t20 -24t11.5 -24.5q5 -17 5 -35q0 -30 -17 -60q-35 -57 -138 -100q-42 -17 -93 -31.5t-112 -26.5l-24 121q57 11 105.5 24.5t84.5 29.5q26 11 41 20.5t22 15.5q-4 1 -8 1t-9 1h-7q-14 0 -30 -1t-33 -3q-19 -2 -37.5 -3t-36.5 -1q-9 0 -18.5 0.5
t-17.5 1.5q-51 6 -75.5 27.5t-33.5 42.5q-9 19 -11 48v8q0 26 16 59q20 40 64 81q29 27 67 54.5t89 57.5z" />
    <glyph glyph-name="uni0644" unicode="&#x644;" horiz-adv-x="1361" arabic-form="isolated" 
d="M594 -568q-68 0 -131.5 15.5t-119 45.5t-102 72.5t-81.5 96.5q-15 24 -30 55.5t-27 71.5t-19.5 89t-7.5 106q0 49 7 102t22.5 113t41 128t63.5 146l197 -94q-57 -118 -85.5 -213.5t-28.5 -182.5q0 -118 52 -204q20 -28 47.5 -51.5t59.5 -40.5t68 -26.5t74 -9.5h46
q110 0 179 23t108 65t53.5 101.5t14.5 133.5v1452h216v-1452q0 -540 -571 -542h-46z" />
    <glyph glyph-name="uni0644.init" unicode="&#x644;" horiz-adv-x="617" arabic-form="initial" 
d="M-18 204q96 0 151 12.5t81 38.5q18 17 26.5 48.5t8.5 85.5v1041h218v-1041q0 -35 -3.5 -73t-14 -76t-30.5 -75t-53 -70q-59 -56 -150 -83t-234 -27v219z" />
    <glyph glyph-name="uni0644.medi" unicode="&#x644;" horiz-adv-x="650" arabic-form="medial" 
d="M-20 204q105 0 162.5 18t83.5 45t30.5 59.5t4.5 62.5v1040h218v-1040q0 -36 10.5 -68.5t31 -57.5t51.5 -40.5t72 -18.5h26v-219h-26q-50 1 -86 9t-66.5 23.5t-59.5 37.5t-64 51q-30 -29 -68 -51.5t-85 -38t-105.5 -23.5t-129.5 -8v219z" />
    <glyph glyph-name="uni0644.fina" unicode="&#x644;" horiz-adv-x="1416" arabic-form="final" 
d="M594 -568q-68 0 -131.5 15.5t-119 45.5t-102 72.5t-81.5 96.5q-15 24 -30 55.5t-27 71.5t-19.5 89t-7.5 106q0 49 7 102t22.5 113t41 128t63.5 146l197 -94q-57 -118 -85.5 -213.5t-28.5 -182.5q0 -118 52 -204q20 -28 47.5 -51.5t59.5 -40.5t68 -26.5t74 -9.5h46
q110 0 179 23t108 65t53.5 101.5t14.5 133.5v1453h216v-1075q6 -34 22 -61.5t40 -46.5t54 -29.5t62 -10.5h48v-219h-48q-47 0 -94.5 10.5t-83.5 34.5v-56q0 -540 -571 -542h-46z" />
    <glyph glyph-name="uni0645" unicode="&#x645;" horiz-adv-x="1352" arabic-form="isolated" 
d="M940 197q10 0 31 2.5t42.5 22.5t37.5 65.5t16 131.5q0 10 -3 32t-10.5 48.5t-21.5 55t-36 51.5t-53.5 38t-74.5 15q-35 0 -65.5 -10.5t-57 -47.5t-48.5 -107t-41 -188q41 -22 81.5 -42t77.5 -35t69 -23.5t56 -8.5zM864 878q97 0 171.5 -37.5t125 -101t76.5 -146.5
t26 -174q0 -100 -17.5 -171.5t-45 -120.5t-63 -78.5t-71 -45t-69 -20t-57.5 -4.5q-56 0 -133 29t-165 71.5t-181 92t-181 91.5l2 -923h-211l-1 1024l219 133l174 -86q11 58 26 115.5t37 109.5t52 97t70.5 78t94.5 51q50 16 113 16h8z" />
    <glyph glyph-name="uni0645.init" unicode="&#x645;" horiz-adv-x="1153" arabic-form="initial" 
d="M738 156q10 0 30.5 2.5t41.5 22t37 64t16 129.5q0 10 -3 32.5t-11 49t-22 55t-36 52t-54 38.5t-75 15q-40 0 -69 -16.5t-51 -44t-37.5 -63t-28 -73.5t-23 -76t-21.5 -70q39 -22 81 -43t82.5 -37.5t77 -26.5t65.5 -10zM662 834q102 0 177 -37.5t125 -101t74.5 -147
t24.5 -174.5q0 -101 -17.5 -172.5t-45.5 -120t-63.5 -77t-71.5 -43.5t-69.5 -19.5t-57.5 -4.5q-49 0 -94 9.5t-91.5 28t-97.5 44.5t-112 59q-43 -48 -95 -70.5t-111 -22.5h-154l-2 219h148q26 0 45 16.5t34 44.5t27.5 66t24.5 82q13 47 29 96t38 96t52 88.5t70 73t92.5 49.5
t120.5 18z" />
    <glyph glyph-name="uni0645.medi" unicode="&#x645;" horiz-adv-x="1179" arabic-form="medial" 
d="M1171 -15q-78 0 -142.5 27t-115.5 63q-57 -79 -119 -108.5t-126 -29.5q-49 0 -94 9.5t-91.5 28t-97.5 44.5t-112 59q-43 -48 -95 -70.5t-108 -22.5h-91v219h83q26 0 45 17t34 45.5t27.5 67t24.5 82.5q13 47 29 96t37.5 95.5t51 87.5t69.5 72t92 49t120 18q102 0 177 -37
t125 -100t74.5 -146t24.5 -174q0 -61 23.5 -95.5t54 -52t60 -21.5t40.5 -4h29v-219h-29zM668 156q7 0 18.5 0.5t25.5 6.5t28.5 19t26.5 37.5t19.5 62.5t7.5 95q0 10 -3 32t-11 48.5t-22 54.5t-36.5 51t-54.5 38t-75 15q-40 0 -70 -16t-52 -43.5t-37.5 -62.5t-28 -73
t-22.5 -76t-21 -70q39 -21 81.5 -42.5t83 -39t77.5 -27.5q34 -10 60 -10h5z" />
    <glyph glyph-name="uni0645.fina" unicode="&#x645;" horiz-adv-x="1508" arabic-form="final" 
d="M1486 -15q-97 0 -160.5 22.5t-102.5 78.5q-28 -35 -60 -56t-63.5 -32.5t-60 -15t-49.5 -3.5q-56 0 -133 29t-165 71.5t-181 92t-181 91.5l2 -923h-211l-1 1024l219 133l174 -86q11 58 26 115.5t37 109.5t52 97t70.5 78t94.5 51q50 16 113 16h8q97 0 171.5 -37.5t125 -101
t76.5 -146.5t26 -174q0 -17 -0.5 -33t-1.5 -31q1 -47 23 -76.5t50.5 -46t57.5 -22.5t44 -6h42v-219h-42zM990 197q10 0 31 2.5t42.5 22.5t37.5 65.5t16 131.5q0 10 -3 32t-10.5 48.5t-21.5 55t-36 51.5t-53.5 38t-74.5 15q-35 0 -65.5 -10.5t-57 -47.5t-48.5 -107t-41 -188
q41 -22 81.5 -42t77.5 -35t69 -23.5t56 -8.5z" />
    <glyph glyph-name="uni0647" unicode="&#x647;" horiz-adv-x="1007" arabic-form="isolated" 
d="M503 -15q-93 0 -170.5 28.5t-134 79t-87.5 119.5t-31 151q0 83 21.5 152t58.5 130t85.5 117t101.5 112l-63 70l162 147q23 -26 51.5 -56.5t52.5 -56.5q71 -76 139 -150.5t121 -149t85 -149.5q31 -74 31 -147v-5q-1 -85 -33.5 -157.5t-95.5 -129.5q-58 -50 -132 -77.5
t-162 -27.5zM491 738q-41 -46 -76 -89t-61 -88t-40.5 -93.5t-14.5 -104.5q0 -41 17 -71t45.5 -49.5t65.5 -29t76 -9.5q96 0 150 47.5t54 125.5q0 47 -18 93t-48 91t-69 89.5t-81 87.5z" />
    <glyph glyph-name="uni0647.init" unicode="&#x647;" horiz-adv-x="1482" arabic-form="initial" 
d="M933 1080q82 -109 157 -207q31 -42 64 -85t63.5 -82.5t56.5 -73t43 -55.5q32 -41 51.5 -90.5t27.5 -100.5q4 -33 4 -65q0 -19 -2.5 -53.5t-16.5 -77.5q-19 -58 -56 -106t-90.5 -83t-122.5 -54t-151 -19q-70 0 -145.5 14.5t-153.5 53.5q-20 8 -38 17q-16 7 -32.5 15
t-27.5 14q-189 -57 -472 -57h-112v219h112q57 0 106.5 1t98.5 6q-60 61 -94 134.5t-34 165.5q0 79 30.5 145t83.5 113t125 73.5t155 26.5q62 0 115 -17t96.5 -46t76.5 -67t55.5 -79.5t34 -84t11.5 -80.5q0 -100 -39 -180.5t-108 -143.5q36 -13 77 -22t79 -9q33 0 69 5.5
t68 20t57.5 39.5t38.5 64q5 16 5 34q0 35 -24.5 91t-86 142.5t-146.5 190.5t-181 223zM375 511q0 -80 50 -140t150 -113q34 16 65 40t55 54.5t38.5 66t14.5 73.5q0 46 -19.5 80.5t-48 57.5t-60.5 34t-57 11q-37 0 -71 -13.5t-60 -36t-41.5 -52t-15.5 -62.5z" />
    <glyph glyph-name="uni0647.medi" unicode="&#x647;" horiz-adv-x="1280" arabic-form="medial" 
d="M625 854q90 0 161 -24.5t120.5 -72t75.5 -116.5t26 -158q0 -53 -16.5 -111.5t-61.5 -115t-125.5 -107.5t-207.5 -89h1q-41 -14 -89.5 -23.5t-90.5 -16.5q13 -56 48 -112t82 -106t102.5 -91t109.5 -66q-8 16 -16 38t-14.5 46.5t-10.5 48.5t-4 43q0 33 5 65.5t16 60.5
q22 58 59.5 105.5t86.5 81.5t106.5 52t120.5 18h191v-219h-199q-58 0 -102.5 -30.5t-64.5 -83.5q-12 -33 -12 -66q0 -50 19.5 -105t70.5 -100l-68 -166q-149 0 -273.5 47.5t-219 125.5t-155.5 178.5t-82 207.5q-60 -5 -120 -6.5t-114 -1.5v219q42 0 101 1.5t125 6.5
q6 121 20.5 212.5t41.5 164.5q31 84 74 136t91 80.5t98 38.5t94 10zM625 636q-33 0 -67.5 -12t-63.5 -52.5t-51 -119t-29 -211.5q29 5 63.5 11.5t58.5 14.5q92 29 147.5 61.5t85 62.5t39 54.5t9.5 38.5q0 42 -16 71t-42.5 47t-61.5 26t-72 8z" />
    <glyph glyph-name="uni0647.fina" unicode="&#x647;" horiz-adv-x="1258" arabic-form="final" 
d="M1278 -15h-44q-78 0 -150.5 16.5t-133.5 49t-108.5 81t-74.5 112.5q-24 -45 -63.5 -77.5t-92.5 -54.5q-67 -28 -133 -33q-20 -2 -40 -2q-45 0 -97 12t-104.5 45t-91.5 82t-61 112.5t-22 139.5q0 106 41.5 191t110 150t157.5 111.5t184 76.5q-5 26 -10 48.5t-9 46.5
l210 50l178 -719q18 -72 55.5 -115t82 -66.5t90.5 -30.5t82 -7h44v-219zM661 471q4 22 4 45q0 16 -3.5 43.5t-12.5 68t-20 80.5t-19 78q-170 -53 -261 -135t-91 -184q0 -53 25.5 -89t64.5 -55.5t87 -21.5h10q42 0 81 14q57 24 90.5 59.5t44.5 96.5z" />
    <glyph glyph-name="uni0648" unicode="&#x648;" horiz-adv-x="1054" arabic-form="isolated" 
d="M206 -333q155 0 254 22t156 69q23 19 40.5 40.5t29 49t18 61t7.5 76.5h-169q-73 0 -147.5 20.5t-135 68.5t-99 127t-38.5 195q0 68 11.5 122t29.5 96.5t40 73.5t43 54q57 57 130.5 88.5t158.5 31.5q74 0 138.5 -23t115.5 -69q69 -65 104.5 -164t35.5 -237v-369
q0 -72 -11 -132.5t-32.5 -111t-54.5 -92t-78 -77.5q-45 -35 -99 -61.5t-121 -43.5t-147.5 -25.5t-179.5 -8.5v219zM535 643q-92 0 -143 -63.5t-51 -183.5q0 -60 18 -97t53 -60q17 -11 36.5 -17.5t37.5 -10.5t32.5 -5.5t23.5 -1.5h169v165q0 70 -10 117.5t-26 77.5
t-35.5 46.5t-39 23.5t-37 8t-28.5 1z" />
    <glyph glyph-name="uni0648.fina" unicode="&#x648;" horiz-adv-x="1093" arabic-form="final" 
d="M207 -333q155 0 254 22t156 69q23 19 40.5 40.5t29 49t18 61t7.5 76.5h-169q-73 0 -147.5 20.5t-135 68.5t-99 127t-38.5 195q0 68 11.5 122t29.5 96.5t40 73.5t43 54q57 57 130.5 88.5t158.5 31.5q74 0 138.5 -23t115.5 -69q69 -65 104.5 -164t35.5 -237v-165h183v-219
h-183q-2 -138 -45.5 -233t-130.5 -165q-45 -35 -99 -61.5t-121 -43.5t-147.5 -25.5t-179.5 -8.5v219zM536 643q-92 0 -143 -63.5t-51 -183.5q0 -60 18 -97t53 -60q17 -11 36.5 -17.5t37.5 -10.5t32.5 -5.5t23.5 -1.5h169v165q0 70 -10 117.5t-26 77.5t-35.5 46.5t-39 23.5
t-37 8t-28.5 1z" />
    <glyph glyph-name="uni0649" unicode="&#x649;" horiz-adv-x="1626" arabic-form="isolated" 
d="M901 -346q96 0 166 16t115 51t66.5 91t21.5 136q-91 24 -180 49q-38 10 -79.5 21t-83 22.5t-81 21.5t-73.5 19q-39 97 -45 193q-2 23 -2 46q0 71 19.5 148t68.5 152t122 130t169 86.5t212 31.5q48 0 96 -7t103 -21l-55 -211q-42 12 -77.5 17.5t-71.5 5.5
q-82 0 -152.5 -26.5t-121 -76t-75.5 -119.5q-20 -54 -20 -117q0 -20 2 -40q42 -11 81.5 -21.5t82 -21.5t90.5 -23t107 -26q91 -23 131 -76t40 -133q0 -135 -31 -236t-100 -168t-178.5 -101t-266.5 -34h-211q-80 0 -153.5 18.5t-137.5 53t-117.5 84t-94.5 111.5
q-97 157 -97 367q0 130 39 272t119 308l194 -94q-67 -142 -100 -259.5t-33 -221.5q0 -149 66 -254q48 -80 131 -122t184 -42h211z" />
    <glyph glyph-name="uni0649.fina" unicode="&#x649;" horiz-adv-x="1786" arabic-form="final" 
d="M1497 -15q36 -38 53.5 -79.5t17.5 -79.5q0 -90 -49.5 -162.5t-134.5 -123.5t-198 -79t-240 -28h-256q-80 0 -153.5 18.5t-137.5 53t-117.5 84t-94.5 111.5q-97 157 -97 367q0 130 35.5 269t115.5 305l194 -94q-33 -71 -57 -134.5t-39.5 -122t-22.5 -112.5t-7 -106
q0 -149 66 -254q48 -80 131 -122t184 -42h256q80 0 151 16t124.5 43t85.5 63.5t35 78.5q-29 33 -77 56.5t-107.5 38.5t-127.5 23.5t-138 11.5l7 219h907v-219h-309z" />
    <glyph glyph-name="uni066E.init" unicode="&#x66e;" horiz-adv-x="679" 
d="M546 818q2 -6 8 -32.5t14.5 -65.5t17 -86t16 -94.5t12.5 -92t5 -77.5q0 -99 -33 -172t-85.5 -120t-118.5 -70t-132 -23h-270v219h277q13 0 38.5 4t50.5 20.5t43.5 49.5t18.5 92q0 22 -4 55t-10 71t-14 78t-15.5 75t-14.5 63t-11 43z" />
    <glyph glyph-name="uni066E.medi" unicode="&#x66e;" horiz-adv-x="796" 
d="M816 204v-219h-73q-88 0 -158 24.5t-115 72.5q-54 -47 -131.5 -72t-175.5 -25h-183v219h183q66 0 105.5 13t59.5 32.5t26 43t6 45.5v339h218v-332q0 -34 10.5 -57.5t26.5 -39t35 -24.5t37.5 -13.5t33.5 -5.5t22 -1h73z" />
    <glyph glyph-name="uni066E.fina" unicode="&#x66e;" horiz-adv-x="2161" 
d="M2182 204v-219h-74q-36 0 -74 6t-74.5 18t-69.5 30.5t-60 45.5q-109 -99 -307 -100h-1070q-73 0 -138 25t-116 72q-20 19 -41.5 46t-38.5 63.5t-28 83t-11 104.5q0 51 10.5 111.5t23 115t24.5 94t15 48.5l104 -33l105 -33q-7 -21 -17.5 -58.5t-20.5 -81t-17.5 -87.5
t-7.5 -76q0 -61 19.5 -96t45 -52.5t51.5 -22t40 -4.5h1061q76 0 117.5 16t60.5 38.5t22 46.5t3 40v332h219v-327q0 -51 21 -80t49 -43.5t56.5 -18.5t43.5 -4h74z" />
    <glyph glyph-name="uni066F.init" unicode="&#x66f;" horiz-adv-x="998" 
d="M-22 -15v219h399q99 0 161 12.5t98 32t51 43t20 46.5h-127q-94 0 -175.5 17.5t-142 59t-95 110t-34.5 170.5q0 81 30 154t83 128t126 86q65 27 140 27h19q78 -3 137.5 -28.5t103 -67t73 -96.5t47.5 -117.5t26 -130.5t9 -135v-138q0 -75 -21.5 -133t-59 -102t-89.5 -73.5
t-113.5 -48.5t-129 -27t-137.5 -8h-399zM531 871q-12 1 -24 1q-27 0 -56.5 -7.5t-56 -29.5t-42 -56.5t-15.5 -81.5q0 -48 22.5 -77.5t57.5 -45.5t78.5 -21.5t84.5 -5.5h131q-2 45 -5.5 98.5t-20 101.5t-52.5 83t-102 41z" />
    <glyph glyph-name="uni066F.medi" unicode="&#x66f;" horiz-adv-x="1102" 
d="M564 864q90 0 160.5 -32.5t119.5 -86t75 -122t26 -140.5q0 -89 -24 -152.5t-71 -122.5q16 -1 40.5 -2t51.5 -1.5t52.5 -0.5h43.5h84v-219h-84q-64 0 -131 4.5t-130.5 12t-120.5 18t-101 22.5q-90 -25 -203 -41t-259 -16h-113v219h113h47.5t39.5 0.5t37.5 1t39.5 2.5
q-25 30 -44 60t-31.5 63t-19 70.5t-6.5 81.5q0 76 32 145.5t87.5 121.5t129.5 83t159 31zM362 482v-12q0 -39 13 -72.5t39 -61.5t62.5 -48.5t80.5 -36.5q41 16 76 36t60.5 47.5t40 64t14.5 84.5q0 27 -16 55.5t-42 52.5t-59 39t-67 15q-39 0 -75.5 -13.5t-64.5 -36.5
t-45 -52.5t-17 -60.5z" />
    <glyph glyph-name="uni066F.fina" unicode="&#x66f;" horiz-adv-x="1645" 
d="M687 -552q-78 0 -151 18t-137 52.5t-117.5 84t-92.5 112.5q-48 77 -73.5 162t-25.5 188q0 128 36 266t116 300l196 -93q-68 -140 -99 -254.5t-31 -219.5q0 -73 16.5 -127.5t49.5 -106.5q48 -78 130 -120.5t183 -42.5h75q148 0 244 23t153 70q23 19 40.5 40.5t29 48t18 60
t7.5 76.5h-158q-73 0 -147.5 20t-135 67.5t-99 126t-38.5 194.5q0 90 26.5 174t78.5 149.5t129.5 105t178.5 39.5q102 0 174.5 -41.5t119 -110.5t68 -158t21.5 -185v-162h198v-219h-198q-1 -69 -12.5 -126.5t-33 -105.5t-54.5 -88.5t-76 -75.5q-44 -35 -97 -61t-117 -43.5
t-140.5 -26.5t-169.5 -10h-85zM1089 654q-46 0 -82.5 -18.5t-62 -52.5t-39 -82t-13.5 -108t19.5 -95.5t54.5 -58.5q17 -11 36.5 -17.5t37.5 -10.5t32.5 -5.5t23.5 -1.5h158v162q0 70 -9 118.5t-23.5 80.5t-32.5 50t-36.5 26.5t-35.5 10.5t-28 2z" />
    <glyph glyph-name="uni06C1.init" unicode="&#x6c1;" horiz-adv-x="736" arabic-form="initial" 
d="M486 -612q-1 -29 -14.5 -53t-35.5 -42t-49 -28t-55 -10q-43 0 -75.5 16.5t-54 45t-32.5 65t-11 77.5q0 107 65 205t178 175l53 -80q-28 -18 -56.5 -43t-52 -52.5t-39 -55t-16.5 -49.5v-5q0 -20 13.5 -34.5t49.5 -16.5q29 -4 52 -11.5t40 -20.5t27 -33t13 -50zM551 818
q2 -6 8 -32.5t14.5 -65.5t17 -86t16 -94.5t12.5 -92t5 -77.5q0 -99 -33 -172t-85.5 -120t-118.5 -70t-132 -23h-270v219h277q13 0 38.5 4t50.5 20.5t43.5 49.5t18.5 92q0 22 -4 55t-10 71t-14 78t-15.5 75t-14.5 63t-11 43z" />
    <glyph glyph-name="uni06C1.medi" unicode="&#x6c1;" horiz-adv-x="1200" arabic-form="medial" 
d="M427 22q3 -55 22 -122t50 -133t72 -124t89 -94q-15 69 -15 144v9q0 71 14 141t44 135.5t75.5 115t106.5 79.5t138 31h199v-219h-196q-41 -17 -74.5 -49t-57.5 -74t-37.5 -91.5t-13.5 -101.5v-51.5t3.5 -48t12.5 -47.5t27 -50l-86 -165q-92 1 -169 29t-139.5 76
t-111 112.5t-83.5 139.5t-56.5 157t-30.5 164h-232v219h441z" />
    <glyph glyph-name="uni06BE" unicode="&#x6be;" horiz-adv-x="1579" arabic-form="isolated" 
d="M1009 1073q114 -119 210 -222q41 -44 82 -89t76.5 -85.5t62.5 -73.5t40 -52q37 -60 56 -114.5t19 -114.5q0 -27 -7 -64t-15 -68q-18 -58 -55 -107.5t-88 -85.5t-114.5 -56t-135.5 -20q-70 0 -145.5 18t-153.5 57q-20 8 -38 17q-16 7 -32.5 15t-27.5 14
q-63 -19 -157.5 -38t-209.5 -19q-63 0 -134.5 8t-149.5 26l40 211q81 -14 137.5 -20t98.5 -6q33 0 59.5 2t49.5 5q-60 61 -90 134.5t-30 165.5q0 79 29 146.5t80.5 116.5t122 76.5t153.5 27.5q62 0 114.5 -17.5t95 -47.5t74.5 -69t53.5 -81t32.5 -85t11 -81
q0 -100 -35 -181.5t-104 -144.5q36 -13 77 -21t79 -8q28 0 55 5t50.5 17.5t43.5 33t35 50.5q12 25 12 53q0 51 -34 113t-89.5 129.5t-125.5 139.5t-143 144h1l-94 93zM563 511q0 -40 10 -73t32 -62.5t56.5 -56t84.5 -52.5q34 16 63.5 39.5t51.5 53t35 64.5t13 73
q0 46 -18.5 77.5t-45 51t-55 28t-48.5 8.5q-37 0 -69.5 -11t-57 -31.5t-38.5 -48t-14 -60.5z" />
    <glyph glyph-name="uni06D2" unicode="&#x6d2;" horiz-adv-x="1681" arabic-form="isolated" 
d="M1664 -349v-218h-1160q-87 0 -162 28t-130 79.5t-86 124.5t-31 163q0 79 34 148t90.5 119.5t130.5 79.5t154 29h418v-219h-410q-40 0 -79.5 -12.5t-70.5 -35t-50 -53.5t-19 -68t19 -67.5t49 -52t67.5 -33.5t75.5 -12h1160z" />
    <glyph glyph-name="uni06D2.fina" unicode="&#x6d2;" horiz-adv-x="1339" arabic-form="final" 
d="M1313 -349v-218h-814q-87 0 -162 28t-130 79.5t-86 124.5t-31 163q0 79 34 148t90.5 119.5t130.5 79.5t154 29h855v-219h-847q-40 0 -78 -12.5t-67 -35t-47 -53.5t-18 -68t17.5 -67.5t46 -52t64.5 -33.5t74 -12h814z" />
    <glyph glyph-name="uni06A9" unicode="&#x6a9;" horiz-adv-x="2012" arabic-form="isolated" 
d="M1400 204q34 0 64.5 3.5t55 9.5t40.5 15.5t21 21.5q7 13 7 37q0 51 -40 127.5t-124 169.5q-94 105 -180 179.5t-152 122.5t-105.5 70.5t-40.5 22.5l5 196l973 423l88 -200l-781 -338q72 -53 163 -136t192 -196q31 -36 58.5 -76t50 -80t40 -77.5t29.5 -67.5
q16 -42 22.5 -78.5t6.5 -68.5q0 -36 -8 -65.5t-16 -49.5q-11 -26 -35.5 -58t-67.5 -60t-108 -47t-158 -19h-954q-73 0 -138 25t-116 72q-20 19 -41.5 46t-38.5 63.5t-28 83t-11 104.5q0 51 10.5 111.5t23 115t24.5 94t15 48.5l104 -33l105 -33q-7 -21 -17.5 -58.5t-20.5 -81
t-17.5 -87.5t-7.5 -76q0 -61 19.5 -96t45 -52.5t51.5 -22t40 -4.5h952z" />
    <glyph glyph-name="uni06A9.fina" unicode="&#x6a9;" horiz-adv-x="2183" arabic-form="final" 
d="M1230 204q53 0 101 8.5t87 23t67 35t43 44.5q5 11 8 25t3 28q0 40 -24.5 94.5t-63.5 110.5q-78 103 -139.5 186t-106.5 142q-52 69 -93 122l41 153l931 427l90 -200l-803 -368q31 -44 60 -85.5t65.5 -91.5t85.5 -115.5t120 -157.5q56 -76 99 -134t79.5 -100.5t69.5 -70.5
t67.5 -45t74.5 -24t91 -7h24v-219h-24q-88 0 -155.5 16t-122 46t-100.5 72.5t-91 94.5q-29 -54 -83 -101t-121 -76q-60 -26 -134 -39t-153 -13h-784q-73 0 -138 25t-116 72q-20 19 -41.5 46t-38.5 63.5t-28 83t-11 104.5q0 51 10.5 111.5t23 115t24.5 94t15 48.5l104 -33
l105 -33q-7 -21 -17.5 -58.5t-20.5 -81t-17.5 -87.5t-7.5 -76q0 -61 19.5 -96t45 -52.5t51.5 -22t40 -4.5h789z" />
    <glyph glyph-name="uni06AF" unicode="&#x6af;" horiz-adv-x="2012" arabic-form="isolated" 
d="M1398 204q34 0 64.5 3.5t55 9.5t40.5 15.5t21 21.5q7 13 7 37q0 51 -40 127.5t-124 169.5q-94 105 -180 179.5t-152 122.5t-105.5 70.5t-40.5 22.5l5 196l973 423l88 -200l-781 -338q72 -53 163 -136t192 -196q31 -36 58.5 -76t50 -80t40 -77.5t29.5 -67.5
q16 -42 22.5 -78.5t6.5 -68.5q0 -36 -8 -65.5t-16 -49.5q-11 -26 -35.5 -58t-67.5 -60t-108 -47t-158 -19h-954q-73 0 -138 25t-116 72q-20 19 -41.5 46t-38.5 63.5t-28 83t-11 104.5q0 51 10.5 111.5t23 115t24.5 94t15 48.5l104 -33l105 -33q-7 -21 -17.5 -58.5t-20.5 -81
t-17.5 -87.5t-7.5 -76q0 -61 19.5 -96t45 -52.5t51.5 -22t40 -4.5h952zM1036.23 1493.72l782.89 333.462l47.8896 -102.289l-843.271 -361.079z" />
    <glyph glyph-name="uni06AF.init" unicode="&#x6af;" horiz-adv-x="1169" arabic-form="initial" 
d="M-29 -15v219h597q18 0 47 2t56.5 9.5t48 23.5t20.5 43q0 44 -34 106t-87.5 131.5t-119.5 141t-130.5 134.5t-121 111.5t-89.5 72.5l18 209l905 399l79 -190l-767 -338q37 -36 84.5 -83t99 -100.5t103 -111.5t97 -115.5t81 -113t54.5 -104.5q16 -41 23 -78.5t7 -68.5
q0 -38 -7.5 -66.5t-15.5 -48.5q-12 -26 -36 -58t-66.5 -60t-107.5 -47t-158 -19h-580zM209 1494l752 326l46 -100l-810 -353z" />
    <glyph glyph-name="uni06AF.medi" unicode="&#x6af;" horiz-adv-x="1244" arabic-form="medial" 
d="M1262 -15h-30q-88 0 -153 17.5t-117 49t-96 75t-90 95.5q-14 -27 -35.5 -54t-47.5 -51t-57 -44.5t-64 -35.5q-60 -26 -134 -39t-153 -13h-309v219h323q53 0 102 8.5t89 23t69.5 35t44.5 44.5q5 11 8 25.5t3 28.5q0 30 -21 75.5t-56 100.5t-80 115.5t-92.5 120t-94 114
t-84.5 97.5l39 188l900 415l90 -201l-788 -363l386 -516q57 -76 104 -134t94.5 -97.5t99.5 -59.5t120 -20h30v-219zM258 1484l752 326l46 -100l-810 -353z" />
    <glyph glyph-name="uni06AF.fina" unicode="&#x6af;" horiz-adv-x="2183" arabic-form="final" 
d="M1228 204q53 0 101 8.5t87 23t67 35t43 44.5q5 11 8 25t3 28q0 40 -24.5 94.5t-63.5 110.5q-78 103 -139.5 186t-106.5 142q-52 69 -93 122l41 153l931 427l90 -200l-803 -368q31 -44 60 -85.5t65.5 -91.5t85.5 -115.5t120 -157.5q56 -76 99 -134t79.5 -100.5t69.5 -70.5
t67.5 -45t74.5 -24t91 -7h24v-219h-24q-88 0 -155.5 16t-122 46t-100.5 72.5t-91 94.5q-29 -54 -83 -101t-121 -76q-60 -26 -134 -39t-153 -13h-784q-73 0 -138 25t-116 72q-20 19 -41.5 46t-38.5 63.5t-28 83t-11 104.5q0 51 10.5 111.5t23 115t24.5 94t15 48.5l104 -33
l105 -33q-7 -21 -17.5 -58.5t-20.5 -81t-17.5 -87.5t-7.5 -76q0 -61 19.5 -96t45 -52.5t51.5 -22t40 -4.5h789zM1230 1485l752 326l46 -100l-810 -353z" />
    <glyph glyph-name="uni06BA" unicode="&#x6ba;" horiz-adv-x="1561" arabic-form="isolated" 
d="M684 -553q-78 0 -150.5 18t-136 52.5t-117.5 84t-94 112.5q-47 77 -72.5 170t-25.5 195q0 65 9 129t27 131.5t46.5 139.5t67.5 153l197 -94q-34 -70 -58.5 -130.5t-40.5 -116t-23.5 -107.5t-7.5 -104q0 -148 66 -251q50 -78 130.5 -120.5t182.5 -42.5h203q111 0 180.5 23
t108 65.5t52.5 102t14 132.5v690h219v-690q0 -270 -144.5 -406t-429.5 -136h-203z" />
    <glyph glyph-name="uni06BA.fina" unicode="&#x6ba;" horiz-adv-x="1680" arabic-form="final" 
d="M686 -553q-78 0 -150.5 18t-136 52.5t-117.5 84t-94 112.5q-47 77 -72.5 162t-25.5 187q0 131 39.5 271t117.5 303l197 -94q-69 -141 -103 -257t-34 -222q0 -73 16.5 -128t49.5 -107q50 -78 130.5 -120.5t182.5 -42.5h207q111 0 180.5 20.5t108 60t52.5 96.5t14 130v703
h219v-326q2 -73 46.5 -109.5t117.5 -36.5h69v-219h-69q-42 0 -85 4.5t-79 30.5v-47q0 -270 -144.5 -398t-429.5 -128h-207z" />
    <glyph glyph-name="uni062F.fina" unicode="&#x62f;" horiz-adv-x="1238" arabic-form="final" 
d="M1259 204v-219h-25q-147 0 -274 118q-32 -38 -80 -65q-73 -41 -182 -56q-37 -6 -76.5 -8.5t-80.5 -2.5q-61 0 -119 6q-29 3 -62.5 8t-69.5 14t-71.5 22.5t-67.5 31.5l-95 54l109 190l95 -54q24 -14 56 -24t69 -16.5t77 -9.5t80 -3q72 0 129.5 6.5t90.5 24.5t37 51v7
q0 32 -30 80q-80 123 -143 219t-106 159.5t-63 93.5q-16 23 -16 24l1 -1l-60 92l183 120l61 -92l24 -36q23 -36 64 -98.5t97.5 -147.5t122.5 -184q29 -43 65 -96t75.5 -99t80.5 -77.5t79 -31.5h25z" />
    <glyph glyph-name="uni06C1.fina" unicode="&#x6c1;" horiz-adv-x="1299" arabic-form="final" 
d="M1317 -15h-73q-75 0 -155.5 20t-152 65t-127.5 117.5t-81 176.5q-18 73 -33.5 131.5t-31 115t-32 116.5t-34.5 137l-104 -22q-100 -26 -134 -86q-16 -28 -23 -63t-7 -77q0 -33 8.5 -83.5t24 -114.5t36 -138.5t44.5 -156.5l-211 -59q-25 89 -47 169t-38 149t-25.5 128
t-9.5 106q0 68 13.5 131t45.5 117q42 72 109.5 120t161.5 70q20 5 56.5 13t73 15.5t64.5 12.5t31 5l120 -78q22 -96 42 -174.5t38.5 -148.5t36.5 -137.5t37 -141.5q19 -68 56 -110t81 -65.5t88.5 -32t78.5 -8.5h73v-219z" />
    <glyph glyph-name="uni0686" unicode="&#x686;" horiz-adv-x="1475" arabic-form="isolated" 
d="M1367 583l-644 -236q-132 -49 -215 -91t-129.5 -83.5t-63 -85.5t-16.5 -97q0 -26 2.5 -55t7.5 -62q15 -114 51.5 -192.5t94.5 -127t136.5 -70.5t176.5 -22h500v-219h-500q-147 0 -263 33.5t-200.5 106t-138 187t-74.5 275.5q-9 70 -9 133q0 119 41.5 207.5t116.5 156
t179 118t228 92.5l449 136q-87 34 -178.5 65t-171 55.5t-139.5 41t-84 21.5q-15 0 -30 -1t-30.5 -14t-30.5 -43.5t-30 -88.5l-213 56q42 163 124.5 236t213.5 73q7 0 17 -0.5t29.5 -5t51.5 -14t82 -27t122 -44t171 -65.5l365 -154zM585.602 22.7256l151.846 152.012
l151.846 -153.912l-151.846 -152.012zM981.35 20.8252l153.744 152.012l151.846 -153.912l-151.846 -152.012zM792.492 -245.195l140.457 140.611l142.355 -142.512l-140.458 -140.61z" />
    <glyph glyph-name="uni0686.fina" unicode="&#x686;" horiz-adv-x="1565" arabic-form="final" 
d="M1184 477q0 -85 10 -138q10 -54 29.5 -84t47.5 -40.5t64 -10.5h249v-219h-249q-73 0 -138 20.5t-114.5 69.5t-78.5 131q-28 80 -29 198l-281 -99q-132 -49 -215 -91t-129.5 -83.5t-63 -85.5t-16.5 -97q0 -26 2.5 -55t7.5 -62q15 -114 51.5 -192.5t94.5 -127t136.5 -70.5
t176.5 -22h500v-219h-500q-147 0 -263 33.5t-200.5 106t-138 187t-74.5 275.5q-9 70 -9 133q0 119 41.5 207.5t116.5 156t179 118t228 92.5l441 137q-87 34 -177 65t-168.5 55.5t-137 40.5t-82.5 21q-15 0 -31 -0.5t-31.5 -13.5t-31.5 -43t-31 -88l-213 56q42 163 126.5 235
t215.5 72q7 0 17 -0.5t29.5 -5t51.5 -14t82 -27t122 -44t171 -65.5l366 -154l8 -202zM446.914 -101.626l147.764 147.881l147.764 -149.729l-147.764 -147.881zM832.023 -103.474l149.61 147.881l147.764 -149.729l-147.764 -147.881zM648.242 -362.266l136.682 136.79
l138.528 -138.639l-136.682 -136.79z" />
    <glyph glyph-name="uni0623" unicode="&#x623;" horiz-adv-x="599" arabic-form="isolated" 
d="M414 -15h-219v1292h219v-1292zM53 1367v133l118 35q-34 31 -55.5 71t-21.5 86q0 33 11.5 65.5t31.5 59.5t48 46.5t60 28.5h-1q17 5 33.5 7.5t33.5 2.5q38 0 69 -10.5t60 -21.5l-27 -110q-26 6 -51 12.5t-49 6.5q-15 0 -30 -5q-15 -6 -29.5 -15.5t-24.5 -22.5t-13 -29
q-2 -6 -2 -13q0 -11 4 -22q9 -28 40.5 -47.5t86.5 -19.5q10 0 22.5 1t32 5.5t48.5 12t72 21.5l8 -126z" />
    <glyph glyph-name="uni0623.fina" unicode="&#x623;" horiz-adv-x="676" arabic-form="final" 
d="M693 -15q-150 0 -247.5 31.5t-157.5 100.5q-32 36 -51 78.5t-29 87.5t-13 91.5t-3 90.5v812h219v-812q0 -85 9.5 -133t32.5 -74q25 -28 83.5 -41t156.5 -13v-219zM71 1373v133l118 35q-34 31 -55.5 71t-21.5 86q0 33 11.5 65.5t31.5 59.5t48 46.5t60 28.5h-1
q17 5 33.5 7.5t33.5 2.5q38 0 69 -10.5t60 -21.5l-27 -110q-26 6 -51 12.5t-49 6.5q-15 0 -30 -5q-15 -6 -29.5 -15.5t-24.5 -22.5t-13 -29q-2 -6 -2 -13q0 -11 4 -22q9 -28 40.5 -47.5t86.5 -19.5q10 0 22.5 1t32 5.5t48.5 12t72 21.5l8 -126z" />
    <glyph glyph-name="uni0625" unicode="&#x625;" horiz-adv-x="599" arabic-form="isolated" 
d="M395 -15h-219v1442h219v-1442zM69 -684v133l118 35q-34 31 -55.5 71t-21.5 86q0 33 11.5 65.5t31.5 59.5t48 46.5t60 28.5h-1q17 5 33.5 7.5t33.5 2.5q38 0 69 -10.5t60 -21.5l-27 -110q-26 6 -51 12.5t-49 6.5q-15 0 -30 -5q-15 -6 -29.5 -15.5t-24.5 -22.5t-13 -29
q-2 -6 -2 -13q0 -11 4 -22q9 -28 40.5 -47.5t86.5 -19.5q10 0 22.5 1t32 5.5t48.5 12t72 21.5l8 -126z" />
    <glyph glyph-name="uni0625.fina" unicode="&#x625;" horiz-adv-x="628" arabic-form="final" 
d="M640 -15q-104 0 -178 13t-124.5 39t-81 65.5t-46.5 93t-21 120.5t-5 149v962h219v-962q0 -84 5.5 -135.5t29 -79.5t71 -37t131.5 -9v-219zM143 -675v133l118 35q-34 31 -55.5 71t-21.5 86q0 33 11.5 65.5t31.5 59.5t48 46.5t60 28.5h-1q17 5 33.5 7.5t33.5 2.5
q38 0 69 -10.5t60 -21.5l-27 -110q-26 6 -51 12.5t-49 6.5q-15 0 -30 -5q-15 -6 -29.5 -15.5t-24.5 -22.5t-13 -29q-2 -6 -2 -13q0 -11 4 -22q9 -28 40.5 -47.5t86.5 -19.5q10 0 22.5 1t32 5.5t48.5 12t72 21.5l8 -126z" />
    <glyph glyph-name="uni0622" unicode="&#x622;" horiz-adv-x="916" arabic-form="isolated" 
d="M587 -15h-219v1292h219v-1292zM916 1431h-490q-61 0 -103 -5t-70.5 -20t-47.5 -43.5t-33 -75.5l-172 51q25 85 69 142.5t104 89.5q52 26 115 34t138 8h490v-181z" />
    <glyph glyph-name="uni0622.fina" unicode="&#x622;" horiz-adv-x="827" arabic-form="final" 
d="M833 -15q-150 0 -247.5 31.5t-157.5 100.5q-32 36 -51 78.5t-29 87.5t-13 91.5t-3 90.5v812h219v-812q0 -85 9.5 -133t32.5 -74q25 -28 83.5 -41t156.5 -13v-219zM913 1430h-490q-61 0 -103 -5t-70.5 -20t-47.5 -43.5t-33 -75.5l-172 51q25 85 69 142.5t104 89.5
q52 26 115 34t138 8h490v-181z" />
    <glyph glyph-name="uni0671" unicode="&#x671;" horiz-adv-x="599" arabic-form="isolated" 
d="M394 -15h-219v1292h219v-1292zM-20 1428l21 95h130l46 71l83 122q35 51 84 80.5t107 29.5q33 0 66 -12.5t58.5 -38.5t41.5 -66t16 -94q0 -52 -17.5 -88t-44.5 -58t-60 -31.5t-65 -9.5h-466zM451 1731q-30 0 -58 -19.5t-54 -49.5t-50 -67t-45 -72h202q39 0 65 22t26 70
q0 56 -22 86t-64 30z" />
    <glyph glyph-name="uni0671.fina" unicode="&#x671;" horiz-adv-x="676" arabic-form="final" 
d="M693 -15q-150 0 -247.5 31.5t-157.5 100.5q-32 36 -51 78.5t-29 87.5t-13 91.5t-3 90.5v812h219v-812q0 -85 9.5 -133t32.5 -74q25 -28 83.5 -41t156.5 -13v-219zM10 1428l21 95h130l46 71l83 122q35 51 84 80.5t107 29.5q33 0 66 -12.5t58.5 -38.5t41.5 -66t16 -94
q0 -52 -17.5 -88t-44.5 -58t-60 -31.5t-65 -9.5h-466zM481 1731q-30 0 -58 -19.5t-54 -49.5t-50 -67t-45 -72h202q39 0 65 22t26 70q0 56 -22 86t-64 30z" />
    <glyph glyph-name="uni0628" unicode="&#x628;" horiz-adv-x="1993" arabic-form="isolated" 
d="M1857 750q8 -38 18 -88t18.5 -103t14.5 -103t6 -86q0 -99 -33 -172t-85.5 -120t-118.5 -70t-132 -23h-1109q-73 0 -138 25t-116 72q-20 19 -41.5 46t-38.5 63.5t-28 83t-11 104.5q0 51 10.5 111.5t23 115t24.5 94t15 48.5l209 -66q-7 -21 -17.5 -58.5t-20.5 -81
t-17.5 -87.5t-7.5 -76q0 -61 19.5 -96t45 -52.5t51.5 -22t40 -4.5h1114q13 0 38.5 4t50.5 20.5t43.5 49.5t18.5 92q0 25 -5 65.5t-13 85.5t-17.5 90t-17.5 81zM842 -349l166 168l170 -170l-168 -168z" />
    <glyph glyph-name="uni0628.init" unicode="&#x628;" horiz-adv-x="679" arabic-form="initial" 
d="M541 818q2 -6 8 -32.5t14.5 -65.5t17 -86t16 -94.5t12.5 -92t5 -77.5q0 -99 -33 -172t-85.5 -120t-118.5 -70t-132 -23h-270v219h277q13 0 38.5 4t50.5 20.5t43.5 49.5t18.5 92q0 22 -4 55t-10 71t-14 78t-15.5 75t-14.5 63t-11 43zM186 -363l166 168l170 -170l-168 -168
z" />
    <glyph glyph-name="uni0628.medi" unicode="&#x628;" horiz-adv-x="796" arabic-form="medial" 
d="M815 204v-219h-73q-88 0 -158 24.5t-115 72.5q-54 -47 -131.5 -72t-175.5 -25h-183v219h183q66 0 105.5 13t59.5 32.5t26 43t6 45.5v339h218v-332q0 -34 10.5 -57.5t26.5 -39t35 -24.5t37.5 -13.5t33.5 -5.5t22 -1h73zM209 -374l166 168l170 -170l-168 -168z" />
    <glyph glyph-name="uni0628.fina" unicode="&#x628;" horiz-adv-x="2161" arabic-form="final" 
d="M2185 204v-219h-74q-36 0 -74 6t-74.5 18t-69.5 30.5t-60 45.5q-109 -99 -307 -100h-1070q-73 0 -138 25t-116 72q-20 19 -41.5 46t-38.5 63.5t-28 83t-11 104.5q0 51 10.5 111.5t23 115t24.5 94t15 48.5l104 -33l105 -33q-7 -21 -17.5 -58.5t-20.5 -81t-17.5 -87.5
t-7.5 -76q0 -61 19.5 -96t45 -52.5t51.5 -22t40 -4.5h1061q76 0 117.5 16t60.5 38.5t22 46.5t3 40v332h219v-327q0 -51 21 -80t49 -43.5t56.5 -18.5t43.5 -4h74zM893 -362l166 168l170 -170l-168 -168z" />
    <glyph glyph-name="uni067E" unicode="&#x67e;" horiz-adv-x="1993" arabic-form="isolated" 
d="M1847 750q8 -38 18 -88t18.5 -103t14.5 -103t6 -86q0 -99 -33 -172t-85.5 -120t-118.5 -70t-132 -23h-1109q-73 0 -138 25t-116 72q-20 19 -41.5 46t-38.5 63.5t-28 83t-11 104.5q0 51 10.5 111.5t23 115t24.5 94t15 48.5l209 -66q-7 -21 -17.5 -58.5t-20.5 -81
t-17.5 -87.5t-7.5 -76q0 -61 19.5 -96t45 -52.5t51.5 -22t40 -4.5h1114q13 0 38.5 4t50.5 20.5t43.5 49.5t18.5 92q0 25 -5 65.5t-13 85.5t-17.5 90t-17.5 81zM622 -315l160 160l160 -162l-160 -160zM1039 -317l162 160l160 -162l-160 -160zM840 -597l148 148l150 -150
l-148 -148z" />
    <glyph glyph-name="uni067E.fina" unicode="&#x67e;" horiz-adv-x="2161" arabic-form="final" 
d="M2185 204v-219h-74q-36 0 -74 6t-74.5 18t-69.5 30.5t-60 45.5q-109 -99 -307 -100h-1070q-73 0 -138 25t-116 72q-20 19 -41.5 46t-38.5 63.5t-28 83t-11 104.5q0 51 10.5 111.5t23 115t24.5 94t15 48.5l104 -33l105 -33q-7 -21 -17.5 -58.5t-20.5 -81t-17.5 -87.5
t-7.5 -76q0 -61 19.5 -96t45 -52.5t51.5 -22t40 -4.5h1061q76 0 117.5 16t60.5 38.5t22 46.5t3 40v332h219v-327q0 -51 21 -80t49 -43.5t56.5 -18.5t43.5 -4h74zM696 -331l160 160l160 -162l-160 -160zM1113 -333l162 160l160 -162l-160 -160zM914 -613l148 148l150 -150
l-148 -148z" />
    <glyph glyph-name="uni067E.init" unicode="&#x67e;" horiz-adv-x="892" arabic-form="initial" 
d="M721 818q2 -6 8 -32.5t14.5 -65.5t17 -86t16 -94.5t12.5 -92t5 -77.5q0 -99 -33 -172t-85.5 -120t-118.5 -70t-132 -23h-445v219h452q13 0 38.5 4t50.5 20.5t43.5 49.5t18.5 92q0 22 -4 55t-10 71t-14 78t-15.5 75t-14.5 63t-11 43zM61 -344l160 160l160 -162l-160 -160z
M478 -346l162 160l160 -162l-160 -160zM279 -626l148 148l150 -150l-148 -148z" />
    <glyph glyph-name="uni067E.medi" unicode="&#x67e;" horiz-adv-x="1061" arabic-form="medial" 
d="M1083 204v-219h-160q-88 0 -158 24.5t-115 72.5q-54 -47 -131.5 -72t-175.5 -25h-361v219h361q66 0 105.5 13t59.5 32.5t26 43t6 45.5v339h218v-332q0 -34 10.5 -57.5t26.5 -39t35 -24.5t37.5 -13.5t33.5 -5.5t22 -1h160zM100 -349l160 160l160 -162l-160 -160zM517 -351
l162 160l160 -162l-160 -160zM318 -631l148 148l150 -150l-148 -148z" />
    <glyph glyph-name="uni062A" unicode="&#x62a;" horiz-adv-x="1993" arabic-form="isolated" 
d="M1847 750q8 -38 18 -88t18.5 -103t14.5 -103t6 -86q0 -99 -33 -172t-85.5 -120t-118.5 -70t-132 -23h-1109q-73 0 -138 25t-116 72q-20 19 -41.5 46t-38.5 63.5t-28 83t-11 104.5q0 51 10.5 111.5t23 115t24.5 94t15 48.5l209 -66q-7 -21 -17.5 -58.5t-20.5 -81
t-17.5 -87.5t-7.5 -76q0 -61 19.5 -96t45 -52.5t51.5 -22t40 -4.5h1114q13 0 38.5 4t50.5 20.5t43.5 49.5t18.5 92q0 25 -5 65.5t-13 85.5t-17.5 90t-17.5 81zM1210 767l-158 160l156 162l162 -162zM808 769l-158 160l155 162l162 -162z" />
    <glyph glyph-name="uni062A.init" unicode="&#x62a;" horiz-adv-x="892" arabic-form="initial" 
d="M721 818q2 -6 8 -32.5t14.5 -65.5t17 -86t16 -94.5t12.5 -92t5 -77.5q0 -99 -33 -172t-85.5 -120t-118.5 -70t-132 -23h-445v219h452q13 0 38.5 4t50.5 20.5t43.5 49.5t18.5 92q0 22 -4 55t-10 71t-14 78t-15.5 75t-14.5 63t-11 43zM700 1027l-158 160l156 162l162 -162z
M298 1029l-158 160l155 162l162 -162z" />
    <glyph glyph-name="uni062A.medi" unicode="&#x62a;" horiz-adv-x="1061" arabic-form="medial" 
d="M729 950l-158 160l156 162l162 -162zM327 952l-158 160l155 162l162 -162zM1083 204v-219h-160q-88 0 -158 24.5t-115 72.5q-54 -47 -131.5 -72t-175.5 -25h-361v219h361q66 0 105.5 13t59.5 32.5t26 43t6 45.5v339h218v-332q0 -34 10.5 -57.5t26.5 -39t35 -24.5
t37.5 -13.5t33.5 -5.5t22 -1h160z" />
    <glyph glyph-name="uni062A.fina" unicode="&#x62a;" horiz-adv-x="2161" arabic-form="final" 
d="M2175 204v-219h-74q-36 0 -74 6t-74.5 18t-69.5 30.5t-60 45.5q-109 -99 -307 -100h-1070q-73 0 -138 25t-116 72q-20 19 -41.5 46t-38.5 63.5t-28 83t-11 104.5q0 51 10.5 111.5t23 115t24.5 94t15 48.5l104 -33l105 -33q-7 -21 -17.5 -58.5t-20.5 -81t-17.5 -87.5
t-7.5 -76q0 -61 19.5 -96t45 -52.5t51.5 -22t40 -4.5h1061q76 0 117.5 16t60.5 38.5t22 46.5t3 40v332h219v-327q0 -51 21 -80t49 -43.5t56.5 -18.5t43.5 -4h74zM1230 767l-158 160l156 162l162 -162zM828 769l-158 160l155 162l162 -162z" />
    <glyph glyph-name="uni062B" unicode="&#x62b;" horiz-adv-x="1993" arabic-form="isolated" 
d="M1847 750q8 -38 18 -88t18.5 -103t14.5 -103t6 -86q0 -99 -33 -172t-85.5 -120t-118.5 -70t-132 -23h-1109q-73 0 -138 25t-116 72q-20 19 -41.5 46t-38.5 63.5t-28 83t-11 104.5q0 51 10.5 111.5t23 115t24.5 94t15 48.5l209 -66q-7 -21 -17.5 -58.5t-20.5 -81
t-17.5 -87.5t-7.5 -76q0 -61 19.5 -96t45 -52.5t51.5 -22t40 -4.5h1114q13 0 38.5 4t50.5 20.5t43.5 49.5t18.5 92q0 25 -5 65.5t-13 85.5t-17.5 90t-17.5 81zM955 887l-160 -162l-160 160l160 162zM1384 891l-158 -160l-165 158l162 162zM1163 1173l-150 -150l-148 148
l150 150z" />
    <glyph glyph-name="uni062B.init" unicode="&#x62b;" horiz-adv-x="892" arabic-form="initial" 
d="M721 818q2 -6 8 -32.5t14.5 -65.5t17 -86t16 -94.5t12.5 -92t5 -77.5q0 -99 -33 -172t-85.5 -120t-118.5 -70t-132 -23h-445v219h452q13 0 38.5 4t50.5 20.5t43.5 49.5t18.5 92q0 22 -4 55t-10 71t-14 78t-15.5 75t-14.5 63t-11 43zM419 1163l-160 -162l-160 160l160 162
zM848 1167l-158 -160l-165 158l162 162zM627 1449l-150 -150l-148 148l150 150z" />
    <glyph glyph-name="uni062B.medi" unicode="&#x62b;" horiz-adv-x="1061" arabic-form="medial" 
d="M1083 204v-219h-160q-88 0 -158 24.5t-115 72.5q-54 -47 -131.5 -72t-175.5 -25h-361v219h361q66 0 105.5 13t59.5 32.5t26 43t6 45.5v339h218v-332q0 -34 10.5 -57.5t26.5 -39t35 -24.5t37.5 -13.5t33.5 -5.5t22 -1h160zM488 1101l-160 -162l-160 160l160 162zM917 1105
l-158 -160l-165 158l162 162zM696 1387l-150 -150l-148 148l150 150z" />
    <glyph glyph-name="uni062B.fina" unicode="&#x62b;" horiz-adv-x="2161" arabic-form="final" 
d="M2175 204v-219h-74q-36 0 -74 6t-74.5 18t-69.5 30.5t-60 45.5q-109 -99 -307 -100h-1070q-73 0 -138 25t-116 72q-20 19 -41.5 46t-38.5 63.5t-28 83t-11 104.5q0 51 10.5 111.5t23 115t24.5 94t15 48.5l104 -33l105 -33q-7 -21 -17.5 -58.5t-20.5 -81t-17.5 -87.5
t-7.5 -76q0 -61 19.5 -96t45 -52.5t51.5 -22t40 -4.5h1061q76 0 117.5 16t60.5 38.5t22 46.5t3 40v332h219v-327q0 -51 21 -80t49 -43.5t56.5 -18.5t43.5 -4h74zM975 887l-160 -162l-160 160l160 162zM1404 891l-158 -160l-165 158l162 162zM1183 1173l-150 -150l-148 148
l150 150z" />
    <glyph glyph-name="uni0679" unicode="&#x679;" horiz-adv-x="1993" arabic-form="isolated" 
d="M1847 750q8 -38 18 -88t18.5 -103t14.5 -103t6 -86q0 -99 -33 -172t-85.5 -120t-118.5 -70t-132 -23h-1109q-73 0 -138 25t-116 72q-20 19 -41.5 46t-38.5 63.5t-28 83t-11 104.5q0 51 10.5 111.5t23 115t24.5 94t15 48.5l209 -66q-7 -21 -17.5 -58.5t-20.5 -81
t-17.5 -87.5t-7.5 -76q0 -61 19.5 -96t45 -52.5t51.5 -22t40 -4.5h1114q13 0 38.5 4t50.5 20.5t43.5 49.5t18.5 92q0 25 -5 65.5t-13 85.5t-17.5 90t-17.5 81zM703 665v95h102q11 18 22.5 34.5t22.5 34.5v489h93v-354q38 43 82.5 71t99.5 28q33 0 66 -12.5t58.5 -38.5
t41.5 -66t16 -94q0 -52 -17.5 -88t-44.5 -58t-60 -31.5t-65 -9.5h-417zM1125 968q-29 0 -57 -19.5t-54.5 -49.5t-50.5 -67t-45 -72h202q39 0 65 22t26 70q0 56 -22 86t-64 30z" />
    <glyph glyph-name="uni0679.init" unicode="&#x679;" horiz-adv-x="892" arabic-form="initial" 
d="M721 818q2 -6 8 -32.5t14.5 -65.5t17 -86t16 -94.5t12.5 -92t5 -77.5q0 -99 -33 -172t-85.5 -120t-118.5 -70t-132 -23h-445v219h452q13 0 38.5 4t50.5 20.5t43.5 49.5t18.5 92q0 22 -4 55t-10 71t-14 78t-15.5 75t-14.5 63t-11 43zM176 985v95h102q11 18 22.5 34.5
t22.5 34.5v489h93v-354q38 43 82.5 71t99.5 28q33 0 66 -12.5t58.5 -38.5t41.5 -66t16 -94q0 -52 -17.5 -88t-44.5 -58t-60 -31.5t-65 -9.5h-417zM598 1288q-29 0 -57 -19.5t-54.5 -49.5t-50.5 -67t-45 -72h202q39 0 65 22t26 70q0 56 -22 86t-64 30z" />
    <glyph glyph-name="uni0679.medi" unicode="&#x679;" horiz-adv-x="1061" arabic-form="medial" 
d="M1083 204v-219h-160q-88 0 -158 24.5t-115 72.5q-54 -47 -131.5 -72t-175.5 -25h-361v219h361q66 0 105.5 13t59.5 32.5t26 43t6 45.5v339h218v-332q0 -34 10.5 -57.5t26.5 -39t35 -24.5t37.5 -13.5t33.5 -5.5t22 -1h160zM141 851v95h102q11 18 22.5 34.5t22.5 34.5v489
h93v-354q38 43 82.5 71t99.5 28q33 0 66 -12.5t58.5 -38.5t41.5 -66t16 -94q0 -52 -17.5 -88t-44.5 -58t-60 -31.5t-65 -9.5h-417zM563 1154q-29 0 -57 -19.5t-54.5 -49.5t-50.5 -67t-45 -72h202q39 0 65 22t26 70q0 56 -22 86t-64 30z" />
    <glyph glyph-name="uni0679.fina" unicode="&#x679;" horiz-adv-x="2161" arabic-form="final" 
d="M2185 204v-219h-74q-36 0 -74 6t-74.5 18t-69.5 30.5t-60 45.5q-109 -99 -307 -100h-1070q-73 0 -138 25t-116 72q-20 19 -41.5 46t-38.5 63.5t-28 83t-11 104.5q0 51 10.5 111.5t23 115t24.5 94t15 48.5l104 -33l105 -33q-7 -21 -17.5 -58.5t-20.5 -81t-17.5 -87.5
t-7.5 -76q0 -61 19.5 -96t45 -52.5t51.5 -22t40 -4.5h1061q76 0 117.5 16t60.5 38.5t22 46.5t3 40v332h219v-327q0 -51 21 -80t49 -43.5t56.5 -18.5t43.5 -4h74zM785 675v95h102q11 18 22.5 34.5t22.5 34.5v489h93v-354q38 43 82.5 71t99.5 28q33 0 66 -12.5t58.5 -38.5
t41.5 -66t16 -94q0 -52 -17.5 -88t-44.5 -58t-60 -31.5t-65 -9.5h-417zM1207 978q-29 0 -57 -19.5t-54.5 -49.5t-50.5 -67t-45 -72h202q39 0 65 22t26 70q0 56 -22 86t-64 30z" />
    <glyph glyph-name="uni0629" unicode="&#x629;" horiz-adv-x="1007" arabic-form="isolated" 
d="M508 -15q-93 0 -170.5 28.5t-134 79t-87.5 119.5t-31 151q0 83 21.5 152t58.5 130t85.5 117t101.5 112l-63 70l162 147q23 -26 51.5 -56.5t52.5 -56.5q71 -76 139 -150.5t121 -149t85 -149.5q31 -74 31 -147v-5q-1 -85 -33.5 -157.5t-95.5 -129.5q-58 -50 -132 -77.5
t-162 -27.5zM496 738q-41 -46 -76 -89t-61 -88t-40.5 -93.5t-14.5 -104.5q0 -41 17 -71t45.5 -49.5t65.5 -29t76 -9.5q96 0 150 47.5t54 125.5q0 47 -18 93t-48 91t-69 89.5t-81 87.5zM697 1215l-158 160l156 162l162 -162zM295 1217l-158 160l155 162l162 -162z" />
    <glyph glyph-name="uni0629.fina" unicode="&#x629;" horiz-adv-x="1258" arabic-form="final" 
d="M1274 -15h-44q-78 0 -150.5 16.5t-133.5 49t-108.5 81t-74.5 112.5q-24 -45 -63.5 -77.5t-92.5 -54.5q-67 -28 -133 -33q-20 -2 -40 -2q-45 0 -97 12t-104.5 45t-91.5 82t-61 112.5t-22 139.5q0 106 41.5 191t110 150t157.5 111.5t184 76.5q-5 26 -10 48.5t-9 46.5
l210 50l178 -719q18 -72 55.5 -115t82 -66.5t90.5 -30.5t82 -7h44v-219zM657 471q4 22 4 45q0 16 -3.5 43.5t-12.5 68t-20 80.5t-19 78q-170 -53 -261 -135t-91 -184q0 -53 25.5 -89t64.5 -55.5t87 -21.5h10q42 0 81 14q57 24 90.5 59.5t44.5 96.5zM843 1305l-158 160
l156 162l162 -162zM441 1307l-158 160l155 162l162 -162z" />
    <glyph glyph-name="uni0686.init" unicode="&#x686;" horiz-adv-x="1418" arabic-form="initial" 
d="M1353 379q-6 -4 -53 -34.5t-125 -74.5t-182 -94t-223 -92.5t-248.5 -70.5t-258.5 -28h-288v219h288q70 0 145 10t149.5 27.5t147.5 40.5t140.5 49t126.5 53.5t106 54.5l-499 175q-45 13 -80 13.5t-62 -12.5t-47 -41t-36 -71l-202 61q21 67 57 128t89 102.5t124 55.5
q22 4 46 4q53 0 116 -20q56 -18 101.5 -33.5t89.5 -32t92.5 -35t112 -42.5t147.5 -55.5t199 -72.5zM319 -354l160 160l160 -162l-160 -160zM736 -356l162 160l160 -162l-160 -160zM537 -636l148 148l150 -150l-148 -148z" />
    <glyph glyph-name="uni0686.medi" unicode="&#x686;" horiz-adv-x="1529" arabic-form="medial" 
d="M1199 285q11 -31 33 -47q22 -17 46 -24.5t45 -8.5t30 -1h191v-219h-191q-77 0 -143 22.5t-118 65.5v1q-54 44 -86 109q-7 -3 -15 -7q-104 -50 -223 -92.5t-248.5 -70.5t-258.5 -28h-288v219h288q70 0 145 10t149.5 27.5t147.5 40.5t140.5 49t126.5 53.5t106 54.5
l-499 175q-45 13 -80 13.5t-62 -12.5t-47 -41t-36 -71l-202 61q21 67 57 128t89 102.5t124 55.5q22 4 46 4q53 0 116 -20q56 -18 101.5 -33.5t89.5 -32t92.5 -35t112 -42.5t147.5 -55.5t199 -72.5l27 -184q-6 -4 -53 -34q-39 -26 -99 -60zM328 -355l160 160l160 -162
l-160 -160zM745 -357l162 160l160 -162l-160 -160zM546 -637l148 148l150 -150l-148 -148z" />
    <glyph glyph-name="uni062C" unicode="&#x62c;" horiz-adv-x="1460" arabic-form="isolated" 
d="M1359 583l-609 -239q-132 -50 -218.5 -86t-137 -71.5t-70.5 -77t-20 -101.5q0 -112 37 -179t102 -103t155 -47.5t197 -11.5h474v-219h-474q-155 0 -284.5 29.5t-222.5 95t-145 171.5t-52 259q0 119 46.5 204t126.5 147.5t186 106.5t225 82l432 133l-502 175
q-45 13 -80 13.5t-62 -12.5t-47 -41t-36 -71l-202 61q21 67 57 128t89 102.5t124 55.5q22 4 46 4q53 0 116 -20q56 -18 101.5 -34.5t89.5 -34t92.5 -37.5t112 -45.5t147.5 -58t199 -73.5zM681 42l166 168l170 -170l-168 -168z" />
    <glyph glyph-name="uni062C.init" unicode="&#x62c;" horiz-adv-x="1418" arabic-form="initial" 
d="M1353 379q-6 -4 -53 -34.5t-125 -74.5t-182 -94t-223 -92.5t-248.5 -70.5t-258.5 -28h-288v219h288q70 0 145 10t149.5 27.5t147.5 40.5t140.5 49t126.5 53.5t106 54.5l-499 175q-45 13 -80 13.5t-62 -12.5t-47 -41t-36 -71l-202 61q21 67 57 128t89 102.5t124 55.5
q22 4 46 4q53 0 116 -20q56 -18 101.5 -33.5t89.5 -32t92.5 -35t112 -42.5t147.5 -55.5t199 -72.5zM507 -358l166 168l170 -170l-168 -168z" />
    <glyph glyph-name="uni062C.medi" unicode="&#x62c;" horiz-adv-x="1529" arabic-form="medial" 
d="M1209 285q11 -31 33 -47q22 -17 46 -24.5t45 -8.5t30 -1h191v-219h-191q-77 0 -143 22.5t-118 65.5v1q-54 44 -86 109q-7 -3 -15 -7q-104 -50 -223 -92.5t-248.5 -70.5t-258.5 -28h-288v219h288q70 0 145 10t149.5 27.5t147.5 40.5t140.5 49t126.5 53.5t106 54.5
l-499 175q-45 13 -80 13.5t-62 -12.5t-47 -41t-36 -71l-202 61q21 67 57 128t89 102.5t124 55.5q22 4 46 4q53 0 116 -20q56 -18 101.5 -33.5t89.5 -32t92.5 -35t112 -42.5t147.5 -55.5t199 -72.5l27 -184q-6 -4 -53 -34q-39 -26 -99 -60zM524 -358l166 168l170 -170
l-168 -168z" />
    <glyph glyph-name="uni062C.fina" unicode="&#x62c;" horiz-adv-x="1560" arabic-form="final" 
d="M1196 315q14 -24 30 -43q18 -23 37.5 -38t39 -22.5t34.5 -7.5h242v-219h-242q-70 0 -127 18.5t-101.5 51.5t-76.5 80q-30 43 -49 96l-240 -94q-132 -50 -218.5 -86t-137 -71.5t-70.5 -77t-20 -101.5q0 -112 37 -179t102 -103t155 -47.5t197 -11.5h474v-219h-474
q-155 0 -284.5 29.5t-222.5 95t-145 171.5t-52 259q0 119 46.5 204.5t126 147.5t186 106.5t225.5 81.5l432 133l-502 175q-45 13 -80 13.5t-62 -12.5t-47 -41t-36 -71l-202 61q21 67 57 128t89 102.5t124 55.5q22 4 46 4q53 0 116 -20q56 -18 101.5 -34.5t89.5 -34
t92.5 -37.5t112 -45.5t147.5 -58t199 -73.5l7 -205zM634 -198l166 168l170 -170l-168 -168z" />
    <glyph glyph-name="uni062E" unicode="&#x62e;" horiz-adv-x="1460" arabic-form="isolated" 
d="M1369 583l-609 -239q-132 -50 -218.5 -86t-137 -71.5t-70.5 -77t-20 -101.5q0 -112 37 -179t102 -103t155 -47.5t197 -11.5h474v-219h-474q-155 0 -284.5 29.5t-222.5 95t-145 171.5t-52 259q0 119 46.5 204t126.5 147.5t186 106.5t225 82l432 133l-502 175
q-45 13 -80 13.5t-62 -12.5t-47 -41t-36 -71l-202 61q21 67 57 128t89 102.5t124 55.5q22 4 46 4q53 0 116 -20q56 -18 101.5 -34.5t89.5 -34t92.5 -37.5t112 -45.5t147.5 -58t199 -73.5zM326 1466l166 168l170 -170l-168 -168z" />
    <glyph glyph-name="uni062E.init" unicode="&#x62e;" horiz-adv-x="1418" arabic-form="initial" 
d="M1353 379q-6 -4 -53 -34.5t-125 -74.5t-182 -94t-223 -92.5t-248.5 -70.5t-258.5 -28h-288v219h288q70 0 145 10t149.5 27.5t147.5 40.5t140.5 49t126.5 53.5t106 54.5l-499 175q-45 13 -80 13.5t-62 -12.5t-47 -41t-36 -71l-202 61q21 67 57 128t89 102.5t124 55.5
q22 4 46 4q53 0 116 -20q56 -18 101.5 -33.5t89.5 -32t92.5 -35t112 -42.5t147.5 -55.5t199 -72.5zM270 1261l166 168l170 -170l-168 -168z" />
    <glyph glyph-name="uni062E.medi" unicode="&#x62e;" horiz-adv-x="1529" arabic-form="medial" 
d="M1209 285q11 -31 33 -47q22 -17 46 -24.5t45 -8.5t30 -1h191v-219h-191q-77 0 -143 22.5t-118 65.5v1q-54 44 -86 109q-7 -3 -15 -7q-104 -50 -223 -92.5t-248.5 -70.5t-258.5 -28h-288v219h288q70 0 145 10t149.5 27.5t147.5 40.5t140.5 49t126.5 53.5t106 54.5
l-499 175q-45 13 -80 13.5t-62 -12.5t-47 -41t-36 -71l-202 61q21 67 57 128t89 102.5t124 55.5q22 4 46 4q53 0 116 -20q56 -18 101.5 -33.5t89.5 -32t92.5 -35t112 -42.5t147.5 -55.5t199 -72.5l27 -184q-6 -4 -53 -34q-39 -26 -99 -60zM275 1261l166 168l170 -170
l-168 -168z" />
    <glyph glyph-name="uni062E.fina" unicode="&#x62e;" horiz-adv-x="1560" arabic-form="final" 
d="M1206 315q14 -24 30 -43q18 -23 37.5 -38t39 -22.5t34.5 -7.5h242v-219h-242q-70 0 -127 18.5t-101.5 51.5t-76.5 80q-30 43 -49 96l-240 -94q-132 -50 -218.5 -86t-137 -71.5t-70.5 -77t-20 -101.5q0 -112 37 -179t102 -103t155 -47.5t197 -11.5h474v-219h-474
q-155 0 -284.5 29.5t-222.5 95t-145 171.5t-52 259q0 119 46.5 204.5t126 147.5t186 106.5t225.5 81.5l432 133l-502 175q-45 13 -80 13.5t-62 -12.5t-47 -41t-36 -71l-202 61q21 67 57 128t89 102.5t124 55.5q22 4 46 4q53 0 116 -20q56 -18 101.5 -34.5t89.5 -34
t92.5 -37.5t112 -45.5t147.5 -58t199 -73.5l7 -205zM347 1259l166 168l170 -170l-168 -168z" />
    <glyph glyph-name="uni0630" unicode="&#x630;" horiz-adv-x="1112" arabic-form="isolated" 
d="M556 -24q-61 0 -119 6q-29 3 -63 8t-69.5 14t-71 22.5t-67.5 31.5l-95 54l109 190l95 -54q34 -20 83.5 -32t105.5 -17q46 -4 93 -4q10 0 43 0.5t81 7.5q64 10 95.5 25.5t36.5 29.5q3 6 3 15q0 13 -7 39t-43 80q-96 145 -156 235.5t-94 141.5t-46 70t-13 20l-60 92
l183 120l60 -92l13 -19q12 -19 46 -70t94 -142t156 -235q57 -86 77 -166q9 -38 9 -74q0 -55 -22 -104q-35 -80 -119 -126q-73 -41 -181 -56q-38 -6 -77 -8.5t-80 -2.5zM369 1406l166 168l170 -170l-168 -168z" />
    <glyph glyph-name="uni0630.fina" unicode="&#x630;" horiz-adv-x="1238" arabic-form="final" 
d="M1255 204v-219h-25q-147 0 -274 118q-32 -38 -80 -65q-73 -41 -182 -56q-37 -6 -76.5 -8.5t-80.5 -2.5q-61 0 -119 6q-29 3 -62.5 8t-69.5 14t-71.5 22.5t-67.5 31.5l-95 54l109 190l95 -54q24 -14 56 -24t69 -16.5t77 -9.5t80 -3q72 0 129.5 6.5t90.5 24.5t37 51v7
q0 32 -30 80q-80 123 -143 219t-106 159.5t-63 93.5q-16 23 -16 24l1 -1l-60 92l183 120l61 -92l24 -36q23 -36 64 -98.5t97.5 -147.5t122.5 -184q29 -43 65 -96t75.5 -99t80.5 -77.5t79 -31.5h25zM395 1418l166 168l170 -170l-168 -168z" />
    <glyph glyph-name="uni0688" unicode="&#x688;" horiz-adv-x="1112" arabic-form="isolated" 
d="M556 -24q-61 0 -119 6q-29 3 -63 8t-69.5 14t-71 22.5t-67.5 31.5l-95 54l109 190l95 -54q34 -20 83.5 -32t105.5 -17q46 -4 93 -4q10 0 43 0.5t81 7.5q64 10 95.5 25.5t36.5 29.5q3 6 3 15q0 13 -7 39t-43 80q-96 145 -156 235.5t-94 141.5t-46 70t-13 20l-60 92
l183 120l60 -92l13 -19q12 -19 46 -70t94 -142t156 -235q57 -86 77 -166q9 -38 9 -74q0 -55 -22 -104q-35 -80 -119 -126q-73 -41 -181 -56q-38 -6 -77 -8.5t-80 -2.5zM257 1215v95h102q11 18 22.5 34.5t22.5 34.5v489h93v-354q38 43 82.5 71t99.5 28q33 0 66 -12.5
t58.5 -38.5t41.5 -66t16 -94q0 -52 -17.5 -88t-44.5 -58t-60 -31.5t-65 -9.5h-417zM679 1518q-29 0 -57 -19.5t-54.5 -49.5t-50.5 -67t-45 -72h202q39 0 65 22t26 70q0 56 -22 86t-64 30z" />
    <glyph glyph-name="uni0688.fina" unicode="&#x688;" horiz-adv-x="1238" arabic-form="final" 
d="M1255 204v-219h-25q-147 0 -274 118q-32 -38 -80 -65q-73 -41 -182 -56q-37 -6 -76.5 -8.5t-80.5 -2.5q-61 0 -119 6q-29 3 -62.5 8t-69.5 14t-71.5 22.5t-67.5 31.5l-95 54l109 190l95 -54q24 -14 56 -24t69 -16.5t77 -9.5t80 -3q72 0 129.5 6.5t90.5 24.5t37 51v7
q0 32 -30 80q-80 123 -143 219t-106 159.5t-63 93.5q-16 23 -16 24l1 -1l-60 92l183 120l61 -92l24 -36q23 -36 64 -98.5t97.5 -147.5t122.5 -184q29 -43 65 -96t75.5 -99t80.5 -77.5t79 -31.5h25zM257 1243v95h102q11 18 22.5 34.5t22.5 34.5v489h93v-354q38 43 82.5 71
t99.5 28q33 0 66 -12.5t58.5 -38.5t41.5 -66t16 -94q0 -52 -17.5 -88t-44.5 -58t-60 -31.5t-65 -9.5h-417zM679 1546q-29 0 -57 -19.5t-54.5 -49.5t-50.5 -67t-45 -72h202q39 0 65 22t26 70q0 56 -22 86t-64 30z" />
    <glyph glyph-name="uni0632" unicode="&#x632;" horiz-adv-x="802" arabic-form="isolated" 
d="M742 32q-6 -134 -49.5 -242t-121 -184t-186.5 -117t-247 -41h-138v219h138q100 0 172.5 21t119.5 66.5t70 119t23 178.5v624h219v-644zM461 1109l166 168l170 -170l-168 -168z" />
    <glyph glyph-name="uni0632.fina" unicode="&#x632;" horiz-adv-x="910" arabic-form="final" 
d="M925 -15h-21q-44 0 -83 7t-79 40q-6 -134 -49.5 -242t-121 -184t-186.5 -117t-247 -41h-138v219h138q100 0 172.5 21t119.5 66.5t70 119t23 178.5v624h219v-314q0 -51 21.5 -82t49.5 -48t54.5 -22.5t36.5 -5.5h21v-219zM463 1081l166 168l170 -170l-168 -168z" />
    <glyph glyph-name="uni0691" unicode="&#x691;" horiz-adv-x="802" arabic-form="isolated" 
d="M742 32q-6 -134 -49.5 -242t-121 -184t-186.5 -117t-247 -41h-138v219h138q100 0 172.5 21t119.5 66.5t70 119t23 178.5v624h219v-644zM190 888v95h102q11 18 22.5 34.5t22.5 34.5v489h93v-354q38 43 82.5 71t99.5 28q33 0 66 -12.5t58.5 -38.5t41.5 -66t16 -94
q0 -52 -17.5 -88t-44.5 -58t-60 -31.5t-65 -9.5h-417zM612 1191q-29 0 -57 -19.5t-54.5 -49.5t-50.5 -67t-45 -72h202q39 0 65 22t26 70q0 56 -22 86t-64 30z" />
    <glyph glyph-name="uni0691.fina" unicode="&#x691;" horiz-adv-x="910" arabic-form="final" 
d="M925 -15h-21q-44 0 -83 7t-79 40q-6 -134 -49.5 -242t-121 -184t-186.5 -117t-247 -41h-138v219h138q100 0 172.5 21t119.5 66.5t70 119t23 178.5v624h219v-314q0 -51 21.5 -82t49.5 -48t54.5 -22.5t36.5 -5.5h21v-219zM306 882v95h102q11 18 22.5 34.5t22.5 34.5v489h93
v-354q38 43 82.5 71t99.5 28q33 0 66 -12.5t58.5 -38.5t41.5 -66t16 -94q0 -52 -17.5 -88t-44.5 -58t-60 -31.5t-65 -9.5h-417zM728 1185q-29 0 -57 -19.5t-54.5 -49.5t-50.5 -67t-45 -72h202q39 0 65 22t26 70q0 56 -22 86t-64 30z" />
    <glyph glyph-name="uni0698" unicode="&#x698;" horiz-adv-x="1013" arabic-form="isolated" 
d="M742 32q-6 -134 -49.5 -242t-121 -184t-186.5 -117t-247 -41h-138v219h138q100 0 172.5 21t119.5 66.5t70 119t23 178.5v624h219v-644zM555 1078l-160 -162l-160 160l160 162zM984 1082l-158 -160l-165 158l162 162zM763 1364l-150 -150l-148 148l150 150z" />
    <glyph glyph-name="uni0698.fina" unicode="&#x698;" horiz-adv-x="910" arabic-form="final" 
d="M925 -15h-21q-44 0 -83 7t-79 40q-6 -134 -49.5 -242t-121 -184t-186.5 -117t-247 -41h-138v219h138q100 0 172.5 21t119.5 66.5t70 119t23 178.5v624h219v-314q0 -51 21.5 -82t49.5 -48t54.5 -22.5t36.5 -5.5h21v-219zM504 1082l-160 -162l-160 160l160 162zM933 1086
l-158 -160l-165 158l162 162zM712 1368l-150 -150l-148 148l150 150z" />
    <glyph glyph-name="uni0634" unicode="&#x634;" horiz-adv-x="2692" arabic-form="isolated" 
d="M2229 -15q-96 0 -171 27.5t-127 78.5q-29 -30 -62 -50.5t-68.5 -33t-71.5 -17.5t-70 -5q-29 0 -56 2t-52 8t-48 18t-45 32v-73q0 -268 -144.5 -396t-429.5 -128h-195q-131 0 -240 43t-188.5 122.5t-123.5 192t-44 253.5q0 131 39.5 272.5t117.5 305.5l197 -96
q-69 -141 -109 -257t-40 -222q0 -83 28.5 -155t80.5 -125.5t124 -84.5q69 -30 153 -30h200q111 0 180.5 20.5t108 59.5t52.5 96t14 129v704h219v-195q0 -91 17 -145.5t45.5 -84t64.5 -39t74 -9.5q23 0 52.5 8t55.5 28t43.5 53t17.5 83v301h218v-311q2 -84 45 -123t136 -39
q16 1 41.5 7t50 24t42 51.5t17.5 89.5q0 22 -4 54t-10 69t-13.5 75.5t-15 73t-14.5 62t-11 42.5l208 63q2 -6 8.5 -31.5t14.5 -63t17 -83.5t16.5 -93t12.5 -91t5 -77q0 -98 -32 -171t-83.5 -121t-116.5 -72.5t-131 -25.5zM1899 1109l-160 -162l-160 160l160 162zM2328 1113
l-158 -160l-165 158l162 162zM2107 1395l-150 -150l-148 148l150 150z" />
    <glyph glyph-name="uni0634.init" unicode="&#x634;" horiz-adv-x="1748" arabic-form="initial" 
d="M736 -13q-93 0 -165.5 25.5t-124.5 75.5q-54 -52 -122.5 -77.5t-137.5 -25.5h-221v219h221q13 0 38.5 4.5t50.5 21.5t43.5 50.5t18.5 92.5v303h219v-299q0 -90 42 -131t138 -41q13 0 38.5 5t50.5 22.5t43.5 51.5t18.5 93v299h218v-299q0 -90 43 -132t140 -42q15 0 40 6
t49 24t42 52.5t18 91.5q0 22 -4 54.5t-10 69.5t-13.5 75.5t-15 73t-14.5 61.5t-11 41l207 66q2 -6 8.5 -32t15 -64t18 -84t17.5 -93t13 -91t5 -77q0 -99 -32.5 -172t-84 -122t-117 -73t-131.5 -25q-93 0 -167 27t-127 77q-54 -52 -121.5 -77t-136.5 -25zM961 1118l-160 -162
l-160 160l160 162zM1390 1122l-158 -160l-165 158l162 162zM1169 1404l-150 -150l-148 148l150 150z" />
    <glyph glyph-name="uni0634.medi" unicode="&#x634;" horiz-adv-x="1897" arabic-form="medial" 
d="M-29 204h126q64 0 103.5 11t61.5 32.5t29.5 52.5t7.5 70v306h219v-301q0 -89 42.5 -129.5t135.5 -41.5q16 1 40.5 6.5t47 23t38.5 50t16 86.5v306h218v-301q0 -90 43 -130.5t138 -40.5q27 0 53 8.5t47 27.5t34.5 49.5t15.5 75.5v311h219v-311q2 -85 51 -123t149 -38h104
v-219h-104q-102 0 -179.5 25.5t-130.5 77.5q-48 -52 -116.5 -77.5t-142.5 -25.5q-94 0 -165 25.5t-125 76.5q-51 -48 -116.5 -74.5t-130.5 -27.5h-7q-91 0 -161 26.5t-121 71.5q-57 -49 -134 -73.5t-180 -24.5h-126v219zM881 1090l-160 -162l-160 160l160 162zM1310 1094
l-158 -160l-165 158l162 162zM1089 1376l-150 -150l-148 148l150 150z" />
    <glyph glyph-name="uni0634.fina" unicode="&#x634;" horiz-adv-x="2910" arabic-form="final" 
d="M2847 -15q-212 0 -316 107q-3 -3 -6.5 -7.5t-6.5 -6.5q-51 -43 -119 -68t-139 -25q-193 0 -297 107q-3 -3 -6.5 -7.5t-6.5 -6.5q-51 -43 -119 -68t-139 -25q-114 0 -201 45v-58q0 -268 -144.5 -396.5t-429.5 -128.5h-221q-77 0 -149.5 19t-136.5 53.5t-118 83.5t-94 109
q-47 76 -72.5 162.5t-25.5 189.5q0 131 39.5 274t117.5 307l197 -96q-69 -141 -103 -258.5t-34 -223.5q0 -74 16.5 -130t49.5 -108q50 -78 130.5 -120.5t182.5 -42.5h221q111 0 180.5 20.5t108 60t52.5 96.5t14 129v704h219v-209q0 -91 17 -143.5t45.5 -79.5t64.5 -34t74 -7
q23 0 52.5 8t55.5 28t43.5 53t17.5 83v301h218v-311q2 -84 45 -123t138 -39q23 0 52 8.5t54.5 28t43 52.5t17.5 83v301h218v-311q2 -84 49.5 -122.5t150.5 -38.5h95v-219h-95zM1912 1086l-160 -162l-160 160l160 162zM2341 1090l-158 -160l-165 158l162 162zM2120 1372
l-150 -150l-148 148l150 150z" />
    <glyph glyph-name="uni0636" unicode="&#x636;" horiz-adv-x="2742" arabic-form="isolated" 
d="M680 -552q-78 0 -151 18t-137 52.5t-118 84t-94 112.5q-47 78 -72 164.5t-25 189.5q0 129 39 267.5t116 299.5l198 -94q-67 -140 -101 -254.5t-34 -218.5q0 -74 16 -130t50 -109q48 -78 130 -120.5t183 -42.5h219q110 0 179 21t107.5 61t52.5 97.5t14 130.5v699h218v-334
q0 -22 8 -42t20 -35.5t27 -24.5t30 -9q50 81 99.5 159t101.5 147.5t107.5 128.5t116 102t126.5 67t141 24q76 0 149 -25.5t130.5 -81t93 -142t35.5 -208.5q0 -115 -38 -194.5t-98 -129t-134.5 -71.5t-146.5 -22h-573q-21 0 -48 0.5t-54 5t-52 14.5t-41 28v-56
q0 -270 -143 -399.5t-428 -129.5h-219zM2238 204q8 0 22.5 1t32 4t36.5 9.5t36 18.5q18 12 35.5 28t31 36.5t22 45.5t8.5 55q0 60 -16.5 104.5t-46 74t-68.5 44.5t-84 15q-64 0 -127 -39t-123 -101.5t-114.5 -140t-102.5 -155.5h458zM2071 1229l166 168l170 -170l-168 -168z
" />
    <glyph glyph-name="uni0636.init" unicode="&#x636;" horiz-adv-x="1809" arabic-form="initial" 
d="M-30 -15v219h155q66 0 104.5 12.5t59 32t27 43t6.5 45.5v339h218v-331q0 -23 9 -43t24 -36t33 -25t36 -9q41 67 86 140t94.5 142.5t105.5 132t119 110t134 75t153 27.5q76 0 149 -25.5t130 -80t92 -141t35 -209.5q0 -77 -17.5 -138t-48 -107.5t-71 -79t-87 -53.5
t-96.5 -30.5t-98 -9.5h-572q-36 0 -78 6t-83.5 17.5t-78.5 27t-62 34.5l-15 12q-54 -50 -127.5 -72.5t-173.5 -24.5h-162zM1334 641q-65 0 -128 -39t-123 -101.5t-115 -140.5t-103 -156h457q9 0 24 1t32.5 4.5t36.5 10.5t37 18v-1q18 12 34.5 28t29 36.5t20.5 46t8 55.5
q0 60 -16.5 104.5t-45 74.5t-66.5 44.5t-82 14.5zM1129 1238l166 168l170 -170l-168 -168z" />
    <glyph glyph-name="uni0636.medi" unicode="&#x636;" horiz-adv-x="1915" arabic-form="medial" 
d="M652 232q41 67 86 140t94.5 142.5t105.5 132t119 110t134 75t153 27.5q76 0 149 -25.5t130 -80t92 -141t35 -209.5q0 -60 -10.5 -109t-29.5 -90h217v-219h-1167q-36 0 -78 6t-83.5 17.5t-78.5 27t-62 34.5l-15 12q-54 -50 -127.5 -72.5t-173.5 -24.5h-162v219h155
q66 0 104.5 12.5t59 32t27 43t6.5 45.5v339h218v-331q0 -23 9 -43t24 -36t33 -25t36 -9zM1344 641q-65 0 -128 -39t-123 -101.5t-115 -140.5t-103 -156h457q9 0 24 1t32.5 4.5t36.5 10.5t37 18v-1q18 12 34.5 28t29 36.5t20.5 46t8 55.5q0 60 -16.5 104.5t-45 74.5
t-66.5 44.5t-82 14.5zM1156 1243l166 168l170 -170l-168 -168z" />
    <glyph glyph-name="uni0636.fina" unicode="&#x636;" horiz-adv-x="2837" arabic-form="final" 
d="M700 -552q-78 0 -151 18t-137 52.5t-118 84t-94 112.5q-47 78 -72 164.5t-25 189.5q0 129 39 267.5t116 299.5l198 -94q-67 -140 -101 -254.5t-34 -218.5q0 -74 16 -130t50 -109q48 -78 130 -120.5t183 -42.5h219q110 0 179 21t107.5 61t52.5 97.5t14 130.5v699h218v-334
q0 -22 8.5 -42t22 -35.5t30 -24.5t32.5 -9q50 81 99.5 159t101.5 147.5t107.5 128.5t116 102t126.5 67t141 24q76 0 149 -25.5t130.5 -81t93 -142t35.5 -208.5q0 -60 -10.5 -108.5t-29.5 -89.5h222v-219h-1172q-21 0 -49.5 0.5t-57 5t-54.5 14.5t-42 28v-56
q0 -270 -143 -399.5t-428 -129.5h-219zM2266 204q8 0 22.5 1t32 4t36.5 9.5t36 18.5q18 12 35.5 28t31 36.5t22 45.5t8.5 55q0 60 -16.5 104.5t-46 74t-68.5 44.5t-84 15q-64 0 -124.5 -39t-117.5 -101.5t-109 -140t-100 -155.5h442zM2134 1243l166 168l170 -170l-168 -168z
" />
    <glyph glyph-name="uni0638" unicode="&#x638;" horiz-adv-x="1525" arabic-form="isolated" 
d="M72 -15v219h232l12 18t16 23.5t25 37t38 60.5v1083h218v-780q41 46 86.5 85t95 67.5t104 45t113.5 16.5q76 0 149.5 -27.5t131 -84.5t93 -145t35.5 -210q0 -116 -38.5 -194.5t-99 -126t-135.5 -67.5t-147 -20h-929zM1012 642q-63 0 -127.5 -39t-126 -102t-118 -141
t-103.5 -156h464q8 0 23 1.5t33 5t37 10t37 17.5q18 12 35 26t31 32.5t22.5 42t8.5 54.5q0 60 -17 106t-46 78t-68.5 48.5t-84.5 16.5zM873 1287l166 168l170 -170l-168 -168z" />
    <glyph glyph-name="uni0638.init" unicode="&#x638;" horiz-adv-x="1374" arabic-form="initial" 
d="M-11 -15v219h204l12 18t16 23.5t25 37t38 60.5v1083h218v-780q41 46 86.5 85t95 67.5t104 45t113.5 16.5q76 0 149.5 -27.5t131 -84.5t93 -145t35.5 -210q0 -116 -38.5 -194.5t-99 -126t-135.5 -67.5t-147 -20h-901zM901 642q-63 0 -127.5 -39t-126 -102t-118 -141
t-103.5 -156h464q8 0 23 1.5t33 5t37 10t37 17.5q18 12 35 26t31 32.5t22.5 42t8.5 54.5q0 60 -17 106t-46 78t-68.5 48.5t-84.5 16.5zM761 1282l166 168l170 -170l-168 -168z" />
    <glyph glyph-name="uni0638.medi" unicode="&#x638;" horiz-adv-x="1466" arabic-form="medial" 
d="M-32 -15v219h192l12 18t16 23.5t25 37t38 60.5v1083h218v-780q41 46 86.5 85t95 67.5t104 45t113.5 16.5q76 0 149.5 -27.5t131 -84.5t93 -145t35.5 -210q0 -57 -10 -104t-27 -86h244v-218h-1516zM868 642q-63 0 -127.5 -39t-126 -102t-118 -141t-103.5 -156h464
q8 0 23 1.5t33 5t37 10t37 17.5q18 12 35 26t31 32.5t22.5 42t8.5 54.5q0 60 -17 106t-46 78t-68.5 48.5t-84.5 16.5zM742 1283l166 168l170 -170l-168 -168z" />
    <glyph glyph-name="uni0638.fina" unicode="&#x638;" horiz-adv-x="1587" arabic-form="final" 
d="M98 -15v219h232l91 139v1083h218v-780q41 46 86.5 85t95 67.5t104 45t113.5 16.5q76 0 149.5 -27.5t131 -84.5t93 -145t35.5 -210q0 -57 -12.5 -104t-29.5 -86h210v-218h-1517zM1038 642q-63 0 -127.5 -39t-126 -102t-118 -141t-103.5 -156h464q41 0 81.5 12.5t73 37
t52.5 59.5t20 80q0 60 -17 106t-46 78t-68.5 48.5t-84.5 16.5zM913 1284l166 168l170 -170l-168 -168z" />
    <glyph glyph-name="uni063A" unicode="&#x63a;" horiz-adv-x="1373" arabic-form="isolated" 
d="M1214 -553h-465q-123 0 -241 33t-211 102t-150 175.5t-57 254.5q0 125 49.5 230t141.5 183q54 46 115 77.5t129 47.5q-35 39 -56 77.5t-32 74t-14.5 66.5t-3.5 55q0 85 34 159.5t92 129.5t134 87t160 32q54 0 104 -13.5t97 -35t92 -49.5t89 -57l-99 -176q-60 34 -102 56
t-73.5 34.5t-56.5 17t-51 4.5q-36 0 -72.5 -13t-65 -37.5t-46.5 -59.5t-18 -79q0 -14 3 -31.5t12 -38t25 -42t42 -43.5q63 -49 166.5 -76t240.5 -27h127v-219h-605q-51 0 -112.5 -19.5t-114.5 -60t-88.5 -104t-35.5 -150.5q0 -84 28.5 -142.5t72.5 -96.5t97.5 -60t104 -32
t91 -12.5t58.5 -2.5h465v-219zM665 1590l166 168l170 -170l-168 -168z" />
    <glyph glyph-name="uni063A.init" unicode="&#x63a;" horiz-adv-x="1180" arabic-form="initial" 
d="M-36 -15v219h312q-30 36 -47.5 72t-26 69t-10.5 62t-2 52q0 85 33 158.5t89 127.5t131 85t159 31q48 0 92 -10.5t89.5 -30.5t95 -48.5t109.5 -63.5l-109 -187q-25 16 -59.5 37t-72 40t-75.5 31.5t-70 12.5q-36 0 -73 -11.5t-67.5 -35t-49.5 -57.5t-19 -79
q0 -13 3.5 -30.5t13.5 -38.5t27.5 -44t45.5 -46h-1q63 -51 166.5 -73.5t241.5 -22.5h125v-219h-1051zM449 1264l166 168l170 -170l-168 -168z" />
    <glyph glyph-name="uni063A.medi" unicode="&#x63a;" horiz-adv-x="1283" arabic-form="medial" 
d="M368 655q28 -26 59.5 -61t69 -75.5t82 -85t97.5 -90.5q24 19 52.5 47t59.5 61t61.5 68t57.5 69q13 16 15 32l1 8q0 11 -6 22.5t-21.5 19.5t-36.5 8h-396q-26 0 -43.5 -2t-28 -5t-16 -6.5t-7.5 -9.5zM1311 -15h-390q-18 0 -40.5 4t-52.5 17t-69.5 36t-90.5 62
q-59 -30 -136 -52t-165.5 -37t-185 -22.5t-193.5 -7.5v219q69 0 139.5 3.5t135 10.5t119 17t93.5 23q-53 46 -101 91.5t-88 85t-69.5 69.5t-45.5 46v47q0 20 2 43.5t9 49t19.5 51.5t33.5 50q41 45 101 67.5t147 22.5h350q43 0 83 -11.5t74.5 -32.5t61 -50.5t43.5 -66.5
q11 -25 17 -53t6 -53q0 -24 -9.5 -52t-37 -70.5t-78.5 -103.5t-135 -150q28 -17 43.5 -24t23.5 -10h386v-219zM513 1272l166 168l170 -170l-168 -168z" />
    <glyph glyph-name="uni063A.fina" unicode="&#x63a;" horiz-adv-x="1376" arabic-form="final" 
d="M1215 -759h-479q-140 0 -260 29.5t-208.5 93t-138.5 163t-50 239.5q0 99 46.5 188t140.5 175q60 54 129.5 101t142.5 91l-279 293q0 21 4 48t13.5 56t24 58t35.5 53q42 46 104 68t151 22h329q43 0 83 -11t74 -31.5t60 -49.5t43 -66q12 -26 17.5 -53t5.5 -54
q0 -56 -27.5 -107.5t-71 -98t-97.5 -87.5t-106 -75q29 -24 50.5 -39.5t36 -24.5t23 -13t12.5 -5h382v-219h-386q-32 0 -59.5 6.5t-62 26t-80 55t-112.5 93.5q-77 -46 -151 -93t-132 -96.5t-93.5 -102t-35.5 -108.5q0 -71 21.5 -121t57.5 -84t82 -54t95 -30.5t97.5 -13.5
t89.5 -3h479v-219zM473 688q16 -18 44 -48t64 -67t76.5 -78.5t82.5 -81.5q81 57 144.5 110t115.5 104q15 15 19 30q1 6 1 11q0 9 -3 17v-1q-7 15 -24 23t-38 8h-385q-51 0 -74 -3q-23 -4 -23 -22v-2zM548 1296l166 168l170 -170l-168 -168z" />
    <glyph glyph-name="uni06A9.init" unicode="&#x6a9;" horiz-adv-x="1169" arabic-form="initial" 
d="M-29 -15v219h597q18 0 47 2t56.5 9.5t48 23.5t20.5 43q0 44 -34 106t-87.5 131.5t-119.5 141t-130.5 134.5t-121 111.5t-89.5 72.5l18 209l905 399l79 -190l-767 -338q37 -36 84.5 -83t99 -100.5t103 -111.5t97 -115.5t81 -113t54.5 -104.5q16 -41 23 -78.5t7 -68.5
q0 -38 -7.5 -66.5t-15.5 -48.5q-12 -26 -36 -58t-66.5 -60t-107.5 -47t-158 -19h-580z" />
    <glyph glyph-name="uni06A9.medi" unicode="&#x6a9;" horiz-adv-x="1244" arabic-form="medial" 
d="M1262 -15h-30q-88 0 -153 17.5t-117 49t-96 75t-90 95.5q-14 -27 -35.5 -54t-47.5 -51t-57 -44.5t-64 -35.5q-60 -26 -134 -39t-153 -13h-309v219h323q53 0 102 8.5t89 23t69.5 35t44.5 44.5q5 11 8 25.5t3 28.5q0 30 -21 75.5t-56 100.5t-80 115.5t-92.5 120t-94 114
t-84.5 97.5l39 188l900 415l90 -201l-788 -363l386 -516q57 -76 104 -134t94.5 -97.5t99.5 -59.5t120 -20h30v-219z" />
    <glyph glyph-name="uni0641" unicode="&#x641;" horiz-adv-x="2074" arabic-form="isolated" 
d="M1411 204q99 0 162.5 12t101 31.5t53.5 43t21 46.5h-135q-49 0 -100 5.5t-99.5 20.5t-91 40.5t-74.5 65.5t-50.5 96.5t-18.5 132.5q0 84 28.5 155t80 122.5t122 81t154.5 29.5q77 0 136.5 -21.5t104.5 -60t76 -91.5t50 -115.5t28 -132t9 -141.5v-138q0 -117 -46.5 -194.5
t-123.5 -124t-178 -64.5q-96 -18 -199 -18h-985q-73 0 -138 25t-116 72q-20 19 -41.5 46t-38.5 63.5t-28 83t-11 104.5q0 51 10.5 111.5t23 115t24.5 94t15 48.5l104 -33l105 -33q-7 -21 -17.5 -58.5t-20.5 -81t-17.5 -87.5t-7.5 -76q0 -61 19.5 -96t45 -52.5t51.5 -22
t40 -4.5h972zM1565 867q-31 0 -64 -8.5t-60 -28.5t-44.5 -52.5t-17.5 -79.5q0 -58 20.5 -87.5t53.5 -41.5t75 -12.5t86 -0.5h138q-5 60 -12.5 116t-26.5 99.5t-54 69.5t-94 26zM1404 1472l166 168l170 -170l-168 -168z" />
    <glyph glyph-name="uni0641.init" unicode="&#x641;" horiz-adv-x="998" arabic-form="initial" 
d="M-27 -15v219h399q99 0 161 12.5t98 32t51 43t20 46.5h-127q-94 0 -175.5 17.5t-142 59t-95 110t-34.5 170.5q0 81 30 154t83 128t126 86q65 27 140 27h19q78 -3 137.5 -28.5t103 -67t73 -96.5t47.5 -117.5t26 -130.5t9 -135v-138q0 -75 -21.5 -133t-59 -102t-89.5 -73.5
t-113.5 -48.5t-129 -27t-137.5 -8h-399zM526 871q-12 1 -24 1q-27 0 -56.5 -7.5t-56 -29.5t-42 -56.5t-15.5 -81.5q0 -48 22.5 -77.5t57.5 -45.5t78.5 -21.5t84.5 -5.5h131q-2 45 -5.5 98.5t-20 101.5t-52.5 83t-102 41zM356 1482l166 168l170 -170l-168 -168z" />
    <glyph glyph-name="uni0641.medi" unicode="&#x641;" horiz-adv-x="1102" arabic-form="medial" 
d="M562 864q90 0 160.5 -32.5t119.5 -86t75 -122t26 -140.5q0 -89 -24 -152.5t-71 -122.5q16 -1 40.5 -2t51.5 -1.5t52.5 -0.5h43.5h84v-219h-84q-64 0 -131 4.5t-130.5 12t-120.5 18t-101 22.5q-90 -25 -203 -41t-259 -16h-113v219h113h47.5t39.5 0.5t37.5 1t39.5 2.5
q-25 30 -44 60t-31.5 63t-19 70.5t-6.5 81.5q0 76 32 145.5t87.5 121.5t129.5 83t159 31zM360 482v-12q0 -39 13 -72.5t39 -61.5t62.5 -48.5t80.5 -36.5q41 16 76 36t60.5 47.5t40 64t14.5 84.5q0 27 -16 55.5t-42 52.5t-59 39t-67 15q-39 0 -75.5 -13.5t-64.5 -36.5
t-45 -52.5t-17 -60.5zM396 1255l166 168l170 -170l-168 -168z" />
    <glyph glyph-name="uni0641.fina" unicode="&#x641;" horiz-adv-x="2114" arabic-form="final" 
d="M456 -15q-73 0 -138 25t-116 72q-20 19 -41.5 46t-38.5 63.5t-28 83t-11 104.5q0 51 10.5 111.5t23 115t24.5 94t15 48.5l104 -33l105 -33q-7 -21 -17.5 -58.5t-20.5 -81t-17.5 -87.5t-7.5 -76q0 -61 19.5 -96t45 -52.5t51.5 -22t40 -4.5h702h47.5t39.5 0.5t37.5 1
t39.5 2.5q-25 30 -44 61t-31.5 65t-19 72t-6.5 82q0 76 32 145t87.5 120.5t129.5 82t159 30.5q90 0 160.5 -32t119.5 -85t75 -121t26 -140q0 -89 -24 -155t-71 -125q32 -2 67.5 -3t71.5 -1h82v-219h-82q-129 0 -237.5 11.5t-196.5 36.5q-90 -25 -203 -36.5t-259 -11.5h-704z
M1434 487v-12q0 -39 12 -71.5t37.5 -59t61 -46.5t79.5 -36q41 16 74.5 35t57 45.5t36.5 62t13 83.5q0 27 -14.5 55t-38.5 51.5t-55.5 38t-65.5 14.5q-39 0 -75 -13t-63 -35.5t-43 -51.5t-16 -60zM1447 1254l166 168l170 -170l-168 -168z" />
    <glyph glyph-name="veh.isol" unicode="&#x6a4;" horiz-adv-x="2074" arabic-form="isolated" 
d="M1411 204q99 0 162.5 12t101 31.5t53.5 43t21 46.5h-135q-49 0 -100 5.5t-99.5 20.5t-91 40.5t-74.5 65.5t-50.5 96.5t-18.5 132.5q0 84 28.5 155t80 122.5t122 81t154.5 29.5q77 0 136.5 -21.5t104.5 -60t76 -91.5t50 -115.5t28 -132t9 -141.5v-138q0 -117 -46.5 -194.5
t-123.5 -124t-178 -64.5q-96 -18 -199 -18h-985q-73 0 -138 25t-116 72q-20 19 -41.5 46t-38.5 63.5t-28 83t-11 104.5q0 51 10.5 111.5t23 115t24.5 94t15 48.5l104 -33l105 -33q-7 -21 -17.5 -58.5t-20.5 -81t-17.5 -87.5t-7.5 -76q0 -61 19.5 -96t45 -52.5t51.5 -22
t40 -4.5h972zM1565 867q-31 0 -64 -8.5t-60 -28.5t-44.5 -52.5t-17.5 -79.5q0 -58 20.5 -87.5t53.5 -41.5t75 -12.5t86 -0.5h138q-5 60 -12.5 116t-26.5 99.5t-54 69.5t-94 26zM1492 1362l-160 -162l-160 160l160 162zM1921 1366l-158 -160l-165 158l162 162zM1700 1648
l-150 -150l-148 148l150 150z" />
    <glyph glyph-name="veh.init" unicode="&#x6a4;" horiz-adv-x="998" arabic-form="initial" 
d="M-27 -15v219h399q99 0 161 12.5t98 32t51 43t20 46.5h-127q-94 0 -175.5 17.5t-142 59t-95 110t-34.5 170.5q0 81 30 154t83 128t126 86q65 27 140 27h19q78 -3 137.5 -28.5t103 -67t73 -96.5t47.5 -117.5t26 -130.5t9 -135v-138q0 -75 -21.5 -133t-59 -102t-89.5 -73.5
t-113.5 -48.5t-129 -27t-137.5 -8h-399zM526 871q-12 1 -24 1q-27 0 -56.5 -7.5t-56 -29.5t-42 -56.5t-15.5 -81.5q0 -48 22.5 -77.5t57.5 -45.5t78.5 -21.5t84.5 -5.5h131q-2 45 -5.5 98.5t-20 101.5t-52.5 83t-102 41zM473 1381l-160 -162l-160 160l160 162zM902 1385
l-158 -160l-165 158l162 162zM681 1667l-150 -150l-148 148l150 150z" />
    <glyph glyph-name="veh.medi" unicode="&#x6a4;" horiz-adv-x="1102" arabic-form="medial" 
d="M562 864q90 0 160.5 -32.5t119.5 -86t75 -122t26 -140.5q0 -89 -24 -152.5t-71 -122.5q16 -1 40.5 -2t51.5 -1.5t52.5 -0.5h43.5h84v-219h-84q-64 0 -131 4.5t-130.5 12t-120.5 18t-101 22.5q-90 -25 -203 -41t-259 -16h-113v219h113h47.5t39.5 0.5t37.5 1t39.5 2.5
q-25 30 -44 60t-31.5 63t-19 70.5t-6.5 81.5q0 76 32 145.5t87.5 121.5t129.5 83t159 31zM360 482v-12q0 -39 13 -72.5t39 -61.5t62.5 -48.5t80.5 -36.5q41 16 76 36t60.5 47.5t40 64t14.5 84.5q0 27 -16 55.5t-42 52.5t-59 39t-67 15q-39 0 -75.5 -13.5t-64.5 -36.5
t-45 -52.5t-17 -60.5zM499 1178l-160 -162l-160 160l160 162zM928 1182l-158 -160l-165 158l162 162zM707 1464l-150 -150l-148 148l150 150z" />
    <glyph glyph-name="veh.fina" unicode="&#x6a4;" horiz-adv-x="2114" arabic-form="final" 
d="M456 -15q-73 0 -138 25t-116 72q-20 19 -41.5 46t-38.5 63.5t-28 83t-11 104.5q0 51 10.5 111.5t23 115t24.5 94t15 48.5l104 -33l105 -33q-7 -21 -17.5 -58.5t-20.5 -81t-17.5 -87.5t-7.5 -76q0 -61 19.5 -96t45 -52.5t51.5 -22t40 -4.5h702h47.5t39.5 0.5t37.5 1
t39.5 2.5q-25 30 -44 61t-31.5 65t-19 72t-6.5 82q0 76 32 145t87.5 120.5t129.5 82t159 30.5q90 0 160.5 -32t119.5 -85t75 -121t26 -140q0 -89 -24 -155t-71 -125q32 -2 67.5 -3t71.5 -1h82v-219h-82q-129 0 -237.5 11.5t-196.5 36.5q-90 -25 -203 -36.5t-259 -11.5h-704z
M1434 487v-12q0 -39 12 -71.5t37.5 -59t61 -46.5t79.5 -36q41 16 74.5 35t57 45.5t36.5 62t13 83.5q0 27 -14.5 55t-38.5 51.5t-55.5 38t-65.5 14.5q-39 0 -75 -13t-63 -35.5t-43 -51.5t-16 -60zM1554 1179l-160 -162l-160 160l160 162zM1983 1183l-158 -160l-165 158
l162 162zM1762 1465l-150 -150l-148 148l150 150z" />
    <glyph glyph-name="uni0642.init" unicode="&#x642;" horiz-adv-x="998" arabic-form="initial" 
d="M-27 -15v219h399q99 0 161 12.5t98 32t51 43t20 46.5h-127q-94 0 -175.5 17.5t-142 59t-95 110t-34.5 170.5q0 81 30 154t83 128t126 86q65 27 140 27h19q78 -3 137.5 -28.5t103 -67t73 -96.5t47.5 -117.5t26 -130.5t9 -135v-138q0 -75 -21.5 -133t-59 -102t-89.5 -73.5
t-113.5 -48.5t-129 -27t-137.5 -8h-399zM526 871q-12 1 -24 1q-27 0 -56.5 -7.5t-56 -29.5t-42 -56.5t-15.5 -81.5q0 -48 22.5 -77.5t57.5 -45.5t78.5 -21.5t84.5 -5.5h131q-2 45 -5.5 98.5t-20 101.5t-52.5 83t-102 41zM696 1271l-158 160l156 162l162 -162zM294 1273
l-158 160l155 162l162 -162z" />
    <glyph glyph-name="uni0642.medi" unicode="&#x642;" horiz-adv-x="1102" arabic-form="medial" 
d="M562 864q90 0 160.5 -32.5t119.5 -86t75 -122t26 -140.5q0 -89 -24 -152.5t-71 -122.5q16 -1 40.5 -2t51.5 -1.5t52.5 -0.5h43.5h84v-219h-84q-64 0 -131 4.5t-130.5 12t-120.5 18t-101 22.5q-90 -25 -203 -41t-259 -16h-113v219h113h47.5t39.5 0.5t37.5 1t39.5 2.5
q-25 30 -44 60t-31.5 63t-19 70.5t-6.5 81.5q0 76 32 145.5t87.5 121.5t129.5 83t159 31zM360 482v-12q0 -39 13 -72.5t39 -61.5t62.5 -48.5t80.5 -36.5q41 16 76 36t60.5 47.5t40 64t14.5 84.5q0 27 -16 55.5t-42 52.5t-59 39t-67 15q-39 0 -75.5 -13.5t-64.5 -36.5
t-45 -52.5t-17 -60.5zM739 1075l-158 160l156 162l162 -162zM337 1077l-158 160l155 162l162 -162z" />
    <glyph glyph-name="uni0642" unicode="&#x642;" horiz-adv-x="1598" arabic-form="isolated" 
d="M692 -552q-78 0 -151 18t-137 52.5t-117.5 84t-92.5 112.5q-48 77 -73.5 162t-25.5 188q0 128 36 266t116 300l196 -93q-68 -140 -99 -254.5t-31 -219.5q0 -73 16.5 -127.5t49.5 -106.5q48 -78 130 -120.5t183 -42.5h75q148 0 244 23t153 70q23 19 40.5 40.5t29 48t18 60
t7.5 76.5h-158q-73 0 -147.5 20t-135 67.5t-99 126t-38.5 194.5q0 90 26.5 174t78.5 149.5t129.5 105t178.5 39.5q102 0 174.5 -41.5t119 -110.5t68 -158t21.5 -185v-366q0 -72 -11 -132t-32.5 -110t-54.5 -91.5t-78 -77.5q-44 -35 -97 -61t-117 -43.5t-140.5 -26.5
t-169.5 -10h-85zM1094 654q-46 0 -82.5 -18.5t-62 -52.5t-39 -82t-13.5 -108t19.5 -95.5t54.5 -58.5q17 -11 36.5 -17.5t37.5 -10.5t32.5 -5.5t23.5 -1.5h158v162q0 70 -9 118.5t-23.5 80.5t-32.5 50t-36.5 26.5t-35.5 10.5t-28 2zM1271 1041l-158 160l156 162l162 -162z
M869 1043l-158 160l155 162l162 -162z" />
    <glyph glyph-name="uni0642.fina" unicode="&#x642;" horiz-adv-x="1645" arabic-form="final" 
d="M682 -552q-78 0 -151 18t-137 52.5t-117.5 84t-92.5 112.5q-48 77 -73.5 162t-25.5 188q0 128 36 266t116 300l196 -93q-68 -140 -99 -254.5t-31 -219.5q0 -73 16.5 -127.5t49.5 -106.5q48 -78 130 -120.5t183 -42.5h75q148 0 244 23t153 70q23 19 40.5 40.5t29 48t18 60
t7.5 76.5h-158q-73 0 -147.5 20t-135 67.5t-99 126t-38.5 194.5q0 90 26.5 174t78.5 149.5t129.5 105t178.5 39.5q102 0 174.5 -41.5t119 -110.5t68 -158t21.5 -185v-162h198v-219h-198q-1 -69 -12.5 -126.5t-33 -105.5t-54.5 -88.5t-76 -75.5q-44 -35 -97 -61t-117 -43.5
t-140.5 -26.5t-169.5 -10h-85zM1084 654q-46 0 -82.5 -18.5t-62 -52.5t-39 -82t-13.5 -108t19.5 -95.5t54.5 -58.5q17 -11 36.5 -17.5t37.5 -10.5t32.5 -5.5t23.5 -1.5h158v162q0 70 -9 118.5t-23.5 80.5t-32.5 50t-36.5 26.5t-35.5 10.5t-28 2zM1269 1038l-158 160l156 162
l162 -162zM867 1040l-158 160l155 162l162 -162z" />
    <glyph glyph-name="uni0646.init" unicode="&#x646;" horiz-adv-x="679" arabic-form="initial" 
d="M541 818q2 -6 8 -32.5t14.5 -65.5t17 -86t16 -94.5t12.5 -92t5 -77.5q0 -99 -33 -172t-85.5 -120t-118.5 -70t-132 -23h-270v219h277q13 0 38.5 4t50.5 20.5t43.5 49.5t18.5 92q0 22 -4 55t-10 71t-14 78t-15.5 75t-14.5 63t-11 43zM202 1227l166 168l170 -170l-168 -168
z" />
    <glyph glyph-name="uni0646.medi" unicode="&#x646;" horiz-adv-x="796" arabic-form="medial" 
d="M815 204v-219h-73q-88 0 -158 24.5t-115 72.5q-54 -47 -131.5 -72t-175.5 -25h-183v219h183q66 0 105.5 13t59.5 32.5t26 43t6 45.5v339h218v-332q0 -34 10.5 -57.5t26.5 -39t35 -24.5t37.5 -13.5t33.5 -5.5t22 -1h73zM229 1137l166 168l170 -170l-168 -168z" />
    <glyph glyph-name="uni0646" unicode="&#x646;" horiz-adv-x="1561" arabic-form="isolated" 
d="M692 -553q-78 0 -150.5 18t-136 52.5t-117.5 84t-94 112.5q-47 77 -72.5 170t-25.5 195q0 65 9 129t27 131.5t46.5 139.5t67.5 153l197 -94q-34 -70 -58.5 -130.5t-40.5 -116t-23.5 -107.5t-7.5 -104q0 -148 66 -251q50 -78 130.5 -120.5t182.5 -42.5h203q111 0 180.5 23
t108 65.5t52.5 102t14 132.5v690h219v-690q0 -270 -144.5 -406t-429.5 -136h-203zM684 755l166 168l170 -170l-168 -168z" />
    <glyph glyph-name="uni0646.fina" unicode="&#x646;" horiz-adv-x="1680" arabic-form="final" 
d="M688 -553q-78 0 -150.5 18t-136 52.5t-117.5 84t-94 112.5q-47 77 -72.5 162t-25.5 187q0 131 39.5 271t117.5 303l197 -94q-69 -141 -103 -257t-34 -222q0 -73 16.5 -128t49.5 -107q50 -78 130.5 -120.5t182.5 -42.5h207q111 0 180.5 20.5t108 60t52.5 96.5t14 130v703
h219v-326q2 -73 46.5 -109.5t117.5 -36.5h69v-219h-69q-42 0 -85 4.5t-79 30.5v-47q0 -270 -144.5 -398t-429.5 -128h-207zM683 751l166 168l170 -170l-168 -168z" />
    <glyph glyph-name="uni06C0" unicode="&#x6c0;" horiz-adv-x="1007" arabic-form="isolated" 
d="M488 -15q-93 0 -170.5 28.5t-134 79t-87.5 119.5t-31 151q0 83 21.5 152t58.5 130t85.5 117t101.5 112l-63 70l162 147q23 -26 51.5 -56.5t52.5 -56.5q71 -76 139 -150.5t121 -149t85 -149.5q31 -74 31 -147v-5q-1 -85 -33.5 -157.5t-95.5 -129.5q-58 -50 -132 -77.5
t-162 -27.5zM476 738q-41 -46 -76 -89t-61 -88t-40.5 -93.5t-14.5 -104.5q0 -41 17 -71t45.5 -49.5t65.5 -29t76 -9.5q96 0 150 47.5t54 125.5q0 47 -18 93t-48 91t-69 89.5t-81 87.5zM514 1839q20 0 43 -2.5t49 -9.5l-29 -109q-17 5 -32.5 6.5t-29.5 1.5q-53 0 -87 -28
q-37 -31 -45 -89q56 -10 89 -15.5t53 -10.5q17 -5 28 -9t19 -10q30 -20 30 -58q0 -9 -0.5 -23t-3.5 -31.5t-10 -36.5t-20 -37q-58 -85 -204 -85h-109v112h109q36 0 59.5 6t37 16t19.5 22.5t8 25.5q-25 5 -69 13t-103 18l-43 7l-4 43q-1 13 -1 25q0 55 20.5 109.5t67.5 94.5
q24 20 62.5 37t95.5 17z" />
    <glyph glyph-name="uni06C0.fina" unicode="&#x6c0;" horiz-adv-x="1258" arabic-form="final" 
d="M1274 -15h-44q-78 0 -150.5 16.5t-133.5 49t-108.5 81t-74.5 112.5q-24 -45 -63.5 -77.5t-92.5 -54.5q-67 -28 -133 -33q-20 -2 -40 -2q-45 0 -97 12t-104.5 45t-91.5 82t-61 112.5t-22 139.5q0 106 41.5 191t110 150t157.5 111.5t184 76.5q-5 26 -10 48.5t-9 46.5
l210 50l178 -719q18 -72 55.5 -115t82 -66.5t90.5 -30.5t82 -7h44v-219zM657 471q4 22 4 45q0 16 -3.5 43.5t-12.5 68t-20 80.5t-19 78q-170 -53 -261 -135t-91 -184q0 -53 25.5 -89t64.5 -55.5t87 -21.5h10q42 0 81 14q57 24 90.5 59.5t44.5 96.5zM710 1907q20 0 43 -2.5
t49 -9.5l-29 -109q-17 5 -32.5 6.5t-29.5 1.5q-53 0 -87 -28q-37 -31 -45 -89q56 -10 89 -15.5t53 -10.5q17 -5 28 -9t19 -10q30 -20 30 -58q0 -9 -0.5 -23t-3.5 -31.5t-10 -36.5t-20 -37q-58 -85 -204 -85h-109v112h109q36 0 59.5 6t37 16t19.5 22.5t8 25.5q-25 5 -69 13
t-103 18l-43 7l-4 43q-1 13 -1 25q0 55 20.5 109.5t67.5 94.5q24 20 62.5 37t95.5 17z" />
    <glyph glyph-name="uni0624" unicode="&#x624;" horiz-adv-x="1054" arabic-form="isolated" 
d="M179 -333q155 0 254 22t156 69q23 19 40.5 40.5t29 49t18 61t7.5 76.5h-169q-73 0 -147.5 20.5t-135 68.5t-99 127t-38.5 195q0 68 11.5 122t29.5 96.5t40 73.5t43 54q57 57 130.5 88.5t158.5 31.5q74 0 138.5 -23t115.5 -69q69 -65 104.5 -164t35.5 -237v-369
q0 -72 -11 -132.5t-32.5 -111t-54.5 -92t-78 -77.5q-45 -35 -99 -61.5t-121 -43.5t-147.5 -25.5t-179.5 -8.5v219zM508 643q-92 0 -143 -63.5t-51 -183.5q0 -60 18 -97t53 -60q17 -11 36.5 -17.5t37.5 -10.5t32.5 -5.5t23.5 -1.5h169v165q0 70 -10 117.5t-26 77.5
t-35.5 46.5t-39 23.5t-37 8t-28.5 1zM187 1014v133l118 35q-34 31 -55.5 71t-21.5 86q0 33 11.5 65.5t31.5 59.5t48 46.5t60 28.5h-1q17 5 33.5 7.5t33.5 2.5q38 0 69 -10.5t60 -21.5l-27 -110q-26 6 -51 12.5t-49 6.5q-15 0 -30 -5q-15 -6 -29.5 -15.5t-24.5 -22.5t-13 -29
q-2 -6 -2 -13q0 -11 4 -22q9 -28 40.5 -47.5t86.5 -19.5q10 0 22.5 1t32 5.5t48.5 12t72 21.5l8 -126z" />
    <glyph glyph-name="uni0624.fina" unicode="&#x624;" horiz-adv-x="1093" arabic-form="final" 
d="M219 -333q155 0 254 22t156 69q23 19 40.5 40.5t29 49t18 61t7.5 76.5h-169q-73 0 -147.5 20.5t-135 68.5t-99 127t-38.5 195q0 68 11.5 122t29.5 96.5t40 73.5t43 54q57 57 130.5 88.5t158.5 31.5q74 0 138.5 -23t115.5 -69q69 -65 104.5 -164t35.5 -237v-165h183v-219
h-183q-2 -138 -45.5 -233t-130.5 -165q-45 -35 -99 -61.5t-121 -43.5t-147.5 -25.5t-179.5 -8.5v219zM548 643q-92 0 -143 -63.5t-51 -183.5q0 -60 18 -97t53 -60q17 -11 36.5 -17.5t37.5 -10.5t32.5 -5.5t23.5 -1.5h169v165q0 70 -10 117.5t-26 77.5t-35.5 46.5t-39 23.5
t-37 8t-28.5 1zM276 1022v133l118 35q-34 31 -55.5 71t-21.5 86q0 33 11.5 65.5t31.5 59.5t48 46.5t60 28.5h-1q17 5 33.5 7.5t33.5 2.5q38 0 69 -10.5t60 -21.5l-27 -110q-26 6 -51 12.5t-49 6.5q-15 0 -30 -5q-15 -6 -29.5 -15.5t-24.5 -22.5t-13 -29q-2 -6 -2 -13
q0 -11 4 -22q9 -28 40.5 -47.5t86.5 -19.5q10 0 22.5 1t32 5.5t48.5 12t72 21.5l8 -126z" />
    <glyph glyph-name="uni0649.init" unicode="&#x649;" horiz-adv-x="679" arabic-form="initial" 
d="M541 818q2 -6 8 -32.5t14.5 -65.5t17 -86t16 -94.5t12.5 -92t5 -77.5q0 -99 -33 -172t-85.5 -120t-118.5 -70t-132 -23h-270v219h277q13 0 38.5 4t50.5 20.5t43.5 49.5t18.5 92q0 22 -4 55t-10 71t-14 78t-15.5 75t-14.5 63t-11 43z" />
    <glyph glyph-name="uni0649.medi" unicode="&#x649;" horiz-adv-x="796" arabic-form="medial" 
d="M815 204v-219h-73q-88 0 -158 24.5t-115 72.5q-54 -47 -131.5 -72t-175.5 -25h-183v219h183q66 0 105.5 13t59.5 32.5t26 43t6 45.5v339h218v-332q0 -34 10.5 -57.5t26.5 -39t35 -24.5t37.5 -13.5t33.5 -5.5t22 -1h73z" />
    <glyph glyph-name="uni064A.init" unicode="&#x64a;" horiz-adv-x="892" arabic-form="initial" 
d="M721 818q2 -6 8 -32.5t14.5 -65.5t17 -86t16 -94.5t12.5 -92t5 -77.5q0 -99 -33 -172t-85.5 -120t-118.5 -70t-132 -23h-445v219h452q13 0 38.5 4t50.5 20.5t43.5 49.5t18.5 92q0 22 -4 55t-10 71t-14 78t-15.5 75t-14.5 63t-11 43zM610 -551l-158 160l156 162l162 -162z
M229 -549l-158 160l156 162l162 -162z" />
    <glyph glyph-name="uni064A.medi" unicode="&#x64a;" horiz-adv-x="1061" arabic-form="medial" 
d="M1083 204v-219h-160q-88 0 -158 24.5t-115 72.5q-54 -47 -131.5 -72t-175.5 -25h-361v219h361q66 0 105.5 13t59.5 32.5t26 43t6 45.5v339h218v-332q0 -34 10.5 -57.5t26.5 -39t35 -24.5t37.5 -13.5t33.5 -5.5t22 -1h160zM658 -555l-158 160l156 162l162 -162zM277 -553
l-158 160l156 162l162 -162z" />
    <glyph glyph-name="uni064A" unicode="&#x64a;" horiz-adv-x="1626" arabic-form="isolated" 
d="M903 -346q96 0 166 16t115 51t66.5 91t21.5 136q-91 24 -180 49q-38 10 -79.5 21t-83 22.5t-81 21.5t-73.5 19q-39 97 -45 193q-2 23 -2 46q0 71 19.5 148t68.5 152t122 130t169 86.5t212 31.5q48 0 96 -7t103 -21l-55 -211q-42 12 -77.5 17.5t-71.5 5.5
q-82 0 -152.5 -26.5t-121 -76t-75.5 -119.5q-20 -54 -20 -117q0 -20 2 -40q42 -11 81.5 -21.5t82 -21.5t90.5 -23t107 -26q91 -23 131 -76t40 -133q0 -135 -31 -236t-100 -168t-178.5 -101t-266.5 -34h-211q-80 0 -153.5 18.5t-137.5 53t-117.5 84t-94.5 111.5
q-97 157 -97 367q0 130 39 272t119 308l194 -94q-67 -142 -100 -259.5t-33 -221.5q0 -149 66 -254q48 -80 131 -122t184 -42h211zM1032 -973l-158 160l156 162l162 -162zM651 -971l-158 160l156 162l162 -162z" />
    <glyph glyph-name="uni064A.fina" unicode="&#x64a;" horiz-adv-x="1786" arabic-form="final" 
d="M1497 -15q36 -38 53.5 -79.5t17.5 -79.5q0 -90 -49.5 -162.5t-134.5 -123.5t-198 -79t-240 -28h-256q-80 0 -153.5 18.5t-137.5 53t-117.5 84t-94.5 111.5q-97 157 -97 367q0 130 35.5 269t115.5 305l194 -94q-33 -71 -57 -134.5t-39.5 -122t-22.5 -112.5t-7 -106
q0 -149 66 -254q48 -80 131 -122t184 -42h256q80 0 151 16t124.5 43t85.5 63.5t35 78.5q-29 33 -77 56.5t-107.5 38.5t-127.5 23.5t-138 11.5l7 219h907v-219h-309zM1056 -1007l-158 160l156 162l162 -162zM675 -1005l-158 160l156 162l162 -162z" />
    <glyph glyph-name="uni06CC" unicode="&#x6cc;" horiz-adv-x="1626" arabic-form="isolated" 
d="M903 -346q96 0 166 16t115 51t66.5 91t21.5 136q-91 24 -180 49q-38 10 -79.5 21t-83 22.5t-81 21.5t-73.5 19q-39 97 -45 193q-2 23 -2 46q0 71 19.5 148t68.5 152t122 130t169 86.5t212 31.5q48 0 96 -7t103 -21l-55 -211q-42 12 -77.5 17.5t-71.5 5.5
q-82 0 -152.5 -26.5t-121 -76t-75.5 -119.5q-20 -54 -20 -117q0 -20 2 -40q42 -11 81.5 -21.5t82 -21.5t90.5 -23t107 -26q91 -23 131 -76t40 -133q0 -135 -31 -236t-100 -168t-178.5 -101t-266.5 -34h-211q-80 0 -153.5 18.5t-137.5 53t-117.5 84t-94.5 111.5
q-97 157 -97 367q0 130 39 272t119 308l194 -94q-67 -142 -100 -259.5t-33 -221.5q0 -149 66 -254q48 -80 131 -122t184 -42h211z" />
    <glyph glyph-name="uni06CC.init" unicode="&#x6cc;" horiz-adv-x="892" arabic-form="initial" 
d="M721 818q2 -6 8 -32.5t14.5 -65.5t17 -86t16 -94.5t12.5 -92t5 -77.5q0 -99 -33 -172t-85.5 -120t-118.5 -70t-132 -23h-445v219h452q13 0 38.5 4t50.5 20.5t43.5 49.5t18.5 92q0 22 -4 55t-10 71t-14 78t-15.5 75t-14.5 63t-11 43zM599 -544l-158 160l156 162l162 -162z
M218 -542l-158 160l156 162l162 -162z" />
    <glyph glyph-name="uni06CC.medi" unicode="&#x6cc;" horiz-adv-x="1061" arabic-form="medial" 
d="M1083 204v-219h-160q-88 0 -158 24.5t-115 72.5q-54 -47 -131.5 -72t-175.5 -25h-361v219h361q66 0 105.5 13t59.5 32.5t26 43t6 45.5v339h218v-332q0 -34 10.5 -57.5t26.5 -39t35 -24.5t37.5 -13.5t33.5 -5.5t22 -1h160zM646 -550l-158 160l156 162l162 -162zM265 -548
l-158 160l156 162l162 -162z" />
    <glyph glyph-name="uni06CC.fina" unicode="&#x6cc;" horiz-adv-x="1786" arabic-form="final" 
d="M1497 -15q36 -38 53.5 -79.5t17.5 -79.5q0 -90 -49.5 -162.5t-134.5 -123.5t-198 -79t-240 -28h-256q-80 0 -153.5 18.5t-137.5 53t-117.5 84t-94.5 111.5q-97 157 -97 367q0 130 35.5 269t115.5 305l194 -94q-33 -71 -57 -134.5t-39.5 -122t-22.5 -112.5t-7 -106
q0 -149 66 -254q48 -80 131 -122t184 -42h256q80 0 151 16t124.5 43t85.5 63.5t35 78.5q-29 33 -77 56.5t-107.5 38.5t-127.5 23.5t-138 11.5l7 219h907v-219h-309z" />
    <glyph glyph-name="uni06D3" unicode="&#x6d3;" horiz-adv-x="1681" arabic-form="isolated" 
d="M1649 -349v-218h-1160q-87 0 -162 28t-130 79.5t-86 124.5t-31 163q0 79 34 148t90.5 119.5t130.5 79.5t154 29h418v-219h-410q-40 0 -79.5 -12.5t-70.5 -35t-50 -53.5t-19 -68t19 -67.5t49 -52t67.5 -33.5t75.5 -12h1160zM187 320v133l118 35q-34 31 -55.5 71t-21.5 86
q0 33 11.5 65.5t31.5 59.5t48 46.5t60 28.5h-1q17 5 33.5 7.5t33.5 2.5q38 0 69 -10.5t60 -21.5l-27 -110q-26 6 -51 12.5t-49 6.5q-15 0 -30 -5q-15 -6 -29.5 -15.5t-24.5 -22.5t-13 -29q-2 -6 -2 -13q0 -11 4 -22q9 -28 40.5 -47.5t86.5 -19.5q10 0 22.5 1t32 5.5t48.5 12
t72 21.5l8 -126z" />
    <glyph glyph-name="uni06D3.fina" unicode="&#x6d3;" horiz-adv-x="1339" arabic-form="final" 
d="M1313 -349v-218h-814q-87 0 -162 28t-130 79.5t-86 124.5t-31 163q0 79 34 148t90.5 119.5t130.5 79.5t154 29h855v-219h-847q-40 0 -78 -12.5t-67 -35t-47 -53.5t-18 -68t17.5 -67.5t46 -52t64.5 -33.5t74 -12h814zM199 292v133l118 35q-34 31 -55.5 71t-21.5 86
q0 33 11.5 65.5t31.5 59.5t48 46.5t60 28.5h-1q17 5 33.5 7.5t33.5 2.5q38 0 69 -10.5t60 -21.5l-27 -110q-26 6 -51 12.5t-49 6.5q-15 0 -30 -5q-15 -6 -29.5 -15.5t-24.5 -22.5t-13 -29q-2 -6 -2 -13q0 -11 4 -22q9 -28 40.5 -47.5t86.5 -19.5q10 0 22.5 1t32 5.5t48.5 12
t72 21.5l8 -126z" />
    <glyph glyph-name="uni0626" unicode="&#x626;" horiz-adv-x="1626" arabic-form="isolated" 
d="M903 -346q96 0 166 16t115 51t66.5 91t21.5 136q-91 24 -180 49q-38 10 -79.5 21t-83 22.5t-81 21.5t-73.5 19q-39 97 -45 193q-2 23 -2 46q0 71 19.5 148t68.5 152t122 130t169 86.5t212 31.5q48 0 96 -7t103 -21l-55 -211q-42 12 -77.5 17.5t-71.5 5.5
q-82 0 -152.5 -26.5t-121 -76t-75.5 -119.5q-20 -54 -20 -117q0 -20 2 -40q42 -11 81.5 -21.5t82 -21.5t90.5 -23t107 -26q91 -23 131 -76t40 -133q0 -135 -31 -236t-100 -168t-178.5 -101t-266.5 -34h-211q-80 0 -153.5 18.5t-137.5 53t-117.5 84t-94.5 111.5
q-97 157 -97 367q0 130 39 272t119 308l194 -94q-67 -142 -100 -259.5t-33 -221.5q0 -149 66 -254q48 -80 131 -122t184 -42h211zM114 755v133l118 35q-34 31 -55.5 71t-21.5 86q0 33 11.5 65.5t31.5 59.5t48 46.5t60 28.5h-1q17 5 33.5 7.5t33.5 2.5q38 0 69 -10.5
t60 -21.5l-27 -110q-26 6 -51 12.5t-49 6.5q-15 0 -30 -5q-15 -6 -29.5 -15.5t-24.5 -22.5t-13 -29q-2 -6 -2 -13q0 -11 4 -22q9 -28 40.5 -47.5t86.5 -19.5q10 0 22.5 1t32 5.5t48.5 12t72 21.5l8 -126z" />
    <glyph glyph-name="uni0626.init" unicode="&#x626;" horiz-adv-x="892" arabic-form="initial" 
d="M721 818q2 -6 8 -32.5t14.5 -65.5t17 -86t16 -94.5t12.5 -92t5 -77.5q0 -99 -33 -172t-85.5 -120t-118.5 -70t-132 -23h-445v219h452q13 0 38.5 4t50.5 20.5t43.5 49.5t18.5 92q0 22 -4 55t-10 71t-14 78t-15.5 75t-14.5 63t-11 43zM145 859v133l118 35q-34 31 -55.5 71
t-21.5 86q0 33 11.5 65.5t31.5 59.5t48 46.5t60 28.5h-1q17 5 33.5 7.5t33.5 2.5q38 0 69 -10.5t60 -21.5l-27 -110q-26 6 -51 12.5t-49 6.5q-15 0 -30 -5q-15 -6 -29.5 -15.5t-24.5 -22.5t-13 -29q-2 -6 -2 -13q0 -11 4 -22q9 -28 40.5 -47.5t86.5 -19.5q10 0 22.5 1
t32 5.5t48.5 12t72 21.5l8 -126z" />
    <glyph glyph-name="uni0626.medi" unicode="&#x626;" horiz-adv-x="1061" arabic-form="medial" 
d="M1083 204v-219h-160q-88 0 -158 24.5t-115 72.5q-54 -47 -131.5 -72t-175.5 -25h-361v219h361q66 0 105.5 13t59.5 32.5t26 43t6 45.5v339h218v-332q0 -34 10.5 -57.5t26.5 -39t35 -24.5t37.5 -13.5t33.5 -5.5t22 -1h160zM208 802v133l118 35q-34 31 -55.5 71t-21.5 86
q0 33 11.5 65.5t31.5 59.5t48 46.5t60 28.5h-1q17 5 33.5 7.5t33.5 2.5q38 0 69 -10.5t60 -21.5l-27 -110q-26 6 -51 12.5t-49 6.5q-15 0 -30 -5q-15 -6 -29.5 -15.5t-24.5 -22.5t-13 -29q-2 -6 -2 -13q0 -11 4 -22q9 -28 40.5 -47.5t86.5 -19.5q10 0 22.5 1t32 5.5t48.5 12
t72 21.5l8 -126z" />
    <glyph glyph-name="uni0626.fina" unicode="&#x626;" horiz-adv-x="1786" arabic-form="final" 
d="M1502 -15q36 -38 53.5 -79.5t17.5 -79.5q0 -90 -49.5 -162.5t-134.5 -123.5t-198 -79t-240 -28h-256q-80 0 -153.5 18.5t-137.5 53t-117.5 84t-94.5 111.5q-97 157 -97 367q0 130 35.5 269t115.5 305l194 -94q-33 -71 -57 -134.5t-39.5 -122t-22.5 -112.5t-7 -106
q0 -149 66 -254q48 -80 131 -122t184 -42h256q80 0 151 16t124.5 43t85.5 63.5t35 78.5q-29 33 -77 56.5t-107.5 38.5t-127.5 23.5t-138 11.5l7 219h907v-219h-309zM693 317v133l118 35q-34 31 -55.5 71t-21.5 86q0 33 11.5 65.5t31.5 59.5t48 46.5t60 28.5h-1
q17 5 33.5 7.5t33.5 2.5q38 0 69 -10.5t60 -21.5l-27 -110q-26 6 -51 12.5t-49 6.5q-15 0 -30 -5q-15 -6 -29.5 -15.5t-24.5 -22.5t-13 -29q-2 -6 -2 -13q0 -11 4 -22q9 -28 40.5 -47.5t86.5 -19.5q10 0 22.5 1t32 5.5t48.5 12t72 21.5l8 -126z" />
    <glyph glyph-name="uni06C2.fina" unicode="&#x6c2;" horiz-adv-x="1299" 
d="M1307 -15h-73q-75 0 -155.5 20t-152 65t-127.5 117.5t-81 176.5q-18 73 -33.5 131.5t-31 115t-32 116.5t-34.5 137l-104 -22q-100 -26 -134 -86q-16 -28 -23 -63t-7 -77q0 -33 8.5 -83.5t24 -114.5t36 -138.5t44.5 -156.5l-211 -59q-25 89 -47 169t-38 149t-25.5 128
t-9.5 106q0 68 13.5 131t45.5 117q42 72 109.5 120t161.5 70q20 5 56.5 13t73 15.5t64.5 12.5t31 5l120 -78q22 -96 42 -174.5t38.5 -148.5t36.5 -137.5t37 -141.5q19 -68 56 -110t81 -65.5t88.5 -32t78.5 -8.5h73v-219zM144 1144v133l118 35q-34 31 -55.5 71t-21.5 86
q0 33 11.5 65.5t31.5 59.5t48 46.5t60 28.5h-1q17 5 33.5 7.5t33.5 2.5q38 0 69 -10.5t60 -21.5l-27 -110q-26 6 -51 12.5t-49 6.5q-15 0 -30 -5q-15 -6 -29.5 -15.5t-24.5 -22.5t-13 -29q-2 -6 -2 -13q0 -11 4 -22q9 -28 40.5 -47.5t86.5 -19.5q10 0 22.5 1t32 5.5t48.5 12
t72 21.5l8 -126z" />
    <glyph glyph-name="uni06C1" unicode="&#x6c1;" horiz-adv-x="1007" arabic-form="isolated" 
d="M503 -15q-93 0 -170.5 28.5t-134 79t-87.5 119.5t-31 151q0 83 21.5 152t58.5 130t85.5 117t101.5 112l-63 70l162 147q23 -26 51.5 -56.5t52.5 -56.5q71 -76 139 -150.5t121 -149t85 -149.5q31 -74 31 -147v-5q-1 -85 -33.5 -157.5t-95.5 -129.5q-58 -50 -132 -77.5
t-162 -27.5zM491 738q-41 -46 -76 -89t-61 -88t-40.5 -93.5t-14.5 -104.5q0 -41 17 -71t45.5 -49.5t65.5 -29t76 -9.5q96 0 150 47.5t54 125.5q0 47 -18 93t-48 91t-69 89.5t-81 87.5z" />
    <glyph glyph-name="uni06C3.fina" unicode="&#x6c3;" horiz-adv-x="1299" 
d="M1317 -15h-73q-75 0 -155.5 20t-152 65t-127.5 117.5t-81 176.5q-18 73 -33.5 131.5t-31 115t-32 116.5t-34.5 137l-104 -22q-100 -26 -134 -86q-16 -28 -23 -63t-7 -77q0 -33 8.5 -83.5t24 -114.5t36 -138.5t44.5 -156.5l-211 -59q-25 89 -47 169t-38 149t-25.5 128
t-9.5 106q0 68 13.5 131t45.5 117q42 72 109.5 120t161.5 70q20 5 56.5 13t73 15.5t64.5 12.5t31 5l120 -78q22 -96 42 -174.5t38.5 -148.5t36.5 -137.5t37 -141.5q19 -68 56 -110t81 -65.5t88.5 -32t78.5 -8.5h73v-219zM671 1216l-158 160l156 162l162 -162zM269 1218
l-158 160l155 162l162 -162z" />
    <glyph glyph-name="uni06BE.fina" unicode="&#x6be;" horiz-adv-x="1744" arabic-form="final" 
d="M1052 1141q99 -103 185 -198q37 -41 74 -84t70.5 -84t60.5 -78t43 -65q37 -60 51 -122.5t14 -122.5q0 -27 -7 -64t-15 -68q-4 -13 -8.5 -26.5t-9.5 -24.5h270v-219l-645 1q-33 0 -79 6t-95.5 16.5t-97.5 25.5t-85 34q-48 -15 -118.5 -29.5t-151.5 -26t-165.5 -19
t-160.5 -7.5l43 218l281 32q-38 29 -66.5 68.5t-48 84.5t-29.5 93t-10 94q0 79 29 146.5t80.5 116.5t122 76.5t153.5 27.5q62 0 114.5 -17.5t95 -47.5t74.5 -69t53.5 -81t32.5 -85t11 -81q0 -100 -35 -181.5t-104 -144.5q36 -13 77 -21t79 -8q28 0 55 5t50.5 17.5t43.5 33
t35 50.5q12 25 12 53q0 51 -28 115.5t-76.5 135.5t-113 145.5t-137.5 146.5l-82 79zM570 576q0 -40 9.5 -71.5t31.5 -58.5t56 -51.5t84 -50.5q68 32 108 86.5t40 131.5q0 46 -18 77.5t-43.5 51t-53 28t-47.5 8.5q-37 0 -68 -11t-53 -31.5t-34 -48t-12 -60.5z" />
    <glyph glyph-name="uni06BE.init" unicode="&#x6be;" horiz-adv-x="1482" arabic-form="initial" 
d="M933 1080q82 -109 157 -207q31 -42 64 -85t63.5 -82.5t56.5 -73t43 -55.5q32 -41 51.5 -90.5t27.5 -100.5q4 -33 4 -65q0 -19 -2.5 -53.5t-16.5 -77.5q-19 -58 -56 -106t-90.5 -83t-122.5 -54t-151 -19q-70 0 -145.5 14.5t-153.5 53.5q-20 8 -38 17q-16 7 -32.5 15
t-27.5 14q-189 -57 -472 -57h-112v219h112q57 0 106.5 1t98.5 6q-60 61 -94 134.5t-34 165.5q0 79 30.5 145t83.5 113t125 73.5t155 26.5q62 0 115 -17t96.5 -46t76.5 -67t55.5 -79.5t34 -84t11.5 -80.5q0 -100 -39 -180.5t-108 -143.5q36 -13 77 -22t79 -9q33 0 69 5.5
t68 20t57.5 39.5t38.5 64q5 16 5 34q0 35 -24.5 91t-86 142.5t-146.5 190.5t-181 223zM375 511q0 -80 50 -140t150 -113q34 16 65 40t55 54.5t38.5 66t14.5 73.5q0 46 -19.5 80.5t-48 57.5t-60.5 34t-57 11q-37 0 -71 -13.5t-60 -36t-41.5 -52t-15.5 -62.5z" />
    <glyph glyph-name="uni06BE.medi" unicode="&#x6be;" horiz-adv-x="1280" arabic-form="medial" 
d="M610 854q90 0 161 -24.5t120.5 -72t75.5 -116.5t26 -158q0 -53 -16.5 -111.5t-61.5 -115t-125.5 -107.5t-207.5 -89h1q-41 -14 -89.5 -23.5t-90.5 -16.5q13 -56 48 -112t82 -106t102.5 -91t109.5 -66q-8 16 -16 38t-14.5 46.5t-10.5 48.5t-4 43q0 33 5 65.5t16 60.5
q22 58 59.5 105.5t86.5 81.5t106.5 52t120.5 18h191v-219h-199q-58 0 -102.5 -30.5t-64.5 -83.5q-12 -33 -12 -66q0 -50 19.5 -105t70.5 -100l-68 -166q-149 0 -273.5 47.5t-219 125.5t-155.5 178.5t-82 207.5q-60 -5 -120 -6.5t-114 -1.5v219q42 0 101 1.5t125 6.5
q6 121 20.5 212.5t41.5 164.5q31 84 74 136t91 80.5t98 38.5t94 10zM610 636q-33 0 -67.5 -12t-63.5 -52.5t-51 -119t-29 -211.5q29 5 63.5 11.5t58.5 14.5q92 29 147.5 61.5t85 62.5t39 54.5t9.5 38.5q0 42 -16 71t-42.5 47t-61.5 26t-72 8z" />
    <glyph glyph-name="fathatan_01" unicode="&#xfe70;" arabic-form="isolated" 
d="M-245 1706l490 182v-123l-490 -184v125zM-245 1937l490 182v-122l-490 -184v124z" />
    <glyph glyph-name="dammatan_01" unicode="&#xfe72;" arabic-form="isolated" 
d="M-269 1665q6 11 15 29t14.5 38.5t5 40.5t-11.5 36q-11 15 -26 19q-7 2 -15 2t-20 -3t-27.5 -11t-25.5 -15l-64 63q3 4 14.5 15.5t30.5 23t45 20.5q22 7 49 7h7q36 -2 64.5 -19.5t45.5 -49.5q19 -34 21 -74v-16q0 -31 -6 -61q24 7 50.5 16.5t52.5 20.5t50.5 23t45.5 25
q-1 0 -2 1q-47 15 -82.5 41.5t-56.5 59.5t-24 71q-1 7 -1 13q0 31 15 60q15 31 41 57.5t58.5 42t68.5 18.5h11q29 0 57 -13q49 -24 72.5 -67t26.5 -93l1 -17q0 -43 -14.5 -91t-42.5 -91q-21 -32 -56.5 -58.5t-76 -48t-83 -38t-78.5 -27.5t-62 -17t-33 -7zM71 2057
q-11 0 -25 -4t-28.5 -11t-26.5 -17t-19 -22v-6q0 -22 13.5 -40.5t36 -33.5t47.5 -26t44 -18l6.5 32.5t5.5 35.5q1 12 1 24q0 6 -0.5 18t-6.5 27q-5 15 -17.5 28t-30.5 13z" />
    <glyph glyph-name="kasratan_01" unicode="&#xfe74;" arabic-form="isolated" 
d="M-245 -676l490 182v-122l-490 -185v125zM-245 -445l490 183v-123l-490 -184v124z" />
    <glyph glyph-name="fatha_01" unicode="&#xfe76;" arabic-form="isolated" 
d="M-245 1706l490 182v-123l-490 -184v125z" />
    <glyph glyph-name="damma_01" unicode="&#xfe78;" arabic-form="isolated" 
d="M-289 1630q34 10 72 22.5t76 28.5t74 35t65 43q-47 13 -85 39t-61 60.5t-28 73.5q-2 10 -2 20q0 29 13 58q16 32 43.5 59.5t60.5 43.5t70 18h7q32 0 62 -16q54 -29 77.5 -75t23.5 -99q0 -54 -19.5 -109.5t-52.5 -102.5q-22 -31 -53 -56.5t-66 -46.5t-71.5 -37t-70 -28
t-61.5 -20.5t-45 -13.5zM16 2026q-12 0 -26.5 -3t-28.5 -9t-25.5 -15.5t-18.5 -22.5q-4 -5 -4 -12q0 -9 8 -25.5t29 -38t50.5 -38.5t61.5 -20q7 18 13 48q5 23 5 45q0 8 -1.5 26t-15.5 40t-47 25z" />
    <glyph glyph-name="kasra_01" unicode="&#xfe7a;" arabic-form="isolated" 
d="M-245 -445l490 183v-123l-490 -184v124z" />
    <glyph glyph-name="shadda_01" unicode="&#xfe7c;" arabic-form="isolated" 
d="M-130 1686q-89 0 -139.5 49.5t-50.5 137.5v101h101v-101q0 -46 21 -66.5t68 -20.5q7 0 19.5 2.5t25 11.5t21.5 26.5t9 46.5v101h102v-101q0 -46 21 -67t69 -21q7 0 19 3t24 12.5t20.5 26.5t8.5 46q0 16 -3.5 35.5t-8.5 39t-9.5 36.5t-7.5 27l94 32q1 -5 7 -23t12.5 -43
t11.5 -52.5t5 -51.5q0 -48 -15.5 -83.5t-40.5 -58.5t-56.5 -34.5t-62.5 -11.5q-91 0 -140 51q-26 -26 -58.5 -38t-66.5 -12z" />
    <glyph glyph-name="sukun_01" unicode="&#xfe7e;" arabic-form="isolated" 
d="M-2 1666q-52 0 -94 15t-72 43.5t-46 69.5t-16 92q0 52 16 93.5t46 70.5t72 44.5t94 15.5q50 0 92.5 -15.5t74 -44.5t49.5 -70t18 -92t-17.5 -92.5t-48.5 -70.5t-74 -44q-40 -15 -88 -15h-6zM-2 1779q23 0 44 7t36.5 20.5t25 33.5t9.5 46t-9.5 46.5t-25 35t-36.5 22.5
t-44 8q-24 0 -45.5 -8t-37 -22.5t-25 -35t-9.5 -46.5q0 -54 31.5 -80.5t85.5 -26.5z" />
    <glyph glyph-name="uni0651064C" unicode="&#xfc5e;" arabic-form="isolated" 
d="M-130 1686q-89 0 -139.5 49.5t-50.5 137.5v101h101v-101q0 -46 21 -66.5t68 -20.5q7 0 19.5 2.5t25 11.5t21.5 26.5t9 46.5v101h102v-101q0 -46 21 -67t69 -21q7 0 19 3t24 12.5t20.5 26.5t8.5 46q0 16 -3.5 35.5t-8.5 39t-9.5 36.5t-7.5 27l94 32q1 -5 7 -23t12.5 -43
t11.5 -52.5t5 -51.5q0 -48 -15.5 -83.5t-40.5 -58.5t-56.5 -34.5t-62.5 -11.5q-91 0 -140 51q-26 -26 -58.5 -38t-66.5 -12zM-269 2204q6 11 15 29t14.5 38.5t5 40.5t-11.5 36q-11 15 -26 19q-7 2 -15 2t-20 -3t-27.5 -11t-25.5 -15l-64 63q3 4 14.5 15.5t30.5 23t45 20.5
q22 7 49 7h7q36 -2 64.5 -19.5t45.5 -49.5q19 -34 21 -74v-16q0 -31 -6 -61q24 7 50.5 16.5t52.5 20.5t50.5 23t45.5 25q-1 0 -2 1q-47 15 -82.5 41.5t-56.5 59.5t-24 71q-1 7 -1 13q0 31 15 60q15 31 41 57.5t58.5 42t68.5 18.5h11q29 0 57 -13q49 -24 72.5 -67t26.5 -93
l1 -17q0 -43 -14.5 -91t-42.5 -91q-21 -32 -56.5 -58.5t-76 -48t-83 -38t-78.5 -27.5t-62 -17t-33 -7zM71 2596q-11 0 -25 -4t-28.5 -11t-26.5 -17t-19 -22v-6q0 -22 13.5 -40.5t36 -33.5t47.5 -26t44 -18l6.5 32.5t5.5 35.5q1 12 1 24q0 6 -0.5 18t-6.5 27q-5 15 -17.5 28
t-30.5 13z" />
    <glyph glyph-name="uni0651064D" unicode="&#xfc5f;" arabic-form="isolated" 
d="M-129 1748q-89 0 -139.5 49.5t-50.5 137.5v101h101v-101q0 -46 21 -66.5t68 -20.5q7 0 19.5 2.5t25 11.5t21.5 26.5t9 46.5v101h102v-101q0 -46 21 -67t69 -21q7 0 19 3t24 12.5t20.5 26.5t8.5 46q0 16 -3.5 35.5t-8.5 39t-9.5 36.5t-7.5 27l94 32q1 -5 7 -23t12.5 -43
t11.5 -52.5t5 -51.5q0 -48 -15.5 -83.5t-40.5 -58.5t-56.5 -34.5t-62.5 -11.5q-91 0 -140 51q-26 -26 -58.5 -38t-66.5 -12zM-252 1270l490 182v-122l-490 -185v125zM-252 1501l490 183v-123l-490 -184v124z" />
    <glyph glyph-name="uni0651064E" unicode="&#xfc60;" arabic-form="isolated" 
d="M-130 1686q-89 0 -139.5 49.5t-50.5 137.5v101h101v-101q0 -46 21 -66.5t68 -20.5q7 0 19.5 2.5t25 11.5t21.5 26.5t9 46.5v101h102v-101q0 -46 21 -67t69 -21q7 0 19 3t24 12.5t20.5 26.5t8.5 46q0 16 -3.5 35.5t-8.5 39t-9.5 36.5t-7.5 27l94 32q1 -5 7 -23t12.5 -43
t11.5 -52.5t5 -51.5q0 -48 -15.5 -83.5t-40.5 -58.5t-56.5 -34.5t-62.5 -11.5q-91 0 -140 51q-26 -26 -58.5 -38t-66.5 -12zM-287 2218l490 182v-123l-490 -184v125z" />
    <glyph glyph-name="uni0651064F" unicode="&#xfc61;" arabic-form="isolated" 
d="M-130 1686q-89 0 -139.5 49.5t-50.5 137.5v101h101v-101q0 -46 21 -66.5t68 -20.5q7 0 19.5 2.5t25 11.5t21.5 26.5t9 46.5v101h102v-101q0 -46 21 -67t69 -21q7 0 19 3t24 12.5t20.5 26.5t8.5 46q0 16 -3.5 35.5t-8.5 39t-9.5 36.5t-7.5 27l94 32q1 -5 7 -23t12.5 -43
t11.5 -52.5t5 -51.5q0 -48 -15.5 -83.5t-40.5 -58.5t-56.5 -34.5t-62.5 -11.5q-91 0 -140 51q-26 -26 -58.5 -38t-66.5 -12zM-289 2177q34 10 72 22.5t76 28.5t74 35t65 43q-47 13 -85 39t-61 60.5t-28 73.5q-2 10 -2 20q0 29 13 58q16 32 43.5 59.5t60.5 43.5t70 18h7
q32 0 62 -16q54 -29 77.5 -75t23.5 -99q0 -54 -19.5 -109.5t-52.5 -102.5q-22 -31 -53 -56.5t-66 -46.5t-71.5 -37t-70 -28t-61.5 -20.5t-45 -13.5zM16 2573q-12 0 -26.5 -3t-28.5 -9t-25.5 -15.5t-18.5 -22.5q-4 -5 -4 -12q0 -9 8 -25.5t29 -38t50.5 -38.5t61.5 -20
q7 18 13 48q5 23 5 45q0 8 -1.5 26t-15.5 40t-47 25z" />
    <glyph glyph-name="uni06510650" unicode="&#xfc62;" arabic-form="isolated" 
d="M-116 1709q-89 0 -139.5 49.5t-50.5 137.5v101h101v-101q0 -46 21 -66.5t68 -20.5q7 0 19.5 2.5t25 11.5t21.5 26.5t9 46.5v101h102v-101q0 -46 21 -67t69 -21q7 0 19 3t24 12.5t20.5 26.5t8.5 46q0 16 -3.5 35.5t-8.5 39t-9.5 36.5t-7.5 27l94 32q1 -5 7 -23t12.5 -43
t11.5 -52.5t5 -51.5q0 -48 -15.5 -83.5t-40.5 -58.5t-56.5 -34.5t-62.5 -11.5q-91 0 -140 51q-26 -26 -58.5 -38t-66.5 -12zM-232 1458l490 183v-123l-490 -184v124z" />
    <glyph glyph-name="uniFC63" unicode="&#xfc63;" arabic-form="isolated" 
d="M-130 1686q-89 0 -139.5 49.5t-50.5 137.5v101h101v-101q0 -46 21 -66.5t68 -20.5q7 0 19.5 2.5t25 11.5t21.5 26.5t9 46.5v101h102v-101q0 -46 21 -67t69 -21q7 0 19 3t24 12.5t20.5 26.5t8.5 46q0 16 -3.5 35.5t-8.5 39t-9.5 36.5t-7.5 27l94 32q1 -5 7 -23t12.5 -43
t11.5 -52.5t5 -51.5q0 -48 -15.5 -83.5t-40.5 -58.5t-56.5 -34.5t-62.5 -11.5q-91 0 -140 51q-26 -26 -58.5 -38t-66.5 -12zM-64 2585h126v-407h-126v407z" />
    <glyph glyph-name="uni0692.fina" unicode="&#x692;" horiz-adv-x="910" 
d="M925 -15h-21q-44 0 -83 7t-79 40q-6 -134 -49.5 -242t-121 -184t-186.5 -117t-247 -41h-138v219h138q100 0 172.5 21t119.5 66.5t70 119t23 178.5v624h219v-314q0 -51 21.5 -82t49.5 -48t54.5 -22.5t36.5 -5.5h21v-219zM905 1281l-225 -408h-127l-228 408h160l129 -264
l133 264h158z" />
    <glyph glyph-name="uni0695.fina" unicode="&#x695;" horiz-adv-x="910" 
d="M925 -15h-21q-44 0 -83 7t-79 40q-6 -134 -49.5 -242t-121 -184t-186.5 -117t-247 -41h-138v219h138q100 0 172.5 21t119.5 66.5t70 119t23 178.5v624h219v-314q0 -51 21.5 -82t49.5 -48t54.5 -22.5t36.5 -5.5h21v-219zM653 -679l-225 -408h-127l-228 408h160l129 -264
l133 264h158z" />
    <glyph glyph-name="uni06A4.init" unicode="&#x6a8;" horiz-adv-x="998" 
d="M-22 -15v219h399q99 0 161 12.5t98 32t51 43t20 46.5h-127q-94 0 -175.5 17.5t-142 59t-95 110t-34.5 170.5q0 81 30 154t83 128t126 86q65 27 140 27h19q78 -3 137.5 -28.5t103 -67t73 -96.5t47.5 -117.5t26 -130.5t9 -135v-138q0 -75 -21.5 -133t-59 -102t-89.5 -73.5
t-113.5 -48.5t-129 -27t-137.5 -8h-399zM531 871q-12 1 -24 1q-27 0 -56.5 -7.5t-56 -29.5t-42 -56.5t-15.5 -81.5q0 -48 22.5 -77.5t57.5 -45.5t78.5 -21.5t84.5 -5.5h131q-2 45 -5.5 98.5t-20 101.5t-52.5 83t-102 41zM439 1373l-160 -162l-160 160l160 162zM868 1377
l-158 -160l-165 158l162 162zM647 1659l-150 -150l-148 148l150 150z" />
    <glyph glyph-name="uni06A4.medi" unicode="&#x6a8;" horiz-adv-x="1102" 
d="M564 864q90 0 160.5 -32.5t119.5 -86t75 -122t26 -140.5q0 -89 -24 -152.5t-71 -122.5q16 -1 40.5 -2t51.5 -1.5t52.5 -0.5h43.5h84v-219h-84q-64 0 -131 4.5t-130.5 12t-120.5 18t-101 22.5q-90 -25 -203 -41t-259 -16h-113v219h113h47.5t39.5 0.5t37.5 1t39.5 2.5
q-25 30 -44 60t-31.5 63t-19 70.5t-6.5 81.5q0 76 32 145.5t87.5 121.5t129.5 83t159 31zM362 482v-12q0 -39 13 -72.5t39 -61.5t62.5 -48.5t80.5 -36.5q41 16 76 36t60.5 47.5t40 64t14.5 84.5q0 27 -16 55.5t-42 52.5t-59 39t-67 15q-39 0 -75.5 -13.5t-64.5 -36.5
t-45 -52.5t-17 -60.5zM487 1158l-160 -162l-160 160l160 162zM916 1162l-158 -160l-165 158l162 162zM695 1444l-150 -150l-148 148l150 150z" />
    <glyph glyph-name="uni06A8.fina" unicode="&#x6a8;" horiz-adv-x="1645" 
d="M692 -552q-78 0 -151 18t-137 52.5t-117.5 84t-92.5 112.5q-48 77 -73.5 162t-25.5 188q0 128 36 266t116 300l196 -93q-68 -140 -99 -254.5t-31 -219.5q0 -73 16.5 -127.5t49.5 -106.5q48 -78 130 -120.5t183 -42.5h75q148 0 244 23t153 70q23 19 40.5 40.5t29 48t18 60
t7.5 76.5h-158q-73 0 -147.5 20t-135 67.5t-99 126t-38.5 194.5q0 90 26.5 174t78.5 149.5t129.5 105t178.5 39.5q102 0 174.5 -41.5t119 -110.5t68 -158t21.5 -185v-162h198v-219h-198q-1 -69 -12.5 -126.5t-33 -105.5t-54.5 -88.5t-76 -75.5q-44 -35 -97 -61t-117 -43.5
t-140.5 -26.5t-169.5 -10h-85zM1094 654q-46 0 -82.5 -18.5t-62 -52.5t-39 -82t-13.5 -108t19.5 -95.5t54.5 -58.5q17 -11 36.5 -17.5t37.5 -10.5t32.5 -5.5t23.5 -1.5h158v162q0 70 -9 118.5t-23.5 80.5t-32.5 50t-36.5 26.5t-35.5 10.5t-28 2zM1035 1177l-160 -162
l-160 160l160 162zM1464 1181l-158 -160l-165 158l162 162zM1243 1463l-150 -150l-148 148l150 150z" />
    <glyph glyph-name="uni06AA.init" unicode="&#x6aa;" horiz-adv-x="1702" 
d="M1522 -15h-1545v219h1425q-7 62 -26 111t-56.5 83t-96.5 52t-145 18q-168 0 -296 1t-224 4.5t-163.5 10t-114 18.5t-76 30t-49.5 43q-19 24 -26.5 50.5t-7.5 51.5t5 45.5t9 32.5v-1q60 220 434 416q60 30 114 54t106.5 44t104 38t106.5 35l67 -207q-11 -4 -36.5 -13
t-59.5 -21.5t-74 -27.5t-80.5 -31.5t-79 -33.5t-69.5 -33q-132 -69 -214.5 -137t-107.5 -130q20 -4 56.5 -7.5t96.5 -5.5q46 -3 103 -4t127.5 -2t157 -1h191.5q340 0 473 -234q27 -50 42 -103t22 -102t8 -91t1 -70z" />
    <glyph glyph-name="uni06AA.medi" unicode="&#x6aa;" horiz-adv-x="1953" 
d="M-24 -15v219h1409q32 0 44.5 7.5t12.5 21.5t-6 30.5t-16 36.5v-1q-20 32 -53.5 62.5t-77.5 54t-97.5 38t-113.5 14.5q-170 0 -299.5 1t-225.5 4t-163 10t-113 19t-75 29.5t-49 43.5q-20 27 -26 53.5t-6 49.5t2.5 39.5t5.5 27.5q1 3 2 7l1 2v-2q15 55 52 109.5t93 107
t130 103.5t163 98q105 53 208.5 93.5t218.5 79.5l69 -206q-1 0 -20.5 -7t-51.5 -18.5t-73.5 -27t-86 -33.5t-88 -37.5t-80.5 -37.5q-128 -68 -211 -137t-109 -130q20 -4 57 -7.5t96 -5.5q46 -3 102.5 -4.5t127.5 -2.5t157.5 -1.5t191.5 -0.5q113 0 217.5 -37.5t185.5 -109.5
q45 -42 80 -83t63 -78q28 -36 55.5 -67.5t60 -55.5t72.5 -38t94 -14h68v-219h-68q-100 0 -175.5 27.5t-133.5 72.5q-13 -16 -31 -32q-38 -33 -88.5 -50.5t-111.5 -17.5h-1390z" />
    <glyph glyph-name="uni06AA.fina" unicode="&#x6aa;" horiz-adv-x="2511" 
d="M447 -15q-67 0 -133 23t-118 70t-84.5 120t-32.5 172q0 33 4.5 71.5t11.5 77t15.5 74.5t16.5 65.5t13.5 49.5t7.5 26l207 -66q-6 -21 -16 -58t-19 -79t-15.5 -85t-6.5 -76q0 -58 18 -91.5t43 -50t49.5 -20.5t38.5 -4h1498q32 0 44.5 7.5t12.5 21.5t-6 30.5t-16 36.5
q-20 32 -53.5 62t-77.5 53.5t-97.5 38t-113.5 14.5q-170 0 -299.5 1t-225.5 4t-163 10t-113 19t-75 29.5t-49 43.5q-20 27 -26 53.5t-6 49.5t2.5 39.5t5.5 27.5q14 56 50.5 111.5t93.5 109t132 105t165 99.5q52 27 104 50t104.5 44t107 40t112.5 39l69 -206
q-37 -12 -83.5 -28.5t-99 -36.5t-108 -44t-110.5 -52q-128 -68 -211 -137t-109 -130q60 -6 111.5 -9.5t101.5 -6t102 -4t113.5 -2t135.5 -0.5h168q113 0 217.5 -37.5t185.5 -109.5q45 -42 80 -83t63 -78q28 -36 55.5 -67.5t60 -55.5t72.5 -38t94 -14h69v-219h-69
q-100 0 -175.5 27.5t-133.5 72.5q-13 -16 -31 -32q-38 -33 -88.5 -50.5t-111.5 -17.5h-1479z" />
    <glyph glyph-name="uni06B5.init" unicode="&#x6b5;" horiz-adv-x="617" 
d="M-18 204q96 0 151 12.5t81 38.5q18 17 26.5 48.5t8.5 85.5v1041h218v-1041q0 -35 -3.5 -73t-14 -76t-30.5 -75t-53 -70q-59 -56 -150 -83t-234 -27v219zM639 2022l-225 -408h-127l-228 408h160l129 -264l133 264h158z" />
    <glyph glyph-name="uni06B5.medi" unicode="&#x6b5;" horiz-adv-x="650" 
d="M-20 204q105 0 162.5 18t83.5 45t30.5 59.5t4.5 62.5v1040h218v-1040q0 -36 10.5 -68.5t31 -57.5t51.5 -40.5t72 -18.5h26v-219h-26q-50 1 -86 9t-66.5 23.5t-59.5 37.5t-64 51q-30 -29 -68 -51.5t-85 -38t-105.5 -23.5t-129.5 -8v219zM653 2013l-225 -408h-127l-228 408
h160l129 -264l133 264h158z" />
    <glyph glyph-name="uni06B5.fina" unicode="&#x6b5;" horiz-adv-x="1416" 
d="M595 -568q-68 0 -131.5 15.5t-119 45.5t-102 72.5t-81.5 96.5q-15 24 -30 55.5t-27 71.5t-19.5 89t-7.5 106q0 49 7 102t22.5 113t41 128t63.5 146l197 -94q-57 -118 -85.5 -213.5t-28.5 -182.5q0 -118 52 -204q20 -28 47.5 -51.5t59.5 -40.5t68 -26.5t74 -9.5h46
q110 0 179 23t108 65t53.5 101.5t14.5 133.5v1453h216v-1075q6 -34 22 -61.5t40 -46.5t54 -29.5t62 -10.5h48v-219h-48q-47 0 -94.5 10.5t-83.5 34.5v-56q0 -540 -571 -542h-46zM1399 2013l-225 -408h-127l-228 408h160l129 -264l133 264h158z" />
    <glyph glyph-name="uni06A4.fina" unicode="&#x6a4;" horiz-adv-x="2114" arabic-form="final" 
d="M426 -15q-73 0 -138 25t-116 72q-20 19 -41.5 46t-38.5 63.5t-28 83t-11 104.5q0 51 10.5 111.5t23 115t24.5 94t15 48.5l104 -33l105 -33q-7 -21 -17.5 -58.5t-20.5 -81t-17.5 -87.5t-7.5 -76q0 -61 19.5 -96t45 -52.5t51.5 -22t40 -4.5h702h47.5t39.5 0.5t37.5 1
t39.5 2.5q-25 30 -44 61t-31.5 65t-19 72t-6.5 82q0 76 32 145t87.5 120.5t129.5 82t159 30.5q90 0 160.5 -32t119.5 -85t75 -121t26 -140q0 -89 -24 -155t-71 -125q32 -2 67.5 -3t71.5 -1h82v-219h-82q-129 0 -237.5 11.5t-196.5 36.5q-90 -25 -203 -36.5t-259 -11.5h-704z
M1404 487v-12q0 -39 12 -71.5t37.5 -59t61 -46.5t79.5 -36q41 16 74.5 35t57 45.5t36.5 62t13 83.5q0 27 -14.5 55t-38.5 51.5t-55.5 38t-65.5 14.5q-39 0 -75 -13t-63 -35.5t-43 -51.5t-16 -60zM1515 1168l-160 -162l-160 160l160 162zM1944 1172l-158 -160l-165 158
l162 162zM1723 1454l-150 -150l-148 148l150 150z" />
    <glyph glyph-name="uni06C6.fina" unicode="&#x6c6;" horiz-adv-x="1093" arabic-form="final" 
d="M207 -333q155 0 254 22t156 69q23 19 40.5 40.5t29 49t18 61t7.5 76.5h-169q-73 0 -147.5 20.5t-135 68.5t-99 127t-38.5 195q0 68 11.5 122t29.5 96.5t40 73.5t43 54q57 57 130.5 88.5t158.5 31.5q74 0 138.5 -23t115.5 -69q69 -65 104.5 -164t35.5 -237v-165h183v-219
h-183q-2 -138 -45.5 -233t-130.5 -165q-45 -35 -99 -61.5t-121 -43.5t-147.5 -25.5t-179.5 -8.5v219zM536 643q-92 0 -143 -63.5t-51 -183.5q0 -60 18 -97t53 -60q17 -11 36.5 -17.5t37.5 -10.5t32.5 -5.5t23.5 -1.5h169v165q0 70 -10 117.5t-26 77.5t-35.5 46.5t-39 23.5
t-37 8t-28.5 1zM823 1473l-225 -408h-127l-228 408h160l129 -264l133 264h158z" />
    <glyph glyph-name="uni06CE.init" unicode="&#x6ce;" horiz-adv-x="892" 
d="M711 818q2 -6 8 -32.5t14.5 -65.5t17 -86t16 -94.5t12.5 -92t5 -77.5q0 -99 -33 -172t-85.5 -120t-118.5 -70t-132 -23h-445v219h452q13 0 38.5 4t50.5 20.5t43.5 49.5t18.5 92q0 22 -4 55t-10 71t-14 78t-15.5 75t-14.5 63t-11 43zM591 -497l-158 160l156 162l162 -162z
M210 -495l-158 160l156 162l162 -162zM660 1437l-225 -408h-127l-228 408h160l129 -264l133 264h158z" />
    <glyph glyph-name="uni06CE.medi" unicode="&#x6ce;" horiz-adv-x="1061" 
d="M1073 204v-219h-160q-88 0 -158 24.5t-115 72.5q-54 -47 -131.5 -72t-175.5 -25h-361v219h361q66 0 105.5 13t59.5 32.5t26 43t6 45.5v339h218v-332q0 -34 10.5 -57.5t26.5 -39t35 -24.5t37.5 -13.5t33.5 -5.5t22 -1h160zM640 -489l-158 160l156 162l162 -162zM259 -487
l-158 160l156 162l162 -162zM933 1269l-225 -408h-127l-228 408h160l129 -264l133 264h158z" />
    <glyph glyph-name="uni06CE.fina" unicode="&#x6ce;" horiz-adv-x="1786" 
d="M1502 -15q36 -38 53.5 -79.5t17.5 -79.5q0 -90 -49.5 -162.5t-134.5 -123.5t-198 -79t-240 -28h-256q-80 0 -153.5 18.5t-137.5 53t-117.5 84t-94.5 111.5q-97 157 -97 367q0 130 35.5 269t115.5 305l194 -94q-33 -71 -57 -134.5t-39.5 -122t-22.5 -112.5t-7 -106
q0 -149 66 -254q48 -80 131 -122t184 -42h256q80 0 151 16t124.5 43t85.5 63.5t35 78.5q-29 33 -77 56.5t-107.5 38.5t-127.5 23.5t-138 11.5l7 219h907v-219h-309zM1233 822l-225 -408h-127l-228 408h160l129 -264l133 264h158z" />
    <glyph glyph-name=".notdef" horiz-adv-x="1229" 
d="M102 -362v1806h1024v-1806h-1024zM217 -248h795v1577h-795v-1577z" />
    <glyph glyph-name="NULL" unicode="&#xfeff;" 
 />
    <glyph glyph-name="NULL" 
 />
    <glyph glyph-name="nonmarkingreturn" horiz-adv-x="602" 
 />
    <glyph glyph-name="space" unicode=" " horiz-adv-x="696" 
 />
    <glyph glyph-name="space" unicode="&#xa0;" horiz-adv-x="696" 
 />
    <glyph glyph-name="uni0640" unicode="&#x640;" horiz-adv-x="429" 
d="M428 204q26 0 26 -23v-171q0 -25 -26 -25h-428q-25 0 -25 25v171q0 23 25 23h428z" />
    <glyph glyph-name="uni066E" unicode="&#x66e;" horiz-adv-x="1993" 
d="M1881 750q8 -38 18 -88t18.5 -103t14.5 -103t6 -86q0 -99 -33 -172t-85.5 -120t-118.5 -70t-132 -23h-1109q-73 0 -138 25t-116 72q-20 19 -41.5 46t-38.5 63.5t-28 83t-11 104.5q0 51 10.5 111.5t23 115t24.5 94t15 48.5l209 -66q-7 -21 -17.5 -58.5t-20.5 -81
t-17.5 -87.5t-7.5 -76q0 -61 19.5 -96t45 -52.5t51.5 -22t40 -4.5h1114q13 0 38.5 4t50.5 20.5t43.5 49.5t18.5 92q0 25 -5 65.5t-13 85.5t-17.5 90t-17.5 81z" />
    <glyph glyph-name="feh_dotless.isol" horiz-adv-x="2074" 
d="M1437 204q99 0 162.5 12t101 31.5t53.5 43t21 46.5h-135q-49 0 -100 5.5t-99.5 20.5t-91 40.5t-74.5 65.5t-50.5 96.5t-18.5 132.5q0 84 28.5 155t80 122.5t122 81t154.5 29.5q77 0 136.5 -21.5t104.5 -60t76 -91.5t50 -115.5t28 -132t9 -141.5v-138q0 -117 -46.5 -194.5
t-123.5 -124t-178 -64.5q-96 -18 -199 -18h-985q-73 0 -138 25t-116 72q-20 19 -41.5 46t-38.5 63.5t-28 83t-11 104.5q0 51 10.5 111.5t23 115t24.5 94t15 48.5l104 -33l105 -33q-7 -21 -17.5 -58.5t-20.5 -81t-17.5 -87.5t-7.5 -76q0 -61 19.5 -96t45 -52.5t51.5 -22
t40 -4.5h972zM1591 867q-31 0 -64 -8.5t-60 -28.5t-44.5 -52.5t-17.5 -79.5q0 -58 20.5 -87.5t53.5 -41.5t75 -12.5t86 -0.5h138q-5 60 -12.5 116t-26.5 99.5t-54 69.5t-94 26z" />
    <glyph glyph-name="uni06A1.fina" horiz-adv-x="2114" 
d="M459 -15q-73 0 -138 25t-116 72q-20 19 -41.5 46t-38.5 63.5t-28 83t-11 104.5q0 51 10.5 111.5t23 115t24.5 94t15 48.5l104 -33l105 -33q-7 -21 -17.5 -58.5t-20.5 -81t-17.5 -87.5t-7.5 -76q0 -61 19.5 -96t45 -52.5t51.5 -22t40 -4.5h702h47.5t39.5 0.5t37.5 1
t39.5 2.5q-25 30 -44 61t-31.5 65t-19 72t-6.5 82q0 76 32 145t87.5 120.5t129.5 82t159 30.5q90 0 160.5 -32t119.5 -85t75 -121t26 -140q0 -89 -24 -155t-71 -125q32 -2 67.5 -3t71.5 -1h82v-219h-82q-129 0 -237.5 11.5t-196.5 36.5q-90 -25 -203 -36.5t-259 -11.5h-704z
M1437 487v-12q0 -39 12 -71.5t37.5 -59t61 -46.5t79.5 -36q41 16 74.5 35t57 45.5t36.5 62t13 83.5q0 27 -14.5 55t-38.5 51.5t-55.5 38t-65.5 14.5q-39 0 -75 -13t-63 -35.5t-43 -51.5t-16 -60z" />
    <glyph glyph-name="uni066F" unicode="&#x66f;" horiz-adv-x="1598" 
d="M687 -552q-78 0 -151 18t-137 52.5t-117.5 84t-92.5 112.5q-48 77 -73.5 162t-25.5 188q0 128 36 266t116 300l196 -93q-68 -140 -99 -254.5t-31 -219.5q0 -73 16.5 -127.5t49.5 -106.5q48 -78 130 -120.5t183 -42.5h75q148 0 244 23t153 70q23 19 40.5 40.5t29 48t18 60
t7.5 76.5h-158q-73 0 -147.5 20t-135 67.5t-99 126t-38.5 194.5q0 90 26.5 174t78.5 149.5t129.5 105t178.5 39.5q102 0 174.5 -41.5t119 -110.5t68 -158t21.5 -185v-366q0 -72 -11 -132t-32.5 -110t-54.5 -91.5t-78 -77.5q-44 -35 -97 -61t-117 -43.5t-140.5 -26.5
t-169.5 -10h-85zM1089 654q-46 0 -82.5 -18.5t-62 -52.5t-39 -82t-13.5 -108t19.5 -95.5t54.5 -58.5q17 -11 36.5 -17.5t37.5 -10.5t32.5 -5.5t23.5 -1.5h158v162q0 70 -9 118.5t-23.5 80.5t-32.5 50t-36.5 26.5t-35.5 10.5t-28 2z" />
    <glyph glyph-name="onedot.above" 
d="M-165 1314l166 168l170 -170l-168 -168z" />
    <glyph glyph-name="twodots.above" 
d="M191 1150l-158 160l156 162l162 -162zM-211 1152l-158 160l155 162l162 -162z" />
    <glyph glyph-name="threedots.above" 
d="M-61 1318l-160 -162l-160 160l160 162zM368 1322l-158 -160l-165 158l162 162zM147 1604l-150 -150l-148 148l150 150z" />
    <glyph glyph-name="threedots.below" 
d="M-365 -335l160 160l160 -162l-160 -160zM52 -337l162 160l160 -162l-160 -160zM-147 -617l148 148l150 -150l-148 -148z" />
    <glyph glyph-name="uni0660" unicode="&#x660;" horiz-adv-x="1107" 
d="M556 177q-81 0 -152 31t-124.5 84.5t-84 125.5t-30.5 153t30.5 152t84 124.5t124.5 84t152 30.5t153 -30.5t125.5 -84t84.5 -124.5t31 -152t-31 -153t-84.5 -125.5t-125.5 -84.5t-153 -31zM556 750q-37 0 -69.5 -14t-56.5 -38.5t-38 -57t-14 -69.5t14 -70t38 -57.5
t56.5 -39t69.5 -14.5t70 14.5t58 39t39.5 57.5t14.5 70t-14.5 69.5t-39.5 57t-58 38.5t-70 14z" />
    <glyph glyph-name="uni0661" unicode="&#x661;" horiz-adv-x="629" 
d="M246 -14v80.5t2 85.5v-1q1 48 1.5 99.5t0.5 108.5q0 110 -3.5 232t-17 253t-39 270t-70.5 282l206 67q49 -157 77.5 -306.5t43 -289t18.5 -268t4 -243.5q0 -57 -0.5 -109t-1.5 -100q-2 -40 -2 -84v-77h-219z" />
    <glyph glyph-name="uni0662" unicode="&#x662;" horiz-adv-x="1183" 
d="M1012 1459q3 -9 13 -44.5t21.5 -84.5t20 -105.5t8.5 -105.5q0 -99 -32.5 -172t-84.5 -121t-118 -71t-132 -23q-73 0 -135 21.5t-113 53.5q20 -184 24 -346t4 -292v-74q-2 -26 -2 -57v-54h-216v227q0 118 -4.5 254.5t-20.5 286t-47 310.5t-84 330l208 67l44 -134
q0 -1 9 -29.5t27 -70t46 -90t66 -89.5t86 -68.5t108 -27.5q13 0 38 4.5t50 21.5t44 50.5t19 92.5q0 32 -6 71.5t-15 78t-18.5 71.5t-15.5 52z" />
    <glyph glyph-name="uni0663" unicode="&#x663;" horiz-adv-x="1495" 
d="M1307 1458q9 -36 18.5 -73t18 -78.5t14.5 -87.5t9 -100q1 -16 1 -31q0 -59 -13.5 -121t-50 -115.5t-95.5 -85.5t-143 -32q-30 0 -64.5 7t-70 22.5t-70 42t-64.5 65.5q-45 -62 -102 -92.5t-109 -42.5h1q-15 -4 -31.5 -5.5t-33.5 -1.5q-55 0 -108 22q14 -160 17 -303.5
t3 -258.5v-203h-218v183q0 79 -1.5 173t-6.5 198t-15 213.5t-26.5 219.5t-41.5 216t-60 203l207 68q10 -34 19 -64t17.5 -61t17.5 -65t19 -76q11 -41 28.5 -85.5t42 -80.5t56.5 -58q27 -20 61 -20h9q27 4 50 19t39 47.5t25 83.5t9 127q0 43 -1.5 86t-7.5 104l216 20
q12 -122 27 -213t36.5 -151.5t53 -90.5t77.5 -30q48 0 66 35t18 96v18t-1 19q-2 40 -9 80.5t-15 77.5t-16.5 67.5t-14.5 50.5z" />
    <glyph glyph-name="uni0664" unicode="&#x664;" horiz-adv-x="1110" 
d="M656 -16q-170 0 -281.5 60.5t-156.5 162.5q-26 58 -26 119q0 7 1.5 44t27 100.5t69.5 119t97 96.5q-25 5 -47 12.5t-43 15.5q-42 16 -80.5 42.5t-68 61t-47.5 77.5t-18 93q0 65 27.5 120.5t73 102.5t104 86.5t121 72t123.5 58.5t112 46l70 -208q-71 -23 -146 -57.5
t-136.5 -73t-98.5 -78.5q-32 -35 -32 -66q0 -5 1 -10q3 -20 26 -38.5t68.5 -32.5t116 -23t169.5 -9q18 0 37 -1h39l34 -212q-75 -32 -150 -74t-131.5 -90.5t-83.5 -100.5q-16 -31 -16 -61q0 -22 8 -44q7 -20 27.5 -36.5t51 -29t70 -19.5t86.5 -7q57 0 119 12t143 44l82 -204
q-54 -22 -101.5 -35.5t-89.5 -21.5t-79.5 -11t-71.5 -3z" />
    <glyph glyph-name="uni0665" unicode="&#x665;" horiz-adv-x="1324" 
d="M653 -16q-115 0 -218.5 33.5t-182.5 101.5t-124 167t-45 225q0 88 30.5 179t81 186t115.5 194t135 203l85 126l85 -41q146 -72 264 -174t204 -229q78 -115 118.5 -225t40.5 -219q0 -128 -40.5 -227t-115 -166.5t-179.5 -101.5q-99 -32 -220 -32h-34zM902 834
q-41 61 -113.5 136.5t-185.5 145.5q-59 -89 -113.5 -171.5t-96 -158.5t-66.5 -145t-25 -130q0 -74 25 -132t72.5 -98t116.5 -60.5t157 -20.5q84 0 149 17.5t110 55.5t68.5 96.5t23.5 141.5q0 75 -32 156.5t-90 166.5z" />
    <glyph glyph-name="uni0666" unicode="&#x666;" horiz-adv-x="1209" 
d="M897 -52q-42 139 -73.5 296.5t-51.5 327.5q-12 113 -18 219.5t-6 215.5q0 56 1 102t4 99q-59 -9 -136 -16.5t-165 -7.5q-94 0 -191 10t-205 42l61 210q91 -26 174.5 -34t165.5 -8q69 0 132.5 5.5t115 13t87.5 14.5t51 10q2 0 4 0.5t4 0.5h4l128 -111q-8 -83 -12 -163
t-4 -158q0 -143 10.5 -281.5t29.5 -267.5t43.5 -245t53.5 -213z" />
    <glyph glyph-name="uni0667" unicode="&#x667;" horiz-adv-x="1393" 
d="M1322 1346q-106 -126 -197.5 -303.5t-168.5 -398.5q-33 -92 -59 -185.5t-44.5 -180t-28.5 -162.5t-10 -133h-218q0 57 -10 133t-28.5 162.5t-45 180t-58.5 185.5q-77 220 -170.5 396t-198.5 303l169 142q57 -69 112 -160t106.5 -196t98.5 -220t88 -232q8 -23 14 -38.5
t10.5 -30.5t9.5 -31t12 -39q11 35 22 69.5t24 69.5q41 117 87.5 232t97 220t105.5 196.5t113 161.5z" />
    <glyph glyph-name="uni0668" unicode="&#x668;" horiz-adv-x="1419" 
d="M964 781q37 -110 80.5 -211t91.5 -192t98.5 -169t103.5 -141l-169 -140q-57 69 -113 162t-108.5 200.5t-100.5 225.5t-90 237q-8 23 -13.5 39t-10 30.5t-9.5 30t-12 38.5q-11 -35 -23 -70t-24 -68q-41 -117 -88.5 -235t-100 -226t-108 -201.5t-112.5 -161.5l-171 139
q52 61 102.5 140t98.5 171t92 193.5t82 208.5q31 91 57 182.5t45 176.5t29.5 159t10.5 130h218q0 -57 10.5 -130.5t29.5 -157.5t45.5 -175.5t58.5 -184.5z" />
    <glyph glyph-name="uni0669" unicode="&#x669;" horiz-adv-x="1016" 
d="M723 -70q-20 53 -34 133t-24 176t-16.5 201.5t-9.5 209.5h-158q-72 0 -143.5 21t-129 67t-93 119t-35.5 177q0 101 29 181.5t81.5 136.5t124.5 85.5t159 29.5q96 0 167 -35.5t118 -97.5t70.5 -145.5t23.5 -180.5q0 -190 5 -353.5t15 -292.5t23 -219.5t30 -135.5zM636 869
q-2 41 -2 74.5v64.5q0 57 -9 98t-23.5 68.5t-32.5 44t-36 25.5t-33.5 11.5t-25.5 2.5q-41 0 -76 -15t-60.5 -43.5t-39.5 -70t-14 -95.5q0 -44 19 -75t48.5 -51t64 -29.5t65.5 -9.5h155z" />
    <glyph glyph-name="uni06F4" unicode="&#x6f4;" horiz-adv-x="1387" 
d="M1005 910q60 0 116.5 5t116.5 16l50 -197q-48 -14 -95.5 -24.5t-99 -17.5t-110.5 -11t-130 -4q-109 0 -221 18t-212 66q7 -83 11.5 -151t7 -128t3.5 -115.5t1 -114t-0.5 -123.5t-0.5 -144h-218q0 157 -1 293.5t-6.5 258t-15.5 231t-27 213.5t-42.5 205.5t-60.5 206.5
l211 67q25 -81 43.5 -161t41.5 -166q10 -42 26 -72t36 -51t44.5 -35t53.5 -25q-14 35 -21.5 77t-7.5 93q0 88 34.5 158.5t89.5 120t124.5 76t140.5 26.5q57 0 102 -13t85.5 -34t79 -46.5t82.5 -50.5l-103 -184q-53 31 -89.5 52t-64.5 34t-49.5 18t-42.5 5q-31 0 -64.5 -11
t-61.5 -32t-46.5 -51t-18.5 -68q0 -62 28 -102.5t72 -64.5t99.5 -33.5t109.5 -9.5z" />
    <glyph glyph-name="uni06F5" unicode="&#x6f5;" horiz-adv-x="1406" 
d="M578 1523q6 -5 40 -32.5t86 -75t116.5 -112.5t131 -143.5t129.5 -168.5t112 -187.5t79 -201t30 -208.5q0 -67 -12.5 -119.5t-32.5 -92.5t-44 -68.5t-48 -47.5h1q-48 -39 -107.5 -59.5t-121.5 -20.5h-6q-60 0 -119 19.5t-109 61.5q-59 -54 -135 -73q-45 -11 -91 -11
q-31 0 -85 9t-122.5 52t-111.5 114q-23 39 -36 77t-20 70t-8.5 56.5t-1.5 36.5q0 94 22 185t58.5 176.5t83 163t95 144t94.5 121t83 92.5l-84 67zM1026 235q29 24 49.5 63.5t20.5 95.5q0 66 -18 134.5t-49.5 136.5t-72.5 134t-87.5 127.5t-94.5 117.5t-93 103
q-32 -34 -72.5 -82t-83 -107t-83.5 -126t-73 -139t-51.5 -147t-19.5 -148q0 -49 21.5 -94.5t57.5 -73t84 -30.5h7q44 0 92 33q15 10 22.5 28.5t11.5 40t4.5 44.5t0.5 44q0 29 -3 49.5t-7 40.5l219 41q5 -36 7.5 -63t2.5 -65q0 -23 -1.5 -49.5t-6.5 -52.5q0 -5 6 -17.5
t11 -20.5q16 -22 41 -34.5t53 -14.5h11q23 0 47.5 6.5t46.5 24.5z" />
    <glyph glyph-name="uni06F6" unicode="&#x6f6;" horiz-adv-x="1150" 
d="M1064 990l-76 -76q-13 -13 -48 -55t-84 -107t-108 -150.5t-121 -187t-124 -216.5t-115 -238l-200 88q37 86 83.5 173.5t96 170t98 158t89.5 137.5q-9 -1 -16 -1h-16q-41 0 -84.5 5.5t-86 19t-80.5 34.5t-68 53q-53 58 -76 129q-20 59 -20 120q0 12 2.5 55t34 113.5
t87.5 127.5q34 30 71.5 51t81 36t94 27.5t109.5 26.5l47 -214q-37 -7 -74.5 -15t-71.5 -18t-62 -23.5t-46 -30.5q-23 -21 -38 -52t-19 -64q-2 -13 -2 -26q0 -21 6 -48.5t28 -55.5q8 -9 22.5 -18t35 -16.5t46.5 -11.5q15 -2 31 -2q12 0 25 1q70 4 150.5 51t170.5 131l80 78z
" />
    <glyph glyph-name="uni066A" unicode="&#x66a;" horiz-adv-x="1174" 
d="M776 1569h216l-595 -1570h-214zM916 6l-203 203l202 201l203 -203zM285 1126l-203 203l202 201l203 -203z" />
    <glyph glyph-name="uni061F" unicode="&#x61f;" horiz-adv-x="1083" 
d="M590 770q27 -20 48.5 -55t36.5 -79.5t23 -95.5t8 -103v-132h-210v132q0 64 -26 120.5t-76 101.5q-47 42 -100 82t-99 83q-57 53 -81 126t-24 159q0 88 41 162.5t107 129.5t148.5 86t165.5 31q106 0 189.5 -34.5t141 -97.5t86.5 -150q26 -80 26 -174v-20h-210
q0 141 -58.5 203t-174.5 62q-41 0 -82.5 -15t-76 -41t-56 -62t-21.5 -79q0 -63 24.5 -115.5t72.5 -89.5zM603 -172l-169 172l176 175l170 -175z" />
    <glyph glyph-name="uni060C" unicode="&#x60c;" horiz-adv-x="580" 
d="M478 150q0 -33 -15.5 -61.5t-40.5 -49.5t-57 -33t-65 -12q-47 0 -84 19.5t-62.5 52t-39 74.5t-13.5 88q0 120 56 220t179 187l88 -81q-95 -68 -136.5 -135t-43.5 -136q14 8 39 16t52 8q30 0 56 -11.5t45.5 -32.5t30.5 -50t11 -63z" />
    <glyph glyph-name="uni061B" unicode="&#x61b;" horiz-adv-x="562" 
d="M394 125q0 -26 -11 -49.5t-29 -41.5t-42 -28.5t-50 -10.5q-27 0 -51 10.5t-42 28t-28.5 41t-10.5 50.5t10.5 51t28.5 42t42 28.5t51 10.5q26 0 50 -11t42 -29t29 -42t11 -50zM447 570q0 -33 -16 -61.5t-41.5 -49.5t-57 -32.5t-63.5 -11.5q-49 0 -86.5 19t-62.5 51.5
t-37.5 74.5t-12.5 89q0 241 191 363l90 -82q-34 -22 -59.5 -50.5t-42 -59t-23.5 -58.5q-4 -17 -4 -31q0 -11 2 -20q39 12 79.5 11.5t72.5 -16.5t52 -49q19 -31 19 -82v-5z" />
    <glyph glyph-name="uni066B" unicode="&#x66b;" horiz-adv-x="695" 
d="M439 853h158l-487 -1081h-159z" />
    <glyph glyph-name="uni066C" unicode="&#x66c;" horiz-adv-x="513" 
d="M289 2q-39 -16 -75 -16q-5 0 -29 1.5t-56 21.5t-52 56t-23 83q0 37 14.5 67t38.5 51t55.5 32.5t66.5 11.5h5q46 0 83 -18t63 -49.5t39 -74t13 -89.5v-16q0 -134 -79.5 -244.5t-257.5 -199.5l-64 117q126 60 191 126t67 140z" />
    <glyph glyph-name="uni066D" unicode="&#x66d;" horiz-adv-x="1126" 
d="M215 727l224 310l-357 44l29 193l389 -95l-41 377h205l-27 -368l381 86l26 -193l-356 -44l223 -310l-178 -96l-172 345l-162 -345z" />
    <glyph glyph-name="uni064B" unicode="&#x64b;" 
d="M-245 1706l490 182v-123l-490 -184v125zM-245 1937l490 182v-122l-490 -184v124z" />
    <glyph glyph-name="uni064D" unicode="&#x64d;" 
d="M-245 -676l490 182v-122l-490 -185v125zM-245 -445l490 183v-123l-490 -184v124z" />
    <glyph glyph-name="uni064E" unicode="&#x64e;" 
d="M-245 1706l490 182v-123l-490 -184v125z" />
    <glyph glyph-name="uni064F" unicode="&#x64f;" 
d="M-289 1630q34 10 72 22.5t76 28.5t74 35t65 43q-47 13 -85 39t-61 60.5t-28 73.5q-2 10 -2 20q0 29 13 58q16 32 43.5 59.5t60.5 43.5t70 18h7q32 0 62 -16q54 -29 77.5 -75t23.5 -99q0 -54 -19.5 -109.5t-52.5 -102.5q-22 -31 -53 -56.5t-66 -46.5t-71.5 -37t-70 -28
t-61.5 -20.5t-45 -13.5zM16 2026q-12 0 -26.5 -3t-28.5 -9t-25.5 -15.5t-18.5 -22.5q-4 -5 -4 -12q0 -9 8 -25.5t29 -38t50.5 -38.5t61.5 -20q7 18 13 48q5 23 5 45q0 8 -1.5 26t-15.5 40t-47 25z" />
    <glyph glyph-name="uni064C" unicode="&#x64c;" 
d="M-269 1665q6 11 15 29t14.5 38.5t5 40.5t-11.5 36q-11 15 -26 19q-7 2 -15 2t-20 -3t-27.5 -11t-25.5 -15l-64 63q3 4 14.5 15.5t30.5 23t45 20.5q22 7 49 7h7q36 -2 64.5 -19.5t45.5 -49.5q19 -34 21 -74v-16q0 -31 -6 -61q24 7 50.5 16.5t52.5 20.5t50.5 23t45.5 25
q-1 0 -2 1q-47 15 -82.5 41.5t-56.5 59.5t-24 71q-1 7 -1 13q0 31 15 60q15 31 41 57.5t58.5 42t68.5 18.5h11q29 0 57 -13q49 -24 72.5 -67t26.5 -93l1 -17q0 -43 -14.5 -91t-42.5 -91q-21 -32 -56.5 -58.5t-76 -48t-83 -38t-78.5 -27.5t-62 -17t-33 -7zM71 2057
q-11 0 -25 -4t-28.5 -11t-26.5 -17t-19 -22v-6q0 -22 13.5 -40.5t36 -33.5t47.5 -26t44 -18l6.5 32.5t5.5 35.5q1 12 1 24q0 6 -0.5 18t-6.5 27q-5 15 -17.5 28t-30.5 13z" />
    <glyph glyph-name="uni0650" unicode="&#x650;" 
d="M-245 -445l490 183v-123l-490 -184v124z" />
    <glyph glyph-name="uni0651" unicode="&#x651;" 
d="M-130 1686q-89 0 -139.5 49.5t-50.5 137.5v101h101v-101q0 -46 21 -66.5t68 -20.5q7 0 19.5 2.5t25 11.5t21.5 26.5t9 46.5v101h102v-101q0 -46 21 -67t69 -21q7 0 19 3t24 12.5t20.5 26.5t8.5 46q0 16 -3.5 35.5t-8.5 39t-9.5 36.5t-7.5 27l94 32q1 -5 7 -23t12.5 -43
t11.5 -52.5t5 -51.5q0 -48 -15.5 -83.5t-40.5 -58.5t-56.5 -34.5t-62.5 -11.5q-91 0 -140 51q-26 -26 -58.5 -38t-66.5 -12z" />
    <glyph glyph-name="uni0652" unicode="&#x652;" 
d="M-2 1666q-52 0 -94 15t-72 43.5t-46 69.5t-16 92q0 52 16 93.5t46 70.5t72 44.5t94 15.5q50 0 92.5 -15.5t74 -44.5t49.5 -70t18 -92t-17.5 -92.5t-48.5 -70.5t-74 -44q-40 -15 -88 -15h-6zM-2 1779q23 0 44 7t36.5 20.5t25 33.5t9.5 46t-9.5 46.5t-25 35t-36.5 22.5
t-44 8q-24 0 -45.5 -8t-37 -22.5t-25 -35t-9.5 -46.5q0 -54 31.5 -80.5t85.5 -26.5z" />
    <glyph glyph-name="uni0653" unicode="&#x653;" 
d="M424 1605h-490q-61 0 -103 -5t-70.5 -20t-47.5 -43.5t-33 -75.5l-172 51q25 85 69 142.5t104 89.5q52 26 115 34t138 8h490v-181z" />
    <glyph glyph-name="uni0654" unicode="&#x654;" 
d="M-260 1498v133l118 35q-34 31 -55.5 71t-21.5 86q0 33 11.5 65.5t31.5 59.5t48 46.5t60 28.5h-1q17 5 33.5 7.5t33.5 2.5q38 0 69 -10.5t60 -21.5l-27 -110q-26 6 -51 12.5t-49 6.5q-15 0 -30 -5q-15 -6 -29.5 -15.5t-24.5 -22.5t-13 -29q-2 -6 -2 -13q0 -11 4 -22
q9 -28 40.5 -47.5t86.5 -19.5q10 0 22.5 1t32 5.5t48.5 12t72 21.5l8 -126z" />
    <glyph glyph-name="uni0655" unicode="&#x655;" 
d="M-219 -634v133l118 35q-34 31 -55.5 71t-21.5 86q0 33 11.5 65.5t31.5 59.5t48 46.5t60 28.5h-1q17 5 33.5 7.5t33.5 2.5q38 0 69 -10.5t60 -21.5l-27 -110q-26 6 -51 12.5t-49 6.5q-15 0 -30 -5q-15 -6 -29.5 -15.5t-24.5 -22.5t-13 -29q-2 -6 -2 -13q0 -11 4 -22
q9 -28 40.5 -47.5t86.5 -19.5q10 0 22.5 1t32 5.5t48.5 12t72 21.5l8 -126z" />
    <glyph glyph-name="uni0670" unicode="&#x670;" 
d="M-64 2063h126v-407h-126v407z" />
    <glyph glyph-name="uni0656" unicode="&#x656;" 
d="M-64 -390h126v-408h-126v408z" />
    <glyph glyph-name="uni0615" unicode="&#x615;" 
d="M-345 1201v95h102q11 18 22.5 34.5t22.5 34.5v489h93v-354q38 43 82.5 71t99.5 28q33 0 66 -12.5t58.5 -38.5t41.5 -66t16 -94q0 -52 -17.5 -88t-44.5 -58t-60 -31.5t-65 -9.5h-417zM77 1504q-29 0 -57 -19.5t-54.5 -49.5t-50.5 -67t-45 -72h202q39 0 65 22t26 70
q0 56 -22 86t-64 30z" />
    <glyph glyph-name="wasla" 
d="M-313 1569l21 95h130l46 71l83 122q35 51 84 80.5t107 29.5q33 0 66 -12.5t58.5 -38.5t41.5 -66t16 -94q0 -52 -17.5 -88t-44.5 -58t-60 -31.5t-65 -9.5h-466zM158 1872q-30 0 -58 -19.5t-54 -49.5t-50 -67t-45 -72h202q39 0 65 22t26 70q0 56 -22 86t-64 30z" />
    <glyph glyph-name="beh_dotless_alt.init" horiz-adv-x="892" 
d="M719 818q2 -6 8 -32.5t14.5 -65.5t17 -86t16 -94.5t12.5 -92t5 -77.5q0 -99 -33 -172t-85.5 -120t-118.5 -70t-132 -23h-445v219h452q13 0 38.5 4t50.5 20.5t43.5 49.5t18.5 92q0 22 -4 55t-10 71t-14 78t-15.5 75t-14.5 63t-11 43z" />
    <glyph glyph-name="beh_dotless_alt.medi" horiz-adv-x="1061" 
d="M1081 204v-219h-160q-88 0 -158 24.5t-115 72.5q-54 -47 -131.5 -72t-175.5 -25h-361v219h361q66 0 105.5 13t59.5 32.5t26 43t6 45.5v339h218v-332q0 -34 10.5 -57.5t26.5 -39t35 -24.5t37.5 -13.5t33.5 -5.5t22 -1h160z" />
    <glyph glyph-name="onedot.below" 
d="M-165 -289l166 168l170 -170l-168 -168z" />
    <glyph glyph-name="twodots.below" 
d="M188 -446l-158 160l156 162l162 -162zM-193 -444l-158 160l156 162l162 -162z" />
    <glyph glyph-name="alef_alt.isol" horiz-adv-x="599" 
d="M409 -15h-219v1292h219v-1292z" />
    <glyph glyph-name="alef_alt.fina" horiz-adv-x="676" 
d="M691 -15q-150 0 -247.5 31.5t-157.5 100.5q-32 36 -51 78.5t-29 87.5t-13 91.5t-3 90.5v812h219v-812q0 -85 9.5 -133t32.5 -74q25 -28 83.5 -41t156.5 -13v-219z" />
    <glyph glyph-name="uni06D5" unicode="&#x6d5;" horiz-adv-x="1007" 
d="M488 -15q-93 0 -170.5 28.5t-134 79t-87.5 119.5t-31 151q0 83 21.5 152t58.5 130t85.5 117t101.5 112l-63 70l162 147q23 -26 51.5 -56.5t52.5 -56.5q71 -76 139 -150.5t121 -149t85 -149.5q31 -74 31 -147v-5q-1 -85 -33.5 -157.5t-95.5 -129.5q-58 -50 -132 -77.5
t-162 -27.5zM476 738q-41 -46 -76 -89t-61 -88t-40.5 -93.5t-14.5 -104.5q0 -41 17 -71t45.5 -49.5t65.5 -29t76 -9.5q96 0 150 47.5t54 125.5q0 47 -18 93t-48 91t-69 89.5t-81 87.5z" />
    <glyph glyph-name="heh_ae.fina" horiz-adv-x="1258" 
d="M1278 -15h-44q-78 0 -150.5 16.5t-133.5 49t-108.5 81t-74.5 112.5q-24 -45 -63.5 -77.5t-92.5 -54.5q-67 -28 -133 -33q-20 -2 -40 -2q-45 0 -97 12t-104.5 45t-91.5 82t-61 112.5t-22 139.5q0 106 41.5 191t110 150t157.5 111.5t184 76.5q-5 26 -10 48.5t-9 46.5
l210 50l178 -719q18 -72 55.5 -115t82 -66.5t90.5 -30.5t82 -7h44v-219zM661 471q4 22 4 45q0 16 -3.5 43.5t-12.5 68t-20 80.5t-19 78q-170 -53 -261 -135t-91 -184q0 -53 25.5 -89t64.5 -55.5t87 -21.5h10q42 0 81 14q57 24 90.5 59.5t44.5 96.5z" />
    <glyph glyph-name="uni06C2" unicode="&#x6c2;" horiz-adv-x="1007" 
d="M503 -15q-93 0 -170.5 28.5t-134 79t-87.5 119.5t-31 151q0 83 21.5 152t58.5 130t85.5 117t101.5 112l-63 70l162 147q23 -26 51.5 -56.5t52.5 -56.5q71 -76 139 -150.5t121 -149t85 -149.5q31 -74 31 -147v-5q-1 -85 -33.5 -157.5t-95.5 -129.5q-58 -50 -132 -77.5
t-162 -27.5zM491 738q-41 -46 -76 -89t-61 -88t-40.5 -93.5t-14.5 -104.5q0 -41 17 -71t45.5 -49.5t65.5 -29t76 -9.5q96 0 150 47.5t54 125.5q0 47 -18 93t-48 91t-69 89.5t-81 87.5zM189 1166v133l118 35q-34 31 -55.5 71t-21.5 86q0 33 11.5 65.5t31.5 59.5t48 46.5
t60 28.5h-1q17 5 33.5 7.5t33.5 2.5q38 0 69 -10.5t60 -21.5l-27 -110q-26 6 -51 12.5t-49 6.5q-15 0 -30 -5q-15 -6 -29.5 -15.5t-24.5 -22.5t-13 -29q-2 -6 -2 -13q0 -11 4 -22q9 -28 40.5 -47.5t86.5 -19.5q10 0 22.5 1t32 5.5t48.5 12t72 21.5l8 -126z" />
    <glyph glyph-name="uni06C3" unicode="&#x6c3;" horiz-adv-x="1007" 
d="M503 -15q-93 0 -170.5 28.5t-134 79t-87.5 119.5t-31 151q0 83 21.5 152t58.5 130t85.5 117t101.5 112l-63 70l162 147q23 -26 51.5 -56.5t52.5 -56.5q71 -76 139 -150.5t121 -149t85 -149.5q31 -74 31 -147v-5q-1 -85 -33.5 -157.5t-95.5 -129.5q-58 -50 -132 -77.5
t-162 -27.5zM491 738q-41 -46 -76 -89t-61 -88t-40.5 -93.5t-14.5 -104.5q0 -41 17 -71t45.5 -49.5t65.5 -29t76 -9.5q96 0 150 47.5t54 125.5q0 47 -18 93t-48 91t-69 89.5t-81 87.5zM643 1171l-158 160l156 162l162 -162zM241 1173l-158 160l155 162l162 -162z" />
    <glyph glyph-name="uni06F0" unicode="&#x6f0;" horiz-adv-x="1107" 
d="M544 177q-81 0 -152 31t-124.5 84.5t-84 125.5t-30.5 153t30.5 152t84 124.5t124.5 84t152 30.5t153 -30.5t125.5 -84t84.5 -124.5t31 -152t-31 -153t-84.5 -125.5t-125.5 -84.5t-153 -31zM544 750q-37 0 -69.5 -14t-56.5 -38.5t-38 -57t-14 -69.5t14 -70t38 -57.5
t56.5 -39t69.5 -14.5t70 14.5t58 39t39.5 57.5t14.5 70t-14.5 69.5t-39.5 57t-58 38.5t-70 14z" />
    <glyph glyph-name="uni06F1" unicode="&#x6f1;" horiz-adv-x="629" 
d="M246 -14v80.5t2 85.5v-1q1 48 1.5 99.5t0.5 108.5q0 110 -3.5 232t-17 253t-39 270t-70.5 282l206 67q49 -157 77.5 -306.5t43 -289t18.5 -268t4 -243.5q0 -57 -0.5 -109t-1.5 -100q-2 -40 -2 -84v-77h-219z" />
    <glyph glyph-name="uni06F2" unicode="&#x6f2;" horiz-adv-x="1183" 
d="M993 1459q3 -9 13 -44.5t21.5 -84.5t20 -105.5t8.5 -105.5q0 -99 -32.5 -172t-84.5 -121t-118 -71t-132 -23q-73 0 -135 21.5t-113 53.5q20 -184 24 -346t4 -292v-74q-2 -26 -2 -57v-54h-216v227q0 118 -4.5 254.5t-20.5 286t-47 310.5t-84 330l208 67l44 -134
q0 -1 9 -29.5t27 -70t46 -90t66 -89.5t86 -68.5t108 -27.5q13 0 38 4.5t50 21.5t44 50.5t19 92.5q0 32 -6 71.5t-15 78t-18.5 71.5t-15.5 52z" />
    <glyph glyph-name="uni06F3" unicode="&#x6f3;" horiz-adv-x="1495" 
d="M1307 1458q9 -36 18.5 -73t18 -78.5t14.5 -87.5t9 -100q1 -16 1 -31q0 -59 -13.5 -121t-50 -115.5t-95.5 -85.5t-143 -32q-30 0 -64.5 7t-70 22.5t-70 42t-64.5 65.5q-45 -62 -102 -92.5t-109 -42.5h1q-15 -4 -31.5 -5.5t-33.5 -1.5q-55 0 -108 22q14 -160 17 -303.5
t3 -258.5v-203h-218v183q0 79 -1.5 173t-6.5 198t-15 213.5t-26.5 219.5t-41.5 216t-60 203l207 68q10 -34 19 -64t17.5 -61t17.5 -65t19 -76q11 -41 28.5 -85.5t42 -80.5t56.5 -58q27 -20 61 -20h9q27 4 50 19t39 47.5t25 83.5t9 127q0 43 -1.5 86t-7.5 104l216 20
q12 -122 27 -213t36.5 -151.5t53 -90.5t77.5 -30q48 0 66 35t18 96v18t-1 19q-2 40 -9 80.5t-15 77.5t-16.5 67.5t-14.5 50.5z" />
    <glyph glyph-name="uni06F9" unicode="&#x6f9;" horiz-adv-x="1016" 
d="M725 -70q-20 53 -34 133t-24 176t-16.5 201.5t-9.5 209.5h-158q-72 0 -143.5 21t-129 67t-93 119t-35.5 177q0 101 29 181.5t81.5 136.5t124.5 85.5t159 29.5q96 0 167 -35.5t118 -97.5t70.5 -145.5t23.5 -180.5q0 -190 5 -353.5t15 -292.5t23 -219.5t30 -135.5zM638 869
q-2 41 -2 74.5v64.5q0 57 -9 98t-23.5 68.5t-32.5 44t-36 25.5t-33.5 11.5t-25.5 2.5q-41 0 -76 -15t-60.5 -43.5t-39.5 -70t-14 -95.5q0 -44 19 -75t48.5 -51t64 -29.5t65.5 -9.5h155z" />
    <glyph glyph-name="uni06F7" unicode="&#x6f7;" horiz-adv-x="1393" 
d="M1322 1346q-106 -126 -197.5 -303.5t-168.5 -398.5q-33 -92 -59 -185.5t-44.5 -180t-28.5 -162.5t-10 -133h-218q0 57 -10 133t-28.5 162.5t-45 180t-58.5 185.5q-77 220 -170.5 396t-198.5 303l169 142q57 -69 112 -160t106.5 -196t98.5 -220t88 -232q8 -23 14 -38.5
t10.5 -30.5t9.5 -31t12 -39q11 35 22 69.5t24 69.5q41 117 87.5 232t97 220t105.5 196.5t113 161.5z" />
    <glyph glyph-name="uni06F8" unicode="&#x6f8;" horiz-adv-x="1419" 
d="M964 781q37 -110 80.5 -211t91.5 -192t98.5 -169t103.5 -141l-169 -140q-57 69 -113 162t-108.5 200.5t-100.5 225.5t-90 237q-8 23 -13.5 39t-10 30.5t-9.5 30t-12 38.5q-11 -35 -23 -70t-24 -68q-41 -117 -88.5 -235t-100 -226t-108 -201.5t-112.5 -161.5l-171 139
q52 61 102.5 140t98.5 171t92 193.5t82 208.5q31 91 57 182.5t45 176.5t29.5 159t10.5 130h218q0 -57 10.5 -130.5t29.5 -157.5t45.5 -175.5t58.5 -184.5z" />
    <glyph glyph-name="uni06F4.urdu" horiz-adv-x="1133" 
d="M1103 1285q-76 -67 -139 -139q-26 -31 -55 -69t-56.5 -82.5t-53 -93.5t-44.5 -103l-141 -44q-38 182 -114 291q-37 53 -74 84q-31 25 -61 25q-7 0 -14 -1q-29 -5 -41.5 -28.5t-12.5 -49.5q0 -48 25 -131.5t90 -216.5l89 -181q36 -80 63 -156t45 -144t27.5 -125.5
t10.5 -99.5l-180 -49q-16 100 -45.5 204t-72.5 207q-42 99 -82.5 189.5t-82.5 182.5q-15 33 -30 72.5t-27 81.5t-19.5 85.5t-7.5 83.5q0 78 29 145t102 112v-1q22 14 63.5 26.5t90.5 12.5t99 -16t91 -57q36 -36 65.5 -85.5t55.5 -110.5q22 46 58 96t77.5 96t85 83.5
t81.5 57.5z" />
    <glyph glyph-name="uni06F7.urdu" horiz-adv-x="1007" 
d="M882 22q-20 -5 -41.5 -10t-36.5 -7q-30 -5 -70.5 -9t-85.5 -7t-92 -4.5t-91 -1.5t-83 3t-92 9q-54 5 -97 12t-74 16q-11 47 -17 92.5t-6 91.5q0 99 35.5 198t97.5 204q20 34 44.5 73t57.5 87t76 106.5t100.5 131t131 161t166.5 197.5q7 -8 16 -17.5t22.5 -25t34 -40.5
t52.5 -62l-123 -151l-240 -311q-72 -95 -123.5 -176.5t-85 -147.5t-50.5 -114.5t-19 -77.5q66 -13 132 -20t126 -7q97 0 196 12t198 28v-215z" />
    <glyph glyph-name="Ghunna_above" 
d="M-66 1194q-87 0 -137.5 58t-50.5 167q0 117 37 209h80q-33 -81 -33 -203q0 -157 123 -157h24q82 0 120 36t38 111v215h80v-209q0 -112 -56 -169.5t-177 -57.5h-48zM-51 1843h80v-334h-80v334z" />
    <glyph glyph-name="uni0651064B" 
d="M-140 1686q-89 0 -139.5 49.5t-50.5 137.5v101h101v-101q0 -46 21 -66.5t68 -20.5q7 0 19.5 2.5t25 11.5t21.5 26.5t9 46.5v101h102v-101q0 -46 21 -67t69 -21q7 0 19 3t24 12.5t20.5 26.5t8.5 46q0 16 -3.5 35.5t-8.5 39t-9.5 36.5t-7.5 27l94 32q1 -5 7 -23t12.5 -43
t11.5 -52.5t5 -51.5q0 -48 -15.5 -83.5t-40.5 -58.5t-56.5 -34.5t-62.5 -11.5q-91 0 -140 51q-26 -26 -58.5 -38t-66.5 -12zM-292 2187l490 182v-123l-490 -184v125zM-292 2418l490 182v-122l-490 -184v124z" />
    <glyph glyph-name="uni0654064B" 
d="M-245 2135l490 182v-123l-490 -184v125zM-245 2366l490 182v-122l-490 -184v124zM-230 1471v133l118 35q-34 31 -55.5 71t-21.5 86q0 33 11.5 65.5t31.5 59.5t48 46.5t60 28.5h-1q17 5 33.5 7.5t33.5 2.5q38 0 69 -10.5t60 -21.5l-27 -110q-26 6 -51 12.5t-49 6.5
q-15 0 -30 -5q-15 -6 -29.5 -15.5t-24.5 -22.5t-13 -29q-2 -6 -2 -13q0 -11 4 -22q9 -28 40.5 -47.5t86.5 -19.5q10 0 22.5 1t32 5.5t48.5 12t72 21.5l8 -126z" />
    <glyph glyph-name="uni0654064E" 
d="M-245 2117l490 182v-123l-490 -184v125zM-214 1460v133l118 35q-34 31 -55.5 71t-21.5 86q0 33 11.5 65.5t31.5 59.5t48 46.5t60 28.5h-1q17 5 33.5 7.5t33.5 2.5q38 0 69 -10.5t60 -21.5l-27 -110q-26 6 -51 12.5t-49 6.5q-15 0 -30 -5q-15 -6 -29.5 -15.5t-24.5 -22.5
t-13 -29q-2 -6 -2 -13q0 -11 4 -22q9 -28 40.5 -47.5t86.5 -19.5q10 0 22.5 1t32 5.5t48.5 12t72 21.5l8 -126z" />
    <glyph glyph-name="uni0654064C" 
d="M-269 2143q6 11 15 29t14.5 38.5t5 40.5t-11.5 36q-11 15 -26 19q-7 2 -15 2t-20 -3t-27.5 -11t-25.5 -15l-64 63q3 4 14.5 15.5t30.5 23t45 20.5q22 7 49 7h7q36 -2 64.5 -19.5t45.5 -49.5q19 -34 21 -74v-16q0 -31 -6 -61q24 7 50.5 16.5t52.5 20.5t50.5 23t45.5 25
q-1 0 -2 1q-47 15 -82.5 41.5t-56.5 59.5t-24 71q-1 7 -1 13q0 31 15 60q15 31 41 57.5t58.5 42t68.5 18.5h11q29 0 57 -13q49 -24 72.5 -67t26.5 -93l1 -17q0 -43 -14.5 -91t-42.5 -91q-21 -32 -56.5 -58.5t-76 -48t-83 -38t-78.5 -27.5t-62 -17t-33 -7zM71 2535
q-11 0 -25 -4t-28.5 -11t-26.5 -17t-19 -22v-6q0 -22 13.5 -40.5t36 -33.5t47.5 -26t44 -18l6.5 32.5t5.5 35.5q1 12 1 24q0 6 -0.5 18t-6.5 27q-5 15 -17.5 28t-30.5 13zM-260 1498v133l118 35q-34 31 -55.5 71t-21.5 86q0 33 11.5 65.5t31.5 59.5t48 46.5t60 28.5h-1
q17 5 33.5 7.5t33.5 2.5q38 0 69 -10.5t60 -21.5l-27 -110q-26 6 -51 12.5t-49 6.5q-15 0 -30 -5q-15 -6 -29.5 -15.5t-24.5 -22.5t-13 -29q-2 -6 -2 -13q0 -11 4 -22q9 -28 40.5 -47.5t86.5 -19.5q10 0 22.5 1t32 5.5t48.5 12t72 21.5l8 -126z" />
    <glyph glyph-name="uni0654064F" 
d="M-289 2125q34 10 72 22.5t76 28.5t74 35t65 43q-47 13 -85 39t-61 60.5t-28 73.5q-2 10 -2 20q0 29 13 58q16 32 43.5 59.5t60.5 43.5t70 18h7q32 0 62 -16q54 -29 77.5 -75t23.5 -99q0 -54 -19.5 -109.5t-52.5 -102.5q-22 -31 -53 -56.5t-66 -46.5t-71.5 -37t-70 -28
t-61.5 -20.5t-45 -13.5zM16 2521q-12 0 -26.5 -3t-28.5 -9t-25.5 -15.5t-18.5 -22.5q-4 -5 -4 -12q0 -9 8 -25.5t29 -38t50.5 -38.5t61.5 -20q7 18 13 48q5 23 5 45q0 8 -1.5 26t-15.5 40t-47 25zM-260 1498v133l118 35q-34 31 -55.5 71t-21.5 86q0 33 11.5 65.5t31.5 59.5
t48 46.5t60 28.5h-1q17 5 33.5 7.5t33.5 2.5q38 0 69 -10.5t60 -21.5l-27 -110q-26 6 -51 12.5t-49 6.5q-15 0 -30 -5q-15 -6 -29.5 -15.5t-24.5 -22.5t-13 -29q-2 -6 -2 -13q0 -11 4 -22q9 -28 40.5 -47.5t86.5 -19.5q10 0 22.5 1t32 5.5t48.5 12t72 21.5l8 -126z" />
    <glyph glyph-name="uni06540652" 
d="M-12 2091q-52 0 -94 15t-72 43.5t-46 69.5t-16 92q0 52 16 93.5t46 70.5t72 44.5t94 15.5q50 0 92.5 -15.5t74 -44.5t49.5 -70t18 -92t-17.5 -92.5t-48.5 -70.5t-74 -44q-40 -15 -88 -15h-6zM-12 2204q23 0 44 7t36.5 20.5t25 33.5t9.5 46t-9.5 46.5t-25 35t-36.5 22.5
t-44 8q-24 0 -45.5 -8t-37 -22.5t-25 -35t-9.5 -46.5q0 -54 31.5 -80.5t85.5 -26.5zM-260 1498v133l118 35q-34 31 -55.5 71t-21.5 86q0 33 11.5 65.5t31.5 59.5t48 46.5t60 28.5h-1q17 5 33.5 7.5t33.5 2.5q38 0 69 -10.5t60 -21.5l-27 -110q-26 6 -51 12.5t-49 6.5
q-15 0 -30 -5q-15 -6 -29.5 -15.5t-24.5 -22.5t-13 -29q-2 -6 -2 -13q0 -11 4 -22q9 -28 40.5 -47.5t86.5 -19.5q10 0 22.5 1t32 5.5t48.5 12t72 21.5l8 -126z" />
    <glyph glyph-name="uni0655064D" 
d="M-245 -981l490 182v-122l-490 -185v125zM-245 -750l490 183v-123l-490 -184v124zM-219 -634v133l118 35q-34 31 -55.5 71t-21.5 86q0 33 11.5 65.5t31.5 59.5t48 46.5t60 28.5h-1q17 5 33.5 7.5t33.5 2.5q38 0 69 -10.5t60 -21.5l-27 -110q-26 6 -51 12.5t-49 6.5
q-15 0 -30 -5q-15 -6 -29.5 -15.5t-24.5 -22.5t-13 -29q-2 -6 -2 -13q0 -11 4 -22q9 -28 40.5 -47.5t86.5 -19.5q10 0 22.5 1t32 5.5t48.5 12t72 21.5l8 -126z" />
    <glyph glyph-name="uni06550650" 
d="M-245 -738l490 183v-123l-490 -184v124zM-219 -634v133l118 35q-34 31 -55.5 71t-21.5 86q0 33 11.5 65.5t31.5 59.5t48 46.5t60 28.5h-1q17 5 33.5 7.5t33.5 2.5q38 0 69 -10.5t60 -21.5l-27 -110q-26 6 -51 12.5t-49 6.5q-15 0 -30 -5q-15 -6 -29.5 -15.5t-24.5 -22.5
t-13 -29q-2 -6 -2 -13q0 -11 4 -22q9 -28 40.5 -47.5t86.5 -19.5q10 0 22.5 1t32 5.5t48.5 12t72 21.5l8 -126z" />
    <glyph glyph-name="uni0692" unicode="&#x692;" horiz-adv-x="873" 
d="M742 32q-6 -134 -49.5 -242t-121 -184t-186.5 -117t-247 -41h-138v219h138q100 0 172.5 21t119.5 66.5t70 119t23 178.5v624h219v-644zM905 1281l-225 -408h-127l-228 408h160l129 -264l133 264h158z" />
    <glyph glyph-name="uni0695" unicode="&#x695;" horiz-adv-x="802" 
d="M742 32q-6 -134 -49.5 -242t-121 -184t-186.5 -117t-247 -41h-138v219h138q100 0 172.5 21t119.5 66.5t70 119t23 178.5v624h219v-644zM653 -679l-225 -408h-127l-228 408h160l129 -264l133 264h158z" />
    <glyph glyph-name="uni06A8" unicode="&#x6a8;" horiz-adv-x="1598" 
d="M692 -552q-78 0 -151 18t-137 52.5t-117.5 84t-92.5 112.5q-48 77 -73.5 162t-25.5 188q0 128 36 266t116 300l196 -93q-68 -140 -99 -254.5t-31 -219.5q0 -73 16.5 -127.5t49.5 -106.5q48 -78 130 -120.5t183 -42.5h75q148 0 244 23t153 70q23 19 40.5 40.5t29 48t18 60
t7.5 76.5h-158q-73 0 -147.5 20t-135 67.5t-99 126t-38.5 194.5q0 90 26.5 174t78.5 149.5t129.5 105t178.5 39.5q102 0 174.5 -41.5t119 -110.5t68 -158t21.5 -185v-366q0 -72 -11 -132t-32.5 -110t-54.5 -91.5t-78 -77.5q-44 -35 -97 -61t-117 -43.5t-140.5 -26.5
t-169.5 -10h-85zM1094 654q-46 0 -82.5 -18.5t-62 -52.5t-39 -82t-13.5 -108t19.5 -95.5t54.5 -58.5q17 -11 36.5 -17.5t37.5 -10.5t32.5 -5.5t23.5 -1.5h158v162q0 70 -9 118.5t-23.5 80.5t-32.5 50t-36.5 26.5t-35.5 10.5t-28 2zM1031 1168l-160 -162l-160 160l160 162z
M1460 1172l-158 -160l-165 158l162 162zM1239 1454l-150 -150l-148 148l150 150z" />
    <glyph glyph-name="uni06AA" unicode="&#x6aa;" horiz-adv-x="2306" 
d="M448 -15q-67 0 -133 23t-118.5 70t-85 120t-32.5 172q0 50 10 109.5t22 113t23 92.5t14 48l207 -66q-6 -21 -16 -57.5t-19 -79t-15.5 -85t-6.5 -75.5q0 -59 18.5 -92t43.5 -49.5t50 -20.5t38 -4h1535q-7 62 -26 111t-56.5 83t-96.5 52t-145 18q-168 0 -296 1t-224 4.5
t-163.5 10t-114 18.5t-76 30t-49.5 43q-32 42 -32 90v7q0 43 12 82q32 109 139 213.5t295 202.5q101 51 207 93.5t224 78.5l67 -207l-105 -34q-17 -6 -47.5 -17.5t-70 -27.5t-85 -37t-91.5 -45q-132 -69 -214.5 -137t-107.5 -130q20 -4 56.5 -7.5t96.5 -5.5q46 -3 103 -4
t127.5 -2t157 -1h191.5q340 0 473 -234q27 -50 42 -103t22 -102t8 -91t1 -70l-102 -102h-1655z" />
    <glyph glyph-name="uni06B5" unicode="&#x6b5;" horiz-adv-x="1407" 
d="M1394 2022l-225 -408h-127l-228 408h160l129 -264l133 264h158zM594 -568q-68 0 -131.5 15.5t-119 45.5t-102 72.5t-81.5 96.5q-15 24 -30 55.5t-27 71.5t-19.5 89t-7.5 106q0 49 7 102t22.5 113t41 128t63.5 146l197 -94q-57 -118 -85.5 -213.5t-28.5 -182.5
q0 -118 52 -204q20 -28 47.5 -51.5t59.5 -40.5t68 -26.5t74 -9.5h46q110 0 179 23t108 65t53.5 101.5t14.5 133.5v1452h216v-1452q0 -540 -571 -542h-46z" />
    <glyph glyph-name="uni06440675.isol" horiz-adv-x="1272" 
d="M115 -13v219h414q121 0 195 20.5t114.5 67.5t54 123.5t13.5 189.5v819h218v-819q0 -58 -3.5 -119t-15.5 -120.5t-35 -114t-62 -100.5h1q-71 -85 -188 -125.5t-292 -40.5h-414zM242 332l-71 1057l217 25l72 -1082h-218zM479 1434v133l118 35q-34 31 -55.5 71t-21.5 86
q0 33 11.5 65.5t31.5 59.5t48 46.5t60 28.5h-1q17 5 33.5 7.5t33.5 2.5q38 0 69 -10.5t60 -21.5l-27 -110q-26 6 -51 12.5t-49 6.5q-15 0 -30 -5q-15 -6 -29.5 -15.5t-24.5 -22.5t-13 -29q-2 -6 -2 -13q0 -11 4 -22q9 -28 40.5 -47.5t86.5 -19.5q10 0 22.5 1t32 5.5t48.5 12
t72 21.5l8 -126z" />
    <glyph glyph-name="uni06440675.fina" horiz-adv-x="1333" 
d="M116 -13v219h414q121 0 195 20.5t114.5 67.5t54 123.5t13.5 189.5v819h218v-1048q0 -38 12 -70t33.5 -55t52 -36t66.5 -13h65v-219h-65q-97 0 -171.5 41.5t-128.5 110.5q-72 -73 -184 -111.5t-275 -38.5h-414zM238 332l-71 1057l217 25l72 -1082h-218zM479 1444v133
l118 35q-34 31 -55.5 71t-21.5 86q0 33 11.5 65.5t31.5 59.5t48 46.5t60 28.5h-1q17 5 33.5 7.5t33.5 2.5q38 0 69 -10.5t60 -21.5l-27 -110q-26 6 -51 12.5t-49 6.5q-15 0 -30 -5q-15 -6 -29.5 -15.5t-24.5 -22.5t-13 -29q-2 -6 -2 -13q0 -11 4 -22q9 -28 40.5 -47.5
t86.5 -19.5q10 0 22.5 1t32 5.5t48.5 12t72 21.5l8 -126z" />
    <glyph glyph-name="uni06B50627.isol" horiz-adv-x="1272" 
d="M115 -13v219h414q121 0 195 20.5t114.5 67.5t54 123.5t13.5 189.5v819h218v-819q0 -58 -3.5 -119t-15.5 -120.5t-35 -114t-62 -100.5h1q-71 -85 -188 -125.5t-292 -40.5h-414zM242 332l-71 1057l217 25l72 -1082h-218zM1327 1965l-225 -408h-127l-228 408h160l129 -264
l133 264h158z" />
    <glyph glyph-name="uni06B50627.fina" horiz-adv-x="1333" 
d="M116 -13v219h414q121 0 195 20.5t114.5 67.5t54 123.5t13.5 189.5v819h218v-1048q0 -38 12 -70t33.5 -55t52 -36t66.5 -13h65v-219h-65q-97 0 -171.5 41.5t-128.5 110.5q-72 -73 -184 -111.5t-275 -38.5h-414zM238 332l-71 1057l217 25l72 -1082h-218zM1337 1965
l-225 -408h-127l-228 408h160l129 -264l133 264h158z" />
    <glyph glyph-name="uni065A" unicode="&#x65a;" 
d="M291 1426l-225 -408h-127l-228 408h160l129 -264l133 264h158z" />
    <glyph glyph-name="uni065B" unicode="&#x65b;" 
d="M-270 1069l225 408h86l227 -408h-139l-129 264l-133 -264h-137z" />
    <glyph glyph-name="smallv.arabic" 
d="M291 1696l-225 -408h-127l-228 408h160l129 -264l133 264h158z" />
    <glyph glyph-name="circumflex.arabic" 
d="M-270 1286l225 408h86l227 -408h-139l-129 264l-133 -264h-137z" />
    <glyph glyph-name="uni06A4" unicode="&#x6a4;" horiz-adv-x="2074" 
d="M1411 204q99 0 162.5 12t101 31.5t53.5 43t21 46.5h-135q-49 0 -100 5.5t-99.5 20.5t-91 40.5t-74.5 65.5t-50.5 96.5t-18.5 132.5q0 84 28.5 155t80 122.5t122 81t154.5 29.5q77 0 136.5 -21.5t104.5 -60t76 -91.5t50 -115.5t28 -132t9 -141.5v-138q0 -117 -46.5 -194.5
t-123.5 -124t-178 -64.5q-96 -18 -199 -18h-985q-73 0 -138 25t-116 72q-20 19 -41.5 46t-38.5 63.5t-28 83t-11 104.5q0 51 10.5 111.5t23 115t24.5 94t15 48.5l104 -33l105 -33q-7 -21 -17.5 -58.5t-20.5 -81t-17.5 -87.5t-7.5 -76q0 -61 19.5 -96t45 -52.5t51.5 -22
t40 -4.5h972zM1565 867q-31 0 -64 -8.5t-60 -28.5t-44.5 -52.5t-17.5 -79.5q0 -58 20.5 -87.5t53.5 -41.5t75 -12.5t86 -0.5h138q-5 60 -12.5 116t-26.5 99.5t-54 69.5t-94 26zM1507 1326l-160 -162l-160 160l160 162zM1936 1330l-158 -160l-165 158l162 162zM1715 1612
l-150 -150l-148 148l150 150z" />
    <glyph glyph-name="uni06C6" unicode="&#x6c6;" horiz-adv-x="1054" 
d="M199 -333q155 0 254 22t156 69q23 19 40.5 40.5t29 49t18 61t7.5 76.5h-169q-73 0 -147.5 20.5t-135 68.5t-99 127t-38.5 195q0 68 11.5 122t29.5 96.5t40 73.5t43 54q57 57 130.5 88.5t158.5 31.5q74 0 138.5 -23t115.5 -69q69 -65 104.5 -164t35.5 -237v-369
q0 -72 -11 -132.5t-32.5 -111t-54.5 -92t-78 -77.5q-45 -35 -99 -61.5t-121 -43.5t-147.5 -25.5t-179.5 -8.5v219zM528 643q-92 0 -143 -63.5t-51 -183.5q0 -60 18 -97t53 -60q17 -11 36.5 -17.5t37.5 -10.5t32.5 -5.5t23.5 -1.5h169v165q0 70 -10 117.5t-26 77.5
t-35.5 46.5t-39 23.5t-37 8t-28.5 1zM823 1473l-225 -408h-127l-228 408h160l129 -264l133 264h158z" />
    <glyph glyph-name="uni06CE" unicode="&#x6ce;" horiz-adv-x="1626" 
d="M903 -346q96 0 166 16t115 51t66.5 91t21.5 136q-91 24 -180 49q-38 10 -79.5 21t-83 22.5t-81 21.5t-73.5 19q-39 97 -45 193q-2 23 -2 46q0 71 19.5 148t68.5 152t122 130t169 86.5t212 31.5q48 0 96 -7t103 -21l-55 -211q-42 12 -77.5 17.5t-71.5 5.5
q-82 0 -152.5 -26.5t-121 -76t-75.5 -119.5q-20 -54 -20 -117q0 -20 2 -40q42 -11 81.5 -21.5t82 -21.5t90.5 -23t107 -26q91 -23 131 -76t40 -133q0 -135 -31 -236t-100 -168t-178.5 -101t-266.5 -34h-211q-80 0 -153.5 18.5t-137.5 53t-117.5 84t-94.5 111.5
q-97 157 -97 367q0 130 39 272t119 308l194 -94q-67 -142 -100 -259.5t-33 -221.5q0 -149 66 -254q48 -80 131 -122t184 -42h211zM906 1222l-225 -408h-127l-228 408h160l129 -264l133 264h158z" />
    <glyph glyph-name="uni060D" unicode="&#x60d;" horiz-adv-x="662" 
d="M677 -15h-126q-48 0 -91 -24.5t-80.5 -76.5t-70.5 -133t-62 -194l-182 45q77 296 197 449t287 153h128v-219z" />
    <glyph glyph-name="patah.wide" horiz-adv-x="729" 
d="M0 272v192h730v-192h-730z" />
    <glyph glyph-name="uniFD3E" unicode="&#xfd3e;" horiz-adv-x="624" 
d="M523 1355q-1 -1 -2 -3q-4 -5 -9 -12q-14 -21 -29 -45q-49 -79 -89 -167q-130 -283 -130 -561q0 -302 125 -571q40 -84 87 -155q15 -23 29 -41q4 -6 8 -11l2 -3l1 -1l-162 -139v1l-2 1q-1 2 -3 5q-5 6 -11 14q-18 23 -36 50q-57 85 -104 184q-147 314 -147 666
q0 356 151 672q48 101 107 186q19 27 37 51q6 7 11 14l6 6l161 -140z" />
    <glyph glyph-name="uniFD3F" unicode="&#xfd3f;" horiz-adv-x="624" 
d="M100 1356l160 140l6 -6q5 -7 12 -14q18 -24 37 -51q58 -85 106 -186q152 -316 152 -672q0 -352 -148 -666q-46 -99 -103 -184q-19 -27 -36 -50q-6 -8 -11 -14q-2 -3 -4 -5l-2 -2l-162 139l1 1l2 3q4 5 9 11q14 18 29 41q47 71 86 155q125 269 125 571q0 278 -129 561
q-41 88 -89 167l-30 45q-4 7 -8 12q-1 2 -2 3z" />
    <glyph glyph-name="hah_alt.isol" horiz-adv-x="1475" 
d="M1367 596l-644 -236q-132 -49 -215 -91t-129.5 -83.5t-63 -85.5t-16.5 -97q0 -26 2.5 -55t7.5 -62q15 -114 51.5 -192.5t94.5 -127t136.5 -70.5t176.5 -22h500v-219h-500q-147 0 -263 33.5t-200.5 106t-138 187t-74.5 275.5q-9 70 -9 133q0 119 41.5 207.5t116.5 156
t179 118t228 92.5l449 136q-87 34 -178.5 65t-171 55.5t-139.5 41t-84 21.5q-15 0 -30 -1t-30.5 -14t-30.5 -43.5t-30 -88.5l-213 56q42 163 124.5 236t213.5 73q7 0 17 -0.5t29.5 -5t51.5 -14t82 -27t122 -44t171 -65.5l365 -154z" />
    <glyph glyph-name="hah_alt.fina" horiz-adv-x="1565" 
d="M1184 477q0 -85 10 -138q10 -54 29.5 -84t47.5 -40.5t64 -10.5h249v-219h-249q-73 0 -138 20.5t-114.5 69.5t-78.5 131q-28 80 -29 198l-281 -99q-132 -49 -215 -91t-129.5 -83.5t-63 -85.5t-16.5 -97q0 -26 2.5 -55t7.5 -62q15 -114 51.5 -192.5t94.5 -127t136.5 -70.5
t176.5 -22h500v-219h-500q-147 0 -263 33.5t-200.5 106t-138 187t-74.5 275.5q-9 70 -9 133q0 119 41.5 207.5t116.5 156t179 118t228 92.5l441 137q-87 34 -177 65t-168.5 55.5t-137 40.5t-82.5 21q-15 0 -31 -0.5t-31.5 -13.5t-31.5 -43t-31 -88l-213 56q42 163 126.5 235
t215.5 72q7 0 17 -0.5t29.5 -5t51.5 -14t82 -27t122 -44t171 -65.5l366 -154l8 -202z" />
    <glyph glyph-name="sarya" 
d="M77 2013q20 0 43 -2.5t49 -9.5l-29 -109q-17 5 -32.5 6.5t-29.5 1.5q-53 0 -87 -28q-37 -31 -45 -89q56 -10 89 -15.5t53 -10.5q17 -5 28 -9t19 -10q30 -20 30 -58q0 -9 -0.5 -23t-3.5 -31.5t-10 -36.5t-20 -37q-58 -85 -204 -85h-109v112h109q36 0 59.5 6t37 16
t19.5 22.5t8 25.5q-25 5 -69 13t-103 18l-43 7l-4 43q-1 13 -1 25q0 55 20.5 109.5t67.5 94.5q24 20 62.5 37t95.5 17z" />
    <glyph glyph-name="diagonal" horiz-adv-x="957" 
d="M103 1342l752 326l46 -100l-810 -353z" />
    <glyph glyph-name="uni25CC" unicode="&#x25cc;" horiz-adv-x="1217" 
d="M980 918q0 -50 -48 -50q-52 0 -52 50t52 50q48 0 48 -50zM832 1016q0 -49 -48 -49q-52 0 -52 49q0 51 52 51q48 0 48 -51zM1079 770q0 -51 -51 -51q-49 0 -49 51q0 49 51 49q49 0 49 -49zM1115 596q0 -50 -48 -50q-52 0 -52 50t52 50q48 0 48 -50zM658 1053
q0 -51 -50 -51t-50 51q0 49 50 49t50 -49zM485 1016q0 -49 -51 -49q-49 0 -49 49q0 51 49 51q51 0 51 -51zM1079 422q0 -49 -51 -49q-49 0 -49 49q0 51 49 51q51 0 51 -51zM337 918q0 -50 -50 -50t-50 47q0 53 50 53t50 -50zM980 272q0 -49 -48 -49q-52 0 -52 49q0 51 52 51
q48 0 48 -51zM832 174q0 -48 -48 -48q-52 0 -52 48q0 52 52 52q48 0 48 -52zM238 770q0 -51 -48 -51q-52 0 -52 51q0 49 50 49t50 -49zM202 592q0 -46 -48 -46q-52 0 -52 50t52 50q48 0 48 -46v-8zM658 141q0 -51 -50 -51t-50 51q0 49 50 49t50 -49zM238 422q0 -49 -50 -49
t-50 49q0 51 50 51t50 -51zM485 178q0 -52 -51 -52q-49 0 -49 48q0 52 49 52q51 0 51 -48zM337 272q0 -49 -50 -49t-50 49q0 51 50 51t50 -51z" />
    <glyph glyph-name="ZWSP" unicode="&#x200b;" 
 />
    <glyph glyph-name="uni200C" unicode="&#x200c;" 
d="M36 1667v-1484h-72v1484h72z" />
    <glyph glyph-name="uni200D" unicode="&#x200d;" 
d="M36 183h-72v1185l-134 -136l-49 49l171 169l-171 168l49 49l170 -171l170 171l49 -49l-171 -168l171 -169l-49 -49l-134 136v-1185z" />
    <glyph glyph-name="uni200E" unicode="&#x200e;" 
d="M430 1452l-217 -214l-49 49l137 130h-266v-1234h-71v1305h337l-137 130l49 49z" />
    <glyph glyph-name="uni200F" unicode="&#x200f;" 
d="M35 183h-71v1234h-266l137 -130l-49 -49l-217 214l217 215l49 -49l-137 -130h337v-1305z" />
    <glyph glyph-name="thin_hairSpace" unicode="&#x2009;" 
 />
    <glyph glyph-name="thin_hairSpace" unicode="&#x200a;" 
 />
    <glyph glyph-name="word_joiner" unicode="&#x2060;" 
 />
    <glyph glyph-name="line_seperator" unicode="&#x2028;" 
 />
    <glyph glyph-name="paragraph_seperator" unicode="&#x2029;" 
 />
    <glyph glyph-name="exclam" unicode="!" horiz-adv-x="590" 
d="M410 461h-224l-25 1103h275zM293 -145l-179 182l186 185l180 -185z" />
    <glyph glyph-name="quotedbl" unicode="&#x22;" horiz-adv-x="713" 
d="M295 1503l-37 -416h-150v563h187v-147zM619 1503l-38 -416h-149v563h187v-147z" />
    <glyph glyph-name="numbersign" unicode="#" horiz-adv-x="1343" 
d="M772 440h-240l-82 -440h-180l81 440h-248v170h280l63 336h-261v171h293l84 447h179l-84 -447h242l84 447h179l-83 -447h223v-171h-256l-62 -336h237v-170h-269l-82 -440h-179zM564 610h241l62 336h-241z" />
    <glyph glyph-name="dollar" unicode="$" horiz-adv-x="1250" 
d="M880 408q0 92 -58 151.5t-193.5 107t-210.5 88.5q-250 134 -250 398q0 178 108.5 293t293.5 136v235h172v-237q187 -27 289 -158.5t102 -341.5h-260q0 135 -60.5 213t-164.5 78q-103 0 -161 -56t-58 -160q0 -94 57.5 -150t195 -106.5t215.5 -93.5t132 -98.5t83 -127.5
t29 -169q0 -181 -111.5 -294t-309.5 -133v-210h-171v209q-213 23 -327.5 152t-114.5 342h261q0 -135 68.5 -209.5t192.5 -74.5q123 0 187 59t64 157z" />
    <glyph glyph-name="percent" unicode="%" horiz-adv-x="1616" 
d="M106 1263q0 142 91.5 233t239.5 91q151 0 241.5 -91t90.5 -238v-77q0 -141 -90.5 -231.5t-239.5 -90.5q-145 0 -239 89t-94 239v76zM289 1181q0 -75 41.5 -120.5t108.5 -45.5t108 45.5t41 124.5v78q0 74 -41.5 120.5t-108.5 46.5q-68 0 -108.5 -47t-40.5 -123v-79z
M858 383q0 144 93.5 233.5t238.5 89.5q146 0 239 -89.5t93 -240.5v-76q0 -140 -89.5 -230.5t-239.5 -90.5q-151 0 -243 89.5t-92 236.5v78zM1041 300q0 -73 42.5 -120t108.5 -47q69 0 108.5 44.5t39.5 125.5v80q0 76 -42 121t-108 45t-107.5 -45t-41.5 -125v-79zM493 117
l-134 77l764 1223l134 -77z" />
    <glyph glyph-name="ampersand" unicode="&#x26;" horiz-adv-x="1406" 
d="M92 422q0 109 59.5 199.5t233.5 215.5q-92 115 -128 195.5t-36 155.5q0 184 112 291t301 107q171 0 280 -100.5t109 -249.5q0 -97 -49.5 -179.5t-162.5 -163.5l-106 -78l302 -356q65 129 65 287h227q0 -289 -136 -474l230 -272h-303l-88 104q-167 -125 -399 -125
t-371.5 123t-139.5 320zM610 187q132 0 247 88l-341 403l-34 -24q-129 -98 -129 -223q0 -109 70 -176.5t187 -67.5zM466 1195q0 -91 111 -227l119 82l33 26q67 59 67 152q0 61 -46 104.5t-117 43.5q-77 0 -122 -51.5t-45 -129.5z" />
    <glyph glyph-name="quotesingle" unicode="'" horiz-adv-x="372" 
d="M287 1516l-28 -420h-171v554h199v-134z" />
    <glyph glyph-name="parenleft" unicode="(" horiz-adv-x="624" 
d="M523 1355q-1 -1 -2 -3q-4 -5 -9 -12q-14 -21 -29 -45q-49 -79 -89 -167q-130 -283 -130 -561q0 -302 125 -571q40 -84 87 -155q15 -23 29 -41q4 -6 8 -11l2 -3l1 -1l-162 -139v1l-2 1q-1 2 -3 5q-5 6 -11 14q-18 23 -36 50q-57 85 -104 184q-147 314 -147 666
q0 356 151 672q48 101 107 186q19 27 37 51q6 7 11 14l6 6l161 -140z" />
    <glyph glyph-name="parenright" unicode=")" horiz-adv-x="624" 
d="M100 1356l160 140l6 -6q5 -7 12 -14q18 -24 37 -51q58 -85 106 -186q152 -316 152 -672q0 -352 -148 -666q-46 -99 -103 -184q-19 -27 -36 -50q-6 -8 -11 -14q-2 -3 -4 -5l-2 -2l-162 139l1 1l2 3q4 5 9 11q14 18 29 41q47 71 86 155q125 269 125 571q0 278 -129 561
q-41 88 -89 167l-30 45q-4 7 -8 12q-1 2 -2 3z" />
    <glyph glyph-name="asterisk" unicode="*" horiz-adv-x="972" 
d="M357 1044l-328 95l59 181l325 -125l-17 369h193l-16 -376l319 124l58 -185l-333 -95l214 -285l-155 -114l-194 309l-191 -300l-157 110z" />
    <glyph glyph-name="plus" unicode="+" horiz-adv-x="1226" 
d="M737 860h408v-238h-408v-465h-254v465h-410v238h410v436h254v-436z" />
    <glyph glyph-name="comma" unicode="," horiz-adv-x="483" 
d="M171 -352l-141 83q62 98 85.5 170.5t24.5 147.5v203h235l-1 -188q-1 -113 -57.5 -227.5t-145.5 -188.5z" />
    <glyph glyph-name="hyphen" unicode="-" horiz-adv-x="722" 
d="M640 560h-564v210h564v-210z" />
    <glyph glyph-name="period" unicode="." horiz-adv-x="614" 
d="M296 275q74 0 113.5 -41.5t39.5 -103.5q0 -61 -39.5 -101.5t-113.5 -40.5q-69 0 -110 40t-41 102t40 103.5t111 41.5z" />
    <glyph glyph-name="slash" unicode="/" horiz-adv-x="870" 
d="M207 -134h-205l616 1698h205z" />
    <glyph glyph-name="zero" unicode="0" horiz-adv-x="1250" 
d="M1137 658q0 -337 -126.5 -508t-384.5 -171q-253 0 -381.5 167t-131.5 494v271q0 337 126 506t385 169q257 0 383 -164.5t130 -492.5v-271zM875 951q0 220 -60 322.5t-191 102.5q-128 0 -188 -97t-63 -304v-354q0 -219 61 -326.5t192 -107.5q126 0 186 99.5t63 310.5v354z
" />
    <glyph glyph-name="one" unicode="1" horiz-adv-x="1250" 
d="M824 0h-260v1256l-384 -131v220l611 224h33v-1569z" />
    <glyph glyph-name="two" unicode="2" horiz-adv-x="1250" 
d="M1169 0h-1052v179l521 569q113 125 160.5 209.5t47.5 169.5q0 112 -62.5 180.5t-169.5 68.5q-126 0 -196 -77.5t-70 -211.5h-261q0 143 65 257.5t186 178t279 63.5q227 0 359 -114.5t132 -316.5q0 -117 -66.5 -245.5t-216.5 -291.5l-382 -410h726v-208z" />
    <glyph glyph-name="three" unicode="3" horiz-adv-x="1250" 
d="M419 901h159q120 1 190.5 62.5t70.5 177.5q0 112 -58.5 173.5t-178.5 61.5q-106 0 -173.5 -60.5t-67.5 -158.5h-261q0 120 64 219t178.5 154.5t255.5 55.5q235 0 368.5 -118t133.5 -327q0 -105 -67 -198t-174 -141q129 -44 196.5 -138.5t67.5 -225.5
q0 -210 -144.5 -334.5t-380.5 -124.5q-225 0 -369 120t-144 320h261q0 -103 69 -167.5t187 -64.5q121 0 191 64.5t70 186.5q0 124 -73 190.5t-217 66.5h-154v206z" />
    <glyph glyph-name="four" unicode="4" horiz-adv-x="1250" 
d="M1000 558h195v-210h-195v-348h-261v348h-676l-7 159l674 1057h270v-1006zM330 558h409v653l-19 -35z" />
    <glyph glyph-name="five" unicode="5" horiz-adv-x="1250" 
d="M187 776l85 788h840v-226h-623l-43 -373q108 62 245 62q223 0 347 -143t124 -384q0 -239 -137.5 -380t-376.5 -141q-215 0 -356.5 121.5t-152.5 321.5h252q15 -114 81.5 -174.5t174.5 -60.5q120 0 187 86t67 234q0 143 -74 226t-204 83q-71 0 -120.5 -18.5t-107.5 -73.5z
" />
    <glyph glyph-name="six" unicode="6" horiz-adv-x="1250" 
d="M929 1572v-216h-32q-219 -4 -350 -121t-156 -332q126 133 321 133q208 0 327.5 -146.5t119.5 -377.5q0 -238 -140 -385.5t-368 -147.5q-234 0 -379.5 172.5t-145.5 453.5v89q0 411 200 644.5t576 233.5h27zM649 825q-86 0 -157.5 -48.5t-104.5 -128.5v-80
q0 -174 73 -276.5t189 -102.5t183.5 87t67.5 229t-68.5 231t-182.5 89z" />
    <glyph glyph-name="seven" unicode="7" horiz-adv-x="1250" 
d="M1158 1419l-625 -1419h-274l624 1355h-809v209h1084v-145z" />
    <glyph glyph-name="eight" unicode="8" horiz-adv-x="1250" 
d="M1102 1152q0 -115 -59 -205t-161 -141q122 -57 188.5 -156t66.5 -224q0 -206 -140 -326.5t-372 -120.5q-233 0 -373 121t-140 326q0 126 66.5 226t186.5 154q-101 51 -159.5 141t-58.5 205q0 199 129 316.5t348 117.5q220 0 349 -117.5t129 -316.5zM875 439
q0 116 -69 187.5t-183 71.5t-182 -71t-68 -188q0 -115 67 -183.5t185 -68.5t184 66.5t66 185.5zM842 1142q0 102 -59 168t-159 66t-158 -63t-58 -171t58.5 -171t158.5 -63t158.5 63t58.5 171z" />
    <glyph glyph-name="nine" unicode="9" horiz-adv-x="1250" 
d="M857 654q-131 -138 -306 -138q-206 0 -328.5 144.5t-122.5 379.5q0 155 62.5 280.5t177 195.5t266.5 70q236 0 374.5 -176.5t138.5 -471.5v-73q0 -423 -191 -645.5t-570 -225.5h-31v215h37q231 4 354.5 112t138.5 333zM606 720q78 0 147 45t106 124v103
q0 172 -70.5 277.5t-183.5 105.5t-180 -93t-67 -235q0 -147 67.5 -237t180.5 -90z" />
    <glyph glyph-name="colon" unicode=":" horiz-adv-x="583" 
d="M291 275q73 0 113 -41.5t40 -103.5q0 -61 -40 -101.5t-113 -40.5q-70 0 -110.5 40t-40.5 102t39.5 103.5t111.5 41.5zM291 1087q73 0 113 -41.5t40 -103.5q0 -61 -40 -101.5t-113 -40.5q-70 0 -110.5 40t-40.5 102t39.5 103.5t111.5 41.5z" />
    <glyph glyph-name="semicolon" unicode=";" horiz-adv-x="523" 
d="M269 1087q73 0 112.5 -41.5t39.5 -103.5q0 -61 -39.5 -101.5t-112.5 -40.5q-70 0 -111 40t-41 102t40 103.5t112 41.5zM190 -352l-141 83q63 98 86 170.5t24 147.5v203h235l-1 -188q-1 -113 -57.5 -227.5t-145.5 -188.5z" />
    <glyph glyph-name="less" unicode="&#x3c;" horiz-adv-x="1118" 
d="M333 678l634 -241v-261l-899 401v207l899 400v-261z" />
    <glyph glyph-name="equal" unicode="=" horiz-adv-x="1231" 
d="M1082 838h-926v217h926v-217zM1082 382h-926v216h926v-216z" />
    <glyph glyph-name="greater" unicode="&#x3e;" horiz-adv-x="1145" 
d="M801 683l-663 244v257l928 -400v-207l-928 -400v257z" />
    <glyph glyph-name="question" unicode="?" horiz-adv-x="1070" 
d="M376 460q0 143 35.5 227.5t140 186t132.5 144.5q43 66 43 142q0 101 -50 154t-146 53q-93 0 -149.5 -52t-56.5 -141h-261q3 190 130 301t337 111q216 0 336.5 -110t120.5 -306q0 -175 -163 -345l-132 -130q-71 -81 -73 -235h-244zM358 126q0 63 39.5 102t107.5 39
q69 0 108.5 -40t39.5 -101q0 -59 -38.5 -99t-109.5 -40t-109 40t-38 99z" />
    <glyph glyph-name="at" unicode="@" horiz-adv-x="1968" 
d="M1870 556q-13 -268 -132 -423.5t-323 -155.5q-195 0 -260 166q-55 -82 -127.5 -122.5t-152.5 -40.5q-156 0 -237 129q-66 103 -66 263q0 39 4 81q17 175 85 316t173 217.5t223 76.5q90 0 159.5 -22.5t162.5 -93.5l-56 -604q-2 -26 -2 -49q0 -164 125 -164
q109 0 179.5 117.5t77.5 304.5q2 38 2 74q0 343 -163.5 543.5t-507.5 200.5q-210 0 -373 -105.5t-258.5 -304.5t-104.5 -454q-2 -38 -2 -75q0 -212 69 -385.5t223 -271t377 -97.5q90 0 188 21.5t167 57.5l41 -147q-65 -43 -176.5 -69.5t-224.5 -26.5q-272 0 -468 115.5
t-293 334.5q-90 203 -90 477q0 32 1 66q12 294 131.5 529t326.5 365t471 130q267 0 460 -118t289 -338q84 -194 84 -448q0 -34 -2 -70zM786 453q-4 -38 -4 -71q0 -94 35 -160t122 -66q58 0 109.5 51t83.5 140l49 530q-54 20 -105 20q-119 0 -194 -112.5t-96 -331.5z" />
    <glyph glyph-name="A" unicode="A" horiz-adv-x="1464" 
d="M1034 364h-605l-127 -364h-283l591 1564h244l592 -1564h-284zM505 583h453l-226 649z" />
    <glyph glyph-name="B" unicode="B" horiz-adv-x="1388" 
d="M159 0v1564h536q265 0 404 -106.5t139 -316.5q0 -108 -58.5 -193.5t-169.5 -133.5q127 -34 196 -129t69 -228q0 -221 -141 -339t-405 -118h-570zM431 706v-489h302q127 0 199 63.5t72 176.5q0 243 -249 249h-324zM431 906h266q127 0 198.5 57.5t71.5 162.5
q0 116 -66 167.5t-206 51.5h-264v-439z" />
    <glyph glyph-name="C" unicode="C" horiz-adv-x="1436" 
d="M1352 509q-23 -250 -184 -390t-429 -140q-187 0 -329.5 88.5t-219.5 251.5t-80 379v146q0 222 78 390.5t225 260t339 91.5q259 0 417 -141t183 -398h-270q-20 169 -99 243.5t-231 74.5q-177 0 -272 -129.5t-98 -379.5v-138q0 -254 91 -387t266 -133q160 0 240.5 72
t102.5 239h270z" />
    <glyph glyph-name="D" unicode="D" horiz-adv-x="1437" 
d="M159 0v1564h462q207 0 367.5 -92.5t249 -262t88.5 -388.5v-79q0 -222 -89 -390.5t-252.5 -260t-375.5 -91.5h-450zM431 1345v-1128h177q214 0 328.5 133.5t116.5 384.5v87q0 254 -111 388.5t-321 134.5h-190z" />
    <glyph glyph-name="E" unicode="E" horiz-adv-x="1244" 
d="M1073 698h-642v-481h751v-217h-1023v1564h1015v-219h-743v-432h642v-215z" />
    <glyph glyph-name="F" unicode="F" horiz-adv-x="1208" 
d="M1060 663h-629v-663h-272v1564h994v-219h-722v-465h629v-217z" />
    <glyph glyph-name="G" unicode="G" horiz-adv-x="1497" 
d="M1358 203q-85 -111 -235.5 -167.5t-341.5 -56.5q-197 0 -348.5 89t-233.5 255t-85 387v123q0 354 169.5 553.5t473.5 199.5q261 0 415 -129t185 -372h-267q-45 282 -327 282q-183 0 -278 -131.5t-98 -385.5v-121q0 -253 106.5 -393t297.5 -140q208 0 296 94v306h-322v206
h593v-599z" />
    <glyph glyph-name="H" unicode="H" horiz-adv-x="1563" 
d="M1401 0h-271v695h-699v-695h-272v1564h272v-651h699v651h271v-1564z" />
    <glyph glyph-name="I" unicode="I" horiz-adv-x="621" 
d="M446 0h-271v1564h271v-1564z" />
    <glyph glyph-name="J" unicode="J" horiz-adv-x="1221" 
d="M799 1564h271v-1097q0 -224 -140 -356t-370 -132q-245 0 -378.5 123.5t-133.5 343.5h271q0 -125 62 -187.5t179 -62.5q109 0 174 72.5t65 199.5v1096z" />
    <glyph glyph-name="K" unicode="K" horiz-adv-x="1387" 
d="M608 676l-177 -188v-488h-272v1564h272v-734l150 186l458 548h328l-581 -693l615 -871h-322z" />
    <glyph glyph-name="L" unicode="L" horiz-adv-x="1190" 
d="M431 217h710v-217h-982v1564h272v-1347z" />
    <glyph glyph-name="M" unicode="M" horiz-adv-x="1926" 
d="M511 1564l452 -1199l450 1199h351v-1564h-271v516l27 689l-462 -1205h-194l-461 1204l27 -688v-516h-271v1564h352z" />
    <glyph glyph-name="N" unicode="N" horiz-adv-x="1562" 
d="M1400 0h-272l-697 1110v-1110h-272v1564h272l699 -1114v1114h270v-1564z" />
    <glyph glyph-name="O" unicode="O" horiz-adv-x="1519" 
d="M1407 741q0 -230 -79.5 -403.5t-227 -266t-339.5 -92.5q-191 0 -339.5 92.5t-229.5 264.5t-82 397v88q0 229 81 404t228.5 268t339.5 93q191 0 338.5 -92t228 -264.5t81.5 -401.5v-87zM1135 823q0 260 -98 398.5t-279 138.5q-176 0 -275.5 -138t-101.5 -391v-90
q0 -258 100.5 -398.5t279.5 -140.5q180 0 277 137.5t97 401.5v82z" />
    <glyph glyph-name="P" unicode="P" horiz-adv-x="1406" 
d="M431 581v-581h-272v1564h598q262 0 416.5 -136.5t154.5 -360.5q0 -230 -151 -358t-423 -128h-323zM431 799h326q145 0 221.5 68.5t76.5 197.5q0 126 -77.5 202t-212.5 78h-334v-546z" />
    <glyph glyph-name="Q" unicode="Q" horiz-adv-x="1519" 
d="M1402 741q0 -222 -70.5 -385t-197.5 -258l269 -210l-176 -159l-333 263q-66 -13 -141 -13q-189 0 -338 92.5t-230 264.5t-82 397v88q0 229 81 404t229 268t338 93q193 0 341 -92t228.5 -264.5t81.5 -401.5v-87zM1129 823q0 264 -99 400.5t-279 136.5q-175 0 -274.5 -138
t-101.5 -389v-92q0 -253 99.5 -396t278.5 -143q182 0 279 137.5t97 401.5v82z" />
    <glyph glyph-name="R" unicode="R" horiz-adv-x="1373" 
d="M734 603h-303v-603h-272v1564h550q271 0 418 -121.5t147 -351.5q0 -156 -75.5 -262t-211.5 -163l351 -652v-14h-291zM431 821h279q138 0 215 69t77 190q0 125 -71.5 194t-212.5 71h-287v-524z" />
    <glyph glyph-name="S" unicode="S" horiz-adv-x="1328" 
d="M976 403q0 103 -72.5 159t-261.5 113t-300 126q-214 135 -214 351q0 189 154 311.5t400 122.5q163 0 291 -60.5t201 -171.5t73 -246h-271q0 122 -76.5 191.5t-219.5 69.5q-133 0 -206.5 -57t-73.5 -159q0 -86 79.5 -143.5t262 -112t293 -123.5t162 -159t51.5 -210
q0 -196 -149.5 -311t-406.5 -115q-170 0 -312.5 62.5t-221.5 173t-79 258.5h272q0 -134 88 -207t253 -73q142 0 213 57.5t71 152.5z" />
    <glyph glyph-name="T" unicode="T" horiz-adv-x="1335" 
d="M1289 1345h-488v-1345h-269v1345h-484v219h1241v-219z" />
    <glyph glyph-name="U" unicode="U" horiz-adv-x="1434" 
d="M1303 1564v-1045q0 -249 -159.5 -394.5t-424.5 -145.5q-269 0 -427 143t-158 398v1044h271v-1046q0 -157 79.5 -239.5t234.5 -82.5q313 0 313 330v1038h271z" />
    <glyph glyph-name="V" unicode="V" horiz-adv-x="1423" 
d="M710 341l398 1223h298l-563 -1564h-263l-561 1564h298z" />
    <glyph glyph-name="W" unicode="W" horiz-adv-x="1936" 
d="M1386 387l240 1177h270l-361 -1564h-260l-297 1142l-304 -1142h-261l-361 1564h269l243 -1175l299 1175h227z" />
    <glyph glyph-name="X" unicode="X" horiz-adv-x="1392" 
d="M697 999l329 565h314l-473 -776l483 -788h-317l-336 574l-337 -574h-316l485 788l-474 776h313z" />
    <glyph glyph-name="Y" unicode="Y" horiz-adv-x="1341" 
d="M669 823l360 741h301l-524 -988v-576h-273v576l-525 988h301z" />
    <glyph glyph-name="Z" unicode="Z" horiz-adv-x="1325" 
d="M415 217h835v-217h-1164v176l809 1169h-804v219h1134v-172z" />
    <glyph glyph-name="bracketleft" unicode="[" horiz-adv-x="603" 
d="M580 1598h-177v-1743h177v-203h-438v2151h438v-205z" />
    <glyph glyph-name="backslash" unicode="\" horiz-adv-x="920" 
d="M21 1564h258l653 -1698h-257z" />
    <glyph glyph-name="bracketright" unicode="]" horiz-adv-x="603" 
d="M13 1803h440v-2151h-440v203h179v1743h-179v205z" />
    <glyph glyph-name="asciicircum" unicode="^" horiz-adv-x="940" 
d="M469 1278l-191 -495h-221l321 781h184l320 -781h-220z" />
    <glyph glyph-name="underscore" unicode="_" horiz-adv-x="993" 
d="M988 -205h-985v205h985v-205z" />
    <glyph glyph-name="grave" unicode="`" horiz-adv-x="709" 
d="M560 1325h-217l-290 325h297z" />
    <glyph glyph-name="a" unicode="a" horiz-adv-x="1190" 
d="M828 0q-17 33 -30 108q-124 -129 -305 -129q-175 0 -285.5 99.5t-110.5 246.5q0 186 138 285.5t394 99.5h161v76q0 91 -50.5 145t-154.5 54q-89 0 -146 -44.5t-57 -113.5h-261q0 96 63.5 179t172.5 130.5t243 47.5q205 0 326 -102.5t125 -288.5v-524q0 -157 44 -251v-18
h-267zM541 188q78 0 146 37.5t103 101.5v219h-141q-145 0 -218 -50.5t-73 -143.5q0 -75 50 -119.5t133 -44.5z" />
    <glyph glyph-name="b" unicode="b" horiz-adv-x="1239" 
d="M1154 569q0 -270 -121 -430t-333 -160q-204 0 -318 147l-12 -126h-237v1650h261v-599q113 133 304 133q213 0 334.5 -158t121.5 -442v-15zM893 592q0 189 -67 283.5t-193 94.5q-170 0 -239 -148v-479q70 -152 241 -152q122 0 189 91.5t69 276.5v33z" />
    <glyph glyph-name="c" unicode="c" horiz-adv-x="1152" 
d="M611 187q98 0 162.5 57t68.5 141h246q-4 -109 -67.5 -203t-172 -148.5t-234.5 -54.5q-243 0 -386 157.5t-143 436.5v26q0 266 141.5 425.5t386.5 159.5q208 0 338.5 -121t136.5 -317h-246q-4 99 -68 163.5t-163 64.5q-127 0 -195.5 -91.5t-69.5 -278.5v-42
q0 -189 68 -282t197 -93z" />
    <glyph glyph-name="d" unicode="d" horiz-adv-x="1242" 
d="M85 590q0 268 124.5 431t334.5 163q184 0 298 -129v595h261v-1650h-236l-13 120q-117 -141 -313 -141q-204 0 -330 164t-126 447zM346 567q0 -177 68 -276.5t194 -99.5q160 0 234 143v496q-72 140 -232 140q-127 0 -195.5 -100.5t-68.5 -302.5z" />
    <glyph glyph-name="e" unicode="e" horiz-adv-x="1181" 
d="M646 -21q-249 0 -403 156t-154 416v32q0 174 67 311t188.5 213.5t271.5 76.5q237 0 366.5 -151.5t129.5 -428.5v-106h-760q12 -144 96.5 -227.5t212.5 -83.5q179 0 292 145l141 -134q-70 -105 -186.5 -162t-261.5 -57zM614 974q-107 0 -173 -75t-84 -209h497v19
q-9 131 -70 198t-170 67z" />
    <glyph glyph-name="f" unicode="f" horiz-adv-x="780" 
d="M226 0v969h-178v193h178v107q0 193 107 298.5t301 105.5q69 0 146 -20l-7 -204q-43 9 -99 9q-187 0 -187 -193v-103h236v-193h-236v-969h-261z" />
    <glyph glyph-name="g" unicode="g" horiz-adv-x="1247" 
d="M88 590q0 270 127.5 432t337.5 162q199 0 313 -139l12 117h235v-1127q0 -228 -142.5 -360.5t-383.5 -132.5q-128 0 -250 53.5t-186 139.5l124 157q120 -143 296 -143q130 0 205.5 70t75.5 207v78q-113 -125 -301 -125q-204 0 -333.5 162t-129.5 449zM348 567
q0 -175 71.5 -275.5t198.5 -100.5q158 0 234 136v511q-74 132 -232 132q-129 0 -200.5 -102t-71.5 -301z" />
    <glyph glyph-name="h" unicode="h" horiz-adv-x="1221" 
d="M391 1036q128 148 323 148q372 0 377 -425v-759h-261v750q0 120 -52 170t-153 50q-157 0 -234 -140v-830h-261v1650h261v-614z" />
    <glyph glyph-name="i" unicode="i" horiz-adv-x="562" 
d="M411 0h-261v1162h261v-1162zM134 1464q0 60 38.5 100t109.5 40q70 0 109 -40t39 -100q0 -59 -39 -98t-109 -39q-71 0 -109.5 39t-38.5 98z" />
    <glyph glyph-name="j" unicode="j" horiz-adv-x="551" 
d="M406 1162v-1265q0 -178 -88.5 -272t-259.5 -94q-72 0 -139 18v206q41 -10 93 -10q130 0 133 142v1275h261zM122 1464q0 60 38.5 100t109.5 40t109.5 -40t38.5 -100q0 -59 -38.5 -98t-109.5 -39t-109.5 39t-38.5 98z" />
    <glyph glyph-name="k" unicode="k" horiz-adv-x="1148" 
d="M511 498l-116 -119v-379h-261v1650h261v-952l82 102l321 362h314l-432 -484l478 -678h-302z" />
    <glyph glyph-name="l" unicode="l" horiz-adv-x="562" 
d="M411 0h-261v1650h261v-1650z" />
    <glyph glyph-name="m" unicode="m" horiz-adv-x="1914" 
d="M379 1162l8 -121q122 143 335 143q233 0 319 -179q127 179 357 179q192 0 286 -106.5t96 -313.5v-764h-261v756q0 111 -48.5 162.5t-159.5 51.5q-90 0 -146 -48t-79 -125l1 -797h-261v765q-5 205 -209 205q-157 0 -223 -128v-842h-261v1162h246z" />
    <glyph glyph-name="n" unicode="n" horiz-adv-x="1224" 
d="M376 1162l7 -134q129 156 339 156q363 0 369 -416v-768h-261v753q0 111 -47.5 164t-156.5 53q-158 0 -235 -143v-827h-261v1162h246z" />
    <glyph glyph-name="o" unicode="o" horiz-adv-x="1253" 
d="M85 592q0 171 67.5 308t190 210.5t281.5 73.5q235 0 382 -151.5t158 -401.5l2 -62q0 -172 -66.5 -307t-189.5 -209t-284 -74q-246 0 -393.5 163.5t-147.5 436.5v13zM346 569q0 -179 74 -280.5t206 -101.5t206 103t74 302q0 176 -76 279t-206 103q-128 0 -203 -101.5
t-75 -303.5z" />
    <glyph glyph-name="p" unicode="p" horiz-adv-x="1239" 
d="M1152 569q0 -269 -122.5 -429.5t-329.5 -160.5q-191 0 -306 125v-551h-261v1609h241l11 -118q115 140 312 140q213 0 334 -158.5t121 -440.5v-16zM892 592q0 174 -69.5 276t-198.5 102q-160 0 -230 -132v-516q71 -135 232 -135q125 0 195.5 100.5t70.5 304.5z" />
    <glyph glyph-name="q" unicode="q" horiz-adv-x="1249" 
d="M85 591q0 273 124.5 433t337.5 160q194 0 308 -137l15 115h232v-1609h-261v546q-114 -120 -296 -120q-209 0 -334.5 162.5t-125.5 449.5zM346 568q0 -178 70.5 -279.5t194.5 -101.5q155 0 230 132v529q-75 126 -228 126q-124 0 -195.5 -99.5t-71.5 -306.5z" />
    <glyph glyph-name="r" unicode="r" horiz-adv-x="773" 
d="M742 924q-51 8 -106 8q-179 0 -242 -137v-795h-261v1162h249l7 -130q94 152 262 152q56 0 92 -15z" />
    <glyph glyph-name="s" unicode="s" horiz-adv-x="1135" 
d="M785 316q0 70 -57.5 106.5t-190.5 64.5t-222 71q-196 94 -196 273q0 151 127 252t322 101q209 0 337 -103t128 -268h-261q0 75 -55.5 125t-148.5 50q-86 0 -140 -39.5t-54 -106.5q0 -60 50.5 -93.5t204 -67t241 -80.5t130 -112.5t42.5 -158.5q0 -157 -130 -254t-341 -97
q-142 0 -254 51.5t-174 141.5t-62 194h253q5 -92 69.5 -142t171.5 -50q103 0 156.5 39t53.5 103z" />
    <glyph glyph-name="t" unicode="t" horiz-adv-x="732" 
d="M461 1445v-283h205v-193h-205v-649q0 -66 26 -96t94 -30q45 0 91 11v-202q-89 -24 -171 -24q-301 0 -301 331v659h-191v193h191v283h261z" />
    <glyph glyph-name="u" unicode="u" horiz-adv-x="1222" 
d="M838 114q-115 -135 -327 -135q-189 0 -286 110.5t-97 319.5v753h261v-749q0 -222 184 -222q190 0 256 137v834h261v-1162h-246z" />
    <glyph glyph-name="v" unicode="v" horiz-adv-x="1088" 
d="M544 331l246 831h269l-403 -1162h-226l-406 1162h270z" />
    <glyph glyph-name="w" unicode="w" horiz-adv-x="1635" 
d="M1155 360l185 802h254l-317 -1162h-215l-249 798l-245 -798h-215l-318 1162h255l188 -794l239 794h196z" />
    <glyph glyph-name="x" unicode="x" horiz-adv-x="1106" 
d="M551 780l221 382h290l-355 -572l367 -590h-288l-232 397l-231 -397h-290l368 590l-355 572h288z" />
    <glyph glyph-name="y" unicode="y" horiz-adv-x="1071" 
d="M540 374l237 788h278l-462 -1338q-106 -293 -361 -293q-57 0 -126 19v202l50 -3q99 0 148.5 36t78.5 120l38 100l-408 1157h281z" />
    <glyph glyph-name="z" unicode="z" horiz-adv-x="1106" 
d="M413 208h618v-208h-943v171l590 781h-579v210h910v-165z" />
    <glyph glyph-name="braceleft" unicode="{" horiz-adv-x="738" 
d="M654 -387q-379 107 -387 485v229q0 241 -207 241v191q207 0 207 243v228q4 193 101 312.5t286 173.5l52 -151q-186 -60 -193 -329v-232q0 -241 -185 -339q185 -99 185 -343v-229q7 -268 193 -328z" />
    <glyph glyph-name="bar" unicode="|" horiz-adv-x="552" 
d="M366 -290h-179v1854h179v-1854z" />
    <glyph glyph-name="braceright" unicode="}" horiz-adv-x="738" 
d="M29 -235q189 61 193 335v223q0 248 196 341q-196 92 -196 344v222q-4 274 -193 335l52 151q195 -55 290.5 -178t95.5 -322v-215q0 -242 209 -242v-191q-209 0 -209 -241v-212q0 -201 -96 -324t-290 -178z" />
    <glyph glyph-name="asciitilde" unicode="~" horiz-adv-x="1462" 
d="M1336 844q0 -189 -102 -308.5t-254 -119.5q-80 0 -147 30t-150 103.5t-118.5 91t-76.5 17.5q-72 0 -113.5 -55.5t-41.5 -145.5h-207q0 183 97.5 300.5t256.5 117.5q80 0 151.5 -31.5t149 -102.5t113.5 -89t78 -18q72 0 117 60t45 150h202z" />
    <glyph glyph-name="exclamdown" unicode="&#xa1;" horiz-adv-x="582" 
d="M183 711h224l26 -1102h-276zM439 1043q0 -60 -38.5 -100.5t-108.5 -40.5q-71 0 -109.5 40.5t-38.5 100.5q0 59 38.5 99.5t109.5 40.5q70 0 108.5 -40.5t38.5 -99.5z" />
    <glyph glyph-name="cent" unicode="&#xa2;" horiz-adv-x="1234" 
d="M635 187q95 0 159.5 56t71.5 142h245q-5 -147 -110.5 -257t-262.5 -140v-251h-215v251q-196 37 -306 191t-110 390v30q0 229 110 384t306 191v242h215v-241q170 -30 269 -146t104 -283h-245q-8 103 -71 165.5t-161 62.5q-247 0 -264 -335l-2 -77q0 -189 68.5 -282
t198.5 -93z" />
    <glyph glyph-name="sterling" unicode="&#xa3;" horiz-adv-x="1294" 
d="M547 642l7 -189q0 -145 -68 -236h747l-1 -217h-1127v217h88q42 10 65 69.5t23 157.5l-7 198h-173v214h166l-8 260q0 217 134 342.5t353 125.5q218 0 342.5 -117t124.5 -314h-263q0 102 -56.5 158t-157.5 56q-96 0 -151 -69.5t-55 -181.5l9 -260h334v-214h-326z" />
    <glyph glyph-name="currency" unicode="&#xa4;" horiz-adv-x="1544" 
d="M1166 115q-171 -136 -389 -136q-217 0 -387 135l-139 -142l-151 155l145 147q-107 168 -107 379q0 215 117 392l-155 158l151 155l153 -156q166 124 373 124q208 0 375 -126l155 159l153 -156l-159 -162q115 -171 115 -388q0 -207 -105 -375l149 -151l-153 -156zM336 653
q0 -129 59 -239.5t161 -173.5t221 -63q118 0 220 63.5t160.5 174t58.5 238.5t-58.5 237.5t-160 172.5t-220.5 63q-120 0 -222 -63t-160.5 -172.5t-58.5 -237.5z" />
    <glyph glyph-name="yen" unicode="&#xa5;" horiz-adv-x="1341" 
d="M667 881l338 683h301l-422 -767h289v-163h-375v-148h375v-163h-375v-323h-271v323h-380v163h380v148h-380v163h302l-422 767h302z" />
    <glyph glyph-name="brokenbar" unicode="&#xa6;" horiz-adv-x="546" 
d="M146 -290v854h246v-854h-246zM392 750h-246v814h246v-814z" />
    <glyph glyph-name="section" unicode="&#xa7;" horiz-adv-x="1366" 
d="M1250 489q0 -198 -183 -293q145 -108 145 -307q0 -185 -145 -291.5t-397 -106.5q-264 0 -418.5 116.5t-154.5 338.5l260 1q0 -118 83.5 -182.5t229.5 -64.5q130 0 206 51t76 136q0 83 -72 132t-273 108q-202 55 -304 114t-152 141.5t-50 199.5q0 198 182 295
q-70 53 -106.5 126t-36.5 181q0 182 147.5 292t394.5 110q258 0 402 -121t144 -340h-261q0 114 -78 182.5t-207 68.5q-132 0 -206.5 -51t-74.5 -139q0 -90 64.5 -137t272 -102.5t312 -116.5t152.5 -143t48 -198zM646 723q-87 23 -169 53q-116 -43 -116 -177q0 -87 53 -133
t213 -96l193 -57l49 -18q124 51 124 177q0 87 -73.5 139t-273.5 112z" />
    <glyph glyph-name="dieresis" unicode="&#xa8;" horiz-adv-x="968" 
d="M100 1467q0 54 36 90.5t100 36.5q63 0 99.5 -36.5t36.5 -89.5q0 -54 -36.5 -90.5t-99.5 -36.5q-64 0 -100 36.5t-36 89.5zM590 1466q0 54 36.5 90.5t100.5 36.5q63 0 99.5 -36.5t36.5 -89.5q0 -54 -36.5 -90.5t-99.5 -36.5q-64 0 -100.5 36.5t-36.5 89.5z" />
    <glyph glyph-name="copyright" unicode="&#xa9;" horiz-adv-x="1723" 
d="M1201 640q0 -163 -94 -250t-266 -87t-273.5 114.5t-101.5 307.5v121q0 187 102.5 301.5t272.5 114.5q175 0 268 -88.5t93 -248.5h-168q0 103 -49 147.5t-144 44.5q-99 0 -154 -73t-55 -200v-125q0 -127 55.5 -199t153.5 -72q96 0 144 43.5t48 148.5h168zM1487 783
q0 178 -80.5 331.5t-228 245t-322.5 91.5q-171 0 -317.5 -88t-230 -242.5t-83.5 -337.5t83 -337.5t229.5 -244t318.5 -89.5t319.5 91t229.5 246t82 334zM93 783q0 217 100.5 403t278.5 293t384 107t383.5 -107t278 -293t100.5 -403t-100.5 -403t-276.5 -293.5t-385 -107.5
q-207 0 -384 107t-278 293t-101 404z" />
    <glyph glyph-name="ordfeminine" unicode="&#xaa;" horiz-adv-x="981" 
d="M653 757l-18 73q-83 -88 -216 -88q-127 0 -197.5 66t-70.5 179q0 118 90.5 183t276.5 65h109v55q0 137 -124 137q-70 0 -109.5 -27.5t-39.5 -79.5l-185 15q0 112 94 181.5t240 69.5q147 0 229.5 -78t82.5 -220v-339q0 -105 28 -192h-190zM465 897q43 0 88 19.5t74 46.5
v147h-114q-81 -1 -127.5 -33.5t-46.5 -84.5q0 -95 126 -95z" />
    <glyph glyph-name="guillemotleft" unicode="&#xab;" horiz-adv-x="1068" 
d="M578 981l-23 -33q-24 -32 -51.5 -89t-50 -134.5t-22.5 -165.5q0 -90 22.5 -165.5t50 -132.5t51.5 -89l23 -32l-142 -117q-4 3 -33.5 44.5t-64.5 112.5t-64 167.5t-29 211.5t29 212.5t64 168.5t64.5 112.5t33.5 45.5zM859 883l-18 -25q-18 -25 -39.5 -69t-39.5 -102.5
t-18 -127.5q0 -68 18 -126.5t38.5 -102t38.5 -68.5l18 -25l-140 -117q-4 2 -28 36t-53 92.5t-52.5 138t-23.5 172.5q0 94 23.5 174t52.5 138.5t53 92t28 36.5z" />
    <glyph glyph-name="logicalnot" unicode="&#xac;" horiz-adv-x="1217" 
d="M1033 402h-214v279h-683v184h897v-463z" />
    <glyph glyph-name="softhyphen" unicode="&#xad;" horiz-adv-x="722" 
d="M640 560h-564v210h564v-210z" />
    <glyph glyph-name="registered" unicode="&#xae;" horiz-adv-x="1723" 
d="M93 783q0 217 100.5 403t278.5 293t384 107t383.5 -107t278 -293t100.5 -403t-100.5 -403t-276.5 -293.5t-385 -107.5q-207 0 -384 107t-278 293t-101 404zM1487 783q0 178 -80.5 331.5t-228 245t-322.5 91.5q-171 0 -317.5 -88t-230 -242.5t-83.5 -337.5t83 -337.5
t229.5 -244t318.5 -89.5t319.5 91t229.5 246t82 334zM701 701v-362h-162v914h302q164 0 256.5 -72.5t92.5 -207.5q0 -125 -129 -193q70 -31 98 -91t28 -147.5t4 -124t14 -60.5v-18h-166q-14 37 -14 209q0 81 -35.5 117t-118.5 36h-170zM701 845h154q74 0 124 33.5t50 91.5
q0 75 -38 107t-138 33h-152v-265z" />
    <glyph glyph-name="macron" unicode="&#xaf;" horiz-adv-x="1060" 
d="M926 1394h-781v170h781v-170z" />
    <glyph glyph-name="degree" unicode="&#xb0;" horiz-adv-x="836" 
d="M420 1586q114 0 196.5 -85t82.5 -203q0 -119 -81.5 -202t-197.5 -83q-117 0 -200.5 83t-83.5 202q0 118 84.5 203t199.5 85zM420 1164q57 0 94 38.5t37 95.5q0 56 -37 96.5t-94 40.5t-95.5 -40.5t-38.5 -96.5t39 -95t95 -39z" />
    <glyph glyph-name="plusminus" unicode="&#xb1;" horiz-adv-x="1179" 
d="M718 966h368v-214h-368v-417h-232v417h-384v214h384v405h232v-405zM1046 1h-912v211h912v-211z" />
    <glyph glyph-name="twosuperior" unicode="&#xb2;" horiz-adv-x="814" 
d="M741 717h-657v134l306 280q121 111 121 183q0 45 -29 73.5t-85 28.5q-62 0 -97.5 -35.5t-35.5 -93.5h-200q0 125 91 207t236 82q154 0 237.5 -69t83.5 -192q0 -115 -114 -225l-105 -93l-150 -122h398v-158z" />
    <glyph glyph-name="threesuperior" unicode="&#xb3;" horiz-adv-x="814" 
d="M288 1216h87q142 0 142 104q0 38 -29 66.5t-96 28.5q-51 0 -86 -21t-35 -59h-200q0 107 88.5 173.5t228.5 66.5q153 0 241 -65t88 -178q0 -128 -146 -183q161 -44 161 -196q0 -114 -95.5 -181.5t-248.5 -67.5q-145 0 -237 68t-92 189h200q0 -40 37 -68.5t101 -28.5
q68 0 101 29.5t33 74.5q0 108 -144 109h-99v139z" />
    <glyph glyph-name="acute" unicode="&#xb4;" horiz-adv-x="717" 
d="M330 1650h297l-297 -325h-210z" />
    <glyph glyph-name="mu" unicode="&#xb5;" horiz-adv-x="1301" 
d="M417 1162v-683q2 -151 50 -221t161 -70q181 0 244 130v844h261v-1162h-239l-8 92q-99 -115 -257 -115q-129 0 -212 60v-484h-260v1609h260z" />
    <glyph glyph-name="paragraph" unicode="&#xb6;" horiz-adv-x="1080" 
d="M692 0v559h-86q-247 0 -389.5 136t-142.5 366q0 229 143 366t390 137h310v-1564h-225z" />
    <glyph glyph-name="periodcentered" unicode="&#xb7;" horiz-adv-x="621" 
d="M153 767q0 62 39.5 104t111.5 42t112.5 -42t40.5 -104q0 -63 -42 -103t-111 -40q-70 0 -110.5 40t-40.5 103z" />
    <glyph glyph-name="cedilla" unicode="&#xb8;" horiz-adv-x="567" 
d="M342 3l-12 -58q161 -29 161 -186q0 -112 -92.5 -175.5t-258.5 -63.5l-8 147q71 0 109 25t38 71q0 48 -38 67t-124 24l34 149h191z" />
    <glyph glyph-name="onesuperior" unicode="&#xb9;" horiz-adv-x="814" 
d="M552 722h-199v612l-215 -51v156l394 128h20v-845z" />
    </font>
</defs>
</svg>
